<?xml version="1.0" encoding="utf-8"?>
<!-- Generator: Adobe Illustrator 19.1.0, SVG Export Plug-In . SVG Version: 6.00 Build 0)  -->
<svg version="1.1" id="Layer_1" xmlns="http://www.w3.org/2000/svg" xmlns:xlink="http://www.w3.org/1999/xlink" x="0px" y="0px"
	 viewBox="0 0 42.8 30.8" style="enable-background:new 0 0 42.8 30.8;" xml:space="preserve">
<style type="text/css">
	.st0{fill:none;stroke:#808184;stroke-width:2;stroke-linecap:round;stroke-linejoin:round;stroke-miterlimit:10;}
	.st1{fill:none;stroke:#808184;stroke-width:1.6899;stroke-miterlimit:10;}
	.st2{fill:#FFFFFF;stroke:#808184;stroke-width:2;stroke-miterlimit:10;}
	.st3{fill:none;stroke:#808184;stroke-width:2;stroke-miterlimit:10;}
	.st4{fill:#FFFFFF;stroke:#808184;stroke-width:2;stroke-linecap:round;stroke-linejoin:round;stroke-miterlimit:10;}
	.st5{fill:#808184;stroke:#808184;stroke-width:2;stroke-linecap:round;stroke-linejoin:round;stroke-miterlimit:10;}
	.st6{fill-rule:evenodd;clip-rule:evenodd;fill:#808184;}
</style>
<g>
	<path class="st0" d="M16.3,6.5c0-3.1,2.5-5.5,5.5-5.5s5.5,2.5,5.5,5.5s-2.5,5.5-5.5,5.5"/>
	<line class="st0" x1="21.9" y1="12.1" x2="4.4" y2="12.1"/>
	<path class="st0" d="M18.6,24.2c0,3.1,2.5,5.5,5.5,5.5s5.5-2.5,5.5-5.5s-2.5-5.5-5.5-5.5"/>
	<line class="st0" x1="24.2" y1="18.7" x2="6.7" y2="18.7"/>
	<path class="st0" d="M30.7,9.8c0-3.1,2.5-5.5,5.5-5.5c3.1,0,5.5,2.5,5.5,5.5s-2.5,5.5-5.5,5.5"/>
	<line class="st0" x1="36.3" y1="15.3" x2="1" y2="15.3"/>
</g>
</svg>
