<?xml version="1.0" encoding="utf-8"?>
<!-- Generator: Adobe Illustrator 19.1.0, SVG Export Plug-In . SVG Version: 6.00 Build 0)  -->
<svg version="1.1" id="Layer_1" xmlns="http://www.w3.org/2000/svg" xmlns:xlink="http://www.w3.org/1999/xlink" x="0px" y="0px"
	 viewBox="0 0 37.9 33.6" style="enable-background:new 0 0 37.9 33.6;" xml:space="preserve">
<style type="text/css">
	.st0{fill:none;stroke:#808184;stroke-width:2;stroke-linecap:round;stroke-linejoin:round;stroke-miterlimit:10;}
	.st1{fill:none;stroke:#808184;stroke-width:1.6899;stroke-miterlimit:10;}
	.st2{fill:#FFFFFF;stroke:#808184;stroke-width:2;stroke-miterlimit:10;}
	.st3{fill:none;stroke:#808184;stroke-width:2;stroke-miterlimit:10;}
	.st4{fill:#FFFFFF;stroke:#808184;stroke-width:2;stroke-linecap:round;stroke-linejoin:round;stroke-miterlimit:10;}
	.st5{fill:#808184;stroke:#808184;stroke-width:2;stroke-linecap:round;stroke-linejoin:round;stroke-miterlimit:10;}
	.st6{fill-rule:evenodd;clip-rule:evenodd;fill:#808184;}
</style>
<g>
	<g>
		<path class="st0" d="M26.6,26.1c1.9-0.3,3.3-0.7,4-1.1c3.4-1.3,6.4-2.7,6.4-6.5c0-4.1-2.7-7.5-6.4-8.6c-0.3-5-4.4-9-9.5-9
			c-5.1,0-9.3,4-9.5,9.1c-0.8-0.3-1.7-0.5-2.7-0.5C4.5,9.6,1,13.1,1,17.4c0,1.2,0.3,2.3,0.7,3.2c1.7,2.5,4.4,4.1,7.6,5"/>
	</g>
	<polygon class="st5" points="18.2,16.4 24.1,16.4 19.2,23.4 22.9,23.4 14.9,32.6 17.1,24.4 14.6,24.4 	"/>
</g>
</svg>
