<?xml version="1.0" encoding="utf-8"?>
<!-- Generator: Adobe Illustrator 19.1.0, SVG Export Plug-In . SVG Version: 6.00 Build 0)  -->
<svg version="1.1" id="Layer_1" xmlns="http://www.w3.org/2000/svg" xmlns:xlink="http://www.w3.org/1999/xlink" x="0px" y="0px"
	 viewBox="0 0 44.5 36.1" style="enable-background:new 0 0 44.5 36.1;" xml:space="preserve">
<style type="text/css">
	.st0{fill:none;stroke:#808184;stroke-width:2;stroke-linecap:round;stroke-linejoin:round;stroke-miterlimit:10;}
	.st1{fill:none;stroke:#808184;stroke-width:1.6899;stroke-miterlimit:10;}
	.st2{fill:#FFFFFF;stroke:#808184;stroke-width:2;stroke-miterlimit:10;}
	.st3{fill:none;stroke:#808184;stroke-width:2;stroke-miterlimit:10;}
	.st4{fill:#FFFFFF;stroke:#808184;stroke-width:2;stroke-linecap:round;stroke-linejoin:round;stroke-miterlimit:10;}
	.st5{fill:#808184;stroke:#808184;stroke-width:2;stroke-linecap:round;stroke-linejoin:round;stroke-miterlimit:10;}
	.st6{fill-rule:evenodd;clip-rule:evenodd;fill:#808184;}
</style>
<g>
	<path class="st0" d="M35.6,22.1c4.5-1.2,7.9-5.4,7.9-10.3c-1.4,1.8-3.5,3-6,3c-4.1,0-7.5-3.4-7.5-7.5c0-2.5,0.6-4.7,2.7-6.3l0,0
		c-5.1,0-9.4,3.6-10.5,8.4"/>
	<g>
		<path class="st3" d="M36.9,26.9c0-4.1-2.7-7.5-6.4-8.6c-0.3-5-4.4-9-9.5-9c-5.1,0-9.3,4-9.5,9.1c-0.8-0.3-1.7-0.5-2.7-0.5
			c-4.3,0-7.7,3.5-7.7,7.7c0,1.2,0.3,2.3,0.7,3.2c6,9,25.7,6.1,28.8,4.5C33.9,32.1,36.9,30.7,36.9,26.9z"/>
	</g>
</g>
</svg>
