<?xml version="1.0" encoding="utf-8"?>
<!-- Generator: Adobe Illustrator 19.1.0, SVG Export Plug-In . SVG Version: 6.00 Build 0)  -->
<svg version="1.1" id="Layer_1" xmlns="http://www.w3.org/2000/svg" xmlns:xlink="http://www.w3.org/1999/xlink" x="0px" y="0px"
	 viewBox="0 0 30.7 26.7" style="enable-background:new 0 0 30.7 26.7;" xml:space="preserve">
<style type="text/css">
	.st0{fill:none;stroke:#808184;stroke-width:2;stroke-linecap:round;stroke-linejoin:round;stroke-miterlimit:10;}
	.st1{fill:none;stroke:#808184;stroke-width:1.6899;stroke-miterlimit:10;}
	.st2{fill:#FFFFFF;stroke:#808184;stroke-width:2;stroke-miterlimit:10;}
	.st3{fill:none;stroke:#808184;stroke-width:2;stroke-miterlimit:10;}
	.st4{fill:#FFFFFF;stroke:#808184;stroke-width:2;stroke-linecap:round;stroke-linejoin:round;stroke-miterlimit:10;}
	.st5{fill:#808184;stroke:#808184;stroke-width:2;stroke-linecap:round;stroke-linejoin:round;stroke-miterlimit:10;}
	.st6{fill-rule:evenodd;clip-rule:evenodd;fill:#808184;}
</style>
<g>
	<path class="st6" d="M15.3,20c-1.1,0-2,0.9-2,2c0,1.1,0.9,2,2,2s2-0.9,2-2C17.3,20.9,16.5,20,15.3,20z M17.3,8
		c0-0.7-0.6-1.3-1.3-1.3h-1.3c-0.7,0-1.3,0.6-1.3,1.3v8c0,0.7,0.6,1.3,1.3,1.3H16c0.7,0,1.3-0.6,1.3-1.3V8z M28.8,26.7H1.9
		c-1.7,0-2.4-0.9-1.6-2.4L13.8,1.2c0.9-1.5,2.3-1.6,3.1-0.1l13.4,23.3C31.2,25.9,30.5,26.7,28.8,26.7z"/>
</g>
</svg>
