<?xml version="1.0" encoding="utf-8"?>
<!-- Generator: Adobe Illustrator 19.1.0, SVG Export Plug-In . SVG Version: 6.00 Build 0)  -->
<svg version="1.1" id="Layer_1" xmlns="http://www.w3.org/2000/svg" xmlns:xlink="http://www.w3.org/1999/xlink" x="0px" y="0px"
	 viewBox="0 0 44.7 27.8" style="enable-background:new 0 0 44.7 27.8;" xml:space="preserve">
<style type="text/css">
	.st0{fill:none;stroke:#808184;stroke-width:2;stroke-linecap:round;stroke-linejoin:round;stroke-miterlimit:10;}
	.st1{fill:none;stroke:#808184;stroke-width:1.6899;stroke-miterlimit:10;}
	.st2{fill:#FFFFFF;stroke:#808184;stroke-width:2;stroke-miterlimit:10;}
	.st3{fill:none;stroke:#808184;stroke-width:2;stroke-miterlimit:10;}
	.st4{fill:#FFFFFF;stroke:#808184;stroke-width:2;stroke-linecap:round;stroke-linejoin:round;stroke-miterlimit:10;}
	.st5{fill:#808184;stroke:#808184;stroke-width:2;stroke-linecap:round;stroke-linejoin:round;stroke-miterlimit:10;}
	.st6{fill-rule:evenodd;clip-rule:evenodd;fill:#808184;}
</style>
<g>
	<g>
		<path class="st1" d="M34.1,23.4c2.1-0.3,3.8-0.7,4.4-1.1c2.8-1.1,5.4-2.3,5.4-5.5c0-3.4-2.3-6.3-5.4-7.3C38.2,5.4,34.7,2,30.4,2
			c-1.3,0-2.6,0.3-3.7,0.9"/>
	</g>
	<g>
		<path class="st3" d="M36.9,18.6c0-4.1-2.7-7.5-6.4-8.6c-0.3-5-4.4-9-9.5-9c-5.1,0-9.3,4-9.5,9.1c-0.8-0.3-1.7-0.5-2.7-0.5
			C4.5,9.6,1,13.1,1,17.4c0,1.2,0.3,2.3,0.7,3.2c6,9,25.7,6.1,28.8,4.5C33.9,23.8,36.9,22.4,36.9,18.6z"/>
	</g>
</g>
</svg>
