<?xml version="1.0" encoding="utf-8"?>
<!-- Generator: Adobe Illustrator 19.1.0, SVG Export Plug-In . SVG Version: 6.00 Build 0)  -->
<svg version="1.1" id="Layer_1" xmlns="http://www.w3.org/2000/svg" xmlns:xlink="http://www.w3.org/1999/xlink" x="0px" y="0px"
	 viewBox="0 0 35.9 35.9" style="enable-background:new 0 0 35.9 35.9;" xml:space="preserve">
<style type="text/css">
	.st0{fill:none;stroke:#808184;stroke-width:2;stroke-linecap:round;stroke-linejoin:round;stroke-miterlimit:10;}
	.st1{fill:none;stroke:#808184;stroke-width:1.6899;stroke-miterlimit:10;}
	.st2{fill:#FFFFFF;stroke:#808184;stroke-width:2;stroke-miterlimit:10;}
	.st3{fill:none;stroke:#808184;stroke-width:2;stroke-miterlimit:10;}
	.st4{fill:#FFFFFF;stroke:#808184;stroke-width:2;stroke-linecap:round;stroke-linejoin:round;stroke-miterlimit:10;}
	.st5{fill:#808184;stroke:#808184;stroke-width:2;stroke-linecap:round;stroke-linejoin:round;stroke-miterlimit:10;}
	.st6{fill-rule:evenodd;clip-rule:evenodd;fill:#808184;}
</style>
<g>
	<path class="st0" d="M34.9,29.7c0,2.9-2.3,5.2-5.2,5.2s-5.2-2.3-5.2-5.2c0-2.9,5.2-11,5.2-11S34.9,26.8,34.9,29.7z"/>
	<path class="st0" d="M25,12c0,2.9-2.3,5.2-5.2,5.2s-5.2-2.3-5.2-5.2s5.2-11,5.2-11S25,9.2,25,12z"/>
	<path class="st0" d="M11.4,22.4c0,2.9-2.3,5.2-5.2,5.2S1,25.2,1,22.4c0-2.9,5.2-11,5.2-11S11.4,19.5,11.4,22.4z"/>
</g>
</svg>
