<?xml version="1.0" encoding="utf-8"?>
<!-- Generator: Adobe Illustrator 19.1.0, SVG Export Plug-In . SVG Version: 6.00 Build 0)  -->
<svg version="1.1" id="Layer_1" xmlns="http://www.w3.org/2000/svg" xmlns:xlink="http://www.w3.org/1999/xlink" x="0px" y="0px"
	 viewBox="0 0 45.7 38.9" style="enable-background:new 0 0 45.7 38.9;" xml:space="preserve">
<style type="text/css">
	.st0{fill:none;stroke:#808184;stroke-width:2;stroke-linecap:round;stroke-linejoin:round;stroke-miterlimit:10;}
	.st1{fill:none;stroke:#808184;stroke-width:1.6899;stroke-miterlimit:10;}
	.st2{fill:#FFFFFF;stroke:#808184;stroke-width:2;stroke-miterlimit:10;}
	.st3{fill:none;stroke:#808184;stroke-width:2;stroke-miterlimit:10;}
	.st4{fill:#FFFFFF;stroke:#808184;stroke-width:2;stroke-linecap:round;stroke-linejoin:round;stroke-miterlimit:10;}
	.st5{fill:#808184;stroke:#808184;stroke-width:2;stroke-linecap:round;stroke-linejoin:round;stroke-miterlimit:10;}
	.st6{fill-rule:evenodd;clip-rule:evenodd;fill:#808184;}
</style>
<g>
	<g>
		<g>
			<g>
				<g>
					<line class="st0" x1="18.1" y1="1" x2="18.1" y2="5.7"/>
				</g>
				<g>
					<line class="st0" x1="5.7" y1="18.1" x2="1" y2="18.1"/>
				</g>
			</g>
			<g>
				<g>
					<line class="st0" x1="30.1" y1="6" x2="26.8" y2="9.3"/>
					<line class="st0" x1="8.8" y1="27.3" x2="6" y2="30.1"/>
				</g>
				<g>
					<line class="st0" x1="9.3" y1="9.3" x2="6" y2="6"/>
				</g>
			</g>
		</g>
		<path class="st0" d="M24.2,13.2c-1.4-1.8-3.6-2.9-6.1-2.9c-4.3,0-7.8,3.5-7.8,7.8c0,1.6,0.5,3.1,1.3,4.3"/>
	</g>
	<g>
		<path class="st3" d="M44.7,29.7c0-4.1-2.7-7.5-6.4-8.6c-0.3-5-4.4-9-9.5-9c-5.1,0-9.3,4-9.5,9.1c-0.8-0.3-1.7-0.5-2.7-0.5
			c-4.3,0-7.7,3.5-7.7,7.7c0,1.2,0.3,2.3,0.7,3.2c6,9,25.7,6.1,28.8,4.5C41.7,34.8,44.7,33.5,44.7,29.7z"/>
	</g>
</g>
</svg>
