<?xml version="1.0" encoding="utf-8"?>
<!-- Generator: Adobe Illustrator 19.1.0, SVG Export Plug-In . SVG Version: 6.00 Build 0)  -->
<svg version="1.1" xmlns="http://www.w3.org/2000/svg" xmlns:xlink="http://www.w3.org/1999/xlink" x="0px" y="0px"
	 viewBox="0 0 500.5 356" style="enable-background:new 0 0 500.5 356;" xml:space="preserve">
<style type="text/css">
	.st0{fill:#EDEDED;}
	.st1{fill:#59595A;}
	.st2{fill:none;stroke:#59595B;stroke-width:5;stroke-linejoin:round;stroke-miterlimit:10;}
	.st3{fill:none;stroke:#59595B;stroke-width:4.1457;stroke-linejoin:round;stroke-miterlimit:10;}
	.st4{fill:#F6F5F5;}
	.st5{fill:#59595B;}
	.st6{fill:none;stroke:#59595B;stroke-width:4.0874;stroke-linecap:round;stroke-linejoin:round;stroke-miterlimit:10;}
	.st7{fill:none;stroke:#59595B;stroke-width:5;stroke-linecap:round;stroke-linejoin:round;stroke-miterlimit:10;}
	.st8{fill:#EFEFEF;stroke:#59595B;stroke-width:5;stroke-linecap:round;stroke-linejoin:round;stroke-miterlimit:10;}
	.st9{fill:#EDECED;}
	.st10{fill:none;stroke:#5A5B5B;stroke-width:5;stroke-miterlimit:10;}
	.st11{fill:none;stroke:#5A5B5C;stroke-width:5;stroke-linecap:round;stroke-linejoin:round;stroke-miterlimit:10;}
	.st12{fill:#EDECED;stroke:#5A5B5C;stroke-width:5;stroke-linecap:round;stroke-linejoin:round;stroke-miterlimit:10;}
	.st13{fill:#5A5B5C;stroke:#5A5B5C;stroke-width:5;stroke-linecap:round;stroke-linejoin:round;stroke-miterlimit:10;}
	.st14{fill:none;stroke:#5A5B5B;stroke-width:5;stroke-linecap:round;stroke-linejoin:round;stroke-miterlimit:10;}
	.st15{fill:#F0EFEF;stroke:#5A5B5B;stroke-width:5;stroke-linecap:round;stroke-linejoin:round;stroke-miterlimit:10;}
	.st16{fill:#E8E8E8;stroke:#5A5B5C;stroke-width:5;stroke-linecap:round;stroke-linejoin:round;stroke-miterlimit:10;}
	.st17{fill:#FFFFFF;stroke:#5A5B5B;stroke-width:5;stroke-linecap:round;stroke-linejoin:round;stroke-miterlimit:10;}
	.st18{fill:#EFEFEF;stroke:#59595A;stroke-width:5;stroke-linecap:round;stroke-linejoin:round;stroke-miterlimit:10;}
	.st19{fill:none;stroke:#59595A;stroke-width:5;stroke-miterlimit:10;}
	.st20{fill:none;stroke:#59595A;stroke-width:5;stroke-linecap:round;stroke-miterlimit:10;}
	.st21{fill:none;stroke:#59595A;stroke-width:5;stroke-linejoin:round;stroke-miterlimit:10;}
	.st22{fill:none;stroke:#59595A;stroke-width:4.539;stroke-miterlimit:10;}
	.st23{fill:none;stroke:#59595A;stroke-width:4.1349;stroke-miterlimit:10;}
	.st24{fill:none;stroke:#59595A;stroke-width:3.9798;stroke-miterlimit:10;}
	.st25{fill:none;stroke:#58595B;stroke-width:5;stroke-miterlimit:10;}
	.st26{fill:none;stroke:#58595B;stroke-width:5;stroke-linejoin:round;stroke-miterlimit:10;}
	.st27{fill:none;stroke:#58595B;stroke-width:5;stroke-linecap:round;stroke-linejoin:round;stroke-miterlimit:10;}
	.st28{fill:none;stroke:#59595B;stroke-width:4.2054;stroke-linecap:round;stroke-linejoin:round;stroke-miterlimit:10;}
	.st29{fill:none;stroke:#59595B;stroke-width:5;stroke-miterlimit:10;}
	.st30{fill:#EDECEC;stroke:#59595B;stroke-width:5;stroke-linecap:round;stroke-linejoin:round;stroke-miterlimit:10;}
	.st31{fill:#EDEDED;stroke:#59595A;stroke-width:5;stroke-miterlimit:10;}
	.st32{fill:#EDEDED;stroke:#59595B;stroke-width:5;stroke-linecap:round;stroke-linejoin:round;stroke-miterlimit:10;}
	.st33{fill:none;stroke:#59595A;stroke-width:5;stroke-linecap:round;stroke-linejoin:round;stroke-miterlimit:10;}
	.st34{fill:#58595B;}
	.st35{fill:#59595A;stroke:#EDEDED;stroke-width:3;stroke-miterlimit:10;}
	.st36{fill:#59595A;stroke:#EDEDED;stroke-miterlimit:10;}
	.st37{fill:#EFEFEF;stroke:#59595A;stroke-width:5;stroke-linecap:round;stroke-miterlimit:10;}
	.st38{fill:#EDEDED;stroke:#59595A;stroke-width:5;stroke-linecap:round;stroke-linejoin:round;stroke-miterlimit:10;}
	.st39{fill-rule:evenodd;clip-rule:evenodd;fill:#59595B;}
	
		.st40{fill-rule:evenodd;clip-rule:evenodd;fill:none;stroke:#59595B;stroke-width:5;stroke-linecap:round;stroke-linejoin:round;stroke-miterlimit:10;}
	.st41{fill:none;stroke:#5A5B5C;stroke-width:4.1457;stroke-linejoin:round;stroke-miterlimit:10;}
	.st42{fill:none;stroke:#5A5B5B;stroke-width:4.539;stroke-miterlimit:10;}
	.st43{fill:none;stroke:#5A5B5B;stroke-width:4.1349;stroke-miterlimit:10;}
	.st44{fill:none;stroke:#5A5B5B;stroke-width:3.9798;stroke-miterlimit:10;}
	.st45{fill:none;stroke:#5A5B5C;stroke-width:4;stroke-linecap:round;stroke-linejoin:round;stroke-miterlimit:10;}
	.st46{fill:none;stroke:#595A5C;stroke-width:5;stroke-linecap:round;stroke-linejoin:round;stroke-miterlimit:10;}
	.st47{fill:#5A5B5C;}
	.st48{fill:none;stroke:#595A5C;stroke-width:5;stroke-linejoin:round;stroke-miterlimit:10;}
	.st49{fill:none;stroke:#5A5B5B;stroke-width:5;stroke-linecap:round;stroke-miterlimit:10;}
	.st50{fill:#5A5B5B;}
	.st51{fill:#5A5B5C;stroke:#5A5B5C;stroke-miterlimit:10;}
	.st52{fill:#595A5C;}
	.st53{fill:#EDECED;stroke:#5A5B5B;stroke-width:5;stroke-miterlimit:10;}
	.st54{fill:#FFFFFF;stroke:#5A5B5B;stroke-width:5;stroke-miterlimit:10;}
	.st55{fill:#FFFFFF;stroke:#5A5B5C;stroke-width:5;stroke-linecap:round;stroke-linejoin:round;stroke-miterlimit:10;}
	.st56{fill:#FFFFFF;stroke:#59595B;stroke-width:5;stroke-linecap:round;stroke-linejoin:round;stroke-miterlimit:10;}
	.st57{fill:#FFFFFF;stroke:#59595A;stroke-width:5;stroke-linecap:round;stroke-linejoin:round;stroke-miterlimit:10;}
	.st58{fill:#FFFFFF;stroke:#59595A;stroke-width:5;stroke-miterlimit:10;}
	.st59{fill:none;stroke:#59595B;stroke-width:3.8573;stroke-linejoin:round;stroke-miterlimit:10;}
	.st60{fill:#EDEDED;stroke:#59595B;stroke-width:5;stroke-miterlimit:10;}
	.st61{fill:none;stroke:#59595B;stroke-width:5;stroke-linecap:round;stroke-miterlimit:10;}
	.st62{fill:#59595B;stroke:#59595A;stroke-width:5;stroke-linecap:round;stroke-linejoin:round;stroke-miterlimit:10;}
	.st63{fill:#FFFFFF;stroke:#59595B;stroke-width:5;stroke-miterlimit:10;}
	.st64{fill:#EAEAEA;stroke:#59595A;stroke-width:5;stroke-linecap:round;stroke-linejoin:round;stroke-miterlimit:10;}
	.st65{fill:#EAEAEA;stroke:#59595A;stroke-width:5;stroke-linecap:round;stroke-miterlimit:10;}
</style>
<g id="Background">
</g>
<g id="_x23_Tower_x5F_Bridge">
</g>
<g id="_x23_Washington_x5F_Mountain">
</g>
<g id="_x23_London_x5F_Eye">
</g>
<g id="_x23_Eiffel_x5F_Tower">
	<g id="New_Symbol">
	</g>
	<g>
		<line class="st19" x1="500.5" y1="326.9" x2="301.2" y2="326.9"/>
		<g>
			<path class="st33" d="M80.7,348.6c0,0,3.8,4.8,9,4.8c5.1,0,9-4.8,9-4.8"/>
			<path class="st33" d="M98.7,348.6c0,0,3.8,4.8,9,4.8s9-4.8,9-4.8"/>
			<path class="st33" d="M116.6,348.6c0,0,3.8,4.8,9,4.8c5.1,0,9-4.8,9-4.8"/>
			<path class="st33" d="M134.6,348.6c0,0,3.8,4.8,9,4.8s9-4.8,9-4.8"/>
			<path class="st33" d="M152.5,348.6c0,0,3.8,4.8,9,4.8s9-4.8,9-4.8"/>
			<path class="st33" d="M170.5,348.6c0,0,3.8,4.8,9,4.8c5.1,0,9-4.8,9-4.8"/>
			<path class="st33" d="M188.4,348.6c0,0,3.8,4.8,9,4.8c5.1,0,9-4.8,9-4.8"/>
			<path class="st33" d="M206.4,348.6c0,0,3.8,4.8,9,4.8c5.1,0,9-4.8,9-4.8"/>
			<path class="st33" d="M224.4,348.6c0,0,3.8,4.8,9,4.8s9-4.8,9-4.8"/>
			<path class="st33" d="M242.3,348.6c0,0,3.8,4.8,9,4.8s9-4.8,9-4.8"/>
			<path class="st33" d="M260.5,348.6c0,0,3.8,4.8,9,4.8s9-4.8,9-4.8"/>
			<path class="st33" d="M278.4,348.6c0,0,3.8,4.8,9,4.8s9-4.8,9-4.8"/>
			<path class="st33" d="M296.4,348.6c0,0,3.8,4.8,9,4.8s9-4.8,9-4.8"/>
			<path class="st33" d="M314.3,348.6c0,0,3.8,4.8,9,4.8s9-4.8,9-4.8"/>
			<path class="st33" d="M332.3,348.6c0,0,3.8,4.8,9,4.8s9-4.8,9-4.8"/>
			<path class="st33" d="M350.2,348.6c0,0,3.8,4.8,9,4.8s9-4.8,9-4.8"/>
			<path class="st33" d="M368.2,348.6c0,0,3.8,4.8,9,4.8c5.1,0,9-4.8,9-4.8"/>
			<path class="st33" d="M386.1,348.6c0,0,3.8,4.8,9,4.8c5.1,0,9-4.8,9-4.8"/>
			<path class="st33" d="M404.1,348.6c0,0,3.8,4.8,9,4.8c5.1,0,9-4.8,9-4.8"/>
			<path class="st33" d="M422.1,348.6c0,0,3.8,4.8,9,4.8s9-4.8,9-4.8"/>
		</g>
		<path class="st19" d="M39,220.9L65.7,198l9.5-14.2l19.1-9.4l11.9-7.1L117,156l14.1-6c0,0,10.8-9.5,13.7-11.1s13.9-9.5,16.1-11.8
			c2.2-2.4,20.2-14.4,20.2-14.4l12.8-10.9L214.4,90l16.7-11.8c0,0,11.9,5.5,16.7,6.3s8.5,5.5,8.5,5.5l2.8,7.9l22.2-8.7
			c0,0,10.9-15,13.1-16.6c2.2-1.6,20.2-5.5,20.2-5.5l8.3-6.3l11,5.5c0,0,14,5.5,14,6.3s8.3,7.9,8.3,7.9s9.2,3.9,11.4,5.5
			c2.2,1.6,13.3,4.7,13.6,5.5s8.3,3.9,8.3,5.5c0.1,1.6,6.1,4.7,7.8,7.1c1.7,2.4,13.3,8.5,13.3,8.5s8.2,2.5,9.7,4.1s4.4,3.9,7.4,6.3
			c3,2.4,4.4,3.9,6.6,5.5c2.2,1.6-3.3-0.8,7.5,7.1c10.8,7.9,21.5,13.4,21.5,13.4l24.6,14.2"/>
		<polygon class="st19" points="430.9,215.9 423.8,215.9 423.1,222.8 431.6,222.8 		"/>
		<polygon class="st19" points="430.9,222.8 423.8,222.8 423.1,229.7 431.6,229.7 		"/>
		<polygon class="st19" points="430.9,229.7 423.8,229.7 423.1,236.6 431.6,236.6 		"/>
		<polygon class="st19" points="430.9,236.6 423.8,236.6 423.1,243.5 431.6,243.5 		"/>
		<polygon class="st19" points="430.9,243.5 423.8,243.5 423.1,250.3 431.6,250.3 		"/>
		<polygon class="st19" points="430.9,250.3 423.8,250.3 423.1,257.2 431.6,257.2 		"/>
		<polygon class="st19" points="430.9,257.2 423.8,257.2 423.1,264.1 431.6,264.1 		"/>
		<polygon class="st19" points="430.9,264.1 423.8,264.1 423.1,271 431.6,271 		"/>
		<polygon class="st19" points="430.9,271 423.8,271 423.1,277.9 431.6,277.9 		"/>
		<polygon class="st19" points="430.9,277.9 423.8,277.9 423.1,284.8 431.6,284.8 		"/>
		<polygon class="st19" points="430.9,284.8 423.8,284.8 423.1,291.7 431.6,291.7 		"/>
		<polygon class="st19" points="430.9,291.7 423.8,291.7 423.1,298.5 431.6,298.5 		"/>
		<polygon class="st19" points="430.9,298.5 423.8,298.5 423.1,305.4 431.6,305.4 		"/>
		<polygon class="st19" points="430.9,305.4 423.8,305.4 423.1,312.3 431.6,312.3 		"/>
		<polygon class="st19" points="430.9,312.3 423.8,312.3 423.1,319.2 431.6,319.2 		"/>
		<polygon class="st19" points="430.9,319.2 423.8,319.2 423.1,326.1 431.6,326.1 		"/>
		<g>
			<path class="st58" d="M427.1,212.8l30.4-47.7C457.6,165.1,414.3,166.9,427.1,212.8z"/>
			<line class="st58" x1="429.7" y1="199.8" x2="437" y2="197.2"/>
			<line class="st58" x1="431.7" y1="190.8" x2="442.6" y2="187.7"/>
			<line class="st58" x1="438.3" y1="181.2" x2="449" y2="178.5"/>
		</g>
		<g>
			<path class="st58" d="M428.3,213.2l53.2,19.3C481.5,232.5,470.3,190.6,428.3,213.2z"/>
			<line class="st58" x1="441.6" y1="212.9" x2="445.7" y2="219.5"/>
			<line class="st58" x1="450.8" y1="212.9" x2="456.2" y2="222.8"/>
			<line class="st58" x1="461.6" y1="217.2" x2="466.6" y2="227.1"/>
		</g>
		<g>
			<path class="st58" d="M427.8,214.1l49.7-27.1C477.6,187,438.8,167.7,427.8,214.1z"/>
			<line class="st58" x1="436.4" y1="203.9" x2="444.1" y2="205.3"/>
			<line class="st58" x1="442.5" y1="197.1" x2="453.6" y2="199.6"/>
			<line class="st58" x1="452.9" y1="191.8" x2="463.6" y2="194.6"/>
		</g>
		<g>
			<path class="st58" d="M427.9,212.6l-53.2,19.3C374.6,231.9,385.9,190.1,427.9,212.6z"/>
			<line class="st58" x1="414.6" y1="212.3" x2="410.5" y2="218.9"/>
			<line class="st58" x1="405.4" y1="212.3" x2="399.9" y2="222.3"/>
			<line class="st58" x1="394.6" y1="216.6" x2="389.6" y2="226.5"/>
		</g>
		<g>
			<path class="st58" d="M428.3,213.5l-49.7-27.1C378.6,186.4,417.4,167.1,428.3,213.5z"/>
			<line class="st58" x1="419.7" y1="203.3" x2="412.1" y2="204.7"/>
			<line class="st58" x1="413.7" y1="196.5" x2="402.6" y2="199"/>
			<line class="st58" x1="403.3" y1="191.3" x2="392.6" y2="194.1"/>
		</g>
		<path class="st33" d="M386.3,252.1c0.5,0.8,14.7,21.6,10.7,72.7"/>
		<path class="st33" d="M385.3,252.1c-0.5,0.8-14.7,21.6-10.7,72.7"/>
		<line class="st33" x1="385.3" y1="326.8" x2="385.3" y2="312"/>
		<path class="st33" d="M301.2,326.9c0,0-77.6-4.9-86.7-66.9c-8.1-54.7,35.1-70,47-68.8c15.2,1.5,14.9,14.1,15,15.8
			c0,0,4.1-15.8-12-25.5c-38.4-23.3-104.2-7.1-196.1,94.1c-55.8,61.5-65.8,51.2-65.8,51.2"/>
		<g>
			<path class="st7" d="M429.6,47.3c14.5-8.5,24.3-2,25.5,10.2c1.2,12.2-13.3,14.7-13.3,14.7h-61.3c0,0-12.6-3.7-11.3-14.7
				c1.6-14.1,15.2-14.1,20-7"/>
			<path class="st7" d="M385,46.7c-5.9-7,5.9-23.2,19.4-14.2"/>
			<path class="st7" d="M402.6,38.1c0,0,5.7-17.9,22.5-13.6c14.5,3.7,12.5,18.9,12.5,18.9"/>
		</g>
		<g>
			<path class="st7" d="M240,15.6c5.7-6,15.6-1,16,7c0.4,8-8,10.3-8,10.3h-30c0,0-8.3-2.7-6.7-11.3s12-7,12.7-5.3"/>
			<path class="st7" d="M246.7,12.9c0,0-1.5-11.4-13.1-10.4c-11.6,1-11.1,12.7-11.1,12.7"/>
		</g>
		<g>
			<path class="st7" d="M112.7,71.8c-8.2-8.6-22.5-1.4-23,10.1c-0.6,11.5,11.5,14.9,11.5,14.9h43.2c0,0,12-3.8,9.6-16.3
				c-2.4-12.5-17.3-10.1-18.2-7.7"/>
			<path class="st7" d="M103.2,68c0,0,2.2-16.3,18.9-14.9s16,18.3,16,18.3"/>
		</g>
	</g>
</g>
<g id="_x23_Forbidden_x5F_City">
</g>
<g id="_x23_Sydney_x5F_Opera_x5F_House">
</g>
<g id="_x23_Space_x5F_Needle">
</g>
<g id="_x23_Pyramid">
</g>
<g id="_x23_The_x5F_Pantheon">
</g>
<g id="_x23_Emirates_x5F_Towers">
</g>
<g id="_x23_China_x5F_wall">
	<g id="_x23_Empire_x5F_State_x5F_Building">
	</g>
</g>
</svg>
