<?xml version="1.0" encoding="utf-8"?>
<!-- Generator: Adobe Illustrator 19.1.0, SVG Export Plug-In . SVG Version: 6.00 Build 0)  -->
<svg version="1.1" xmlns="http://www.w3.org/2000/svg" xmlns:xlink="http://www.w3.org/1999/xlink" x="0px" y="0px"
	 viewBox="0 0 487.3 457.5" style="enable-background:new 0 0 487.3 457.5;" xml:space="preserve">
<style type="text/css">
	.st0{fill:#EDEDED;}
	.st1{fill:#59595A;}
	.st2{fill:none;stroke:#59595B;stroke-width:5;stroke-linejoin:round;stroke-miterlimit:10;}
	.st3{fill:none;stroke:#59595B;stroke-width:4.1457;stroke-linejoin:round;stroke-miterlimit:10;}
	.st4{fill:#F6F5F5;}
	.st5{fill:#59595B;}
	.st6{fill:none;stroke:#59595B;stroke-width:4.0874;stroke-linecap:round;stroke-linejoin:round;stroke-miterlimit:10;}
	.st7{fill:none;stroke:#59595B;stroke-width:5;stroke-linecap:round;stroke-linejoin:round;stroke-miterlimit:10;}
	.st8{fill:#EFEFEF;stroke:#59595B;stroke-width:5;stroke-linecap:round;stroke-linejoin:round;stroke-miterlimit:10;}
	.st9{fill:#EDECED;}
	.st10{fill:none;stroke:#5A5B5B;stroke-width:5;stroke-miterlimit:10;}
	.st11{fill:none;stroke:#5A5B5C;stroke-width:5;stroke-linecap:round;stroke-linejoin:round;stroke-miterlimit:10;}
	.st12{fill:#EDECED;stroke:#5A5B5C;stroke-width:5;stroke-linecap:round;stroke-linejoin:round;stroke-miterlimit:10;}
	.st13{fill:#5A5B5C;stroke:#5A5B5C;stroke-width:5;stroke-linecap:round;stroke-linejoin:round;stroke-miterlimit:10;}
	.st14{fill:none;stroke:#5A5B5B;stroke-width:5;stroke-linecap:round;stroke-linejoin:round;stroke-miterlimit:10;}
	.st15{fill:#F0EFEF;stroke:#5A5B5B;stroke-width:5;stroke-linecap:round;stroke-linejoin:round;stroke-miterlimit:10;}
	.st16{fill:#E8E8E8;stroke:#5A5B5C;stroke-width:5;stroke-linecap:round;stroke-linejoin:round;stroke-miterlimit:10;}
	.st17{fill:#FFFFFF;stroke:#5A5B5B;stroke-width:5;stroke-linecap:round;stroke-linejoin:round;stroke-miterlimit:10;}
	.st18{fill:#EFEFEF;stroke:#59595A;stroke-width:5;stroke-linecap:round;stroke-linejoin:round;stroke-miterlimit:10;}
	.st19{fill:none;stroke:#59595A;stroke-width:5;stroke-miterlimit:10;}
	.st20{fill:none;stroke:#59595A;stroke-width:5;stroke-linecap:round;stroke-miterlimit:10;}
	.st21{fill:none;stroke:#59595A;stroke-width:5;stroke-linejoin:round;stroke-miterlimit:10;}
	.st22{fill:none;stroke:#59595A;stroke-width:4.539;stroke-miterlimit:10;}
	.st23{fill:none;stroke:#59595A;stroke-width:4.1349;stroke-miterlimit:10;}
	.st24{fill:none;stroke:#59595A;stroke-width:3.9798;stroke-miterlimit:10;}
	.st25{fill:none;stroke:#58595B;stroke-width:5;stroke-miterlimit:10;}
	.st26{fill:none;stroke:#58595B;stroke-width:5;stroke-linejoin:round;stroke-miterlimit:10;}
	.st27{fill:none;stroke:#58595B;stroke-width:5;stroke-linecap:round;stroke-linejoin:round;stroke-miterlimit:10;}
	.st28{fill:none;stroke:#59595B;stroke-width:4.2054;stroke-linecap:round;stroke-linejoin:round;stroke-miterlimit:10;}
	.st29{fill:none;stroke:#59595B;stroke-width:5;stroke-miterlimit:10;}
	.st30{fill:#EDECEC;stroke:#59595B;stroke-width:5;stroke-linecap:round;stroke-linejoin:round;stroke-miterlimit:10;}
	.st31{fill:#EDEDED;stroke:#59595A;stroke-width:5;stroke-miterlimit:10;}
	.st32{fill:#EDEDED;stroke:#59595B;stroke-width:5;stroke-linecap:round;stroke-linejoin:round;stroke-miterlimit:10;}
	.st33{fill:none;stroke:#59595A;stroke-width:5;stroke-linecap:round;stroke-linejoin:round;stroke-miterlimit:10;}
	.st34{fill:#58595B;}
	.st35{fill:#59595A;stroke:#EDEDED;stroke-width:3;stroke-miterlimit:10;}
	.st36{fill:#59595A;stroke:#EDEDED;stroke-miterlimit:10;}
	.st37{fill:#EFEFEF;stroke:#59595A;stroke-width:5;stroke-linecap:round;stroke-miterlimit:10;}
	.st38{fill:#EDEDED;stroke:#59595A;stroke-width:5;stroke-linecap:round;stroke-linejoin:round;stroke-miterlimit:10;}
	.st39{fill-rule:evenodd;clip-rule:evenodd;fill:#59595B;}
	
		.st40{fill-rule:evenodd;clip-rule:evenodd;fill:none;stroke:#59595B;stroke-width:5;stroke-linecap:round;stroke-linejoin:round;stroke-miterlimit:10;}
	.st41{fill:none;stroke:#5A5B5C;stroke-width:4.1457;stroke-linejoin:round;stroke-miterlimit:10;}
	.st42{fill:none;stroke:#5A5B5B;stroke-width:4.539;stroke-miterlimit:10;}
	.st43{fill:none;stroke:#5A5B5B;stroke-width:4.1349;stroke-miterlimit:10;}
	.st44{fill:none;stroke:#5A5B5B;stroke-width:3.9798;stroke-miterlimit:10;}
	.st45{fill:none;stroke:#5A5B5C;stroke-width:4;stroke-linecap:round;stroke-linejoin:round;stroke-miterlimit:10;}
	.st46{fill:none;stroke:#595A5C;stroke-width:5;stroke-linecap:round;stroke-linejoin:round;stroke-miterlimit:10;}
	.st47{fill:#5A5B5C;}
	.st48{fill:none;stroke:#595A5C;stroke-width:5;stroke-linejoin:round;stroke-miterlimit:10;}
	.st49{fill:none;stroke:#5A5B5B;stroke-width:5;stroke-linecap:round;stroke-miterlimit:10;}
	.st50{fill:#5A5B5B;}
	.st51{fill:#5A5B5C;stroke:#5A5B5C;stroke-miterlimit:10;}
	.st52{fill:#595A5C;}
	.st53{fill:#EDECED;stroke:#5A5B5B;stroke-width:5;stroke-miterlimit:10;}
	.st54{fill:#FFFFFF;stroke:#5A5B5B;stroke-width:5;stroke-miterlimit:10;}
	.st55{fill:#FFFFFF;stroke:#5A5B5C;stroke-width:5;stroke-linecap:round;stroke-linejoin:round;stroke-miterlimit:10;}
	.st56{fill:#FFFFFF;stroke:#59595B;stroke-width:5;stroke-linecap:round;stroke-linejoin:round;stroke-miterlimit:10;}
	.st57{fill:#FFFFFF;stroke:#59595A;stroke-width:5;stroke-linecap:round;stroke-linejoin:round;stroke-miterlimit:10;}
	.st58{fill:#FFFFFF;stroke:#59595A;stroke-width:5;stroke-miterlimit:10;}
	.st59{fill:none;stroke:#59595B;stroke-width:3.8573;stroke-linejoin:round;stroke-miterlimit:10;}
	.st60{fill:#EDEDED;stroke:#59595B;stroke-width:5;stroke-miterlimit:10;}
	.st61{fill:none;stroke:#59595B;stroke-width:5;stroke-linecap:round;stroke-miterlimit:10;}
	.st62{fill:#59595B;stroke:#59595A;stroke-width:5;stroke-linecap:round;stroke-linejoin:round;stroke-miterlimit:10;}
	.st63{fill:#FFFFFF;stroke:#59595B;stroke-width:5;stroke-miterlimit:10;}
	.st64{fill:#EAEAEA;stroke:#59595A;stroke-width:5;stroke-linecap:round;stroke-linejoin:round;stroke-miterlimit:10;}
	.st65{fill:#EAEAEA;stroke:#59595A;stroke-width:5;stroke-linecap:round;stroke-miterlimit:10;}
</style>
<g id="Background">
</g>
<g id="_x23_Tower_x5F_Bridge">
</g>
<g id="_x23_Washington_x5F_Mountain">
</g>
<g id="_x23_London_x5F_Eye">
</g>
<g id="_x23_Eiffel_x5F_Tower">
	<g id="New_Symbol">
	</g>
	<g>
		<line class="st41" x1="232.4" y1="445.1" x2="48.4" y2="445.1"/>
		<line class="st10" x1="474.2" y1="445.1" x2="0" y2="445.1"/>
		<line class="st10" x1="427.3" y1="455" x2="33.7" y2="455"/>
		<polygon class="st11" points="94.1,445 47.8,445 47.8,372.6 53.7,372.6 70.8,322.6 88.3,372.6 94.1,372.6 		"/>
		<polygon class="st11" points="140.1,445 93.8,445 93.8,372.6 99.7,372.6 116.8,322.6 134.3,372.6 140.1,372.6 		"/>
		<polygon class="st11" points="186.1,445 139.8,445 139.8,372.6 145.7,372.6 162.8,322.6 180.3,372.6 186.1,372.6 		"/>
		<polygon class="st11" points="232.1,445 185.8,445 185.8,372.6 191.7,372.6 208.8,322.6 226.3,372.6 232.1,372.6 		"/>
		<g>
			<circle class="st10" cx="70.9" cy="413.1" r="13.5"/>
			<circle class="st10" cx="70.9" cy="413.1" r="4"/>
		</g>
		<g>
			<circle class="st10" cx="116.9" cy="413.1" r="13.5"/>
			<circle class="st10" cx="116.9" cy="413.1" r="4"/>
		</g>
		<g>
			<line class="st49" x1="57.1" y1="379.3" x2="57.1" y2="387.6"/>
			<line class="st49" x1="64.9" y1="379.3" x2="64.9" y2="387.6"/>
			<line class="st49" x1="72.8" y1="379.3" x2="72.8" y2="387.6"/>
			<line class="st49" x1="80.6" y1="379.3" x2="80.6" y2="387.6"/>
		</g>
		<line class="st49" x1="103.8" y1="379.3" x2="103.8" y2="387.6"/>
		<line class="st49" x1="111.6" y1="379.3" x2="111.6" y2="387.6"/>
		<line class="st49" x1="119.4" y1="379.3" x2="119.4" y2="387.6"/>
		<line class="st49" x1="127.3" y1="379.3" x2="127.3" y2="387.6"/>
		<g>
			<line class="st49" x1="150.4" y1="379.3" x2="150.4" y2="387.6"/>
			<line class="st49" x1="158.3" y1="379.3" x2="158.3" y2="387.6"/>
			<line class="st49" x1="166.1" y1="379.3" x2="166.1" y2="387.6"/>
			<line class="st49" x1="173.9" y1="379.3" x2="173.9" y2="387.6"/>
		</g>
		<g>
			<line class="st49" x1="197.1" y1="379.3" x2="197.1" y2="387.6"/>
			<line class="st49" x1="204.9" y1="379.3" x2="204.9" y2="387.6"/>
			<line class="st49" x1="212.8" y1="379.3" x2="212.8" y2="387.6"/>
			<line class="st49" x1="220.6" y1="379.3" x2="220.6" y2="387.6"/>
		</g>
		<ellipse class="st50" cx="70.4" cy="365.1" rx="2.7" ry="5.5"/>
		<ellipse class="st50" cx="116.8" cy="365.1" rx="2.7" ry="5.5"/>
		<ellipse class="st50" cx="163.1" cy="365.1" rx="2.7" ry="5.5"/>
		<ellipse class="st50" cx="209.4" cy="365.1" rx="2.7" ry="5.5"/>
		<path class="st11" d="M268.4,444.6h-36V311.9c0-19.5,0.9-39,2.6-58.4l15.4-168.9l15.9,175.1c1.4,15.3,2.1,30.6,2.1,45.9V444.6z"/>
		<path class="st11" d="M304.4,444.6h-36V311.9c0-19.5,0.9-39,2.6-58.4l15.4-228.9l15.9,235.1c1.4,15.3,2.1,30.6,2.1,45.9V444.6z"/>
		<path class="st11" d="M340.4,444.6h-36V311.9c0-19.5,0.9-39,2.6-58.4l15.4-48.9l15.9,55.1c1.4,15.3,2.1,30.6,2.1,45.9V444.6z"/>
		<path class="st11" d="M376.4,444.6h-36V311.9c0-19.5,0.9-39,2.6-58.4l15.4-228.9l15.9,235.1c1.4,15.3,2.1,30.6,2.1,45.9V444.6z"/>
		<path class="st11" d="M412.4,444.6h-36V311.9c0-19.5,0.9-39,2.6-58.4l15.4-168.9l15.9,175.1c1.4,15.3,2.1,30.6,2.1,45.9V444.6z"/>
		<path class="st13" d="M360.8,444.3h-76v-58.7c0-16,1.9-26.2,5.6-42.1l32.4-96.6l33.6,96c2.9,12.5,4.4,25,4.4,37.6V444.3z"/>
		<path class="st55" d="M360.7,444.6h-75.8v-52.2c0-14.2,1.9-23.3,5.6-37.4l32.3-69.8l33.5,69.2c2.9,11.1,4.4,22.2,4.4,33.4V444.6z"
			/>
		<path class="st13" d="M402.8,444.3h-42v-38.4c0-10.4,1-17.1,3.1-27.5l17.9-51.4l18.6,51c1.6,8.2,2.4,16.4,2.4,24.6V444.3z"/>
		<path class="st55" d="M402.8,444.3h-42v-29.1c0-7.9,1-13,3.1-20.9l17.9-39l18.6,38.7c1.6,6.2,2.4,12.4,2.4,18.6V444.3z"/>
		<path class="st13" d="M285.4,444.3h-42v-38.4c0-10.4,1-17.1,3.1-27.5l17.9-51.4l18.6,51c1.6,8.2,2.4,16.4,2.4,24.6V444.3z"/>
		<path class="st55" d="M285.4,444.3h-42v-29.1c0-7.9,1-13,3.1-20.9l17.9-39L283,394c1.6,6.2,2.4,12.4,2.4,18.6V444.3z"/>
		<path class="st55" d="M260.7,76.1l-7.5,7.5c-1.6,1.6-4.1,1.6-5.7,0l-7.5-7.5c-1.6-1.6-1.6-4.1,0-5.7l7.5-7.5
			c1.6-1.6,4.1-1.6,5.7,0l7.5,7.5C262.3,72,262.3,74.6,260.7,76.1z"/>
		<path class="st55" d="M296.7,16.8l-7.5,7.5c-1.6,1.6-4.1,1.6-5.7,0l-7.5-7.5c-1.6-1.6-1.6-4.1,0-5.7l7.5-7.5
			c1.6-1.6,4.1-1.6,5.7,0l7.5,7.5C298.3,12.7,298.3,15.2,296.7,16.8z"/>
		<path class="st55" d="M384.1,76.1l7.5,7.5c1.6,1.6,4.1,1.6,5.7,0l7.5-7.5c1.6-1.6,1.6-4.1,0-5.7l-7.5-7.5c-1.6-1.6-4.1-1.6-5.7,0
			l-7.5,7.5C382.6,72,382.6,74.6,384.1,76.1z"/>
		<path class="st55" d="M348.1,16.8l7.5,7.5c1.6,1.6,4.1,1.6,5.7,0l7.5-7.5c1.6-1.6,1.6-4.1,0-5.7l-7.5-7.5c-1.6-1.6-4.1-1.6-5.7,0
			l-7.5,7.5C346.6,12.7,346.6,15.2,348.1,16.8z"/>
		<path class="st11" d="M309.4,442.3c0-5.8,0.4-20.3,6.7-20.3c7,0,6.7,14.5,6.7,20.3"/>
		<path class="st11" d="M324.6,442.3c0-5.8,0.4-20.3,6.7-20.3c7,0,6.7,14.5,6.7,20.3"/>
		<path class="st11" d="M313.7,410c0-9.7,0.3-34.3,5-34.3c5.3,0,5,24.5,5,34.3"/>
		<path class="st11" d="M323.6,410c0-9.7,0.3-34.3,5-34.3c5.3,0,5,24.5,5,34.3"/>
		<path class="st11" d="M256.9,444.5c0-11,0.4-38.8,7.5-38.8c7.9,0,7.5,27.7,7.5,38.8H256.9z"/>
		<path class="st11" d="M374.3,444.5c0-11,0.4-38.8,7.5-38.8c7.9,0,7.5,27.7,7.5,38.8H374.3z"/>
		<path class="st11" d="M312.8,411.8c0-12.4,0.6-54.8,11.2-54.8c11.9,0,11.2,42.4,11.2,54.8H312.8z"/>
		<path class="st45" d="M317,345.5c0-3.1,0.4-17.6,6.8-17.6c7.1,0,6.8,14.5,6.8,17.6H317z"/>
		<path class="st55" d="M176.2,444.3h-28.4V400l0,0c2.2,0,4.1-1.4,4.8-3.5l9.3-27.2l9.6,27.3c0.7,2,2.6,3.3,4.7,3.3l0,0V444.3z"/>
		<path class="st55" d="M204.4,444.3H176V400l0,0c2.2,0,4.1-1.4,4.8-3.5l9.3-27.2l9.6,27.3c0.7,2,2.6,3.3,4.7,3.3l0,0V444.3z"/>
		<path class="st55" d="M232.6,444.3h-28.4V400h0c2.2,0,4.1-1.4,4.8-3.5l9.3-27.2l9.6,27.3c0.7,2,2.6,3.3,4.7,3.3h0V444.3z"/>
		<line class="st49" x1="156.9" y1="426" x2="156.9" y2="434.3"/>
		<line class="st49" x1="166.3" y1="426" x2="166.3" y2="434.3"/>
		<line class="st49" x1="185.3" y1="426" x2="185.3" y2="434.3"/>
		<line class="st49" x1="194.6" y1="426" x2="194.6" y2="434.3"/>
		<line class="st49" x1="213.6" y1="426" x2="213.6" y2="434.3"/>
		<line class="st49" x1="222.9" y1="426" x2="222.9" y2="434.3"/>
		<line class="st49" x1="242.3" y1="302.4" x2="242.3" y2="333.2"/>
		<line class="st49" x1="250.9" y1="288.4" x2="250.9" y2="319.2"/>
		<line class="st49" x1="259.6" y1="274.4" x2="259.6" y2="305.2"/>
		<line class="st49" x1="276.3" y1="275.9" x2="276.3" y2="306.7"/>
		<line class="st49" x1="284.9" y1="261.9" x2="284.9" y2="292.7"/>
		<line class="st49" x1="293.6" y1="247.9" x2="293.6" y2="278.7"/>
		<g>
			<line class="st49" x1="402.6" y1="302.4" x2="402.6" y2="333.2"/>
			<line class="st49" x1="393.9" y1="288.4" x2="393.9" y2="319.2"/>
			<line class="st49" x1="385.3" y1="274.4" x2="385.3" y2="305.2"/>
			<line class="st49" x1="368.6" y1="275.9" x2="368.6" y2="306.7"/>
			<line class="st49" x1="359.9" y1="261.9" x2="359.9" y2="292.7"/>
			<line class="st49" x1="351.3" y1="247.9" x2="351.3" y2="278.7"/>
		</g>
		<line class="st49" x1="148.4" y1="416.6" x2="231.8" y2="416.6"/>
		<circle class="st47" cx="162.4" cy="407.1" r="3.8"/>
		<circle class="st47" cx="190.4" cy="407.1" r="3.8"/>
		<circle class="st47" cx="218.4" cy="407.1" r="3.8"/>
		<line class="st49" x1="239.4" y1="213" x2="261.1" y2="213"/>
		<line class="st49" x1="277.8" y1="152.3" x2="293.8" y2="152.3"/>
		<line class="st49" x1="242.6" y1="172" x2="257.9" y2="172"/>
		<line class="st49" x1="280.6" y1="111.3" x2="291.8" y2="111.3"/>
		<circle class="st51" cx="244.1" cy="220.8" r="1.8"/>
		<circle class="st51" cx="250.1" cy="220.8" r="1.8"/>
		<circle class="st51" cx="255.8" cy="220.8" r="1.8"/>
		<circle class="st51" cx="283.3" cy="158.8" r="1.8"/>
		<circle class="st51" cx="289.1" cy="158.8" r="1.8"/>
		<circle class="st51" cx="283.3" cy="164.8" r="1.8"/>
		<circle class="st51" cx="289.1" cy="164.8" r="1.8"/>
		<circle class="st51" cx="283.3" cy="170.8" r="1.8"/>
		<circle class="st51" cx="289.1" cy="170.8" r="1.8"/>
		<circle class="st51" cx="283.3" cy="176.8" r="1.8"/>
		<circle class="st51" cx="289.1" cy="176.8" r="1.8"/>
		<circle class="st51" cx="283.3" cy="182.8" r="1.8"/>
		<circle class="st51" cx="283.3" cy="188.8" r="1.8"/>
		<circle class="st51" cx="289.1" cy="182.8" r="1.8"/>
		<circle class="st51" cx="283.3" cy="194.8" r="1.8"/>
		<circle class="st51" cx="289.1" cy="188.8" r="1.8"/>
		<circle class="st51" cx="361.3" cy="158.8" r="1.8"/>
		<circle class="st51" cx="355.5" cy="158.8" r="1.8"/>
		<circle class="st51" cx="361.3" cy="164.8" r="1.8"/>
		<circle class="st51" cx="355.5" cy="164.8" r="1.8"/>
		<circle class="st51" cx="361.3" cy="170.8" r="1.8"/>
		<circle class="st51" cx="355.5" cy="170.8" r="1.8"/>
		<circle class="st51" cx="361.3" cy="176.8" r="1.8"/>
		<circle class="st51" cx="355.5" cy="176.8" r="1.8"/>
		<circle class="st51" cx="361.3" cy="182.8" r="1.8"/>
		<circle class="st51" cx="361.3" cy="189.8" r="1.8"/>
		<circle class="st51" cx="355.5" cy="182.8" r="1.8"/>
		<circle class="st51" cx="244.1" cy="226.3" r="1.8"/>
		<circle class="st51" cx="250.1" cy="226.3" r="1.8"/>
		<circle class="st51" cx="255.8" cy="226.3" r="1.8"/>
		<circle class="st51" cx="244.1" cy="231.8" r="1.8"/>
		<circle class="st51" cx="250.1" cy="231.8" r="1.8"/>
		<circle class="st51" cx="255.8" cy="231.8" r="1.8"/>
		<circle class="st51" cx="244.1" cy="237.3" r="1.8"/>
		<circle class="st51" cx="250.1" cy="237.3" r="1.8"/>
		<circle class="st51" cx="244.1" cy="242.8" r="1.8"/>
		<circle class="st51" cx="244.1" cy="248.8" r="1.8"/>
		<circle class="st51" cx="250.1" cy="242.8" r="1.8"/>
		<circle class="st51" cx="255.8" cy="237.3" r="1.8"/>
		<circle class="st51" cx="244.1" cy="254.8" r="1.8"/>
		<circle class="st51" cx="250.1" cy="248.8" r="1.8"/>
		<circle class="st51" cx="255.8" cy="242.8" r="1.8"/>
		<line class="st49" x1="405.1" y1="212" x2="383.4" y2="212"/>
		<line class="st49" x1="366.8" y1="151.3" x2="350.8" y2="151.3"/>
		<line class="st49" x1="401.9" y1="171" x2="386.6" y2="171"/>
		<line class="st49" x1="363.9" y1="110.3" x2="352.7" y2="110.3"/>
		<circle class="st51" cx="400.4" cy="219.8" r="1.8"/>
		<circle class="st51" cx="394.4" cy="219.8" r="1.8"/>
		<circle class="st51" cx="388.8" cy="219.8" r="1.8"/>
		<circle class="st51" cx="400.4" cy="225.3" r="1.8"/>
		<circle class="st51" cx="394.4" cy="225.3" r="1.8"/>
		<circle class="st51" cx="388.8" cy="225.3" r="1.8"/>
		<circle class="st51" cx="400.4" cy="230.8" r="1.8"/>
		<circle class="st51" cx="394.4" cy="230.8" r="1.8"/>
		<circle class="st51" cx="388.8" cy="230.8" r="1.8"/>
		<circle class="st51" cx="400.4" cy="236.3" r="1.8"/>
		<circle class="st51" cx="394.4" cy="236.3" r="1.8"/>
		<circle class="st51" cx="400.4" cy="241.8" r="1.8"/>
		<circle class="st51" cx="400.4" cy="247.8" r="1.8"/>
		<circle class="st51" cx="394.4" cy="241.8" r="1.8"/>
		<circle class="st51" cx="388.8" cy="236.3" r="1.8"/>
		<circle class="st51" cx="400.4" cy="253.8" r="1.8"/>
		<circle class="st51" cx="394.4" cy="247.8" r="1.8"/>
		<circle class="st51" cx="388.8" cy="241.8" r="1.8"/>
		<line class="st11" x1="258.3" y1="425.3" x2="270.9" y2="425.3"/>
		<line class="st11" x1="375.6" y1="425.3" x2="388.3" y2="425.3"/>
		<g>
			<path class="st7" d="M144.8,55.4c14.5-8.5,24.3-2,25.5,10.2c1.2,12.2-13.3,14.7-13.3,14.7H95.6c0,0-12.6-3.7-11.3-14.7
				c1.6-14.1,15.2-14.1,20-7"/>
			<path class="st7" d="M100.1,54.9c-5.9-7,5.9-23.2,19.4-14.2"/>
			<path class="st7" d="M117.8,46.3c0,0,5.7-17.9,22.5-13.6c14.5,3.7,12.5,18.9,12.5,18.9"/>
		</g>
		<g>
			<path class="st7" d="M169.4,150.2c5.7-6,15.6-1,16,7c0.4,8-8,10.3-8,10.3h-30c0,0-8.3-2.7-6.7-11.3c1.7-8.7,12-7,12.7-5.3"/>
			<path class="st7" d="M176,147.5c0,0-1.5-11.4-13.1-10.4c-11.6,1-11.1,12.7-11.1,12.7"/>
		</g>
		<g>
			<path class="st7" d="M443.2,125.1c-8.2-8.6-22.5-1.4-23,10.1c-0.6,11.5,11.5,14.9,11.5,14.9h43.2c0,0,12-3.8,9.6-16.3
				s-17.3-10.1-18.2-7.7"/>
			<path class="st7" d="M433.6,121.3c0,0,2.2-16.3,18.9-14.9s16,18.3,16,18.3"/>
		</g>
	</g>
</g>
<g id="_x23_Forbidden_x5F_City">
</g>
<g id="_x23_Sydney_x5F_Opera_x5F_House">
</g>
<g id="_x23_Space_x5F_Needle">
</g>
<g id="_x23_Pyramid">
</g>
<g id="_x23_The_x5F_Pantheon">
</g>
<g id="_x23_Emirates_x5F_Towers">
</g>
<g id="_x23_China_x5F_wall">
	<g id="_x23_Empire_x5F_State_x5F_Building">
	</g>
</g>
</svg>
