<?xml version="1.0" encoding="utf-8"?>
<!-- Generator: Adobe Illustrator 19.1.0, SVG Export Plug-In . SVG Version: 6.00 Build 0)  -->
<svg version="1.1" xmlns="http://www.w3.org/2000/svg" xmlns:xlink="http://www.w3.org/1999/xlink" x="0px" y="0px"
	 viewBox="0 0 483.2 381.1" style="enable-background:new 0 0 483.2 381.1;" xml:space="preserve">
<style type="text/css">
	.st0{fill:#EDEDED;}
	.st1{fill:#59595A;}
	.st2{fill:none;stroke:#59595B;stroke-width:5;stroke-linejoin:round;stroke-miterlimit:10;}
	.st3{fill:none;stroke:#59595B;stroke-width:4.1457;stroke-linejoin:round;stroke-miterlimit:10;}
	.st4{fill:#F6F5F5;}
	.st5{fill:#59595B;}
	.st6{fill:none;stroke:#59595B;stroke-width:4.0874;stroke-linecap:round;stroke-linejoin:round;stroke-miterlimit:10;}
	.st7{fill:none;stroke:#59595B;stroke-width:5;stroke-linecap:round;stroke-linejoin:round;stroke-miterlimit:10;}
	.st8{fill:#EFEFEF;stroke:#59595B;stroke-width:5;stroke-linecap:round;stroke-linejoin:round;stroke-miterlimit:10;}
	.st9{fill:#EDECED;}
	.st10{fill:none;stroke:#5A5B5B;stroke-width:5;stroke-miterlimit:10;}
	.st11{fill:none;stroke:#5A5B5C;stroke-width:5;stroke-linecap:round;stroke-linejoin:round;stroke-miterlimit:10;}
	.st12{fill:#EDECED;stroke:#5A5B5C;stroke-width:5;stroke-linecap:round;stroke-linejoin:round;stroke-miterlimit:10;}
	.st13{fill:#5A5B5C;stroke:#5A5B5C;stroke-width:5;stroke-linecap:round;stroke-linejoin:round;stroke-miterlimit:10;}
	.st14{fill:none;stroke:#5A5B5B;stroke-width:5;stroke-linecap:round;stroke-linejoin:round;stroke-miterlimit:10;}
	.st15{fill:#F0EFEF;stroke:#5A5B5B;stroke-width:5;stroke-linecap:round;stroke-linejoin:round;stroke-miterlimit:10;}
	.st16{fill:#E8E8E8;stroke:#5A5B5C;stroke-width:5;stroke-linecap:round;stroke-linejoin:round;stroke-miterlimit:10;}
	.st17{fill:#FFFFFF;stroke:#5A5B5B;stroke-width:5;stroke-linecap:round;stroke-linejoin:round;stroke-miterlimit:10;}
	.st18{fill:#EFEFEF;stroke:#59595A;stroke-width:5;stroke-linecap:round;stroke-linejoin:round;stroke-miterlimit:10;}
	.st19{fill:none;stroke:#59595A;stroke-width:5;stroke-miterlimit:10;}
	.st20{fill:none;stroke:#59595A;stroke-width:5;stroke-linecap:round;stroke-miterlimit:10;}
	.st21{fill:none;stroke:#59595A;stroke-width:5;stroke-linejoin:round;stroke-miterlimit:10;}
	.st22{fill:none;stroke:#59595A;stroke-width:4.539;stroke-miterlimit:10;}
	.st23{fill:none;stroke:#59595A;stroke-width:4.1349;stroke-miterlimit:10;}
	.st24{fill:none;stroke:#59595A;stroke-width:3.9798;stroke-miterlimit:10;}
	.st25{fill:none;stroke:#58595B;stroke-width:5;stroke-miterlimit:10;}
	.st26{fill:none;stroke:#58595B;stroke-width:5;stroke-linejoin:round;stroke-miterlimit:10;}
	.st27{fill:none;stroke:#58595B;stroke-width:5;stroke-linecap:round;stroke-linejoin:round;stroke-miterlimit:10;}
	.st28{fill:none;stroke:#59595B;stroke-width:4.2054;stroke-linecap:round;stroke-linejoin:round;stroke-miterlimit:10;}
	.st29{fill:none;stroke:#59595B;stroke-width:5;stroke-miterlimit:10;}
	.st30{fill:#EDECEC;stroke:#59595B;stroke-width:5;stroke-linecap:round;stroke-linejoin:round;stroke-miterlimit:10;}
	.st31{fill:#EDEDED;stroke:#59595A;stroke-width:5;stroke-miterlimit:10;}
	.st32{fill:#EDEDED;stroke:#59595B;stroke-width:5;stroke-linecap:round;stroke-linejoin:round;stroke-miterlimit:10;}
	.st33{fill:none;stroke:#59595A;stroke-width:5;stroke-linecap:round;stroke-linejoin:round;stroke-miterlimit:10;}
	.st34{fill:#58595B;}
	.st35{fill:#59595A;stroke:#EDEDED;stroke-width:3;stroke-miterlimit:10;}
	.st36{fill:#59595A;stroke:#EDEDED;stroke-miterlimit:10;}
	.st37{fill:#EFEFEF;stroke:#59595A;stroke-width:5;stroke-linecap:round;stroke-miterlimit:10;}
	.st38{fill:#EDEDED;stroke:#59595A;stroke-width:5;stroke-linecap:round;stroke-linejoin:round;stroke-miterlimit:10;}
	.st39{fill-rule:evenodd;clip-rule:evenodd;fill:#59595B;}
	
		.st40{fill-rule:evenodd;clip-rule:evenodd;fill:none;stroke:#59595B;stroke-width:5;stroke-linecap:round;stroke-linejoin:round;stroke-miterlimit:10;}
	.st41{fill:none;stroke:#5A5B5C;stroke-width:4.1457;stroke-linejoin:round;stroke-miterlimit:10;}
	.st42{fill:none;stroke:#5A5B5B;stroke-width:4.539;stroke-miterlimit:10;}
	.st43{fill:none;stroke:#5A5B5B;stroke-width:4.1349;stroke-miterlimit:10;}
	.st44{fill:none;stroke:#5A5B5B;stroke-width:3.9798;stroke-miterlimit:10;}
	.st45{fill:none;stroke:#5A5B5C;stroke-width:4;stroke-linecap:round;stroke-linejoin:round;stroke-miterlimit:10;}
	.st46{fill:none;stroke:#595A5C;stroke-width:5;stroke-linecap:round;stroke-linejoin:round;stroke-miterlimit:10;}
	.st47{fill:#5A5B5C;}
	.st48{fill:none;stroke:#595A5C;stroke-width:5;stroke-linejoin:round;stroke-miterlimit:10;}
	.st49{fill:none;stroke:#5A5B5B;stroke-width:5;stroke-linecap:round;stroke-miterlimit:10;}
	.st50{fill:#5A5B5B;}
	.st51{fill:#5A5B5C;stroke:#5A5B5C;stroke-miterlimit:10;}
	.st52{fill:#595A5C;}
	.st53{fill:#EDECED;stroke:#5A5B5B;stroke-width:5;stroke-miterlimit:10;}
	.st54{fill:#FFFFFF;stroke:#5A5B5B;stroke-width:5;stroke-miterlimit:10;}
	.st55{fill:#FFFFFF;stroke:#5A5B5C;stroke-width:5;stroke-linecap:round;stroke-linejoin:round;stroke-miterlimit:10;}
	.st56{fill:#FFFFFF;stroke:#59595B;stroke-width:5;stroke-linecap:round;stroke-linejoin:round;stroke-miterlimit:10;}
	.st57{fill:#FFFFFF;stroke:#59595A;stroke-width:5;stroke-linecap:round;stroke-linejoin:round;stroke-miterlimit:10;}
	.st58{fill:#FFFFFF;stroke:#59595A;stroke-width:5;stroke-miterlimit:10;}
	.st59{fill:none;stroke:#59595B;stroke-width:3.8573;stroke-linejoin:round;stroke-miterlimit:10;}
	.st60{fill:#EDEDED;stroke:#59595B;stroke-width:5;stroke-miterlimit:10;}
	.st61{fill:none;stroke:#59595B;stroke-width:5;stroke-linecap:round;stroke-miterlimit:10;}
	.st62{fill:#59595B;stroke:#59595A;stroke-width:5;stroke-linecap:round;stroke-linejoin:round;stroke-miterlimit:10;}
	.st63{fill:#FFFFFF;stroke:#59595B;stroke-width:5;stroke-miterlimit:10;}
	.st64{fill:#EAEAEA;stroke:#59595A;stroke-width:5;stroke-linecap:round;stroke-linejoin:round;stroke-miterlimit:10;}
	.st65{fill:#EAEAEA;stroke:#59595A;stroke-width:5;stroke-linecap:round;stroke-miterlimit:10;}
</style>
<g id="Background">
</g>
<g id="_x23_Tower_x5F_Bridge">
</g>
<g id="_x23_Washington_x5F_Mountain">
</g>
<g id="_x23_London_x5F_Eye">
</g>
<g id="_x23_Eiffel_x5F_Tower">
	<g id="New_Symbol">
	</g>
</g>
<g id="_x23_Forbidden_x5F_City">
</g>
<g id="_x23_Sydney_x5F_Opera_x5F_House">
</g>
<g id="_x23_Space_x5F_Needle">
</g>
<g id="_x23_Pyramid">
</g>
<g id="_x23_The_x5F_Pantheon">
</g>
<g id="_x23_Emirates_x5F_Towers">
</g>
<g id="_x23_China_x5F_wall">
	<g id="_x23_Empire_x5F_State_x5F_Building">
	</g>
	<g>
		<line class="st20" x1="476.7" y1="368.7" x2="2.5" y2="368.7"/>
		<line class="st20" x1="429.8" y1="378.6" x2="36.2" y2="378.6"/>
		<g>
			<path class="st7" d="M447.8,96.5c14.5-8.5,24.3-2,25.5,10.2c1.2,12.2-13.3,14.7-13.3,14.7h-61.3c0,0-12.6-3.7-11.3-14.7
				c1.6-14.1,15.2-14.1,20-7"/>
			<path class="st7" d="M403.2,95.9c-5.9-7,5.9-23.2,19.4-14.2"/>
			<path class="st7" d="M420.8,87.3c0,0,5.7-17.9,22.5-13.6c14.5,3.7,12.5,18.9,12.5,18.9"/>
		</g>
		<g>
			<path class="st7" d="M258.2,64.8c5.7-6,15.6-1,16,7c0.4,8-8,10.3-8,10.3h-30c0,0-8.3-2.7-6.7-11.3s12-7,12.7-5.3"/>
			<path class="st7" d="M264.8,62.1c0,0-1.5-11.4-13.1-10.4c-11.6,1-11.1,12.7-11.1,12.7"/>
		</g>
		<g>
			<path class="st7" d="M130.9,121c-8.2-8.6-22.5-1.4-23,10.1s11.5,14.9,11.5,14.9h43.2c0,0,12-3.8,9.6-16.3
				c-2.4-12.5-17.3-10.1-18.2-7.7"/>
			<path class="st7" d="M121.3,117.2c0,0,2.2-16.3,18.9-14.9s16,18.3,16,18.3"/>
		</g>
		<path class="st7" d="M348.6,40c0,0,0,233.9-66.1,328.8"/>
		<path class="st7" d="M365.8,40c0,0,0,233.9,66.1,328.8"/>
		<path class="st7" d="M356.3,212.3c0,0-12,95.5-47.1,156.5"/>
		<path class="st7" d="M357,212.3c0,0,12,95.5,47.1,156.5"/>
		<path class="st7" d="M357,327.7c-34.7-0.9-45.4,41.1-45.4,41.1h90.1C401.7,368.8,391.8,328.6,357,327.7z"/>
		<path class="st7" d="M395.7,368.9c0,0-8.5-32.6-38.3-33.4c-29.8-0.8-38.9,33.4-38.9,33.4"/>
		<path class="st7" d="M389.2,337.9c0,0-4.2-17.5-32.3-18.2c-25.7-0.7-32.7,17.7-32.7,17.7"/>
		<line class="st7" x1="356.3" y1="319.7" x2="356.3" y2="327.7"/>
		<line class="st7" x1="346.8" y1="320.5" x2="347.7" y2="328.5"/>
		<line class="st7" x1="338.2" y1="323.7" x2="340.2" y2="331"/>
		<line class="st7" x1="330.8" y1="329.8" x2="332.8" y2="335.5"/>
		<line class="st7" x1="366.2" y1="321.1" x2="365.2" y2="328.6"/>
		<line class="st7" x1="374.8" y1="324.1" x2="372.8" y2="331"/>
		<line class="st7" x1="382.1" y1="329.8" x2="380.1" y2="335.1"/>
		<rect x="312.5" y="299.8" class="st7" width="89.6" height="19.9"/>
		<line class="st7" x1="356.3" y1="299.8" x2="356.3" y2="319.7"/>
		<line class="st7" x1="350" y1="299.8" x2="350" y2="319.7"/>
		<line class="st7" x1="343.6" y1="299.8" x2="343.6" y2="319.7"/>
		<line class="st7" x1="337.3" y1="299.8" x2="337.3" y2="319.7"/>
		<line class="st7" x1="331" y1="299.9" x2="331" y2="319.7"/>
		<line class="st7" x1="324.6" y1="299.9" x2="324.6" y2="319.7"/>
		<line class="st7" x1="318.3" y1="299.9" x2="318.3" y2="319.7"/>
		<line class="st7" x1="362.7" y1="299.8" x2="362.7" y2="319.7"/>
		<line class="st7" x1="369.2" y1="299.8" x2="369.2" y2="319.7"/>
		<line class="st7" x1="375.6" y1="299.8" x2="375.6" y2="319.7"/>
		<line class="st7" x1="382.1" y1="299.8" x2="382.1" y2="319.7"/>
		<line class="st7" x1="388.5" y1="299.8" x2="388.5" y2="319.7"/>
		<line class="st7" x1="395" y1="299.8" x2="395" y2="319.7"/>
		<rect x="344.3" y="22.9" class="st7" width="25.7" height="10.7"/>
		<rect x="346.3" y="34" class="st7" width="21.5" height="4.9"/>
		<rect x="346.3" y="17.5" class="st7" width="21.5" height="4.9"/>
		<line class="st7" x1="357" y1="16.8" x2="357" y2="2.5"/>
		<rect x="312.3" y="291.9" class="st56" width="90.4" height="7.9"/>
		<line class="st7" x1="357" y1="212.3" x2="357" y2="40"/>
		<rect x="308.1" y="283.1" class="st56" width="97.8" height="8.7"/>
		<polygon class="st56" points="408.8,272.9 305.3,272.9 308.1,283.1 406,283.1 		"/>
		<rect x="321.7" y="239.1" class="st56" width="70.6" height="6.3"/>
		<polygon class="st56" points="394.4,231.7 319.7,231.7 321.7,239.1 392.4,239.1 		"/>
		<line class="st7" x1="348.6" y1="45.9" x2="365.8" y2="45.9"/>
		<line class="st7" x1="348.6" y1="52.9" x2="365.8" y2="52.9"/>
		<line class="st7" x1="348.6" y1="59.9" x2="365.8" y2="59.9"/>
		<line class="st7" x1="348.6" y1="66.9" x2="365.8" y2="66.9"/>
		<line class="st7" x1="348.6" y1="73.9" x2="365.8" y2="73.9"/>
		<line class="st7" x1="348.6" y1="80.8" x2="365.8" y2="80.8"/>
		<line class="st7" x1="348.6" y1="87.8" x2="365.8" y2="87.8"/>
		<line class="st7" x1="348.6" y1="94.8" x2="365.8" y2="94.8"/>
		<line class="st7" x1="348.6" y1="101.8" x2="365.8" y2="101.8"/>
		<line class="st7" x1="348.6" y1="108.8" x2="365.8" y2="108.8"/>
		<line class="st7" x1="348.6" y1="115.8" x2="365.8" y2="115.8"/>
		<line class="st7" x1="348.6" y1="122.7" x2="365.8" y2="122.7"/>
		<line class="st7" x1="345.9" y1="129.7" x2="368.5" y2="129.7"/>
		<line class="st7" x1="345.2" y1="136.7" x2="369.2" y2="136.7"/>
		<line class="st7" x1="344.4" y1="143.7" x2="369.9" y2="143.7"/>
		<line class="st7" x1="345.2" y1="150.7" x2="369.2" y2="150.7"/>
		<line class="st7" x1="343.9" y1="157.7" x2="370.5" y2="157.7"/>
		<line class="st7" x1="343.9" y1="164.7" x2="370.5" y2="164.7"/>
		<line class="st7" x1="342" y1="171.6" x2="372.3" y2="171.6"/>
		<line class="st7" x1="339.2" y1="178.6" x2="375.2" y2="178.6"/>
		<line class="st7" x1="339.2" y1="185.3" x2="375.2" y2="185.3"/>
		<line class="st7" x1="339.2" y1="192" x2="375.2" y2="192"/>
		<line class="st7" x1="339.2" y1="198.6" x2="375.2" y2="198.6"/>
		<line class="st7" x1="339.2" y1="205.2" x2="375.2" y2="205.2"/>
		<line class="st7" x1="337.2" y1="211.8" x2="377.1" y2="211.8"/>
		<line class="st7" x1="334.2" y1="218.4" x2="380.1" y2="218.4"/>
		<line class="st7" x1="333.2" y1="225" x2="354.4" y2="225"/>
		<line class="st7" x1="359.5" y1="225" x2="380.7" y2="225"/>
		<line class="st7" x1="339.2" y1="231.6" x2="375.2" y2="231.6"/>
		<line class="st7" x1="327.2" y1="251.5" x2="347.7" y2="251.5"/>
		<line class="st7" x1="365.3" y1="251.5" x2="385.9" y2="251.5"/>
		<line class="st7" x1="326.4" y1="258.1" x2="346.8" y2="258.1"/>
		<line class="st7" x1="366.9" y1="258.1" x2="387.3" y2="258.1"/>
		<line class="st7" x1="324" y1="264.7" x2="343.9" y2="264.7"/>
		<line class="st7" x1="368.1" y1="264.7" x2="388" y2="264.7"/>
		<line class="st7" x1="322.1" y1="271.3" x2="344.9" y2="271.3"/>
		<line class="st7" x1="368.8" y1="271.3" x2="391.5" y2="271.3"/>
		<line class="st7" x1="312.6" y1="310.9" x2="401.7" y2="310.9"/>
		<line class="st7" x1="306.8" y1="324.1" x2="327.2" y2="324.1"/>
		<line class="st7" x1="386.6" y1="324.1" x2="406.9" y2="324.1"/>
		<line class="st7" x1="303.7" y1="330.7" x2="324.6" y2="330.7"/>
		<line class="st7" x1="388.4" y1="330.7" x2="409.4" y2="330.7"/>
		<line class="st7" x1="300.8" y1="337.3" x2="324.3" y2="337.3"/>
		<line class="st7" x1="390.1" y1="337.3" x2="413.6" y2="337.3"/>
		<line class="st7" x1="297.1" y1="343.9" x2="319.7" y2="343.9"/>
		<line class="st7" x1="393.7" y1="343.9" x2="416.4" y2="343.9"/>
		<line class="st7" x1="293.6" y1="350.5" x2="317" y2="350.5"/>
		<line class="st7" x1="397.1" y1="350.5" x2="420.5" y2="350.5"/>
		<line class="st7" x1="290.6" y1="357.1" x2="315.3" y2="357.1"/>
		<line class="st7" x1="398.9" y1="357.1" x2="423.5" y2="357.1"/>
		<line class="st7" x1="287.3" y1="363.7" x2="311.6" y2="363.7"/>
		<line class="st7" x1="402.8" y1="363.7" x2="427.1" y2="363.7"/>
		<line class="st20" x1="22.9" y1="367" x2="136.5" y2="253.4"/>
		<line class="st20" x1="38.3" y1="366.4" x2="143.5" y2="260.5"/>
		<line class="st20" x1="52.5" y1="365.8" x2="150.6" y2="267.6"/>
		<line class="st20" x1="66.7" y1="365.8" x2="157.7" y2="274.7"/>
		<line class="st20" x1="80.9" y1="365.8" x2="164.8" y2="281.8"/>
		<line class="st20" x1="94.5" y1="366.4" x2="171.9" y2="288.9"/>
		<line class="st20" x1="110.9" y1="364.2" x2="179" y2="296"/>
		<line class="st20" x1="123.5" y1="365.8" x2="186.1" y2="303.1"/>
		<line class="st20" x1="137.3" y1="366.1" x2="193.2" y2="310.2"/>
		<line class="st20" x1="153" y1="364.6" x2="200.3" y2="317.3"/>
		<line class="st20" x1="164" y1="367.8" x2="207.4" y2="324.4"/>
		<line class="st20" x1="181.1" y1="364.9" x2="214.5" y2="331.5"/>
		<line class="st20" x1="194.4" y1="365.8" x2="221.6" y2="338.6"/>
		<line class="st20" x1="207.7" y1="366.7" x2="228.7" y2="345.7"/>
		<line class="st20" x1="222.8" y1="365.8" x2="235.8" y2="352.8"/>
		<line class="st20" x1="237" y1="365.8" x2="242.9" y2="359.9"/>
		<line class="st20" x1="235.2" y1="366.4" x2="130" y2="260.5"/>
		<line class="st20" x1="221" y1="365.8" x2="122.9" y2="267.6"/>
		<line class="st20" x1="206.8" y1="365.8" x2="115.8" y2="274.7"/>
		<line class="st20" x1="192.6" y1="365.8" x2="108.7" y2="281.8"/>
		<line class="st20" x1="179.1" y1="366.4" x2="101.6" y2="288.9"/>
		<line class="st20" x1="162.7" y1="364.2" x2="94.5" y2="296"/>
		<line class="st20" x1="150.1" y1="365.8" x2="87.4" y2="303.1"/>
		<line class="st20" x1="136.2" y1="366.1" x2="80.3" y2="310.2"/>
		<line class="st20" x1="120.5" y1="364.6" x2="73.2" y2="317.3"/>
		<line class="st20" x1="108.7" y1="367" x2="66.1" y2="324.4"/>
		<line class="st20" x1="92.4" y1="364.9" x2="59" y2="331.5"/>
		<line class="st20" x1="79.1" y1="365.8" x2="51.9" y2="338.6"/>
		<line class="st20" x1="65.8" y1="366.7" x2="44.8" y2="345.7"/>
		<line class="st20" x1="50.7" y1="365.8" x2="37.7" y2="352.8"/>
		<line class="st20" x1="36.5" y1="365.8" x2="30.6" y2="359.9"/>
		<line class="st20" x1="250.4" y1="367" x2="136.9" y2="253.5"/>
		<g>
			<polygon class="st57" points="162.8,351.8 109.9,351.8 100.7,368.8 171.9,368.8 			"/>
			<line class="st57" x1="152.1" y1="353" x2="152.1" y2="368.8"/>
			<line class="st57" x1="120.6" y1="353" x2="120.6" y2="368.8"/>
			<line class="st57" x1="136.3" y1="353" x2="136.3" y2="368.8"/>
		</g>
	</g>
</g>
</svg>
