<?xml version="1.0" encoding="utf-8"?>
<!-- Generator: Adobe Illustrator 19.1.0, SVG Export Plug-In . SVG Version: 6.00 Build 0)  -->
<svg version="1.1" xmlns="http://www.w3.org/2000/svg" xmlns:xlink="http://www.w3.org/1999/xlink" x="0px" y="0px"
	 viewBox="0 0 474.2 567.9" style="enable-background:new 0 0 474.2 567.9;" xml:space="preserve">
<style type="text/css">
	.st0{fill:#EDEDED;}
	.st1{fill:#59595A;}
	.st2{fill:none;stroke:#59595B;stroke-width:5;stroke-linejoin:round;stroke-miterlimit:10;}
	.st3{fill:none;stroke:#59595B;stroke-width:4.1457;stroke-linejoin:round;stroke-miterlimit:10;}
	.st4{fill:#F6F5F5;}
	.st5{fill:#59595B;}
	.st6{fill:none;stroke:#59595B;stroke-width:4.0874;stroke-linecap:round;stroke-linejoin:round;stroke-miterlimit:10;}
	.st7{fill:none;stroke:#59595B;stroke-width:5;stroke-linecap:round;stroke-linejoin:round;stroke-miterlimit:10;}
	.st8{fill:#EFEFEF;stroke:#59595B;stroke-width:5;stroke-linecap:round;stroke-linejoin:round;stroke-miterlimit:10;}
	.st9{fill:#EDECED;}
	.st10{fill:none;stroke:#5A5B5B;stroke-width:5;stroke-miterlimit:10;}
	.st11{fill:none;stroke:#5A5B5C;stroke-width:5;stroke-linecap:round;stroke-linejoin:round;stroke-miterlimit:10;}
	.st12{fill:#EDECED;stroke:#5A5B5C;stroke-width:5;stroke-linecap:round;stroke-linejoin:round;stroke-miterlimit:10;}
	.st13{fill:#5A5B5C;stroke:#5A5B5C;stroke-width:5;stroke-linecap:round;stroke-linejoin:round;stroke-miterlimit:10;}
	.st14{fill:none;stroke:#5A5B5B;stroke-width:5;stroke-linecap:round;stroke-linejoin:round;stroke-miterlimit:10;}
	.st15{fill:#F0EFEF;stroke:#5A5B5B;stroke-width:5;stroke-linecap:round;stroke-linejoin:round;stroke-miterlimit:10;}
	.st16{fill:#E8E8E8;stroke:#5A5B5C;stroke-width:5;stroke-linecap:round;stroke-linejoin:round;stroke-miterlimit:10;}
	.st17{fill:#FFFFFF;stroke:#5A5B5B;stroke-width:5;stroke-linecap:round;stroke-linejoin:round;stroke-miterlimit:10;}
	.st18{fill:#EFEFEF;stroke:#59595A;stroke-width:5;stroke-linecap:round;stroke-linejoin:round;stroke-miterlimit:10;}
	.st19{fill:none;stroke:#59595A;stroke-width:5;stroke-miterlimit:10;}
	.st20{fill:none;stroke:#59595A;stroke-width:5;stroke-linecap:round;stroke-miterlimit:10;}
	.st21{fill:none;stroke:#59595A;stroke-width:5;stroke-linejoin:round;stroke-miterlimit:10;}
	.st22{fill:none;stroke:#59595A;stroke-width:4.539;stroke-miterlimit:10;}
	.st23{fill:none;stroke:#59595A;stroke-width:4.1349;stroke-miterlimit:10;}
	.st24{fill:none;stroke:#59595A;stroke-width:3.9798;stroke-miterlimit:10;}
	.st25{fill:none;stroke:#58595B;stroke-width:5;stroke-miterlimit:10;}
	.st26{fill:none;stroke:#58595B;stroke-width:5;stroke-linejoin:round;stroke-miterlimit:10;}
	.st27{fill:none;stroke:#58595B;stroke-width:5;stroke-linecap:round;stroke-linejoin:round;stroke-miterlimit:10;}
	.st28{fill:none;stroke:#59595B;stroke-width:4.2054;stroke-linecap:round;stroke-linejoin:round;stroke-miterlimit:10;}
	.st29{fill:none;stroke:#59595B;stroke-width:5;stroke-miterlimit:10;}
	.st30{fill:#EDECEC;stroke:#59595B;stroke-width:5;stroke-linecap:round;stroke-linejoin:round;stroke-miterlimit:10;}
	.st31{fill:#EDEDED;stroke:#59595A;stroke-width:5;stroke-miterlimit:10;}
	.st32{fill:#EDEDED;stroke:#59595B;stroke-width:5;stroke-linecap:round;stroke-linejoin:round;stroke-miterlimit:10;}
	.st33{fill:none;stroke:#59595A;stroke-width:5;stroke-linecap:round;stroke-linejoin:round;stroke-miterlimit:10;}
	.st34{fill:#58595B;}
	.st35{fill:#59595A;stroke:#EDEDED;stroke-width:3;stroke-miterlimit:10;}
	.st36{fill:#59595A;stroke:#EDEDED;stroke-miterlimit:10;}
	.st37{fill:#EFEFEF;stroke:#59595A;stroke-width:5;stroke-linecap:round;stroke-miterlimit:10;}
	.st38{fill:#EDEDED;stroke:#59595A;stroke-width:5;stroke-linecap:round;stroke-linejoin:round;stroke-miterlimit:10;}
	.st39{fill-rule:evenodd;clip-rule:evenodd;fill:#59595B;}
	
		.st40{fill-rule:evenodd;clip-rule:evenodd;fill:none;stroke:#59595B;stroke-width:5;stroke-linecap:round;stroke-linejoin:round;stroke-miterlimit:10;}
	.st41{fill:none;stroke:#5A5B5C;stroke-width:4.1457;stroke-linejoin:round;stroke-miterlimit:10;}
	.st42{fill:none;stroke:#5A5B5B;stroke-width:4.539;stroke-miterlimit:10;}
	.st43{fill:none;stroke:#5A5B5B;stroke-width:4.1349;stroke-miterlimit:10;}
	.st44{fill:none;stroke:#5A5B5B;stroke-width:3.9798;stroke-miterlimit:10;}
	.st45{fill:none;stroke:#5A5B5C;stroke-width:4;stroke-linecap:round;stroke-linejoin:round;stroke-miterlimit:10;}
	.st46{fill:none;stroke:#595A5C;stroke-width:5;stroke-linecap:round;stroke-linejoin:round;stroke-miterlimit:10;}
	.st47{fill:#5A5B5C;}
	.st48{fill:none;stroke:#595A5C;stroke-width:5;stroke-linejoin:round;stroke-miterlimit:10;}
	.st49{fill:none;stroke:#5A5B5B;stroke-width:5;stroke-linecap:round;stroke-miterlimit:10;}
	.st50{fill:#5A5B5B;}
	.st51{fill:#5A5B5C;stroke:#5A5B5C;stroke-miterlimit:10;}
	.st52{fill:#595A5C;}
	.st53{fill:#EDECED;stroke:#5A5B5B;stroke-width:5;stroke-miterlimit:10;}
	.st54{fill:#FFFFFF;stroke:#5A5B5B;stroke-width:5;stroke-miterlimit:10;}
	.st55{fill:#FFFFFF;stroke:#5A5B5C;stroke-width:5;stroke-linecap:round;stroke-linejoin:round;stroke-miterlimit:10;}
	.st56{fill:#FFFFFF;stroke:#59595B;stroke-width:5;stroke-linecap:round;stroke-linejoin:round;stroke-miterlimit:10;}
	.st57{fill:#FFFFFF;stroke:#59595A;stroke-width:5;stroke-linecap:round;stroke-linejoin:round;stroke-miterlimit:10;}
	.st58{fill:#FFFFFF;stroke:#59595A;stroke-width:5;stroke-miterlimit:10;}
	.st59{fill:none;stroke:#59595B;stroke-width:3.8573;stroke-linejoin:round;stroke-miterlimit:10;}
	.st60{fill:#EDEDED;stroke:#59595B;stroke-width:5;stroke-miterlimit:10;}
	.st61{fill:none;stroke:#59595B;stroke-width:5;stroke-linecap:round;stroke-miterlimit:10;}
	.st62{fill:#59595B;stroke:#59595A;stroke-width:5;stroke-linecap:round;stroke-linejoin:round;stroke-miterlimit:10;}
	.st63{fill:#FFFFFF;stroke:#59595B;stroke-width:5;stroke-miterlimit:10;}
	.st64{fill:#EAEAEA;stroke:#59595A;stroke-width:5;stroke-linecap:round;stroke-linejoin:round;stroke-miterlimit:10;}
	.st65{fill:#EAEAEA;stroke:#59595A;stroke-width:5;stroke-linecap:round;stroke-miterlimit:10;}
</style>
<g id="Background">
</g>
<g id="_x23_Tower_x5F_Bridge">
</g>
<g id="_x23_Washington_x5F_Mountain">
</g>
<g id="_x23_London_x5F_Eye">
</g>
<g id="_x23_Eiffel_x5F_Tower">
	<g id="New_Symbol">
	</g>
</g>
<g id="_x23_Forbidden_x5F_City">
</g>
<g id="_x23_Sydney_x5F_Opera_x5F_House">
</g>
<g id="_x23_Space_x5F_Needle">
</g>
<g id="_x23_Pyramid">
</g>
<g id="_x23_The_x5F_Pantheon">
</g>
<g id="_x23_Emirates_x5F_Towers">
</g>
<g id="_x23_China_x5F_wall">
	<g id="_x23_Empire_x5F_State_x5F_Building">
	</g>
	<g>
		<line class="st3" x1="232.4" y1="555.5" x2="48.4" y2="555.5"/>
		<rect x="116.4" y="546.4" class="st6" width="64.8" height="8.7"/>
		<path class="st6" d="M123.4,546.4c0,0,58-20.4,31.6-28.6c3.8-17.1,12.1-70.2,12.1-70.2s10.2,53.2,8.2,57.3c-2,4.1-17.6,11-17.6,11
			l13.2-5.5l1.9,13.8c0,0-7.4,1.3,0.2,19C174.6,547.2,123.4,546.4,123.4,546.4z"/>
		<path class="st6" d="M123.4,545.4l6.8-41.6c0,0,25.1-14.1,35.2-70.1c4.4-10.8-40.7-10.8-36.2,66
			C130.1,503.7,123.4,545.4,123.4,545.4z"/>
		<path class="st6" d="M128.5,463.8c0,0-2.7-5.4,6.8-26.2c5.3-27.6,0.1-25.2,0.1-25.2l-12,9.2l6.5,21.3L128.5,463.8z"/>
		<path class="st6" d="M169.2,452.2c0,0,8.6-12.1,10-11.6c1.3,0.5,11.2,3,10.4,4.9c-0.8,1.9-4.4,8.8-6.6,8.5c-2.3-0.3-6-0.3-3.5,5.6
			s5.4,0.9,6.8-1c1.3-1.9-2.6-4.1-2.6-4.1s-5.2-2.2-5.3,4.1s-3,11.5-5.8,11.4C169.8,469.9,169.2,452.2,169.2,452.2z"/>
		<path class="st6" d="M134.5,413.1c0,0-7.4-14.7-6.1-32.2c-1.7-1.2-6.1,0.4-6.1,0.4l4,36"/>
		<path class="st6" d="M136.9,477c9.5-11.4,20.1-26.3,27.5-45.5"/>
		<path class="st6" d="M138.3,415.8c6.2,9.6,9.2,11.4,18.7,12.8"/>
		<path class="st6" d="M139.8,399.9c0,0-1.4,18.8,9.6,19.7c11,0.9,8.6-19.7,8.6-19.7S148.6,395.8,139.8,399.9z"/>
		<line class="st6" x1="139.8" y1="399.9" x2="136.9" y2="397.2"/>
		<path class="st6" d="M136.9,396.6c0,0,10.4-8.6,23.5,0c-2,2.5-2.5,3.3-2.5,3.3"/>
		<line class="st6" x1="148.6" y1="392" x2="148.6" y2="381.5"/>
		<line class="st6" x1="151.6" y1="392.8" x2="156.9" y2="385.5"/>
		<line class="st6" x1="155.6" y1="394.2" x2="160.4" y2="390.4"/>
		<line class="st6" x1="160.4" y1="396.6" x2="164.4" y2="395"/>
		<line class="st6" x1="145.6" y1="392.8" x2="141.4" y2="385.5"/>
		<line class="st6" x1="141.4" y1="393.2" x2="136.6" y2="389.8"/>
		<line class="st6" x1="138" y1="395.8" x2="133" y2="393.4"/>
		<line class="st6" x1="154.4" y1="427.4" x2="154.4" y2="419.6"/>
		<path class="st6" d="M158,409.5c0,0,4.9,5.7,3.6,8.5c-1.2,2.7-2.5,0.5-1.2,6.1c1.3,5.7,2,4.5,2,4.5"/>
		<path class="st6" d="M118,369.1c0,0-0.4,6,4.4,10.3s4.4-1.1,4.4-1.1l-1.8-9.9L118,369.1z"/>
		<path class="st6" d="M127.3,379.6c0,0,2.9,2.8,3.5-7.3l-4.1-3.1"/>
		<polyline class="st6" points="128.4,368.8 129.8,358.1 118.5,358 121.3,368.8 		"/>
		<path class="st6" d="M121.6,328.7c0,0,5.2,10.5,4.8,15.1c-0.7,8,5-5.1,5-5.1s4.1,17.9-2.6,17.6C123.4,356.2,105.7,365,121.6,328.7
			z"/>
		<line class="st19" x1="474.2" y1="555.5" x2="0" y2="555.5"/>
		<line class="st19" x1="427.3" y1="565.4" x2="33.7" y2="565.4"/>
		<line class="st7" x1="338.3" y1="242.5" x2="338.3" y2="248.7"/>
		<line class="st7" x1="338.3" y1="255.5" x2="338.3" y2="261.8"/>
		<line class="st7" x1="338.3" y1="268.5" x2="338.3" y2="274.8"/>
		<line class="st7" x1="338.3" y1="281.5" x2="338.3" y2="287.8"/>
		<line class="st7" x1="338.3" y1="294.5" x2="338.3" y2="300.8"/>
		<line class="st7" x1="338.3" y1="307.5" x2="338.3" y2="313.8"/>
		<line class="st7" x1="338.3" y1="320.5" x2="338.3" y2="326.8"/>
		<line class="st7" x1="338.3" y1="333.5" x2="338.3" y2="339.8"/>
		<line class="st7" x1="338.3" y1="346.5" x2="338.3" y2="352.8"/>
		<line class="st7" x1="338.3" y1="359.5" x2="338.3" y2="365.8"/>
		<line class="st7" x1="338.3" y1="372.5" x2="338.3" y2="378.8"/>
		<line class="st7" x1="338.3" y1="385.5" x2="338.3" y2="391.8"/>
		<line class="st7" x1="338.3" y1="398.5" x2="338.3" y2="404.8"/>
		<line class="st7" x1="338.3" y1="411.5" x2="338.3" y2="417.8"/>
		<line class="st7" x1="345.7" y1="242.5" x2="345.7" y2="248.7"/>
		<line class="st7" x1="345.7" y1="255.5" x2="345.7" y2="261.8"/>
		<line class="st7" x1="345.7" y1="268.5" x2="345.7" y2="274.8"/>
		<line class="st7" x1="345.7" y1="281.5" x2="345.7" y2="287.8"/>
		<line class="st7" x1="345.7" y1="294.5" x2="345.7" y2="300.8"/>
		<line class="st7" x1="345.7" y1="307.5" x2="345.7" y2="313.8"/>
		<line class="st7" x1="345.7" y1="320.5" x2="345.7" y2="326.8"/>
		<line class="st7" x1="345.7" y1="333.5" x2="345.7" y2="339.8"/>
		<line class="st7" x1="345.7" y1="346.5" x2="345.7" y2="352.8"/>
		<line class="st7" x1="345.7" y1="359.5" x2="345.7" y2="365.8"/>
		<line class="st7" x1="345.7" y1="372.5" x2="345.7" y2="378.8"/>
		<line class="st7" x1="345.7" y1="385.5" x2="345.7" y2="391.8"/>
		<line class="st7" x1="345.7" y1="398.5" x2="345.7" y2="404.8"/>
		<line class="st7" x1="345.7" y1="411.5" x2="345.7" y2="417.8"/>
		<line class="st7" x1="338.3" y1="229.9" x2="338.3" y2="236.2"/>
		<line class="st7" x1="345.7" y1="229.9" x2="345.7" y2="236.2"/>
		<line class="st7" x1="304.3" y1="148.2" x2="304.3" y2="154.5"/>
		<line class="st7" x1="304.3" y1="161.2" x2="304.3" y2="167.5"/>
		<line class="st7" x1="312.8" y1="148.2" x2="312.8" y2="154.5"/>
		<line class="st7" x1="312.8" y1="161.2" x2="312.8" y2="167.5"/>
		<line class="st7" x1="304.3" y1="135.6" x2="304.3" y2="141.9"/>
		<line class="st7" x1="312.8" y1="135.6" x2="312.8" y2="141.9"/>
		<line class="st7" x1="321.4" y1="126.5" x2="304.3" y2="126.5"/>
		<line class="st7" x1="321.4" y1="148" x2="321.4" y2="154.3"/>
		<line class="st7" x1="321.4" y1="161" x2="321.4" y2="167.3"/>
		<line class="st7" x1="321.4" y1="135.4" x2="321.4" y2="141.7"/>
		<line class="st7" x1="353.4" y1="242.2" x2="353.4" y2="248.5"/>
		<line class="st7" x1="353.4" y1="255.3" x2="353.4" y2="261.5"/>
		<line class="st7" x1="353.4" y1="268.3" x2="353.4" y2="274.5"/>
		<line class="st7" x1="353.4" y1="281.3" x2="353.4" y2="287.6"/>
		<line class="st7" x1="353.4" y1="294.3" x2="353.4" y2="300.6"/>
		<line class="st7" x1="353.4" y1="307.3" x2="353.4" y2="313.6"/>
		<line class="st7" x1="353.4" y1="320.3" x2="353.4" y2="326.6"/>
		<line class="st7" x1="353.4" y1="333.3" x2="353.4" y2="339.6"/>
		<line class="st7" x1="353.4" y1="346.3" x2="353.4" y2="352.6"/>
		<line class="st7" x1="353.4" y1="359.3" x2="353.4" y2="365.6"/>
		<line class="st7" x1="353.4" y1="372.3" x2="353.4" y2="378.6"/>
		<line class="st7" x1="353.4" y1="385.3" x2="353.4" y2="391.6"/>
		<line class="st7" x1="353.4" y1="398.3" x2="353.4" y2="404.6"/>
		<line class="st7" x1="353.4" y1="411.3" x2="353.4" y2="417.6"/>
		<line class="st7" x1="338.3" y1="541.2" x2="338.3" y2="547.5"/>
		<line class="st7" x1="345.7" y1="541.2" x2="345.7" y2="547.5"/>
		<line class="st7" x1="353.4" y1="541" x2="353.4" y2="547.3"/>
		<line class="st7" x1="338.3" y1="424.7" x2="338.3" y2="431"/>
		<line class="st7" x1="338.3" y1="437.7" x2="338.3" y2="444"/>
		<line class="st7" x1="338.3" y1="450.7" x2="338.3" y2="457"/>
		<line class="st7" x1="338.3" y1="463.7" x2="338.3" y2="470"/>
		<line class="st7" x1="338.3" y1="476.7" x2="338.3" y2="483"/>
		<line class="st7" x1="338.3" y1="489.7" x2="338.3" y2="496"/>
		<line class="st7" x1="338.3" y1="502.7" x2="338.3" y2="509"/>
		<line class="st7" x1="338.3" y1="515.7" x2="338.3" y2="522"/>
		<line class="st7" x1="338.3" y1="528.7" x2="338.3" y2="535"/>
		<line class="st7" x1="345.7" y1="424.7" x2="345.7" y2="431"/>
		<line class="st7" x1="345.7" y1="437.7" x2="345.7" y2="444"/>
		<line class="st7" x1="345.7" y1="450.7" x2="345.7" y2="457"/>
		<line class="st7" x1="345.7" y1="463.7" x2="345.7" y2="470"/>
		<line class="st7" x1="345.7" y1="476.7" x2="345.7" y2="483"/>
		<line class="st7" x1="345.7" y1="489.7" x2="345.7" y2="496"/>
		<line class="st7" x1="345.7" y1="502.7" x2="345.7" y2="509"/>
		<line class="st7" x1="345.7" y1="515.7" x2="345.7" y2="522"/>
		<line class="st7" x1="345.7" y1="528.7" x2="345.7" y2="535"/>
		<line class="st7" x1="353.4" y1="424.5" x2="353.4" y2="430.8"/>
		<line class="st7" x1="353.4" y1="437.5" x2="353.4" y2="443.8"/>
		<line class="st7" x1="353.4" y1="450.5" x2="353.4" y2="456.8"/>
		<line class="st7" x1="353.4" y1="463.5" x2="353.4" y2="469.8"/>
		<line class="st7" x1="353.4" y1="476.5" x2="353.4" y2="482.8"/>
		<line class="st7" x1="353.4" y1="489.5" x2="353.4" y2="495.8"/>
		<line class="st7" x1="353.4" y1="502.5" x2="353.4" y2="508.8"/>
		<line class="st7" x1="353.4" y1="515.5" x2="353.4" y2="521.8"/>
		<line class="st7" x1="353.4" y1="528.5" x2="353.4" y2="534.8"/>
		<line class="st7" x1="353.4" y1="229.7" x2="353.4" y2="236"/>
		<line class="st7" x1="272.5" y1="242.5" x2="272.5" y2="248.7"/>
		<line class="st7" x1="272.5" y1="255.5" x2="272.5" y2="261.8"/>
		<line class="st7" x1="272.5" y1="268.5" x2="272.5" y2="274.8"/>
		<line class="st7" x1="272.5" y1="281.5" x2="272.5" y2="287.8"/>
		<line class="st7" x1="272.5" y1="294.5" x2="272.5" y2="300.8"/>
		<line class="st7" x1="272.5" y1="307.5" x2="272.5" y2="313.8"/>
		<line class="st7" x1="272.5" y1="320.5" x2="272.5" y2="326.8"/>
		<line class="st7" x1="272.5" y1="333.5" x2="272.5" y2="339.8"/>
		<line class="st7" x1="272.5" y1="346.5" x2="272.5" y2="352.8"/>
		<line class="st7" x1="272.5" y1="359.5" x2="272.5" y2="365.8"/>
		<line class="st7" x1="272.5" y1="372.5" x2="272.5" y2="378.8"/>
		<line class="st7" x1="272.5" y1="385.5" x2="272.5" y2="391.8"/>
		<line class="st7" x1="272.5" y1="398.5" x2="272.5" y2="404.8"/>
		<line class="st7" x1="272.5" y1="411.5" x2="272.5" y2="417.8"/>
		<line class="st7" x1="279.9" y1="242.5" x2="279.9" y2="248.7"/>
		<line class="st7" x1="279.9" y1="255.5" x2="279.9" y2="261.8"/>
		<line class="st7" x1="279.9" y1="268.5" x2="279.9" y2="274.8"/>
		<line class="st7" x1="279.9" y1="281.5" x2="279.9" y2="287.8"/>
		<line class="st7" x1="279.9" y1="294.5" x2="279.9" y2="300.8"/>
		<line class="st7" x1="279.9" y1="307.5" x2="279.9" y2="313.8"/>
		<line class="st7" x1="279.9" y1="320.5" x2="279.9" y2="326.8"/>
		<line class="st7" x1="279.9" y1="333.5" x2="279.9" y2="339.8"/>
		<line class="st7" x1="279.9" y1="346.5" x2="279.9" y2="352.8"/>
		<line class="st7" x1="279.9" y1="359.5" x2="279.9" y2="365.8"/>
		<line class="st7" x1="279.9" y1="372.5" x2="279.9" y2="378.8"/>
		<line class="st7" x1="279.9" y1="385.5" x2="279.9" y2="391.8"/>
		<line class="st7" x1="279.9" y1="398.5" x2="279.9" y2="404.8"/>
		<line class="st7" x1="279.9" y1="411.5" x2="279.9" y2="417.8"/>
		<line class="st7" x1="272.5" y1="229.9" x2="272.5" y2="236.2"/>
		<line class="st7" x1="279.9" y1="229.9" x2="279.9" y2="236.2"/>
		<line class="st7" x1="287.7" y1="242.2" x2="287.7" y2="248.5"/>
		<line class="st7" x1="287.7" y1="255.3" x2="287.7" y2="261.5"/>
		<line class="st7" x1="287.7" y1="268.3" x2="287.7" y2="274.5"/>
		<line class="st7" x1="287.7" y1="281.3" x2="287.7" y2="287.6"/>
		<line class="st7" x1="287.7" y1="294.3" x2="287.7" y2="300.6"/>
		<line class="st7" x1="287.7" y1="307.3" x2="287.7" y2="313.6"/>
		<line class="st7" x1="287.7" y1="320.3" x2="287.7" y2="326.6"/>
		<line class="st7" x1="287.7" y1="333.3" x2="287.7" y2="339.6"/>
		<line class="st7" x1="287.7" y1="346.3" x2="287.7" y2="352.6"/>
		<line class="st7" x1="287.7" y1="359.3" x2="287.7" y2="365.6"/>
		<line class="st7" x1="287.7" y1="372.3" x2="287.7" y2="378.6"/>
		<line class="st7" x1="287.7" y1="385.3" x2="287.7" y2="391.6"/>
		<line class="st7" x1="287.7" y1="398.3" x2="287.7" y2="404.6"/>
		<line class="st7" x1="287.7" y1="411.3" x2="287.7" y2="417.6"/>
		<line class="st7" x1="272.5" y1="541.2" x2="272.5" y2="547.5"/>
		<line class="st7" x1="279.9" y1="541.2" x2="279.9" y2="547.5"/>
		<line class="st7" x1="287.7" y1="541" x2="287.7" y2="547.3"/>
		<line class="st7" x1="272.5" y1="424.7" x2="272.5" y2="431"/>
		<line class="st7" x1="272.5" y1="437.7" x2="272.5" y2="444"/>
		<line class="st7" x1="272.5" y1="450.7" x2="272.5" y2="457"/>
		<line class="st7" x1="272.5" y1="463.7" x2="272.5" y2="470"/>
		<line class="st7" x1="272.5" y1="476.7" x2="272.5" y2="483"/>
		<line class="st7" x1="272.5" y1="489.7" x2="272.5" y2="496"/>
		<line class="st7" x1="272.5" y1="502.7" x2="272.5" y2="509"/>
		<line class="st7" x1="272.5" y1="515.7" x2="272.5" y2="522"/>
		<line class="st7" x1="272.5" y1="528.7" x2="272.5" y2="535"/>
		<line class="st7" x1="279.9" y1="424.7" x2="279.9" y2="431"/>
		<line class="st7" x1="279.9" y1="437.7" x2="279.9" y2="444"/>
		<line class="st7" x1="279.9" y1="450.7" x2="279.9" y2="457"/>
		<line class="st7" x1="279.9" y1="463.7" x2="279.9" y2="470"/>
		<line class="st7" x1="279.9" y1="476.7" x2="279.9" y2="483"/>
		<line class="st7" x1="279.9" y1="489.7" x2="279.9" y2="496"/>
		<line class="st7" x1="279.9" y1="502.7" x2="279.9" y2="509"/>
		<line class="st7" x1="279.9" y1="515.7" x2="279.9" y2="522"/>
		<line class="st7" x1="279.9" y1="528.7" x2="279.9" y2="535"/>
		<line class="st7" x1="287.7" y1="424.5" x2="287.7" y2="430.8"/>
		<line class="st7" x1="287.7" y1="437.5" x2="287.7" y2="443.8"/>
		<line class="st7" x1="287.7" y1="450.5" x2="287.7" y2="456.8"/>
		<line class="st7" x1="287.7" y1="463.5" x2="287.7" y2="469.8"/>
		<line class="st7" x1="287.7" y1="476.5" x2="287.7" y2="482.8"/>
		<line class="st7" x1="287.7" y1="489.5" x2="287.7" y2="495.8"/>
		<line class="st7" x1="287.7" y1="502.5" x2="287.7" y2="508.8"/>
		<line class="st7" x1="287.7" y1="515.5" x2="287.7" y2="521.8"/>
		<line class="st7" x1="287.7" y1="528.5" x2="287.7" y2="534.8"/>
		<line class="st7" x1="287.7" y1="229.7" x2="287.7" y2="236"/>
		<rect x="263" y="221.2" class="st7" width="34.3" height="333.9"/>
		<rect x="328.8" y="221.2" class="st7" width="34.3" height="333.9"/>
		<rect x="279.5" y="125.5" class="st7" width="14.8" height="95.7"/>
		<rect x="330.8" y="125.5" class="st7" width="14.8" height="95.7"/>
		<rect x="309.1" y="68.7" class="st7" width="6.8" height="14.9"/>
		<rect x="355.7" y="432.2" class="st56" width="23.9" height="122.7"/>
		<rect x="328.8" y="166" class="st56" width="26.9" height="54.5"/>
		<rect x="268.3" y="166" class="st56" width="26.9" height="54.5"/>
		<rect x="247.2" y="432.2" class="st56" width="23.9" height="122.7"/>
		<line class="st7" x1="297.3" y1="508.1" x2="328.8" y2="508.1"/>
		<line class="st7" x1="297.3" y1="497.9" x2="328.8" y2="497.9"/>
		<line class="st7" x1="297.3" y1="487.6" x2="328.8" y2="487.6"/>
		<line class="st7" x1="297.3" y1="477.3" x2="328.8" y2="477.3"/>
		<line class="st7" x1="297.3" y1="467" x2="328.8" y2="467"/>
		<line class="st7" x1="297.3" y1="456.7" x2="328.8" y2="456.7"/>
		<line class="st7" x1="297.3" y1="446.4" x2="328.8" y2="446.4"/>
		<line class="st7" x1="297.3" y1="436.1" x2="328.8" y2="436.1"/>
		<line class="st7" x1="297.3" y1="425.8" x2="328.8" y2="425.8"/>
		<line class="st7" x1="297.3" y1="415.5" x2="328.8" y2="415.5"/>
		<line class="st7" x1="297.3" y1="405.2" x2="328.8" y2="405.2"/>
		<line class="st7" x1="297.3" y1="394.9" x2="328.8" y2="394.9"/>
		<line class="st7" x1="297.3" y1="384.6" x2="328.8" y2="384.6"/>
		<line class="st7" x1="297.3" y1="374.3" x2="328.8" y2="374.3"/>
		<line class="st7" x1="297.3" y1="364" x2="328.8" y2="364"/>
		<line class="st7" x1="297.3" y1="353.8" x2="328.8" y2="353.8"/>
		<line class="st7" x1="297.3" y1="343.5" x2="328.8" y2="343.5"/>
		<line class="st7" x1="297.3" y1="333.2" x2="328.8" y2="333.2"/>
		<line class="st7" x1="297.3" y1="322.9" x2="328.8" y2="322.9"/>
		<line class="st7" x1="297.3" y1="312.6" x2="328.8" y2="312.6"/>
		<line class="st7" x1="297.3" y1="302.3" x2="328.8" y2="302.3"/>
		<line class="st7" x1="297.3" y1="292" x2="328.8" y2="292"/>
		<line class="st7" x1="297.3" y1="281.7" x2="328.8" y2="281.7"/>
		<line class="st7" x1="297.3" y1="271.4" x2="328.8" y2="271.4"/>
		<line class="st7" x1="297.3" y1="261.1" x2="328.8" y2="261.1"/>
		<line class="st7" x1="297.3" y1="250.8" x2="328.8" y2="250.8"/>
		<line class="st7" x1="297.3" y1="240.5" x2="328.8" y2="240.5"/>
		<line class="st7" x1="297.3" y1="230.2" x2="328.8" y2="230.2"/>
		<line class="st7" x1="297.3" y1="220" x2="328.8" y2="220"/>
		<line class="st7" x1="297.3" y1="209.7" x2="328.8" y2="209.7"/>
		<line class="st7" x1="297.3" y1="199.4" x2="328.8" y2="199.4"/>
		<line class="st7" x1="297.3" y1="189.1" x2="328.8" y2="189.1"/>
		<line class="st7" x1="297.3" y1="178.8" x2="328.8" y2="178.8"/>
		<line class="st7" x1="312.5" y1="67.4" x2="312.5" y2="2.5"/>
		<line class="st7" x1="338.3" y1="189.9" x2="338.3" y2="196.2"/>
		<line class="st7" x1="338.3" y1="202.9" x2="338.3" y2="209.2"/>
		<line class="st7" x1="345.7" y1="189.9" x2="345.7" y2="196.2"/>
		<line class="st7" x1="345.7" y1="202.9" x2="345.7" y2="209.2"/>
		<line class="st7" x1="338.3" y1="177.3" x2="338.3" y2="183.6"/>
		<line class="st7" x1="345.7" y1="177.3" x2="345.7" y2="183.6"/>
		<line class="st7" x1="278.1" y1="189.9" x2="278.1" y2="196.2"/>
		<line class="st7" x1="278.1" y1="202.9" x2="278.1" y2="209.2"/>
		<line class="st7" x1="285.5" y1="189.9" x2="285.5" y2="196.2"/>
		<line class="st7" x1="285.5" y1="202.9" x2="285.5" y2="209.2"/>
		<line class="st7" x1="278.1" y1="177.3" x2="278.1" y2="183.6"/>
		<line class="st7" x1="285.5" y1="177.3" x2="285.5" y2="183.6"/>
		<g>
			<path class="st7" d="M114.2,198.6c14.5-8.5,24.3-2,25.5,10.2c1.2,12.2-13.3,14.7-13.3,14.7H65c0,0-12.6-3.7-11.3-14.7
				c1.6-14.1,15.2-14.1,20-7"/>
			<path class="st7" d="M69.6,198.1c-5.9-7,5.9-23.2,19.4-14.2"/>
			<path class="st7" d="M87.2,189.4c0,0,5.7-17.9,22.5-13.6c14.5,3.7,12.5,18.9,12.5,18.9"/>
		</g>
		<g>
			<path class="st7" d="M231.2,117.9c5.7-6,15.6-1,16,7c0.4,8-8,10.3-8,10.3h-30c0,0-8.3-2.7-6.7-11.3c1.7-8.7,12-7,12.7-5.3"/>
			<path class="st7" d="M237.8,115.3c0,0-1.5-11.4-13.1-10.4c-11.6,1-11.1,12.7-11.1,12.7"/>
		</g>
		<g>
			<path class="st7" d="M423.6,190c-8.2-8.6-22.5-1.4-23,10.1s11.5,14.9,11.5,14.9h43.2c0,0,12-3.8,9.6-16.3
				c-2.4-12.5-17.3-10.1-18.2-7.7"/>
			<path class="st7" d="M414,186.2c0,0,2.2-16.3,18.9-14.9s16,18.3,16,18.3"/>
		</g>
		<path class="st2" d="M344.4,125.5c-1.1-11.6-14.7-24.2-31.3-24.2c-16.6,0-30.2,12.6-31.3,24.2"/>
		<path class="st2" d="M335.9,110.3c-0.8-8.7-11-18.1-23.4-18.1c-12.4,0-22.6,9.4-23.4,18.1"/>
		<path class="st2" d="M327.6,96.6c-0.5-5.6-7.1-11.7-15.1-11.7c-8,0-14.6,6.1-15.1,11.7"/>
		<path class="st59" d="M330.3,126.9c-0.6-6.6-8.4-13.8-17.9-13.8c-9.5,0-17.2,7.2-17.9,13.8"/>
	</g>
</g>
</svg>
