<?xml version="1.0" encoding="utf-8"?>
<!-- Generator: Adobe Illustrator 19.1.0, SVG Export Plug-In . SVG Version: 6.00 Build 0)  -->
<svg version="1.1" xmlns="http://www.w3.org/2000/svg" xmlns:xlink="http://www.w3.org/1999/xlink" x="0px" y="0px"
	 viewBox="0 0 474.2 420.5" style="enable-background:new 0 0 474.2 420.5;" xml:space="preserve">
<style type="text/css">
	.st0{fill:#EDEDED;}
	.st1{fill:#59595A;}
	.st2{fill:none;stroke:#59595B;stroke-width:5;stroke-linejoin:round;stroke-miterlimit:10;}
	.st3{fill:none;stroke:#59595B;stroke-width:4.1457;stroke-linejoin:round;stroke-miterlimit:10;}
	.st4{fill:#F6F5F5;}
	.st5{fill:#59595B;}
	.st6{fill:none;stroke:#59595B;stroke-width:4.0874;stroke-linecap:round;stroke-linejoin:round;stroke-miterlimit:10;}
	.st7{fill:none;stroke:#59595B;stroke-width:5;stroke-linecap:round;stroke-linejoin:round;stroke-miterlimit:10;}
	.st8{fill:#EFEFEF;stroke:#59595B;stroke-width:5;stroke-linecap:round;stroke-linejoin:round;stroke-miterlimit:10;}
	.st9{fill:#EDECED;}
	.st10{fill:none;stroke:#5A5B5B;stroke-width:5;stroke-miterlimit:10;}
	.st11{fill:none;stroke:#5A5B5C;stroke-width:5;stroke-linecap:round;stroke-linejoin:round;stroke-miterlimit:10;}
	.st12{fill:#EDECED;stroke:#5A5B5C;stroke-width:5;stroke-linecap:round;stroke-linejoin:round;stroke-miterlimit:10;}
	.st13{fill:#5A5B5C;stroke:#5A5B5C;stroke-width:5;stroke-linecap:round;stroke-linejoin:round;stroke-miterlimit:10;}
	.st14{fill:none;stroke:#5A5B5B;stroke-width:5;stroke-linecap:round;stroke-linejoin:round;stroke-miterlimit:10;}
	.st15{fill:#F0EFEF;stroke:#5A5B5B;stroke-width:5;stroke-linecap:round;stroke-linejoin:round;stroke-miterlimit:10;}
	.st16{fill:#E8E8E8;stroke:#5A5B5C;stroke-width:5;stroke-linecap:round;stroke-linejoin:round;stroke-miterlimit:10;}
	.st17{fill:#FFFFFF;stroke:#5A5B5B;stroke-width:5;stroke-linecap:round;stroke-linejoin:round;stroke-miterlimit:10;}
	.st18{fill:#EFEFEF;stroke:#59595A;stroke-width:5;stroke-linecap:round;stroke-linejoin:round;stroke-miterlimit:10;}
	.st19{fill:none;stroke:#59595A;stroke-width:5;stroke-miterlimit:10;}
	.st20{fill:none;stroke:#59595A;stroke-width:5;stroke-linecap:round;stroke-miterlimit:10;}
	.st21{fill:none;stroke:#59595A;stroke-width:5;stroke-linejoin:round;stroke-miterlimit:10;}
	.st22{fill:none;stroke:#59595A;stroke-width:4.539;stroke-miterlimit:10;}
	.st23{fill:none;stroke:#59595A;stroke-width:4.1349;stroke-miterlimit:10;}
	.st24{fill:none;stroke:#59595A;stroke-width:3.9798;stroke-miterlimit:10;}
	.st25{fill:none;stroke:#58595B;stroke-width:5;stroke-miterlimit:10;}
	.st26{fill:none;stroke:#58595B;stroke-width:5;stroke-linejoin:round;stroke-miterlimit:10;}
	.st27{fill:none;stroke:#58595B;stroke-width:5;stroke-linecap:round;stroke-linejoin:round;stroke-miterlimit:10;}
	.st28{fill:none;stroke:#59595B;stroke-width:4.2054;stroke-linecap:round;stroke-linejoin:round;stroke-miterlimit:10;}
	.st29{fill:none;stroke:#59595B;stroke-width:5;stroke-miterlimit:10;}
	.st30{fill:#EDECEC;stroke:#59595B;stroke-width:5;stroke-linecap:round;stroke-linejoin:round;stroke-miterlimit:10;}
	.st31{fill:#EDEDED;stroke:#59595A;stroke-width:5;stroke-miterlimit:10;}
	.st32{fill:#EDEDED;stroke:#59595B;stroke-width:5;stroke-linecap:round;stroke-linejoin:round;stroke-miterlimit:10;}
	.st33{fill:none;stroke:#59595A;stroke-width:5;stroke-linecap:round;stroke-linejoin:round;stroke-miterlimit:10;}
	.st34{fill:#58595B;}
	.st35{fill:#59595A;stroke:#EDEDED;stroke-width:3;stroke-miterlimit:10;}
	.st36{fill:#59595A;stroke:#EDEDED;stroke-miterlimit:10;}
	.st37{fill:#EFEFEF;stroke:#59595A;stroke-width:5;stroke-linecap:round;stroke-miterlimit:10;}
	.st38{fill:#EDEDED;stroke:#59595A;stroke-width:5;stroke-linecap:round;stroke-linejoin:round;stroke-miterlimit:10;}
	.st39{fill-rule:evenodd;clip-rule:evenodd;fill:#59595B;}
	
		.st40{fill-rule:evenodd;clip-rule:evenodd;fill:none;stroke:#59595B;stroke-width:5;stroke-linecap:round;stroke-linejoin:round;stroke-miterlimit:10;}
	.st41{fill:none;stroke:#5A5B5C;stroke-width:4.1457;stroke-linejoin:round;stroke-miterlimit:10;}
	.st42{fill:none;stroke:#5A5B5B;stroke-width:4.539;stroke-miterlimit:10;}
	.st43{fill:none;stroke:#5A5B5B;stroke-width:4.1349;stroke-miterlimit:10;}
	.st44{fill:none;stroke:#5A5B5B;stroke-width:3.9798;stroke-miterlimit:10;}
	.st45{fill:none;stroke:#5A5B5C;stroke-width:4;stroke-linecap:round;stroke-linejoin:round;stroke-miterlimit:10;}
	.st46{fill:none;stroke:#595A5C;stroke-width:5;stroke-linecap:round;stroke-linejoin:round;stroke-miterlimit:10;}
	.st47{fill:#5A5B5C;}
	.st48{fill:none;stroke:#595A5C;stroke-width:5;stroke-linejoin:round;stroke-miterlimit:10;}
	.st49{fill:none;stroke:#5A5B5B;stroke-width:5;stroke-linecap:round;stroke-miterlimit:10;}
	.st50{fill:#5A5B5B;}
	.st51{fill:#5A5B5C;stroke:#5A5B5C;stroke-miterlimit:10;}
	.st52{fill:#595A5C;}
	.st53{fill:#EDECED;stroke:#5A5B5B;stroke-width:5;stroke-miterlimit:10;}
	.st54{fill:#FFFFFF;stroke:#5A5B5B;stroke-width:5;stroke-miterlimit:10;}
	.st55{fill:#FFFFFF;stroke:#5A5B5C;stroke-width:5;stroke-linecap:round;stroke-linejoin:round;stroke-miterlimit:10;}
	.st56{fill:#FFFFFF;stroke:#59595B;stroke-width:5;stroke-linecap:round;stroke-linejoin:round;stroke-miterlimit:10;}
	.st57{fill:#FFFFFF;stroke:#59595A;stroke-width:5;stroke-linecap:round;stroke-linejoin:round;stroke-miterlimit:10;}
	.st58{fill:#FFFFFF;stroke:#59595A;stroke-width:5;stroke-miterlimit:10;}
	.st59{fill:none;stroke:#59595B;stroke-width:3.8573;stroke-linejoin:round;stroke-miterlimit:10;}
	.st60{fill:#EDEDED;stroke:#59595B;stroke-width:5;stroke-miterlimit:10;}
	.st61{fill:none;stroke:#59595B;stroke-width:5;stroke-linecap:round;stroke-miterlimit:10;}
	.st62{fill:#59595B;stroke:#59595A;stroke-width:5;stroke-linecap:round;stroke-linejoin:round;stroke-miterlimit:10;}
	.st63{fill:#FFFFFF;stroke:#59595B;stroke-width:5;stroke-miterlimit:10;}
	.st64{fill:#EAEAEA;stroke:#59595A;stroke-width:5;stroke-linecap:round;stroke-linejoin:round;stroke-miterlimit:10;}
	.st65{fill:#EAEAEA;stroke:#59595A;stroke-width:5;stroke-linecap:round;stroke-miterlimit:10;}
</style>
<g id="Background">
</g>
<g id="_x23_Tower_x5F_Bridge">
</g>
<g id="_x23_Washington_x5F_Mountain">
</g>
<g id="_x23_London_x5F_Eye">
</g>
<g id="_x23_Eiffel_x5F_Tower">
	<g id="New_Symbol">
	</g>
	<g>
		<line class="st23" x1="427.3" y1="418.4" x2="33.7" y2="418.4"/>
		<line class="st3" x1="232.4" y1="408.5" x2="48.4" y2="408.5"/>
		<path class="st5" d="M152.5,246.5c-0.1,0.2-0.2,0.5-0.3,0.8c-1.3,2.1-6.3,3.3-8.2,1.7c-2.6-2.2-5.2-2.8-8.2-1.1
			c-1.5,0.8-2.9,0.2-4.1-0.4c-2.1-1-3.8-0.7-5.8,0.7c-3.8,2.8-4.5,2.7-8.5,0c-1-0.7-1.7-1.5-1.1-2.7c0.7-1.3,1.8-1.6,3-0.8
			c2.1,1.5,3.9,0.9,5.6-0.6c2-1.8,4-2.2,6.4-0.9c2.1,1.1,4.2,1,6.3-0.1c2.1-1.1,4-0.9,5.8,0.7c1.9,1.6,3.7,2.6,6.3,0.9
			C150.9,243.6,152.6,244.8,152.5,246.5z"/>
		<path class="st5" d="M139.5,232.1c-3.3-2.9-7.2-0.8-11.3-0.2c-3.3,0.5-6-1.3-7.6-4.4c-0.7-1.3-0.8-2.5,0.6-3.3
			c1.3-0.8,2.2,0.1,2.9,1.2c2.4,3.6,5.7,3.5,8.3-0.1c1.3-1.9,2.5-1.9,3.9,0.1c2.5,3.6,5.7,3.5,8.3-0.1c0.8-1.1,1.6-1.8,2.9-1
			c1.2,0.8,1.2,1.9,0.6,3.1C146.4,230.6,143.7,231.8,139.5,232.1z"/>
		<path class="st5" d="M120,358c-0.6,0-1.2,0-1.8,0c-1.2-0.1-2.1-0.7-2.1-2c0-1.3,0.9-2,2.1-2.1c1.1-0.1,2.2,0,3.3,0
			c1.4,0,2.6,0.5,2.6,2c0,1.6-1.1,2.1-2.6,2.1C121,358,120.5,358,120,358C120,358,120,358,120,358z"/>
		<path class="st5" d="M123.9,349.8c-0.7,0-1.4,0.1-2,0c-1.1-0.2-1.8-0.9-1.8-2.1c0-1,0.7-1.8,1.7-1.9c1.2-0.1,2.5-0.1,3.8-0.1
			c1.5,0,2.6,0.6,2.5,2.1c-0.1,1.4-1.1,2-2.5,1.9C125.1,349.8,124.5,349.8,123.9,349.8C123.9,349.8,123.9,349.8,123.9,349.8z"/>
		<path class="st5" d="M177.9,186.4c0,2.9-1.9,5.5-4.7,6.6c-2.8,1-5.9,0.2-7.8-2.1c-1.9-2.3-2.2-5.5-0.7-8c0.6-1.1,1.4-2,2.8-1.4
			c1.4,0.7,1.6,1.8,0.8,3.2c-0.9,1.5-0.7,2.9,0.7,4.1c1.1,0.9,2.4,0.9,3.5,0c1.4-1.1,1.8-2.5,0.8-4c-0.8-1.3-0.7-2.5,0.7-3.2
			c1.5-0.8,2.4,0.3,3,1.5C177.7,184,178,185.1,177.9,186.4z"/>
		<path class="st5" d="M86.6,180.2c1,0,1.3,0.5,1.4,1.4c2.1,11.6,7.7,21.6,14.6,30.9c1,1.4,2.1,2.6,0.5,4.3
			c-0.7,0.8-0.2,1.8,0.1,2.6c4.2,10.1,5.4,20.7,4.6,31.5c0,0.4,0,0.8,0,1.3c0,0.8,0.4,1.6,1.1,1.8c3.2,0.8,3.2,3.4,3.4,5.9
			c1.4,19.6,2.8,39.1,4.3,58.7c0.1,1.8,0.1,1.8,0.3,3.3c-2.5,0.8-1.9,2.5-2,3.9c0,0.5-1.1,1.5-1.7,1.4c-2.8-0.3-3.3,1.6-4,3.7
			c-2.9,8.7-5.8,17.5-8.7,26.2c-0.7,2-0.7,4.6-2,5.9h4.4c0.9-5.2,1.2-5.2,6.9-5.2c1.7,0,4.1,0.5,4-2.1c0-2.4-2.3-1.9-4-2
			c-0.5,0-1,0-1.4,0c-1.1,0-2.1-0.3-2.1-1c0-1.3,0-2.9,2.5-3.1c2.2,0,4.4,0,6.6,0c1.5,0,2.6-0.6,2.5-2.1c0-1.4-1.1-2-2.5-2
			c-1.4,0-2.9,0-4.3,0c-0.8,0-2.1,0.2-2.1-0.8c0-1.3-0.2-3.3,2.3-3.2c1.9,0,3.9,0,5.8,0c1.5,0,2.8-0.4,2.8-2.1c0-1.6-1.3-1.9-2.7-2
			c-1.9-0.1-4.7,0.9-5.4-0.4c-0.7-1.4,0.8-3.7,1.6-5.6c0.7-1.2,1.1-1,2-1c12.6,0,25.2,0,37.7,0c0.8,0,1.6-0.2,2,1
			c0.3,1,0.7,1.9,1,2.9c0.7,1.8,1.8,3.8-1.8,3.3c-1-0.1-1.7,0.8-1.7,1.9c0,1.2,0.7,1.9,1.8,2.1c0.6,0.1,1.2,0.1,1.8,0
			c2.1-0.4,2.8,0.8,3.3,2.5c0.3,1.1,0.2,1.6-1.1,1.6c-0.7,0-1.4-0.1-2,0.1c-1,0.2-1.7,0.9-1.7,1.9c0,1.2,0.7,1.9,1.8,2.1
			c1.1,0.1,2.2,0.1,3.3,0c1.1-0.1,1.6,0.4,2,1.4c0.9,2.1,0.5,2.9-1.9,2.6c-1.5-0.2-3.1,0-3.2,2c-0.1,1.9,1.5,2.1,3,2.1
			c4.7,0.1,4.9,0.2,5.8,5.2h4.6c-0.3-0.3-0.5-0.8-0.6-1.3c-3.2-9.8-6.6-19.5-9.7-29.4c-0.9-2.9-1.8-5.4-5.3-5.5
			c-1.3,0.4-0.8-0.6-0.9-1.1c-0.2-1.2,0.3-2.4-0.8-3.5c-0.6-0.6-1-2-0.9-3.7c0.7-7.9,1.2-15.8,1.8-23.8c0.9-12.4,1.8-24.8,2.7-37.2
			c0.1-1.5,0.4-2.6,2-3.1c1.9-0.6,2.5-2,2.3-3.9c-0.8-10.7,0.4-21.2,4.6-31.2c0.5-1.3,0.5-2.4-0.3-3.6c-0.7-1,2.5-7,3.7-7.1
			c0.2,0,0.5,0.1,0.7,0.3c1.3,0.9,2.4,0.3,3.5-0.4c7.1-4.3,9.7-9,12-18.1c3.2-15.4-1.5-15.2-1.3-15.3c-8.3-3-16.7-3-25.1-0.3
			c-1,0.3-1.9,0.9-1.9,2.1c0,6.9-0.2,13.9,2.5,20.5c0.7,1.7,0.2,2.7-0.6,4.1c-2.6,4.4-6.9,6.8-10.6,10c-2.5,0-5.1,0-7.6,0.1
			c-0.9-1.7-0.9-3.1,0.7-4.7c3.8-3.8,4.5-10.9,1.9-15.6c-1.9-3.4-5.1-4.2-8.7-4.2c-3.6,0-6.7,0.8-8.7,4.2
			c-2.7,4.7-1.9,11.8,1.9,15.6c1.5,1.6,1.7,2.9,0.7,4.7c-2.5,0-5.1,0-7.6-0.1c-0.6-0.5-1.1-1-1.7-1.5c-9.9-6.9-15.5-16.9-19.9-27.7
			c-0.5-1.2-1-2.4,1.2-2.4c0.9,0,1.6-0.9,1.6-2c-0.1-1.2-0.9-1.8-2-1.9c-0.7-0.1-1.5,0.2-2.1-0.5c0-15.7,0-31.5,0-47.2
			c-0.5-2.7-2.1-4.9-3.4-7.2c-0.8-1.5-2.6-1.3-3.4,0.4c-1.1,2.1-2.3,4.1-3,6.4c-0.1,0.2-0.2,0.5-0.2,0.7c0,15.7,0,31.3,0.1,47
			c-0.3,0.1-0.6,0.4-0.9,0.4c-1.5,0-3.2,0.1-3.2,2C83.5,180,85.1,180.3,86.6,180.2z M150.5,327.4c-3.4,0.2-28.9,0.2-32.4,0
			c-0.2-1.3,0.1-2,1.7-2c9.7,0.1,19.4,0.1,29.1,0C150.4,325.4,150.7,326.1,150.5,327.4z M162.4,178.1c6.2-1.5,12.4-1.2,18.5,0.6
			c0.7,0.1,1.1,0.4,1.1,1.1c0,4.2-0.8,9-2.6,14.3c-1.4,4.2-3.7,7.5-7.2,10.1c-1.1,0.8-1.8,0.7-2.9,0c-4.9-3.5-7.3-8.3-8.1-14.1
			c-0.4-3.3-0.6-6.6-0.6-9.9C160.7,178.9,161.1,178.4,162.4,178.1z M160.3,206c0.8-0.7,1.1-1.9,2-2.4c1.1,0,2.6,2.7,2.1,3.6
			c-0.3,0.5-0.6,1.1-1,1.4c-0.8,0.6-0.8,2.8-2.3,1.7C160.1,209.5,158.3,208,160.3,206z M128.2,197.6c0.2-4.7,1.9-6.4,6.6-6.2
			c4,0.1,5.6,2,5.6,6.8c0.1,2.3-0.3,4.7-2.1,6c-3,2.1-3.2,4.6-2.3,7.6c0.4,1.4-0.3,1.9-1.5,1.9c-1.3,0-2.2-0.3-1.8-1.9
			c0.2-0.9,0.3-1.8,0.5-2.7c0.4-1.5,0-2.6-1.3-3.5C129.1,203.6,128.1,200.9,128.2,197.6z M115.8,213c1.5,1,1.5,1.9,0.7,3.3
			c-1.5,2.7-2.7,5.4-4.1,8.2c-0.7,1.3-0.7,2.5,0.8,3.2c1.4,0.7,2.2-0.2,2.8-1.4c1.7-3.5,3.4-7,5.1-10.5c2.8-0.1,5.5-0.2,8.3-0.2
			c3.1,2.8,6.4,2.9,9.5,0.2c2.9-0.2,5.7-0.2,8.6,0c1.7,3.5,3.4,7,5.1,10.5c0.6,1.1,1.4,2,2.8,1.3c1.5-0.7,1.5-1.9,0.8-3.2
			c-1.4-2.7-2.7-5.5-4.1-8.2c-0.8-1.4-0.8-2.3,0.7-3.3c3.5-2.4,3.2-2.3,5.9,0.9c2.4,2.8,3,5.6,1.5,8.9c-3.8,8.2-3.8,16.9-3.4,25.6
			c0.1,1.8-0.2,3.1-2.1,3.7c-1.5,0.5-1.9,1.6-2,3.1c-1.5,21-3,42-4.6,63c-0.1,0.8-0.1,1.7-0.4,2.5c-0.4,1-1.5,0.6-2.2,0.5
			c-1.3-0.2-0.8-1.3-0.8-2c0.4-12.8,0.8-25.5,1.2-38.3c0.2-7.8,0.5-15.6,0.8-23.3c0.1-1.5,0-3.1-2-3.2c-2-0.1-2.1,1.5-2.1,3.1
			c-0.6,20.5-1.3,40.9-1.9,61.4c0,1.7-0.2,2.6-2.3,2.6c-2.3,0-1.9-1.4-1.9-2.6c0-20.7,0-41.3,0-62c0-1.7,0.8-4.3-2-4.4
			c-2.8-0.1-2.1,2.6-2.1,4.3c0,20.7,0,41.5,0,62.2c0,1.8-0.3,2.6-2.3,2.5c-1.7-0.1-1.8-0.8-1.9-2.2c-0.3-9-0.6-17.9-0.8-26.9
			c-0.4-11.8-0.7-23.5-1-35.3c0-1.4-0.4-2.6-2-2.7c-1.6,0-2.1,1.1-2.1,2.6c0.4,13.4,1.9,58.7,2.1,61.9c0.1,1.1,0,2.3-1.4,2.6
			c-2,0.3-1.9-1.1-2-2.4c-0.5-7.3-1.1-14.7-1.6-22c-1-14-2.1-28-3.1-42c-0.1-1.6-0.9-2.5-2.3-3c-1.5-0.5-2.1-1.5-1.9-3.1
			c0-0.2,0-0.5,0-0.8c0.8-9.6-0.5-18.9-4.2-27.8c-0.7-1.6-0.6-2.9,0.6-4.2c0.6-0.7,1.1-1.5,1.6-2.3
			C112.4,210.5,112.4,210.6,115.8,213z M94.6,182.2c2.7,8.9,7.5,16.5,13.2,23.7c0.5,0.6,0.9,1.2,1.4,1.9c-0.8,1-1.3,2.4-2.3,3
			c-0.7,0.4-1.2-0.9-1.7-1.6c-5.8-8-10.7-16.6-12.9-26.4c-0.2-0.8-1.1-2.1,0.4-2.5C94.3,179.8,94.3,181.3,94.6,182.2z M91.3,174.2
			c0-14.6,0-29.3,0-43.9c0-3.3,1.9-3.8,2.3-1.7c0.1,0.6,0.1,1.2,0.1,1.8c0,14.5,0,29,0,43.5c0,1.8-0.2,2.5-1.7,2.2
			C91.5,176,91.3,175.7,91.3,174.2z M88.6,129c0,0.3-0.1,0.7-0.1,1C88.6,129.7,88.6,129.4,88.6,129z"/>
		<polygon class="st6" points="204.3,407.1 67.4,407.1 80.4,363.2 191.3,363.2 		"/>
		<rect x="85.3" y="363.2" class="st6" width="29.4" height="20.1"/>
		<rect x="156.6" y="363.2" class="st6" width="29.4" height="20.1"/>
		<rect x="121.2" y="363.9" class="st6" width="29.4" height="20.1"/>
		<rect x="125.9" y="384" class="st6" width="19.2" height="23.2"/>
		<rect x="156.6" y="383.3" class="st6" width="19.2" height="23.2"/>
		<rect x="95.5" y="383.3" class="st6" width="19.2" height="23.2"/>
		<line class="st6" x1="95.5" y1="395.6" x2="114.7" y2="395.6"/>
		<line class="st6" x1="125.9" y1="395.6" x2="144" y2="395.6"/>
		<line class="st6" x1="157.3" y1="395.6" x2="175.8" y2="395.6"/>
		<line class="st22" x1="474.2" y1="408.5" x2="0" y2="408.5"/>
		<polygon class="st25" points="395.1,407.5 253.9,407.5 258.5,399.3 258.5,349.8 391.4,349.8 391.4,399 		"/>
		<polygon class="st26" points="391.4,349.8 258.5,349.8 256.7,342.4 393.3,342.4 		"/>
		<polygon class="st26" points="391.4,287 258.5,287 256.7,279.6 393.3,279.6 		"/>
		<polygon class="st26" points="390.1,279.6 259.8,279.6 258,272.4 391.9,272.4 		"/>
		<polygon class="st26" points="384.8,224 265.1,224 263.5,215.8 386.5,215.8 		"/>
		<polygon class="st26" points="383.6,215.7 266.3,215.7 264.7,207.6 385.2,207.6 		"/>
		<rect x="319.8" y="365.8" class="st26" width="9.9" height="41.7"/>
		<rect x="320.4" y="237.6" class="st26" width="9.9" height="34.2"/>
		<rect x="350.9" y="237.6" class="st26" width="9.9" height="34.2"/>
		<rect x="289.3" y="237.6" class="st26" width="9.9" height="34.2"/>
		<line class="st26" x1="284.8" y1="407.5" x2="284.8" y2="349.8"/>
		<line class="st26" x1="365.6" y1="407.5" x2="365.6" y2="349.8"/>
		<line class="st27" x1="271" y1="407.5" x2="271" y2="363.1"/>
		<line class="st27" x1="379.1" y1="407.5" x2="379.1" y2="363.1"/>
		<rect x="260" y="287" class="st27" width="130" height="55.5"/>
		<rect x="269.9" y="224.8" class="st27" width="110.3" height="47.1"/>
		<polygon class="st26" points="380.4,144.1 269.5,144.1 268,135.3 382,135.3 		"/>
		<polygon class="st26" points="379.3,114.9 270.6,114.9 269.1,106.3 380.8,106.3 		"/>
		<rect x="320.7" y="162.2" class="st26" width="9.2" height="45.3"/>
		<rect x="349" y="162.2" class="st26" width="9.2" height="45.3"/>
		<rect x="291.9" y="162.2" class="st26" width="9.2" height="45.3"/>
		<rect x="273.9" y="145.1" class="st27" width="102.2" height="62.3"/>
		<rect x="273.9" y="115.3" class="st27" width="102.2" height="20"/>
		<polyline class="st27" points="312.4,325.9 312.4,302.4 338.3,302.4 338.3,325.9 		"/>
		<line class="st27" x1="294.3" y1="287.7" x2="294.3" y2="342.4"/>
		<line class="st27" x1="271" y1="298.9" x2="271" y2="332.7"/>
		<line class="st27" x1="281.9" y1="298.9" x2="281.9" y2="332.7"/>
		<line class="st27" x1="367.4" y1="298.9" x2="367.4" y2="332.7"/>
		<line class="st27" x1="378.3" y1="298.9" x2="378.3" y2="332.7"/>
		<line class="st27" x1="355.8" y1="287.7" x2="355.8" y2="342.4"/>
		<path class="st26" d="M371.6,106.3c1.5-52.9-41.6-53.8-42.8-73.4"/>
		<path class="st26" d="M279.4,106.3c-1.5-52.9,41.6-53.8,42.8-73.4"/>
		<rect x="321.8" y="26.3" class="st26" width="7.6" height="7.6"/>
		<line class="st27" x1="317.2" y1="27.2" x2="334" y2="27.2"/>
		<path class="st27" d="M325.5,21.4c-1.8,0-3.2,1.5-3.2,3.2h6.5C328.8,22.8,327.3,21.4,325.5,21.4z"/>
		<line class="st27" x1="325.6" y1="2.5" x2="325.6" y2="22.4"/>
		<line class="st27" x1="320.1" y1="8.2" x2="331.7" y2="8.2"/>
		<g>
			<path class="st7" d="M98.5,68.3c14.5-8.5,24.3-2,25.5,10.2s-13.3,14.7-13.3,14.7H49.3c0,0-12.6-3.7-11.3-14.7
				c1.6-14.1,15.2-14.1,20-7"/>
			<path class="st7" d="M53.9,67.7c-5.9-7,5.9-23.2,19.4-14.2"/>
			<path class="st7" d="M71.5,59.1c0,0,5.7-17.9,22.5-13.6c14.5,3.7,12.5,18.9,12.5,18.9"/>
		</g>
		<g>
			<path class="st7" d="M214.9,91.1c5.7-6,15.6-1,16,7c0.4,8-8,10.3-8,10.3h-30c0,0-8.3-2.7-6.7-11.3c1.7-8.7,12-7,12.7-5.3"/>
			<path class="st7" d="M221.6,88.4c0,0-1.5-11.4-13.1-10.4c-11.6,1-11.1,12.7-11.1,12.7"/>
		</g>
		<g>
			<path class="st7" d="M402.1,44.1c-8.2-8.6-22.5-1.4-23,10.1c-0.6,11.5,11.5,14.9,11.5,14.9h43.2c0,0,12-3.8,9.6-16.3
				s-17.3-10.1-18.2-7.7"/>
			<path class="st7" d="M392.5,40.3c0,0,2.2-16.3,18.9-14.9c16.6,1.4,16,18.3,16,18.3"/>
		</g>
	</g>
</g>
<g id="_x23_Forbidden_x5F_City">
</g>
<g id="_x23_Sydney_x5F_Opera_x5F_House">
</g>
<g id="_x23_Space_x5F_Needle">
</g>
<g id="_x23_Pyramid">
</g>
<g id="_x23_The_x5F_Pantheon">
</g>
<g id="_x23_Emirates_x5F_Towers">
</g>
<g id="_x23_China_x5F_wall">
	<g id="_x23_Empire_x5F_State_x5F_Building">
	</g>
</g>
</svg>
