<?xml version="1.0" encoding="utf-8"?>
<!-- Generator: Adobe Illustrator 19.1.0, SVG Export Plug-In . SVG Version: 6.00 Build 0)  -->
<svg version="1.1" xmlns="http://www.w3.org/2000/svg" xmlns:xlink="http://www.w3.org/1999/xlink" x="0px" y="0px"
	 viewBox="0 0 454.1 269" style="enable-background:new 0 0 454.1 269;" xml:space="preserve">
<style type="text/css">
	.st0{fill:#EDEDED;}
	.st1{fill:#59595A;}
	.st2{fill:none;stroke:#59595B;stroke-width:5;stroke-linejoin:round;stroke-miterlimit:10;}
	.st3{fill:none;stroke:#59595B;stroke-width:4.1457;stroke-linejoin:round;stroke-miterlimit:10;}
	.st4{fill:#F6F5F5;}
	.st5{fill:#59595B;}
	.st6{fill:none;stroke:#59595B;stroke-width:4.0874;stroke-linecap:round;stroke-linejoin:round;stroke-miterlimit:10;}
	.st7{fill:none;stroke:#59595B;stroke-width:5;stroke-linecap:round;stroke-linejoin:round;stroke-miterlimit:10;}
	.st8{fill:#EFEFEF;stroke:#59595B;stroke-width:5;stroke-linecap:round;stroke-linejoin:round;stroke-miterlimit:10;}
	.st9{fill:#EDECED;}
	.st10{fill:none;stroke:#5A5B5B;stroke-width:5;stroke-miterlimit:10;}
	.st11{fill:none;stroke:#5A5B5C;stroke-width:5;stroke-linecap:round;stroke-linejoin:round;stroke-miterlimit:10;}
	.st12{fill:#EDECED;stroke:#5A5B5C;stroke-width:5;stroke-linecap:round;stroke-linejoin:round;stroke-miterlimit:10;}
	.st13{fill:#5A5B5C;stroke:#5A5B5C;stroke-width:5;stroke-linecap:round;stroke-linejoin:round;stroke-miterlimit:10;}
	.st14{fill:none;stroke:#5A5B5B;stroke-width:5;stroke-linecap:round;stroke-linejoin:round;stroke-miterlimit:10;}
	.st15{fill:#F0EFEF;stroke:#5A5B5B;stroke-width:5;stroke-linecap:round;stroke-linejoin:round;stroke-miterlimit:10;}
	.st16{fill:#E8E8E8;stroke:#5A5B5C;stroke-width:5;stroke-linecap:round;stroke-linejoin:round;stroke-miterlimit:10;}
	.st17{fill:#FFFFFF;stroke:#5A5B5B;stroke-width:5;stroke-linecap:round;stroke-linejoin:round;stroke-miterlimit:10;}
	.st18{fill:#EFEFEF;stroke:#59595A;stroke-width:5;stroke-linecap:round;stroke-linejoin:round;stroke-miterlimit:10;}
	.st19{fill:none;stroke:#59595A;stroke-width:5;stroke-miterlimit:10;}
	.st20{fill:none;stroke:#59595A;stroke-width:5;stroke-linecap:round;stroke-miterlimit:10;}
	.st21{fill:none;stroke:#59595A;stroke-width:5;stroke-linejoin:round;stroke-miterlimit:10;}
	.st22{fill:none;stroke:#59595A;stroke-width:4.539;stroke-miterlimit:10;}
	.st23{fill:none;stroke:#59595A;stroke-width:4.1349;stroke-miterlimit:10;}
	.st24{fill:none;stroke:#59595A;stroke-width:3.9798;stroke-miterlimit:10;}
	.st25{fill:none;stroke:#58595B;stroke-width:5;stroke-miterlimit:10;}
	.st26{fill:none;stroke:#58595B;stroke-width:5;stroke-linejoin:round;stroke-miterlimit:10;}
	.st27{fill:none;stroke:#58595B;stroke-width:5;stroke-linecap:round;stroke-linejoin:round;stroke-miterlimit:10;}
	.st28{fill:none;stroke:#59595B;stroke-width:4.2054;stroke-linecap:round;stroke-linejoin:round;stroke-miterlimit:10;}
	.st29{fill:none;stroke:#59595B;stroke-width:5;stroke-miterlimit:10;}
	.st30{fill:#EDECEC;stroke:#59595B;stroke-width:5;stroke-linecap:round;stroke-linejoin:round;stroke-miterlimit:10;}
	.st31{fill:#EDEDED;stroke:#59595A;stroke-width:5;stroke-miterlimit:10;}
	.st32{fill:#EDEDED;stroke:#59595B;stroke-width:5;stroke-linecap:round;stroke-linejoin:round;stroke-miterlimit:10;}
	.st33{fill:none;stroke:#59595A;stroke-width:5;stroke-linecap:round;stroke-linejoin:round;stroke-miterlimit:10;}
	.st34{fill:#58595B;}
	.st35{fill:#59595A;stroke:#EDEDED;stroke-width:3;stroke-miterlimit:10;}
	.st36{fill:#59595A;stroke:#EDEDED;stroke-miterlimit:10;}
	.st37{fill:#EFEFEF;stroke:#59595A;stroke-width:5;stroke-linecap:round;stroke-miterlimit:10;}
	.st38{fill:#EDEDED;stroke:#59595A;stroke-width:5;stroke-linecap:round;stroke-linejoin:round;stroke-miterlimit:10;}
	.st39{fill-rule:evenodd;clip-rule:evenodd;fill:#59595B;}
	
		.st40{fill-rule:evenodd;clip-rule:evenodd;fill:none;stroke:#59595B;stroke-width:5;stroke-linecap:round;stroke-linejoin:round;stroke-miterlimit:10;}
	.st41{fill:none;stroke:#5A5B5C;stroke-width:4.1457;stroke-linejoin:round;stroke-miterlimit:10;}
	.st42{fill:none;stroke:#5A5B5B;stroke-width:4.539;stroke-miterlimit:10;}
	.st43{fill:none;stroke:#5A5B5B;stroke-width:4.1349;stroke-miterlimit:10;}
	.st44{fill:none;stroke:#5A5B5B;stroke-width:3.9798;stroke-miterlimit:10;}
	.st45{fill:none;stroke:#5A5B5C;stroke-width:4;stroke-linecap:round;stroke-linejoin:round;stroke-miterlimit:10;}
	.st46{fill:none;stroke:#595A5C;stroke-width:5;stroke-linecap:round;stroke-linejoin:round;stroke-miterlimit:10;}
	.st47{fill:#5A5B5C;}
	.st48{fill:none;stroke:#595A5C;stroke-width:5;stroke-linejoin:round;stroke-miterlimit:10;}
	.st49{fill:none;stroke:#5A5B5B;stroke-width:5;stroke-linecap:round;stroke-miterlimit:10;}
	.st50{fill:#5A5B5B;}
	.st51{fill:#5A5B5C;stroke:#5A5B5C;stroke-miterlimit:10;}
	.st52{fill:#595A5C;}
	.st53{fill:#EDECED;stroke:#5A5B5B;stroke-width:5;stroke-miterlimit:10;}
	.st54{fill:#FFFFFF;stroke:#5A5B5B;stroke-width:5;stroke-miterlimit:10;}
	.st55{fill:#FFFFFF;stroke:#5A5B5C;stroke-width:5;stroke-linecap:round;stroke-linejoin:round;stroke-miterlimit:10;}
	.st56{fill:#FFFFFF;stroke:#59595B;stroke-width:5;stroke-linecap:round;stroke-linejoin:round;stroke-miterlimit:10;}
	.st57{fill:#FFFFFF;stroke:#59595A;stroke-width:5;stroke-linecap:round;stroke-linejoin:round;stroke-miterlimit:10;}
	.st58{fill:#FFFFFF;stroke:#59595A;stroke-width:5;stroke-miterlimit:10;}
	.st59{fill:none;stroke:#59595B;stroke-width:3.8573;stroke-linejoin:round;stroke-miterlimit:10;}
	.st60{fill:#EDEDED;stroke:#59595B;stroke-width:5;stroke-miterlimit:10;}
	.st61{fill:none;stroke:#59595B;stroke-width:5;stroke-linecap:round;stroke-miterlimit:10;}
	.st62{fill:#59595B;stroke:#59595A;stroke-width:5;stroke-linecap:round;stroke-linejoin:round;stroke-miterlimit:10;}
	.st63{fill:#FFFFFF;stroke:#59595B;stroke-width:5;stroke-miterlimit:10;}
	.st64{fill:#EAEAEA;stroke:#59595A;stroke-width:5;stroke-linecap:round;stroke-linejoin:round;stroke-miterlimit:10;}
	.st65{fill:#EAEAEA;stroke:#59595A;stroke-width:5;stroke-linecap:round;stroke-miterlimit:10;}
</style>
<g id="Background">
</g>
<g id="_x23_Tower_x5F_Bridge">
</g>
<g id="_x23_Washington_x5F_Mountain">
</g>
<g id="_x23_London_x5F_Eye">
</g>
<g id="_x23_Eiffel_x5F_Tower">
	<g id="New_Symbol">
	</g>
</g>
<g id="_x23_Forbidden_x5F_City">
</g>
<g id="_x23_Sydney_x5F_Opera_x5F_House">
</g>
<g id="_x23_Space_x5F_Needle">
</g>
<g id="_x23_Pyramid">
</g>
<g id="_x23_The_x5F_Pantheon">
</g>
<g id="_x23_Emirates_x5F_Towers">
</g>
<g id="_x23_China_x5F_wall">
	<g id="_x23_Empire_x5F_State_x5F_Building">
	</g>
	<g>
		<g>
			<path class="st7" d="M361.2,47.3c14.5-8.5,24.3-2,25.5,10.2s-13.3,14.7-13.3,14.7H312c0,0-12.6-3.7-11.3-14.7
				c1.6-14.1,15.2-14.1,20-7"/>
			<path class="st7" d="M316.6,46.7c-5.9-7,5.9-23.2,19.4-14.2"/>
			<path class="st7" d="M334.2,38.1c0,0,5.7-17.9,22.5-13.6c14.5,3.7,12.5,18.9,12.5,18.9"/>
		</g>
		<g>
			<path class="st7" d="M171.5,15.6c5.7-6,15.6-1,16,7c0.4,8-8,10.3-8,10.3h-30c0,0-8.3-2.7-6.7-11.3c1.7-8.7,12-7,12.7-5.3"/>
			<path class="st7" d="M178.2,12.9c0,0-1.5-11.4-13.1-10.4c-11.6,1-11.1,12.7-11.1,12.7"/>
		</g>
		<g>
			<path class="st7" d="M44.3,71.8c-8.2-8.6-22.5-1.4-23,10.1c-0.6,11.5,11.5,14.9,11.5,14.9H76c0,0,12-3.8,9.6-16.3
				C83.2,68,68.3,70.4,67.3,72.8"/>
			<path class="st7" d="M34.7,68c0,0,2.2-16.3,18.9-14.9s16,18.3,16,18.3"/>
		</g>
		<polyline class="st57" points="15.7,244.8 15.7,233.1 436.3,233.1 436.3,244.8 		"/>
		<g>
			<g>
				<path class="st33" d="M42.4,261.7c0,0,3.8,4.8,9,4.8s9-4.8,9-4.8"/>
				<path class="st33" d="M60.4,261.7c0,0,3.8,4.8,9,4.8c5.1,0,9-4.8,9-4.8"/>
				<path class="st33" d="M78.3,261.7c0,0,3.8,4.8,9,4.8c5.1,0,9-4.8,9-4.8"/>
				<path class="st33" d="M96.3,261.7c0,0,3.8,4.8,9,4.8c5.1,0,9-4.8,9-4.8"/>
				<path class="st33" d="M114.2,261.7c0,0,3.8,4.8,9,4.8s9-4.8,9-4.8"/>
				<path class="st33" d="M132.2,261.7c0,0,3.8,4.8,9,4.8c5.1,0,9-4.8,9-4.8"/>
				<path class="st33" d="M150.1,261.7c0,0,3.8,4.8,9,4.8c5.1,0,9-4.8,9-4.8"/>
				<path class="st33" d="M168.1,261.7c0,0,3.8,4.8,9,4.8s9-4.8,9-4.8"/>
				<path class="st33" d="M186,261.7c0,0,3.8,4.8,9,4.8c5.1,0,9-4.8,9-4.8"/>
				<path class="st33" d="M204,261.7c0,0,3.8,4.8,9,4.8c5.1,0,9-4.8,9-4.8"/>
				<path class="st33" d="M222.1,261.7c0,0,3.8,4.8,9,4.8c5.1,0,9-4.8,9-4.8"/>
				<path class="st33" d="M240.1,261.7c0,0,3.8,4.8,9,4.8s9-4.8,9-4.8"/>
				<path class="st33" d="M258.1,261.7c0,0,3.8,4.8,9,4.8s9-4.8,9-4.8"/>
				<path class="st33" d="M276,261.7c0,0,3.8,4.8,9,4.8s9-4.8,9-4.8"/>
				<path class="st33" d="M294,261.7c0,0,3.8,4.8,9,4.8s9-4.8,9-4.8"/>
				<path class="st33" d="M311.9,261.7c0,0,3.8,4.8,9,4.8c5.1,0,9-4.8,9-4.8"/>
				<path class="st33" d="M329.9,261.7c0,0,3.8,4.8,9,4.8c5.1,0,9-4.8,9-4.8"/>
				<path class="st33" d="M347.8,261.7c0,0,3.8,4.8,9,4.8c5.1,0,9-4.8,9-4.8"/>
				<path class="st33" d="M365.8,261.7c0,0,3.8,4.8,9,4.8s9-4.8,9-4.8"/>
				<path class="st33" d="M383.7,261.7c0,0,3.8,4.8,9,4.8s9-4.8,9-4.8"/>
			</g>
			<g>
				<path class="st33" d="M2.5,243.8c0,0,3.8,4.8,9,4.8s9-4.8,9-4.8"/>
				<path class="st33" d="M20.5,243.8c0,0,3.8,4.8,9,4.8s9-4.8,9-4.8"/>
				<path class="st33" d="M38.4,243.8c0,0,3.8,4.8,9,4.8s9-4.8,9-4.8"/>
				<path class="st33" d="M56.4,243.8c0,0,3.8,4.8,9,4.8c5.1,0,9-4.8,9-4.8"/>
				<path class="st33" d="M74.3,243.8c0,0,3.8,4.8,9,4.8s9-4.8,9-4.8"/>
				<path class="st33" d="M92.3,243.8c0,0,3.8,4.8,9,4.8c5.1,0,9-4.8,9-4.8"/>
				<path class="st33" d="M110.2,243.8c0,0,3.8,4.8,9,4.8c5.1,0,9-4.8,9-4.8"/>
				<path class="st33" d="M128.2,243.8c0,0,3.8,4.8,9,4.8c5.1,0,9-4.8,9-4.8"/>
				<path class="st33" d="M146.1,243.8c0,0,3.8,4.8,9,4.8s9-4.8,9-4.8"/>
				<path class="st33" d="M164.1,243.8c0,0,3.8,4.8,9,4.8s9-4.8,9-4.8"/>
				<path class="st33" d="M182.2,243.8c0,0,3.8,4.8,9,4.8c5.1,0,9-4.8,9-4.8"/>
				<path class="st33" d="M218.2,243.8c0,0,3.8,4.8,9,4.8c5.1,0,9-4.8,9-4.8"/>
				<path class="st33" d="M236.1,243.8c0,0,3.8,4.8,9,4.8s9-4.8,9-4.8"/>
				<path class="st33" d="M254.1,243.8c0,0,3.8,4.8,9,4.8c5.1,0,9-4.8,9-4.8"/>
				<path class="st33" d="M272,243.8c0,0,3.8,4.8,9,4.8s9-4.8,9-4.8"/>
				<path class="st33" d="M290,243.8c0,0,3.8,4.8,9,4.8s9-4.8,9-4.8"/>
				<path class="st33" d="M307.9,243.8c0,0,3.8,4.8,9,4.8s9-4.8,9-4.8"/>
				<path class="st33" d="M325.9,243.8c0,0,3.8,4.8,9,4.8s9-4.8,9-4.8"/>
				<path class="st33" d="M343.8,243.8c0,0,3.8,4.8,9,4.8s9-4.8,9-4.8"/>
				<path class="st33" d="M361.8,243.8c0,0,3.8,4.8,9,4.8s9-4.8,9-4.8"/>
				<path class="st33" d="M200.2,243.8c0,0,3.8,4.8,9,4.8c5.1,0,9-4.8,9-4.8"/>
				<path class="st33" d="M379.7,243.8c0,0,3.8,4.8,9,4.8s9-4.8,9-4.8"/>
				<path class="st33" d="M397.7,243.8c0,0,3.8,4.8,9,4.8c5.1,0,9-4.8,9-4.8"/>
				<path class="st33" d="M415.7,243.8c0,0,3.8,4.8,9,4.8c5.1,0,9-4.8,9-4.8"/>
				<path class="st33" d="M433.6,243.8c0,0,3.8,4.8,9,4.8c5.1,0,9-4.8,9-4.8"/>
			</g>
		</g>
		<line class="st33" x1="15.7" y1="226.6" x2="436.3" y2="226.6"/>
		<line class="st33" x1="15.7" y1="226.6" x2="15.7" y2="233.1"/>
		<line class="st33" x1="23.8" y1="226.6" x2="23.8" y2="233.1"/>
		<line class="st33" x1="31.9" y1="226.6" x2="31.9" y2="233.1"/>
		<line class="st33" x1="40" y1="226.6" x2="40" y2="233.1"/>
		<line class="st33" x1="48" y1="226.6" x2="48" y2="233.1"/>
		<line class="st33" x1="56.1" y1="226.6" x2="56.1" y2="233.1"/>
		<line class="st33" x1="64.2" y1="226.6" x2="64.2" y2="233.1"/>
		<line class="st33" x1="72.3" y1="226.6" x2="72.3" y2="233.1"/>
		<line class="st33" x1="80.4" y1="226.6" x2="80.4" y2="233.1"/>
		<line class="st33" x1="88.5" y1="226.6" x2="88.5" y2="233.1"/>
		<line class="st33" x1="96.5" y1="226.6" x2="96.5" y2="233.1"/>
		<line class="st33" x1="104.6" y1="226.6" x2="104.6" y2="233.1"/>
		<line class="st33" x1="112.7" y1="226.6" x2="112.7" y2="233.1"/>
		<line class="st33" x1="120.8" y1="226.6" x2="120.8" y2="233.1"/>
		<line class="st33" x1="128.9" y1="226.6" x2="128.9" y2="233.1"/>
		<line class="st33" x1="137" y1="226.6" x2="137" y2="233.1"/>
		<line class="st33" x1="145" y1="226.6" x2="145" y2="233.1"/>
		<line class="st33" x1="153.1" y1="226.6" x2="153.1" y2="233.1"/>
		<line class="st33" x1="161.2" y1="226.6" x2="161.2" y2="233.1"/>
		<line class="st33" x1="169.3" y1="226.6" x2="169.3" y2="233.1"/>
		<line class="st33" x1="177.4" y1="226.6" x2="177.4" y2="233.1"/>
		<line class="st33" x1="185.5" y1="226.6" x2="185.5" y2="233.1"/>
		<line class="st33" x1="193.5" y1="226.6" x2="193.5" y2="233.1"/>
		<line class="st33" x1="201.6" y1="226.6" x2="201.6" y2="233.1"/>
		<line class="st33" x1="209.7" y1="226.6" x2="209.7" y2="233.1"/>
		<line class="st33" x1="217.8" y1="226.6" x2="217.8" y2="233.1"/>
		<line class="st33" x1="225.9" y1="226.6" x2="225.9" y2="233.1"/>
		<line class="st33" x1="234" y1="226.6" x2="234" y2="233.1"/>
		<line class="st33" x1="242" y1="226.6" x2="242" y2="233.1"/>
		<line class="st33" x1="250.1" y1="226.6" x2="250.1" y2="233.1"/>
		<line class="st33" x1="258.2" y1="226.6" x2="258.2" y2="233.1"/>
		<line class="st33" x1="266.3" y1="226.6" x2="266.3" y2="233.1"/>
		<line class="st33" x1="274.4" y1="226.6" x2="274.4" y2="233.1"/>
		<line class="st33" x1="282.5" y1="226.6" x2="282.5" y2="233.1"/>
		<line class="st33" x1="290.5" y1="226.6" x2="290.5" y2="233.1"/>
		<line class="st33" x1="298.6" y1="226.6" x2="298.6" y2="233.1"/>
		<line class="st33" x1="306.7" y1="226.6" x2="306.7" y2="233.1"/>
		<line class="st33" x1="314.8" y1="226.6" x2="314.8" y2="233.1"/>
		<line class="st33" x1="322.9" y1="226.6" x2="322.9" y2="233.1"/>
		<line class="st33" x1="331" y1="226.6" x2="331" y2="233.1"/>
		<line class="st33" x1="339" y1="226.6" x2="339" y2="233.1"/>
		<line class="st33" x1="347.1" y1="226.6" x2="347.1" y2="233.1"/>
		<line class="st33" x1="355.2" y1="226.6" x2="355.2" y2="233.1"/>
		<line class="st33" x1="363.3" y1="226.6" x2="363.3" y2="233.1"/>
		<line class="st33" x1="371.4" y1="226.6" x2="371.4" y2="233.1"/>
		<line class="st33" x1="379.5" y1="226.6" x2="379.5" y2="233.1"/>
		<line class="st33" x1="387.5" y1="226.6" x2="387.5" y2="233.1"/>
		<line class="st33" x1="395.6" y1="226.6" x2="395.6" y2="233.1"/>
		<line class="st33" x1="403.7" y1="226.6" x2="403.7" y2="233.1"/>
		<line class="st33" x1="411.8" y1="226.6" x2="411.8" y2="233.1"/>
		<line class="st33" x1="419.9" y1="226.6" x2="419.9" y2="233.1"/>
		<line class="st33" x1="428" y1="226.6" x2="428" y2="233.1"/>
		<line class="st33" x1="436.3" y1="226.6" x2="436.3" y2="233.1"/>
		<path class="st62" d="M351.4,133.7l-66,32.3c0,0-4.3,33.3,11.9,30.2C302.8,199.5,351.4,133.7,351.4,133.7z"/>
		<polygon class="st57" points="363,176.6 389,176.6 397.4,188.6 363,188.6 		"/>
		<path class="st62" d="M390.8,162.3l-26,19.5c0,0,0.9,14.8,7.7,12.1C375.1,194.8,390.8,162.3,390.8,162.3z"/>
		<path class="st57" d="M369.4,206.1c0,0,1.2-25.2,21.3-43.9c0,0-35.7-5.7-50.4,14.4L369.4,206.1z"/>
		<line class="st33" x1="340.4" y1="176.6" x2="337.3" y2="200.7"/>
		<path class="st33" d="M132.2,186.2c0,0,5.3-36.7-19.3-69.3c0,0,55.1,2.6,71.4,35.6"/>
		<path class="st57" d="M86.9,186.2c0,0,4.5-29.3-16.4-55.3c0,0,46.7,2.1,60.5,28.4"/>
		<path class="st57" d="M179.3,190.2c0,0,7.9-56.4-28.7-106.6c0,0,81.6,2.6,105.8,53.3L179.3,190.2z"/>
		<path class="st57" d="M290.6,202.9c0,0,16.2-44.9,60.8-69.1c0,0-57.6-27.3-93.9,1.9L290.6,202.9z"/>
		<line class="st33" x1="256.4" y1="136.9" x2="252.9" y2="191.8"/>
		<polyline class="st57" points="91.7,215.7 91.7,176.8 47.4,176.8 47.4,196.3 		"/>
		<polygon class="st57" points="186.6,226.7 91.7,226.7 91.7,176.8 104.8,172.2 133.8,172.2 167.4,186.2 186.6,186.2 		"/>
		<polygon class="st57" points="71.7,205 32.2,193.2 32.2,226.7 111.2,226.7 		"/>
		<polygon class="st57" points="297.3,226.7 186.6,226.7 186.6,186.2 207.1,191.8 297.3,191.8 		"/>
		<path class="st57" d="M306.5,199.5c0,0,2-21.1-16.1-38.4c0,0,37.2-2,49.6,15.9L306.5,199.5z"/>
		<polygon class="st57" points="418.7,226.7 297.3,226.7 297.3,191.8 319.8,196.5 388.2,196.5 418.7,208.7 		"/>
		<line class="st18" x1="125.4" y1="205.9" x2="159" y2="205.9"/>
		<line class="st18" x1="195" y1="205.9" x2="226.5" y2="205.9"/>
		<line class="st18" x1="256.9" y1="205.9" x2="288.4" y2="205.9"/>
		<line class="st18" x1="309" y1="205.9" x2="386.3" y2="205.9"/>
		<line class="st18" x1="386.3" y1="205.9" x2="403.3" y2="212"/>
		<line class="st18" x1="207.1" y1="191.8" x2="207.1" y2="226.7"/>
		<line class="st18" x1="319.8" y1="196.5" x2="319.8" y2="226.7"/>
		<line class="st33" x1="206.4" y1="172.2" x2="252.9" y2="191.8"/>
		<line class="st33" x1="252.9" y1="191.8" x2="279.3" y2="179.9"/>
		<polyline class="st33" points="82.4,159.5 61.9,159.5 54.4,168.1 85.3,168.1 		"/>
		<polyline class="st33" points="86.2,176.7 61.9,176.7 54.4,168.1 85.3,168.1 		"/>
		<line class="st33" x1="392.4" y1="188.6" x2="388.2" y2="196.5"/>
	</g>
</g>
</svg>
