<?xml version="1.0" encoding="utf-8"?>
<!-- Generator: Adobe Illustrator 19.1.0, SVG Export Plug-In . SVG Version: 6.00 Build 0)  -->
<svg version="1.1" xmlns="http://www.w3.org/2000/svg" xmlns:xlink="http://www.w3.org/1999/xlink" x="0px" y="0px"
	 viewBox="0 0 474.2 452.8" style="enable-background:new 0 0 474.2 452.8;" xml:space="preserve">
<style type="text/css">
	.st0{fill:#EDEDED;}
	.st1{fill:#59595A;}
	.st2{fill:none;stroke:#59595B;stroke-width:5;stroke-linejoin:round;stroke-miterlimit:10;}
	.st3{fill:none;stroke:#59595B;stroke-width:4.1457;stroke-linejoin:round;stroke-miterlimit:10;}
	.st4{fill:#F6F5F5;}
	.st5{fill:#59595B;}
	.st6{fill:none;stroke:#59595B;stroke-width:4.0874;stroke-linecap:round;stroke-linejoin:round;stroke-miterlimit:10;}
	.st7{fill:none;stroke:#59595B;stroke-width:5;stroke-linecap:round;stroke-linejoin:round;stroke-miterlimit:10;}
	.st8{fill:#EFEFEF;stroke:#59595B;stroke-width:5;stroke-linecap:round;stroke-linejoin:round;stroke-miterlimit:10;}
	.st9{fill:#EDECED;}
	.st10{fill:none;stroke:#5A5B5B;stroke-width:5;stroke-miterlimit:10;}
	.st11{fill:none;stroke:#5A5B5C;stroke-width:5;stroke-linecap:round;stroke-linejoin:round;stroke-miterlimit:10;}
	.st12{fill:#EDECED;stroke:#5A5B5C;stroke-width:5;stroke-linecap:round;stroke-linejoin:round;stroke-miterlimit:10;}
	.st13{fill:#5A5B5C;stroke:#5A5B5C;stroke-width:5;stroke-linecap:round;stroke-linejoin:round;stroke-miterlimit:10;}
	.st14{fill:none;stroke:#5A5B5B;stroke-width:5;stroke-linecap:round;stroke-linejoin:round;stroke-miterlimit:10;}
	.st15{fill:#F0EFEF;stroke:#5A5B5B;stroke-width:5;stroke-linecap:round;stroke-linejoin:round;stroke-miterlimit:10;}
	.st16{fill:#E8E8E8;stroke:#5A5B5C;stroke-width:5;stroke-linecap:round;stroke-linejoin:round;stroke-miterlimit:10;}
	.st17{fill:#FFFFFF;stroke:#5A5B5B;stroke-width:5;stroke-linecap:round;stroke-linejoin:round;stroke-miterlimit:10;}
	.st18{fill:#EFEFEF;stroke:#59595A;stroke-width:5;stroke-linecap:round;stroke-linejoin:round;stroke-miterlimit:10;}
	.st19{fill:none;stroke:#59595A;stroke-width:5;stroke-miterlimit:10;}
	.st20{fill:none;stroke:#59595A;stroke-width:5;stroke-linecap:round;stroke-miterlimit:10;}
	.st21{fill:none;stroke:#59595A;stroke-width:5;stroke-linejoin:round;stroke-miterlimit:10;}
	.st22{fill:none;stroke:#59595A;stroke-width:4.539;stroke-miterlimit:10;}
	.st23{fill:none;stroke:#59595A;stroke-width:4.1349;stroke-miterlimit:10;}
	.st24{fill:none;stroke:#59595A;stroke-width:3.9798;stroke-miterlimit:10;}
	.st25{fill:none;stroke:#58595B;stroke-width:5;stroke-miterlimit:10;}
	.st26{fill:none;stroke:#58595B;stroke-width:5;stroke-linejoin:round;stroke-miterlimit:10;}
	.st27{fill:none;stroke:#58595B;stroke-width:5;stroke-linecap:round;stroke-linejoin:round;stroke-miterlimit:10;}
	.st28{fill:none;stroke:#59595B;stroke-width:4.2054;stroke-linecap:round;stroke-linejoin:round;stroke-miterlimit:10;}
	.st29{fill:none;stroke:#59595B;stroke-width:5;stroke-miterlimit:10;}
	.st30{fill:#EDECEC;stroke:#59595B;stroke-width:5;stroke-linecap:round;stroke-linejoin:round;stroke-miterlimit:10;}
	.st31{fill:#EDEDED;stroke:#59595A;stroke-width:5;stroke-miterlimit:10;}
	.st32{fill:#EDEDED;stroke:#59595B;stroke-width:5;stroke-linecap:round;stroke-linejoin:round;stroke-miterlimit:10;}
	.st33{fill:none;stroke:#59595A;stroke-width:5;stroke-linecap:round;stroke-linejoin:round;stroke-miterlimit:10;}
	.st34{fill:#58595B;}
	.st35{fill:#59595A;stroke:#EDEDED;stroke-width:3;stroke-miterlimit:10;}
	.st36{fill:#59595A;stroke:#EDEDED;stroke-miterlimit:10;}
	.st37{fill:#EFEFEF;stroke:#59595A;stroke-width:5;stroke-linecap:round;stroke-miterlimit:10;}
	.st38{fill:#EDEDED;stroke:#59595A;stroke-width:5;stroke-linecap:round;stroke-linejoin:round;stroke-miterlimit:10;}
	.st39{fill-rule:evenodd;clip-rule:evenodd;fill:#59595B;}
	
		.st40{fill-rule:evenodd;clip-rule:evenodd;fill:none;stroke:#59595B;stroke-width:5;stroke-linecap:round;stroke-linejoin:round;stroke-miterlimit:10;}
	.st41{fill:none;stroke:#5A5B5C;stroke-width:4.1457;stroke-linejoin:round;stroke-miterlimit:10;}
	.st42{fill:none;stroke:#5A5B5B;stroke-width:4.539;stroke-miterlimit:10;}
	.st43{fill:none;stroke:#5A5B5B;stroke-width:4.1349;stroke-miterlimit:10;}
	.st44{fill:none;stroke:#5A5B5B;stroke-width:3.9798;stroke-miterlimit:10;}
	.st45{fill:none;stroke:#5A5B5C;stroke-width:4;stroke-linecap:round;stroke-linejoin:round;stroke-miterlimit:10;}
	.st46{fill:none;stroke:#595A5C;stroke-width:5;stroke-linecap:round;stroke-linejoin:round;stroke-miterlimit:10;}
	.st47{fill:#5A5B5C;}
	.st48{fill:none;stroke:#595A5C;stroke-width:5;stroke-linejoin:round;stroke-miterlimit:10;}
	.st49{fill:none;stroke:#5A5B5B;stroke-width:5;stroke-linecap:round;stroke-miterlimit:10;}
	.st50{fill:#5A5B5B;}
	.st51{fill:#5A5B5C;stroke:#5A5B5C;stroke-miterlimit:10;}
	.st52{fill:#595A5C;}
	.st53{fill:#EDECED;stroke:#5A5B5B;stroke-width:5;stroke-miterlimit:10;}
	.st54{fill:#FFFFFF;stroke:#5A5B5B;stroke-width:5;stroke-miterlimit:10;}
	.st55{fill:#FFFFFF;stroke:#5A5B5C;stroke-width:5;stroke-linecap:round;stroke-linejoin:round;stroke-miterlimit:10;}
	.st56{fill:#FFFFFF;stroke:#59595B;stroke-width:5;stroke-linecap:round;stroke-linejoin:round;stroke-miterlimit:10;}
	.st57{fill:#FFFFFF;stroke:#59595A;stroke-width:5;stroke-linecap:round;stroke-linejoin:round;stroke-miterlimit:10;}
	.st58{fill:#FFFFFF;stroke:#59595A;stroke-width:5;stroke-miterlimit:10;}
	.st59{fill:none;stroke:#59595B;stroke-width:3.8573;stroke-linejoin:round;stroke-miterlimit:10;}
	.st60{fill:#EDEDED;stroke:#59595B;stroke-width:5;stroke-miterlimit:10;}
	.st61{fill:none;stroke:#59595B;stroke-width:5;stroke-linecap:round;stroke-miterlimit:10;}
	.st62{fill:#59595B;stroke:#59595A;stroke-width:5;stroke-linecap:round;stroke-linejoin:round;stroke-miterlimit:10;}
	.st63{fill:#FFFFFF;stroke:#59595B;stroke-width:5;stroke-miterlimit:10;}
	.st64{fill:#EAEAEA;stroke:#59595A;stroke-width:5;stroke-linecap:round;stroke-linejoin:round;stroke-miterlimit:10;}
	.st65{fill:#EAEAEA;stroke:#59595A;stroke-width:5;stroke-linecap:round;stroke-miterlimit:10;}
</style>
<g id="Background">
</g>
<g id="_x23_Tower_x5F_Bridge">
</g>
<g id="_x23_Washington_x5F_Mountain">
</g>
<g id="_x23_London_x5F_Eye">
</g>
<g id="_x23_Eiffel_x5F_Tower">
	<g id="New_Symbol">
	</g>
</g>
<g id="_x23_Forbidden_x5F_City">
</g>
<g id="_x23_Sydney_x5F_Opera_x5F_House">
</g>
<g id="_x23_Space_x5F_Needle">
</g>
<g id="_x23_Pyramid">
</g>
<g id="_x23_The_x5F_Pantheon">
</g>
<g id="_x23_Emirates_x5F_Towers">
</g>
<g id="_x23_China_x5F_wall">
	<g id="_x23_Empire_x5F_State_x5F_Building">
	</g>
	<g>
		<g>
			<line class="st19" x1="474.2" y1="440.4" x2="0" y2="440.4"/>
			<line class="st19" x1="427.3" y1="450.3" x2="33.7" y2="450.3"/>
		</g>
		<g>
			<path class="st7" d="M127.6,109.8c14.5-8.5,24.3-2,25.5,10.2c1.2,12.2-13.3,14.7-13.3,14.7H78.5c0,0-12.6-3.7-11.3-14.7
				c1.6-14.1,15.2-14.1,20-7"/>
			<path class="st7" d="M83,109.2c-5.9-7,5.9-23.2,19.4-14.2"/>
			<path class="st7" d="M100.6,100.6c0,0,5.7-17.9,22.5-13.6c14.5,3.7,12.5,18.9,12.5,18.9"/>
		</g>
		<g>
			<path class="st7" d="M241.7,44.6c5.7-6,15.6-1,16,7c0.4,8-8,10.3-8,10.3h-30c0,0-8.3-2.7-6.7-11.3c1.7-8.7,12-7,12.7-5.3"/>
			<path class="st7" d="M248.4,41.9c0,0-1.5-11.4-13.1-10.4c-11.6,1-11.1,12.7-11.1,12.7"/>
		</g>
		<g>
			<path class="st7" d="M420.1,93.9c-8.2-8.6-22.5-1.4-23,10.1s11.5,14.9,11.5,14.9h43.2c0,0,12-3.8,9.6-16.3
				c-2.4-12.5-17.3-10.1-18.2-7.7"/>
			<path class="st7" d="M410.5,90.1c0,0,2.2-16.3,18.9-14.9s16,18.3,16,18.3"/>
		</g>
		<g>
			<polygon class="st7" points="189.4,440.4 135.4,440.4 135.4,249.5 189.4,298.5 			"/>
			<polygon class="st7" points="243.3,440.4 189.4,440.4 189.4,298.5 243.3,249.5 			"/>
			<polygon class="st7" points="195.8,210.7 195.8,245.2 182.4,245.2 182.4,211.1 135.4,249.5 189.4,298.5 243.3,249.5 			"/>
			<line class="st7" x1="188.4" y1="434.5" x2="242.3" y2="434.5"/>
			<line class="st7" x1="188.4" y1="428" x2="242.3" y2="428"/>
			<line class="st7" x1="188.4" y1="421.5" x2="242.3" y2="421.5"/>
			<line class="st7" x1="188.4" y1="415" x2="242.3" y2="415"/>
			<line class="st7" x1="188.4" y1="408.5" x2="242.3" y2="408.5"/>
			<line class="st7" x1="188.4" y1="402" x2="242.3" y2="402"/>
			<line class="st7" x1="188.4" y1="395.5" x2="242.3" y2="395.5"/>
			<line class="st7" x1="188.4" y1="389" x2="242.3" y2="389"/>
			<line class="st7" x1="188.4" y1="382.5" x2="242.3" y2="382.5"/>
			<line class="st7" x1="188.4" y1="376" x2="242.3" y2="376"/>
			<line class="st7" x1="188.4" y1="369.5" x2="242.3" y2="369.5"/>
			<line class="st7" x1="188.4" y1="363" x2="242.3" y2="363"/>
			<line class="st7" x1="188.4" y1="356.5" x2="242.3" y2="356.5"/>
			<line class="st7" x1="188.4" y1="350" x2="242.3" y2="350"/>
			<line class="st7" x1="188.4" y1="343.5" x2="242.3" y2="343.5"/>
			<line class="st7" x1="188.4" y1="337" x2="242.3" y2="337"/>
			<line class="st7" x1="188.4" y1="330.5" x2="242.3" y2="330.5"/>
			<line class="st7" x1="188.4" y1="324" x2="242.3" y2="324"/>
			<line class="st7" x1="188.4" y1="317.5" x2="242.3" y2="317.5"/>
			<line class="st7" x1="188.4" y1="311" x2="242.3" y2="311"/>
			<line class="st7" x1="188.4" y1="304.5" x2="242.3" y2="304.5"/>
			<line class="st7" x1="191.1" y1="298" x2="242.3" y2="298"/>
			<line class="st7" x1="198.3" y1="291.5" x2="242.3" y2="291.5"/>
			<line class="st7" x1="205.4" y1="285" x2="242.3" y2="285"/>
			<line class="st7" x1="214.3" y1="278.5" x2="242.3" y2="278.5"/>
			<line class="st7" x1="219.8" y1="272" x2="242.3" y2="272"/>
			<line class="st7" x1="228.2" y1="265.5" x2="242.3" y2="265.5"/>
			<line class="st7" x1="234.1" y1="259" x2="242.3" y2="259"/>
			<line class="st7" x1="190.4" y1="434.5" x2="136.4" y2="434.5"/>
			<line class="st7" x1="190.4" y1="428" x2="136.4" y2="428"/>
			<line class="st7" x1="190.4" y1="421.5" x2="136.4" y2="421.5"/>
			<line class="st7" x1="190.4" y1="415" x2="136.4" y2="415"/>
			<line class="st7" x1="190.4" y1="408.5" x2="136.4" y2="408.5"/>
			<line class="st7" x1="190.4" y1="402" x2="136.4" y2="402"/>
			<line class="st7" x1="190.4" y1="395.5" x2="136.4" y2="395.5"/>
			<line class="st7" x1="190.4" y1="389" x2="136.4" y2="389"/>
			<line class="st7" x1="190.4" y1="382.5" x2="136.4" y2="382.5"/>
			<line class="st7" x1="190.4" y1="376" x2="136.4" y2="376"/>
			<line class="st7" x1="190.4" y1="369.5" x2="136.4" y2="369.5"/>
			<line class="st7" x1="190.4" y1="363" x2="136.4" y2="363"/>
			<line class="st7" x1="190.4" y1="356.5" x2="136.4" y2="356.5"/>
			<line class="st7" x1="190.4" y1="350" x2="136.4" y2="350"/>
			<line class="st7" x1="190.4" y1="343.5" x2="136.4" y2="343.5"/>
			<line class="st7" x1="190.4" y1="337" x2="136.4" y2="337"/>
			<line class="st7" x1="190.4" y1="330.5" x2="136.4" y2="330.5"/>
			<line class="st7" x1="190.4" y1="324" x2="136.4" y2="324"/>
			<line class="st7" x1="190.4" y1="317.5" x2="136.4" y2="317.5"/>
			<line class="st7" x1="190.4" y1="311" x2="136.4" y2="311"/>
			<line class="st7" x1="190.4" y1="304.5" x2="136.4" y2="304.5"/>
			<line class="st7" x1="187.6" y1="298" x2="136.4" y2="298"/>
			<line class="st7" x1="180.4" y1="291.5" x2="136.4" y2="291.5"/>
			<line class="st7" x1="173.3" y1="285" x2="136.4" y2="285"/>
			<line class="st7" x1="164.4" y1="278.5" x2="136.4" y2="278.5"/>
			<line class="st7" x1="159" y1="272" x2="136.4" y2="272"/>
			<line class="st7" x1="150.5" y1="265.5" x2="136.4" y2="265.5"/>
			<line class="st7" x1="144.6" y1="259" x2="136.4" y2="259"/>
		</g>
		<path class="st63" d="M114.1,380.6c0,0-31.4-2-46.4,23.6c-10.2,17.4,1.3,33,12.8,33c16.8,0,20.6-11.8,34.9-12.5
			c15.7-0.8,18.5,13.8,36.3,12.1c13.9-1.3,17.2-19.4,13.2-29.6C160.5,395.6,147.3,380.6,114.1,380.6z"/>
		<path class="st61" d="M71.7,412.9c6.4-11,13.5-17.7,25.9-21.3"/>
		<path class="st61" d="M105.2,388.9c2-0.6,2.6-0.7,4.9-0.8"/>
		<polygon class="st61" points="388.2,439.8 261.8,439.8 282.9,63.4 368,63.4 		"/>
		<line class="st61" x1="368" y1="71.6" x2="278.4" y2="150.2"/>
		<line class="st61" x1="372" y1="150.2" x2="273.5" y2="236.6"/>
		<line class="st61" x1="376.2" y1="240.6" x2="268.4" y2="332.8"/>
		<line class="st61" x1="380.4" y1="335.4" x2="263.3" y2="438.2"/>
		<line class="st61" x1="283.5" y1="71.3" x2="372.2" y2="151.3"/>
		<line class="st61" x1="279.5" y1="149.9" x2="377.1" y2="237.7"/>
		<line class="st61" x1="275.2" y1="238.8" x2="382.2" y2="334.9"/>
		<line class="st61" x1="271" y1="335.1" x2="388.2" y2="440.2"/>
		<line class="st61" x1="310.5" y1="25.3" x2="310.5" y2="63.4"/>
		<line class="st61" x1="339" y1="2.5" x2="339" y2="63.4"/>
	</g>
</g>
</svg>
