<?xml version="1.0" encoding="utf-8"?>
<!-- Generator: Adobe Illustrator 19.1.0, SVG Export Plug-In . SVG Version: 6.00 Build 0)  -->
<svg version="1.1" xmlns="http://www.w3.org/2000/svg" xmlns:xlink="http://www.w3.org/1999/xlink" x="0px" y="0px"
	 viewBox="0 0 479.2 288.4" style="enable-background:new 0 0 479.2 288.4;" xml:space="preserve">
<style type="text/css">
	.st0{fill:#EDEDED;}
	.st1{fill:#59595A;}
	.st2{fill:none;stroke:#59595B;stroke-width:5;stroke-linejoin:round;stroke-miterlimit:10;}
	.st3{fill:none;stroke:#59595B;stroke-width:4.1457;stroke-linejoin:round;stroke-miterlimit:10;}
	.st4{fill:#F6F5F5;}
	.st5{fill:#59595B;}
	.st6{fill:none;stroke:#59595B;stroke-width:4.0874;stroke-linecap:round;stroke-linejoin:round;stroke-miterlimit:10;}
	.st7{fill:none;stroke:#59595B;stroke-width:5;stroke-linecap:round;stroke-linejoin:round;stroke-miterlimit:10;}
	.st8{fill:#EFEFEF;stroke:#59595B;stroke-width:5;stroke-linecap:round;stroke-linejoin:round;stroke-miterlimit:10;}
	.st9{fill:#EDECED;}
	.st10{fill:none;stroke:#5A5B5B;stroke-width:5;stroke-miterlimit:10;}
	.st11{fill:none;stroke:#5A5B5C;stroke-width:5;stroke-linecap:round;stroke-linejoin:round;stroke-miterlimit:10;}
	.st12{fill:#EDECED;stroke:#5A5B5C;stroke-width:5;stroke-linecap:round;stroke-linejoin:round;stroke-miterlimit:10;}
	.st13{fill:#5A5B5C;stroke:#5A5B5C;stroke-width:5;stroke-linecap:round;stroke-linejoin:round;stroke-miterlimit:10;}
	.st14{fill:none;stroke:#5A5B5B;stroke-width:5;stroke-linecap:round;stroke-linejoin:round;stroke-miterlimit:10;}
	.st15{fill:#F0EFEF;stroke:#5A5B5B;stroke-width:5;stroke-linecap:round;stroke-linejoin:round;stroke-miterlimit:10;}
	.st16{fill:#E8E8E8;stroke:#5A5B5C;stroke-width:5;stroke-linecap:round;stroke-linejoin:round;stroke-miterlimit:10;}
	.st17{fill:#FFFFFF;stroke:#5A5B5B;stroke-width:5;stroke-linecap:round;stroke-linejoin:round;stroke-miterlimit:10;}
	.st18{fill:#EFEFEF;stroke:#59595A;stroke-width:5;stroke-linecap:round;stroke-linejoin:round;stroke-miterlimit:10;}
	.st19{fill:none;stroke:#59595A;stroke-width:5;stroke-miterlimit:10;}
	.st20{fill:none;stroke:#59595A;stroke-width:5;stroke-linecap:round;stroke-miterlimit:10;}
	.st21{fill:none;stroke:#59595A;stroke-width:5;stroke-linejoin:round;stroke-miterlimit:10;}
	.st22{fill:none;stroke:#59595A;stroke-width:4.539;stroke-miterlimit:10;}
	.st23{fill:none;stroke:#59595A;stroke-width:4.1349;stroke-miterlimit:10;}
	.st24{fill:none;stroke:#59595A;stroke-width:3.9798;stroke-miterlimit:10;}
	.st25{fill:none;stroke:#58595B;stroke-width:5;stroke-miterlimit:10;}
	.st26{fill:none;stroke:#58595B;stroke-width:5;stroke-linejoin:round;stroke-miterlimit:10;}
	.st27{fill:none;stroke:#58595B;stroke-width:5;stroke-linecap:round;stroke-linejoin:round;stroke-miterlimit:10;}
	.st28{fill:none;stroke:#59595B;stroke-width:4.2054;stroke-linecap:round;stroke-linejoin:round;stroke-miterlimit:10;}
	.st29{fill:none;stroke:#59595B;stroke-width:5;stroke-miterlimit:10;}
	.st30{fill:#EDECEC;stroke:#59595B;stroke-width:5;stroke-linecap:round;stroke-linejoin:round;stroke-miterlimit:10;}
	.st31{fill:#EDEDED;stroke:#59595A;stroke-width:5;stroke-miterlimit:10;}
	.st32{fill:#EDEDED;stroke:#59595B;stroke-width:5;stroke-linecap:round;stroke-linejoin:round;stroke-miterlimit:10;}
	.st33{fill:none;stroke:#59595A;stroke-width:5;stroke-linecap:round;stroke-linejoin:round;stroke-miterlimit:10;}
	.st34{fill:#58595B;}
	.st35{fill:#59595A;stroke:#EDEDED;stroke-width:3;stroke-miterlimit:10;}
	.st36{fill:#59595A;stroke:#EDEDED;stroke-miterlimit:10;}
	.st37{fill:#EFEFEF;stroke:#59595A;stroke-width:5;stroke-linecap:round;stroke-miterlimit:10;}
	.st38{fill:#EDEDED;stroke:#59595A;stroke-width:5;stroke-linecap:round;stroke-linejoin:round;stroke-miterlimit:10;}
	.st39{fill-rule:evenodd;clip-rule:evenodd;fill:#59595B;}
	
		.st40{fill-rule:evenodd;clip-rule:evenodd;fill:none;stroke:#59595B;stroke-width:5;stroke-linecap:round;stroke-linejoin:round;stroke-miterlimit:10;}
	.st41{fill:none;stroke:#5A5B5C;stroke-width:4.1457;stroke-linejoin:round;stroke-miterlimit:10;}
	.st42{fill:none;stroke:#5A5B5B;stroke-width:4.539;stroke-miterlimit:10;}
	.st43{fill:none;stroke:#5A5B5B;stroke-width:4.1349;stroke-miterlimit:10;}
	.st44{fill:none;stroke:#5A5B5B;stroke-width:3.9798;stroke-miterlimit:10;}
	.st45{fill:none;stroke:#5A5B5C;stroke-width:4;stroke-linecap:round;stroke-linejoin:round;stroke-miterlimit:10;}
	.st46{fill:none;stroke:#595A5C;stroke-width:5;stroke-linecap:round;stroke-linejoin:round;stroke-miterlimit:10;}
	.st47{fill:#5A5B5C;}
	.st48{fill:none;stroke:#595A5C;stroke-width:5;stroke-linejoin:round;stroke-miterlimit:10;}
	.st49{fill:none;stroke:#5A5B5B;stroke-width:5;stroke-linecap:round;stroke-miterlimit:10;}
	.st50{fill:#5A5B5B;}
	.st51{fill:#5A5B5C;stroke:#5A5B5C;stroke-miterlimit:10;}
	.st52{fill:#595A5C;}
	.st53{fill:#EDECED;stroke:#5A5B5B;stroke-width:5;stroke-miterlimit:10;}
	.st54{fill:#FFFFFF;stroke:#5A5B5B;stroke-width:5;stroke-miterlimit:10;}
	.st55{fill:#FFFFFF;stroke:#5A5B5C;stroke-width:5;stroke-linecap:round;stroke-linejoin:round;stroke-miterlimit:10;}
	.st56{fill:#FFFFFF;stroke:#59595B;stroke-width:5;stroke-linecap:round;stroke-linejoin:round;stroke-miterlimit:10;}
	.st57{fill:#FFFFFF;stroke:#59595A;stroke-width:5;stroke-linecap:round;stroke-linejoin:round;stroke-miterlimit:10;}
	.st58{fill:#FFFFFF;stroke:#59595A;stroke-width:5;stroke-miterlimit:10;}
	.st59{fill:none;stroke:#59595B;stroke-width:3.8573;stroke-linejoin:round;stroke-miterlimit:10;}
	.st60{fill:#EDEDED;stroke:#59595B;stroke-width:5;stroke-miterlimit:10;}
	.st61{fill:none;stroke:#59595B;stroke-width:5;stroke-linecap:round;stroke-miterlimit:10;}
	.st62{fill:#59595B;stroke:#59595A;stroke-width:5;stroke-linecap:round;stroke-linejoin:round;stroke-miterlimit:10;}
	.st63{fill:#FFFFFF;stroke:#59595B;stroke-width:5;stroke-miterlimit:10;}
	.st64{fill:#EAEAEA;stroke:#59595A;stroke-width:5;stroke-linecap:round;stroke-linejoin:round;stroke-miterlimit:10;}
	.st65{fill:#EAEAEA;stroke:#59595A;stroke-width:5;stroke-linecap:round;stroke-miterlimit:10;}
</style>
<g id="Background">
</g>
<g id="_x23_Tower_x5F_Bridge">
</g>
<g id="_x23_Washington_x5F_Mountain">
</g>
<g id="_x23_London_x5F_Eye">
</g>
<g id="_x23_Eiffel_x5F_Tower">
	<g id="New_Symbol">
	</g>
	<g>
		<g>
			<path class="st7" d="M336.5,131.3c0-1.2-1.5-2.1-3.3-2.1s-3.3,1-3.3,2.1"/>
			<polyline class="st7" points="336.5,131.7 336.5,146.9 329.9,146.9 329.9,131.7 			"/>
			<path class="st7" d="M350.3,131.3c0-1.2-1.5-2.1-3.3-2.1s-3.3,1-3.3,2.1"/>
			<polyline class="st7" points="350.3,131.7 350.3,146.9 343.6,146.9 343.6,131.7 			"/>
			<path class="st7" d="M364,131.3c0-1.2-1.5-2.1-3.3-2.1c-1.8,0-3.3,1-3.3,2.1"/>
			<polyline class="st7" points="364,131.7 364,146.9 357.4,146.9 357.4,131.7 			"/>
			<path class="st7" d="M378.6,131.3c0-1.2-1.5-2.1-3.3-2.1c-1.8,0-3.3,1-3.3,2.1"/>
			<polyline class="st7" points="378.6,131.7 378.6,146.9 372,146.9 372,131.7 			"/>
			<polyline class="st7" points="271.7,224.2 271.7,175.4 437.6,175.4 437.6,223.4 			"/>
			<rect x="326.9" y="175.4" class="st7" width="6.6" height="48.1"/>
			<rect x="342.6" y="175.4" class="st7" width="6.6" height="48.1"/>
			<rect x="359" y="175.4" class="st7" width="6.6" height="48.1"/>
			<rect x="280.2" y="175.4" class="st7" width="6.6" height="48.1"/>
			<rect x="295.8" y="175.4" class="st7" width="6.6" height="48.1"/>
			<rect x="312.3" y="175.4" class="st7" width="6.6" height="48.1"/>
			<rect x="390.4" y="175.4" class="st7" width="6.6" height="48.1"/>
			<rect x="406.1" y="175.4" class="st7" width="6.6" height="48.1"/>
			<rect x="422.5" y="175.4" class="st7" width="6.6" height="48.1"/>
			<rect x="375.4" y="175.4" class="st7" width="6.6" height="48.1"/>
			<rect x="316.7" y="168.8" class="st7" width="75.8" height="6.5"/>
			<g>
				<path class="st7" d="M388,150.5L388,150.5c0-1.7-1.5-3.2-3.3-3.2H323c-1.8,0-3.3,1.4-3.3,3.2v0"/>
				<line class="st8" x1="388" y1="151.1" x2="388" y2="168"/>
				<line class="st8" x1="319.6" y1="168.4" x2="319.6" y2="151.5"/>
			</g>
			<rect x="329.8" y="121.6" class="st7" width="49.3" height="25.3"/>
			<path class="st7" d="M375.4,109.9c0-11.6-9.4-21-21-21c-11.6,0-21,9.4-21,21c0,0.6,0,1.1,0.1,1.7v10h41.9V109.9z"/>
			<path class="st7" d="M357.9,82c0-1.9-1.6-3.5-3.5-3.5c-1.9,0-3.5,1.6-3.5,3.5c0,0.1,0,0.2,0,0.3v1.7h6.9V82z"/>
			<line class="st7" x1="340.9" y1="121.3" x2="340.9" y2="105.3"/>
			<line class="st7" x1="347.9" y1="121.3" x2="347.9" y2="109.6"/>
			<line class="st7" x1="354.5" y1="121.3" x2="354.5" y2="107.6"/>
			<line class="st7" x1="361.2" y1="121.3" x2="361.2" y2="109.6"/>
			<line class="st7" x1="367.9" y1="121.3" x2="367.9" y2="105.3"/>
			<rect x="349.4" y="83.9" class="st7" width="10.2" height="5"/>
			<rect x="401.9" y="156.1" class="st7" width="35.8" height="18.4"/>
			<path class="st7" d="M435.1,148.7c0-8.4-6.8-15.2-15.2-15.2c-8.4,0-15.2,6.8-15.2,15.2c0,0.4,0,0.8,0.1,1.2v7.3h30.4V148.7z"/>
			<path class="st7" d="M422.4,128.4c0-1.4-1.1-2.6-2.5-2.6c-1.4,0-2.5,1.1-2.5,2.6c0,0.1,0,0.1,0,0.2v1.2h5V128.4z"/>
			<rect x="416.2" y="129.8" class="st7" width="7.4" height="3.7"/>
			<line class="st7" x1="420" y1="115.4" x2="420" y2="125.8"/>
			<line class="st7" x1="354.5" y1="64.4" x2="354.5" y2="78.5"/>
			<rect x="271.7" y="157.1" class="st7" width="35.8" height="18.4"/>
			<path class="st7" d="M304.8,148.7c0-8.4-6.8-15.2-15.2-15.2c-8.4,0-15.2,6.8-15.2,15.2c0,0.4,0,0.8,0.1,1.2v7.3h30.4V148.7z"/>
			<path class="st7" d="M292.1,128.4c0-1.4-1.1-2.6-2.5-2.6c-1.4,0-2.5,1.1-2.5,2.6c0,0.1,0,0.1,0,0.2v1.2h5V128.4z"/>
			<rect x="285.9" y="129.8" class="st7" width="7.4" height="3.7"/>
			<line class="st7" x1="289.7" y1="115.4" x2="289.7" y2="125.8"/>
			<line class="st7" x1="322.7" y1="155.1" x2="388" y2="155.1"/>
			<line class="st7" x1="474.7" y1="224.3" x2="238.8" y2="224.3"/>
			<line class="st7" x1="412.3" y1="163.9" x2="412.3" y2="168"/>
			<line class="st7" x1="420.2" y1="163.9" x2="420.2" y2="168"/>
			<line class="st7" x1="428.1" y1="163.9" x2="428.1" y2="168"/>
			<line class="st7" x1="282" y1="163.9" x2="282" y2="168"/>
			<line class="st7" x1="289.9" y1="163.9" x2="289.9" y2="168"/>
			<line class="st7" x1="297.8" y1="163.9" x2="297.8" y2="168"/>
		</g>
		<g>
			<line class="st20" x1="476.7" y1="276" x2="2.5" y2="276"/>
			<line class="st20" x1="429.8" y1="285.9" x2="36.2" y2="285.9"/>
		</g>
		<polygon class="st57" points="127.4,275 329.7,275 329.7,248 146.6,248 		"/>
		<rect x="141.6" y="240.3" class="st57" width="192.8" height="7.7"/>
		<g>
			<path class="st56" d="M304.6,263c0-3.7,3-6.6,6.6-6.6s6.6,3,6.6,6.6"/>
			<polyline class="st56" points="304.6,263 304.6,275.2 317.9,275.2 317.9,263 			"/>
		</g>
		<g>
			<path class="st56" d="M283.5,263c0-3.7,3-6.6,6.6-6.6s6.6,3,6.6,6.6"/>
			<polyline class="st56" points="283.5,263 283.5,275.2 296.7,275.2 296.7,263 			"/>
		</g>
		<g>
			<path class="st56" d="M262.3,263c0-3.7,3-6.6,6.6-6.6s6.6,3,6.6,6.6"/>
			<polyline class="st56" points="262.3,263 262.3,275.2 275.6,275.2 275.6,263 			"/>
		</g>
		<g>
			<path class="st56" d="M241.1,263c0-3.7,3-6.6,6.6-6.6s6.6,3,6.6,6.6"/>
			<polyline class="st56" points="241.1,263 241.1,275.2 254.4,275.2 254.4,263 			"/>
		</g>
		<g>
			<path class="st56" d="M220,263c0-3.7,3-6.6,6.6-6.6s6.6,3,6.6,6.6"/>
			<polyline class="st56" points="220,263 220,275.2 233.2,275.2 233.2,263 			"/>
		</g>
		<g>
			<path class="st8" d="M198.8,263c0-3.7,3-6.6,6.6-6.6s6.6,3,6.6,6.6"/>
			<polyline class="st8" points="198.8,263 198.8,275.2 212.1,275.2 212.1,263 			"/>
		</g>
		<g>
			<path class="st8" d="M177.6,263c0-3.7,3-6.6,6.6-6.6s6.6,3,6.6,6.6"/>
			<polyline class="st8" points="177.6,263 177.6,275.2 190.9,275.2 190.9,263 			"/>
		</g>
		<g>
			<path class="st8" d="M156.4,263c0-3.7,3-6.6,6.6-6.6s6.6,3,6.6,6.6"/>
			<polyline class="st8" points="156.4,263 156.4,275.2 169.7,275.2 169.7,263 			"/>
		</g>
		<polygon class="st57" points="151.4,240.2 329.7,240.2 329.7,213.2 163.9,213.2 		"/>
		<rect x="156.4" y="205.5" class="st57" width="178" height="7.7"/>
		<g>
			<path class="st56" d="M304.6,228.2c0-3.7,3-6.6,6.6-6.6s6.6,3,6.6,6.6"/>
			<polyline class="st56" points="304.6,228.2 304.6,240.3 317.9,240.3 317.9,228.2 			"/>
		</g>
		<g>
			<path class="st56" d="M283.5,228.2c0-3.7,3-6.6,6.6-6.6s6.6,3,6.6,6.6"/>
			<polyline class="st56" points="283.5,228.2 283.5,240.3 296.7,240.3 296.7,228.2 			"/>
		</g>
		<g>
			<path class="st56" d="M262.3,228.2c0-3.7,3-6.6,6.6-6.6s6.6,3,6.6,6.6"/>
			<polyline class="st56" points="262.3,228.2 262.3,240.3 275.6,240.3 275.6,228.2 			"/>
		</g>
		<g>
			<path class="st56" d="M241.1,228.2c0-3.7,3-6.6,6.6-6.6s6.6,3,6.6,6.6"/>
			<polyline class="st56" points="241.1,228.2 241.1,240.3 254.4,240.3 254.4,228.2 			"/>
		</g>
		<g>
			<path class="st56" d="M220,228.2c0-3.7,3-6.6,6.6-6.6s6.6,3,6.6,6.6"/>
			<polyline class="st56" points="220,228.2 220,240.3 233.2,240.3 233.2,228.2 			"/>
		</g>
		<g>
			<path class="st56" d="M198.8,228.2c0-3.7,3-6.6,6.6-6.6s6.6,3,6.6,6.6"/>
			<polyline class="st56" points="198.8,228.2 198.8,240.3 212.1,240.3 212.1,228.2 			"/>
		</g>
		<g>
			<path class="st8" d="M177.6,228.2c0-3.7,3-6.6,6.6-6.6s6.6,3,6.6,6.6"/>
			<polyline class="st8" points="177.6,228.2 177.6,240.3 190.9,240.3 190.9,228.2 			"/>
		</g>
		<polygon class="st57" points="102.4,205.3 329.7,205.3 329.7,178.4 126,178.4 		"/>
		<rect x="128.5" y="170.7" class="st57" width="206" height="7.7"/>
		<g>
			<path class="st56" d="M304.6,193.4c0-3.7,3-6.6,6.6-6.6s6.6,3,6.6,6.6"/>
			<polyline class="st56" points="304.6,193.4 304.6,205.5 317.9,205.5 317.9,193.4 			"/>
		</g>
		<g>
			<path class="st56" d="M283.5,193.4c0-3.7,3-6.6,6.6-6.6s6.6,3,6.6,6.6"/>
			<polyline class="st56" points="283.5,193.4 283.5,205.5 296.7,205.5 296.7,193.4 			"/>
		</g>
		<g>
			<path class="st56" d="M262.3,193.4c0-3.7,3-6.6,6.6-6.6s6.6,3,6.6,6.6"/>
			<polyline class="st56" points="262.3,193.4 262.3,205.5 275.6,205.5 275.6,193.4 			"/>
		</g>
		<g>
			<path class="st56" d="M241.1,193.4c0-3.7,3-6.6,6.6-6.6s6.6,3,6.6,6.6"/>
			<polyline class="st56" points="241.1,193.4 241.1,205.5 254.4,205.5 254.4,193.4 			"/>
		</g>
		<g>
			<path class="st56" d="M220,193.4c0-3.7,3-6.6,6.6-6.6s6.6,3,6.6,6.6"/>
			<polyline class="st56" points="220,193.4 220,205.5 233.2,205.5 233.2,193.4 			"/>
		</g>
		<g>
			<path class="st56" d="M198.8,193.4c0-3.7,3-6.6,6.6-6.6s6.6,3,6.6,6.6"/>
			<polyline class="st56" points="198.8,193.4 198.8,205.5 212.1,205.5 212.1,193.4 			"/>
		</g>
		<g>
			<path class="st56" d="M177.6,193.4c0-3.7,3-6.6,6.6-6.6s6.6,3,6.6,6.6"/>
			<polyline class="st56" points="177.6,193.4 177.6,205.5 190.9,205.5 190.9,193.4 			"/>
		</g>
		<g>
			<path class="st8" d="M156.4,193.4c0-3.7,3-6.6,6.6-6.6s6.6,3,6.6,6.6"/>
			<polyline class="st8" points="156.4,193.4 156.4,205.5 169.7,205.5 169.7,193.4 			"/>
		</g>
		<polygon class="st57" points="220.1,274.2 17.7,274.2 17.7,247.2 200.8,247.2 		"/>
		<rect x="13" y="239.5" class="st18" width="192.8" height="7.7"/>
		<g>
			<path class="st56" d="M42.8,262.2c0-3.7-3-6.6-6.6-6.6s-6.6,3-6.6,6.6"/>
			<polyline class="st56" points="42.8,262.2 42.8,274.3 29.5,274.3 29.5,262.2 			"/>
		</g>
		<g>
			<path class="st56" d="M64,262.2c0-3.7-3-6.6-6.6-6.6s-6.6,3-6.6,6.6"/>
			<polyline class="st56" points="64,262.2 64,274.3 50.7,274.3 50.7,262.2 			"/>
		</g>
		<g>
			<path class="st56" d="M85.1,262.2c0-3.7-3-6.6-6.6-6.6s-6.6,3-6.6,6.6"/>
			<polyline class="st56" points="85.1,262.2 85.1,274.3 71.9,274.3 71.9,262.2 			"/>
		</g>
		<g>
			<path class="st56" d="M106.3,262.2c0-3.7-3-6.6-6.6-6.6s-6.6,3-6.6,6.6"/>
			<polyline class="st56" points="106.3,262.2 106.3,274.3 93,274.3 93,262.2 			"/>
		</g>
		<g>
			<path class="st56" d="M127.5,262.2c0-3.7-3-6.6-6.6-6.6s-6.6,3-6.6,6.6"/>
			<polyline class="st56" points="127.5,262.2 127.5,274.3 114.2,274.3 114.2,262.2 			"/>
		</g>
		<g>
			<path class="st56" d="M148.6,262.2c0-3.7-3-6.6-6.6-6.6s-6.6,3-6.6,6.6"/>
			<polyline class="st56" points="148.6,262.2 148.6,274.3 135.4,274.3 135.4,262.2 			"/>
		</g>
		<g>
			<path class="st56" d="M169.8,262.2c0-3.7-3-6.6-6.6-6.6s-6.6,3-6.6,6.6"/>
			<polyline class="st56" points="169.8,262.2 169.8,274.3 156.5,274.3 156.5,262.2 			"/>
		</g>
		<g>
			<path class="st56" d="M191,262.2c0-3.7-3-6.6-6.6-6.6s-6.6,3-6.6,6.6"/>
			<polyline class="st56" points="191,262.2 191,274.3 177.7,274.3 177.7,262.2 			"/>
		</g>
		<polygon class="st57" points="196,239.3 17.7,239.3 17.7,212.4 183.5,212.4 		"/>
		<rect x="13" y="204.7" class="st57" width="178" height="7.7"/>
		<g>
			<path class="st56" d="M42.8,227.4c0-3.7-3-6.6-6.6-6.6s-6.6,3-6.6,6.6"/>
			<polyline class="st56" points="42.8,227.4 42.8,239.5 29.5,239.5 29.5,227.4 			"/>
		</g>
		<g>
			<path class="st56" d="M64,227.4c0-3.7-3-6.6-6.6-6.6s-6.6,3-6.6,6.6"/>
			<polyline class="st56" points="64,227.4 64,239.5 50.7,239.5 50.7,227.4 			"/>
		</g>
		<g>
			<path class="st56" d="M85.1,227.4c0-3.7-3-6.6-6.6-6.6s-6.6,3-6.6,6.6"/>
			<polyline class="st56" points="85.1,227.4 85.1,239.5 71.9,239.5 71.9,227.4 			"/>
		</g>
		<g>
			<path class="st56" d="M106.3,227.4c0-3.7-3-6.6-6.6-6.6s-6.6,3-6.6,6.6"/>
			<polyline class="st56" points="106.3,227.4 106.3,239.5 93,239.5 93,227.4 			"/>
		</g>
		<g>
			<path class="st56" d="M127.5,227.4c0-3.7-3-6.6-6.6-6.6s-6.6,3-6.6,6.6"/>
			<polyline class="st56" points="127.5,227.4 127.5,239.5 114.2,239.5 114.2,227.4 			"/>
		</g>
		<g>
			<path class="st56" d="M148.6,227.4c0-3.7-3-6.6-6.6-6.6s-6.6,3-6.6,6.6"/>
			<polyline class="st56" points="148.6,227.4 148.6,239.5 135.4,239.5 135.4,227.4 			"/>
		</g>
		<g>
			<path class="st56" d="M169.8,227.4c0-3.7-3-6.6-6.6-6.6s-6.6,3-6.6,6.6"/>
			<polyline class="st56" points="169.8,227.4 169.8,239.5 156.5,239.5 156.5,227.4 			"/>
		</g>
		<polygon class="st57" points="175.1,204.5 17.7,204.5 17.7,177.6 158.7,177.6 		"/>
		<rect x="13" y="169.9" class="st18" width="153.5" height="7.7"/>
		<g>
			<path class="st56" d="M42.8,192.5c0-3.7-3-6.6-6.6-6.6s-6.6,3-6.6,6.6"/>
			<polyline class="st56" points="42.8,192.5 42.8,204.7 29.5,204.7 29.5,192.5 			"/>
		</g>
		<g>
			<path class="st56" d="M64,192.5c0-3.7-3-6.6-6.6-6.6s-6.6,3-6.6,6.6"/>
			<polyline class="st56" points="64,192.5 64,204.7 50.7,204.7 50.7,192.5 			"/>
		</g>
		<g>
			<path class="st56" d="M85.1,192.5c0-3.7-3-6.6-6.6-6.6s-6.6,3-6.6,6.6"/>
			<polyline class="st56" points="85.1,192.5 85.1,204.7 71.9,204.7 71.9,192.5 			"/>
		</g>
		<g>
			<path class="st56" d="M106.3,192.5c0-3.7-3-6.6-6.6-6.6s-6.6,3-6.6,6.6"/>
			<polyline class="st56" points="106.3,192.5 106.3,204.7 93,204.7 93,192.5 			"/>
		</g>
		<g>
			<path class="st56" d="M127.5,192.5c0-3.7-3-6.6-6.6-6.6s-6.6,3-6.6,6.6"/>
			<polyline class="st56" points="127.5,192.5 127.5,204.7 114.2,204.7 114.2,192.5 			"/>
		</g>
		<g>
			<path class="st56" d="M148.6,192.5c0-3.7-3-6.6-6.6-6.6s-6.6,3-6.6,6.6"/>
			<polyline class="st56" points="148.6,192.5 148.6,204.7 135.4,204.7 135.4,192.5 			"/>
		</g>
		<polygon class="st57" points="151.7,169.7 17.7,169.7 17.7,142.7 141.1,142.7 		"/>
		<rect x="13" y="135" class="st57" width="131.4" height="7.7"/>
		<line class="st8" x1="29.5" y1="153.4" x2="29.5" y2="158.1"/>
		<line class="st8" x1="37.7" y1="153.4" x2="37.7" y2="158.1"/>
		<line class="st8" x1="45.8" y1="153.4" x2="45.8" y2="158.1"/>
		<line class="st8" x1="54" y1="153.4" x2="54" y2="158.1"/>
		<line class="st8" x1="62.1" y1="153.4" x2="62.1" y2="158.1"/>
		<line class="st8" x1="70.3" y1="153.4" x2="70.3" y2="158.1"/>
		<line class="st8" x1="78.4" y1="153.4" x2="78.4" y2="158.1"/>
		<line class="st8" x1="86.6" y1="153.4" x2="86.6" y2="158.1"/>
		<line class="st8" x1="94.7" y1="153.4" x2="94.7" y2="158.1"/>
		<line class="st8" x1="102.8" y1="153.4" x2="102.8" y2="158.1"/>
		<line class="st8" x1="111" y1="153.4" x2="111" y2="158.1"/>
		<line class="st8" x1="119.1" y1="153.4" x2="119.1" y2="158.1"/>
		<line class="st8" x1="127.3" y1="153.4" x2="127.3" y2="158.1"/>
		<line class="st8" x1="135.4" y1="153.4" x2="135.4" y2="158.1"/>
		<g>
			<path class="st7" d="M107.2,36.7c14.5-8.5,24.3-2,25.5,10.2c1.2,12.2-13.3,14.7-13.3,14.7H58c0,0-12.6-3.7-11.3-14.7
				c1.6-14.1,15.2-14.1,20-7"/>
			<path class="st7" d="M62.6,36.1c-5.9-7,5.9-23.2,19.4-14.2"/>
			<path class="st7" d="M80.2,27.5c0,0,5.7-17.9,22.5-13.6c14.5,3.7,12.5,18.9,12.5,18.9"/>
		</g>
		<g>
			<path class="st7" d="M260.8,59.3c5.7-6,15.6-1,16,7c0.4,8-8,10.3-8,10.3h-30c0,0-8.3-2.7-6.7-11.3c1.7-8.7,12-7,12.7-5.3"/>
			<path class="st7" d="M267.5,56.7c0,0-1.5-11.4-13.1-10.4c-11.6,1-11.1,12.7-11.1,12.7"/>
		</g>
		<g>
			<path class="st7" d="M384.4,21.3c-8.2-8.6-22.5-1.4-23,10.1s11.5,14.9,11.5,14.9h43.2c0,0,12-3.8,9.6-16.3
				c-2.4-12.5-17.3-10.1-18.2-7.7"/>
			<path class="st7" d="M374.8,17.5c0,0,2.2-16.3,18.9-14.9c16.6,1.4,16,18.3,16,18.3"/>
		</g>
	</g>
</g>
<g id="_x23_Forbidden_x5F_City">
</g>
<g id="_x23_Sydney_x5F_Opera_x5F_House">
</g>
<g id="_x23_Space_x5F_Needle">
</g>
<g id="_x23_Pyramid">
</g>
<g id="_x23_The_x5F_Pantheon">
</g>
<g id="_x23_Emirates_x5F_Towers">
</g>
<g id="_x23_China_x5F_wall">
	<g id="_x23_Empire_x5F_State_x5F_Building">
	</g>
</g>
</svg>
