<?xml version="1.0" encoding="utf-8"?>
<!-- Generator: Adobe Illustrator 19.1.0, SVG Export Plug-In . SVG Version: 6.00 Build 0)  -->
<svg version="1.1" xmlns="http://www.w3.org/2000/svg" xmlns:xlink="http://www.w3.org/1999/xlink" x="0px" y="0px"
	 viewBox="0 0 474.2 369.9" style="enable-background:new 0 0 474.2 369.9;" xml:space="preserve">
<style type="text/css">
	.st0{fill:#EDEDED;}
	.st1{fill:#59595A;}
	.st2{fill:none;stroke:#59595B;stroke-width:5;stroke-linejoin:round;stroke-miterlimit:10;}
	.st3{fill:none;stroke:#59595B;stroke-width:4.1457;stroke-linejoin:round;stroke-miterlimit:10;}
	.st4{fill:#F6F5F5;}
	.st5{fill:#59595B;}
	.st6{fill:none;stroke:#59595B;stroke-width:4.0874;stroke-linecap:round;stroke-linejoin:round;stroke-miterlimit:10;}
	.st7{fill:none;stroke:#59595B;stroke-width:5;stroke-linecap:round;stroke-linejoin:round;stroke-miterlimit:10;}
	.st8{fill:#EFEFEF;stroke:#59595B;stroke-width:5;stroke-linecap:round;stroke-linejoin:round;stroke-miterlimit:10;}
	.st9{fill:#EDECED;}
	.st10{fill:none;stroke:#5A5B5B;stroke-width:5;stroke-miterlimit:10;}
	.st11{fill:none;stroke:#5A5B5C;stroke-width:5;stroke-linecap:round;stroke-linejoin:round;stroke-miterlimit:10;}
	.st12{fill:#EDECED;stroke:#5A5B5C;stroke-width:5;stroke-linecap:round;stroke-linejoin:round;stroke-miterlimit:10;}
	.st13{fill:#5A5B5C;stroke:#5A5B5C;stroke-width:5;stroke-linecap:round;stroke-linejoin:round;stroke-miterlimit:10;}
	.st14{fill:none;stroke:#5A5B5B;stroke-width:5;stroke-linecap:round;stroke-linejoin:round;stroke-miterlimit:10;}
	.st15{fill:#F0EFEF;stroke:#5A5B5B;stroke-width:5;stroke-linecap:round;stroke-linejoin:round;stroke-miterlimit:10;}
	.st16{fill:#E8E8E8;stroke:#5A5B5C;stroke-width:5;stroke-linecap:round;stroke-linejoin:round;stroke-miterlimit:10;}
	.st17{fill:#FFFFFF;stroke:#5A5B5B;stroke-width:5;stroke-linecap:round;stroke-linejoin:round;stroke-miterlimit:10;}
	.st18{fill:#EFEFEF;stroke:#59595A;stroke-width:5;stroke-linecap:round;stroke-linejoin:round;stroke-miterlimit:10;}
	.st19{fill:none;stroke:#59595A;stroke-width:5;stroke-miterlimit:10;}
	.st20{fill:none;stroke:#59595A;stroke-width:5;stroke-linecap:round;stroke-miterlimit:10;}
	.st21{fill:none;stroke:#59595A;stroke-width:5;stroke-linejoin:round;stroke-miterlimit:10;}
	.st22{fill:none;stroke:#59595A;stroke-width:4.539;stroke-miterlimit:10;}
	.st23{fill:none;stroke:#59595A;stroke-width:4.1349;stroke-miterlimit:10;}
	.st24{fill:none;stroke:#59595A;stroke-width:3.9798;stroke-miterlimit:10;}
	.st25{fill:none;stroke:#58595B;stroke-width:5;stroke-miterlimit:10;}
	.st26{fill:none;stroke:#58595B;stroke-width:5;stroke-linejoin:round;stroke-miterlimit:10;}
	.st27{fill:none;stroke:#58595B;stroke-width:5;stroke-linecap:round;stroke-linejoin:round;stroke-miterlimit:10;}
	.st28{fill:none;stroke:#59595B;stroke-width:4.2054;stroke-linecap:round;stroke-linejoin:round;stroke-miterlimit:10;}
	.st29{fill:none;stroke:#59595B;stroke-width:5;stroke-miterlimit:10;}
	.st30{fill:#EDECEC;stroke:#59595B;stroke-width:5;stroke-linecap:round;stroke-linejoin:round;stroke-miterlimit:10;}
	.st31{fill:#EDEDED;stroke:#59595A;stroke-width:5;stroke-miterlimit:10;}
	.st32{fill:#EDEDED;stroke:#59595B;stroke-width:5;stroke-linecap:round;stroke-linejoin:round;stroke-miterlimit:10;}
	.st33{fill:none;stroke:#59595A;stroke-width:5;stroke-linecap:round;stroke-linejoin:round;stroke-miterlimit:10;}
	.st34{fill:#58595B;}
	.st35{fill:#59595A;stroke:#EDEDED;stroke-width:3;stroke-miterlimit:10;}
	.st36{fill:#59595A;stroke:#EDEDED;stroke-miterlimit:10;}
	.st37{fill:#EFEFEF;stroke:#59595A;stroke-width:5;stroke-linecap:round;stroke-miterlimit:10;}
	.st38{fill:#EDEDED;stroke:#59595A;stroke-width:5;stroke-linecap:round;stroke-linejoin:round;stroke-miterlimit:10;}
	.st39{fill-rule:evenodd;clip-rule:evenodd;fill:#59595B;}
	
		.st40{fill-rule:evenodd;clip-rule:evenodd;fill:none;stroke:#59595B;stroke-width:5;stroke-linecap:round;stroke-linejoin:round;stroke-miterlimit:10;}
	.st41{fill:none;stroke:#5A5B5C;stroke-width:4.1457;stroke-linejoin:round;stroke-miterlimit:10;}
	.st42{fill:none;stroke:#5A5B5B;stroke-width:4.539;stroke-miterlimit:10;}
	.st43{fill:none;stroke:#5A5B5B;stroke-width:4.1349;stroke-miterlimit:10;}
	.st44{fill:none;stroke:#5A5B5B;stroke-width:3.9798;stroke-miterlimit:10;}
	.st45{fill:none;stroke:#5A5B5C;stroke-width:4;stroke-linecap:round;stroke-linejoin:round;stroke-miterlimit:10;}
	.st46{fill:none;stroke:#595A5C;stroke-width:5;stroke-linecap:round;stroke-linejoin:round;stroke-miterlimit:10;}
	.st47{fill:#5A5B5C;}
	.st48{fill:none;stroke:#595A5C;stroke-width:5;stroke-linejoin:round;stroke-miterlimit:10;}
	.st49{fill:none;stroke:#5A5B5B;stroke-width:5;stroke-linecap:round;stroke-miterlimit:10;}
	.st50{fill:#5A5B5B;}
	.st51{fill:#5A5B5C;stroke:#5A5B5C;stroke-miterlimit:10;}
	.st52{fill:#595A5C;}
	.st53{fill:#EDECED;stroke:#5A5B5B;stroke-width:5;stroke-miterlimit:10;}
	.st54{fill:#FFFFFF;stroke:#5A5B5B;stroke-width:5;stroke-miterlimit:10;}
	.st55{fill:#FFFFFF;stroke:#5A5B5C;stroke-width:5;stroke-linecap:round;stroke-linejoin:round;stroke-miterlimit:10;}
	.st56{fill:#FFFFFF;stroke:#59595B;stroke-width:5;stroke-linecap:round;stroke-linejoin:round;stroke-miterlimit:10;}
	.st57{fill:#FFFFFF;stroke:#59595A;stroke-width:5;stroke-linecap:round;stroke-linejoin:round;stroke-miterlimit:10;}
	.st58{fill:#FFFFFF;stroke:#59595A;stroke-width:5;stroke-miterlimit:10;}
	.st59{fill:none;stroke:#59595B;stroke-width:3.8573;stroke-linejoin:round;stroke-miterlimit:10;}
	.st60{fill:#EDEDED;stroke:#59595B;stroke-width:5;stroke-miterlimit:10;}
	.st61{fill:none;stroke:#59595B;stroke-width:5;stroke-linecap:round;stroke-miterlimit:10;}
	.st62{fill:#59595B;stroke:#59595A;stroke-width:5;stroke-linecap:round;stroke-linejoin:round;stroke-miterlimit:10;}
	.st63{fill:#FFFFFF;stroke:#59595B;stroke-width:5;stroke-miterlimit:10;}
	.st64{fill:#EAEAEA;stroke:#59595A;stroke-width:5;stroke-linecap:round;stroke-linejoin:round;stroke-miterlimit:10;}
	.st65{fill:#EAEAEA;stroke:#59595A;stroke-width:5;stroke-linecap:round;stroke-miterlimit:10;}
</style>
<g id="Background">
</g>
<g id="_x23_Tower_x5F_Bridge">
</g>
<g id="_x23_Washington_x5F_Mountain">
</g>
<g id="_x23_London_x5F_Eye">
</g>
<g id="_x23_Eiffel_x5F_Tower">
	<g id="New_Symbol">
	</g>
	<g>
		<polyline class="st33" points="427,184 369.7,156 360.1,165.4 346.2,156 328.2,180.1 267.3,106.5 223,142.9 199.1,122.7 
			161.8,166.4 142.3,150 112.7,178 75.3,135.4 43,167.4 		"/>
		<g>
			<line class="st19" x1="474.2" y1="357.5" x2="0" y2="357.5"/>
			<line class="st19" x1="427.3" y1="367.4" x2="33.7" y2="367.4"/>
		</g>
		<polygon class="st33" points="107.3,234.6 90.5,234.6 90.5,214.3 88.5,208.5 109.3,208.5 107.3,214.1 		"/>
		<rect x="65.7" y="349.8" class="st57" width="136" height="7.7"/>
		<polyline class="st18" points="203,251.7 133.7,202.7 65,251.7 		"/>
		<polygon class="st57" points="199,258.5 133.7,212.5 69,258.5 69,349.5 199,349.5 		"/>
		<line class="st33" x1="199" y1="258.5" x2="203" y2="251.7"/>
		<line class="st33" x1="69" y1="258.5" x2="65" y2="251.7"/>
		<line class="st33" x1="112.9" y1="227.8" x2="154" y2="227.8"/>
		<line class="st33" x1="84.7" y1="247.2" x2="183" y2="247.2"/>
		<line class="st33" x1="70.6" y1="263.7" x2="199" y2="263.7"/>
		<line class="st33" x1="70.6" y1="291.2" x2="199" y2="291.2"/>
		<line class="st33" x1="70.6" y1="304.5" x2="199" y2="304.5"/>
		<line class="st33" x1="70.6" y1="330.5" x2="199" y2="330.5"/>
		<g>
			<rect x="121.3" y="227.2" class="st33" width="25.8" height="20"/>
			<g>
				<line class="st33" x1="134.2" y1="227.2" x2="134.2" y2="246"/>
				<line class="st33" x1="121.3" y1="237.2" x2="147.1" y2="237.2"/>
			</g>
		</g>
		<g>
			<rect x="91.4" y="264.6" class="st33" width="20" height="25.8"/>
			<g>
				<line class="st33" x1="111.4" y1="273.5" x2="92.6" y2="273.5"/>
				<line class="st33" x1="111.4" y1="281.5" x2="92.6" y2="281.5"/>
				<line class="st33" x1="101.4" y1="264.6" x2="101.4" y2="290.3"/>
			</g>
		</g>
		<g>
			<rect x="156" y="264.6" class="st33" width="20" height="25.8"/>
			<g>
				<line class="st33" x1="176" y1="273.5" x2="157.3" y2="273.5"/>
				<line class="st33" x1="176" y1="281.5" x2="157.3" y2="281.5"/>
				<line class="st33" x1="166" y1="264.6" x2="166" y2="290.3"/>
			</g>
		</g>
		<g>
			<rect x="91.4" y="304.7" class="st33" width="20" height="25.8"/>
			<g>
				<line class="st33" x1="111.4" y1="313.6" x2="92.6" y2="313.6"/>
				<line class="st33" x1="111.4" y1="321.6" x2="92.6" y2="321.6"/>
				<line class="st33" x1="101.4" y1="304.7" x2="101.4" y2="330.5"/>
			</g>
		</g>
		<g>
			<rect x="156" y="304.7" class="st33" width="20" height="25.8"/>
			<g>
				<line class="st33" x1="176" y1="313.6" x2="157.3" y2="313.6"/>
				<line class="st33" x1="176" y1="321.6" x2="157.3" y2="321.6"/>
				<line class="st33" x1="166" y1="304.7" x2="166" y2="330.5"/>
			</g>
		</g>
		<line class="st33" x1="134.2" y1="246" x2="134.2" y2="330.5"/>
		<line class="st33" x1="101.4" y1="247.2" x2="101.4" y2="264.6"/>
		<line class="st33" x1="166.6" y1="247.2" x2="166.6" y2="263"/>
		<line class="st33" x1="145.3" y1="263.7" x2="159.6" y2="230.7"/>
		<line class="st33" x1="180" y1="304.5" x2="197.7" y2="263.7"/>
		<line class="st33" x1="116.4" y1="304.5" x2="134.3" y2="263"/>
		<line class="st33" x1="88.2" y1="304.5" x2="70.2" y2="263"/>
		<line class="st33" x1="151.9" y1="304.5" x2="133.9" y2="263"/>
		<line class="st33" x1="122.3" y1="263.7" x2="108.1" y2="230.7"/>
		<line class="st33" x1="166" y1="290.3" x2="166" y2="304.7"/>
		<line class="st33" x1="101.4" y1="290.3" x2="101.4" y2="304.7"/>
		<line class="st33" x1="91.4" y1="330.5" x2="91.4" y2="347.7"/>
		<line class="st33" x1="111.4" y1="330.5" x2="111.4" y2="347.7"/>
		<line class="st33" x1="156" y1="330.5" x2="156" y2="347.7"/>
		<line class="st33" x1="176" y1="330.5" x2="176" y2="347.7"/>
		<line class="st33" x1="156" y1="304.7" x2="133.7" y2="346.5"/>
		<line class="st33" x1="111.4" y1="304.7" x2="133.9" y2="344.7"/>
		<line class="st33" x1="69" y1="330.5" x2="91.4" y2="304.7"/>
		<line class="st33" x1="199" y1="330.5" x2="177.3" y2="304.7"/>
		<rect x="145.8" y="290.3" class="st57" width="42.4" height="10.5"/>
		<rect x="116.7" y="246.5" class="st57" width="34.2" height="9.4"/>
		<rect x="80.2" y="291.1" class="st57" width="42.4" height="9.4"/>
		<rect x="145.8" y="330.7" class="st57" width="42.4" height="10.5"/>
		<rect x="80.2" y="331.5" class="st57" width="42.4" height="9.4"/>
		<line class="st33" x1="229.4" y1="213.8" x2="271.2" y2="213.8"/>
		<polyline class="st57" points="244.7,140.4 256.9,75.5 268.7,140.4 		"/>
		<line class="st33" x1="256.9" y1="75.5" x2="256.9" y2="53.1"/>
		<line class="st33" x1="382.5" y1="213.8" x2="340.7" y2="213.8"/>
		<polyline class="st57" points="367.2,140.4 355,75.5 343.1,140.4 		"/>
		<line class="st33" x1="355" y1="75.5" x2="355" y2="53.1"/>
		<polygon class="st57" points="250.6,147.3 244.7,140.4 238.8,147.3 238.8,213.8 250.6,213.8 		"/>
		<polygon class="st57" points="262.8,147.3 256.9,140.4 251,147.3 251,213.8 262.8,213.8 		"/>
		<polygon class="st57" points="274.7,147.3 268.7,140.4 262.8,147.3 262.8,213.8 274.7,213.8 		"/>
		<polyline class="st57" points="242.6,268 247.8,239.5 252.9,268 		"/>
		<polyline class="st57" points="295.7,356.2 304.9,322 313.7,356.2 		"/>
		<polygon class="st33" points="247.4,271.1 242.3,268.3 237.2,271.1 237.2,297.5 247.4,297.5 		"/>
		<polygon class="st33" points="257.9,271.1 252.8,268.3 247.7,271.1 247.7,297.5 257.9,297.5 		"/>
		<polygon class="st33" points="264.4,329.5 255.4,321.6 246.3,329.5 246.3,357.5 264.4,357.5 		"/>
		<polygon class="st33" points="363.7,329.5 354.7,321.6 345.6,329.5 345.6,357.5 363.7,357.5 		"/>
		<polygon class="st33" points="327.6,307.3 305.5,293.1 283.4,307.3 283.4,357.5 327.6,357.5 		"/>
		<polygon class="st33" points="379.3,213.8 333.8,213.8 333.8,250 278.1,250 278.1,213.8 232.6,213.8 223,232.4 223,357.5 
			271.2,357.5 340.7,357.5 388.9,357.5 388.9,232.4 		"/>
		<line class="st33" x1="265.3" y1="250" x2="346.6" y2="250"/>
		<polygon class="st57" points="361.3,147.3 367.2,140.4 373.1,147.3 373.1,213.8 361.3,213.8 		"/>
		<polygon class="st57" points="349.1,147.3 355,140.4 360.9,147.3 360.9,213.8 349.1,213.8 		"/>
		<polygon class="st57" points="337.2,147.3 343.1,140.4 349.1,147.3 349.1,213.8 337.2,213.8 		"/>
		<polyline class="st57" points="317.8,205.1 305.5,166.1 293.7,205.1 		"/>
		<line class="st33" x1="305.5" y1="166.1" x2="305.5" y2="152.7"/>
		<polygon class="st33" points="311.9,209.3 317.8,205.1 323.7,209.3 323.7,249.3 311.9,249.3 		"/>
		<polygon class="st33" points="299.6,209.3 305.5,205.1 311.4,209.3 311.4,249.3 299.6,249.3 		"/>
		<polygon class="st33" points="287.8,209.3 293.7,205.1 299.6,209.3 299.6,249.3 287.8,249.3 		"/>
		<line class="st33" x1="235.7" y1="297.5" x2="259.4" y2="297.5"/>
		<polyline class="st57" points="358.9,268 364.2,239.5 369.2,268 		"/>
		<polygon class="st33" points="363.7,271.1 358.7,268.3 353.6,271.1 353.6,297.5 363.7,297.5 		"/>
		<polygon class="st33" points="374.2,271.1 369.2,268.3 364.1,271.1 364.1,297.5 374.2,297.5 		"/>
		<line class="st33" x1="352.1" y1="297.5" x2="375.7" y2="297.5"/>
		<line class="st33" x1="305.5" y1="264.9" x2="305.5" y2="282.9"/>
		<line class="st33" x1="299.6" y1="272.6" x2="311.9" y2="272.6"/>
		<g>
			<path class="st7" d="M128.9,66.6c14.5-8.5,24.3-2,25.5,10.2c1.2,12.2-13.3,14.7-13.3,14.7H79.7c0,0-12.6-3.7-11.3-14.7
				c1.6-14.1,15.2-14.1,20-7"/>
			<path class="st7" d="M84.2,66c-5.9-7,5.9-23.2,19.4-14.2"/>
			<path class="st7" d="M101.9,57.4c0,0,5.7-17.9,22.5-13.6c14.5,3.7,12.5,18.9,12.5,18.9"/>
		</g>
		<g>
			<path class="st7" d="M271.7,17c5.7-6,15.6-1,16,7c0.4,8-8,10.3-8,10.3h-30c0,0-8.3-2.7-6.7-11.3s12-7,12.7-5.3"/>
			<path class="st7" d="M278.4,14.4c0,0-1.5-11.4-13.1-10.4c-11.6,1-11.1,12.7-11.1,12.7"/>
		</g>
		<g>
			<path class="st7" d="M397.3,21.3c-8.2-8.6-22.5-1.4-23,10.1s11.5,14.9,11.5,14.9H429c0,0,12-3.8,9.6-16.3
				c-2.4-12.5-17.3-10.1-18.2-7.7"/>
			<path class="st7" d="M387.7,17.5c0,0,2.2-16.3,18.9-14.9s16,18.3,16,18.3"/>
		</g>
	</g>
</g>
<g id="_x23_Forbidden_x5F_City">
</g>
<g id="_x23_Sydney_x5F_Opera_x5F_House">
</g>
<g id="_x23_Space_x5F_Needle">
</g>
<g id="_x23_Pyramid">
</g>
<g id="_x23_The_x5F_Pantheon">
</g>
<g id="_x23_Emirates_x5F_Towers">
</g>
<g id="_x23_China_x5F_wall">
	<g id="_x23_Empire_x5F_State_x5F_Building">
	</g>
</g>
</svg>
