<?xml version="1.0" encoding="utf-8"?>
<!-- Generator: Adobe Illustrator 19.1.0, SVG Export Plug-In . SVG Version: 6.00 Build 0)  -->
<svg version="1.1" xmlns="http://www.w3.org/2000/svg" xmlns:xlink="http://www.w3.org/1999/xlink" x="0px" y="0px"
	 viewBox="0 0 482.9 435.9" style="enable-background:new 0 0 482.9 435.9;" xml:space="preserve">
<style type="text/css">
	.st0{fill:#EDEDED;}
	.st1{fill:#59595A;}
	.st2{fill:none;stroke:#59595B;stroke-width:5;stroke-linejoin:round;stroke-miterlimit:10;}
	.st3{fill:none;stroke:#59595B;stroke-width:4.1457;stroke-linejoin:round;stroke-miterlimit:10;}
	.st4{fill:#F6F5F5;}
	.st5{fill:#59595B;}
	.st6{fill:none;stroke:#59595B;stroke-width:4.0874;stroke-linecap:round;stroke-linejoin:round;stroke-miterlimit:10;}
	.st7{fill:none;stroke:#59595B;stroke-width:5;stroke-linecap:round;stroke-linejoin:round;stroke-miterlimit:10;}
	.st8{fill:#EFEFEF;stroke:#59595B;stroke-width:5;stroke-linecap:round;stroke-linejoin:round;stroke-miterlimit:10;}
	.st9{fill:#EDECED;}
	.st10{fill:none;stroke:#5A5B5B;stroke-width:5;stroke-miterlimit:10;}
	.st11{fill:none;stroke:#5A5B5C;stroke-width:5;stroke-linecap:round;stroke-linejoin:round;stroke-miterlimit:10;}
	.st12{fill:#EDECED;stroke:#5A5B5C;stroke-width:5;stroke-linecap:round;stroke-linejoin:round;stroke-miterlimit:10;}
	.st13{fill:#5A5B5C;stroke:#5A5B5C;stroke-width:5;stroke-linecap:round;stroke-linejoin:round;stroke-miterlimit:10;}
	.st14{fill:none;stroke:#5A5B5B;stroke-width:5;stroke-linecap:round;stroke-linejoin:round;stroke-miterlimit:10;}
	.st15{fill:#F0EFEF;stroke:#5A5B5B;stroke-width:5;stroke-linecap:round;stroke-linejoin:round;stroke-miterlimit:10;}
	.st16{fill:#E8E8E8;stroke:#5A5B5C;stroke-width:5;stroke-linecap:round;stroke-linejoin:round;stroke-miterlimit:10;}
	.st17{fill:#FFFFFF;stroke:#5A5B5B;stroke-width:5;stroke-linecap:round;stroke-linejoin:round;stroke-miterlimit:10;}
	.st18{fill:#EFEFEF;stroke:#59595A;stroke-width:5;stroke-linecap:round;stroke-linejoin:round;stroke-miterlimit:10;}
	.st19{fill:none;stroke:#59595A;stroke-width:5;stroke-miterlimit:10;}
	.st20{fill:none;stroke:#59595A;stroke-width:5;stroke-linecap:round;stroke-miterlimit:10;}
	.st21{fill:none;stroke:#59595A;stroke-width:5;stroke-linejoin:round;stroke-miterlimit:10;}
	.st22{fill:none;stroke:#59595A;stroke-width:4.539;stroke-miterlimit:10;}
	.st23{fill:none;stroke:#59595A;stroke-width:4.1349;stroke-miterlimit:10;}
	.st24{fill:none;stroke:#59595A;stroke-width:3.9798;stroke-miterlimit:10;}
	.st25{fill:none;stroke:#58595B;stroke-width:5;stroke-miterlimit:10;}
	.st26{fill:none;stroke:#58595B;stroke-width:5;stroke-linejoin:round;stroke-miterlimit:10;}
	.st27{fill:none;stroke:#58595B;stroke-width:5;stroke-linecap:round;stroke-linejoin:round;stroke-miterlimit:10;}
	.st28{fill:none;stroke:#59595B;stroke-width:4.2054;stroke-linecap:round;stroke-linejoin:round;stroke-miterlimit:10;}
	.st29{fill:none;stroke:#59595B;stroke-width:5;stroke-miterlimit:10;}
	.st30{fill:#EDECEC;stroke:#59595B;stroke-width:5;stroke-linecap:round;stroke-linejoin:round;stroke-miterlimit:10;}
	.st31{fill:#EDEDED;stroke:#59595A;stroke-width:5;stroke-miterlimit:10;}
	.st32{fill:#EDEDED;stroke:#59595B;stroke-width:5;stroke-linecap:round;stroke-linejoin:round;stroke-miterlimit:10;}
	.st33{fill:none;stroke:#59595A;stroke-width:5;stroke-linecap:round;stroke-linejoin:round;stroke-miterlimit:10;}
	.st34{fill:#58595B;}
	.st35{fill:#59595A;stroke:#EDEDED;stroke-width:3;stroke-miterlimit:10;}
	.st36{fill:#59595A;stroke:#EDEDED;stroke-miterlimit:10;}
	.st37{fill:#EFEFEF;stroke:#59595A;stroke-width:5;stroke-linecap:round;stroke-miterlimit:10;}
	.st38{fill:#EDEDED;stroke:#59595A;stroke-width:5;stroke-linecap:round;stroke-linejoin:round;stroke-miterlimit:10;}
	.st39{fill-rule:evenodd;clip-rule:evenodd;fill:#59595B;}
	
		.st40{fill-rule:evenodd;clip-rule:evenodd;fill:none;stroke:#59595B;stroke-width:5;stroke-linecap:round;stroke-linejoin:round;stroke-miterlimit:10;}
	.st41{fill:none;stroke:#5A5B5C;stroke-width:4.1457;stroke-linejoin:round;stroke-miterlimit:10;}
	.st42{fill:none;stroke:#5A5B5B;stroke-width:4.539;stroke-miterlimit:10;}
	.st43{fill:none;stroke:#5A5B5B;stroke-width:4.1349;stroke-miterlimit:10;}
	.st44{fill:none;stroke:#5A5B5B;stroke-width:3.9798;stroke-miterlimit:10;}
	.st45{fill:none;stroke:#5A5B5C;stroke-width:4;stroke-linecap:round;stroke-linejoin:round;stroke-miterlimit:10;}
	.st46{fill:none;stroke:#595A5C;stroke-width:5;stroke-linecap:round;stroke-linejoin:round;stroke-miterlimit:10;}
	.st47{fill:#5A5B5C;}
	.st48{fill:none;stroke:#595A5C;stroke-width:5;stroke-linejoin:round;stroke-miterlimit:10;}
	.st49{fill:none;stroke:#5A5B5B;stroke-width:5;stroke-linecap:round;stroke-miterlimit:10;}
	.st50{fill:#5A5B5B;}
	.st51{fill:#5A5B5C;stroke:#5A5B5C;stroke-miterlimit:10;}
	.st52{fill:#595A5C;}
	.st53{fill:#EDECED;stroke:#5A5B5B;stroke-width:5;stroke-miterlimit:10;}
	.st54{fill:#FFFFFF;stroke:#5A5B5B;stroke-width:5;stroke-miterlimit:10;}
	.st55{fill:#FFFFFF;stroke:#5A5B5C;stroke-width:5;stroke-linecap:round;stroke-linejoin:round;stroke-miterlimit:10;}
	.st56{fill:#FFFFFF;stroke:#59595B;stroke-width:5;stroke-linecap:round;stroke-linejoin:round;stroke-miterlimit:10;}
	.st57{fill:#FFFFFF;stroke:#59595A;stroke-width:5;stroke-linecap:round;stroke-linejoin:round;stroke-miterlimit:10;}
	.st58{fill:#FFFFFF;stroke:#59595A;stroke-width:5;stroke-miterlimit:10;}
	.st59{fill:none;stroke:#59595B;stroke-width:3.8573;stroke-linejoin:round;stroke-miterlimit:10;}
	.st60{fill:#EDEDED;stroke:#59595B;stroke-width:5;stroke-miterlimit:10;}
	.st61{fill:none;stroke:#59595B;stroke-width:5;stroke-linecap:round;stroke-miterlimit:10;}
	.st62{fill:#59595B;stroke:#59595A;stroke-width:5;stroke-linecap:round;stroke-linejoin:round;stroke-miterlimit:10;}
	.st63{fill:#FFFFFF;stroke:#59595B;stroke-width:5;stroke-miterlimit:10;}
	.st64{fill:#EAEAEA;stroke:#59595A;stroke-width:5;stroke-linecap:round;stroke-linejoin:round;stroke-miterlimit:10;}
	.st65{fill:#EAEAEA;stroke:#59595A;stroke-width:5;stroke-linecap:round;stroke-miterlimit:10;}
</style>
<g id="Background">
</g>
<g id="_x23_Tower_x5F_Bridge">
</g>
<g id="_x23_Washington_x5F_Mountain">
</g>
<g id="_x23_London_x5F_Eye">
</g>
<g id="_x23_Eiffel_x5F_Tower">
	<g id="New_Symbol">
	</g>
</g>
<g id="_x23_Forbidden_x5F_City">
</g>
<g id="_x23_Sydney_x5F_Opera_x5F_House">
</g>
<g id="_x23_Space_x5F_Needle">
</g>
<g id="_x23_Pyramid">
</g>
<g id="_x23_The_x5F_Pantheon">
</g>
<g id="_x23_Emirates_x5F_Towers">
</g>
<g id="_x23_China_x5F_wall">
	<g id="_x23_Empire_x5F_State_x5F_Building">
	</g>
	<g>
		<polygon class="st19" points="419.2,293.6 411.1,293.6 410.3,301.4 419.9,301.4 		"/>
		<polygon class="st19" points="419.2,301.4 411.1,301.4 410.3,309.2 419.9,309.2 		"/>
		<polygon class="st19" points="419.2,309.2 411.1,309.2 410.3,317.1 419.9,317.1 		"/>
		<polygon class="st19" points="419.2,317.1 411.1,317.1 410.3,324.9 419.9,324.9 		"/>
		<polygon class="st19" points="419.2,324.9 411.1,324.9 410.3,332.7 419.9,332.7 		"/>
		<polygon class="st19" points="419.2,332.7 411.1,332.7 410.3,340.5 419.9,340.5 		"/>
		<polygon class="st19" points="419.2,340.5 411.1,340.5 410.3,348.4 419.9,348.4 		"/>
		<polygon class="st19" points="419.2,348.4 411.1,348.4 410.3,356.2 419.9,356.2 		"/>
		<polygon class="st19" points="419.2,356.2 411.1,356.2 410.3,364 419.9,364 		"/>
		<polygon class="st19" points="419.2,364 411.1,364 410.3,371.8 419.9,371.8 		"/>
		<polygon class="st19" points="419.2,371.8 411.1,371.8 410.3,379.7 419.9,379.7 		"/>
		<polygon class="st19" points="419.2,379.7 411.1,379.7 410.3,387.5 419.9,387.5 		"/>
		<polygon class="st19" points="419.2,387.5 411.1,387.5 410.3,395.3 419.9,395.3 		"/>
		<polygon class="st19" points="419.2,395.3 411.1,395.3 410.3,403.1 419.9,403.1 		"/>
		<polygon class="st19" points="419.2,403.1 411.1,403.1 410.3,411 419.9,411 		"/>
		<polygon class="st19" points="419.2,411 411.1,411 410.3,418.8 419.9,418.8 		"/>
		<g>
			<path class="st58" d="M414.8,290.1l34.6-54.3C449.4,235.8,400.2,237.9,414.8,290.1z"/>
			<line class="st58" x1="417.8" y1="275.2" x2="426.1" y2="272.3"/>
			<line class="st58" x1="420" y1="265" x2="432.4" y2="261.5"/>
			<line class="st58" x1="427.5" y1="254.1" x2="439.7" y2="251.1"/>
		</g>
		<g>
			<path class="st58" d="M416.2,290.5l60.5,21.9C476.7,312.4,463.9,264.8,416.2,290.5z"/>
			<line class="st58" x1="431.3" y1="290.1" x2="435.9" y2="297.6"/>
			<line class="st58" x1="441.7" y1="290.1" x2="447.9" y2="301.4"/>
			<line class="st58" x1="454" y1="295" x2="459.7" y2="306.2"/>
		</g>
		<g>
			<path class="st58" d="M415.7,291.5l56.5-30.8C472.2,260.7,428.1,238.7,415.7,291.5z"/>
			<line class="st58" x1="425.4" y1="279.9" x2="434.1" y2="281.4"/>
			<line class="st58" x1="432.3" y1="272.1" x2="444.9" y2="275"/>
			<line class="st58" x1="444.1" y1="266.2" x2="456.3" y2="269.4"/>
		</g>
		<g>
			<path class="st58" d="M415.7,289.8l-60.5,21.9C355.2,311.7,368,264.2,415.7,289.8z"/>
			<line class="st58" x1="400.6" y1="289.5" x2="395.9" y2="297"/>
			<line class="st58" x1="390.1" y1="289.5" x2="383.9" y2="300.8"/>
			<line class="st58" x1="377.9" y1="294.4" x2="372.2" y2="305.6"/>
		</g>
		<g>
			<path class="st58" d="M416.2,290.8l-56.5-30.8C359.7,260.1,403.8,238.1,416.2,290.8z"/>
			<line class="st58" x1="406.5" y1="279.3" x2="397.8" y2="280.8"/>
			<line class="st58" x1="399.6" y1="271.5" x2="387" y2="274.3"/>
			<line class="st58" x1="387.7" y1="265.5" x2="375.6" y2="268.7"/>
		</g>
		<g>
			<line class="st19" x1="476.7" y1="423.5" x2="2.5" y2="423.5"/>
			<line class="st19" x1="429.8" y1="433.4" x2="36.2" y2="433.4"/>
		</g>
		<polyline class="st33" points="2.5,195.8 73.7,167.8 85.7,177.1 103,167.8 145,192.8 228.4,119.1 268.4,158.8 296,134.5 
			332.5,178.1 358,161.8 393.6,189.8 453.8,147.1 480.4,179.1 		"/>
		<g>
			<path class="st7" d="M439.5,80.8c14.5-8.5,24.3-2,25.5,10.2s-13.3,14.7-13.3,14.7h-61.3c0,0-12.6-3.7-11.3-14.7
				c1.6-14.1,15.2-14.1,20-7"/>
			<path class="st7" d="M394.8,80.2c-5.9-7,5.9-23.2,19.4-14.2"/>
			<path class="st7" d="M412.5,71.6c0,0,5.7-17.9,22.5-13.6c14.5,3.7,12.5,18.9,12.5,18.9"/>
		</g>
		<g>
			<path class="st7" d="M234.5,15.6c5.7-6,15.6-1,16,7c0.4,8-8,10.3-8,10.3h-30c0,0-8.3-2.7-6.7-11.3c1.7-8.7,12-7,12.7-5.3"/>
			<path class="st7" d="M241.2,12.9c0,0-1.5-11.4-13.1-10.4c-11.6,1-11.1,12.7-11.1,12.7"/>
		</g>
		<g>
			<path class="st7" d="M53.2,56.6c-8.2-8.6-22.5-1.4-23,10.1c-0.6,11.5,11.5,14.9,11.5,14.9h43.2c0,0,12-3.8,9.6-16.3
				c-2.4-12.5-17.3-10.1-18.2-7.7"/>
			<path class="st7" d="M43.6,52.8c0,0,2.2-16.3,18.9-14.9c16.6,1.4,16,18.3,16,18.3"/>
		</g>
		<rect x="77.7" y="161.5" class="st56" width="93.5" height="260.8"/>
		<rect x="101.1" y="104.5" class="st56" width="46.4" height="56.1"/>
		<line class="st7" x1="124.5" y1="162.1" x2="124.5" y2="422.2"/>
		<line class="st7" x1="124.4" y1="106.2" x2="124.4" y2="162.4"/>
		<path class="st59" d="M148.3,104.8c-0.8-8.6-11.2-19.2-24-19.2c-12.7,0-23.1,10.5-24,19.2H148.3z"/>
		<line class="st59" x1="124.4" y1="84.1" x2="124.4" y2="62.9"/>
		<circle class="st5" cx="124.4" cy="62.9" r="2.5"/>
		<circle class="st5" cx="124.4" cy="69.4" r="3.2"/>
		<circle class="st5" cx="124.4" cy="77.6" r="4"/>
		<line class="st7" x1="70.5" y1="160.5" x2="176.9" y2="160.5"/>
		<line class="st7" x1="70.5" y1="154.1" x2="70.5" y2="160.4"/>
		<line class="st7" x1="81.9" y1="154.1" x2="81.9" y2="160.4"/>
		<line class="st7" x1="93.3" y1="154.1" x2="93.3" y2="160.4"/>
		<line class="st7" x1="94.2" y1="98.2" x2="94.2" y2="104.5"/>
		<line class="st7" x1="105.2" y1="98.2" x2="105.2" y2="104.5"/>
		<line class="st7" x1="116.2" y1="98.2" x2="116.2" y2="104.5"/>
		<line class="st7" x1="133.9" y1="98.2" x2="133.9" y2="104.5"/>
		<line class="st7" x1="124.6" y1="98.2" x2="124.6" y2="104.5"/>
		<line class="st7" x1="144.9" y1="98.2" x2="144.9" y2="104.5"/>
		<line class="st7" x1="155.9" y1="98.2" x2="155.9" y2="104.5"/>
		<line class="st7" x1="104.7" y1="154.1" x2="104.7" y2="160.4"/>
		<line class="st7" x1="116" y1="154.1" x2="116" y2="160.4"/>
		<line class="st7" x1="131.6" y1="154.1" x2="131.6" y2="160.4"/>
		<line class="st7" x1="142.9" y1="154.1" x2="142.9" y2="160.4"/>
		<line class="st7" x1="154.3" y1="154.1" x2="154.3" y2="160.4"/>
		<line class="st7" x1="165.7" y1="154.1" x2="165.7" y2="160.4"/>
		<line class="st7" x1="177.1" y1="154.1" x2="177.1" y2="160.4"/>
		<line class="st7" x1="94.2" y1="104.5" x2="155.6" y2="104.5"/>
		<line class="st7" x1="136.6" y1="123.3" x2="136.6" y2="134.3"/>
		<line class="st7" x1="112.6" y1="123.3" x2="112.6" y2="134.3"/>
		<line class="st7" x1="90.2" y1="185.3" x2="90.2" y2="196.3"/>
		<line class="st7" x1="101.2" y1="185.3" x2="101.2" y2="196.3"/>
		<line class="st7" x1="112.6" y1="185.3" x2="112.6" y2="196.3"/>
		<line class="st7" x1="137.4" y1="185.3" x2="137.4" y2="196.3"/>
		<line class="st7" x1="148.4" y1="185.3" x2="148.4" y2="196.3"/>
		<line class="st7" x1="159.7" y1="185.3" x2="159.7" y2="196.3"/>
		<line class="st7" x1="77.7" y1="214" x2="171.2" y2="214"/>
		<line class="st7" x1="77.7" y1="173.3" x2="171.2" y2="173.3"/>
		<line class="st7" x1="77.7" y1="167.5" x2="171.2" y2="167.5"/>
		<line class="st7" x1="88" y1="204" x2="114.5" y2="204"/>
		<line class="st7" x1="95.2" y1="230.8" x2="95.2" y2="241.8"/>
		<line class="st7" x1="106.2" y1="230.8" x2="106.2" y2="241.8"/>
		<line class="st7" x1="89.9" y1="249.5" x2="112.6" y2="249.5"/>
		<line class="st7" x1="95.2" y1="269.8" x2="95.2" y2="280.8"/>
		<line class="st7" x1="106.2" y1="269.8" x2="106.2" y2="280.8"/>
		<line class="st7" x1="89.9" y1="288.5" x2="112.6" y2="288.5"/>
		<line class="st7" x1="101.2" y1="308.8" x2="101.2" y2="319.8"/>
		<line class="st7" x1="89.9" y1="327.5" x2="112.6" y2="327.5"/>
		<line class="st7" x1="95.2" y1="347.8" x2="95.2" y2="358.8"/>
		<line class="st7" x1="106.2" y1="347.8" x2="106.2" y2="358.8"/>
		<line class="st7" x1="89.9" y1="366.5" x2="112.6" y2="366.5"/>
		<line class="st7" x1="142.4" y1="230.8" x2="142.4" y2="241.8"/>
		<line class="st7" x1="153.4" y1="230.8" x2="153.4" y2="241.8"/>
		<line class="st7" x1="137.1" y1="249.5" x2="159.7" y2="249.5"/>
		<line class="st7" x1="142.4" y1="269.8" x2="142.4" y2="280.8"/>
		<line class="st7" x1="153.4" y1="269.8" x2="153.4" y2="280.8"/>
		<line class="st7" x1="137.1" y1="288.5" x2="159.7" y2="288.5"/>
		<line class="st7" x1="148.4" y1="308.8" x2="148.4" y2="319.8"/>
		<line class="st7" x1="137.1" y1="327.5" x2="159.7" y2="327.5"/>
		<line class="st7" x1="142.4" y1="347.8" x2="142.4" y2="358.8"/>
		<line class="st7" x1="153.4" y1="347.8" x2="153.4" y2="358.8"/>
		<line class="st7" x1="137.1" y1="366.5" x2="159.7" y2="366.5"/>
		<line class="st7" x1="135.1" y1="204" x2="161.6" y2="204"/>
		<rect x="186.4" y="290.5" class="st56" width="152" height="132.8"/>
		<rect x="229.2" y="231.9" class="st56" width="65" height="58.3"/>
		<line class="st7" x1="261.7" y1="233.7" x2="261.7" y2="292.1"/>
		<path class="st59" d="M295.2,232.3c-1.1-9-15.7-19.9-33.6-19.9c-17.8,0-32.4,11-33.6,19.9H295.2z"/>
		<line class="st59" x1="261.6" y1="210.9" x2="261.6" y2="185.9"/>
		<circle class="st5" cx="261.6" cy="185.9" r="2.9"/>
		<circle class="st5" cx="261.6" cy="193.6" r="3.7"/>
		<circle class="st5" cx="261.6" cy="203.2" r="4.7"/>
		<line class="st7" x1="219.5" y1="225.3" x2="219.5" y2="231.9"/>
		<line class="st7" x1="234.9" y1="225.3" x2="234.9" y2="231.9"/>
		<line class="st7" x1="250.3" y1="225.3" x2="250.3" y2="231.9"/>
		<line class="st7" x1="275" y1="225.3" x2="275" y2="231.9"/>
		<line class="st7" x1="262" y1="225.3" x2="262" y2="231.9"/>
		<line class="st7" x1="290.4" y1="225.3" x2="290.4" y2="231.9"/>
		<line class="st7" x1="305.8" y1="225.3" x2="305.8" y2="231.9"/>
		<line class="st7" x1="219.5" y1="231.9" x2="305.4" y2="231.9"/>
		<line class="st7" x1="212.9" y1="318.5" x2="212.9" y2="329.5"/>
		<line class="st7" x1="234.4" y1="318.5" x2="234.4" y2="329.5"/>
		<line class="st7" x1="289.8" y1="318.5" x2="289.8" y2="329.5"/>
		<line class="st7" x1="311.3" y1="318.5" x2="311.3" y2="329.5"/>
		<line class="st7" x1="262" y1="291.4" x2="262" y2="422.6"/>
		<polygon class="st7" points="247.1,352.5 224.3,332.5 201.4,352.5 201.4,309.8 247.1,309.8 		"/>
		<polygon class="st7" points="201.4,366.3 224.3,346.3 247.1,366.3 247.1,408.9 201.4,408.9 		"/>
		<polygon class="st7" points="209.8,371.8 224.3,358.4 238.7,371.8 238.7,400.3 209.8,400.3 		"/>
		<polygon class="st7" points="286.1,371.8 300.6,358.4 315,371.8 315,400.3 286.1,400.3 		"/>
		<polygon class="st7" points="277.7,366.3 300.6,346.3 323.4,366.3 323.4,408.9 277.7,408.9 		"/>
		<polygon class="st7" points="323.4,352.5 300.6,332.5 277.7,352.5 277.7,309.8 323.4,309.8 		"/>
		<line class="st7" x1="224.3" y1="369.7" x2="224.3" y2="393.5"/>
		<line class="st7" x1="300.9" y1="369.7" x2="300.9" y2="393.5"/>
		<line class="st7" x1="248.9" y1="203" x2="248.9" y2="212.9"/>
		<line class="st7" x1="245" y1="246.7" x2="245" y2="266.6"/>
		<line class="st7" x1="277.7" y1="246.7" x2="277.7" y2="266.6"/>
		<line class="st7" x1="179" y1="290.5" x2="347" y2="290.5"/>
		<line class="st7" x1="179" y1="290.5" x2="179" y2="284.3"/>
		<line class="st7" x1="186.4" y1="290.5" x2="186.4" y2="284.3"/>
		<line class="st7" x1="193.7" y1="290.5" x2="193.7" y2="284.3"/>
		<line class="st7" x1="201" y1="290.5" x2="201" y2="284.3"/>
		<line class="st7" x1="208.4" y1="290.5" x2="208.4" y2="284.3"/>
		<line class="st7" x1="215.7" y1="290.5" x2="215.7" y2="284.3"/>
		<line class="st7" x1="223" y1="290.5" x2="223" y2="284.3"/>
		<line class="st7" x1="230.4" y1="290.5" x2="230.4" y2="284.3"/>
		<line class="st7" x1="237.7" y1="290.5" x2="237.7" y2="284.3"/>
		<line class="st7" x1="245" y1="290.5" x2="245" y2="284.3"/>
		<line class="st7" x1="252.4" y1="290.5" x2="252.4" y2="284.3"/>
		<line class="st7" x1="259.7" y1="290.5" x2="259.7" y2="284.3"/>
		<line class="st7" x1="267" y1="290.5" x2="267" y2="284.3"/>
		<line class="st7" x1="274.4" y1="290.5" x2="274.4" y2="284.3"/>
		<line class="st7" x1="281.7" y1="290.5" x2="281.7" y2="284.3"/>
		<line class="st7" x1="289" y1="290.5" x2="289" y2="284.3"/>
		<line class="st7" x1="296.4" y1="290.5" x2="296.4" y2="284.3"/>
		<line class="st7" x1="303.7" y1="290.5" x2="303.7" y2="284.3"/>
		<line class="st7" x1="311" y1="290.5" x2="311" y2="284.3"/>
		<line class="st7" x1="318.4" y1="290.5" x2="318.4" y2="284.3"/>
		<line class="st7" x1="325.7" y1="290.5" x2="325.7" y2="284.3"/>
		<line class="st7" x1="333" y1="290.5" x2="333" y2="284.3"/>
		<line class="st7" x1="340.4" y1="290.5" x2="340.4" y2="284.3"/>
		<line class="st7" x1="347.7" y1="290.5" x2="347.7" y2="284.3"/>
	</g>
</g>
</svg>
