<?xml version="1.0" encoding="utf-8"?>
<!-- Generator: Adobe Illustrator 19.1.0, SVG Export Plug-In . SVG Version: 6.00 Build 0)  -->
<svg version="1.1" xmlns="http://www.w3.org/2000/svg" xmlns:xlink="http://www.w3.org/1999/xlink" x="0px" y="0px"
	 viewBox="0 0 474.2 382.4" style="enable-background:new 0 0 474.2 382.4;" xml:space="preserve">
<style type="text/css">
	.st0{fill:#EDEDED;}
	.st1{fill:#59595A;}
	.st2{fill:none;stroke:#59595B;stroke-width:5;stroke-linejoin:round;stroke-miterlimit:10;}
	.st3{fill:none;stroke:#59595B;stroke-width:4.1457;stroke-linejoin:round;stroke-miterlimit:10;}
	.st4{fill:#F6F5F5;}
	.st5{fill:#59595B;}
	.st6{fill:none;stroke:#59595B;stroke-width:4.0874;stroke-linecap:round;stroke-linejoin:round;stroke-miterlimit:10;}
	.st7{fill:none;stroke:#59595B;stroke-width:5;stroke-linecap:round;stroke-linejoin:round;stroke-miterlimit:10;}
	.st8{fill:#EFEFEF;stroke:#59595B;stroke-width:5;stroke-linecap:round;stroke-linejoin:round;stroke-miterlimit:10;}
	.st9{fill:#EDECED;}
	.st10{fill:none;stroke:#5A5B5B;stroke-width:5;stroke-miterlimit:10;}
	.st11{fill:none;stroke:#5A5B5C;stroke-width:5;stroke-linecap:round;stroke-linejoin:round;stroke-miterlimit:10;}
	.st12{fill:#EDECED;stroke:#5A5B5C;stroke-width:5;stroke-linecap:round;stroke-linejoin:round;stroke-miterlimit:10;}
	.st13{fill:#5A5B5C;stroke:#5A5B5C;stroke-width:5;stroke-linecap:round;stroke-linejoin:round;stroke-miterlimit:10;}
	.st14{fill:none;stroke:#5A5B5B;stroke-width:5;stroke-linecap:round;stroke-linejoin:round;stroke-miterlimit:10;}
	.st15{fill:#F0EFEF;stroke:#5A5B5B;stroke-width:5;stroke-linecap:round;stroke-linejoin:round;stroke-miterlimit:10;}
	.st16{fill:#E8E8E8;stroke:#5A5B5C;stroke-width:5;stroke-linecap:round;stroke-linejoin:round;stroke-miterlimit:10;}
	.st17{fill:#FFFFFF;stroke:#5A5B5B;stroke-width:5;stroke-linecap:round;stroke-linejoin:round;stroke-miterlimit:10;}
	.st18{fill:#EFEFEF;stroke:#59595A;stroke-width:5;stroke-linecap:round;stroke-linejoin:round;stroke-miterlimit:10;}
	.st19{fill:none;stroke:#59595A;stroke-width:5;stroke-miterlimit:10;}
	.st20{fill:none;stroke:#59595A;stroke-width:5;stroke-linecap:round;stroke-miterlimit:10;}
	.st21{fill:none;stroke:#59595A;stroke-width:5;stroke-linejoin:round;stroke-miterlimit:10;}
	.st22{fill:none;stroke:#59595A;stroke-width:4.539;stroke-miterlimit:10;}
	.st23{fill:none;stroke:#59595A;stroke-width:4.1349;stroke-miterlimit:10;}
	.st24{fill:none;stroke:#59595A;stroke-width:3.9798;stroke-miterlimit:10;}
	.st25{fill:none;stroke:#58595B;stroke-width:5;stroke-miterlimit:10;}
	.st26{fill:none;stroke:#58595B;stroke-width:5;stroke-linejoin:round;stroke-miterlimit:10;}
	.st27{fill:none;stroke:#58595B;stroke-width:5;stroke-linecap:round;stroke-linejoin:round;stroke-miterlimit:10;}
	.st28{fill:none;stroke:#59595B;stroke-width:4.2054;stroke-linecap:round;stroke-linejoin:round;stroke-miterlimit:10;}
	.st29{fill:none;stroke:#59595B;stroke-width:5;stroke-miterlimit:10;}
	.st30{fill:#EDECEC;stroke:#59595B;stroke-width:5;stroke-linecap:round;stroke-linejoin:round;stroke-miterlimit:10;}
	.st31{fill:#EDEDED;stroke:#59595A;stroke-width:5;stroke-miterlimit:10;}
	.st32{fill:#EDEDED;stroke:#59595B;stroke-width:5;stroke-linecap:round;stroke-linejoin:round;stroke-miterlimit:10;}
	.st33{fill:none;stroke:#59595A;stroke-width:5;stroke-linecap:round;stroke-linejoin:round;stroke-miterlimit:10;}
	.st34{fill:#58595B;}
	.st35{fill:#59595A;stroke:#EDEDED;stroke-width:3;stroke-miterlimit:10;}
	.st36{fill:#59595A;stroke:#EDEDED;stroke-miterlimit:10;}
	.st37{fill:#EFEFEF;stroke:#59595A;stroke-width:5;stroke-linecap:round;stroke-miterlimit:10;}
	.st38{fill:#EDEDED;stroke:#59595A;stroke-width:5;stroke-linecap:round;stroke-linejoin:round;stroke-miterlimit:10;}
	.st39{fill-rule:evenodd;clip-rule:evenodd;fill:#59595B;}
	
		.st40{fill-rule:evenodd;clip-rule:evenodd;fill:none;stroke:#59595B;stroke-width:5;stroke-linecap:round;stroke-linejoin:round;stroke-miterlimit:10;}
	.st41{fill:none;stroke:#5A5B5C;stroke-width:4.1457;stroke-linejoin:round;stroke-miterlimit:10;}
	.st42{fill:none;stroke:#5A5B5B;stroke-width:4.539;stroke-miterlimit:10;}
	.st43{fill:none;stroke:#5A5B5B;stroke-width:4.1349;stroke-miterlimit:10;}
	.st44{fill:none;stroke:#5A5B5B;stroke-width:3.9798;stroke-miterlimit:10;}
	.st45{fill:none;stroke:#5A5B5C;stroke-width:4;stroke-linecap:round;stroke-linejoin:round;stroke-miterlimit:10;}
	.st46{fill:none;stroke:#595A5C;stroke-width:5;stroke-linecap:round;stroke-linejoin:round;stroke-miterlimit:10;}
	.st47{fill:#5A5B5C;}
	.st48{fill:none;stroke:#595A5C;stroke-width:5;stroke-linejoin:round;stroke-miterlimit:10;}
	.st49{fill:none;stroke:#5A5B5B;stroke-width:5;stroke-linecap:round;stroke-miterlimit:10;}
	.st50{fill:#5A5B5B;}
	.st51{fill:#5A5B5C;stroke:#5A5B5C;stroke-miterlimit:10;}
	.st52{fill:#595A5C;}
	.st53{fill:#EDECED;stroke:#5A5B5B;stroke-width:5;stroke-miterlimit:10;}
	.st54{fill:#FFFFFF;stroke:#5A5B5B;stroke-width:5;stroke-miterlimit:10;}
	.st55{fill:#FFFFFF;stroke:#5A5B5C;stroke-width:5;stroke-linecap:round;stroke-linejoin:round;stroke-miterlimit:10;}
	.st56{fill:#FFFFFF;stroke:#59595B;stroke-width:5;stroke-linecap:round;stroke-linejoin:round;stroke-miterlimit:10;}
	.st57{fill:#FFFFFF;stroke:#59595A;stroke-width:5;stroke-linecap:round;stroke-linejoin:round;stroke-miterlimit:10;}
	.st58{fill:#FFFFFF;stroke:#59595A;stroke-width:5;stroke-miterlimit:10;}
	.st59{fill:none;stroke:#59595B;stroke-width:3.8573;stroke-linejoin:round;stroke-miterlimit:10;}
	.st60{fill:#EDEDED;stroke:#59595B;stroke-width:5;stroke-miterlimit:10;}
	.st61{fill:none;stroke:#59595B;stroke-width:5;stroke-linecap:round;stroke-miterlimit:10;}
	.st62{fill:#59595B;stroke:#59595A;stroke-width:5;stroke-linecap:round;stroke-linejoin:round;stroke-miterlimit:10;}
	.st63{fill:#FFFFFF;stroke:#59595B;stroke-width:5;stroke-miterlimit:10;}
	.st64{fill:#EAEAEA;stroke:#59595A;stroke-width:5;stroke-linecap:round;stroke-linejoin:round;stroke-miterlimit:10;}
	.st65{fill:#EAEAEA;stroke:#59595A;stroke-width:5;stroke-linecap:round;stroke-miterlimit:10;}
</style>
<g id="Background">
</g>
<g id="_x23_Tower_x5F_Bridge">
</g>
<g id="_x23_Washington_x5F_Mountain">
</g>
<g id="_x23_London_x5F_Eye">
</g>
<g id="_x23_Eiffel_x5F_Tower">
	<g id="New_Symbol">
	</g>
</g>
<g id="_x23_Forbidden_x5F_City">
</g>
<g id="_x23_Sydney_x5F_Opera_x5F_House">
</g>
<g id="_x23_Space_x5F_Needle">
</g>
<g id="_x23_Pyramid">
</g>
<g id="_x23_The_x5F_Pantheon">
</g>
<g id="_x23_Emirates_x5F_Towers">
</g>
<g id="_x23_China_x5F_wall">
	<g id="_x23_Empire_x5F_State_x5F_Building">
	</g>
	<g>
		<g>
			<line class="st19" x1="474.2" y1="370" x2="0" y2="370"/>
			<line class="st19" x1="427.3" y1="379.9" x2="33.7" y2="379.9"/>
		</g>
		<g>
			<ellipse class="st33" cx="105.7" cy="218.6" rx="7.9" ry="10.7"/>
			<path class="st33" d="M113.8,231c0,0,0.8-4.6,3.4-4.9c2.5-0.3-0.7-3.4,0.4-4.4c1.1-1,1.1-3.2,0.2-6.9c-0.9-3.7,2.4-3.6-1.6-7.3
				c-4-3.7-5.1-1.9-5.4-2.4c-0.3-0.5-0.6-3.9-4.9-3.4c-4.3,0.5-2.8,1.7-4.4,2.2c-1.6,0.5-4,2-5.7,3c-1.7,1-0.3,3-1.4,5.6
				s-1.6,7.8,0,10.8c1.6,3-0.8,4.4,1.4,4.6c2.2,0.2,1.7,1.9,2.7,2.2"/>
			<path class="st33" d="M101.6,229.3c0,2.1-6.3,6.5-6.3,6.5"/>
			<path class="st33" d="M113.6,236.6c0,0-0.8-0.9-4-7.3"/>
			<path class="st33" d="M88.1,238.7c0,0-2.8,6.8-2.4,10.6s1.9,9.2,1.2,10.8c-0.8,1.5-1.7,2.9-3.9,3.4c-2.1,0.5,1.3,2.9-1.6,4
				c-2.8,1.1-3.4,10.8-2.3,11.2s-8-0.6-5.2,10.3c0,0-8.9-12.3-3.5-23.4c5.4-11.1,9-14.8,9-14.8S80.8,238.7,88.1,238.7z"/>
			<path class="st33" d="M83.3,292c0,0-8.2,3.5-8.7-0.8s-3.8-10,4.4-12.2s4.9,1.1,4.4,1.2c-0.6,0.2-3.1,0-3.4,1.4
				c-0.3,1.4,0,4.4,3,7S83.3,292,83.3,292z"/>
			<path class="st33" d="M87.4,278.4c0.9-0.1,5.4,1.2,5.9,3.4c0.5,2.2-6,9.1-6,9.1"/>
			<path class="st33" d="M88.1,238.7c0,0,3-5.1,27.3-2c0,0-1.8,11.5,3.6,17.4c3.1,3.3-10.1-2.6-10.1-2.6"/>
			<path class="st33" d="M87.1,262.3c0.6-0.3-1.2,11.3-1.2,11.3"/>
			<path class="st33" d="M108,252.8l0.7,5.5c0,0-6.2,1.8-7.6,3.3s-6.4-7.3-2.1-8.9c0,0-2.2-3.2,4-3.9
				C109.1,248.3,108,252.8,108,252.8z"/>
			<path class="st33" d="M123.2,344.6c-0.8-9.9,10.3-57.3,3.5-87c-1.2-5.4-11.7-24.8,1.1-21.8c5.8,1.4,6.7,3.8,6.7,3.8"/>
			<path class="st33" d="M85.9,274.1c1.4,1.1,13.1-10.9,13.1-10.9"/>
			<path class="st33" d="M108.4,275.6c-8.6,31.2-19.7,35.9-23.9,40.4"/>
			<path class="st33" d="M74.9,361.3l46.1,0.1l3.2-0.1c9.9-4.9,6.6-8.3,6.6-8.3c7,0,7.3-1.1,7.3-1.1c-1.8-9.4-2.7-81.8-2.7-81.8
				l2.7-2l-2.1-4.2l1.3-0.4c-0.1-8.3-6.5-22.2-6.5-22.2l2.7-1.5l-5.9,2.6"/>
			<path class="st33" d="M81.1,295.1c0,0-13.5,53-8.5,54.7c0,0-2.5,3.1-0.1,6.9"/>
			<path class="st33" d="M108.7,264.6c29.5,3.6-3,54.1-19.5,65.3c-7.7,5.2-8.1,18.4-8.1,18.4"/>
			<path class="st33" d="M92.5,353.1c0,0,17.2-5.8,24.4-37.1"/>
			<rect x="70.4" y="361.3" class="st33" width="61.1" height="8.1"/>
		</g>
		<g>
			<path class="st7" d="M136,126.4c14.5-8.5,24.3-2,25.5,10.2c1.2,12.2-13.3,14.7-13.3,14.7H86.8c0,0-12.6-3.7-11.3-14.7
				c1.6-14.1,15.2-14.1,20-7"/>
			<path class="st7" d="M91.3,125.8c-5.9-7,5.9-23.2,19.4-14.2"/>
			<path class="st7" d="M109,117.2c0,0,5.7-17.9,22.5-13.6c14.5,3.7,12.5,18.9,12.5,18.9"/>
		</g>
		<g>
			<path class="st7" d="M312.1,41.6c5.7-6,15.6-1,16,7s-8,10.3-8,10.3h-30c0,0-8.3-2.7-6.7-11.3s12-7,12.7-5.3"/>
			<path class="st7" d="M318.8,39c0,0-1.5-11.4-13.1-10.4c-11.6,1-11.1,12.7-11.1,12.7"/>
		</g>
		<g>
			<path class="st7" d="M412.4,116.6c-8.2-8.6-22.5-1.4-23,10.1s11.5,14.9,11.5,14.9H444c0,0,12-3.8,9.6-16.3
				c-2.4-12.5-17.3-10.1-18.2-7.7"/>
			<path class="st7" d="M402.8,112.8c0,0,2.2-16.3,18.9-14.9s16,18.3,16,18.3"/>
		</g>
		<circle class="st1" cx="250.3" cy="62.6" r="2.3"/>
		<g>
			<path class="st7" d="M295.4,258.6c0-2.5-3.9-4.5-8.7-4.5s-8.7,2-8.7,4.5"/>
			<polyline class="st7" points="295.4,259.4 295.4,291.7 286.7,287.8 278,291.7 278,259.4 			"/>
		</g>
		<line class="st33" x1="247.1" y1="95.6" x2="247.1" y2="124.2"/>
		<polygon class="st33" points="194.1,304.4 159.7,334.4 159.7,370 194.1,370 		"/>
		<polygon class="st33" points="216.2,252.1 194.1,269.6 194.1,369.5 216.2,369.5 		"/>
		<rect x="216.2" y="140.3" class="st33" width="45.7" height="229.2"/>
		<rect x="221.3" y="79.7" class="st33" width="34.7" height="60.6"/>
		<path class="st33" d="M221.3,79.1L221.3,79.1c0-5.7,4.6-10.3,10.3-10.3h14.1c5.7,0,10.3,4.6,10.3,10.3v0"/>
		<line class="st33" x1="218.2" y1="79.7" x2="259.2" y2="79.7"/>
		<circle class="st1" cx="226.9" cy="62.6" r="2.3"/>
		<circle class="st1" cx="238.7" cy="62.6" r="2.3"/>
		<circle class="st1" cx="238.7" cy="2.3" r="2.3"/>
		<polyline class="st33" points="245.4,68.3 238.7,9.1 231.6,68.3 		"/>
		<line class="st33" x1="233.3" y1="28.5" x2="244" y2="28.5"/>
		<line class="st33" x1="239" y1="95.6" x2="239" y2="124.2"/>
		<line class="st33" x1="230.2" y1="95.6" x2="230.2" y2="124.2"/>
		<line class="st33" x1="213.4" y1="140.3" x2="264.7" y2="140.3"/>
		<g>
			<path class="st7" d="M235.4,301.9c0-0.8-1.5-1.4-3.4-1.4c-1.9,0-3.4,0.6-3.4,1.4"/>
			<polyline class="st7" points="235.4,302.2 235.4,312.2 228.5,312.2 228.5,302.2 			"/>
		</g>
		<g>
			<path class="st7" d="M249.6,301.9c0-0.8-1.5-1.4-3.4-1.4s-3.4,0.6-3.4,1.4"/>
			<polyline class="st7" points="249.6,302.2 249.6,312.2 242.8,312.2 242.8,302.2 			"/>
		</g>
		<g>
			<path class="st7" d="M242.5,325.9c0-0.8-1.5-1.4-3.4-1.4s-3.4,0.6-3.4,1.4"/>
			<polyline class="st7" points="242.5,326.2 242.5,336.3 235.7,336.3 235.7,326.2 			"/>
		</g>
		<g>
			<path class="st7" d="M242.5,279c0-0.8-1.5-1.4-3.4-1.4s-3.4,0.6-3.4,1.4"/>
			<polyline class="st7" points="242.5,279.2 242.5,289.3 235.7,289.3 235.7,279.2 			"/>
		</g>
		<g>
			<path class="st7" d="M242.5,258c0-0.8-1.5-1.4-3.4-1.4s-3.4,0.6-3.4,1.4"/>
			<polyline class="st7" points="242.5,258.3 242.5,268.4 235.7,268.4 235.7,258.3 			"/>
		</g>
		<g>
			<path class="st7" d="M242.5,237.1c0-0.8-1.5-1.4-3.4-1.4s-3.4,0.6-3.4,1.4"/>
			<polyline class="st7" points="242.5,237.4 242.5,247.5 235.7,247.5 235.7,237.4 			"/>
		</g>
		<g>
			<path class="st7" d="M242.5,216.2c0-0.8-1.5-1.4-3.4-1.4s-3.4,0.6-3.4,1.4"/>
			<polyline class="st7" points="242.5,216.4 242.5,226.5 235.7,226.5 235.7,216.4 			"/>
		</g>
		<g>
			<path class="st7" d="M242.5,195.3c0-0.8-1.5-1.4-3.4-1.4s-3.4,0.6-3.4,1.4"/>
			<polyline class="st7" points="242.5,195.5 242.5,205.6 235.7,205.6 235.7,195.5 			"/>
		</g>
		<g>
			<path class="st7" d="M242.5,174.3c0-0.8-1.5-1.4-3.4-1.4s-3.4,0.6-3.4,1.4"/>
			<polyline class="st7" points="242.5,174.6 242.5,184.7 235.7,184.7 235.7,174.6 			"/>
		</g>
		<g>
			<path class="st7" d="M242.5,153.4c0-0.8-1.5-1.4-3.4-1.4s-3.4,0.6-3.4,1.4"/>
			<polyline class="st7" points="242.5,153.7 242.5,163.7 235.7,163.7 235.7,153.7 			"/>
		</g>
		<g>
			<path class="st7" d="M180.4,347.8c0-0.8-1.5-1.4-3.4-1.4s-3.4,0.6-3.4,1.4"/>
			<polyline class="st7" points="180.4,348 180.4,358.1 173.5,358.1 173.5,348 			"/>
		</g>
		<polygon class="st33" points="380.2,304.4 414.6,334.4 414.6,370 380.2,370 		"/>
		<polygon class="st33" points="358.1,252.1 380.3,269.6 380.3,369.5 358.1,369.5 		"/>
		<rect x="312.5" y="140.3" class="st33" width="45.7" height="229.2"/>
		<circle class="st1" cx="335.3" cy="70.6" r="2.3"/>
		<line class="st33" x1="360.9" y1="140.3" x2="309.7" y2="140.3"/>
		<g>
			<path class="st7" d="M339,301.9c0-0.8,1.5-1.4,3.4-1.4s3.4,0.6,3.4,1.4"/>
			<polyline class="st7" points="339,302.2 339,312.2 345.8,312.2 345.8,302.2 			"/>
		</g>
		<g>
			<path class="st7" d="M324.8,301.9c0-0.8,1.5-1.4,3.4-1.4s3.4,0.6,3.4,1.4"/>
			<polyline class="st7" points="324.8,302.2 324.8,312.2 331.6,312.2 331.6,302.2 			"/>
		</g>
		<g>
			<path class="st7" d="M331.9,325.9c0-0.8,1.5-1.4,3.4-1.4s3.4,0.6,3.4,1.4"/>
			<polyline class="st7" points="331.9,326.2 331.9,336.3 338.7,336.3 338.7,326.2 			"/>
		</g>
		<g>
			<path class="st7" d="M331.9,279c0-0.8,1.5-1.4,3.4-1.4s3.4,0.6,3.4,1.4"/>
			<polyline class="st7" points="331.9,279.2 331.9,289.3 338.7,289.3 338.7,279.2 			"/>
		</g>
		<g>
			<path class="st7" d="M331.9,258c0-0.8,1.5-1.4,3.4-1.4s3.4,0.6,3.4,1.4"/>
			<polyline class="st7" points="331.9,258.3 331.9,268.4 338.7,268.4 338.7,258.3 			"/>
		</g>
		<g>
			<path class="st7" d="M331.9,237.1c0-0.8,1.5-1.4,3.4-1.4s3.4,0.6,3.4,1.4"/>
			<polyline class="st7" points="331.9,237.4 331.9,247.5 338.7,247.5 338.7,237.4 			"/>
		</g>
		<g>
			<path class="st7" d="M331.9,216.2c0-0.8,1.5-1.4,3.4-1.4s3.4,0.6,3.4,1.4"/>
			<polyline class="st7" points="331.9,216.4 331.9,226.5 338.7,226.5 338.7,216.4 			"/>
		</g>
		<g>
			<path class="st7" d="M331.9,195.3c0-0.8,1.5-1.4,3.4-1.4s3.4,0.6,3.4,1.4"/>
			<polyline class="st7" points="331.9,195.5 331.9,205.6 338.7,205.6 338.7,195.5 			"/>
		</g>
		<g>
			<path class="st7" d="M331.9,174.3c0-0.8,1.5-1.4,3.4-1.4s3.4,0.6,3.4,1.4"/>
			<polyline class="st7" points="331.9,174.6 331.9,184.7 338.7,184.7 338.7,174.6 			"/>
		</g>
		<g>
			<path class="st7" d="M331.9,153.4c0-0.8,1.5-1.4,3.4-1.4s3.4,0.6,3.4,1.4"/>
			<polyline class="st7" points="331.9,153.7 331.9,163.7 338.7,163.7 338.7,153.7 			"/>
		</g>
		<g>
			<path class="st7" d="M394,347.8c0-0.8,1.5-1.4,3.4-1.4c1.9,0,3.4,0.6,3.4,1.4"/>
			<polyline class="st7" points="394,348 394,358.1 400.8,358.1 400.8,348 			"/>
		</g>
		<rect x="261.9" y="240.6" class="st7" width="49.5" height="128.8"/>
		<rect x="261.9" y="200.6" class="st7" width="49.5" height="40.1"/>
		<polygon class="st7" points="305.7,200.7 267.6,200.7 286.7,183.9 		"/>
		<rect x="256" y="324.5" class="st56" width="60.7" height="44.9"/>
		<line class="st7" x1="252.5" y1="331.2" x2="320.3" y2="331.2"/>
		<line class="st7" x1="252.5" y1="324.2" x2="320.3" y2="324.2"/>
		<g>
			<path class="st7" d="M295.1,351.9c0-1.4-3.8-2.4-8.4-2.4c-4.7,0-8.4,1.1-8.4,2.4"/>
			<polyline class="st7" points="295.1,352.3 295.1,369.8 278.2,369.8 278.2,352.3 			"/>
		</g>
		<g>
			<path class="st7" d="M295.1,306.2c0-1.4-3.8-4.4-8.4-4.4c-4.7,0-8.4,3.1-8.4,4.4"/>
			<polyline class="st7" points="295.1,306.7 295.1,324.2 278.2,324.2 278.2,306.7 			"/>
		</g>
		<g>
			<path class="st7" d="M353.7,102.7c0-2.8-7.9-9.3-17.7-9.3c-9.8,0-17.7,6.5-17.7,9.3"/>
			<polyline class="st7" points="353.7,103.6 353.7,140.3 318.3,140.3 318.3,103.6 			"/>
		</g>
		<line class="st7" x1="267.3" y1="368.6" x2="267.3" y2="348.6"/>
		<line class="st7" x1="286.7" y1="322.5" x2="286.7" y2="315.2"/>
		<line class="st7" x1="305.7" y1="368.6" x2="305.7" y2="348.6"/>
		<line class="st7" x1="286.7" y1="171" x2="286.7" y2="180.6"/>
		<line class="st7" x1="283.7" y1="174.7" x2="289.7" y2="174.7"/>
		<line class="st7" x1="275" y1="308.9" x2="298.3" y2="308.9"/>
		<path class="st56" d="M327.9,124.8c0,0-2.3-3-7.7-3s-7.7,3-7.7,3v15.4h15.4V124.8z"/>
		<path class="st7" d="M343,93.4v-13c0,0-2.3-3.7-7.7-3.7s-7.7,3.7-7.7,3.7v13"/>
		<path class="st56" d="M358.2,124.8c0,0-2.3-3-7.7-3s-7.7,3-7.7,3v15.4h15.4V124.8z"/>
	</g>
</g>
</svg>
