<?xml version="1.0" encoding="utf-8"?>
<!-- Generator: Adobe Illustrator 19.1.0, SVG Export Plug-In . SVG Version: 6.00 Build 0)  -->
<svg version="1.1" xmlns="http://www.w3.org/2000/svg" xmlns:xlink="http://www.w3.org/1999/xlink" x="0px" y="0px"
	 viewBox="0 0 474.2 390.9" style="enable-background:new 0 0 474.2 390.9;" xml:space="preserve">
<style type="text/css">
	.st0{fill:#EDEDED;}
	.st1{fill:#59595A;}
	.st2{fill:none;stroke:#59595B;stroke-width:5;stroke-linejoin:round;stroke-miterlimit:10;}
	.st3{fill:none;stroke:#59595B;stroke-width:4.1457;stroke-linejoin:round;stroke-miterlimit:10;}
	.st4{fill:#F6F5F5;}
	.st5{fill:#59595B;}
	.st6{fill:none;stroke:#59595B;stroke-width:4.0874;stroke-linecap:round;stroke-linejoin:round;stroke-miterlimit:10;}
	.st7{fill:none;stroke:#59595B;stroke-width:5;stroke-linecap:round;stroke-linejoin:round;stroke-miterlimit:10;}
	.st8{fill:#EFEFEF;stroke:#59595B;stroke-width:5;stroke-linecap:round;stroke-linejoin:round;stroke-miterlimit:10;}
	.st9{fill:#EDECED;}
	.st10{fill:none;stroke:#5A5B5B;stroke-width:5;stroke-miterlimit:10;}
	.st11{fill:none;stroke:#5A5B5C;stroke-width:5;stroke-linecap:round;stroke-linejoin:round;stroke-miterlimit:10;}
	.st12{fill:#EDECED;stroke:#5A5B5C;stroke-width:5;stroke-linecap:round;stroke-linejoin:round;stroke-miterlimit:10;}
	.st13{fill:#5A5B5C;stroke:#5A5B5C;stroke-width:5;stroke-linecap:round;stroke-linejoin:round;stroke-miterlimit:10;}
	.st14{fill:none;stroke:#5A5B5B;stroke-width:5;stroke-linecap:round;stroke-linejoin:round;stroke-miterlimit:10;}
	.st15{fill:#F0EFEF;stroke:#5A5B5B;stroke-width:5;stroke-linecap:round;stroke-linejoin:round;stroke-miterlimit:10;}
	.st16{fill:#E8E8E8;stroke:#5A5B5C;stroke-width:5;stroke-linecap:round;stroke-linejoin:round;stroke-miterlimit:10;}
	.st17{fill:#FFFFFF;stroke:#5A5B5B;stroke-width:5;stroke-linecap:round;stroke-linejoin:round;stroke-miterlimit:10;}
	.st18{fill:#EFEFEF;stroke:#59595A;stroke-width:5;stroke-linecap:round;stroke-linejoin:round;stroke-miterlimit:10;}
	.st19{fill:none;stroke:#59595A;stroke-width:5;stroke-miterlimit:10;}
	.st20{fill:none;stroke:#59595A;stroke-width:5;stroke-linecap:round;stroke-miterlimit:10;}
	.st21{fill:none;stroke:#59595A;stroke-width:5;stroke-linejoin:round;stroke-miterlimit:10;}
	.st22{fill:none;stroke:#59595A;stroke-width:4.539;stroke-miterlimit:10;}
	.st23{fill:none;stroke:#59595A;stroke-width:4.1349;stroke-miterlimit:10;}
	.st24{fill:none;stroke:#59595A;stroke-width:3.9798;stroke-miterlimit:10;}
	.st25{fill:none;stroke:#58595B;stroke-width:5;stroke-miterlimit:10;}
	.st26{fill:none;stroke:#58595B;stroke-width:5;stroke-linejoin:round;stroke-miterlimit:10;}
	.st27{fill:none;stroke:#58595B;stroke-width:5;stroke-linecap:round;stroke-linejoin:round;stroke-miterlimit:10;}
	.st28{fill:none;stroke:#59595B;stroke-width:4.2054;stroke-linecap:round;stroke-linejoin:round;stroke-miterlimit:10;}
	.st29{fill:none;stroke:#59595B;stroke-width:5;stroke-miterlimit:10;}
	.st30{fill:#EDECEC;stroke:#59595B;stroke-width:5;stroke-linecap:round;stroke-linejoin:round;stroke-miterlimit:10;}
	.st31{fill:#EDEDED;stroke:#59595A;stroke-width:5;stroke-miterlimit:10;}
	.st32{fill:#EDEDED;stroke:#59595B;stroke-width:5;stroke-linecap:round;stroke-linejoin:round;stroke-miterlimit:10;}
	.st33{fill:none;stroke:#59595A;stroke-width:5;stroke-linecap:round;stroke-linejoin:round;stroke-miterlimit:10;}
	.st34{fill:#58595B;}
	.st35{fill:#59595A;stroke:#EDEDED;stroke-width:3;stroke-miterlimit:10;}
	.st36{fill:#59595A;stroke:#EDEDED;stroke-miterlimit:10;}
	.st37{fill:#EFEFEF;stroke:#59595A;stroke-width:5;stroke-linecap:round;stroke-miterlimit:10;}
	.st38{fill:#EDEDED;stroke:#59595A;stroke-width:5;stroke-linecap:round;stroke-linejoin:round;stroke-miterlimit:10;}
	.st39{fill-rule:evenodd;clip-rule:evenodd;fill:#59595B;}
	
		.st40{fill-rule:evenodd;clip-rule:evenodd;fill:none;stroke:#59595B;stroke-width:5;stroke-linecap:round;stroke-linejoin:round;stroke-miterlimit:10;}
	.st41{fill:none;stroke:#5A5B5C;stroke-width:4.1457;stroke-linejoin:round;stroke-miterlimit:10;}
	.st42{fill:none;stroke:#5A5B5B;stroke-width:4.539;stroke-miterlimit:10;}
	.st43{fill:none;stroke:#5A5B5B;stroke-width:4.1349;stroke-miterlimit:10;}
	.st44{fill:none;stroke:#5A5B5B;stroke-width:3.9798;stroke-miterlimit:10;}
	.st45{fill:none;stroke:#5A5B5C;stroke-width:4;stroke-linecap:round;stroke-linejoin:round;stroke-miterlimit:10;}
	.st46{fill:none;stroke:#595A5C;stroke-width:5;stroke-linecap:round;stroke-linejoin:round;stroke-miterlimit:10;}
	.st47{fill:#5A5B5C;}
	.st48{fill:none;stroke:#595A5C;stroke-width:5;stroke-linejoin:round;stroke-miterlimit:10;}
	.st49{fill:none;stroke:#5A5B5B;stroke-width:5;stroke-linecap:round;stroke-miterlimit:10;}
	.st50{fill:#5A5B5B;}
	.st51{fill:#5A5B5C;stroke:#5A5B5C;stroke-miterlimit:10;}
	.st52{fill:#595A5C;}
	.st53{fill:#EDECED;stroke:#5A5B5B;stroke-width:5;stroke-miterlimit:10;}
	.st54{fill:#FFFFFF;stroke:#5A5B5B;stroke-width:5;stroke-miterlimit:10;}
	.st55{fill:#FFFFFF;stroke:#5A5B5C;stroke-width:5;stroke-linecap:round;stroke-linejoin:round;stroke-miterlimit:10;}
	.st56{fill:#FFFFFF;stroke:#59595B;stroke-width:5;stroke-linecap:round;stroke-linejoin:round;stroke-miterlimit:10;}
	.st57{fill:#FFFFFF;stroke:#59595A;stroke-width:5;stroke-linecap:round;stroke-linejoin:round;stroke-miterlimit:10;}
	.st58{fill:#FFFFFF;stroke:#59595A;stroke-width:5;stroke-miterlimit:10;}
	.st59{fill:none;stroke:#59595B;stroke-width:3.8573;stroke-linejoin:round;stroke-miterlimit:10;}
	.st60{fill:#EDEDED;stroke:#59595B;stroke-width:5;stroke-miterlimit:10;}
	.st61{fill:none;stroke:#59595B;stroke-width:5;stroke-linecap:round;stroke-miterlimit:10;}
	.st62{fill:#59595B;stroke:#59595A;stroke-width:5;stroke-linecap:round;stroke-linejoin:round;stroke-miterlimit:10;}
	.st63{fill:#FFFFFF;stroke:#59595B;stroke-width:5;stroke-miterlimit:10;}
	.st64{fill:#EAEAEA;stroke:#59595A;stroke-width:5;stroke-linecap:round;stroke-linejoin:round;stroke-miterlimit:10;}
	.st65{fill:#EAEAEA;stroke:#59595A;stroke-width:5;stroke-linecap:round;stroke-miterlimit:10;}
</style>
<g id="Background">
</g>
<g id="_x23_Tower_x5F_Bridge">
</g>
<g id="_x23_Washington_x5F_Mountain">
</g>
<g id="_x23_London_x5F_Eye">
</g>
<g id="_x23_Eiffel_x5F_Tower">
	<g id="New_Symbol">
	</g>
	<g>
		<line class="st41" x1="232.4" y1="378.5" x2="48.4" y2="378.5"/>
		<line class="st10" x1="474.2" y1="378.5" x2="0" y2="378.5"/>
		<line class="st10" x1="427.3" y1="388.4" x2="33.7" y2="388.4"/>
		<polyline class="st11" points="28.5,220.7 96,226.7 136.5,251.7 171,277.7 205.5,295.7 243,298.7 261,319.7 279,351.2 		"/>
		<path class="st11" d="M120,241.7l70.5-49.5c0,0-1.5-9,4.5-19.5s7.5-22.5,12-30c4.5-7.5,12-33,12-33l4.5-15l4.5-18l16.5-28.5l30,45
			c0,0,7.5,4.5,12,6c4.5,1.5,11,18.5,11,18.5l27,33l13,26.5l10.5,24l31.5,34.5l33,15l28.5,6"/>
		<polyline class="st11" points="258,112.7 288,139.7 298,178.7 		"/>
		<polyline class="st11" points="59.9,246.6 99.9,252.1 130.1,278.7 		"/>
		<g>
			<path class="st7" d="M407,48.9c14.5-8.5,24.3-2,25.5,10.2s-13.3,14.7-13.3,14.7h-61.3c0,0-12.6-3.7-11.3-14.7
				c1.6-14.1,15.2-14.1,20-7"/>
			<path class="st7" d="M362.4,48.3c-5.9-7,5.9-23.2,19.4-14.2"/>
			<path class="st7" d="M380,39.7c0,0,5.7-17.9,22.5-13.6C417,29.9,415,45,415,45"/>
		</g>
		<g>
			<path class="st7" d="M200.3,15.6c5.7-6,15.6-1,16,7s-8,10.3-8,10.3h-30c0,0-8.3-2.7-6.7-11.3c1.7-8.7,12-7,12.7-5.3"/>
			<path class="st7" d="M206.9,12.9c0,0-1.5-11.4-13.1-10.4c-11.6,1-11.1,12.7-11.1,12.7"/>
		</g>
		<g>
			<path class="st7" d="M73,71.8c-8.2-8.6-22.5-1.4-23,10.1c-0.6,11.5,11.5,14.9,11.5,14.9h43.2c0,0,12-3.8,9.6-16.3
				C111.9,68,97,70.4,96.1,72.8"/>
			<path class="st7" d="M63.4,68c0,0,2.2-16.3,18.9-14.9s16,18.3,16,18.3"/>
		</g>
	</g>
</g>
<g id="_x23_Forbidden_x5F_City">
</g>
<g id="_x23_Sydney_x5F_Opera_x5F_House">
</g>
<g id="_x23_Space_x5F_Needle">
</g>
<g id="_x23_Pyramid">
</g>
<g id="_x23_The_x5F_Pantheon">
</g>
<g id="_x23_Emirates_x5F_Towers">
</g>
<g id="_x23_China_x5F_wall">
	<g id="_x23_Empire_x5F_State_x5F_Building">
	</g>
</g>
</svg>
