<?xml version="1.0" encoding="utf-8"?>
<!-- Generator: Adobe Illustrator 19.1.0, SVG Export Plug-In . SVG Version: 6.00 Build 0)  -->
<svg version="1.1" xmlns="http://www.w3.org/2000/svg" xmlns:xlink="http://www.w3.org/1999/xlink" x="0px" y="0px"
	 viewBox="0 0 557 295.8" style="enable-background:new 0 0 557 295.8;" xml:space="preserve">
<style type="text/css">
	.st0{fill:#EDEDED;}
	.st1{fill:#59595A;}
	.st2{fill:none;stroke:#59595B;stroke-width:5;stroke-linejoin:round;stroke-miterlimit:10;}
	.st3{fill:none;stroke:#59595B;stroke-width:4.1457;stroke-linejoin:round;stroke-miterlimit:10;}
	.st4{fill:#F6F5F5;}
	.st5{fill:#59595B;}
	.st6{fill:none;stroke:#59595B;stroke-width:4.0874;stroke-linecap:round;stroke-linejoin:round;stroke-miterlimit:10;}
	.st7{fill:none;stroke:#59595B;stroke-width:5;stroke-linecap:round;stroke-linejoin:round;stroke-miterlimit:10;}
	.st8{fill:#EFEFEF;stroke:#59595B;stroke-width:5;stroke-linecap:round;stroke-linejoin:round;stroke-miterlimit:10;}
	.st9{fill:#EDECED;}
	.st10{fill:none;stroke:#5A5B5B;stroke-width:5;stroke-miterlimit:10;}
	.st11{fill:none;stroke:#5A5B5C;stroke-width:5;stroke-linecap:round;stroke-linejoin:round;stroke-miterlimit:10;}
	.st12{fill:#EDECED;stroke:#5A5B5C;stroke-width:5;stroke-linecap:round;stroke-linejoin:round;stroke-miterlimit:10;}
	.st13{fill:#5A5B5C;stroke:#5A5B5C;stroke-width:5;stroke-linecap:round;stroke-linejoin:round;stroke-miterlimit:10;}
	.st14{fill:none;stroke:#5A5B5B;stroke-width:5;stroke-linecap:round;stroke-linejoin:round;stroke-miterlimit:10;}
	.st15{fill:#F0EFEF;stroke:#5A5B5B;stroke-width:5;stroke-linecap:round;stroke-linejoin:round;stroke-miterlimit:10;}
	.st16{fill:#E8E8E8;stroke:#5A5B5C;stroke-width:5;stroke-linecap:round;stroke-linejoin:round;stroke-miterlimit:10;}
	.st17{fill:#FFFFFF;stroke:#5A5B5B;stroke-width:5;stroke-linecap:round;stroke-linejoin:round;stroke-miterlimit:10;}
	.st18{fill:#EFEFEF;stroke:#59595A;stroke-width:5;stroke-linecap:round;stroke-linejoin:round;stroke-miterlimit:10;}
	.st19{fill:none;stroke:#59595A;stroke-width:5;stroke-miterlimit:10;}
	.st20{fill:none;stroke:#59595A;stroke-width:5;stroke-linecap:round;stroke-miterlimit:10;}
	.st21{fill:none;stroke:#59595A;stroke-width:5;stroke-linejoin:round;stroke-miterlimit:10;}
	.st22{fill:none;stroke:#59595A;stroke-width:4.539;stroke-miterlimit:10;}
	.st23{fill:none;stroke:#59595A;stroke-width:4.1349;stroke-miterlimit:10;}
	.st24{fill:none;stroke:#59595A;stroke-width:3.9798;stroke-miterlimit:10;}
	.st25{fill:none;stroke:#58595B;stroke-width:5;stroke-miterlimit:10;}
	.st26{fill:none;stroke:#58595B;stroke-width:5;stroke-linejoin:round;stroke-miterlimit:10;}
	.st27{fill:none;stroke:#58595B;stroke-width:5;stroke-linecap:round;stroke-linejoin:round;stroke-miterlimit:10;}
	.st28{fill:none;stroke:#59595B;stroke-width:4.2054;stroke-linecap:round;stroke-linejoin:round;stroke-miterlimit:10;}
	.st29{fill:none;stroke:#59595B;stroke-width:5;stroke-miterlimit:10;}
	.st30{fill:#EDECEC;stroke:#59595B;stroke-width:5;stroke-linecap:round;stroke-linejoin:round;stroke-miterlimit:10;}
	.st31{fill:#EDEDED;stroke:#59595A;stroke-width:5;stroke-miterlimit:10;}
	.st32{fill:#EDEDED;stroke:#59595B;stroke-width:5;stroke-linecap:round;stroke-linejoin:round;stroke-miterlimit:10;}
	.st33{fill:none;stroke:#59595A;stroke-width:5;stroke-linecap:round;stroke-linejoin:round;stroke-miterlimit:10;}
	.st34{fill:#58595B;}
	.st35{fill:#59595A;stroke:#EDEDED;stroke-width:3;stroke-miterlimit:10;}
	.st36{fill:#59595A;stroke:#EDEDED;stroke-miterlimit:10;}
	.st37{fill:#EFEFEF;stroke:#59595A;stroke-width:5;stroke-linecap:round;stroke-miterlimit:10;}
	.st38{fill:#EDEDED;stroke:#59595A;stroke-width:5;stroke-linecap:round;stroke-linejoin:round;stroke-miterlimit:10;}
	.st39{fill-rule:evenodd;clip-rule:evenodd;fill:#59595B;}
	
		.st40{fill-rule:evenodd;clip-rule:evenodd;fill:none;stroke:#59595B;stroke-width:5;stroke-linecap:round;stroke-linejoin:round;stroke-miterlimit:10;}
	.st41{fill:none;stroke:#5A5B5C;stroke-width:4.1457;stroke-linejoin:round;stroke-miterlimit:10;}
	.st42{fill:none;stroke:#5A5B5B;stroke-width:4.539;stroke-miterlimit:10;}
	.st43{fill:none;stroke:#5A5B5B;stroke-width:4.1349;stroke-miterlimit:10;}
	.st44{fill:none;stroke:#5A5B5B;stroke-width:3.9798;stroke-miterlimit:10;}
	.st45{fill:none;stroke:#5A5B5C;stroke-width:4;stroke-linecap:round;stroke-linejoin:round;stroke-miterlimit:10;}
	.st46{fill:none;stroke:#595A5C;stroke-width:5;stroke-linecap:round;stroke-linejoin:round;stroke-miterlimit:10;}
	.st47{fill:#5A5B5C;}
	.st48{fill:none;stroke:#595A5C;stroke-width:5;stroke-linejoin:round;stroke-miterlimit:10;}
	.st49{fill:none;stroke:#5A5B5B;stroke-width:5;stroke-linecap:round;stroke-miterlimit:10;}
	.st50{fill:#5A5B5B;}
	.st51{fill:#5A5B5C;stroke:#5A5B5C;stroke-miterlimit:10;}
	.st52{fill:#595A5C;}
	.st53{fill:#EDECED;stroke:#5A5B5B;stroke-width:5;stroke-miterlimit:10;}
	.st54{fill:#FFFFFF;stroke:#5A5B5B;stroke-width:5;stroke-miterlimit:10;}
	.st55{fill:#FFFFFF;stroke:#5A5B5C;stroke-width:5;stroke-linecap:round;stroke-linejoin:round;stroke-miterlimit:10;}
	.st56{fill:#FFFFFF;stroke:#59595B;stroke-width:5;stroke-linecap:round;stroke-linejoin:round;stroke-miterlimit:10;}
	.st57{fill:#FFFFFF;stroke:#59595A;stroke-width:5;stroke-linecap:round;stroke-linejoin:round;stroke-miterlimit:10;}
	.st58{fill:#FFFFFF;stroke:#59595A;stroke-width:5;stroke-miterlimit:10;}
	.st59{fill:none;stroke:#59595B;stroke-width:3.8573;stroke-linejoin:round;stroke-miterlimit:10;}
	.st60{fill:#EDEDED;stroke:#59595B;stroke-width:5;stroke-miterlimit:10;}
	.st61{fill:none;stroke:#59595B;stroke-width:5;stroke-linecap:round;stroke-miterlimit:10;}
	.st62{fill:#59595B;stroke:#59595A;stroke-width:5;stroke-linecap:round;stroke-linejoin:round;stroke-miterlimit:10;}
	.st63{fill:#FFFFFF;stroke:#59595B;stroke-width:5;stroke-miterlimit:10;}
	.st64{fill:#EAEAEA;stroke:#59595A;stroke-width:5;stroke-linecap:round;stroke-linejoin:round;stroke-miterlimit:10;}
	.st65{fill:#EAEAEA;stroke:#59595A;stroke-width:5;stroke-linecap:round;stroke-miterlimit:10;}
</style>
<g id="Background">
</g>
<g id="_x23_Tower_x5F_Bridge">
</g>
<g id="_x23_Washington_x5F_Mountain">
</g>
<g id="_x23_London_x5F_Eye">
</g>
<g id="_x23_Eiffel_x5F_Tower">
	<g id="New_Symbol">
	</g>
</g>
<g id="_x23_Forbidden_x5F_City">
</g>
<g id="_x23_Sydney_x5F_Opera_x5F_House">
</g>
<g id="_x23_Space_x5F_Needle">
</g>
<g id="_x23_Pyramid">
</g>
<g id="_x23_The_x5F_Pantheon">
</g>
<g id="_x23_Emirates_x5F_Towers">
</g>
<g id="_x23_China_x5F_wall">
	<g id="_x23_Empire_x5F_State_x5F_Building">
	</g>
	<g>
		<g>
			<path class="st7" d="M420.4,50.2c14.5-8.5,24.3-2,25.5,10.2c1.2,12.2-13.3,14.7-13.3,14.7h-61.3c0,0-12.6-3.7-11.3-14.7
				c1.6-14.1,15.2-14.1,20-7"/>
			<path class="st7" d="M375.8,49.6c-5.9-7,5.9-23.2,19.4-14.2"/>
			<path class="st7" d="M393.4,41c0,0,5.7-17.9,22.5-13.6c14.5,3.7,12.5,18.9,12.5,18.9"/>
		</g>
		<g>
			<path class="st7" d="M249.6,15.6c5.7-6,15.6-1,16,7c0.4,8-8,10.3-8,10.3h-30c0,0-8.3-2.7-6.7-11.3c1.7-8.7,12-7,12.7-5.3"/>
			<path class="st7" d="M256.3,12.9c0,0-1.5-11.4-13.1-10.4S232,15.3,232,15.3"/>
		</g>
		<g>
			<path class="st7" d="M63.1,65c-8.2-8.6-22.5-1.4-23,10.1S51.6,90,51.6,90h43.2c0,0,12-3.8,9.6-16.3C102,61.2,87.1,63.6,86.2,66"
				/>
			<path class="st7" d="M53.6,61.2c0,0,2.2-16.3,18.9-14.9c16.6,1.4,16,18.3,16,18.3"/>
		</g>
		<rect x="2.5" y="248.6" class="st7" width="552" height="8.3"/>
		<polyline class="st7" points="62.4,271.5 59.4,256.9 77.4,256.9 74.4,271.5 		"/>
		<polyline class="st7" points="121.3,271.5 118.3,256.9 136.2,256.9 133.2,271.5 		"/>
		<polyline class="st7" points="180.1,271.5 177.1,256.9 195.1,256.9 192.1,271.5 		"/>
		<polyline class="st7" points="239,271.5 236,256.9 253.9,256.9 250.9,271.5 		"/>
		<polyline class="st7" points="297.8,271.5 294.8,256.9 312.8,256.9 309.8,271.5 		"/>
		<polyline class="st7" points="356.7,271.5 353.7,256.9 371.6,256.9 368.6,271.5 		"/>
		<polyline class="st7" points="415.5,271.5 412.5,256.9 430.5,256.9 427.5,271.5 		"/>
		<polyline class="st7" points="474.4,271.5 471.4,256.9 489.3,256.9 486.3,271.5 		"/>
		<path class="st7" d="M168.9,248.6c37.7-5.5,254-135.7,254-135.7"/>
		<path class="st7" d="M422.9,112.9c0,0-162,104.1-138.7,135.7"/>
		<path class="st7" d="M257.9,248.6c-23.2-25.5,165-135.7,165-135.7"/>
		<line class="st7" x1="410.7" y1="120.2" x2="538.8" y2="248.4"/>
		<line class="st7" x1="400.9" y1="128.9" x2="520.4" y2="248.4"/>
		<line class="st7" x1="388.3" y1="134.7" x2="501.9" y2="248.4"/>
		<line class="st7" x1="379.1" y1="143.9" x2="483.5" y2="248.4"/>
		<line class="st7" x1="369.7" y1="153" x2="465" y2="248.4"/>
		<line class="st7" x1="359.2" y1="161" x2="446.6" y2="248.4"/>
		<line class="st7" x1="348.3" y1="168.6" x2="428.2" y2="248.4"/>
		<line class="st7" x1="337.7" y1="176.4" x2="409.7" y2="248.4"/>
		<line class="st7" x1="327.2" y1="184.3" x2="391.3" y2="248.4"/>
		<line class="st7" x1="317.3" y1="192.8" x2="372.8" y2="248.4"/>
		<line class="st7" x1="308.4" y1="202.4" x2="354.4" y2="248.4"/>
		<line class="st7" x1="298.6" y1="211.1" x2="335.9" y2="248.4"/>
		<line class="st7" x1="290.6" y1="221.5" x2="317.5" y2="248.4"/>
		<line class="st7" x1="284.1" y1="233.4" x2="299" y2="248.4"/>
		<line class="st7" x1="168.9" y1="248.6" x2="284.2" y2="248.6"/>
		<g>
			<path class="st33" d="M85.4,288.5c0,0,3.8,4.8,9,4.8c5.1,0,9-4.8,9-4.8"/>
			<path class="st33" d="M103.3,288.5c0,0,3.8,4.8,9,4.8c5.1,0,9-4.8,9-4.8"/>
			<path class="st33" d="M121.3,288.5c0,0,3.8,4.8,9,4.8c5.1,0,9-4.8,9-4.8"/>
			<path class="st33" d="M139.3,288.5c0,0,3.8,4.8,9,4.8c5.1,0,9-4.8,9-4.8"/>
			<path class="st33" d="M157.2,288.5c0,0,3.8,4.8,9,4.8s9-4.8,9-4.8"/>
			<path class="st33" d="M175.2,288.5c0,0,3.8,4.8,9,4.8s9-4.8,9-4.8"/>
			<path class="st33" d="M193.1,288.5c0,0,3.8,4.8,9,4.8c5.1,0,9-4.8,9-4.8"/>
			<path class="st33" d="M211.1,288.5c0,0,3.8,4.8,9,4.8c5.1,0,9-4.8,9-4.8"/>
			<path class="st33" d="M229,288.5c0,0,3.8,4.8,9,4.8c5.1,0,9-4.8,9-4.8"/>
			<path class="st33" d="M247,288.5c0,0,3.8,4.8,9,4.8c5.1,0,9-4.8,9-4.8"/>
			<path class="st33" d="M265.1,288.5c0,0,3.8,4.8,9,4.8s9-4.8,9-4.8"/>
			<path class="st33" d="M283.1,288.5c0,0,3.8,4.8,9,4.8s9-4.8,9-4.8"/>
			<path class="st33" d="M301,288.5c0,0,3.8,4.8,9,4.8s9-4.8,9-4.8"/>
			<path class="st33" d="M319,288.5c0,0,3.8,4.8,9,4.8c5.1,0,9-4.8,9-4.8"/>
			<path class="st33" d="M337,288.5c0,0,3.8,4.8,9,4.8c5.1,0,9-4.8,9-4.8"/>
			<path class="st33" d="M354.9,288.5c0,0,3.8,4.8,9,4.8c5.1,0,9-4.8,9-4.8"/>
			<path class="st33" d="M372.9,288.5c0,0,3.8,4.8,9,4.8s9-4.8,9-4.8"/>
			<path class="st33" d="M390.8,288.5c0,0,3.8,4.8,9,4.8s9-4.8,9-4.8"/>
			<path class="st33" d="M408.8,288.5c0,0,3.8,4.8,9,4.8s9-4.8,9-4.8"/>
			<path class="st33" d="M426.7,288.5c0,0,3.8,4.8,9,4.8s9-4.8,9-4.8"/>
		</g>
		<g>
			<path class="st33" d="M45.5,270.6c0,0,3.8,4.8,9,4.8s9-4.8,9-4.8"/>
			<path class="st33" d="M63.4,270.6c0,0,3.8,4.8,9,4.8c5.1,0,9-4.8,9-4.8"/>
			<path class="st33" d="M81.4,270.6c0,0,3.8,4.8,9,4.8s9-4.8,9-4.8"/>
			<path class="st33" d="M99.3,270.6c0,0,3.8,4.8,9,4.8c5.1,0,9-4.8,9-4.8"/>
			<path class="st33" d="M117.3,270.6c0,0,3.8,4.8,9,4.8s9-4.8,9-4.8"/>
			<path class="st33" d="M135.3,270.6c0,0,3.8,4.8,9,4.8c5.1,0,9-4.8,9-4.8"/>
			<path class="st33" d="M153.2,270.6c0,0,3.8,4.8,9,4.8s9-4.8,9-4.8"/>
			<path class="st33" d="M171.2,270.6c0,0,3.8,4.8,9,4.8s9-4.8,9-4.8"/>
			<path class="st33" d="M189.1,270.6c0,0,3.8,4.8,9,4.8c5.1,0,9-4.8,9-4.8"/>
			<path class="st33" d="M207.1,270.6c0,0,3.8,4.8,9,4.8c5.1,0,9-4.8,9-4.8"/>
			<path class="st33" d="M225.2,270.6c0,0,3.8,4.8,9,4.8c5.1,0,9-4.8,9-4.8"/>
			<path class="st33" d="M261.1,270.6c0,0,3.8,4.8,9,4.8c5.1,0,9-4.8,9-4.8"/>
			<path class="st33" d="M279.1,270.6c0,0,3.8,4.8,9,4.8s9-4.8,9-4.8"/>
			<path class="st33" d="M297,270.6c0,0,3.8,4.8,9,4.8s9-4.8,9-4.8"/>
			<path class="st33" d="M315,270.6c0,0,3.8,4.8,9,4.8s9-4.8,9-4.8"/>
			<path class="st33" d="M333,270.6c0,0,3.8,4.8,9,4.8s9-4.8,9-4.8"/>
			<path class="st33" d="M350.9,270.6c0,0,3.8,4.8,9,4.8s9-4.8,9-4.8"/>
			<path class="st33" d="M368.9,270.6c0,0,3.8,4.8,9,4.8s9-4.8,9-4.8"/>
			<path class="st33" d="M386.8,270.6c0,0,3.8,4.8,9,4.8s9-4.8,9-4.8"/>
			<path class="st33" d="M404.8,270.6c0,0,3.8,4.8,9,4.8c5.1,0,9-4.8,9-4.8"/>
			<path class="st33" d="M243.2,270.6c0,0,3.8,4.8,9,4.8c5.1,0,9-4.8,9-4.8"/>
			<path class="st33" d="M422.7,270.6c0,0,3.8,4.8,9,4.8c5.1,0,9-4.8,9-4.8"/>
			<path class="st33" d="M440.7,270.6c0,0,3.8,4.8,9,4.8c5.1,0,9-4.8,9-4.8"/>
			<path class="st33" d="M458.6,270.6c0,0,3.8,4.8,9,4.8s9-4.8,9-4.8"/>
			<path class="st33" d="M476.6,270.6c0,0,3.8,4.8,9,4.8s9-4.8,9-4.8"/>
		</g>
		<path class="st7" d="M137.2,132c0-1.4-1.5-2.6-3.4-2.6c-1.9,0-3.4,1.2-3.4,2.6"/>
		<polyline class="st7" points="137.2,132.5 137.2,150.9 130.4,150.9 130.4,132.5 		"/>
		<path class="st7" d="M151.4,132c0-1.4-1.5-2.6-3.4-2.6s-3.4,1.2-3.4,2.6"/>
		<polyline class="st7" points="151.4,132.5 151.4,150.9 144.5,150.9 144.5,132.5 		"/>
		<path class="st7" d="M165.5,132c0-1.4-1.5-2.6-3.4-2.6s-3.4,1.2-3.4,2.6"/>
		<polyline class="st7" points="165.5,132.5 165.5,150.9 158.7,150.9 158.7,132.5 		"/>
		<path class="st7" d="M180.5,132c0-1.4-1.5-2.6-3.4-2.6s-3.4,1.2-3.4,2.6"/>
		<polyline class="st7" points="180.5,132.5 180.5,150.9 173.7,150.9 173.7,132.5 		"/>
		<polyline class="st7" points="110.1,248.4 110.1,190.3 201.7,190.3 201.7,234.4 		"/>
		<rect x="122.4" y="190.3" class="st7" width="7.9" height="58.1"/>
		<rect x="141.3" y="190.3" class="st7" width="7.9" height="58.1"/>
		<rect x="161.2" y="190.3" class="st7" width="7.9" height="58.1"/>
		<polyline class="st7" points="181,243.4 181,190.3 188.9,190.3 188.9,240.4 		"/>
		<rect x="110.1" y="182.4" class="st7" width="91.6" height="7.9"/>
		<path class="st7" d="M185.5,151.5h-59.3c-2.1,0-3.8,1.7-3.8,3.8v0c0,2.1,1.7,3.8,3.8,3.8h59.3c2.1,0,3.8-1.7,3.8-3.8v0
			C189.4,153.2,187.7,151.5,185.5,151.5z"/>
		<polyline class="st56" points="122.4,176.9 122.4,156.5 188.9,156.5 188.9,176.9 		"/>
		<polygon class="st7" points="201.7,182.4 110.1,182.4 155.9,162.7 		"/>
		<rect x="130.3" y="120.2" class="st7" width="50.7" height="30.6"/>
		<path class="st7" d="M181,106.2c0-14-11.4-25.4-25.4-25.4c-14,0-25.4,11.4-25.4,25.4c0,0.7,0,1.4,0.1,2v12.1H181V106.2z"/>
		<path class="st7" d="M159.8,72.4c0-2.3-1.9-4.3-4.2-4.3c-2.3,0-4.2,1.9-4.2,4.3c0,0.1,0,0.2,0,0.3v2h8.4V72.4z"/>
		<line class="st7" x1="137.2" y1="120" x2="137.2" y2="100.6"/>
		<line class="st7" x1="143.7" y1="120" x2="143.7" y2="103.8"/>
		<line class="st7" x1="149.7" y1="120" x2="149.7" y2="105.8"/>
		<line class="st7" x1="155.8" y1="120" x2="155.8" y2="105.8"/>
		<line class="st7" x1="161.8" y1="120" x2="161.8" y2="105.8"/>
		<line class="st7" x1="167.9" y1="120" x2="167.9" y2="103.8"/>
		<line class="st7" x1="174" y1="120" x2="174" y2="100.6"/>
		<rect x="149.5" y="74.7" class="st7" width="12.3" height="6.1"/>
		<line class="st7" x1="155.9" y1="33.7" x2="155.9" y2="68.1"/>
		<polyline class="st7" points="201.7,234.6 201.7,197.1 276.1,197.1 		"/>
		<polyline class="st7" points="15.1,248.6 15.1,197.1 109.7,197.1 		"/>
		<line class="st7" x1="201.7" y1="211.4" x2="250" y2="211.4"/>
		<line class="st7" x1="207.5" y1="204.4" x2="221.1" y2="204.4"/>
		<line class="st7" x1="230.2" y1="204.4" x2="243.7" y2="204.4"/>
		<line class="st7" x1="252.8" y1="204.4" x2="261.1" y2="204.4"/>
		<line class="st7" x1="224.6" y1="222.8" x2="224.6" y2="220"/>
		<line class="st7" x1="15.1" y1="211.4" x2="109.7" y2="211.4"/>
		<line class="st7" x1="20.9" y1="204.4" x2="34.5" y2="204.4"/>
		<line class="st7" x1="43.6" y1="204.4" x2="57.1" y2="204.4"/>
		<line class="st7" x1="66.2" y1="204.4" x2="79.8" y2="204.4"/>
		<line class="st7" x1="88.9" y1="204.4" x2="102.4" y2="204.4"/>
		<line class="st7" x1="36" y1="248.4" x2="36" y2="220"/>
		<line class="st7" x1="60.9" y1="246.4" x2="60.9" y2="220"/>
		<line class="st7" x1="87.5" y1="248.4" x2="87.5" y2="220"/>
	</g>
</g>
</svg>
