<?xml version="1.0" encoding="utf-8"?>
<!-- Generator: Adobe Illustrator 19.1.0, SVG Export Plug-In . SVG Version: 6.00 Build 0)  -->
<svg version="1.1" xmlns="http://www.w3.org/2000/svg" xmlns:xlink="http://www.w3.org/1999/xlink" x="0px" y="0px"
	 viewBox="0 0 470.2 319.8" style="enable-background:new 0 0 470.2 319.8;" xml:space="preserve">
<style type="text/css">
	.st0{fill:#EDEDED;}
	.st1{fill:#59595A;}
	.st2{fill:none;stroke:#59595B;stroke-width:5;stroke-linejoin:round;stroke-miterlimit:10;}
	.st3{fill:none;stroke:#59595B;stroke-width:4.1457;stroke-linejoin:round;stroke-miterlimit:10;}
	.st4{fill:#F6F5F5;}
	.st5{fill:#59595B;}
	.st6{fill:none;stroke:#59595B;stroke-width:4.0874;stroke-linecap:round;stroke-linejoin:round;stroke-miterlimit:10;}
	.st7{fill:none;stroke:#59595B;stroke-width:5;stroke-linecap:round;stroke-linejoin:round;stroke-miterlimit:10;}
	.st8{fill:#EFEFEF;stroke:#59595B;stroke-width:5;stroke-linecap:round;stroke-linejoin:round;stroke-miterlimit:10;}
	.st9{fill:#EDECED;}
	.st10{fill:none;stroke:#5A5B5B;stroke-width:5;stroke-miterlimit:10;}
	.st11{fill:none;stroke:#5A5B5C;stroke-width:5;stroke-linecap:round;stroke-linejoin:round;stroke-miterlimit:10;}
	.st12{fill:#EDECED;stroke:#5A5B5C;stroke-width:5;stroke-linecap:round;stroke-linejoin:round;stroke-miterlimit:10;}
	.st13{fill:#5A5B5C;stroke:#5A5B5C;stroke-width:5;stroke-linecap:round;stroke-linejoin:round;stroke-miterlimit:10;}
	.st14{fill:none;stroke:#5A5B5B;stroke-width:5;stroke-linecap:round;stroke-linejoin:round;stroke-miterlimit:10;}
	.st15{fill:#F0EFEF;stroke:#5A5B5B;stroke-width:5;stroke-linecap:round;stroke-linejoin:round;stroke-miterlimit:10;}
	.st16{fill:#E8E8E8;stroke:#5A5B5C;stroke-width:5;stroke-linecap:round;stroke-linejoin:round;stroke-miterlimit:10;}
	.st17{fill:#FFFFFF;stroke:#5A5B5B;stroke-width:5;stroke-linecap:round;stroke-linejoin:round;stroke-miterlimit:10;}
	.st18{fill:#EFEFEF;stroke:#59595A;stroke-width:5;stroke-linecap:round;stroke-linejoin:round;stroke-miterlimit:10;}
	.st19{fill:none;stroke:#59595A;stroke-width:5;stroke-miterlimit:10;}
	.st20{fill:none;stroke:#59595A;stroke-width:5;stroke-linecap:round;stroke-miterlimit:10;}
	.st21{fill:none;stroke:#59595A;stroke-width:5;stroke-linejoin:round;stroke-miterlimit:10;}
	.st22{fill:none;stroke:#59595A;stroke-width:4.539;stroke-miterlimit:10;}
	.st23{fill:none;stroke:#59595A;stroke-width:4.1349;stroke-miterlimit:10;}
	.st24{fill:none;stroke:#59595A;stroke-width:3.9798;stroke-miterlimit:10;}
	.st25{fill:none;stroke:#58595B;stroke-width:5;stroke-miterlimit:10;}
	.st26{fill:none;stroke:#58595B;stroke-width:5;stroke-linejoin:round;stroke-miterlimit:10;}
	.st27{fill:none;stroke:#58595B;stroke-width:5;stroke-linecap:round;stroke-linejoin:round;stroke-miterlimit:10;}
	.st28{fill:none;stroke:#59595B;stroke-width:4.2054;stroke-linecap:round;stroke-linejoin:round;stroke-miterlimit:10;}
	.st29{fill:none;stroke:#59595B;stroke-width:5;stroke-miterlimit:10;}
	.st30{fill:#EDECEC;stroke:#59595B;stroke-width:5;stroke-linecap:round;stroke-linejoin:round;stroke-miterlimit:10;}
	.st31{fill:#EDEDED;stroke:#59595A;stroke-width:5;stroke-miterlimit:10;}
	.st32{fill:#EDEDED;stroke:#59595B;stroke-width:5;stroke-linecap:round;stroke-linejoin:round;stroke-miterlimit:10;}
	.st33{fill:none;stroke:#59595A;stroke-width:5;stroke-linecap:round;stroke-linejoin:round;stroke-miterlimit:10;}
	.st34{fill:#58595B;}
	.st35{fill:#59595A;stroke:#EDEDED;stroke-width:3;stroke-miterlimit:10;}
	.st36{fill:#59595A;stroke:#EDEDED;stroke-miterlimit:10;}
	.st37{fill:#EFEFEF;stroke:#59595A;stroke-width:5;stroke-linecap:round;stroke-miterlimit:10;}
	.st38{fill:#EDEDED;stroke:#59595A;stroke-width:5;stroke-linecap:round;stroke-linejoin:round;stroke-miterlimit:10;}
	.st39{fill-rule:evenodd;clip-rule:evenodd;fill:#59595B;}
	
		.st40{fill-rule:evenodd;clip-rule:evenodd;fill:none;stroke:#59595B;stroke-width:5;stroke-linecap:round;stroke-linejoin:round;stroke-miterlimit:10;}
	.st41{fill:none;stroke:#5A5B5C;stroke-width:4.1457;stroke-linejoin:round;stroke-miterlimit:10;}
	.st42{fill:none;stroke:#5A5B5B;stroke-width:4.539;stroke-miterlimit:10;}
	.st43{fill:none;stroke:#5A5B5B;stroke-width:4.1349;stroke-miterlimit:10;}
	.st44{fill:none;stroke:#5A5B5B;stroke-width:3.9798;stroke-miterlimit:10;}
	.st45{fill:none;stroke:#5A5B5C;stroke-width:4;stroke-linecap:round;stroke-linejoin:round;stroke-miterlimit:10;}
	.st46{fill:none;stroke:#595A5C;stroke-width:5;stroke-linecap:round;stroke-linejoin:round;stroke-miterlimit:10;}
	.st47{fill:#5A5B5C;}
	.st48{fill:none;stroke:#595A5C;stroke-width:5;stroke-linejoin:round;stroke-miterlimit:10;}
	.st49{fill:none;stroke:#5A5B5B;stroke-width:5;stroke-linecap:round;stroke-miterlimit:10;}
	.st50{fill:#5A5B5B;}
	.st51{fill:#5A5B5C;stroke:#5A5B5C;stroke-miterlimit:10;}
	.st52{fill:#595A5C;}
	.st53{fill:#EDECED;stroke:#5A5B5B;stroke-width:5;stroke-miterlimit:10;}
	.st54{fill:#FFFFFF;stroke:#5A5B5B;stroke-width:5;stroke-miterlimit:10;}
	.st55{fill:#FFFFFF;stroke:#5A5B5C;stroke-width:5;stroke-linecap:round;stroke-linejoin:round;stroke-miterlimit:10;}
	.st56{fill:#FFFFFF;stroke:#59595B;stroke-width:5;stroke-linecap:round;stroke-linejoin:round;stroke-miterlimit:10;}
	.st57{fill:#FFFFFF;stroke:#59595A;stroke-width:5;stroke-linecap:round;stroke-linejoin:round;stroke-miterlimit:10;}
	.st58{fill:#FFFFFF;stroke:#59595A;stroke-width:5;stroke-miterlimit:10;}
	.st59{fill:none;stroke:#59595B;stroke-width:3.8573;stroke-linejoin:round;stroke-miterlimit:10;}
	.st60{fill:#EDEDED;stroke:#59595B;stroke-width:5;stroke-miterlimit:10;}
	.st61{fill:none;stroke:#59595B;stroke-width:5;stroke-linecap:round;stroke-miterlimit:10;}
	.st62{fill:#59595B;stroke:#59595A;stroke-width:5;stroke-linecap:round;stroke-linejoin:round;stroke-miterlimit:10;}
	.st63{fill:#FFFFFF;stroke:#59595B;stroke-width:5;stroke-miterlimit:10;}
	.st64{fill:#EAEAEA;stroke:#59595A;stroke-width:5;stroke-linecap:round;stroke-linejoin:round;stroke-miterlimit:10;}
	.st65{fill:#EAEAEA;stroke:#59595A;stroke-width:5;stroke-linecap:round;stroke-miterlimit:10;}
</style>
<g id="Background">
</g>
<g id="_x23_Tower_x5F_Bridge">
</g>
<g id="_x23_Washington_x5F_Mountain">
</g>
<g id="_x23_London_x5F_Eye">
</g>
<g id="_x23_Eiffel_x5F_Tower">
	<g id="New_Symbol">
	</g>
</g>
<g id="_x23_Forbidden_x5F_City">
</g>
<g id="_x23_Sydney_x5F_Opera_x5F_House">
</g>
<g id="_x23_Space_x5F_Needle">
</g>
<g id="_x23_Pyramid">
</g>
<g id="_x23_The_x5F_Pantheon">
</g>
<g id="_x23_Emirates_x5F_Towers">
</g>
<g id="_x23_China_x5F_wall">
	<g id="_x23_Empire_x5F_State_x5F_Building">
	</g>
	<g>
		<polyline class="st33" points="275.6,201.7 279.3,174.4 279.3,158.7 286.7,158.7 286.7,149.6 297.1,139.5 304.5,119.8 
			304.5,110.7 316.2,86.4 327.3,79.3 341.5,75.8 348.9,82.8 364.9,91.9 364.9,98 374.2,110.7 376.6,123.3 385.3,133.4 389.6,143.1 
			392.7,151.7 397.9,170.4 411.1,200.2 417.9,221.4 427.8,234.1 		"/>
		<polyline class="st33" points="360.5,84.9 375.4,66.1 375.4,53.5 390.2,45.9 401.9,34.3 413,34.3 430.2,37.3 437,48.9 440.7,65.1 
			451.8,70.7 451.8,84.9 455.5,95.5 464.7,113.2 		"/>
		<g>
			<line class="st57" x1="95.5" y1="258.4" x2="137.4" y2="258.4"/>
			<rect x="107.4" y="269.8" class="st57" width="17.3" height="15.8"/>
			<line class="st57" x1="95.5" y1="258.4" x2="95.5" y2="249"/>
			<line class="st57" x1="137.4" y1="258.4" x2="137.4" y2="249"/>
		</g>
		<path class="st33" d="M19,224.4c11.9,28.5,66.8,24.7,66.8,24.7h164.5c0,0,51.2,1.5,65.3-24.7"/>
		<line class="st33" x1="68.4" y1="209.5" x2="266.2" y2="209.5"/>
		<path class="st33" d="M79.4,209.5c0,0-24.3,33.4-60.3,14.8"/>
		<path class="st33" d="M254.9,209.5c0,0,24.3,33.4,60.3,14.8"/>
		<path class="st33" d="M71.9,168.8c7.7,28.5,43,24.7,43,24.7h105.8c0,0,32.9,1.5,42-24.7"/>
		<line class="st33" x1="103.7" y1="154" x2="230.9" y2="154"/>
		<line class="st33" x1="103.7" y1="145.8" x2="230.9" y2="145.8"/>
		<path class="st33" d="M110.7,154c0,0-15.6,33.4-38.8,14.8"/>
		<path class="st33" d="M223.6,154c0,0,15.6,33.4,38.8,14.8"/>
		<line class="st33" x1="89.5" y1="258.4" x2="143.4" y2="258.4"/>
		<line class="st33" x1="191.8" y1="258.4" x2="245.7" y2="258.4"/>
		<rect x="100.3" y="193.5" class="st33" width="11.2" height="16"/>
		<rect x="223.3" y="193.5" class="st33" width="11.2" height="16"/>
		<line class="st33" x1="110.7" y1="144" x2="110.7" y2="133.5"/>
		<circle class="st33" cx="110.7" cy="133.5" r="2.5"/>
		<line class="st33" x1="224.1" y1="144" x2="224.1" y2="133.5"/>
		<line class="st33" x1="120.6" y1="153.4" x2="120.6" y2="143"/>
		<line class="st33" x1="127.2" y1="153.4" x2="127.2" y2="145.8"/>
		<line class="st33" x1="134.5" y1="153.4" x2="134.5" y2="145.8"/>
		<line class="st33" x1="141.7" y1="153.4" x2="141.7" y2="145.8"/>
		<line class="st33" x1="149" y1="153.4" x2="149" y2="145.8"/>
		<line class="st33" x1="156.2" y1="153.4" x2="156.2" y2="145.8"/>
		<line class="st33" x1="163.5" y1="153.4" x2="163.5" y2="145.8"/>
		<line class="st33" x1="170.7" y1="153.4" x2="170.7" y2="145.8"/>
		<line class="st33" x1="178" y1="153.4" x2="178" y2="145.8"/>
		<line class="st33" x1="185.2" y1="153.4" x2="185.2" y2="145.8"/>
		<line class="st33" x1="192.5" y1="153.4" x2="192.5" y2="145.8"/>
		<line class="st33" x1="199.7" y1="153.4" x2="199.7" y2="145.8"/>
		<line class="st33" x1="207" y1="153.4" x2="207" y2="145.8"/>
		<line class="st33" x1="214" y1="153.4" x2="214" y2="143"/>
		<circle class="st33" cx="224.1" cy="133.5" r="2.5"/>
		<line class="st33" x1="74.7" y1="215.7" x2="260" y2="215.7"/>
		<line class="st33" x1="65.4" y1="222.3" x2="268.8" y2="222.3"/>
		<line class="st33" x1="51.1" y1="228.7" x2="282.2" y2="228.7"/>
		<line class="st33" x1="27.5" y1="235.5" x2="304.7" y2="235.5"/>
		<line class="st33" x1="39" y1="241.9" x2="293.2" y2="241.9"/>
		<line class="st33" x1="108.3" y1="160.5" x2="225.9" y2="160.5"/>
		<line class="st33" x1="102.4" y1="167.1" x2="231.5" y2="167.1"/>
		<line class="st33" x1="93.4" y1="173.4" x2="240" y2="173.4"/>
		<line class="st33" x1="78.3" y1="180.3" x2="254.3" y2="180.3"/>
		<line class="st33" x1="85.7" y1="186.7" x2="247" y2="186.7"/>
		<polyline class="st57" points="90.5,296 90.5,259 99.5,259 99.5,296 		"/>
		<polyline class="st57" points="133.3,296.6 133.3,259.5 142.2,259.5 142.2,296.6 		"/>
		<g>
			<rect x="209.4" y="269.8" class="st57" width="17.3" height="15.8"/>
			<line class="st57" x1="197.4" y1="258.4" x2="197.4" y2="249"/>
			<line class="st57" x1="239.4" y1="258.4" x2="239.4" y2="249"/>
		</g>
		<polyline class="st57" points="193.3,296.6 193.3,259.5 202.3,259.5 202.3,296.6 		"/>
		<polyline class="st57" points="235.2,296.6 235.2,259.5 244.2,259.5 244.2,296.6 		"/>
		<line class="st33" x1="113.2" y1="203.5" x2="223.3" y2="203.5"/>
		<g>
			<path class="st7" d="M63.1,25.9c14.5-8.5,24.3-2,25.5,10.2S75.3,50.8,75.3,50.8H13.9c0,0-12.6-3.7-11.3-14.7
				c1.6-14.1,15.2-14.1,20-7"/>
			<path class="st7" d="M18.5,25.4c-5.9-7,5.9-23.2,19.4-14.2"/>
			<path class="st7" d="M36.1,16.8c0,0,5.7-17.9,22.5-13.6c14.5,3.7,12.5,18.9,12.5,18.9"/>
		</g>
		<g>
			<path class="st7" d="M168.7,82.6c5.7-6,15.6-1,16,7c0.4,8-8,10.3-8,10.3h-30c0,0-8.3-2.7-6.7-11.3s12-7,12.7-5.3"/>
			<path class="st7" d="M175.4,80c0,0-1.5-11.4-13.1-10.4c-11.6,1-11.1,12.7-11.1,12.7"/>
		</g>
		<g>
			<path class="st7" d="M278.9,35.7c-8.2-8.6-22.5-1.4-23,10.1c-0.6,11.5,11.5,14.9,11.5,14.9h43.2c0,0,12-3.8,9.6-16.3
				c-2.4-12.5-17.3-10.1-18.2-7.7"/>
			<path class="st7" d="M269.3,31.9c0,0,2.2-16.3,18.9-14.9c16.6,1.4,16,18.3,16,18.3"/>
		</g>
		<g>
			<path class="st33" d="M58.5,312.5c0,0,3.8,4.8,9,4.8c5.1,0,9-4.8,9-4.8"/>
			<path class="st33" d="M76.5,312.5c0,0,3.8,4.8,9,4.8c5.1,0,9-4.8,9-4.8"/>
			<path class="st33" d="M94.5,312.5c0,0,3.8,4.8,9,4.8c5.1,0,9-4.8,9-4.8"/>
			<path class="st33" d="M112.4,312.5c0,0,3.8,4.8,9,4.8c5.1,0,9-4.8,9-4.8"/>
			<path class="st33" d="M130.4,312.5c0,0,3.8,4.8,9,4.8c5.1,0,9-4.8,9-4.8"/>
			<path class="st33" d="M148.3,312.5c0,0,3.8,4.8,9,4.8s9-4.8,9-4.8"/>
			<path class="st33" d="M166.3,312.5c0,0,3.8,4.8,9,4.8s9-4.8,9-4.8"/>
			<path class="st33" d="M184.2,312.5c0,0,3.8,4.8,9,4.8c5.1,0,9-4.8,9-4.8"/>
			<path class="st33" d="M202.2,312.5c0,0,3.8,4.8,9,4.8c5.1,0,9-4.8,9-4.8"/>
			<path class="st33" d="M220.1,312.5c0,0,3.8,4.8,9,4.8c5.1,0,9-4.8,9-4.8"/>
			<path class="st33" d="M238.3,312.5c0,0,3.8,4.8,9,4.8s9-4.8,9-4.8"/>
			<path class="st33" d="M256.2,312.5c0,0,3.8,4.8,9,4.8c5.1,0,9-4.8,9-4.8"/>
			<path class="st33" d="M274.2,312.5c0,0,3.8,4.8,9,4.8s9-4.8,9-4.8"/>
			<path class="st33" d="M292.2,312.5c0,0,3.8,4.8,9,4.8s9-4.8,9-4.8"/>
			<path class="st33" d="M310.1,312.5c0,0,3.8,4.8,9,4.8s9-4.8,9-4.8"/>
			<path class="st33" d="M328.1,312.5c0,0,3.8,4.8,9,4.8s9-4.8,9-4.8"/>
			<path class="st33" d="M346,312.5c0,0,3.8,4.8,9,4.8s9-4.8,9-4.8"/>
			<path class="st33" d="M364,312.5c0,0,3.8,4.8,9,4.8s9-4.8,9-4.8"/>
			<path class="st33" d="M381.9,312.5c0,0,3.8,4.8,9,4.8s9-4.8,9-4.8"/>
			<path class="st33" d="M399.9,312.5c0,0,3.8,4.8,9,4.8c5.1,0,9-4.8,9-4.8"/>
		</g>
		<g>
			<path class="st33" d="M18.6,294.6c0,0,3.8,4.8,9,4.8s9-4.8,9-4.8"/>
			<path class="st33" d="M36.6,294.6c0,0,3.8,4.8,9,4.8s9-4.8,9-4.8"/>
			<path class="st33" d="M54.6,294.6c0,0,3.8,4.8,9,4.8s9-4.8,9-4.8"/>
			<path class="st33" d="M72.5,294.6c0,0,3.8,4.8,9,4.8s9-4.8,9-4.8"/>
			<path class="st33" d="M90.5,294.6c0,0,3.8,4.8,9,4.8c5.1,0,9-4.8,9-4.8"/>
			<path class="st33" d="M108.4,294.6c0,0,3.8,4.8,9,4.8c5.1,0,9-4.8,9-4.8"/>
			<path class="st33" d="M126.4,294.6c0,0,3.8,4.8,9,4.8c5.1,0,9-4.8,9-4.8"/>
			<path class="st33" d="M144.3,294.6c0,0,3.8,4.8,9,4.8s9-4.8,9-4.8"/>
			<path class="st33" d="M162.3,294.6c0,0,3.8,4.8,9,4.8s9-4.8,9-4.8"/>
			<path class="st33" d="M180.2,294.6c0,0,3.8,4.8,9,4.8c5.1,0,9-4.8,9-4.8"/>
			<path class="st33" d="M198.4,294.6c0,0,3.8,4.8,9,4.8c5.1,0,9-4.8,9-4.8"/>
			<path class="st33" d="M234.3,294.6c0,0,3.8,4.8,9,4.8s9-4.8,9-4.8"/>
			<path class="st33" d="M252.3,294.6c0,0,3.8,4.8,9,4.8s9-4.8,9-4.8"/>
			<path class="st33" d="M270.2,294.6c0,0,3.8,4.8,9,4.8s9-4.8,9-4.8"/>
			<path class="st33" d="M288.2,294.6c0,0,3.8,4.8,9,4.8s9-4.8,9-4.8"/>
			<path class="st33" d="M306.1,294.6c0,0,3.8,4.8,9,4.8c5.1,0,9-4.8,9-4.8"/>
			<path class="st33" d="M324.1,294.6c0,0,3.8,4.8,9,4.8c5.1,0,9-4.8,9-4.8"/>
			<path class="st33" d="M342,294.6c0,0,3.8,4.8,9,4.8c5.1,0,9-4.8,9-4.8"/>
			<path class="st33" d="M360,294.6c0,0,3.8,4.8,9,4.8s9-4.8,9-4.8"/>
			<path class="st33" d="M377.9,294.6c0,0,3.8,4.8,9,4.8s9-4.8,9-4.8"/>
			<path class="st33" d="M216.3,294.6c0,0,3.8,4.8,9,4.8c5.1,0,9-4.8,9-4.8"/>
			<path class="st33" d="M395.9,294.6c0,0,3.8,4.8,9,4.8s9-4.8,9-4.8"/>
			<path class="st33" d="M413.9,294.6c0,0,3.8,4.8,9,4.8s9-4.8,9-4.8"/>
			<path class="st33" d="M431.8,294.6c0,0,3.8,4.8,9,4.8s9-4.8,9-4.8"/>
			<path class="st33" d="M449.8,294.6c0,0,3.8,4.8,9,4.8s9-4.8,9-4.8"/>
		</g>
	</g>
</g>
</svg>
