<?xml version="1.0" encoding="utf-8"?>
<!-- Generator: Adobe Illustrator 19.1.0, SVG Export Plug-In . SVG Version: 6.00 Build 0)  -->
<svg version="1.1" xmlns="http://www.w3.org/2000/svg" xmlns:xlink="http://www.w3.org/1999/xlink" x="0px" y="0px"
	 viewBox="0 0 474.2 324" style="enable-background:new 0 0 474.2 324;" xml:space="preserve">
<style type="text/css">
	.st0{fill:#EDEDED;}
	.st1{fill:#59595A;}
	.st2{fill:none;stroke:#59595B;stroke-width:5;stroke-linejoin:round;stroke-miterlimit:10;}
	.st3{fill:none;stroke:#59595B;stroke-width:4.1457;stroke-linejoin:round;stroke-miterlimit:10;}
	.st4{fill:#F6F5F5;}
	.st5{fill:#59595B;}
	.st6{fill:none;stroke:#59595B;stroke-width:4.0874;stroke-linecap:round;stroke-linejoin:round;stroke-miterlimit:10;}
	.st7{fill:none;stroke:#59595B;stroke-width:5;stroke-linecap:round;stroke-linejoin:round;stroke-miterlimit:10;}
	.st8{fill:#EFEFEF;stroke:#59595B;stroke-width:5;stroke-linecap:round;stroke-linejoin:round;stroke-miterlimit:10;}
	.st9{fill:#EDECED;}
	.st10{fill:none;stroke:#5A5B5B;stroke-width:5;stroke-miterlimit:10;}
	.st11{fill:none;stroke:#5A5B5C;stroke-width:5;stroke-linecap:round;stroke-linejoin:round;stroke-miterlimit:10;}
	.st12{fill:#EDECED;stroke:#5A5B5C;stroke-width:5;stroke-linecap:round;stroke-linejoin:round;stroke-miterlimit:10;}
	.st13{fill:#5A5B5C;stroke:#5A5B5C;stroke-width:5;stroke-linecap:round;stroke-linejoin:round;stroke-miterlimit:10;}
	.st14{fill:none;stroke:#5A5B5B;stroke-width:5;stroke-linecap:round;stroke-linejoin:round;stroke-miterlimit:10;}
	.st15{fill:#F0EFEF;stroke:#5A5B5B;stroke-width:5;stroke-linecap:round;stroke-linejoin:round;stroke-miterlimit:10;}
	.st16{fill:#E8E8E8;stroke:#5A5B5C;stroke-width:5;stroke-linecap:round;stroke-linejoin:round;stroke-miterlimit:10;}
	.st17{fill:#FFFFFF;stroke:#5A5B5B;stroke-width:5;stroke-linecap:round;stroke-linejoin:round;stroke-miterlimit:10;}
	.st18{fill:#EFEFEF;stroke:#59595A;stroke-width:5;stroke-linecap:round;stroke-linejoin:round;stroke-miterlimit:10;}
	.st19{fill:none;stroke:#59595A;stroke-width:5;stroke-miterlimit:10;}
	.st20{fill:none;stroke:#59595A;stroke-width:5;stroke-linecap:round;stroke-miterlimit:10;}
	.st21{fill:none;stroke:#59595A;stroke-width:5;stroke-linejoin:round;stroke-miterlimit:10;}
	.st22{fill:none;stroke:#59595A;stroke-width:4.539;stroke-miterlimit:10;}
	.st23{fill:none;stroke:#59595A;stroke-width:4.1349;stroke-miterlimit:10;}
	.st24{fill:none;stroke:#59595A;stroke-width:3.9798;stroke-miterlimit:10;}
	.st25{fill:none;stroke:#58595B;stroke-width:5;stroke-miterlimit:10;}
	.st26{fill:none;stroke:#58595B;stroke-width:5;stroke-linejoin:round;stroke-miterlimit:10;}
	.st27{fill:none;stroke:#58595B;stroke-width:5;stroke-linecap:round;stroke-linejoin:round;stroke-miterlimit:10;}
	.st28{fill:none;stroke:#59595B;stroke-width:4.2054;stroke-linecap:round;stroke-linejoin:round;stroke-miterlimit:10;}
	.st29{fill:none;stroke:#59595B;stroke-width:5;stroke-miterlimit:10;}
	.st30{fill:#EDECEC;stroke:#59595B;stroke-width:5;stroke-linecap:round;stroke-linejoin:round;stroke-miterlimit:10;}
	.st31{fill:#EDEDED;stroke:#59595A;stroke-width:5;stroke-miterlimit:10;}
	.st32{fill:#EDEDED;stroke:#59595B;stroke-width:5;stroke-linecap:round;stroke-linejoin:round;stroke-miterlimit:10;}
	.st33{fill:none;stroke:#59595A;stroke-width:5;stroke-linecap:round;stroke-linejoin:round;stroke-miterlimit:10;}
	.st34{fill:#58595B;}
	.st35{fill:#59595A;stroke:#EDEDED;stroke-width:3;stroke-miterlimit:10;}
	.st36{fill:#59595A;stroke:#EDEDED;stroke-miterlimit:10;}
	.st37{fill:#EFEFEF;stroke:#59595A;stroke-width:5;stroke-linecap:round;stroke-miterlimit:10;}
	.st38{fill:#EDEDED;stroke:#59595A;stroke-width:5;stroke-linecap:round;stroke-linejoin:round;stroke-miterlimit:10;}
	.st39{fill-rule:evenodd;clip-rule:evenodd;fill:#59595B;}
	
		.st40{fill-rule:evenodd;clip-rule:evenodd;fill:none;stroke:#59595B;stroke-width:5;stroke-linecap:round;stroke-linejoin:round;stroke-miterlimit:10;}
	.st41{fill:none;stroke:#5A5B5C;stroke-width:4.1457;stroke-linejoin:round;stroke-miterlimit:10;}
	.st42{fill:none;stroke:#5A5B5B;stroke-width:4.539;stroke-miterlimit:10;}
	.st43{fill:none;stroke:#5A5B5B;stroke-width:4.1349;stroke-miterlimit:10;}
	.st44{fill:none;stroke:#5A5B5B;stroke-width:3.9798;stroke-miterlimit:10;}
	.st45{fill:none;stroke:#5A5B5C;stroke-width:4;stroke-linecap:round;stroke-linejoin:round;stroke-miterlimit:10;}
	.st46{fill:none;stroke:#595A5C;stroke-width:5;stroke-linecap:round;stroke-linejoin:round;stroke-miterlimit:10;}
	.st47{fill:#5A5B5C;}
	.st48{fill:none;stroke:#595A5C;stroke-width:5;stroke-linejoin:round;stroke-miterlimit:10;}
	.st49{fill:none;stroke:#5A5B5B;stroke-width:5;stroke-linecap:round;stroke-miterlimit:10;}
	.st50{fill:#5A5B5B;}
	.st51{fill:#5A5B5C;stroke:#5A5B5C;stroke-miterlimit:10;}
	.st52{fill:#595A5C;}
	.st53{fill:#EDECED;stroke:#5A5B5B;stroke-width:5;stroke-miterlimit:10;}
	.st54{fill:#FFFFFF;stroke:#5A5B5B;stroke-width:5;stroke-miterlimit:10;}
	.st55{fill:#FFFFFF;stroke:#5A5B5C;stroke-width:5;stroke-linecap:round;stroke-linejoin:round;stroke-miterlimit:10;}
	.st56{fill:#FFFFFF;stroke:#59595B;stroke-width:5;stroke-linecap:round;stroke-linejoin:round;stroke-miterlimit:10;}
	.st57{fill:#FFFFFF;stroke:#59595A;stroke-width:5;stroke-linecap:round;stroke-linejoin:round;stroke-miterlimit:10;}
	.st58{fill:#FFFFFF;stroke:#59595A;stroke-width:5;stroke-miterlimit:10;}
	.st59{fill:none;stroke:#59595B;stroke-width:3.8573;stroke-linejoin:round;stroke-miterlimit:10;}
	.st60{fill:#EDEDED;stroke:#59595B;stroke-width:5;stroke-miterlimit:10;}
	.st61{fill:none;stroke:#59595B;stroke-width:5;stroke-linecap:round;stroke-miterlimit:10;}
	.st62{fill:#59595B;stroke:#59595A;stroke-width:5;stroke-linecap:round;stroke-linejoin:round;stroke-miterlimit:10;}
	.st63{fill:#FFFFFF;stroke:#59595B;stroke-width:5;stroke-miterlimit:10;}
	.st64{fill:#EAEAEA;stroke:#59595A;stroke-width:5;stroke-linecap:round;stroke-linejoin:round;stroke-miterlimit:10;}
	.st65{fill:#EAEAEA;stroke:#59595A;stroke-width:5;stroke-linecap:round;stroke-miterlimit:10;}
</style>
<g id="Background">
</g>
<g id="_x23_Tower_x5F_Bridge">
</g>
<g id="_x23_Washington_x5F_Mountain">
</g>
<g id="_x23_London_x5F_Eye">
</g>
<g id="_x23_Eiffel_x5F_Tower">
	<g id="New_Symbol">
	</g>
	<g>
		<g>
			<line class="st10" x1="474.2" y1="311.6" x2="0" y2="311.6"/>
			<line class="st10" x1="427.3" y1="321.5" x2="33.7" y2="321.5"/>
		</g>
		<g>
			<line class="st48" x1="407.8" y1="220.7" x2="267.1" y2="220.7"/>
			<g>
				<polyline class="st11" points="266.3,250.1 266.3,187.1 407.3,187.1 407.3,249.1 				"/>
				<polyline class="st11" points="125.3,311.1 125.3,252.5 263.3,252.5 				"/>
				<rect x="71.8" y="156.8" class="st11" width="53.5" height="154.3"/>
				<polygon class="st11" points="130.3,156.4 66.8,156.4 65.8,148.1 131.3,148.1 				"/>
				<polyline class="st11" points="65.8,146.1 98.7,137.1 131.3,146.1 				"/>
				<g>
					<path class="st48" d="M407.3,186.2c2.3-78.3-63.7-79.6-65.4-108.6"/>
					<line class="st48" x1="363.2" y1="187.6" x2="363.2" y2="266.1"/>
					<path class="st48" d="M336.5,79.6c1.6,27.3,26,28.4,26.8,94.1"/>
					<line class="st48" x1="311" y1="187.3" x2="311" y2="249.4"/>
					<path class="st48" d="M337.7,79c-1.6,27.5-26.3,28.4-26.8,95.4"/>
					<path class="st48" d="M266.4,186.2c-2.3-78.3,63.7-79.6,65.4-108.6"/>
					<rect x="331.1" y="67.9" class="st48" width="11.6" height="11.2"/>
					<line class="st46" x1="324.1" y1="69.2" x2="349.8" y2="69.2"/>
					<path class="st46" d="M336.9,60.6c-2.7,0-5,2.2-5,4.8h9.9C341.9,62.8,339.6,60.6,336.9,60.6z"/>
					<g>
						<line class="st46" x1="337" y1="32.7" x2="337" y2="62.1"/>
						<line class="st46" x1="327.2" y1="41.1" x2="345" y2="41.1"/>
					</g>
				</g>
				<g>
					<circle class="st46" cx="287.5" cy="203.9" r="8.5"/>
					<circle class="st47" cx="287.5" cy="203.9" r="3"/>
				</g>
				<g>
					<circle class="st46" cx="336.8" cy="203.9" r="8.5"/>
					<circle class="st47" cx="336.8" cy="203.9" r="3"/>
				</g>
				<g>
					<circle class="st46" cx="385.2" cy="203.9" r="8.5"/>
					<circle class="st47" cx="385.2" cy="203.9" r="3"/>
				</g>
				<rect x="258.7" y="266.8" class="st48" width="52.1" height="44.7"/>
				<rect x="363.4" y="266.8" class="st48" width="52.1" height="44.7"/>
				<rect x="310.6" y="251.3" class="st48" width="52.1" height="59.5"/>
				<path class="st48" d="M310.8,266.9c0-13-11.7-23.5-26-23.5s-26,10.5-26,23.5H310.8z"/>
				<path class="st48" d="M415.5,266.9c0-13-11.7-23.5-26-23.5s-26,10.5-26,23.5H415.5z"/>
				<path class="st48" d="M362.7,250.9c0-13-11.7-23.5-26-23.5s-26,10.5-26,23.5H362.7z"/>
				<polyline class="st11" points="125.3,252.5 153.2,224.7 266,224.7 				"/>
				<line class="st48" x1="166.3" y1="252.4" x2="166.3" y2="310.6"/>
				<line class="st48" x1="219.7" y1="252.4" x2="219.7" y2="310.6"/>
				<g>
					<path class="st52" d="M240.5,266.8c0.6,0,1,0.4,1,1s-0.4,1-1,1s-1-0.4-1-1S239.9,266.8,240.5,266.8 M240.5,261.8
						c-3.3,0-6,2.7-6,6c0,3.3,2.7,6,6,6c3.3,0,6-2.7,6-6C246.5,264.5,243.8,261.8,240.5,261.8L240.5,261.8z"/>
				</g>
				<path class="st11" d="M329,310.8c0-3.3,2.4-26.1,8.5-26c6.1,0,8.5,22.7,8.5,26H329z"/>
				<g>
					<path class="st52" d="M193.7,266.8c0.6,0,1,0.4,1,1s-0.4,1-1,1s-1-0.4-1-1S193.1,266.8,193.7,266.8 M193.7,261.8
						c-3.3,0-6,2.7-6,6c0,3.3,2.7,6,6,6c3.3,0,6-2.7,6-6C199.7,264.5,197,261.8,193.7,261.8L193.7,261.8z"/>
				</g>
				<g>
					<path class="st52" d="M146.8,266.8c0.6,0,1,0.4,1,1s-0.4,1-1,1s-1-0.4-1-1S146.3,266.8,146.8,266.8 M146.8,261.8
						c-3.3,0-6,2.7-6,6c0,3.3,2.7,6,6,6c3.3,0,6-2.7,6-6C152.8,264.5,150.1,261.8,146.8,261.8L146.8,261.8z"/>
				</g>
				<g>
					<path class="st47" d="M277,285c0-4.3,3.5-7.8,7.8-7.8c4.3,0,7.8,3.5,7.8,7.8H277z"/>
					<rect x="277" y="286.5" class="st47" width="15.3" height="3.8"/>
				</g>
				<g>
					<path class="st47" d="M381.7,285c0-4.3,3.5-7.8,7.8-7.8s7.8,3.5,7.8,7.8H381.7z"/>
					<rect x="381.7" y="286.5" class="st47" width="15.3" height="3.8"/>
				</g>
				<g>
					<path class="st47" d="M88.9,273.2c0-3.4-0.6-14,4.1-14c4,0,4.1,10.6,4.1,14H88.9z"/>
					<path class="st47" d="M100.1,273.2c0-3.4-0.6-14,4.1-14c4,0,4.1,10.6,4.1,14H100.1z"/>
				</g>
				<g>
					<path class="st47" d="M88.9,235.5c0-3.4-0.6-14,4.1-14c4,0,4.1,10.6,4.1,14H88.9z"/>
					<path class="st47" d="M100.1,235.5c0-3.4-0.6-14,4.1-14c4,0,4.1,10.6,4.1,14H100.1z"/>
				</g>
				<path class="st47" d="M92.1,193.5c0-5.3-1-22,6.5-22c6.3,0,6.5,16.7,6.5,22H92.1z"/>
				<line class="st11" x1="72.3" y1="251.3" x2="124.6" y2="251.3"/>
				<line class="st11" x1="72.3" y1="209.6" x2="124.6" y2="209.6"/>
				<polyline class="st48" points="406.5,174.3 397.7,174.3 397.7,181.1 369.7,181.1 369.7,172.8 356.7,172.8 356.7,181.1 
					335.5,181.1 328.6,181.1 317.3,181.1 317.3,172.8 304.3,172.8 304.3,181.1 276.3,181.1 276.3,174.3 267.6,174.3 				"/>
				<line class="st48" x1="125.7" y1="280.8" x2="259" y2="280.8"/>
				<line class="st46" x1="146" y1="290.1" x2="146" y2="297.1"/>
				<line class="st46" x1="194.7" y1="290.1" x2="194.7" y2="297.1"/>
				<line class="st46" x1="243.3" y1="290.1" x2="243.3" y2="297.1"/>
				<line class="st11" x1="98.7" y1="137.1" x2="98.7" y2="125.5"/>
			</g>
		</g>
		<path class="st11" d="M126,213.6l6.3-0.1l14-4.7l14-6.7l11.3-2h14.7l24-11.3l21.7-10.7c0,0,20.3,0,22.3-5.3
			c2-5.3,11.7-13.3,14.3-14"/>
		<polyline class="st11" points="22.3,244.8 37.7,237.4 61,218.8 70.6,216.9 		"/>
		<path class="st11" d="M141.7,209.8c0,0,28.7-23.7,40.7-25.7s33.3-12,34.7-14s38.7-29.3,44.7-29.3c3,0,8.8-1.2,13.9-2.3"/>
		<path class="st11" d="M389,124.1c0,0,26,0,39.3,10c13.3,10,24,11.3,24,11.3"/>
		<path class="st11" d="M403.7,152.1c0,0,23.3,14.7,29.3,14"/>
		<line class="st11" x1="134.3" y1="244.8" x2="266.3" y2="244.8"/>
		<g>
			<path class="st7" d="M114.6,68.5c14.5-8.5,24.3-2,25.5,10.2c1.2,12.2-13.3,14.7-13.3,14.7H65.4c0,0-12.6-3.7-11.3-14.7
				c1.6-14.1,15.2-14.1,20-7"/>
			<path class="st7" d="M70,68c-5.9-7,5.9-23.2,19.4-14.2"/>
			<path class="st7" d="M87.6,59.4c0,0,5.7-17.9,22.5-13.6c14.5,3.7,12.5,18.9,12.5,18.9"/>
		</g>
		<g>
			<path class="st7" d="M238.8,15.6c5.7-6,15.6-1,16,7c0.4,8-8,10.3-8,10.3h-30c0,0-8.3-2.7-6.7-11.3s12-7,12.7-5.3"/>
			<path class="st7" d="M245.5,12.9c0,0-1.5-11.4-13.1-10.4c-11.6,1-11.1,12.7-11.1,12.7"/>
		</g>
		<g>
			<path class="st7" d="M411.4,44.3c-8.2-8.6-22.5-1.4-23,10.1c-0.6,11.5,11.5,14.9,11.5,14.9h43.2c0,0,12-3.8,9.6-16.3
				s-17.3-10.1-18.2-7.7"/>
			<path class="st7" d="M401.8,40.5c0,0,2.2-16.3,18.9-14.9c16.6,1.4,16,18.3,16,18.3"/>
		</g>
	</g>
</g>
<g id="_x23_Forbidden_x5F_City">
</g>
<g id="_x23_Sydney_x5F_Opera_x5F_House">
</g>
<g id="_x23_Space_x5F_Needle">
</g>
<g id="_x23_Pyramid">
</g>
<g id="_x23_The_x5F_Pantheon">
</g>
<g id="_x23_Emirates_x5F_Towers">
</g>
<g id="_x23_China_x5F_wall">
	<g id="_x23_Empire_x5F_State_x5F_Building">
	</g>
</g>
</svg>
