<?xml version="1.0" encoding="utf-8"?>
<!-- Generator: Adobe Illustrator 19.1.0, SVG Export Plug-In . SVG Version: 6.00 Build 0)  -->
<svg version="1.1" xmlns="http://www.w3.org/2000/svg" xmlns:xlink="http://www.w3.org/1999/xlink" x="0px" y="0px"
	 viewBox="0 0 645.4 373.6" style="enable-background:new 0 0 645.4 373.6;" xml:space="preserve">
<style type="text/css">
	.st0{fill:#EDEDED;}
	.st1{fill:#59595A;}
	.st2{fill:none;stroke:#59595B;stroke-width:5;stroke-linejoin:round;stroke-miterlimit:10;}
	.st3{fill:none;stroke:#59595B;stroke-width:4.1457;stroke-linejoin:round;stroke-miterlimit:10;}
	.st4{fill:#F6F5F5;}
	.st5{fill:#59595B;}
	.st6{fill:none;stroke:#59595B;stroke-width:4.0874;stroke-linecap:round;stroke-linejoin:round;stroke-miterlimit:10;}
	.st7{fill:none;stroke:#59595B;stroke-width:5;stroke-linecap:round;stroke-linejoin:round;stroke-miterlimit:10;}
	.st8{fill:#EFEFEF;stroke:#59595B;stroke-width:5;stroke-linecap:round;stroke-linejoin:round;stroke-miterlimit:10;}
	.st9{fill:#EDECED;}
	.st10{fill:none;stroke:#5A5B5B;stroke-width:5;stroke-miterlimit:10;}
	.st11{fill:none;stroke:#5A5B5C;stroke-width:5;stroke-linecap:round;stroke-linejoin:round;stroke-miterlimit:10;}
	.st12{fill:#EDECED;stroke:#5A5B5C;stroke-width:5;stroke-linecap:round;stroke-linejoin:round;stroke-miterlimit:10;}
	.st13{fill:#5A5B5C;stroke:#5A5B5C;stroke-width:5;stroke-linecap:round;stroke-linejoin:round;stroke-miterlimit:10;}
	.st14{fill:none;stroke:#5A5B5B;stroke-width:5;stroke-linecap:round;stroke-linejoin:round;stroke-miterlimit:10;}
	.st15{fill:#F0EFEF;stroke:#5A5B5B;stroke-width:5;stroke-linecap:round;stroke-linejoin:round;stroke-miterlimit:10;}
	.st16{fill:#E8E8E8;stroke:#5A5B5C;stroke-width:5;stroke-linecap:round;stroke-linejoin:round;stroke-miterlimit:10;}
	.st17{fill:#FFFFFF;stroke:#5A5B5B;stroke-width:5;stroke-linecap:round;stroke-linejoin:round;stroke-miterlimit:10;}
	.st18{fill:#EFEFEF;stroke:#59595A;stroke-width:5;stroke-linecap:round;stroke-linejoin:round;stroke-miterlimit:10;}
	.st19{fill:none;stroke:#59595A;stroke-width:5;stroke-miterlimit:10;}
	.st20{fill:none;stroke:#59595A;stroke-width:5;stroke-linecap:round;stroke-miterlimit:10;}
	.st21{fill:none;stroke:#59595A;stroke-width:5;stroke-linejoin:round;stroke-miterlimit:10;}
	.st22{fill:none;stroke:#59595A;stroke-width:4.539;stroke-miterlimit:10;}
	.st23{fill:none;stroke:#59595A;stroke-width:4.1349;stroke-miterlimit:10;}
	.st24{fill:none;stroke:#59595A;stroke-width:3.9798;stroke-miterlimit:10;}
	.st25{fill:none;stroke:#58595B;stroke-width:5;stroke-miterlimit:10;}
	.st26{fill:none;stroke:#58595B;stroke-width:5;stroke-linejoin:round;stroke-miterlimit:10;}
	.st27{fill:none;stroke:#58595B;stroke-width:5;stroke-linecap:round;stroke-linejoin:round;stroke-miterlimit:10;}
	.st28{fill:none;stroke:#59595B;stroke-width:4.2054;stroke-linecap:round;stroke-linejoin:round;stroke-miterlimit:10;}
	.st29{fill:none;stroke:#59595B;stroke-width:5;stroke-miterlimit:10;}
	.st30{fill:#EDECEC;stroke:#59595B;stroke-width:5;stroke-linecap:round;stroke-linejoin:round;stroke-miterlimit:10;}
	.st31{fill:#EDEDED;stroke:#59595A;stroke-width:5;stroke-miterlimit:10;}
	.st32{fill:#EDEDED;stroke:#59595B;stroke-width:5;stroke-linecap:round;stroke-linejoin:round;stroke-miterlimit:10;}
	.st33{fill:none;stroke:#59595A;stroke-width:5;stroke-linecap:round;stroke-linejoin:round;stroke-miterlimit:10;}
	.st34{fill:#58595B;}
	.st35{fill:#59595A;stroke:#EDEDED;stroke-width:3;stroke-miterlimit:10;}
	.st36{fill:#59595A;stroke:#EDEDED;stroke-miterlimit:10;}
	.st37{fill:#EFEFEF;stroke:#59595A;stroke-width:5;stroke-linecap:round;stroke-miterlimit:10;}
	.st38{fill:#EDEDED;stroke:#59595A;stroke-width:5;stroke-linecap:round;stroke-linejoin:round;stroke-miterlimit:10;}
	.st39{fill-rule:evenodd;clip-rule:evenodd;fill:#59595B;}
	
		.st40{fill-rule:evenodd;clip-rule:evenodd;fill:none;stroke:#59595B;stroke-width:5;stroke-linecap:round;stroke-linejoin:round;stroke-miterlimit:10;}
	.st41{fill:none;stroke:#5A5B5C;stroke-width:4.1457;stroke-linejoin:round;stroke-miterlimit:10;}
	.st42{fill:none;stroke:#5A5B5B;stroke-width:4.539;stroke-miterlimit:10;}
	.st43{fill:none;stroke:#5A5B5B;stroke-width:4.1349;stroke-miterlimit:10;}
	.st44{fill:none;stroke:#5A5B5B;stroke-width:3.9798;stroke-miterlimit:10;}
	.st45{fill:none;stroke:#5A5B5C;stroke-width:4;stroke-linecap:round;stroke-linejoin:round;stroke-miterlimit:10;}
	.st46{fill:none;stroke:#595A5C;stroke-width:5;stroke-linecap:round;stroke-linejoin:round;stroke-miterlimit:10;}
	.st47{fill:#5A5B5C;}
	.st48{fill:none;stroke:#595A5C;stroke-width:5;stroke-linejoin:round;stroke-miterlimit:10;}
	.st49{fill:none;stroke:#5A5B5B;stroke-width:5;stroke-linecap:round;stroke-miterlimit:10;}
	.st50{fill:#5A5B5B;}
	.st51{fill:#5A5B5C;stroke:#5A5B5C;stroke-miterlimit:10;}
	.st52{fill:#595A5C;}
	.st53{fill:#EDECED;stroke:#5A5B5B;stroke-width:5;stroke-miterlimit:10;}
	.st54{fill:#FFFFFF;stroke:#5A5B5B;stroke-width:5;stroke-miterlimit:10;}
	.st55{fill:#FFFFFF;stroke:#5A5B5C;stroke-width:5;stroke-linecap:round;stroke-linejoin:round;stroke-miterlimit:10;}
	.st56{fill:#FFFFFF;stroke:#59595B;stroke-width:5;stroke-linecap:round;stroke-linejoin:round;stroke-miterlimit:10;}
	.st57{fill:#FFFFFF;stroke:#59595A;stroke-width:5;stroke-linecap:round;stroke-linejoin:round;stroke-miterlimit:10;}
	.st58{fill:#FFFFFF;stroke:#59595A;stroke-width:5;stroke-miterlimit:10;}
	.st59{fill:none;stroke:#59595B;stroke-width:3.8573;stroke-linejoin:round;stroke-miterlimit:10;}
	.st60{fill:#EDEDED;stroke:#59595B;stroke-width:5;stroke-miterlimit:10;}
	.st61{fill:none;stroke:#59595B;stroke-width:5;stroke-linecap:round;stroke-miterlimit:10;}
	.st62{fill:#59595B;stroke:#59595A;stroke-width:5;stroke-linecap:round;stroke-linejoin:round;stroke-miterlimit:10;}
	.st63{fill:#FFFFFF;stroke:#59595B;stroke-width:5;stroke-miterlimit:10;}
	.st64{fill:#EAEAEA;stroke:#59595A;stroke-width:5;stroke-linecap:round;stroke-linejoin:round;stroke-miterlimit:10;}
	.st65{fill:#EAEAEA;stroke:#59595A;stroke-width:5;stroke-linecap:round;stroke-miterlimit:10;}
</style>
<g id="Background">
</g>
<g id="_x23_Tower_x5F_Bridge">
</g>
<g id="_x23_Washington_x5F_Mountain">
</g>
<g id="_x23_London_x5F_Eye">
</g>
<g id="_x23_Eiffel_x5F_Tower">
	<g id="New_Symbol">
	</g>
</g>
<g id="_x23_Forbidden_x5F_City">
</g>
<g id="_x23_Sydney_x5F_Opera_x5F_House">
</g>
<g id="_x23_Space_x5F_Needle">
</g>
<g id="_x23_Pyramid">
</g>
<g id="_x23_The_x5F_Pantheon">
</g>
<g id="_x23_Emirates_x5F_Towers">
</g>
<g id="_x23_China_x5F_wall">
	<g id="_x23_Empire_x5F_State_x5F_Building">
	</g>
	<g>
		<g>
			<path class="st7" d="M502.4,38c14.5-8.5,24.3-2,25.5,10.2c1.2,12.2-13.3,14.7-13.3,14.7h-61.3c0,0-12.6-3.7-11.3-14.7
				c1.6-14.1,15.2-14.1,20-7"/>
			<path class="st7" d="M457.8,37.5c-5.9-7,5.9-23.2,19.4-14.2"/>
			<path class="st7" d="M475.4,28.9c0,0,5.7-17.9,22.5-13.6c14.5,3.7,12.5,18.9,12.5,18.9"/>
		</g>
		<g>
			<path class="st7" d="M127,66.1c5.7-6,15.6-1,16,7c0.4,8-8,10.3-8,10.3h-30c0,0-8.3-2.7-6.7-11.3c1.7-8.7,12-7,12.7-5.3"/>
			<path class="st7" d="M133.7,63.5c0,0-1.5-11.4-13.1-10.4s-11.1,12.7-11.1,12.7"/>
		</g>
		<g>
			<path class="st7" d="M230.2,21.3c-8.2-8.6-22.5-1.4-23,10.1c-0.6,11.5,11.5,14.9,11.5,14.9h43.2c0,0,12-3.8,9.6-16.3
				c-2.4-12.5-17.3-10.1-18.2-7.7"/>
			<path class="st7" d="M220.6,17.5c0,0,2.2-16.3,18.9-14.9s16,18.3,16,18.3"/>
		</g>
		<g>
			<rect x="2.5" y="292.7" class="st7" width="640.4" height="5.8"/>
			<line class="st7" x1="13.2" y1="292.7" x2="13.2" y2="298.5"/>
			<line class="st7" x1="23.3" y1="292.7" x2="23.3" y2="298.5"/>
			<line class="st7" x1="33.5" y1="292.7" x2="33.5" y2="298.5"/>
			<line class="st7" x1="43.6" y1="292.7" x2="43.6" y2="298.5"/>
			<line class="st7" x1="53.8" y1="292.7" x2="53.8" y2="298.5"/>
			<line class="st7" x1="64" y1="292.7" x2="64" y2="298.5"/>
			<line class="st7" x1="74.1" y1="292.7" x2="74.1" y2="298.5"/>
			<line class="st7" x1="84.3" y1="292.7" x2="84.3" y2="298.5"/>
			<line class="st7" x1="94.5" y1="292.7" x2="94.5" y2="298.5"/>
			<line class="st7" x1="104.6" y1="292.7" x2="104.6" y2="298.5"/>
			<line class="st7" x1="114.8" y1="292.7" x2="114.8" y2="298.5"/>
			<line class="st7" x1="125" y1="292.7" x2="125" y2="298.5"/>
			<line class="st7" x1="135.1" y1="292.7" x2="135.1" y2="298.5"/>
			<line class="st7" x1="145.3" y1="292.7" x2="145.3" y2="298.5"/>
			<line class="st7" x1="155.5" y1="292.7" x2="155.5" y2="298.5"/>
			<line class="st7" x1="165.6" y1="292.7" x2="165.6" y2="298.5"/>
			<line class="st7" x1="175.8" y1="292.7" x2="175.8" y2="298.5"/>
			<line class="st7" x1="186" y1="292.7" x2="186" y2="298.5"/>
			<line class="st7" x1="196.1" y1="292.7" x2="196.1" y2="298.5"/>
			<line class="st7" x1="206.3" y1="292.7" x2="206.3" y2="298.5"/>
			<line class="st7" x1="216.5" y1="292.7" x2="216.5" y2="298.5"/>
			<line class="st7" x1="226.6" y1="292.7" x2="226.6" y2="298.5"/>
			<line class="st7" x1="236.8" y1="292.7" x2="236.8" y2="298.5"/>
			<line class="st7" x1="247" y1="292.7" x2="247" y2="298.5"/>
			<line class="st7" x1="257.1" y1="292.7" x2="257.1" y2="298.5"/>
			<line class="st7" x1="267.3" y1="292.7" x2="267.3" y2="298.5"/>
			<line class="st7" x1="277.4" y1="292.7" x2="277.4" y2="298.5"/>
			<line class="st7" x1="287.6" y1="292.7" x2="287.6" y2="298.5"/>
			<line class="st7" x1="297.8" y1="292.7" x2="297.8" y2="298.5"/>
			<line class="st7" x1="307.9" y1="292.7" x2="307.9" y2="298.5"/>
			<line class="st7" x1="318.1" y1="292.7" x2="318.1" y2="298.5"/>
			<line class="st7" x1="328.3" y1="292.7" x2="328.3" y2="298.5"/>
			<line class="st7" x1="338.4" y1="292.7" x2="338.4" y2="298.5"/>
			<line class="st7" x1="348.6" y1="292.7" x2="348.6" y2="298.5"/>
			<line class="st7" x1="358.8" y1="292.7" x2="358.8" y2="298.5"/>
			<line class="st7" x1="368.9" y1="292.7" x2="368.9" y2="298.5"/>
			<line class="st7" x1="379.1" y1="292.7" x2="379.1" y2="298.5"/>
			<line class="st7" x1="389.3" y1="292.7" x2="389.3" y2="298.5"/>
			<line class="st7" x1="399.4" y1="292.7" x2="399.4" y2="298.5"/>
			<line class="st7" x1="409.6" y1="292.7" x2="409.6" y2="298.5"/>
			<line class="st7" x1="419.8" y1="292.7" x2="419.8" y2="298.5"/>
			<line class="st7" x1="429.9" y1="292.7" x2="429.9" y2="298.5"/>
			<line class="st7" x1="440.1" y1="292.7" x2="440.1" y2="298.5"/>
			<line class="st7" x1="450.3" y1="292.7" x2="450.3" y2="298.5"/>
			<line class="st7" x1="460.4" y1="292.7" x2="460.4" y2="298.5"/>
			<line class="st7" x1="470.6" y1="292.7" x2="470.6" y2="298.5"/>
			<line class="st7" x1="480.8" y1="292.7" x2="480.8" y2="298.5"/>
			<line class="st7" x1="490.9" y1="292.7" x2="490.9" y2="298.5"/>
			<line class="st7" x1="501.1" y1="292.7" x2="501.1" y2="298.5"/>
			<line class="st7" x1="511.2" y1="292.7" x2="511.2" y2="298.5"/>
			<line class="st7" x1="521.4" y1="292.7" x2="521.4" y2="298.5"/>
			<line class="st7" x1="531.6" y1="292.7" x2="531.6" y2="298.5"/>
			<line class="st7" x1="541.7" y1="292.7" x2="541.7" y2="298.5"/>
			<line class="st7" x1="551.9" y1="292.7" x2="551.9" y2="298.5"/>
			<line class="st7" x1="562.1" y1="292.7" x2="562.1" y2="298.5"/>
			<line class="st7" x1="572.2" y1="292.7" x2="572.2" y2="298.5"/>
			<line class="st7" x1="582.4" y1="292.7" x2="582.4" y2="298.5"/>
			<line class="st7" x1="592.6" y1="292.7" x2="592.6" y2="298.5"/>
			<line class="st7" x1="602.7" y1="292.7" x2="602.7" y2="298.5"/>
			<line class="st7" x1="612.9" y1="292.7" x2="612.9" y2="298.5"/>
			<line class="st7" x1="623.1" y1="292.7" x2="623.1" y2="298.5"/>
			<line class="st7" x1="633.2" y1="292.7" x2="633.2" y2="298.5"/>
		</g>
		<g>
			<rect x="235.8" y="132.5" class="st7" width="173.8" height="6"/>
			<line class="st7" x1="244.9" y1="132.5" x2="244.9" y2="138.5"/>
			<line class="st7" x1="254" y1="132.5" x2="254" y2="138.5"/>
			<line class="st7" x1="263.1" y1="132.5" x2="263.1" y2="138.5"/>
			<line class="st7" x1="272.3" y1="132.5" x2="272.3" y2="138.5"/>
			<line class="st7" x1="281.4" y1="132.5" x2="281.4" y2="138.5"/>
			<line class="st7" x1="290.5" y1="132.5" x2="290.5" y2="138.5"/>
			<line class="st7" x1="299.6" y1="132.5" x2="299.6" y2="138.5"/>
			<line class="st7" x1="308.7" y1="132.5" x2="308.7" y2="138.5"/>
			<line class="st7" x1="317.8" y1="132.5" x2="317.8" y2="138.5"/>
			<line class="st7" x1="326.9" y1="132.5" x2="326.9" y2="138.5"/>
			<line class="st7" x1="336" y1="132.5" x2="336" y2="138.5"/>
			<line class="st7" x1="345.2" y1="132.5" x2="345.2" y2="138.5"/>
			<line class="st7" x1="354.3" y1="132.5" x2="354.3" y2="138.5"/>
			<line class="st7" x1="363.4" y1="132.5" x2="363.4" y2="138.5"/>
			<line class="st7" x1="372.5" y1="132.5" x2="372.5" y2="138.5"/>
			<line class="st7" x1="381.6" y1="132.5" x2="381.6" y2="138.5"/>
			<line class="st7" x1="390.7" y1="132.5" x2="390.7" y2="138.5"/>
			<line class="st7" x1="399.8" y1="132.5" x2="399.8" y2="138.5"/>
		</g>
		<g>
			<polygon class="st26" points="229,249.2 164.9,249.2 164,243.5 229.9,243.5 			"/>
			<polygon class="st26" points="228.3,243.4 165.6,243.4 164.7,237.8 229.2,237.8 			"/>
			<rect x="165.6" y="249.2" class="st27" width="62.7" height="43"/>
			<line class="st27" x1="172.6" y1="249.7" x2="172.6" y2="292.2"/>
			<line class="st27" x1="221.4" y1="249.7" x2="221.4" y2="292.2"/>
		</g>
		<g>
			<polygon class="st26" points="229,194.5 164.9,194.5 164,188.8 229.9,188.8 			"/>
			<polygon class="st26" points="228.3,188.7 165.6,188.7 164.7,183.2 229.2,183.2 			"/>
			<rect x="165.6" y="194.5" class="st27" width="62.7" height="43"/>
			<line class="st27" x1="172.6" y1="195.1" x2="172.6" y2="237.5"/>
			<line class="st27" x1="221.4" y1="195.1" x2="221.4" y2="237.5"/>
		</g>
		<polygon class="st26" points="229,160.5 164.9,160.5 164,155.2 229.9,155.2 		"/>
		<polygon class="st26" points="229,155.2 164.9,155.2 164,149.8 229.9,149.8 		"/>
		<rect x="165.6" y="160.4" class="st27" width="62.7" height="22.6"/>
		<line class="st27" x1="172.6" y1="160.7" x2="172.6" y2="183"/>
		<line class="st27" x1="221.4" y1="160.7" x2="221.4" y2="183"/>
		<line class="st26" x1="172.6" y1="167.6" x2="221.4" y2="167.6"/>
		<line class="st27" x1="178.3" y1="173.2" x2="178.3" y2="177.7"/>
		<line class="st27" x1="184.5" y1="173.2" x2="184.5" y2="177.7"/>
		<line class="st27" x1="190.6" y1="173.2" x2="190.6" y2="177.7"/>
		<line class="st27" x1="196.8" y1="173.2" x2="196.8" y2="177.7"/>
		<line class="st27" x1="202.9" y1="173.2" x2="202.9" y2="177.7"/>
		<line class="st27" x1="193.5" y1="101.8" x2="193.5" y2="106.3"/>
		<line class="st27" x1="199.7" y1="101.8" x2="199.7" y2="106.3"/>
		<line class="st27" x1="185.3" y1="217" x2="185.3" y2="225.7"/>
		<line class="st27" x1="196.6" y1="217" x2="196.6" y2="225.7"/>
		<line class="st27" x1="208" y1="217" x2="208" y2="225.7"/>
		<line class="st27" x1="182.2" y1="128.2" x2="182.2" y2="136.9"/>
		<line class="st27" x1="189.4" y1="128.2" x2="189.4" y2="136.9"/>
		<line class="st27" x1="196.7" y1="128.2" x2="196.7" y2="136.9"/>
		<line class="st27" x1="203.8" y1="128.2" x2="203.8" y2="136.9"/>
		<line class="st27" x1="211" y1="128.2" x2="211" y2="136.9"/>
		<line class="st27" x1="185.3" y1="273.3" x2="185.3" y2="282"/>
		<line class="st27" x1="196.6" y1="273.3" x2="196.6" y2="282"/>
		<line class="st27" x1="208" y1="273.3" x2="208" y2="282"/>
		<line class="st27" x1="185.3" y1="261.4" x2="185.3" y2="264"/>
		<line class="st27" x1="196.6" y1="261.4" x2="196.6" y2="264"/>
		<line class="st27" x1="208" y1="261.4" x2="208" y2="264"/>
		<line class="st27" x1="209.1" y1="173.2" x2="209.1" y2="177.7"/>
		<line class="st27" x1="215.3" y1="173.2" x2="215.3" y2="177.7"/>
		<rect x="158.1" y="116.8" class="st27" width="77.7" height="33"/>
		<line class="st27" x1="154.4" y1="149.8" x2="239.5" y2="149.8"/>
		<line class="st27" x1="154.4" y1="116.8" x2="239.5" y2="116.8"/>
		<line class="st27" x1="154.1" y1="121.3" x2="239.1" y2="121.3"/>
		<rect x="169" y="116.8" class="st27" width="55.8" height="33"/>
		<rect x="158.1" y="107.4" class="st27" width="11" height="9.3"/>
		<rect x="224.4" y="107.4" class="st27" width="11" height="9.3"/>
		<path class="st27" d="M185.4,96.8c0,0,3-4.7,11.2-4.7c8.2,0,11.5,4.7,11.5,4.7v19.8h-22.7V96.8z"/>
		<polygon class="st27" points="163.6,99.3 158.1,107.4 169,107.4 		"/>
		<polygon class="st27" points="229.9,99.3 224.4,107.4 235.3,107.4 		"/>
		<polyline class="st27" points="208,96.2 196.7,75.6 185.4,96.2 		"/>
		<path class="st56" d="M224.9,300.6h-56.2c-2.2,0-4.1-1.8-4.1-4.1l0,0c0-2.2,1.8-4.1,4.1-4.1h56.2c2.2,0,4.1,1.8,4.1,4.1l0,0
			C229,298.8,227.1,300.6,224.9,300.6z"/>
		<rect x="164.6" y="298.3" class="st56" width="64.4" height="51.3"/>
		<line class="st7" x1="164.6" y1="308" x2="229" y2="308"/>
		<line class="st7" x1="177.6" y1="302.9" x2="179.7" y2="302.9"/>
		<line class="st7" x1="195.7" y1="302.9" x2="197.9" y2="302.9"/>
		<line class="st7" x1="213.8" y1="302.9" x2="216" y2="302.9"/>
		<line class="st7" x1="164.6" y1="314.4" x2="229" y2="314.4"/>
		<line class="st7" x1="164.6" y1="321.4" x2="229" y2="321.4"/>
		<line class="st7" x1="164.6" y1="328.5" x2="229" y2="328.5"/>
		<line class="st7" x1="164.6" y1="335.5" x2="229" y2="335.5"/>
		<line class="st7" x1="164.6" y1="342.6" x2="229" y2="342.6"/>
		<line class="st7" x1="196.8" y1="308" x2="196.8" y2="314.4"/>
		<line class="st7" x1="206.7" y1="308" x2="206.7" y2="314.4"/>
		<line class="st7" x1="216.6" y1="308" x2="216.6" y2="314.4"/>
		<line class="st7" x1="177" y1="308" x2="177" y2="314.4"/>
		<line class="st7" x1="186.9" y1="308" x2="186.9" y2="314.4"/>
		<line class="st7" x1="196.8" y1="321.4" x2="196.8" y2="327.8"/>
		<line class="st7" x1="206.7" y1="321.4" x2="206.7" y2="327.8"/>
		<line class="st7" x1="216.6" y1="321.4" x2="216.6" y2="327.8"/>
		<line class="st7" x1="177" y1="321.4" x2="177" y2="327.8"/>
		<line class="st7" x1="186.9" y1="321.4" x2="186.9" y2="327.8"/>
		<line class="st7" x1="196.8" y1="335.6" x2="196.8" y2="342"/>
		<line class="st7" x1="206.7" y1="335.6" x2="206.7" y2="342"/>
		<line class="st7" x1="216.6" y1="335.6" x2="216.6" y2="342"/>
		<line class="st7" x1="177" y1="335.6" x2="177" y2="342"/>
		<line class="st7" x1="186.9" y1="335.6" x2="186.9" y2="342"/>
		<line class="st7" x1="191.8" y1="342.6" x2="191.8" y2="349"/>
		<line class="st7" x1="201.6" y1="342.6" x2="201.6" y2="349"/>
		<line class="st7" x1="211.5" y1="342.6" x2="211.5" y2="349"/>
		<line class="st7" x1="172" y1="342.6" x2="172" y2="349"/>
		<line class="st7" x1="181.9" y1="342.6" x2="181.9" y2="349"/>
		<line class="st7" x1="191.8" y1="328.5" x2="191.8" y2="334.9"/>
		<line class="st7" x1="201.6" y1="328.5" x2="201.6" y2="334.9"/>
		<line class="st7" x1="211.5" y1="328.5" x2="211.5" y2="334.9"/>
		<line class="st7" x1="172" y1="328.5" x2="172" y2="334.9"/>
		<line class="st7" x1="181.9" y1="328.5" x2="181.9" y2="334.9"/>
		<line class="st7" x1="191.8" y1="315" x2="191.8" y2="321.4"/>
		<line class="st7" x1="201.6" y1="315" x2="201.6" y2="321.4"/>
		<line class="st7" x1="211.5" y1="315" x2="211.5" y2="321.4"/>
		<line class="st7" x1="221.9" y1="315" x2="221.9" y2="321.4"/>
		<line class="st7" x1="221.9" y1="329.1" x2="221.9" y2="335.5"/>
		<line class="st7" x1="221.9" y1="343.1" x2="221.9" y2="348.8"/>
		<line class="st7" x1="172" y1="315" x2="172" y2="321.4"/>
		<line class="st7" x1="181.9" y1="315" x2="181.9" y2="321.4"/>
		<g>
			<polygon class="st26" points="481.4,249.2 417.3,249.2 416.5,243.5 482.3,243.5 			"/>
			<polygon class="st26" points="480.8,243.4 418,243.4 417.1,237.8 481.6,237.8 			"/>
			<rect x="418.1" y="249.2" class="st27" width="62.7" height="43"/>
			<line class="st27" x1="425.1" y1="249.7" x2="425.1" y2="292.2"/>
			<line class="st27" x1="473.8" y1="249.7" x2="473.8" y2="292.2"/>
		</g>
		<g>
			<polygon class="st26" points="481.4,194.5 417.3,194.5 416.5,188.8 482.3,188.8 			"/>
			<polygon class="st26" points="480.8,188.7 418,188.7 417.1,183.2 481.6,183.2 			"/>
			<rect x="418.1" y="194.5" class="st27" width="62.7" height="43"/>
			<line class="st27" x1="425.1" y1="195.1" x2="425.1" y2="237.5"/>
			<line class="st27" x1="473.8" y1="195.1" x2="473.8" y2="237.5"/>
		</g>
		<polygon class="st26" points="481.4,160.5 417.3,160.5 416.5,155.2 482.3,155.2 		"/>
		<polygon class="st26" points="481.4,155.2 417.3,155.2 416.5,149.8 482.3,149.8 		"/>
		<rect x="418.1" y="160.4" class="st27" width="62.7" height="22.6"/>
		<line class="st27" x1="425.1" y1="160.7" x2="425.1" y2="183"/>
		<line class="st27" x1="473.8" y1="160.7" x2="473.8" y2="183"/>
		<line class="st26" x1="425.1" y1="167.6" x2="473.8" y2="167.6"/>
		<line class="st27" x1="430.7" y1="173.2" x2="430.7" y2="177.7"/>
		<line class="st27" x1="436.9" y1="173.2" x2="436.9" y2="177.7"/>
		<line class="st27" x1="443" y1="173.2" x2="443" y2="177.7"/>
		<line class="st27" x1="449.2" y1="173.2" x2="449.2" y2="177.7"/>
		<line class="st27" x1="455.4" y1="173.2" x2="455.4" y2="177.7"/>
		<line class="st27" x1="446" y1="101.8" x2="446" y2="106.3"/>
		<line class="st27" x1="452.1" y1="101.8" x2="452.1" y2="106.3"/>
		<line class="st27" x1="437.7" y1="217" x2="437.7" y2="225.7"/>
		<line class="st27" x1="449" y1="217" x2="449" y2="225.7"/>
		<line class="st27" x1="460.4" y1="217" x2="460.4" y2="225.7"/>
		<line class="st27" x1="434.6" y1="128.2" x2="434.6" y2="136.9"/>
		<line class="st27" x1="441.9" y1="128.2" x2="441.9" y2="136.9"/>
		<line class="st27" x1="449.1" y1="128.2" x2="449.1" y2="136.9"/>
		<line class="st27" x1="456.2" y1="128.2" x2="456.2" y2="136.9"/>
		<line class="st27" x1="463.4" y1="128.2" x2="463.4" y2="136.9"/>
		<line class="st27" x1="437.7" y1="273.3" x2="437.7" y2="282"/>
		<line class="st27" x1="449" y1="273.3" x2="449" y2="282"/>
		<line class="st27" x1="460.4" y1="273.3" x2="460.4" y2="282"/>
		<line class="st27" x1="437.7" y1="261.4" x2="437.7" y2="264"/>
		<line class="st27" x1="449" y1="261.4" x2="449" y2="264"/>
		<line class="st27" x1="460.4" y1="261.4" x2="460.4" y2="264"/>
		<line class="st27" x1="461.5" y1="173.2" x2="461.5" y2="177.7"/>
		<line class="st27" x1="467.7" y1="173.2" x2="467.7" y2="177.7"/>
		<rect x="410.5" y="116.8" class="st27" width="77.7" height="33"/>
		<line class="st27" x1="406.9" y1="149.8" x2="491.9" y2="149.8"/>
		<line class="st27" x1="406.9" y1="116.8" x2="491.9" y2="116.8"/>
		<line class="st27" x1="406.5" y1="121.3" x2="491.5" y2="121.3"/>
		<rect x="421.5" y="116.8" class="st27" width="55.8" height="33"/>
		<rect x="410.5" y="107.4" class="st27" width="11" height="9.3"/>
		<rect x="476.8" y="107.4" class="st27" width="11" height="9.3"/>
		<path class="st27" d="M437.9,96.8c0,0,3-4.7,11.2-4.7s11.5,4.7,11.5,4.7v19.8h-22.7V96.8z"/>
		<polygon class="st27" points="416,99.3 410.5,107.4 421.5,107.4 		"/>
		<polygon class="st27" points="482.3,99.3 476.8,107.4 487.8,107.4 		"/>
		<polyline class="st27" points="460.4,96.2 449.1,75.6 437.9,96.2 		"/>
		<path class="st56" d="M477.3,300.6h-56.2c-2.2,0-4.1-1.8-4.1-4.1l0,0c0-2.2,1.8-4.1,4.1-4.1h56.2c2.2,0,4.1,1.8,4.1,4.1l0,0
			C481.4,298.8,479.6,300.6,477.3,300.6z"/>
		<rect x="417" y="298.3" class="st56" width="64.4" height="51.3"/>
		<line class="st7" x1="417" y1="308" x2="481.4" y2="308"/>
		<line class="st7" x1="430" y1="302.9" x2="432.1" y2="302.9"/>
		<line class="st7" x1="448.1" y1="302.9" x2="450.3" y2="302.9"/>
		<line class="st7" x1="466.3" y1="302.9" x2="468.4" y2="302.9"/>
		<line class="st7" x1="417" y1="314.4" x2="481.4" y2="314.4"/>
		<line class="st7" x1="417" y1="321.4" x2="481.4" y2="321.4"/>
		<line class="st7" x1="417" y1="328.5" x2="481.4" y2="328.5"/>
		<line class="st7" x1="417" y1="335.5" x2="481.4" y2="335.5"/>
		<line class="st7" x1="417" y1="342.6" x2="481.4" y2="342.6"/>
		<line class="st7" x1="449.2" y1="308" x2="449.2" y2="314.4"/>
		<line class="st7" x1="459.1" y1="308" x2="459.1" y2="314.4"/>
		<line class="st7" x1="469" y1="308" x2="469" y2="314.4"/>
		<line class="st7" x1="429.4" y1="308" x2="429.4" y2="314.4"/>
		<line class="st7" x1="439.3" y1="308" x2="439.3" y2="314.4"/>
		<line class="st7" x1="449.2" y1="321.4" x2="449.2" y2="327.8"/>
		<line class="st7" x1="459.1" y1="321.4" x2="459.1" y2="327.8"/>
		<line class="st7" x1="469" y1="321.4" x2="469" y2="327.8"/>
		<line class="st7" x1="429.4" y1="321.4" x2="429.4" y2="327.8"/>
		<line class="st7" x1="439.3" y1="321.4" x2="439.3" y2="327.8"/>
		<line class="st7" x1="449.2" y1="335.6" x2="449.2" y2="342"/>
		<line class="st7" x1="459.1" y1="335.6" x2="459.1" y2="342"/>
		<line class="st7" x1="469" y1="335.6" x2="469" y2="342"/>
		<line class="st7" x1="429.4" y1="335.6" x2="429.4" y2="342"/>
		<line class="st7" x1="439.3" y1="335.6" x2="439.3" y2="342"/>
		<line class="st7" x1="444.2" y1="342.6" x2="444.2" y2="349"/>
		<line class="st7" x1="454.1" y1="342.6" x2="454.1" y2="349"/>
		<line class="st7" x1="464" y1="342.6" x2="464" y2="349"/>
		<line class="st7" x1="424.4" y1="342.6" x2="424.4" y2="349"/>
		<line class="st7" x1="434.3" y1="342.6" x2="434.3" y2="349"/>
		<line class="st7" x1="444.2" y1="328.5" x2="444.2" y2="334.9"/>
		<line class="st7" x1="454.1" y1="328.5" x2="454.1" y2="334.9"/>
		<line class="st7" x1="464" y1="328.5" x2="464" y2="334.9"/>
		<line class="st7" x1="424.4" y1="328.5" x2="424.4" y2="334.9"/>
		<line class="st7" x1="434.3" y1="328.5" x2="434.3" y2="334.9"/>
		<line class="st7" x1="444.2" y1="315" x2="444.2" y2="321.4"/>
		<line class="st7" x1="454.1" y1="315" x2="454.1" y2="321.4"/>
		<line class="st7" x1="464" y1="315" x2="464" y2="321.4"/>
		<line class="st7" x1="474.3" y1="315" x2="474.3" y2="321.4"/>
		<line class="st7" x1="474.3" y1="329.1" x2="474.3" y2="335.5"/>
		<line class="st7" x1="474.3" y1="343.1" x2="474.3" y2="348.8"/>
		<line class="st7" x1="424.4" y1="315" x2="424.4" y2="321.4"/>
		<line class="st7" x1="434.3" y1="315" x2="434.3" y2="321.4"/>
		<g>
			<path class="st7" d="M161.3,149.8C114.3,249.3,2.5,292.7,2.5,292.7"/>
			<path class="st7" d="M163.9,149.8C93.2,286.8,6.3,292.7,6.3,292.7"/>
			<line class="st7" x1="149" y1="175.5" x2="149" y2="292.7"/>
			<line class="st7" x1="130.8" y1="203.7" x2="130.8" y2="292.7"/>
			<line class="st7" x1="110.7" y1="228.5" x2="110.7" y2="292.7"/>
			<line class="st7" x1="90.6" y1="249.9" x2="90.6" y2="292.7"/>
			<line class="st7" x1="70.5" y1="264.8" x2="70.5" y2="292.7"/>
			<line class="st7" x1="50.4" y1="277.8" x2="50.4" y2="292.7"/>
		</g>
		<g>
			<path class="st7" d="M484.9,149.8c46.7,99.5,157.9,142.9,157.9,142.9"/>
			<path class="st7" d="M482.3,149.8C552.6,286.8,639,292.7,639,292.7"/>
			<line class="st7" x1="497.1" y1="175.5" x2="497.1" y2="292.7"/>
			<line class="st7" x1="515.2" y1="203.7" x2="515.2" y2="292.7"/>
			<line class="st7" x1="535.2" y1="228.5" x2="535.2" y2="292.7"/>
			<line class="st7" x1="555.2" y1="249.9" x2="555.2" y2="292.7"/>
			<line class="st7" x1="575.2" y1="264.8" x2="575.2" y2="292.7"/>
			<line class="st7" x1="595.2" y1="277.8" x2="595.2" y2="292.7"/>
		</g>
		<g>
			<path class="st33" d="M138,366.2c0,0,3.8,4.8,9,4.8c5.1,0,9-4.8,9-4.8"/>
			<path class="st33" d="M156,366.2c0,0,3.8,4.8,9,4.8s9-4.8,9-4.8"/>
			<path class="st33" d="M174,366.2c0,0,3.8,4.8,9,4.8c5.1,0,9-4.8,9-4.8"/>
			<path class="st33" d="M191.9,366.2c0,0,3.8,4.8,9,4.8c5.1,0,9-4.8,9-4.8"/>
			<path class="st33" d="M209.9,366.2c0,0,3.8,4.8,9,4.8c5.1,0,9-4.8,9-4.8"/>
			<path class="st33" d="M227.8,366.2c0,0,3.8,4.8,9,4.8s9-4.8,9-4.8"/>
			<path class="st33" d="M245.8,366.2c0,0,3.8,4.8,9,4.8s9-4.8,9-4.8"/>
			<path class="st33" d="M263.7,366.2c0,0,3.8,4.8,9,4.8s9-4.8,9-4.8"/>
			<path class="st33" d="M281.7,366.2c0,0,3.8,4.8,9,4.8s9-4.8,9-4.8"/>
			<path class="st33" d="M299.6,366.2c0,0,3.8,4.8,9,4.8c5.1,0,9-4.8,9-4.8"/>
			<path class="st33" d="M317.8,366.2c0,0,3.8,4.8,9,4.8s9-4.8,9-4.8"/>
			<path class="st33" d="M335.7,366.2c0,0,3.8,4.8,9,4.8s9-4.8,9-4.8"/>
			<path class="st33" d="M353.7,366.2c0,0,3.8,4.8,9,4.8s9-4.8,9-4.8"/>
			<path class="st33" d="M371.7,366.2c0,0,3.8,4.8,9,4.8s9-4.8,9-4.8"/>
			<path class="st33" d="M389.6,366.2c0,0,3.8,4.8,9,4.8c5.1,0,9-4.8,9-4.8"/>
			<path class="st33" d="M407.6,366.2c0,0,3.8,4.8,9,4.8c5.1,0,9-4.8,9-4.8"/>
			<path class="st33" d="M425.5,366.2c0,0,3.8,4.8,9,4.8c5.1,0,9-4.8,9-4.8"/>
			<path class="st33" d="M443.5,366.2c0,0,3.8,4.8,9,4.8s9-4.8,9-4.8"/>
			<path class="st33" d="M461.4,366.2c0,0,3.8,4.8,9,4.8s9-4.8,9-4.8"/>
			<path class="st33" d="M479.4,366.2c0,0,3.8,4.8,9,4.8s9-4.8,9-4.8"/>
		</g>
		<g>
			<path class="st33" d="M98.1,348.4c0,0,3.8,4.8,9,4.8c5.1,0,9-4.8,9-4.8"/>
			<path class="st33" d="M116.1,348.4c0,0,3.8,4.8,9,4.8c5.1,0,9-4.8,9-4.8"/>
			<path class="st33" d="M134.1,348.4c0,0,3.8,4.8,9,4.8c5.1,0,9-4.8,9-4.8"/>
			<path class="st33" d="M152,348.4c0,0,3.8,4.8,9,4.8s9-4.8,9-4.8"/>
			<path class="st33" d="M170,348.4c0,0,3.8,4.8,9,4.8c5.1,0,9-4.8,9-4.8"/>
			<path class="st33" d="M187.9,348.4c0,0,3.8,4.8,9,4.8c5.1,0,9-4.8,9-4.8"/>
			<path class="st33" d="M205.9,348.4c0,0,3.8,4.8,9,4.8c5.1,0,9-4.8,9-4.8"/>
			<path class="st33" d="M223.8,348.4c0,0,3.8,4.8,9,4.8s9-4.8,9-4.8"/>
			<path class="st33" d="M241.8,348.4c0,0,3.8,4.8,9,4.8s9-4.8,9-4.8"/>
			<path class="st33" d="M259.7,348.4c0,0,3.8,4.8,9,4.8s9-4.8,9-4.8"/>
			<path class="st33" d="M277.9,348.4c0,0,3.8,4.8,9,4.8s9-4.8,9-4.8"/>
			<path class="st33" d="M313.8,348.4c0,0,3.8,4.8,9,4.8c5.1,0,9-4.8,9-4.8"/>
			<path class="st33" d="M331.8,348.4c0,0,3.8,4.8,9,4.8c5.1,0,9-4.8,9-4.8"/>
			<path class="st33" d="M349.7,348.4c0,0,3.8,4.8,9,4.8s9-4.8,9-4.8"/>
			<path class="st33" d="M367.7,348.4c0,0,3.8,4.8,9,4.8s9-4.8,9-4.8"/>
			<path class="st33" d="M385.6,348.4c0,0,3.8,4.8,9,4.8s9-4.8,9-4.8"/>
			<path class="st33" d="M403.6,348.4c0,0,3.8,4.8,9,4.8s9-4.8,9-4.8"/>
			<path class="st33" d="M421.5,348.4c0,0,3.8,4.8,9,4.8s9-4.8,9-4.8"/>
			<path class="st33" d="M439.5,348.4c0,0,3.8,4.8,9,4.8s9-4.8,9-4.8"/>
			<path class="st33" d="M457.4,348.4c0,0,3.8,4.8,9,4.8s9-4.8,9-4.8"/>
			<path class="st33" d="M295.8,348.4c0,0,3.8,4.8,9,4.8c5.1,0,9-4.8,9-4.8"/>
			<path class="st33" d="M475.4,348.4c0,0,3.8,4.8,9,4.8c5.1,0,9-4.8,9-4.8"/>
			<path class="st33" d="M493.3,348.4c0,0,3.8,4.8,9,4.8c5.1,0,9-4.8,9-4.8"/>
			<path class="st33" d="M511.3,348.4c0,0,3.8,4.8,9,4.8s9-4.8,9-4.8"/>
			<path class="st33" d="M529.3,348.4c0,0,3.8,4.8,9,4.8s9-4.8,9-4.8"/>
		</g>
	</g>
</g>
</svg>
