<?xml version="1.0" encoding="utf-8"?>
<!-- Generator: Adobe Illustrator 19.1.0, SVG Export Plug-In . SVG Version: 6.00 Build 0)  -->
<svg version="1.1" xmlns="http://www.w3.org/2000/svg" xmlns:xlink="http://www.w3.org/1999/xlink" x="0px" y="0px"
	 viewBox="0 0 474.2 379.2" style="enable-background:new 0 0 474.2 379.2;" xml:space="preserve">
<style type="text/css">
	.st0{fill:#EDEDED;}
	.st1{fill:#59595A;}
	.st2{fill:none;stroke:#59595B;stroke-width:5;stroke-linejoin:round;stroke-miterlimit:10;}
	.st3{fill:none;stroke:#59595B;stroke-width:4.1457;stroke-linejoin:round;stroke-miterlimit:10;}
	.st4{fill:#F6F5F5;}
	.st5{fill:#59595B;}
	.st6{fill:none;stroke:#59595B;stroke-width:4.0874;stroke-linecap:round;stroke-linejoin:round;stroke-miterlimit:10;}
	.st7{fill:none;stroke:#59595B;stroke-width:5;stroke-linecap:round;stroke-linejoin:round;stroke-miterlimit:10;}
	.st8{fill:#EFEFEF;stroke:#59595B;stroke-width:5;stroke-linecap:round;stroke-linejoin:round;stroke-miterlimit:10;}
	.st9{fill:#EDECED;}
	.st10{fill:none;stroke:#5A5B5B;stroke-width:5;stroke-miterlimit:10;}
	.st11{fill:none;stroke:#5A5B5C;stroke-width:5;stroke-linecap:round;stroke-linejoin:round;stroke-miterlimit:10;}
	.st12{fill:#EDECED;stroke:#5A5B5C;stroke-width:5;stroke-linecap:round;stroke-linejoin:round;stroke-miterlimit:10;}
	.st13{fill:#5A5B5C;stroke:#5A5B5C;stroke-width:5;stroke-linecap:round;stroke-linejoin:round;stroke-miterlimit:10;}
	.st14{fill:none;stroke:#5A5B5B;stroke-width:5;stroke-linecap:round;stroke-linejoin:round;stroke-miterlimit:10;}
	.st15{fill:#F0EFEF;stroke:#5A5B5B;stroke-width:5;stroke-linecap:round;stroke-linejoin:round;stroke-miterlimit:10;}
	.st16{fill:#E8E8E8;stroke:#5A5B5C;stroke-width:5;stroke-linecap:round;stroke-linejoin:round;stroke-miterlimit:10;}
	.st17{fill:#FFFFFF;stroke:#5A5B5B;stroke-width:5;stroke-linecap:round;stroke-linejoin:round;stroke-miterlimit:10;}
	.st18{fill:#EFEFEF;stroke:#59595A;stroke-width:5;stroke-linecap:round;stroke-linejoin:round;stroke-miterlimit:10;}
	.st19{fill:none;stroke:#59595A;stroke-width:5;stroke-miterlimit:10;}
	.st20{fill:none;stroke:#59595A;stroke-width:5;stroke-linecap:round;stroke-miterlimit:10;}
	.st21{fill:none;stroke:#59595A;stroke-width:5;stroke-linejoin:round;stroke-miterlimit:10;}
	.st22{fill:none;stroke:#59595A;stroke-width:4.539;stroke-miterlimit:10;}
	.st23{fill:none;stroke:#59595A;stroke-width:4.1349;stroke-miterlimit:10;}
	.st24{fill:none;stroke:#59595A;stroke-width:3.9798;stroke-miterlimit:10;}
	.st25{fill:none;stroke:#58595B;stroke-width:5;stroke-miterlimit:10;}
	.st26{fill:none;stroke:#58595B;stroke-width:5;stroke-linejoin:round;stroke-miterlimit:10;}
	.st27{fill:none;stroke:#58595B;stroke-width:5;stroke-linecap:round;stroke-linejoin:round;stroke-miterlimit:10;}
	.st28{fill:none;stroke:#59595B;stroke-width:4.2054;stroke-linecap:round;stroke-linejoin:round;stroke-miterlimit:10;}
	.st29{fill:none;stroke:#59595B;stroke-width:5;stroke-miterlimit:10;}
	.st30{fill:#EDECEC;stroke:#59595B;stroke-width:5;stroke-linecap:round;stroke-linejoin:round;stroke-miterlimit:10;}
	.st31{fill:#EDEDED;stroke:#59595A;stroke-width:5;stroke-miterlimit:10;}
	.st32{fill:#EDEDED;stroke:#59595B;stroke-width:5;stroke-linecap:round;stroke-linejoin:round;stroke-miterlimit:10;}
	.st33{fill:none;stroke:#59595A;stroke-width:5;stroke-linecap:round;stroke-linejoin:round;stroke-miterlimit:10;}
	.st34{fill:#58595B;}
	.st35{fill:#59595A;stroke:#EDEDED;stroke-width:3;stroke-miterlimit:10;}
	.st36{fill:#59595A;stroke:#EDEDED;stroke-miterlimit:10;}
	.st37{fill:#EFEFEF;stroke:#59595A;stroke-width:5;stroke-linecap:round;stroke-miterlimit:10;}
	.st38{fill:#EDEDED;stroke:#59595A;stroke-width:5;stroke-linecap:round;stroke-linejoin:round;stroke-miterlimit:10;}
	.st39{fill-rule:evenodd;clip-rule:evenodd;fill:#59595B;}
	
		.st40{fill-rule:evenodd;clip-rule:evenodd;fill:none;stroke:#59595B;stroke-width:5;stroke-linecap:round;stroke-linejoin:round;stroke-miterlimit:10;}
	.st41{fill:none;stroke:#5A5B5C;stroke-width:4.1457;stroke-linejoin:round;stroke-miterlimit:10;}
	.st42{fill:none;stroke:#5A5B5B;stroke-width:4.539;stroke-miterlimit:10;}
	.st43{fill:none;stroke:#5A5B5B;stroke-width:4.1349;stroke-miterlimit:10;}
	.st44{fill:none;stroke:#5A5B5B;stroke-width:3.9798;stroke-miterlimit:10;}
	.st45{fill:none;stroke:#5A5B5C;stroke-width:4;stroke-linecap:round;stroke-linejoin:round;stroke-miterlimit:10;}
	.st46{fill:none;stroke:#595A5C;stroke-width:5;stroke-linecap:round;stroke-linejoin:round;stroke-miterlimit:10;}
	.st47{fill:#5A5B5C;}
	.st48{fill:none;stroke:#595A5C;stroke-width:5;stroke-linejoin:round;stroke-miterlimit:10;}
	.st49{fill:none;stroke:#5A5B5B;stroke-width:5;stroke-linecap:round;stroke-miterlimit:10;}
	.st50{fill:#5A5B5B;}
	.st51{fill:#5A5B5C;stroke:#5A5B5C;stroke-miterlimit:10;}
	.st52{fill:#595A5C;}
	.st53{fill:#EDECED;stroke:#5A5B5B;stroke-width:5;stroke-miterlimit:10;}
	.st54{fill:#FFFFFF;stroke:#5A5B5B;stroke-width:5;stroke-miterlimit:10;}
	.st55{fill:#FFFFFF;stroke:#5A5B5C;stroke-width:5;stroke-linecap:round;stroke-linejoin:round;stroke-miterlimit:10;}
	.st56{fill:#FFFFFF;stroke:#59595B;stroke-width:5;stroke-linecap:round;stroke-linejoin:round;stroke-miterlimit:10;}
	.st57{fill:#FFFFFF;stroke:#59595A;stroke-width:5;stroke-linecap:round;stroke-linejoin:round;stroke-miterlimit:10;}
	.st58{fill:#FFFFFF;stroke:#59595A;stroke-width:5;stroke-miterlimit:10;}
	.st59{fill:none;stroke:#59595B;stroke-width:3.8573;stroke-linejoin:round;stroke-miterlimit:10;}
	.st60{fill:#EDEDED;stroke:#59595B;stroke-width:5;stroke-miterlimit:10;}
	.st61{fill:none;stroke:#59595B;stroke-width:5;stroke-linecap:round;stroke-miterlimit:10;}
	.st62{fill:#59595B;stroke:#59595A;stroke-width:5;stroke-linecap:round;stroke-linejoin:round;stroke-miterlimit:10;}
	.st63{fill:#FFFFFF;stroke:#59595B;stroke-width:5;stroke-miterlimit:10;}
	.st64{fill:#EAEAEA;stroke:#59595A;stroke-width:5;stroke-linecap:round;stroke-linejoin:round;stroke-miterlimit:10;}
	.st65{fill:#EAEAEA;stroke:#59595A;stroke-width:5;stroke-linecap:round;stroke-miterlimit:10;}
</style>
<g id="Background">
</g>
<g id="_x23_Tower_x5F_Bridge">
</g>
<g id="_x23_Washington_x5F_Mountain">
</g>
<g id="_x23_London_x5F_Eye">
</g>
<g id="_x23_Eiffel_x5F_Tower">
	<g id="New_Symbol">
	</g>
	<g>
		<line class="st41" x1="232.4" y1="367.2" x2="48.4" y2="367.2"/>
		<line class="st42" x1="474.2" y1="367.2" x2="0" y2="367.2"/>
		<line class="st43" x1="427.3" y1="377.1" x2="33.7" y2="377.1"/>
		<g>
			<polyline class="st11" points="149.5,268.8 149.5,367.3 57.6,367.3 57.6,268.8 			"/>
			<polyline class="st11" points="59.1,272.8 65,261.9 70.9,272.8 			"/>
			<polyline class="st11" points="71.8,272.8 77.8,261.9 83.7,272.8 			"/>
			<polyline class="st11" points="84.6,272.8 90.6,261.9 96.5,272.8 			"/>
			<polyline class="st11" points="97.4,272.8 103.3,261.9 109.3,272.8 			"/>
			<polyline class="st11" points="110.2,272.8 116.1,261.9 122.1,272.8 			"/>
			<polyline class="st11" points="123,272.8 128.9,261.9 134.8,272.8 			"/>
			<polyline class="st11" points="135.8,272.8 141.7,261.9 147.6,272.8 			"/>
			<g>
				<g>
					<path class="st46" d="M111.5,359.7c-0.2-13.4,1.1-29.9-7.1-42.3"/>
					<path class="st46" d="M97.1,359.7c0.2-13.4-1.3-31.8,7.1-42.3"/>
					<line class="st46" x1="97.6" y1="359.6" x2="111.1" y2="359.6"/>
				</g>
				<g>
					<path class="st46" d="M135.5,359.7c-0.2-13.4,1.1-24.6-7.1-37.1"/>
					<path class="st46" d="M121.2,359.7c0.2-13.4-1.3-26.5,7.1-37.1"/>
					<line class="st46" x1="121.8" y1="359.7" x2="134.7" y2="359.6"/>
				</g>
				<g>
					<path class="st46" d="M88.3,360.1c-0.2-13.4,1.1-24.6-7.1-37.1"/>
					<path class="st46" d="M73.9,360.1c0.2-13.4-1.3-26.5,7.1-37.1"/>
					<line class="st46" x1="73.9" y1="360.1" x2="88.3" y2="360.1"/>
				</g>
			</g>
			<g>
				<path class="st46" d="M110.7,300.5c-0.2-6,0.9-12.2-6.3-17.8"/>
				<path class="st46" d="M98.1,300.5c0.2-6-1.1-13.1,6.3-17.8"/>
				<line class="st46" x1="98.1" y1="300.5" x2="109.7" y2="300.5"/>
			</g>
			<g>
				<path class="st46" d="M137.8,300.5c-0.2-6,0.9-12.2-6.3-17.8"/>
				<path class="st46" d="M125.2,300.5c0.2-6-1.1-13.1,6.3-17.8"/>
				<line class="st46" x1="125.2" y1="300.5" x2="136.8" y2="300.5"/>
			</g>
			<g>
				<path class="st46" d="M84.3,300.7c-0.2-6,0.9-12.2-6.3-17.8"/>
				<path class="st46" d="M71.7,300.7c0.2-6-1.1-13.1,6.3-17.8"/>
				<line class="st46" x1="71.7" y1="300.7" x2="83.3" y2="300.7"/>
			</g>
			<line class="st46" x1="57.2" y1="309.9" x2="149.5" y2="309.9"/>
		</g>
		<g>
			<polyline class="st11" points="242.1,268.8 242.1,367.3 150.3,367.3 150.3,268.8 			"/>
			<polyline class="st11" points="151.7,272.8 157.7,261.9 163.6,272.8 			"/>
			<polyline class="st11" points="164.5,272.8 170.4,261.9 176.4,272.8 			"/>
			<polyline class="st11" points="177.3,272.8 183.2,261.9 189.2,272.8 			"/>
			<polyline class="st11" points="190.1,272.8 196,261.9 201.9,272.8 			"/>
			<polyline class="st11" points="202.9,272.8 208.8,261.9 214.7,272.8 			"/>
			<polyline class="st11" points="215.6,272.8 221.6,261.9 227.5,272.8 			"/>
			<polyline class="st11" points="228.4,272.8 234.4,261.9 240.3,272.8 			"/>
			<g>
				<path class="st46" d="M203.4,300.5c-0.2-6,0.9-12.2-6.3-17.8"/>
				<path class="st46" d="M190.8,300.5c0.2-6-1.1-13.1,6.3-17.8"/>
				<line class="st46" x1="190.8" y1="300.5" x2="202.4" y2="300.5"/>
			</g>
			<g>
				<path class="st46" d="M230.5,300.5c-0.2-6,0.9-12.2-6.3-17.8"/>
				<path class="st46" d="M217.9,300.5c0.2-6-1.1-13.1,6.3-17.8"/>
				<line class="st46" x1="217.9" y1="300.5" x2="229.5" y2="300.5"/>
			</g>
			<g>
				<path class="st46" d="M177,300.7c-0.2-6,0.9-12.2-6.3-17.8"/>
				<path class="st46" d="M164.4,300.7c0.2-6-1.1-13.1,6.3-17.8"/>
				<line class="st46" x1="164.4" y1="300.7" x2="176" y2="300.7"/>
			</g>
			<line class="st46" x1="149.9" y1="309.9" x2="242.1" y2="309.9"/>
		</g>
		<g>
			<polyline class="st11" points="334.8,268.8 334.8,367.3 242.9,367.3 242.9,268.8 			"/>
			<polyline class="st11" points="244.4,272.8 250.3,261.9 256.3,272.8 			"/>
			<polyline class="st11" points="257.2,272.8 263.1,261.9 269,272.8 			"/>
			<polyline class="st11" points="270,272.8 275.9,261.9 281.8,272.8 			"/>
			<polyline class="st11" points="282.7,272.8 288.7,261.9 294.6,272.8 			"/>
			<polyline class="st11" points="295.5,272.8 301.5,261.9 307.4,272.8 			"/>
			<polyline class="st11" points="308.3,272.8 314.2,261.9 320.2,272.8 			"/>
			<polyline class="st11" points="321.1,272.8 327,261.9 333,272.8 			"/>
			<g>
				<path class="st46" d="M296,300.5c-0.2-6,0.9-12.2-6.3-17.8"/>
				<path class="st46" d="M283.4,300.5c0.2-6-1.1-13.1,6.3-17.8"/>
				<line class="st46" x1="283.4" y1="300.5" x2="295" y2="300.5"/>
			</g>
			<g>
				<path class="st46" d="M323.1,300.5c-0.2-6,0.9-12.2-6.3-17.8"/>
				<path class="st46" d="M310.6,300.5c0.2-6-1.1-13.1,6.3-17.8"/>
				<line class="st46" x1="310.6" y1="300.5" x2="322.2" y2="300.5"/>
			</g>
			<g>
				<path class="st46" d="M269.6,300.7c-0.2-6,0.9-12.2-6.3-17.8"/>
				<path class="st46" d="M257.1,300.7c0.2-6-1.1-13.1,6.3-17.8"/>
				<line class="st46" x1="257.1" y1="300.7" x2="268.7" y2="300.7"/>
			</g>
			<line class="st46" x1="242.5" y1="309.9" x2="334.8" y2="309.9"/>
		</g>
		<g>
			<polyline class="st11" points="427.5,268.8 427.5,367.3 335.6,367.3 335.6,268.8 			"/>
			<polyline class="st11" points="337.1,272.8 343,261.9 348.9,272.8 			"/>
			<polyline class="st11" points="349.8,272.8 355.8,261.9 361.7,272.8 			"/>
			<polyline class="st11" points="362.6,272.8 368.6,261.9 374.5,272.8 			"/>
			<polyline class="st11" points="375.4,272.8 381.3,261.9 387.3,272.8 			"/>
			<polyline class="st11" points="388.2,272.8 394.1,261.9 400.1,272.8 			"/>
			<polyline class="st11" points="401,272.8 406.9,261.9 412.8,272.8 			"/>
			<polyline class="st11" points="413.8,272.8 419.7,261.9 425.6,272.8 			"/>
			<g>
				<g>
					<path class="st46" d="M389.5,359.7c-0.2-13.4,1.1-29.9-7.1-42.3"/>
					<path class="st46" d="M375.1,359.7c0.2-13.4-1.3-31.8,7.1-42.3"/>
					<line class="st46" x1="375.6" y1="359.6" x2="389.1" y2="359.6"/>
				</g>
				<g>
					<path class="st46" d="M413.5,359.7c-0.2-13.4,1.1-24.6-7.1-37.1"/>
					<path class="st46" d="M399.2,359.7c0.2-13.4-1.3-26.5,7.1-37.1"/>
					<line class="st46" x1="399.8" y1="359.7" x2="412.7" y2="359.6"/>
				</g>
				<g>
					<path class="st46" d="M366.3,360.1c-0.2-13.4,1.1-24.6-7.1-37.1"/>
					<path class="st46" d="M351.9,360.1c0.2-13.4-1.3-26.5,7.1-37.1"/>
					<line class="st46" x1="351.9" y1="360.1" x2="366.3" y2="360.1"/>
				</g>
			</g>
			<g>
				<path class="st46" d="M388.7,300.5c-0.2-6,0.9-12.2-6.3-17.8"/>
				<path class="st46" d="M376.1,300.5c0.2-6-1.1-13.1,6.3-17.8"/>
				<line class="st46" x1="376.1" y1="300.5" x2="387.7" y2="300.5"/>
			</g>
			<g>
				<path class="st46" d="M415.8,300.5c-0.2-6,0.9-12.2-6.3-17.8"/>
				<path class="st46" d="M403.2,300.5c0.2-6-1.1-13.1,6.3-17.8"/>
				<line class="st46" x1="403.2" y1="300.5" x2="414.8" y2="300.5"/>
			</g>
			<g>
				<path class="st46" d="M362.3,300.7c-0.2-6,0.9-12.2-6.3-17.8"/>
				<path class="st46" d="M349.7,300.7c0.2-6-1.1-13.1,6.3-17.8"/>
				<line class="st46" x1="349.7" y1="300.7" x2="361.3" y2="300.7"/>
			</g>
			<line class="st46" x1="335.2" y1="309.9" x2="427.5" y2="309.9"/>
		</g>
		<rect x="141.7" y="251" class="st55" width="19.3" height="116"/>
		<rect x="326.3" y="251" class="st55" width="19.3" height="116"/>
		<g>
			<line class="st11" x1="143.4" y1="242.9" x2="151.6" y2="168.1"/>
			<line class="st11" x1="159.9" y1="242.9" x2="151.6" y2="168.1"/>
			<polygon class="st11" points="162.7,250.6 140.2,250.6 140,244.6 163,244.6 			"/>
			<line class="st11" x1="151.6" y1="168.1" x2="151.6" y2="244.6"/>
		</g>
		<g>
			<line class="st11" x1="328" y1="242.9" x2="336.3" y2="168.1"/>
			<line class="st11" x1="344.6" y1="242.9" x2="336.3" y2="168.1"/>
			<polygon class="st11" points="347.4,250.6 324.9,250.6 324.6,244.6 347.6,244.6 			"/>
			<line class="st11" x1="336.3" y1="168.1" x2="336.3" y2="244.6"/>
		</g>
		<polyline class="st11" points="171.3,265.3 171.3,251.4 179.1,240.4 187.2,251.4 187.2,267 		"/>
		<polyline class="st11" points="187.1,265.3 187.1,251.4 195,240.4 203.1,251.4 203.1,267 		"/>
		<polyline class="st11" points="203,265.3 203,251.4 210.9,240.4 219,251.4 219,267 		"/>
		<polyline class="st11" points="218.9,265.3 218.9,251.4 226.7,240.4 234.8,251.4 234.8,264 		"/>
		<polyline class="st11" points="234.7,262.3 234.7,251.4 242.6,240.4 250.7,251.4 250.7,264 		"/>
		<polyline class="st11" points="250.6,262.3 250.6,251.4 258.5,240.4 266.5,251.4 266.5,267 		"/>
		<polyline class="st11" points="266.5,265.3 266.5,251.4 274.3,240.4 282.4,251.4 282.4,267 		"/>
		<polyline class="st11" points="282.3,265.3 282.3,251.4 290.2,240.4 298.3,251.4 298.3,267 		"/>
		<polyline class="st11" points="298.2,265.3 298.2,251.4 306,240.4 314.1,251.4 314.1,262 		"/>
		<circle class="st47" cx="179.3" cy="253.6" r="2.5"/>
		<circle class="st47" cx="195.1" cy="253.6" r="2.5"/>
		<circle class="st47" cx="210.8" cy="253.6" r="2.5"/>
		<circle class="st47" cx="226.8" cy="253.6" r="2.5"/>
		<circle class="st47" cx="242.3" cy="253.6" r="2.5"/>
		<circle class="st47" cx="258.6" cy="253.6" r="2.5"/>
		<circle class="st47" cx="274.4" cy="253.6" r="2.5"/>
		<circle class="st47" cx="290.3" cy="253.6" r="2.5"/>
		<circle class="st47" cx="306.2" cy="253.6" r="2.5"/>
		<line class="st11" x1="305.3" y1="200.7" x2="305.3" y2="240.4"/>
		<line class="st11" x1="179.1" y1="240.4" x2="179.1" y2="200.7"/>
		<g>
			<path class="st46" d="M209.9,241.5c-0.2-13.4,1.1-27.6-7.1-40.1"/>
			<path class="st46" d="M195.6,241.5c0.2-13.4-1.3-29.5,7.1-40.1"/>
		</g>
		<g>
			<path class="st46" d="M194.6,158.6c-0.1-5.9,0.5-12.2-3.2-17.7"/>
			<path class="st46" d="M188.3,158.6c0.1-5.9-0.6-13,3.2-17.7"/>
		</g>
		<g>
			<path class="st46" d="M211.6,158.6c-0.1-5.9,0.5-12.2-3.2-17.7"/>
			<path class="st46" d="M205.3,158.6c0.1-5.9-0.6-13,3.2-17.7"/>
		</g>
		<g>
			<path class="st46" d="M228.6,158.6c-0.1-5.9,0.5-12.2-3.2-17.7"/>
			<path class="st46" d="M222.3,158.6c0.1-5.9-0.6-13,3.2-17.7"/>
		</g>
		<g>
			<path class="st46" d="M245.6,158.6c-0.1-5.9,0.5-12.2-3.2-17.7"/>
			<path class="st46" d="M239.3,158.6c0.1-5.9-0.6-13,3.2-17.7"/>
		</g>
		<g>
			<path class="st46" d="M262.6,158.6c-0.1-5.9,0.5-12.2-3.2-17.7"/>
			<path class="st46" d="M256.3,158.6c0.1-5.9-0.6-13,3.2-17.7"/>
		</g>
		<g>
			<path class="st46" d="M279.6,158.6c-0.1-5.9,0.5-12.2-3.2-17.7"/>
			<path class="st46" d="M273.3,158.6c0.1-5.9-0.6-13,3.2-17.7"/>
		</g>
		<g>
			<path class="st46" d="M296.6,158.6c-0.1-5.9,0.5-12.2-3.2-17.7"/>
			<path class="st46" d="M290.3,158.6c0.1-5.9-0.6-13,3.2-17.7"/>
		</g>
		<g>
			<path class="st46" d="M289.4,241.5c-0.2-13.4,1.1-27.6-7.1-40.1"/>
			<path class="st46" d="M275.1,241.5c0.2-13.4-1.3-29.5,7.1-40.1"/>
		</g>
		<g>
			<path class="st46" d="M249.4,246.5c-0.2-13.4,1.1-32.6-7.1-45.1"/>
			<path class="st46" d="M235.1,246.5c0.2-13.4-1.3-34.5,7.1-45.1"/>
		</g>
		<rect x="148.6" y="325.7" class="st45" width="5.5" height="18.5"/>
		<rect x="333.1" y="325.7" class="st45" width="5.5" height="18.5"/>
		<polygon class="st45" points="338.6,303.5 333.1,303.5 333.1,285 335.7,275 338.6,285 		"/>
		<polygon class="st45" points="153.9,303.5 148.5,303.5 148.5,285 151,275 153.9,285 		"/>
		<g>
			<line class="st11" x1="336.1" y1="150.6" x2="336.1" y2="168.2"/>
			<line class="st11" x1="340.5" y1="154.9" x2="331.8" y2="154.9"/>
		</g>
		<g>
			<line class="st11" x1="151.5" y1="150.6" x2="151.5" y2="168.2"/>
			<line class="st11" x1="155.8" y1="154.9" x2="147.1" y2="154.9"/>
		</g>
		<rect x="169.3" y="321.7" class="st46" width="11.3" height="11.3"/>
		<rect x="193.8" y="321.7" class="st46" width="11.3" height="11.3"/>
		<rect x="218.3" y="321.7" class="st46" width="11.3" height="11.3"/>
		<rect x="169.3" y="346.2" class="st46" width="11.3" height="11.3"/>
		<rect x="193.8" y="346.2" class="st46" width="11.3" height="11.3"/>
		<rect x="218.3" y="346.2" class="st46" width="11.3" height="11.3"/>
		<rect x="254.8" y="321.7" class="st46" width="11.3" height="11.3"/>
		<rect x="279.3" y="321.7" class="st46" width="11.3" height="11.3"/>
		<rect x="303.8" y="321.7" class="st46" width="11.3" height="11.3"/>
		<rect x="254.8" y="346.2" class="st46" width="11.3" height="11.3"/>
		<rect x="279.3" y="346.2" class="st46" width="11.3" height="11.3"/>
		<rect x="303.8" y="346.2" class="st46" width="11.3" height="11.3"/>
		<line class="st11" x1="296.8" y1="185" x2="304.8" y2="200"/>
		<line class="st11" x1="179.7" y1="200" x2="187.7" y2="185"/>
		<polyline class="st11" points="187.7,184.4 187.7,159.4 296.8,159.4 296.8,184.4 		"/>
		<line class="st11" x1="194.8" y1="166.2" x2="194.8" y2="172.5"/>
		<line class="st11" x1="201.1" y1="166.2" x2="201.1" y2="172.5"/>
		<line class="st11" x1="207.4" y1="166.2" x2="207.4" y2="172.5"/>
		<line class="st11" x1="213.7" y1="166.2" x2="213.7" y2="172.5"/>
		<line class="st11" x1="220" y1="166.2" x2="220" y2="172.5"/>
		<line class="st11" x1="226.3" y1="166.2" x2="226.3" y2="172.5"/>
		<line class="st11" x1="232.6" y1="166.2" x2="232.6" y2="172.5"/>
		<line class="st11" x1="238.9" y1="166.2" x2="238.9" y2="172.5"/>
		<line class="st11" x1="245.2" y1="166.2" x2="245.2" y2="172.5"/>
		<line class="st11" x1="251.5" y1="166.2" x2="251.5" y2="172.5"/>
		<line class="st11" x1="257.8" y1="166.2" x2="257.8" y2="172.5"/>
		<line class="st11" x1="264.1" y1="166.2" x2="264.1" y2="172.5"/>
		<line class="st11" x1="270.4" y1="166.2" x2="270.4" y2="172.5"/>
		<line class="st11" x1="276.7" y1="166.2" x2="276.7" y2="172.5"/>
		<line class="st11" x1="283" y1="166.2" x2="283" y2="172.5"/>
		<line class="st11" x1="289.3" y1="166.2" x2="289.3" y2="172.5"/>
		<path class="st48" d="M294.8,145c1.7-60.5-47.7-61.6-49-84"/>
		<path class="st48" d="M276.8,143.5c1.7-60.5-33.7-58.6-35-81"/>
		<path class="st48" d="M259.3,143.5c1.7-60.5-15.7-58.6-17-81"/>
		<path class="st48" d="M207.7,143c-1.7-60.5,33.7-58.6,35-81"/>
		<path class="st48" d="M225.2,143c-1.7-60.5,15.7-58.6,17-81"/>
		<path class="st48" d="M242.4,143.5c0.1-60.6-0.4-58.9-0.4-81"/>
		<path class="st48" d="M189.3,145c-1.7-60.5,47.7-61.6,49-84"/>
		<rect x="237.8" y="53.4" class="st48" width="8.7" height="8.7"/>
		<line class="st46" x1="232.5" y1="54.4" x2="251.8" y2="54.4"/>
		<path class="st46" d="M242.1,47.8c-2.1,0-3.7,1.7-3.7,3.7h7.4C245.8,49.4,244.1,47.8,242.1,47.8z"/>
		<g>
			<line class="st46" x1="242.1" y1="26.2" x2="242.1" y2="48.9"/>
			<line class="st46" x1="234.8" y1="32.6" x2="248.1" y2="32.6"/>
		</g>
		<line class="st48" x1="236" y1="217" x2="247.3" y2="217"/>
		<line class="st48" x1="276.3" y1="217" x2="287.7" y2="217"/>
		<line class="st48" x1="197.3" y1="217" x2="208.7" y2="217"/>
		<circle class="st47" cx="203.3" cy="186.7" r="3.8"/>
		<circle class="st11" cx="203.3" cy="186.7" r="7.1"/>
		<circle class="st47" cx="241.8" cy="186.7" r="3.8"/>
		<circle class="st11" cx="241.8" cy="186.7" r="7.1"/>
		<circle class="st47" cx="280.3" cy="186.7" r="3.8"/>
		<circle class="st11" cx="280.3" cy="186.7" r="7.1"/>
		<polyline class="st11" points="344.3,240.3 360.3,240.3 380.6,260.6 		"/>
		<line class="st11" x1="306.1" y1="240.3" x2="328.1" y2="240.3"/>
		<line class="st11" x1="159.3" y1="240.3" x2="179.1" y2="240.3"/>
		<polyline class="st11" points="103.3,261.9 126.9,240.3 142.8,240.3 		"/>
		<g>
			<path class="st7" d="M383.5,47.3c14.5-8.5,24.3-2,25.5,10.2c1.2,12.2-13.3,14.7-13.3,14.7h-61.3c0,0-12.6-3.7-11.3-14.7
				c1.6-14.1,15.2-14.1,20-7"/>
			<path class="st7" d="M338.9,46.7c-5.9-7,5.9-23.2,19.4-14.2"/>
			<path class="st7" d="M356.5,38.1c0,0,5.7-17.9,22.5-13.6c14.5,3.7,12.5,18.9,12.5,18.9"/>
		</g>
		<g>
			<path class="st7" d="M193.9,15.6c5.7-6,15.6-1,16,7c0.4,8-8,10.3-8,10.3h-30c0,0-8.3-2.7-6.7-11.3c1.7-8.7,12-7,12.7-5.3"/>
			<path class="st7" d="M200.5,12.9c0,0-1.5-11.4-13.1-10.4c-11.6,1-11.1,12.7-11.1,12.7"/>
		</g>
		<g>
			<path class="st7" d="M66.6,71.8c-8.2-8.6-22.5-1.4-23,10.1s11.5,14.9,11.5,14.9h43.2c0,0,12-3.8,9.6-16.3
				c-2.4-12.5-17.3-10.1-18.2-7.7"/>
			<path class="st7" d="M57,68c0,0,2.2-16.3,18.9-14.9s16,18.3,16,18.3"/>
		</g>
	</g>
</g>
<g id="_x23_Forbidden_x5F_City">
</g>
<g id="_x23_Sydney_x5F_Opera_x5F_House">
</g>
<g id="_x23_Space_x5F_Needle">
</g>
<g id="_x23_Pyramid">
</g>
<g id="_x23_The_x5F_Pantheon">
</g>
<g id="_x23_Emirates_x5F_Towers">
</g>
<g id="_x23_China_x5F_wall">
	<g id="_x23_Empire_x5F_State_x5F_Building">
	</g>
</g>
</svg>
