<?xml version="1.0" encoding="utf-8"?>
<!-- Generator: Adobe Illustrator 19.1.0, SVG Export Plug-In . SVG Version: 6.00 Build 0)  -->
<svg version="1.1" xmlns="http://www.w3.org/2000/svg" xmlns:xlink="http://www.w3.org/1999/xlink" x="0px" y="0px"
	 viewBox="0 0 474.2 352.7" style="enable-background:new 0 0 474.2 352.7;" xml:space="preserve">
<style type="text/css">
	.st0{fill:#EDEDED;}
	.st1{fill:#59595A;}
	.st2{fill:none;stroke:#59595B;stroke-width:5;stroke-linejoin:round;stroke-miterlimit:10;}
	.st3{fill:none;stroke:#59595B;stroke-width:4.1457;stroke-linejoin:round;stroke-miterlimit:10;}
	.st4{fill:#F6F5F5;}
	.st5{fill:#59595B;}
	.st6{fill:none;stroke:#59595B;stroke-width:4.0874;stroke-linecap:round;stroke-linejoin:round;stroke-miterlimit:10;}
	.st7{fill:none;stroke:#59595B;stroke-width:5;stroke-linecap:round;stroke-linejoin:round;stroke-miterlimit:10;}
	.st8{fill:#EFEFEF;stroke:#59595B;stroke-width:5;stroke-linecap:round;stroke-linejoin:round;stroke-miterlimit:10;}
	.st9{fill:#EDECED;}
	.st10{fill:none;stroke:#5A5B5B;stroke-width:5;stroke-miterlimit:10;}
	.st11{fill:none;stroke:#5A5B5C;stroke-width:5;stroke-linecap:round;stroke-linejoin:round;stroke-miterlimit:10;}
	.st12{fill:#EDECED;stroke:#5A5B5C;stroke-width:5;stroke-linecap:round;stroke-linejoin:round;stroke-miterlimit:10;}
	.st13{fill:#5A5B5C;stroke:#5A5B5C;stroke-width:5;stroke-linecap:round;stroke-linejoin:round;stroke-miterlimit:10;}
	.st14{fill:none;stroke:#5A5B5B;stroke-width:5;stroke-linecap:round;stroke-linejoin:round;stroke-miterlimit:10;}
	.st15{fill:#F0EFEF;stroke:#5A5B5B;stroke-width:5;stroke-linecap:round;stroke-linejoin:round;stroke-miterlimit:10;}
	.st16{fill:#E8E8E8;stroke:#5A5B5C;stroke-width:5;stroke-linecap:round;stroke-linejoin:round;stroke-miterlimit:10;}
	.st17{fill:#FFFFFF;stroke:#5A5B5B;stroke-width:5;stroke-linecap:round;stroke-linejoin:round;stroke-miterlimit:10;}
	.st18{fill:#EFEFEF;stroke:#59595A;stroke-width:5;stroke-linecap:round;stroke-linejoin:round;stroke-miterlimit:10;}
	.st19{fill:none;stroke:#59595A;stroke-width:5;stroke-miterlimit:10;}
	.st20{fill:none;stroke:#59595A;stroke-width:5;stroke-linecap:round;stroke-miterlimit:10;}
	.st21{fill:none;stroke:#59595A;stroke-width:5;stroke-linejoin:round;stroke-miterlimit:10;}
	.st22{fill:none;stroke:#59595A;stroke-width:4.539;stroke-miterlimit:10;}
	.st23{fill:none;stroke:#59595A;stroke-width:4.1349;stroke-miterlimit:10;}
	.st24{fill:none;stroke:#59595A;stroke-width:3.9798;stroke-miterlimit:10;}
	.st25{fill:none;stroke:#58595B;stroke-width:5;stroke-miterlimit:10;}
	.st26{fill:none;stroke:#58595B;stroke-width:5;stroke-linejoin:round;stroke-miterlimit:10;}
	.st27{fill:none;stroke:#58595B;stroke-width:5;stroke-linecap:round;stroke-linejoin:round;stroke-miterlimit:10;}
	.st28{fill:none;stroke:#59595B;stroke-width:4.2054;stroke-linecap:round;stroke-linejoin:round;stroke-miterlimit:10;}
	.st29{fill:none;stroke:#59595B;stroke-width:5;stroke-miterlimit:10;}
	.st30{fill:#EDECEC;stroke:#59595B;stroke-width:5;stroke-linecap:round;stroke-linejoin:round;stroke-miterlimit:10;}
	.st31{fill:#EDEDED;stroke:#59595A;stroke-width:5;stroke-miterlimit:10;}
	.st32{fill:#EDEDED;stroke:#59595B;stroke-width:5;stroke-linecap:round;stroke-linejoin:round;stroke-miterlimit:10;}
	.st33{fill:none;stroke:#59595A;stroke-width:5;stroke-linecap:round;stroke-linejoin:round;stroke-miterlimit:10;}
	.st34{fill:#58595B;}
	.st35{fill:#59595A;stroke:#EDEDED;stroke-width:3;stroke-miterlimit:10;}
	.st36{fill:#59595A;stroke:#EDEDED;stroke-miterlimit:10;}
	.st37{fill:#EFEFEF;stroke:#59595A;stroke-width:5;stroke-linecap:round;stroke-miterlimit:10;}
	.st38{fill:#EDEDED;stroke:#59595A;stroke-width:5;stroke-linecap:round;stroke-linejoin:round;stroke-miterlimit:10;}
	.st39{fill-rule:evenodd;clip-rule:evenodd;fill:#59595B;}
	
		.st40{fill-rule:evenodd;clip-rule:evenodd;fill:none;stroke:#59595B;stroke-width:5;stroke-linecap:round;stroke-linejoin:round;stroke-miterlimit:10;}
	.st41{fill:none;stroke:#5A5B5C;stroke-width:4.1457;stroke-linejoin:round;stroke-miterlimit:10;}
	.st42{fill:none;stroke:#5A5B5B;stroke-width:4.539;stroke-miterlimit:10;}
	.st43{fill:none;stroke:#5A5B5B;stroke-width:4.1349;stroke-miterlimit:10;}
	.st44{fill:none;stroke:#5A5B5B;stroke-width:3.9798;stroke-miterlimit:10;}
	.st45{fill:none;stroke:#5A5B5C;stroke-width:4;stroke-linecap:round;stroke-linejoin:round;stroke-miterlimit:10;}
	.st46{fill:none;stroke:#595A5C;stroke-width:5;stroke-linecap:round;stroke-linejoin:round;stroke-miterlimit:10;}
	.st47{fill:#5A5B5C;}
	.st48{fill:none;stroke:#595A5C;stroke-width:5;stroke-linejoin:round;stroke-miterlimit:10;}
	.st49{fill:none;stroke:#5A5B5B;stroke-width:5;stroke-linecap:round;stroke-miterlimit:10;}
	.st50{fill:#5A5B5B;}
	.st51{fill:#5A5B5C;stroke:#5A5B5C;stroke-miterlimit:10;}
	.st52{fill:#595A5C;}
	.st53{fill:#EDECED;stroke:#5A5B5B;stroke-width:5;stroke-miterlimit:10;}
	.st54{fill:#FFFFFF;stroke:#5A5B5B;stroke-width:5;stroke-miterlimit:10;}
	.st55{fill:#FFFFFF;stroke:#5A5B5C;stroke-width:5;stroke-linecap:round;stroke-linejoin:round;stroke-miterlimit:10;}
	.st56{fill:#FFFFFF;stroke:#59595B;stroke-width:5;stroke-linecap:round;stroke-linejoin:round;stroke-miterlimit:10;}
	.st57{fill:#FFFFFF;stroke:#59595A;stroke-width:5;stroke-linecap:round;stroke-linejoin:round;stroke-miterlimit:10;}
	.st58{fill:#FFFFFF;stroke:#59595A;stroke-width:5;stroke-miterlimit:10;}
	.st59{fill:none;stroke:#59595B;stroke-width:3.8573;stroke-linejoin:round;stroke-miterlimit:10;}
	.st60{fill:#EDEDED;stroke:#59595B;stroke-width:5;stroke-miterlimit:10;}
	.st61{fill:none;stroke:#59595B;stroke-width:5;stroke-linecap:round;stroke-miterlimit:10;}
	.st62{fill:#59595B;stroke:#59595A;stroke-width:5;stroke-linecap:round;stroke-linejoin:round;stroke-miterlimit:10;}
	.st63{fill:#FFFFFF;stroke:#59595B;stroke-width:5;stroke-miterlimit:10;}
	.st64{fill:#EAEAEA;stroke:#59595A;stroke-width:5;stroke-linecap:round;stroke-linejoin:round;stroke-miterlimit:10;}
	.st65{fill:#EAEAEA;stroke:#59595A;stroke-width:5;stroke-linecap:round;stroke-miterlimit:10;}
</style>
<g id="Background">
</g>
<g id="_x23_Tower_x5F_Bridge">
</g>
<g id="_x23_Washington_x5F_Mountain">
</g>
<g id="_x23_London_x5F_Eye">
</g>
<g id="_x23_Eiffel_x5F_Tower">
	<g id="New_Symbol">
	</g>
</g>
<g id="_x23_Forbidden_x5F_City">
</g>
<g id="_x23_Sydney_x5F_Opera_x5F_House">
</g>
<g id="_x23_Space_x5F_Needle">
</g>
<g id="_x23_Pyramid">
</g>
<g id="_x23_The_x5F_Pantheon">
</g>
<g id="_x23_Emirates_x5F_Towers">
</g>
<g id="_x23_China_x5F_wall">
	<g id="_x23_Empire_x5F_State_x5F_Building">
	</g>
	<g>
		<line class="st19" x1="474.2" y1="327.7" x2="0" y2="327.7"/>
		<path class="st33" d="M27.7,138.5l7.2-24.3l21.6,9.8l23.8,26.8L97,138.5l23.3-24.3l15.3-14.6h14.1l16,14.6l19.8-4.9
			c0,0,5.8-12.2,8.1-9.8c2.3,2.4,2.6-5.5,12.1-0.3c9.5,5.2,2.8,5.2,18.4,14.9c15.6,9.8,23.9,9.8,29.3,12.2s12.5,2.4,17.7,2.4
			c5.2,0,16.6,0,16.6,0l13.2,9.7l15.6-17l7-24.1c0,0,8.7-9.4,14,0c5.2,9.4,14.6,11.9,17.8,14.3c3.2,2.4,3.2,0,13.7,7.3
			c10.5,7.3,21,24.3,26.2,19.4c5.2-4.8,14.4,0,14.4,0s8.3-4.9,13.5,0s15.7,23.4,15.7,23.4l14,11"/>
		<polygon class="st19" points="394.1,222.3 387.3,222.3 386.7,228.8 394.7,228.8 		"/>
		<polygon class="st19" points="394.1,228.8 387.3,228.8 386.7,235.3 394.7,235.3 		"/>
		<polygon class="st19" points="394.1,235.3 387.3,235.3 386.7,241.8 394.7,241.8 		"/>
		<polygon class="st19" points="394.1,241.8 387.3,241.8 386.7,248.4 394.7,248.4 		"/>
		<polygon class="st19" points="394.1,248.4 387.3,248.4 386.7,254.9 394.7,254.9 		"/>
		<polygon class="st19" points="394.1,254.9 387.3,254.9 386.7,261.4 394.7,261.4 		"/>
		<polygon class="st19" points="394.1,261.4 387.3,261.4 386.7,267.9 394.7,267.9 		"/>
		<polygon class="st19" points="394.1,267.9 387.3,267.9 386.7,274.4 394.7,274.4 		"/>
		<polygon class="st19" points="394.1,274.4 387.3,274.4 386.7,280.9 394.7,280.9 		"/>
		<polygon class="st19" points="394.1,280.9 387.3,280.9 386.7,287.4 394.7,287.4 		"/>
		<polygon class="st19" points="394.1,287.4 387.3,287.4 386.7,293.9 394.7,293.9 		"/>
		<polygon class="st19" points="394.1,293.9 387.3,293.9 386.7,300.5 394.7,300.5 		"/>
		<polygon class="st19" points="394.1,300.5 387.3,300.5 386.7,307 394.7,307 		"/>
		<polygon class="st19" points="394.1,307 387.3,307 386.7,313.5 394.7,313.5 		"/>
		<polygon class="st19" points="394.1,313.5 387.3,313.5 386.7,320 394.7,320 		"/>
		<polygon class="st19" points="394.1,320 387.3,320 386.7,326.5 394.7,326.5 		"/>
		<g>
			<path class="st58" d="M390.5,219.4l28.8-45.1C419.3,174.2,378.3,176,390.5,219.4z"/>
			<line class="st58" x1="392.9" y1="207" x2="399.9" y2="204.6"/>
			<line class="st58" x1="394.8" y1="198.6" x2="405.1" y2="195.6"/>
			<line class="st58" x1="401.1" y1="189.5" x2="411.2" y2="186.9"/>
		</g>
		<g>
			<path class="st58" d="M391.6,219.7L442,238C442,238,431.3,198.4,391.6,219.7z"/>
			<line class="st58" x1="404.2" y1="219.4" x2="408.1" y2="225.7"/>
			<line class="st58" x1="412.9" y1="219.4" x2="418" y2="228.9"/>
			<line class="st58" x1="423.1" y1="223.5" x2="427.8" y2="232.8"/>
		</g>
		<g>
			<path class="st58" d="M391.2,220.6l47-25.6C438.2,195,401.5,176.7,391.2,220.6z"/>
			<line class="st58" x1="399.3" y1="211" x2="406.5" y2="212.2"/>
			<line class="st58" x1="405" y1="204.5" x2="415.5" y2="206.9"/>
			<line class="st58" x1="414.9" y1="199.5" x2="425" y2="202.2"/>
		</g>
		<g>
			<path class="st58" d="M391.2,219.2l-50.3,18.2C340.9,237.4,351.5,197.8,391.2,219.2z"/>
			<line class="st58" x1="378.6" y1="218.9" x2="374.8" y2="225.2"/>
			<line class="st58" x1="370" y1="218.9" x2="364.8" y2="228.3"/>
			<line class="st58" x1="359.7" y1="223" x2="355" y2="232.3"/>
		</g>
		<g>
			<path class="st58" d="M391.6,220l-47-25.6C344.6,194.4,381.3,176.1,391.6,220z"/>
			<line class="st58" x1="383.5" y1="210.4" x2="376.3" y2="211.7"/>
			<line class="st58" x1="377.8" y1="203.9" x2="367.3" y2="206.3"/>
			<line class="st58" x1="367.9" y1="199" x2="357.8" y2="201.6"/>
		</g>
		<g>
			<path class="st7" d="M386.3,47.3c14.5-8.5,24.3-2,25.5,10.2s-13.3,14.7-13.3,14.7h-61.3c0,0-12.6-3.7-11.3-14.7
				c1.6-14.1,15.2-14.1,20-7"/>
			<path class="st7" d="M341.7,46.7c-5.9-7,5.9-23.2,19.4-14.2"/>
			<path class="st7" d="M359.3,38.1c0,0,5.7-17.9,22.5-13.6c14.5,3.7,12.5,18.9,12.5,18.9"/>
		</g>
		<g>
			<path class="st7" d="M196.6,15.6c5.7-6,15.6-1,16,7c0.4,8-8,10.3-8,10.3h-30c0,0-8.3-2.7-6.7-11.3c1.7-8.7,12-7,12.7-5.3"/>
			<path class="st7" d="M203.3,12.9c0,0-1.5-11.4-13.1-10.4c-11.6,1-11.1,12.7-11.1,12.7"/>
		</g>
		<g>
			<path class="st7" d="M69.4,71.8c-8.2-8.6-22.5-1.4-23,10.1c-0.6,11.5,11.5,14.9,11.5,14.9h43.2c0,0,12-3.8,9.6-16.3
				c-2.4-12.5-17.3-10.1-18.2-7.7"/>
			<path class="st7" d="M59.8,68c0,0,2.2-16.3,18.9-14.9s16,18.3,16,18.3"/>
		</g>
		<g>
			<path class="st33" d="M54.4,343.4c0,0,3.8,4.8,9,4.8s9-4.8,9-4.8"/>
			<path class="st33" d="M72.3,343.4c0,0,3.8,4.8,9,4.8s9-4.8,9-4.8"/>
			<path class="st33" d="M90.3,343.4c0,0,3.8,4.8,9,4.8c5.1,0,9-4.8,9-4.8"/>
			<path class="st33" d="M108.2,343.4c0,0,3.8,4.8,9,4.8s9-4.8,9-4.8"/>
			<path class="st33" d="M126.2,343.4c0,0,3.8,4.8,9,4.8c5.1,0,9-4.8,9-4.8"/>
			<path class="st33" d="M144.2,343.4c0,0,3.8,4.8,9,4.8c5.1,0,9-4.8,9-4.8"/>
			<path class="st33" d="M162.1,343.4c0,0,3.8,4.8,9,4.8c5.1,0,9-4.8,9-4.8"/>
			<path class="st33" d="M180.1,343.4c0,0,3.8,4.8,9,4.8s9-4.8,9-4.8"/>
			<path class="st33" d="M198,343.4c0,0,3.8,4.8,9,4.8s9-4.8,9-4.8"/>
			<path class="st33" d="M216,343.4c0,0,3.8,4.8,9,4.8c5.1,0,9-4.8,9-4.8"/>
			<path class="st33" d="M234.1,343.4c0,0,3.8,4.8,9,4.8c5.1,0,9-4.8,9-4.8"/>
			<path class="st33" d="M252.1,343.4c0,0,3.8,4.8,9,4.8c5.1,0,9-4.8,9-4.8"/>
			<path class="st33" d="M270,343.4c0,0,3.8,4.8,9,4.8s9-4.8,9-4.8"/>
			<path class="st33" d="M288,343.4c0,0,3.8,4.8,9,4.8s9-4.8,9-4.8"/>
			<path class="st33" d="M305.9,343.4c0,0,3.8,4.8,9,4.8s9-4.8,9-4.8"/>
			<path class="st33" d="M323.9,343.4c0,0,3.8,4.8,9,4.8s9-4.8,9-4.8"/>
			<path class="st33" d="M341.9,343.4c0,0,3.8,4.8,9,4.8c5.1,0,9-4.8,9-4.8"/>
			<path class="st33" d="M359.8,343.4c0,0,3.8,4.8,9,4.8c5.1,0,9-4.8,9-4.8"/>
			<path class="st33" d="M377.8,343.4c0,0,3.8,4.8,9,4.8c5.1,0,9-4.8,9-4.8"/>
			<path class="st33" d="M395.7,343.4c0,0,3.8,4.8,9,4.8s9-4.8,9-4.8"/>
		</g>
		<path class="st33" d="M89.1,228.6l7.5,0c1,0,1.8-0.8,1.8-1.8l0-6.7c0-1-0.8-1.8-1.8-1.8l-7.5,0c-1,0-1.8,0.8-1.8,1.8l0,6.7
			C87.3,227.8,88.1,228.6,89.1,228.6z"/>
		<line class="st33" x1="253.2" y1="271.1" x2="18.8" y2="175.2"/>
		<path class="st33" d="M22.2,201.1l7.5,0c1,0,1.8-0.8,1.8-1.8l0-6.7c0-1-0.8-1.8-1.8-1.8l-7.5,0c-1,0-1.8,0.8-1.8,1.8l0,6.7
			C20.4,200.3,21.2,201.1,22.2,201.1z"/>
		<path class="st33" d="M55.7,214.9l7.5,0c1,0,1.8-0.8,1.8-1.8l0-6.7c0-1-0.8-1.8-1.8-1.8l-7.5,0c-1,0-1.8,0.8-1.8,1.8l0,6.7
			C53.9,214,54.7,214.8,55.7,214.9z"/>
		<path class="st33" d="M122.6,242.3l7.5,0c1,0,1.8-0.8,1.8-1.8l0-6.7c0-1-0.8-1.8-1.8-1.8l-7.5,0c-1,0-1.8,0.8-1.8,1.8l0,6.7
			C120.8,241.5,121.6,242.3,122.6,242.3z"/>
		<line class="st33" x1="126.3" y1="232.1" x2="126.3" y2="219.2"/>
		<line class="st33" x1="92.9" y1="218.3" x2="92.9" y2="206.4"/>
		<line class="st33" x1="59.4" y1="204.6" x2="59.4" y2="191.8"/>
		<line class="st33" x1="25.9" y1="190.9" x2="25.9" y2="178.1"/>
		<rect x="53.3" y="254.6" class="st57" width="275.7" height="73.1"/>
		<polygon class="st57" points="80.9,298.6 191.2,195.6 301.6,298.6 301.6,327.7 80.9,327.7 		"/>
		<g>
			<line class="st33" x1="313.5" y1="277.6" x2="303.8" y2="267.9"/>
			<line class="st33" x1="294" y1="277.6" x2="303.8" y2="267.9"/>
		</g>
		<g>
			<line class="st33" x1="87.6" y1="277.6" x2="77.9" y2="267.9"/>
			<line class="st33" x1="68.1" y1="277.6" x2="77.9" y2="267.9"/>
		</g>
		<polygon class="st33" points="223.7,318.9 286.5,318.9 286.5,301.3 248,265.3 223.7,265.3 		"/>
		<polygon class="st33" points="159.2,318.9 96.3,318.9 96.3,301.3 134.9,265.3 159.2,265.3 		"/>
		<rect x="195.8" y="265.3" class="st33" width="18" height="53.7"/>
		<rect x="168.6" y="265.3" class="st33" width="18" height="53.7"/>
		<polygon class="st33" points="195.8,214.6 213.7,231.3 213.7,252.3 195.8,252.3 		"/>
		<polygon class="st33" points="223.8,243.1 234.4,252.1 223.8,252.1 		"/>
		<polygon class="st33" points="158.2,243.1 147.6,252.1 158.2,252.1 		"/>
		<polygon class="st33" points="168.6,231.3 186.6,214.6 186.6,252.3 168.6,252.3 		"/>
	</g>
</g>
</svg>
