<?xml version="1.0" encoding="utf-8"?>
<!-- Generator: Adobe Illustrator 19.1.0, SVG Export Plug-In . SVG Version: 6.00 Build 0)  -->
<svg version="1.1" xmlns="http://www.w3.org/2000/svg" xmlns:xlink="http://www.w3.org/1999/xlink" x="0px" y="0px"
	 viewBox="0 0 492 371.9" style="enable-background:new 0 0 492 371.9;" xml:space="preserve">
<style type="text/css">
	.st0{fill:#EDEDED;}
	.st1{fill:#59595A;}
	.st2{fill:none;stroke:#59595B;stroke-width:5;stroke-linejoin:round;stroke-miterlimit:10;}
	.st3{fill:none;stroke:#59595B;stroke-width:4.1457;stroke-linejoin:round;stroke-miterlimit:10;}
	.st4{fill:#F6F5F5;}
	.st5{fill:#59595B;}
	.st6{fill:none;stroke:#59595B;stroke-width:4.0874;stroke-linecap:round;stroke-linejoin:round;stroke-miterlimit:10;}
	.st7{fill:none;stroke:#59595B;stroke-width:5;stroke-linecap:round;stroke-linejoin:round;stroke-miterlimit:10;}
	.st8{fill:#EFEFEF;stroke:#59595B;stroke-width:5;stroke-linecap:round;stroke-linejoin:round;stroke-miterlimit:10;}
	.st9{fill:#EDECED;}
	.st10{fill:none;stroke:#5A5B5B;stroke-width:5;stroke-miterlimit:10;}
	.st11{fill:none;stroke:#5A5B5C;stroke-width:5;stroke-linecap:round;stroke-linejoin:round;stroke-miterlimit:10;}
	.st12{fill:#EDECED;stroke:#5A5B5C;stroke-width:5;stroke-linecap:round;stroke-linejoin:round;stroke-miterlimit:10;}
	.st13{fill:#5A5B5C;stroke:#5A5B5C;stroke-width:5;stroke-linecap:round;stroke-linejoin:round;stroke-miterlimit:10;}
	.st14{fill:none;stroke:#5A5B5B;stroke-width:5;stroke-linecap:round;stroke-linejoin:round;stroke-miterlimit:10;}
	.st15{fill:#F0EFEF;stroke:#5A5B5B;stroke-width:5;stroke-linecap:round;stroke-linejoin:round;stroke-miterlimit:10;}
	.st16{fill:#E8E8E8;stroke:#5A5B5C;stroke-width:5;stroke-linecap:round;stroke-linejoin:round;stroke-miterlimit:10;}
	.st17{fill:#FFFFFF;stroke:#5A5B5B;stroke-width:5;stroke-linecap:round;stroke-linejoin:round;stroke-miterlimit:10;}
	.st18{fill:#EFEFEF;stroke:#59595A;stroke-width:5;stroke-linecap:round;stroke-linejoin:round;stroke-miterlimit:10;}
	.st19{fill:none;stroke:#59595A;stroke-width:5;stroke-miterlimit:10;}
	.st20{fill:none;stroke:#59595A;stroke-width:5;stroke-linecap:round;stroke-miterlimit:10;}
	.st21{fill:none;stroke:#59595A;stroke-width:5;stroke-linejoin:round;stroke-miterlimit:10;}
	.st22{fill:none;stroke:#59595A;stroke-width:4.539;stroke-miterlimit:10;}
	.st23{fill:none;stroke:#59595A;stroke-width:4.1349;stroke-miterlimit:10;}
	.st24{fill:none;stroke:#59595A;stroke-width:3.9798;stroke-miterlimit:10;}
	.st25{fill:none;stroke:#58595B;stroke-width:5;stroke-miterlimit:10;}
	.st26{fill:none;stroke:#58595B;stroke-width:5;stroke-linejoin:round;stroke-miterlimit:10;}
	.st27{fill:none;stroke:#58595B;stroke-width:5;stroke-linecap:round;stroke-linejoin:round;stroke-miterlimit:10;}
	.st28{fill:none;stroke:#59595B;stroke-width:4.2054;stroke-linecap:round;stroke-linejoin:round;stroke-miterlimit:10;}
	.st29{fill:none;stroke:#59595B;stroke-width:5;stroke-miterlimit:10;}
	.st30{fill:#EDECEC;stroke:#59595B;stroke-width:5;stroke-linecap:round;stroke-linejoin:round;stroke-miterlimit:10;}
	.st31{fill:#EDEDED;stroke:#59595A;stroke-width:5;stroke-miterlimit:10;}
	.st32{fill:#EDEDED;stroke:#59595B;stroke-width:5;stroke-linecap:round;stroke-linejoin:round;stroke-miterlimit:10;}
	.st33{fill:none;stroke:#59595A;stroke-width:5;stroke-linecap:round;stroke-linejoin:round;stroke-miterlimit:10;}
	.st34{fill:#58595B;}
	.st35{fill:#59595A;stroke:#EDEDED;stroke-width:3;stroke-miterlimit:10;}
	.st36{fill:#59595A;stroke:#EDEDED;stroke-miterlimit:10;}
	.st37{fill:#EFEFEF;stroke:#59595A;stroke-width:5;stroke-linecap:round;stroke-miterlimit:10;}
	.st38{fill:#EDEDED;stroke:#59595A;stroke-width:5;stroke-linecap:round;stroke-linejoin:round;stroke-miterlimit:10;}
	.st39{fill-rule:evenodd;clip-rule:evenodd;fill:#59595B;}
	
		.st40{fill-rule:evenodd;clip-rule:evenodd;fill:none;stroke:#59595B;stroke-width:5;stroke-linecap:round;stroke-linejoin:round;stroke-miterlimit:10;}
	.st41{fill:none;stroke:#5A5B5C;stroke-width:4.1457;stroke-linejoin:round;stroke-miterlimit:10;}
	.st42{fill:none;stroke:#5A5B5B;stroke-width:4.539;stroke-miterlimit:10;}
	.st43{fill:none;stroke:#5A5B5B;stroke-width:4.1349;stroke-miterlimit:10;}
	.st44{fill:none;stroke:#5A5B5B;stroke-width:3.9798;stroke-miterlimit:10;}
	.st45{fill:none;stroke:#5A5B5C;stroke-width:4;stroke-linecap:round;stroke-linejoin:round;stroke-miterlimit:10;}
	.st46{fill:none;stroke:#595A5C;stroke-width:5;stroke-linecap:round;stroke-linejoin:round;stroke-miterlimit:10;}
	.st47{fill:#5A5B5C;}
	.st48{fill:none;stroke:#595A5C;stroke-width:5;stroke-linejoin:round;stroke-miterlimit:10;}
	.st49{fill:none;stroke:#5A5B5B;stroke-width:5;stroke-linecap:round;stroke-miterlimit:10;}
	.st50{fill:#5A5B5B;}
	.st51{fill:#5A5B5C;stroke:#5A5B5C;stroke-miterlimit:10;}
	.st52{fill:#595A5C;}
	.st53{fill:#EDECED;stroke:#5A5B5B;stroke-width:5;stroke-miterlimit:10;}
	.st54{fill:#FFFFFF;stroke:#5A5B5B;stroke-width:5;stroke-miterlimit:10;}
	.st55{fill:#FFFFFF;stroke:#5A5B5C;stroke-width:5;stroke-linecap:round;stroke-linejoin:round;stroke-miterlimit:10;}
	.st56{fill:#FFFFFF;stroke:#59595B;stroke-width:5;stroke-linecap:round;stroke-linejoin:round;stroke-miterlimit:10;}
	.st57{fill:#FFFFFF;stroke:#59595A;stroke-width:5;stroke-linecap:round;stroke-linejoin:round;stroke-miterlimit:10;}
	.st58{fill:#FFFFFF;stroke:#59595A;stroke-width:5;stroke-miterlimit:10;}
	.st59{fill:none;stroke:#59595B;stroke-width:3.8573;stroke-linejoin:round;stroke-miterlimit:10;}
	.st60{fill:#EDEDED;stroke:#59595B;stroke-width:5;stroke-miterlimit:10;}
	.st61{fill:none;stroke:#59595B;stroke-width:5;stroke-linecap:round;stroke-miterlimit:10;}
	.st62{fill:#59595B;stroke:#59595A;stroke-width:5;stroke-linecap:round;stroke-linejoin:round;stroke-miterlimit:10;}
	.st63{fill:#FFFFFF;stroke:#59595B;stroke-width:5;stroke-miterlimit:10;}
	.st64{fill:#EAEAEA;stroke:#59595A;stroke-width:5;stroke-linecap:round;stroke-linejoin:round;stroke-miterlimit:10;}
	.st65{fill:#EAEAEA;stroke:#59595A;stroke-width:5;stroke-linecap:round;stroke-miterlimit:10;}
</style>
<g id="Background">
</g>
<g id="_x23_Tower_x5F_Bridge">
</g>
<g id="_x23_Washington_x5F_Mountain">
</g>
<g id="_x23_London_x5F_Eye">
</g>
<g id="_x23_Eiffel_x5F_Tower">
	<g id="New_Symbol">
	</g>
	<g>
		<g>
			<line class="st20" x1="476.7" y1="359.5" x2="2.5" y2="359.5"/>
			<line class="st20" x1="429.8" y1="369.4" x2="36.2" y2="369.4"/>
		</g>
		<line class="st33" x1="257.2" y1="3.2" x2="226.8" y2="102.7"/>
		<line class="st33" x1="225.2" y1="108.2" x2="222.7" y2="116.1"/>
		<line class="st33" x1="248.4" y1="54.1" x2="239.1" y2="84.7"/>
		<line class="st33" x1="237.1" y1="91.1" x2="228.9" y2="118"/>
		<line class="st33" x1="260.7" y1="39" x2="238.4" y2="112.2"/>
		<line class="st33" x1="233.9" y1="53.8" x2="228.7" y2="70.9"/>
		<line class="st33" x1="226.6" y1="77.8" x2="218" y2="106"/>
		<line class="st33" x1="231.3" y1="30.1" x2="215.6" y2="81.5"/>
		<line class="st33" x1="214.2" y1="86.3" x2="211.9" y2="93.8"/>
		<line class="st33" x1="216.3" y1="43.8" x2="186.9" y2="140.4"/>
		<line class="st33" x1="214.8" y1="15.8" x2="191.6" y2="92.1"/>
		<line class="st33" x1="189.3" y1="99.6" x2="185.4" y2="112.2"/>
		<line class="st33" x1="182.7" y1="121.2" x2="181.2" y2="126.1"/>
		<line class="st33" x1="211.3" y1="2.5" x2="177.2" y2="114.4"/>
		<line class="st33" x1="201.2" y1="11.6" x2="174.5" y2="99.1"/>
		<line class="st33" x1="171.6" y1="108.5" x2="166.5" y2="125.2"/>
		<line class="st33" x1="180.6" y1="49.9" x2="160.9" y2="114.6"/>
		<line class="st33" x1="165.3" y1="69.2" x2="154.3" y2="105.2"/>
		<line class="st33" x1="151.6" y1="114.2" x2="149.7" y2="120.1"/>
		<line class="st33" x1="162" y1="55.2" x2="143.8" y2="115"/>
		<line class="st33" x1="141" y1="94.7" x2="132.1" y2="123.7"/>
		<line class="st33" x1="264.8" y1="55.8" x2="254.9" y2="88.3"/>
		<line class="st33" x1="252.7" y1="95.5" x2="250.3" y2="103.3"/>
		<line class="st33" x1="268.9" y1="70.2" x2="259.3" y2="101.9"/>
		<line class="st33" x1="284" y1="49.8" x2="272" y2="89.2"/>
		<line class="st33" x1="270.3" y1="94.5" x2="263.9" y2="115.7"/>
		<line class="st33" x1="296.6" y1="40.9" x2="278.2" y2="101.2"/>
		<line class="st33" x1="276.4" y1="106.9" x2="274" y2="114.9"/>
		<line class="st33" x1="294.8" y1="79.8" x2="288.1" y2="101.8"/>
		<line class="st33" x1="286.5" y1="106.9" x2="282.1" y2="121.3"/>
		<line class="st33" x1="306.6" y1="71.9" x2="291.9" y2="120.1"/>
		<line class="st33" x1="317.9" y1="63.4" x2="300.9" y2="119.1"/>
		<line class="st33" x1="299.2" y1="124.8" x2="298" y2="128.7"/>
		<line class="st33" x1="333" y1="49.4" x2="322.3" y2="84.5"/>
		<line class="st33" x1="345.2" y1="37.5" x2="333.1" y2="77.4"/>
		<line class="st33" x1="331.4" y1="82.9" x2="328.5" y2="92.4"/>
		<line class="st33" x1="344" y1="69.9" x2="337.8" y2="90.1"/>
		<line class="st33" x1="367.3" y1="23.3" x2="344.7" y2="97.3"/>
		<line class="st33" x1="343.2" y1="102.1" x2="340.4" y2="111.4"/>
		<line class="st33" x1="366" y1="58.7" x2="351.9" y2="104.7"/>
		<line class="st33" x1="367.5" y1="83.6" x2="361.1" y2="104.3"/>
		<line class="st33" x1="359.6" y1="109.2" x2="358" y2="114.5"/>
		<line class="st33" x1="378.3" y1="74.1" x2="366.4" y2="113"/>
		<line class="st33" x1="392.5" y1="54.9" x2="371" y2="125.3"/>
		<line class="st33" x1="389.9" y1="95.8" x2="382" y2="121.8"/>
		<line class="st33" x1="392.2" y1="113.7" x2="388.5" y2="126"/>
		<line class="st33" x1="399.3" y1="111.6" x2="389.1" y2="144.9"/>
		<line class="st33" x1="392.7" y1="159.4" x2="403.5" y2="124.2"/>
		<line class="st33" x1="407.7" y1="141.4" x2="414.9" y2="117.9"/>
		<line class="st33" x1="411.6" y1="153.1" x2="420" y2="125.5"/>
		<line class="st33" x1="421.5" y1="120.8" x2="422.8" y2="116.4"/>
		<line class="st33" x1="426.9" y1="132.9" x2="436" y2="103.2"/>
		<line class="st33" x1="445.2" y1="102.6" x2="431.5" y2="147.6"/>
		<line class="st33" x1="456.6" y1="87.1" x2="441.7" y2="136.1"/>
		<line class="st33" x1="436.9" y1="151.8" x2="434.9" y2="158.4"/>
		<line class="st33" x1="460.3" y1="97.8" x2="442.5" y2="156"/>
		<line class="st33" x1="461.2" y1="117.4" x2="451.8" y2="148.1"/>
		<line class="st33" x1="462.1" y1="137.9" x2="458" y2="151.2"/>
		<line class="st33" x1="46.9" y1="113" x2="53.6" y2="90.8"/>
		<line class="st33" x1="51.3" y1="127.3" x2="74" y2="52.6"/>
		<line class="st33" x1="57.3" y1="134.8" x2="66.9" y2="103.2"/>
		<line class="st33" x1="76.7" y1="71.1" x2="82.8" y2="51"/>
		<line class="st33" x1="66.4" y1="134.8" x2="77.6" y2="98.1"/>
		<line class="st33" x1="76.6" y1="127.4" x2="88.8" y2="87.6"/>
		<line class="st33" x1="96.9" y1="89" x2="87.3" y2="120.3"/>
		<line class="st33" x1="101.5" y1="102.4" x2="93.6" y2="128.4"/>
		<line class="st33" x1="107.3" y1="107" x2="98.3" y2="136.6"/>
		<line class="st33" x1="117" y1="103.6" x2="112.6" y2="118.2"/>
		<line class="st33" x1="109.9" y1="126.9" x2="108.1" y2="132.7"/>
		<line class="st33" x1="127.4" y1="101.5" x2="119" y2="129"/>
		<line class="st33" x1="137.7" y1="77" x2="134" y2="89.1"/>
		<path class="st33" d="M458.6,195.8l-23.4-12.4l-5.2,12.4l-27-12.4h-10.2h-23.5h-5.8l-5.3-12.8l-15.9,5.1l-17.5,14.2l-12.3-6.5
			l-17.2-12.8l-11.3-7.7h-10.4l-11.8,7.7l-14.6-2.6c0,0-4.3-6.4-6-5.1c-1.7,1.3-1.9-2.9-8.9-0.2c-7,2.7-2.1,2.7-13.5,7.9
			c-11.5,5.1-17.6,5.1-21.6,6.4c-4,1.3-9.2,1.3-13,1.3s-12.2,0-12.2,0l-9.8,5.1l-11.5-9l-5.2-12.7c0,0-6.4-5-10.3,0
			c-3.9,5-10.8,6.3-13.1,7.6s-2.3,0-10.1,3.9c-7.7,3.9-15.4,12.8-19.3,10.3c-3.9-2.5-10.6,0-10.6,0s-6.1-2.6-10,0
			c-3.9,2.6-11.6,12.4-11.6,12.4l-10.3,5.8"/>
		<path class="st33" d="M51.1,283.9l35.3-22.6l23.1,1.5l7.4-5.3c0,0,4.3-1,3.8-4.4c-0.5-3.4,0.9-1.7,4.4-5.3c3.5-3.6,17-0.6,17-0.6
			l6.6,3.9c0,0-1.4-2.5,1.3-4c2.7-1.5-1,1.1,2.7-1.5c3.8-2.7,16.8,0.6,16.8,0.6s3.7-5.2,7.8-1.9c4.1,3.3,7.3-1.7,7.3-1.7
			s0.8-3.9,7.2,2.5s11.8,12.2,11.8,12.2s4.2-0.1,6.7,1.9c2.5,2,4.4,2.5,9.6,2.1c5.2-0.4,15.7,0.7,15.7,0.7l4.7,12.1
			c0,0,4.3,3.4,7.9,5.2S51.1,283.9,51.1,283.9z"/>
		<path class="st33" d="M316,306.6l9.1-8.6l9-3.4l2.8-9.4l8.7,3.4l4,3.4l3-6.9c0,0,0.3-5.2,5.4,0s8.1,9.6,8.1,9.6h9.7h7.1h5.1v6.7
			l-2,5.1H316z"/>
		<line class="st33" x1="23.4" y1="226.7" x2="489.5" y2="226.7"/>
		<line class="st33" x1="41.2" y1="283.9" x2="264.8" y2="278.9"/>
		<line class="st33" x1="104.9" y1="290.7" x2="270.8" y2="285.7"/>
		<line class="st33" x1="309.8" y1="306.6" x2="392.1" y2="306.6"/>
		<line class="st33" x1="338.8" y1="313.2" x2="397.1" y2="313.2"/>
		<path class="st33" d="M164.2,330.6c-0.6,1.1,14.9,1.1,25.7-3.4c10.9-4.6,5.2,1.3,12.9,4.1"/>
		<path class="st33" d="M203.6,331.4c0,0,8.2,2.4,25.7-3.4c10.9-4.6,5.2,1.3,12.9,4.1"/>
		<path class="st33" d="M37.6,317.3c-0.6,1.1,14.9,1.1,25.7-3.4s5.2,1.3,12.9,4.1"/>
		<path class="st33" d="M257.9,251.8c0,0,6.9,2.4,21.5-3.4c9.1-4.6,4.3,1.3,10.8,4.1"/>
		<path class="st33" d="M391.6,257.5c0,0,6.9,2.4,21.5-3.4c9.1-4.6,4.3,1.3,10.8,4.1"/>
	</g>
</g>
<g id="_x23_Forbidden_x5F_City">
</g>
<g id="_x23_Sydney_x5F_Opera_x5F_House">
</g>
<g id="_x23_Space_x5F_Needle">
</g>
<g id="_x23_Pyramid">
</g>
<g id="_x23_The_x5F_Pantheon">
</g>
<g id="_x23_Emirates_x5F_Towers">
</g>
<g id="_x23_China_x5F_wall">
	<g id="_x23_Empire_x5F_State_x5F_Building">
	</g>
</g>
</svg>
