<?xml version="1.0" encoding="utf-8"?>
<!-- Generator: Adobe Illustrator 19.1.0, SVG Export Plug-In . SVG Version: 6.00 Build 0)  -->
<svg version="1.1" xmlns="http://www.w3.org/2000/svg" xmlns:xlink="http://www.w3.org/1999/xlink" x="0px" y="0px"
	 viewBox="0 0 474.2 410.2" style="enable-background:new 0 0 474.2 410.2;" xml:space="preserve">
<style type="text/css">
	.st0{fill:#EDEDED;}
	.st1{fill:#59595A;}
	.st2{fill:none;stroke:#59595B;stroke-width:5;stroke-linejoin:round;stroke-miterlimit:10;}
	.st3{fill:none;stroke:#59595B;stroke-width:4.1457;stroke-linejoin:round;stroke-miterlimit:10;}
	.st4{fill:#F6F5F5;}
	.st5{fill:#59595B;}
	.st6{fill:none;stroke:#59595B;stroke-width:4.0874;stroke-linecap:round;stroke-linejoin:round;stroke-miterlimit:10;}
	.st7{fill:none;stroke:#59595B;stroke-width:5;stroke-linecap:round;stroke-linejoin:round;stroke-miterlimit:10;}
	.st8{fill:#EFEFEF;stroke:#59595B;stroke-width:5;stroke-linecap:round;stroke-linejoin:round;stroke-miterlimit:10;}
	.st9{fill:#EDECED;}
	.st10{fill:none;stroke:#5A5B5B;stroke-width:5;stroke-miterlimit:10;}
	.st11{fill:none;stroke:#5A5B5C;stroke-width:5;stroke-linecap:round;stroke-linejoin:round;stroke-miterlimit:10;}
	.st12{fill:#EDECED;stroke:#5A5B5C;stroke-width:5;stroke-linecap:round;stroke-linejoin:round;stroke-miterlimit:10;}
	.st13{fill:#5A5B5C;stroke:#5A5B5C;stroke-width:5;stroke-linecap:round;stroke-linejoin:round;stroke-miterlimit:10;}
	.st14{fill:none;stroke:#5A5B5B;stroke-width:5;stroke-linecap:round;stroke-linejoin:round;stroke-miterlimit:10;}
	.st15{fill:#F0EFEF;stroke:#5A5B5B;stroke-width:5;stroke-linecap:round;stroke-linejoin:round;stroke-miterlimit:10;}
	.st16{fill:#E8E8E8;stroke:#5A5B5C;stroke-width:5;stroke-linecap:round;stroke-linejoin:round;stroke-miterlimit:10;}
	.st17{fill:#FFFFFF;stroke:#5A5B5B;stroke-width:5;stroke-linecap:round;stroke-linejoin:round;stroke-miterlimit:10;}
	.st18{fill:#EFEFEF;stroke:#59595A;stroke-width:5;stroke-linecap:round;stroke-linejoin:round;stroke-miterlimit:10;}
	.st19{fill:none;stroke:#59595A;stroke-width:5;stroke-miterlimit:10;}
	.st20{fill:none;stroke:#59595A;stroke-width:5;stroke-linecap:round;stroke-miterlimit:10;}
	.st21{fill:none;stroke:#59595A;stroke-width:5;stroke-linejoin:round;stroke-miterlimit:10;}
	.st22{fill:none;stroke:#59595A;stroke-width:4.539;stroke-miterlimit:10;}
	.st23{fill:none;stroke:#59595A;stroke-width:4.1349;stroke-miterlimit:10;}
	.st24{fill:none;stroke:#59595A;stroke-width:3.9798;stroke-miterlimit:10;}
	.st25{fill:none;stroke:#58595B;stroke-width:5;stroke-miterlimit:10;}
	.st26{fill:none;stroke:#58595B;stroke-width:5;stroke-linejoin:round;stroke-miterlimit:10;}
	.st27{fill:none;stroke:#58595B;stroke-width:5;stroke-linecap:round;stroke-linejoin:round;stroke-miterlimit:10;}
	.st28{fill:none;stroke:#59595B;stroke-width:4.2054;stroke-linecap:round;stroke-linejoin:round;stroke-miterlimit:10;}
	.st29{fill:none;stroke:#59595B;stroke-width:5;stroke-miterlimit:10;}
	.st30{fill:#EDECEC;stroke:#59595B;stroke-width:5;stroke-linecap:round;stroke-linejoin:round;stroke-miterlimit:10;}
	.st31{fill:#EDEDED;stroke:#59595A;stroke-width:5;stroke-miterlimit:10;}
	.st32{fill:#EDEDED;stroke:#59595B;stroke-width:5;stroke-linecap:round;stroke-linejoin:round;stroke-miterlimit:10;}
	.st33{fill:none;stroke:#59595A;stroke-width:5;stroke-linecap:round;stroke-linejoin:round;stroke-miterlimit:10;}
	.st34{fill:#58595B;}
	.st35{fill:#59595A;stroke:#EDEDED;stroke-width:3;stroke-miterlimit:10;}
	.st36{fill:#59595A;stroke:#EDEDED;stroke-miterlimit:10;}
	.st37{fill:#EFEFEF;stroke:#59595A;stroke-width:5;stroke-linecap:round;stroke-miterlimit:10;}
	.st38{fill:#EDEDED;stroke:#59595A;stroke-width:5;stroke-linecap:round;stroke-linejoin:round;stroke-miterlimit:10;}
	.st39{fill-rule:evenodd;clip-rule:evenodd;fill:#59595B;}
	
		.st40{fill-rule:evenodd;clip-rule:evenodd;fill:none;stroke:#59595B;stroke-width:5;stroke-linecap:round;stroke-linejoin:round;stroke-miterlimit:10;}
	.st41{fill:none;stroke:#5A5B5C;stroke-width:4.1457;stroke-linejoin:round;stroke-miterlimit:10;}
	.st42{fill:none;stroke:#5A5B5B;stroke-width:4.539;stroke-miterlimit:10;}
	.st43{fill:none;stroke:#5A5B5B;stroke-width:4.1349;stroke-miterlimit:10;}
	.st44{fill:none;stroke:#5A5B5B;stroke-width:3.9798;stroke-miterlimit:10;}
	.st45{fill:none;stroke:#5A5B5C;stroke-width:4;stroke-linecap:round;stroke-linejoin:round;stroke-miterlimit:10;}
	.st46{fill:none;stroke:#595A5C;stroke-width:5;stroke-linecap:round;stroke-linejoin:round;stroke-miterlimit:10;}
	.st47{fill:#5A5B5C;}
	.st48{fill:none;stroke:#595A5C;stroke-width:5;stroke-linejoin:round;stroke-miterlimit:10;}
	.st49{fill:none;stroke:#5A5B5B;stroke-width:5;stroke-linecap:round;stroke-miterlimit:10;}
	.st50{fill:#5A5B5B;}
	.st51{fill:#5A5B5C;stroke:#5A5B5C;stroke-miterlimit:10;}
	.st52{fill:#595A5C;}
	.st53{fill:#EDECED;stroke:#5A5B5B;stroke-width:5;stroke-miterlimit:10;}
	.st54{fill:#FFFFFF;stroke:#5A5B5B;stroke-width:5;stroke-miterlimit:10;}
	.st55{fill:#FFFFFF;stroke:#5A5B5C;stroke-width:5;stroke-linecap:round;stroke-linejoin:round;stroke-miterlimit:10;}
	.st56{fill:#FFFFFF;stroke:#59595B;stroke-width:5;stroke-linecap:round;stroke-linejoin:round;stroke-miterlimit:10;}
	.st57{fill:#FFFFFF;stroke:#59595A;stroke-width:5;stroke-linecap:round;stroke-linejoin:round;stroke-miterlimit:10;}
	.st58{fill:#FFFFFF;stroke:#59595A;stroke-width:5;stroke-miterlimit:10;}
	.st59{fill:none;stroke:#59595B;stroke-width:3.8573;stroke-linejoin:round;stroke-miterlimit:10;}
	.st60{fill:#EDEDED;stroke:#59595B;stroke-width:5;stroke-miterlimit:10;}
	.st61{fill:none;stroke:#59595B;stroke-width:5;stroke-linecap:round;stroke-miterlimit:10;}
	.st62{fill:#59595B;stroke:#59595A;stroke-width:5;stroke-linecap:round;stroke-linejoin:round;stroke-miterlimit:10;}
	.st63{fill:#FFFFFF;stroke:#59595B;stroke-width:5;stroke-miterlimit:10;}
	.st64{fill:#EAEAEA;stroke:#59595A;stroke-width:5;stroke-linecap:round;stroke-linejoin:round;stroke-miterlimit:10;}
	.st65{fill:#EAEAEA;stroke:#59595A;stroke-width:5;stroke-linecap:round;stroke-miterlimit:10;}
</style>
<g id="Background">
</g>
<g id="_x23_Tower_x5F_Bridge">
</g>
<g id="_x23_Washington_x5F_Mountain">
</g>
<g id="_x23_London_x5F_Eye">
</g>
<g id="_x23_Eiffel_x5F_Tower">
	<g id="New_Symbol">
	</g>
</g>
<g id="_x23_Forbidden_x5F_City">
</g>
<g id="_x23_Sydney_x5F_Opera_x5F_House">
</g>
<g id="_x23_Space_x5F_Needle">
</g>
<g id="_x23_Pyramid">
</g>
<g id="_x23_The_x5F_Pantheon">
</g>
<g id="_x23_Emirates_x5F_Towers">
</g>
<g id="_x23_China_x5F_wall">
	<g id="_x23_Empire_x5F_State_x5F_Building">
	</g>
	<g>
		<g>
			<line class="st19" x1="474.2" y1="397.8" x2="0" y2="397.8"/>
			<line class="st19" x1="427.3" y1="407.7" x2="33.7" y2="407.7"/>
		</g>
		<rect x="43.1" y="343.5" class="st7" width="129.2" height="53.6"/>
		<polygon class="st7" points="176.8,343.5 38.7,343.5 37.8,337.2 177.6,337.2 		"/>
		<rect x="66.2" y="343.5" class="st7" width="14.1" height="53.6"/>
		<rect x="135.7" y="343.5" class="st7" width="14.1" height="53.6"/>
		<circle class="st7" cx="54.6" cy="368.5" r="4.6"/>
		<circle class="st5" cx="107.7" cy="299.5" r="5"/>
		<circle class="st7" cx="161" cy="368.5" r="4.6"/>
		<path class="st7" d="M117.8,360c0-5.6-4.5-10.1-10.1-10.1c-5.6,0-10.1,4.5-10.1,10.1"/>
		<polyline class="st7" points="117.8,360 117.8,397 97.6,397 97.6,360 		"/>
		<path class="st7" d="M111.6,368.7c0-2.1-1.7-3.9-3.9-3.9c-2.1,0-3.9,1.7-3.9,3.9"/>
		<polyline class="st7" points="111.6,369.4 111.6,397.1 103.9,397.1 103.9,369.4 		"/>
		<path class="st7" d="M111.1,224.8c0-2.1-1.5-3.8-3.4-3.8c-1.9,0-3.4,1.7-3.4,3.8"/>
		<polyline class="st7" points="111.1,224.8 111.1,260 104.3,260 104.3,224.8 		"/>
		<rect x="71.8" y="278.6" class="st7" width="71.8" height="58"/>
		<rect x="76.4" y="202.7" class="st7" width="62.7" height="75.9"/>
		<rect x="71.8" y="278.6" class="st7" width="6.7" height="46.4"/>
		<rect x="78.5" y="278.6" class="st7" width="6.7" height="46.4"/>
		<rect x="71.8" y="325" class="st7" width="6.7" height="11.6"/>
		<rect x="78.5" y="325" class="st7" width="6.7" height="11.6"/>
		<rect x="130.2" y="325" class="st7" width="6.7" height="11.6"/>
		<rect x="136.9" y="325" class="st7" width="6.7" height="11.6"/>
		<rect x="130.2" y="278.6" class="st7" width="6.7" height="46.4"/>
		<rect x="132.6" y="202.7" class="st7" width="6.5" height="15"/>
		<rect x="132.6" y="217.7" class="st7" width="6.5" height="60.1"/>
		<rect x="76.4" y="202.7" class="st7" width="6.5" height="15"/>
		<rect x="76.4" y="217.7" class="st7" width="6.5" height="60.1"/>
		<rect x="136.9" y="278.6" class="st7" width="6.7" height="46.4"/>
		<circle class="st7" cx="107.7" cy="299.5" r="8.6"/>
		<circle class="st5" cx="107.7" cy="58.8" r="5.4"/>
		<line class="st7" x1="98.9" y1="260" x2="116.6" y2="260"/>
		<polyline class="st7" points="81.5,192.7 107.7,57.1 99.6,192.7 		"/>
		<polyline class="st7" points="133.9,192.7 107.7,57.1 115.9,192.7 		"/>
		<line class="st7" x1="107.7" y1="38.8" x2="107.7" y2="54.8"/>
		<line class="st7" x1="111.7" y1="42.7" x2="103.8" y2="42.7"/>
		<polygon class="st7" points="142.7,202.7 71.6,202.7 70.7,194.9 143.6,194.9 		"/>
		<line class="st7" x1="83.3" y1="185.7" x2="92.2" y2="185.7"/>
		<line class="st7" x1="85.2" y1="174.6" x2="90.7" y2="174.6"/>
		<line class="st7" x1="87.9" y1="163" x2="90.7" y2="163"/>
		<line class="st7" x1="99.9" y1="185.7" x2="108.8" y2="185.7"/>
		<line class="st7" x1="101.7" y1="174.6" x2="107.3" y2="174.6"/>
		<line class="st7" x1="102.5" y1="163" x2="105.2" y2="163"/>
		<line class="st7" x1="116.4" y1="185.7" x2="125.3" y2="185.7"/>
		<line class="st7" x1="116.8" y1="174.6" x2="122.4" y2="174.6"/>
		<line class="st7" x1="116.2" y1="163" x2="119" y2="163"/>
		<g>
			<path class="st7" d="M260.7,90.2c14.5-8.5,24.3-2,25.5,10.2c1.2,12.2-13.3,14.7-13.3,14.7h-61.3c0,0-12.6-3.7-11.3-14.7
				c1.6-14.1,15.2-14.1,20-7"/>
			<path class="st7" d="M216.1,89.6c-5.9-7,5.9-23.2,19.4-14.2"/>
			<path class="st7" d="M233.7,81c0,0,5.7-17.9,22.5-13.6c14.5,3.7,12.5,18.9,12.5,18.9"/>
		</g>
		<g>
			<path class="st7" d="M66,56.7c5.7-6,15.6-1,16,7S74,74,74,74H44c0,0-8.3-2.7-6.7-11.3c1.7-8.7,12-7,12.7-5.3"/>
			<path class="st7" d="M72.7,54c0,0-1.5-11.4-13.1-10.4S48.5,56.4,48.5,56.4"/>
		</g>
		<g>
			<path class="st7" d="M350.7,21.3c-8.2-8.6-22.5-1.4-23,10.1c-0.6,11.5,11.5,14.9,11.5,14.9h43.2c0,0,12-3.8,9.6-16.3
				c-2.4-12.5-17.3-10.1-18.2-7.7"/>
			<path class="st7" d="M341.1,17.5c0,0,2.2-16.3,18.9-14.9s16,18.3,16,18.3"/>
		</g>
		<path class="st7" d="M261.8,376.8c0-3-5.3-5.5-11.8-5.5c-6.5,0-11.8,2.5-11.8,5.5"/>
		<polyline class="st7" points="261.8,376.8 261.8,396.8 238.1,396.8 238.1,376.8 		"/>
		<path class="st7" d="M231.3,376.8c0-3-5.3-5.5-11.8-5.5c-6.5,0-11.8,2.5-11.8,5.5"/>
		<polyline class="st7" points="231.3,376.8 231.3,396.8 207.6,396.8 207.6,376.8 		"/>
		<path class="st7" d="M292.9,376.8c0-3-5.3-5.5-11.8-5.5s-11.8,2.5-11.8,5.5"/>
		<polyline class="st7" points="292.9,376.8 292.9,396.8 269.2,396.8 269.2,376.8 		"/>
		<path class="st7" d="M324,376.8c0-3-5.3-5.5-11.8-5.5s-11.8,2.5-11.8,5.5"/>
		<polyline class="st7" points="324,376.8 324,396.8 300.4,396.8 300.4,376.8 		"/>
		<path class="st7" d="M354.8,376c0-3-5.3-5.5-11.8-5.5c-6.5,0-11.8,2.5-11.8,5.5"/>
		<polyline class="st7" points="354.8,376 354.8,396 331.1,396 331.1,376 		"/>
		<path class="st7" d="M223.4,350.5c0-1-1.7-1.8-3.9-1.8s-3.9,0.8-3.9,1.8"/>
		<polyline class="st7" points="223.4,350.8 223.4,363.4 215.6,363.4 215.6,350.8 		"/>
		<path class="st7" d="M253.9,350.5c0-1-1.7-1.8-3.9-1.8c-2.1,0-3.9,0.8-3.9,1.8"/>
		<polyline class="st7" points="253.9,350.8 253.9,363.4 246.1,363.4 246.1,350.8 		"/>
		<path class="st7" d="M285,350.5c0-1-1.7-1.8-3.9-1.8c-2.1,0-3.9,0.8-3.9,1.8"/>
		<polyline class="st7" points="285,350.8 285,363.4 277.2,363.4 277.2,350.8 		"/>
		<path class="st7" d="M316.1,350.5c0-1-1.7-1.8-3.9-1.8c-2.1,0-3.9,0.8-3.9,1.8"/>
		<polyline class="st7" points="316.1,350.8 316.1,363.4 308.3,363.4 308.3,350.8 		"/>
		<path class="st7" d="M346.8,350.5c0-1-1.7-1.8-3.9-1.8c-2.1,0-3.9,0.8-3.9,1.8"/>
		<polyline class="st7" points="346.8,350.8 346.8,363.4 339.1,363.4 339.1,350.8 		"/>
		<path class="st7" d="M386.5,259.4c0-0.9-1.7-1.6-3.9-1.6c-2.1,0-3.9,0.7-3.9,1.6"/>
		<polyline class="st7" points="386.5,259.7 386.5,271.1 378.7,271.1 378.7,259.7 		"/>
		<path class="st7" d="M402.6,259.4c0-0.9-1.7-1.6-3.9-1.6c-2.1,0-3.9,0.7-3.9,1.6"/>
		<polyline class="st7" points="402.6,259.7 402.6,271.1 394.9,271.1 394.9,259.7 		"/>
		<rect x="199.9" y="325" class="st7" width="162.7" height="72.8"/>
		<polygon class="st7" points="362.6,325 199.9,325 215.9,299.5 362.6,299.5 		"/>
		<rect x="362.6" y="247.8" class="st7" width="55.7" height="150.1"/>
		<rect x="357.6" y="240.7" class="st7" width="65.7" height="7.1"/>
		<rect x="365.3" y="217.8" class="st7" width="50.2" height="5.9"/>
		<line class="st7" x1="367.3" y1="215.8" x2="367.3" y2="213.8"/>
		<line class="st7" x1="413.5" y1="213.8" x2="413.5" y2="215.8"/>
		<path class="st7" d="M362.6,240.7c5.8-7.5,9-16.9,9-16.9h38.7c0,0,3.2,10,8,16.9"/>
		<polyline class="st7" points="367.3,213.8 373.1,205.3 378.9,211.8 		"/>
		<polyline class="st7" points="378.9,211.8 384.6,205.3 390.4,211.8 		"/>
		<polyline class="st7" points="390.4,211.8 396.2,205.3 402,211.8 		"/>
		<polyline class="st7" points="402,211.8 407.7,205.3 413.5,213.8 		"/>
		<polyline class="st7" points="387.2,207.6 387.2,152.5 393.5,152.5 393.5,207.6 		"/>
		<polyline class="st7" points="399.7,207.6 399.7,152.5 405.9,152.5 405.9,207.6 		"/>
		<polyline class="st7" points="374.9,207.6 374.9,152.5 381.2,152.5 381.2,207.6 		"/>
		<line class="st7" x1="376.2" y1="157.5" x2="380.4" y2="162.7"/>
		<line class="st7" x1="376.2" y1="167.4" x2="380.4" y2="172.5"/>
		<line class="st7" x1="376.2" y1="177.3" x2="380.4" y2="182.4"/>
		<line class="st7" x1="376.2" y1="187.2" x2="380.4" y2="192.3"/>
		<line class="st7" x1="376.2" y1="197.1" x2="380.4" y2="202.2"/>
		<line class="st7" x1="388.2" y1="157.5" x2="392.4" y2="162.7"/>
		<line class="st7" x1="388.2" y1="167.4" x2="392.4" y2="172.5"/>
		<line class="st7" x1="388.2" y1="177.3" x2="392.4" y2="182.4"/>
		<line class="st7" x1="388.2" y1="187.2" x2="392.4" y2="192.3"/>
		<line class="st7" x1="388.2" y1="197.1" x2="392.4" y2="202.2"/>
		<line class="st7" x1="401" y1="157.5" x2="405.3" y2="162.7"/>
		<line class="st7" x1="401" y1="167.4" x2="405.3" y2="172.5"/>
		<line class="st7" x1="401" y1="177.3" x2="405.3" y2="182.4"/>
		<line class="st7" x1="401" y1="187.2" x2="405.3" y2="192.3"/>
		<line class="st7" x1="401" y1="197.1" x2="405.3" y2="202.2"/>
		<rect x="367.3" y="144.5" class="st7" width="45.3" height="7"/>
		<line class="st7" x1="197.4" y1="381.5" x2="210.4" y2="381.5"/>
		<line class="st7" x1="228.6" y1="381.3" x2="241.6" y2="381.3"/>
		<line class="st7" x1="259.1" y1="381.3" x2="272.1" y2="381.3"/>
		<line class="st7" x1="290.2" y1="381.3" x2="303.3" y2="381.3"/>
		<line class="st7" x1="321.1" y1="381.3" x2="334.1" y2="381.3"/>
		<line class="st7" x1="352.3" y1="381.3" x2="361.9" y2="381.3"/>
		<rect x="363.2" y="376.2" class="st56" width="92.3" height="21.1"/>
		<line class="st7" x1="212.6" y1="334.8" x2="216.5" y2="334.8"/>
		<line class="st7" x1="224.4" y1="334.8" x2="228.3" y2="334.8"/>
		<line class="st7" x1="236.2" y1="334.8" x2="240" y2="334.8"/>
		<line class="st7" x1="248" y1="334.8" x2="251.8" y2="334.8"/>
		<line class="st7" x1="259.7" y1="334.8" x2="263.6" y2="334.8"/>
		<line class="st7" x1="271.5" y1="334.8" x2="275.4" y2="334.8"/>
		<line class="st7" x1="283.3" y1="334.8" x2="287.2" y2="334.8"/>
		<line class="st7" x1="295.1" y1="334.8" x2="298.9" y2="334.8"/>
		<line class="st7" x1="306.8" y1="334.8" x2="310.7" y2="334.8"/>
		<line class="st7" x1="318.6" y1="334.8" x2="322.5" y2="334.8"/>
		<line class="st7" x1="330.4" y1="334.8" x2="334.3" y2="334.8"/>
		<line class="st7" x1="342.2" y1="334.8" x2="346.1" y2="334.8"/>
		<line class="st7" x1="375.4" y1="346.7" x2="375.4" y2="354.2"/>
		<line class="st7" x1="375.4" y1="325" x2="375.4" y2="332.6"/>
		<line class="st7" x1="375.4" y1="303.3" x2="375.4" y2="310.9"/>
		<line class="st7" x1="375.4" y1="281.7" x2="375.4" y2="289.2"/>
		<line class="st7" x1="405.2" y1="346.7" x2="405.2" y2="354.2"/>
		<line class="st7" x1="405.2" y1="325" x2="405.2" y2="332.6"/>
		<line class="st7" x1="405.2" y1="303.3" x2="405.2" y2="310.9"/>
		<line class="st7" x1="405.2" y1="281.7" x2="405.2" y2="289.2"/>
		<rect x="386.5" y="307.1" class="st7" width="8.4" height="22.5"/>
		<polygon class="st7" points="394.9,306.9 386.5,306.9 390.7,296.5 		"/>
		<path class="st7" d="M390.9,144.5h-17.6c0,0,11.9-5.7,12-32.7"/>
		<path class="st7" d="M388.3,144.5h17.6c0,0-10.9-6.7-11-33.7"/>
		<path class="st7" d="M395.3,110.2c1.5,0,1.9,0,2.8,0c3.4,0,6.2-2.6,6.2-5.7c0-3.2-2.8-5.7-6.2-5.7c-0.9,0-1.7,0.2-2.5,0.5
			c0.4-0.8,0.6-1.6,0.6-2.5c0-3.2-2.8-5.7-6.2-5.7c-3.4,0-6.2,2.6-6.2,5.7c0,0.8,0.2,1.6,0.6,2.4c-0.6-0.2-1.3-0.3-1.9-0.3
			c-3.4,0-6.2,2.6-6.2,5.7c0,3.2,2.8,5.7,6.2,5.7c0.8,0,1.8,0,3,0"/>
		<line class="st7" x1="367.3" y1="133.4" x2="367.3" y2="143.4"/>
		<line class="st7" x1="412.6" y1="133.4" x2="412.6" y2="143.4"/>
		<line class="st7" x1="390" y1="77.3" x2="390" y2="90.7"/>
		<path class="st7" d="M374.9,74.4c0,0,5.6,10.5,15.1,10.5S405,74.4,405,74.4"/>
		<g>
			<line class="st7" x1="385.8" y1="77.3" x2="393.7" y2="77.3"/>
			<line class="st7" x1="390" y1="73.2" x2="390" y2="77.3"/>
			<line class="st7" x1="394.9" y1="73.2" x2="394.9" y2="77.3"/>
			<line class="st7" x1="385" y1="73.2" x2="385" y2="77.3"/>
		</g>
		<g>
			<line class="st7" x1="400.8" y1="74.4" x2="408.7" y2="74.4"/>
			<line class="st7" x1="405" y1="70.3" x2="405" y2="74.4"/>
			<line class="st7" x1="409.9" y1="70.3" x2="409.9" y2="74.4"/>
			<line class="st7" x1="400" y1="70.3" x2="400" y2="74.4"/>
		</g>
		<g>
			<line class="st7" x1="370.7" y1="74.4" x2="378.7" y2="74.4"/>
			<line class="st7" x1="375" y1="70.3" x2="375" y2="74.4"/>
			<line class="st7" x1="379.9" y1="70.3" x2="379.9" y2="74.4"/>
			<line class="st7" x1="370" y1="70.3" x2="370" y2="74.4"/>
		</g>
		<path class="st8" d="M434.2,395c0-5.3-7.6-9.5-16.9-9.5c-9.3,0-16.9,4.3-16.9,9.5"/>
	</g>
</g>
</svg>
