<?xml version="1.0" encoding="utf-8"?>
<!-- Generator: Adobe Illustrator 19.1.0, SVG Export Plug-In . SVG Version: 6.00 Build 0)  -->
<svg version="1.1" xmlns="http://www.w3.org/2000/svg" xmlns:xlink="http://www.w3.org/1999/xlink" x="0px" y="0px"
	 viewBox="0 0 479.2 420.4" style="enable-background:new 0 0 479.2 420.4;" xml:space="preserve">
<style type="text/css">
	.st0{fill:#EDEDED;}
	.st1{fill:#59595A;}
	.st2{fill:none;stroke:#59595B;stroke-width:5;stroke-linejoin:round;stroke-miterlimit:10;}
	.st3{fill:none;stroke:#59595B;stroke-width:4.1457;stroke-linejoin:round;stroke-miterlimit:10;}
	.st4{fill:#F6F5F5;}
	.st5{fill:#59595B;}
	.st6{fill:none;stroke:#59595B;stroke-width:4.0874;stroke-linecap:round;stroke-linejoin:round;stroke-miterlimit:10;}
	.st7{fill:none;stroke:#59595B;stroke-width:5;stroke-linecap:round;stroke-linejoin:round;stroke-miterlimit:10;}
	.st8{fill:#EFEFEF;stroke:#59595B;stroke-width:5;stroke-linecap:round;stroke-linejoin:round;stroke-miterlimit:10;}
	.st9{fill:#EDECED;}
	.st10{fill:none;stroke:#5A5B5B;stroke-width:5;stroke-miterlimit:10;}
	.st11{fill:none;stroke:#5A5B5C;stroke-width:5;stroke-linecap:round;stroke-linejoin:round;stroke-miterlimit:10;}
	.st12{fill:#EDECED;stroke:#5A5B5C;stroke-width:5;stroke-linecap:round;stroke-linejoin:round;stroke-miterlimit:10;}
	.st13{fill:#5A5B5C;stroke:#5A5B5C;stroke-width:5;stroke-linecap:round;stroke-linejoin:round;stroke-miterlimit:10;}
	.st14{fill:none;stroke:#5A5B5B;stroke-width:5;stroke-linecap:round;stroke-linejoin:round;stroke-miterlimit:10;}
	.st15{fill:#F0EFEF;stroke:#5A5B5B;stroke-width:5;stroke-linecap:round;stroke-linejoin:round;stroke-miterlimit:10;}
	.st16{fill:#E8E8E8;stroke:#5A5B5C;stroke-width:5;stroke-linecap:round;stroke-linejoin:round;stroke-miterlimit:10;}
	.st17{fill:#FFFFFF;stroke:#5A5B5B;stroke-width:5;stroke-linecap:round;stroke-linejoin:round;stroke-miterlimit:10;}
	.st18{fill:#EFEFEF;stroke:#59595A;stroke-width:5;stroke-linecap:round;stroke-linejoin:round;stroke-miterlimit:10;}
	.st19{fill:none;stroke:#59595A;stroke-width:5;stroke-miterlimit:10;}
	.st20{fill:none;stroke:#59595A;stroke-width:5;stroke-linecap:round;stroke-miterlimit:10;}
	.st21{fill:none;stroke:#59595A;stroke-width:5;stroke-linejoin:round;stroke-miterlimit:10;}
	.st22{fill:none;stroke:#59595A;stroke-width:4.539;stroke-miterlimit:10;}
	.st23{fill:none;stroke:#59595A;stroke-width:4.1349;stroke-miterlimit:10;}
	.st24{fill:none;stroke:#59595A;stroke-width:3.9798;stroke-miterlimit:10;}
	.st25{fill:none;stroke:#58595B;stroke-width:5;stroke-miterlimit:10;}
	.st26{fill:none;stroke:#58595B;stroke-width:5;stroke-linejoin:round;stroke-miterlimit:10;}
	.st27{fill:none;stroke:#58595B;stroke-width:5;stroke-linecap:round;stroke-linejoin:round;stroke-miterlimit:10;}
	.st28{fill:none;stroke:#59595B;stroke-width:4.2054;stroke-linecap:round;stroke-linejoin:round;stroke-miterlimit:10;}
	.st29{fill:none;stroke:#59595B;stroke-width:5;stroke-miterlimit:10;}
	.st30{fill:#EDECEC;stroke:#59595B;stroke-width:5;stroke-linecap:round;stroke-linejoin:round;stroke-miterlimit:10;}
	.st31{fill:#EDEDED;stroke:#59595A;stroke-width:5;stroke-miterlimit:10;}
	.st32{fill:#EDEDED;stroke:#59595B;stroke-width:5;stroke-linecap:round;stroke-linejoin:round;stroke-miterlimit:10;}
	.st33{fill:none;stroke:#59595A;stroke-width:5;stroke-linecap:round;stroke-linejoin:round;stroke-miterlimit:10;}
	.st34{fill:#58595B;}
	.st35{fill:#59595A;stroke:#EDEDED;stroke-width:3;stroke-miterlimit:10;}
	.st36{fill:#59595A;stroke:#EDEDED;stroke-miterlimit:10;}
	.st37{fill:#EFEFEF;stroke:#59595A;stroke-width:5;stroke-linecap:round;stroke-miterlimit:10;}
	.st38{fill:#EDEDED;stroke:#59595A;stroke-width:5;stroke-linecap:round;stroke-linejoin:round;stroke-miterlimit:10;}
	.st39{fill-rule:evenodd;clip-rule:evenodd;fill:#59595B;}
	
		.st40{fill-rule:evenodd;clip-rule:evenodd;fill:none;stroke:#59595B;stroke-width:5;stroke-linecap:round;stroke-linejoin:round;stroke-miterlimit:10;}
	.st41{fill:none;stroke:#5A5B5C;stroke-width:4.1457;stroke-linejoin:round;stroke-miterlimit:10;}
	.st42{fill:none;stroke:#5A5B5B;stroke-width:4.539;stroke-miterlimit:10;}
	.st43{fill:none;stroke:#5A5B5B;stroke-width:4.1349;stroke-miterlimit:10;}
	.st44{fill:none;stroke:#5A5B5B;stroke-width:3.9798;stroke-miterlimit:10;}
	.st45{fill:none;stroke:#5A5B5C;stroke-width:4;stroke-linecap:round;stroke-linejoin:round;stroke-miterlimit:10;}
	.st46{fill:none;stroke:#595A5C;stroke-width:5;stroke-linecap:round;stroke-linejoin:round;stroke-miterlimit:10;}
	.st47{fill:#5A5B5C;}
	.st48{fill:none;stroke:#595A5C;stroke-width:5;stroke-linejoin:round;stroke-miterlimit:10;}
	.st49{fill:none;stroke:#5A5B5B;stroke-width:5;stroke-linecap:round;stroke-miterlimit:10;}
	.st50{fill:#5A5B5B;}
	.st51{fill:#5A5B5C;stroke:#5A5B5C;stroke-miterlimit:10;}
	.st52{fill:#595A5C;}
	.st53{fill:#EDECED;stroke:#5A5B5B;stroke-width:5;stroke-miterlimit:10;}
	.st54{fill:#FFFFFF;stroke:#5A5B5B;stroke-width:5;stroke-miterlimit:10;}
	.st55{fill:#FFFFFF;stroke:#5A5B5C;stroke-width:5;stroke-linecap:round;stroke-linejoin:round;stroke-miterlimit:10;}
	.st56{fill:#FFFFFF;stroke:#59595B;stroke-width:5;stroke-linecap:round;stroke-linejoin:round;stroke-miterlimit:10;}
	.st57{fill:#FFFFFF;stroke:#59595A;stroke-width:5;stroke-linecap:round;stroke-linejoin:round;stroke-miterlimit:10;}
	.st58{fill:#FFFFFF;stroke:#59595A;stroke-width:5;stroke-miterlimit:10;}
	.st59{fill:none;stroke:#59595B;stroke-width:3.8573;stroke-linejoin:round;stroke-miterlimit:10;}
	.st60{fill:#EDEDED;stroke:#59595B;stroke-width:5;stroke-miterlimit:10;}
	.st61{fill:none;stroke:#59595B;stroke-width:5;stroke-linecap:round;stroke-miterlimit:10;}
	.st62{fill:#59595B;stroke:#59595A;stroke-width:5;stroke-linecap:round;stroke-linejoin:round;stroke-miterlimit:10;}
	.st63{fill:#FFFFFF;stroke:#59595B;stroke-width:5;stroke-miterlimit:10;}
	.st64{fill:#EAEAEA;stroke:#59595A;stroke-width:5;stroke-linecap:round;stroke-linejoin:round;stroke-miterlimit:10;}
	.st65{fill:#EAEAEA;stroke:#59595A;stroke-width:5;stroke-linecap:round;stroke-miterlimit:10;}
</style>
<g id="Background">
</g>
<g id="_x23_Tower_x5F_Bridge">
</g>
<g id="_x23_Washington_x5F_Mountain">
</g>
<g id="_x23_London_x5F_Eye">
</g>
<g id="_x23_Eiffel_x5F_Tower">
	<g id="New_Symbol">
	</g>
	<g>
		<g>
			<polygon class="st7" points="82.6,229.4 82.6,270.3 92.5,277.8 92.5,408 135.1,408 135.1,277.8 145,270.3 145,229.4 135.2,221.9 
				91.8,221.9 			"/>
			<g>
				<circle class="st7" cx="113.8" cy="250.2" r="22.9"/>
				<line class="st7" x1="112.2" y1="251" x2="121.7" y2="241.5"/>
				<line class="st7" x1="112.2" y1="251.1" x2="118.2" y2="257.1"/>
				<line class="st7" x1="113.8" y1="227.3" x2="113.8" y2="232.3"/>
				<line class="st7" x1="136.6" y1="250.2" x2="131.6" y2="250.2"/>
				<line class="st7" x1="95.9" y1="250.2" x2="91" y2="250.2"/>
				<line class="st7" x1="113.8" y1="268.1" x2="113.8" y2="273"/>
			</g>
			<rect x="91.8" y="211.6" class="st7" width="42.6" height="10.2"/>
			<line class="st7" x1="113.1" y1="218.2" x2="113.1" y2="221.9"/>
			<line class="st7" x1="118.6" y1="218.2" x2="118.6" y2="221.9"/>
			<line class="st7" x1="124.1" y1="218.2" x2="124.1" y2="221.9"/>
			<line class="st7" x1="129.5" y1="218.2" x2="129.5" y2="221.9"/>
			<line class="st7" x1="96.3" y1="218.2" x2="96.3" y2="221.9"/>
			<line class="st7" x1="101.8" y1="218.2" x2="101.8" y2="221.9"/>
			<line class="st7" x1="107.3" y1="218.2" x2="107.3" y2="221.9"/>
			<rect x="99.5" y="183.1" class="st7" width="27.3" height="6.6"/>
			<line class="st7" x1="113.1" y1="188.4" x2="113.1" y2="189.3"/>
			<line class="st7" x1="120.1" y1="188.4" x2="120.1" y2="189.3"/>
			<line class="st7" x1="105.9" y1="188.4" x2="105.9" y2="189.3"/>
			<line class="st7" x1="100.9" y1="191.6" x2="94" y2="211.6"/>
			<line class="st7" x1="125.4" y1="191.6" x2="132.3" y2="211.6"/>
			<line class="st7" x1="112.5" y1="143" x2="99.5" y2="183.1"/>
			<line class="st7" x1="112.5" y1="143" x2="126.8" y2="183.1"/>
			<line class="st7" x1="113.8" y1="282.2" x2="113.8" y2="408"/>
			<line class="st7" x1="120.6" y1="288.5" x2="120.6" y2="408"/>
			<line class="st7" x1="127.5" y1="276.3" x2="127.5" y2="408"/>
			<line class="st7" x1="107.1" y1="288.5" x2="107.1" y2="408"/>
			<line class="st7" x1="100.2" y1="276.3" x2="100.2" y2="408"/>
		</g>
		<g>
			<line class="st20" x1="476.7" y1="408" x2="2.5" y2="408"/>
			<line class="st20" x1="429.8" y1="417.9" x2="36.2" y2="417.9"/>
		</g>
		<path class="st7" d="M221.3,244.9c0-1.6-3.6-2.8-8-2.8s-8,1.3-8,2.8"/>
		<polyline class="st7" points="221.3,244.9 221.3,271.5 205.2,271.5 205.2,244.9 		"/>
		<path class="st7" d="M217.3,340.1c0-0.7-1.8-1.3-4-1.3c-2.2,0-4,0.6-4,1.3"/>
		<polyline class="st7" points="217.3,340.1 217.3,352.2 209.4,352.2 209.4,340.1 		"/>
		<rect x="177.4" y="294.1" class="st7" width="71.8" height="58"/>
		<rect x="185.5" y="230.6" class="st7" width="55.6" height="50"/>
		<rect x="177.4" y="294.1" class="st7" width="6.7" height="32.7"/>
		<rect x="184.1" y="294.1" class="st7" width="6.7" height="32.7"/>
		<rect x="177.4" y="319.3" class="st7" width="6.7" height="32.8"/>
		<rect x="184.1" y="319.3" class="st7" width="6.7" height="32.8"/>
		<rect x="235.7" y="319.3" class="st7" width="6.7" height="32.8"/>
		<rect x="242.4" y="319.3" class="st7" width="6.7" height="32.8"/>
		<rect x="235.7" y="294.1" class="st7" width="6.7" height="32.7"/>
		<rect x="242.4" y="294.1" class="st7" width="6.7" height="32.7"/>
		<ellipse class="st5" cx="213.3" cy="59.3" rx="4.4" ry="5.4"/>
		<line class="st7" x1="187.4" y1="271.5" x2="239.1" y2="271.5"/>
		<line class="st7" x1="189.6" y1="213.2" x2="213.3" y2="77.6"/>
		<line class="st7" x1="237" y1="213.2" x2="213.3" y2="77.6"/>
		<line class="st7" x1="213.3" y1="62.3" x2="213.3" y2="78.3"/>
		<rect x="179.6" y="213.2" class="st7" width="67.5" height="10"/>
		<line class="st7" x1="212.9" y1="213.2" x2="212.9" y2="223.2"/>
		<line class="st7" x1="218.5" y1="213.2" x2="218.5" y2="223.2"/>
		<line class="st7" x1="224" y1="213.2" x2="224" y2="223.2"/>
		<line class="st7" x1="229.5" y1="213.2" x2="229.5" y2="223.2"/>
		<line class="st7" x1="235.1" y1="213.2" x2="235.1" y2="223.2"/>
		<line class="st7" x1="190.9" y1="213.2" x2="190.9" y2="223.2"/>
		<line class="st7" x1="196.4" y1="213.2" x2="196.4" y2="223.2"/>
		<line class="st7" x1="201.9" y1="213.2" x2="201.9" y2="223.2"/>
		<line class="st7" x1="207.5" y1="213.2" x2="207.5" y2="223.2"/>
		<rect x="238.1" y="202.1" class="st7" width="9" height="11.1"/>
		<rect x="179.6" y="202.1" class="st7" width="9" height="11.1"/>
		<polygon class="st7" points="242.6,150.3 247.1,202.1 238.1,202.1 		"/>
		<polygon class="st7" points="184.1,150.3 188.6,202.1 179.6,202.1 		"/>
		<rect x="209.7" y="162.9" class="st7" width="7.3" height="12.8"/>
		<polygon class="st7" points="217,162.9 209.7,162.9 213.3,126.9 		"/>
		<polygon class="st7" points="213.4,192.5 209.7,175.7 217,175.7 		"/>
		<line class="st7" x1="213.3" y1="78.3" x2="213.1" y2="129.1"/>
		<line class="st7" x1="213.4" y1="192.5" x2="212.9" y2="213.2"/>
		<polygon class="st56" points="200,294.1 171.1,294.1 168.1,282 200,282 		"/>
		<polygon class="st56" points="226.9,293.3 255.7,293.3 258.7,281.2 226.9,281.2 		"/>
		<line class="st7" x1="176.3" y1="223.2" x2="250.2" y2="223.2"/>
		<path class="st7" d="M176.3,223.2c0,0,7.9,4,9.3,9.3"/>
		<path class="st7" d="M250.6,223.2c0,0-7.9,4-9.3,9.3"/>
		<line class="st7" x1="190.8" y1="327.8" x2="235.7" y2="327.8"/>
		<rect x="177.4" y="352.1" class="st7" width="71.8" height="55.8"/>
		<line class="st7" x1="213.1" y1="352.1" x2="213.1" y2="408"/>
		<line class="st7" x1="221.5" y1="352.1" x2="221.5" y2="408"/>
		<line class="st7" x1="229.8" y1="352.1" x2="229.8" y2="408"/>
		<line class="st7" x1="238.2" y1="352.1" x2="238.2" y2="408"/>
		<line class="st7" x1="188" y1="352.1" x2="188" y2="408"/>
		<line class="st7" x1="196.4" y1="352.1" x2="196.4" y2="408"/>
		<line class="st7" x1="204.8" y1="352.1" x2="204.8" y2="408"/>
		<path class="st7" d="M363,244.6c0-1.6-3.6-2.8-8-2.8s-8,1.3-8,2.8"/>
		<polyline class="st7" points="363,244.6 363,271.2 346.9,271.2 346.9,244.6 		"/>
		<path class="st7" d="M359,339.9c0-0.7-1.8-1.3-4-1.3c-2.2,0-4,0.6-4,1.3"/>
		<polyline class="st7" points="359,339.9 359,351.9 351,351.9 351,339.9 		"/>
		<rect x="319" y="293.9" class="st7" width="71.8" height="58"/>
		<rect x="327.2" y="230.3" class="st7" width="55.6" height="50"/>
		<rect x="319" y="293.9" class="st7" width="6.7" height="32.7"/>
		<rect x="325.7" y="293.9" class="st7" width="6.7" height="32.7"/>
		<rect x="319" y="319" class="st7" width="6.7" height="32.8"/>
		<rect x="325.7" y="319" class="st7" width="6.7" height="32.8"/>
		<rect x="377.4" y="319" class="st7" width="6.7" height="32.8"/>
		<rect x="384.1" y="319" class="st7" width="6.7" height="32.8"/>
		<rect x="377.4" y="293.9" class="st7" width="6.7" height="32.7"/>
		<rect x="384.1" y="293.9" class="st7" width="6.7" height="32.7"/>
		<ellipse class="st5" cx="354.9" cy="59.1" rx="4.4" ry="5.4"/>
		<line class="st7" x1="329.1" y1="271.2" x2="380.8" y2="271.2"/>
		<line class="st7" x1="331.2" y1="212.9" x2="354.9" y2="77.4"/>
		<line class="st7" x1="378.6" y1="212.9" x2="354.9" y2="77.4"/>
		<line class="st7" x1="354.9" y1="62" x2="354.9" y2="78"/>
		<rect x="321.3" y="212.9" class="st7" width="67.5" height="10"/>
		<line class="st7" x1="354.6" y1="212.9" x2="354.6" y2="222.9"/>
		<line class="st7" x1="360.1" y1="212.9" x2="360.1" y2="222.9"/>
		<line class="st7" x1="365.6" y1="212.9" x2="365.6" y2="222.9"/>
		<line class="st7" x1="371.2" y1="212.9" x2="371.2" y2="222.9"/>
		<line class="st7" x1="376.7" y1="212.9" x2="376.7" y2="222.9"/>
		<line class="st7" x1="332.5" y1="212.9" x2="332.5" y2="222.9"/>
		<line class="st7" x1="338" y1="212.9" x2="338" y2="222.9"/>
		<line class="st7" x1="343.6" y1="212.9" x2="343.6" y2="222.9"/>
		<line class="st7" x1="349.1" y1="212.9" x2="349.1" y2="222.9"/>
		<rect x="379.7" y="201.8" class="st7" width="9" height="11.1"/>
		<rect x="321.3" y="201.8" class="st7" width="9" height="11.1"/>
		<polygon class="st7" points="384.2,150 388.7,201.8 379.7,201.8 		"/>
		<polygon class="st7" points="325.8,150 330.3,201.8 321.3,201.8 		"/>
		<rect x="351.4" y="162.6" class="st7" width="7.3" height="12.8"/>
		<polygon class="st7" points="358.6,162.6 351.4,162.6 355,126.7 		"/>
		<polygon class="st7" points="355,192.2 351.4,175.4 358.6,175.4 		"/>
		<line class="st7" x1="354.9" y1="78" x2="354.7" y2="128.9"/>
		<line class="st7" x1="355" y1="192.2" x2="354.6" y2="212.9"/>
		<polygon class="st56" points="341.6,293.9 312.8,293.9 309.8,281.7 341.6,281.7 		"/>
		<polygon class="st56" points="368.5,293 397.4,293 400.4,280.9 368.5,280.9 		"/>
		<line class="st7" x1="317.9" y1="222.9" x2="391.9" y2="222.9"/>
		<path class="st7" d="M317.9,222.9c0,0,7.9,4,9.3,9.3"/>
		<path class="st7" d="M392.3,222.9c0,0-7.9,4-9.3,9.3"/>
		<line class="st7" x1="332.4" y1="327.5" x2="377.4" y2="327.5"/>
		<rect x="319" y="351.8" class="st7" width="71.8" height="55.8"/>
		<line class="st7" x1="354.7" y1="351.8" x2="354.7" y2="407.7"/>
		<line class="st7" x1="363.1" y1="351.8" x2="363.1" y2="407.7"/>
		<line class="st7" x1="371.5" y1="351.8" x2="371.5" y2="407.7"/>
		<line class="st7" x1="379.9" y1="351.8" x2="379.9" y2="407.7"/>
		<line class="st7" x1="329.7" y1="351.8" x2="329.7" y2="407.7"/>
		<line class="st7" x1="338" y1="351.8" x2="338" y2="407.7"/>
		<line class="st7" x1="346.4" y1="351.8" x2="346.4" y2="407.7"/>
		<rect x="249.1" y="353.8" class="st7" width="69.3" height="53.6"/>
		<rect x="249.5" y="353.8" class="st7" width="7.6" height="53.6"/>
		<rect x="310.8" y="353.8" class="st7" width="7.6" height="53.6"/>
		<path class="st7" d="M289.2,376.3c0-4.7-2.4-5.9-5.4-5.9s-5.4,1.3-5.4,5.9"/>
		<polyline class="st7" points="289.2,376.3 289.2,407.3 278.4,407.3 278.4,376.3 		"/>
		<line class="st7" x1="250.9" y1="343.2" x2="283.6" y2="273.2"/>
		<line class="st7" x1="316.3" y1="343.2" x2="283.6" y2="273.2"/>
		<line class="st7" x1="283.6" y1="244.8" x2="283.6" y2="273.5"/>
		<line class="st7" x1="276.2" y1="252.9" x2="276.2" y2="259.6"/>
		<line class="st7" x1="291" y1="252.9" x2="291" y2="259.6"/>
		<rect x="249.9" y="343.2" class="st7" width="67.5" height="10"/>
		<line class="st7" x1="283.2" y1="343.2" x2="283.2" y2="353.2"/>
		<line class="st7" x1="288.8" y1="343.2" x2="288.8" y2="353.2"/>
		<line class="st7" x1="294.3" y1="343.2" x2="294.3" y2="353.2"/>
		<line class="st7" x1="299.9" y1="343.2" x2="299.9" y2="353.2"/>
		<line class="st7" x1="305.4" y1="343.2" x2="305.4" y2="353.2"/>
		<line class="st7" x1="261.2" y1="343.2" x2="261.2" y2="353.2"/>
		<line class="st7" x1="266.7" y1="343.2" x2="266.7" y2="353.2"/>
		<line class="st7" x1="272.3" y1="343.2" x2="272.3" y2="353.2"/>
		<line class="st7" x1="277.8" y1="343.2" x2="277.8" y2="353.2"/>
		<polygon class="st7" points="283.7,299.8 287.3,322.5 280,322.5 		"/>
		<line class="st7" x1="283.6" y1="273.5" x2="283.3" y2="299.8"/>
		<line class="st7" x1="283.7" y1="322.5" x2="283.2" y2="343.2"/>
		<line class="st7" x1="272" y1="256.2" x2="295.3" y2="256.2"/>
		<g>
			<path class="st7" d="M444.5,47.3c14.5-8.5,24.3-2,25.5,10.2c1.2,12.2-13.3,14.7-13.3,14.7h-61.3c0,0-12.6-3.7-11.3-14.7
				c1.6-14.1,15.2-14.1,20-7"/>
			<path class="st7" d="M399.9,46.7c-5.9-7,5.9-23.2,19.4-14.2"/>
			<path class="st7" d="M417.5,38.1c0,0,5.7-17.9,22.5-13.6c14.5,3.7,12.5,18.9,12.5,18.9"/>
		</g>
		<g>
			<path class="st7" d="M254.9,15.6c5.7-6,15.6-1,16,7c0.4,8-8,10.3-8,10.3h-30c0,0-8.3-2.7-6.7-11.3c1.7-8.7,12-7,12.7-5.3"/>
			<path class="st7" d="M261.5,12.9c0,0-1.5-11.4-13.1-10.4c-11.6,1-11.1,12.7-11.1,12.7"/>
		</g>
		<g>
			<path class="st7" d="M127.6,71.8c-8.2-8.6-22.5-1.4-23,10.1s11.5,14.9,11.5,14.9h43.2c0,0,12-3.8,9.6-16.3s-17.3-10.1-18.2-7.7"
				/>
			<path class="st7" d="M118,68c0,0,2.2-16.3,18.9-14.9s16,18.3,16,18.3"/>
		</g>
	</g>
</g>
<g id="_x23_Forbidden_x5F_City">
</g>
<g id="_x23_Sydney_x5F_Opera_x5F_House">
</g>
<g id="_x23_Space_x5F_Needle">
</g>
<g id="_x23_Pyramid">
</g>
<g id="_x23_The_x5F_Pantheon">
</g>
<g id="_x23_Emirates_x5F_Towers">
</g>
<g id="_x23_China_x5F_wall">
	<g id="_x23_Empire_x5F_State_x5F_Building">
	</g>
</g>
</svg>
