<?xml version="1.0" encoding="utf-8"?>
<!-- Generator: Adobe Illustrator 19.1.0, SVG Export Plug-In . SVG Version: 6.00 Build 0)  -->
<svg version="1.1" xmlns="http://www.w3.org/2000/svg" xmlns:xlink="http://www.w3.org/1999/xlink" x="0px" y="0px"
	 viewBox="0 0 474.2 312.7" style="enable-background:new 0 0 474.2 312.7;" xml:space="preserve">
<style type="text/css">
	.st0{fill:#EDEDED;}
	.st1{fill:#59595A;}
	.st2{fill:none;stroke:#59595B;stroke-width:5;stroke-linejoin:round;stroke-miterlimit:10;}
	.st3{fill:none;stroke:#59595B;stroke-width:4.1457;stroke-linejoin:round;stroke-miterlimit:10;}
	.st4{fill:#F6F5F5;}
	.st5{fill:#59595B;}
	.st6{fill:none;stroke:#59595B;stroke-width:4.0874;stroke-linecap:round;stroke-linejoin:round;stroke-miterlimit:10;}
	.st7{fill:none;stroke:#59595B;stroke-width:5;stroke-linecap:round;stroke-linejoin:round;stroke-miterlimit:10;}
	.st8{fill:#EFEFEF;stroke:#59595B;stroke-width:5;stroke-linecap:round;stroke-linejoin:round;stroke-miterlimit:10;}
	.st9{fill:#EDECED;}
	.st10{fill:none;stroke:#5A5B5B;stroke-width:5;stroke-miterlimit:10;}
	.st11{fill:none;stroke:#5A5B5C;stroke-width:5;stroke-linecap:round;stroke-linejoin:round;stroke-miterlimit:10;}
	.st12{fill:#EDECED;stroke:#5A5B5C;stroke-width:5;stroke-linecap:round;stroke-linejoin:round;stroke-miterlimit:10;}
	.st13{fill:#5A5B5C;stroke:#5A5B5C;stroke-width:5;stroke-linecap:round;stroke-linejoin:round;stroke-miterlimit:10;}
	.st14{fill:none;stroke:#5A5B5B;stroke-width:5;stroke-linecap:round;stroke-linejoin:round;stroke-miterlimit:10;}
	.st15{fill:#F0EFEF;stroke:#5A5B5B;stroke-width:5;stroke-linecap:round;stroke-linejoin:round;stroke-miterlimit:10;}
	.st16{fill:#E8E8E8;stroke:#5A5B5C;stroke-width:5;stroke-linecap:round;stroke-linejoin:round;stroke-miterlimit:10;}
	.st17{fill:#FFFFFF;stroke:#5A5B5B;stroke-width:5;stroke-linecap:round;stroke-linejoin:round;stroke-miterlimit:10;}
	.st18{fill:#EFEFEF;stroke:#59595A;stroke-width:5;stroke-linecap:round;stroke-linejoin:round;stroke-miterlimit:10;}
	.st19{fill:none;stroke:#59595A;stroke-width:5;stroke-miterlimit:10;}
	.st20{fill:none;stroke:#59595A;stroke-width:5;stroke-linecap:round;stroke-miterlimit:10;}
	.st21{fill:none;stroke:#59595A;stroke-width:5;stroke-linejoin:round;stroke-miterlimit:10;}
	.st22{fill:none;stroke:#59595A;stroke-width:4.539;stroke-miterlimit:10;}
	.st23{fill:none;stroke:#59595A;stroke-width:4.1349;stroke-miterlimit:10;}
	.st24{fill:none;stroke:#59595A;stroke-width:3.9798;stroke-miterlimit:10;}
	.st25{fill:none;stroke:#58595B;stroke-width:5;stroke-miterlimit:10;}
	.st26{fill:none;stroke:#58595B;stroke-width:5;stroke-linejoin:round;stroke-miterlimit:10;}
	.st27{fill:none;stroke:#58595B;stroke-width:5;stroke-linecap:round;stroke-linejoin:round;stroke-miterlimit:10;}
	.st28{fill:none;stroke:#59595B;stroke-width:4.2054;stroke-linecap:round;stroke-linejoin:round;stroke-miterlimit:10;}
	.st29{fill:none;stroke:#59595B;stroke-width:5;stroke-miterlimit:10;}
	.st30{fill:#EDECEC;stroke:#59595B;stroke-width:5;stroke-linecap:round;stroke-linejoin:round;stroke-miterlimit:10;}
	.st31{fill:#EDEDED;stroke:#59595A;stroke-width:5;stroke-miterlimit:10;}
	.st32{fill:#EDEDED;stroke:#59595B;stroke-width:5;stroke-linecap:round;stroke-linejoin:round;stroke-miterlimit:10;}
	.st33{fill:none;stroke:#59595A;stroke-width:5;stroke-linecap:round;stroke-linejoin:round;stroke-miterlimit:10;}
	.st34{fill:#58595B;}
	.st35{fill:#59595A;stroke:#EDEDED;stroke-width:3;stroke-miterlimit:10;}
	.st36{fill:#59595A;stroke:#EDEDED;stroke-miterlimit:10;}
	.st37{fill:#EFEFEF;stroke:#59595A;stroke-width:5;stroke-linecap:round;stroke-miterlimit:10;}
	.st38{fill:#EDEDED;stroke:#59595A;stroke-width:5;stroke-linecap:round;stroke-linejoin:round;stroke-miterlimit:10;}
	.st39{fill-rule:evenodd;clip-rule:evenodd;fill:#59595B;}
	
		.st40{fill-rule:evenodd;clip-rule:evenodd;fill:none;stroke:#59595B;stroke-width:5;stroke-linecap:round;stroke-linejoin:round;stroke-miterlimit:10;}
	.st41{fill:none;stroke:#5A5B5C;stroke-width:4.1457;stroke-linejoin:round;stroke-miterlimit:10;}
	.st42{fill:none;stroke:#5A5B5B;stroke-width:4.539;stroke-miterlimit:10;}
	.st43{fill:none;stroke:#5A5B5B;stroke-width:4.1349;stroke-miterlimit:10;}
	.st44{fill:none;stroke:#5A5B5B;stroke-width:3.9798;stroke-miterlimit:10;}
	.st45{fill:none;stroke:#5A5B5C;stroke-width:4;stroke-linecap:round;stroke-linejoin:round;stroke-miterlimit:10;}
	.st46{fill:none;stroke:#595A5C;stroke-width:5;stroke-linecap:round;stroke-linejoin:round;stroke-miterlimit:10;}
	.st47{fill:#5A5B5C;}
	.st48{fill:none;stroke:#595A5C;stroke-width:5;stroke-linejoin:round;stroke-miterlimit:10;}
	.st49{fill:none;stroke:#5A5B5B;stroke-width:5;stroke-linecap:round;stroke-miterlimit:10;}
	.st50{fill:#5A5B5B;}
	.st51{fill:#5A5B5C;stroke:#5A5B5C;stroke-miterlimit:10;}
	.st52{fill:#595A5C;}
	.st53{fill:#EDECED;stroke:#5A5B5B;stroke-width:5;stroke-miterlimit:10;}
	.st54{fill:#FFFFFF;stroke:#5A5B5B;stroke-width:5;stroke-miterlimit:10;}
	.st55{fill:#FFFFFF;stroke:#5A5B5C;stroke-width:5;stroke-linecap:round;stroke-linejoin:round;stroke-miterlimit:10;}
	.st56{fill:#FFFFFF;stroke:#59595B;stroke-width:5;stroke-linecap:round;stroke-linejoin:round;stroke-miterlimit:10;}
	.st57{fill:#FFFFFF;stroke:#59595A;stroke-width:5;stroke-linecap:round;stroke-linejoin:round;stroke-miterlimit:10;}
	.st58{fill:#FFFFFF;stroke:#59595A;stroke-width:5;stroke-miterlimit:10;}
	.st59{fill:none;stroke:#59595B;stroke-width:3.8573;stroke-linejoin:round;stroke-miterlimit:10;}
	.st60{fill:#EDEDED;stroke:#59595B;stroke-width:5;stroke-miterlimit:10;}
	.st61{fill:none;stroke:#59595B;stroke-width:5;stroke-linecap:round;stroke-miterlimit:10;}
	.st62{fill:#59595B;stroke:#59595A;stroke-width:5;stroke-linecap:round;stroke-linejoin:round;stroke-miterlimit:10;}
	.st63{fill:#FFFFFF;stroke:#59595B;stroke-width:5;stroke-miterlimit:10;}
	.st64{fill:#EAEAEA;stroke:#59595A;stroke-width:5;stroke-linecap:round;stroke-linejoin:round;stroke-miterlimit:10;}
	.st65{fill:#EAEAEA;stroke:#59595A;stroke-width:5;stroke-linecap:round;stroke-miterlimit:10;}
</style>
<g id="Background">
</g>
<g id="_x23_Tower_x5F_Bridge">
</g>
<g id="_x23_Washington_x5F_Mountain">
</g>
<g id="_x23_London_x5F_Eye">
</g>
<g id="_x23_Eiffel_x5F_Tower">
	<g id="New_Symbol">
	</g>
	<g>
		<line class="st42" x1="474.2" y1="300.8" x2="0" y2="300.8"/>
		<line class="st43" x1="427.3" y1="310.7" x2="33.7" y2="310.7"/>
		<polyline class="st11" points="376.4,251.8 391,262.9 415.6,298.6 		"/>
		<path class="st11" d="M25,299.2c0,0,38.1-26.3,40.6-30.6c2.5-4.3,5.8-34.4,20.1-42.3s22.5-11.5,22.5-11.5l2.5-41l16.2,5l13.1,22.4
			l6.9,4.3l10.6-25.1h127.4l4.4,15.8l8.7,4.3h4.1l3.5-0.7l7.5,7.9c0,0-10.7,5,4.2,12.9s6.9,17.2,15,17.9c8.1,0.7,1.2,2.2,8.1,0.7
			c6.9-1.4,6.9-1.4,6.9-1.4l13.7-7.9l2,4"/>
		<polygon class="st10" points="365.7,192 373.7,192 374.4,199.7 365,199.7 		"/>
		<polygon class="st10" points="365.7,199.7 373.7,199.7 374.4,207.4 365,207.4 		"/>
		<polygon class="st10" points="365.7,207.4 373.7,207.4 374.4,215.1 365,215.1 		"/>
		<polygon class="st10" points="365.7,215.1 373.7,215.1 374.4,222.8 365,222.8 		"/>
		<polygon class="st10" points="365.7,222.8 373.7,222.8 374.4,230.5 365,230.5 		"/>
		<polygon class="st10" points="365.7,230.5 373.7,230.5 374.4,238.2 365,238.2 		"/>
		<polygon class="st10" points="365.7,238.2 373.7,238.2 374.4,245.9 365,245.9 		"/>
		<polygon class="st10" points="365.7,245.9 373.7,245.9 374.4,253.6 365,253.6 		"/>
		<polygon class="st10" points="365.7,253.6 373.7,253.6 374.4,261.3 365,261.3 		"/>
		<polygon class="st10" points="365.7,261.3 373.7,261.3 374.4,269 365,269 		"/>
		<polygon class="st10" points="365.7,269 373.7,269 374.4,276.7 365,276.7 		"/>
		<polygon class="st10" points="365.7,276.7 373.7,276.7 374.4,284.4 365,284.4 		"/>
		<polygon class="st10" points="365.7,284.4 373.7,284.4 374.4,292.1 365,292.1 		"/>
		<polygon class="st10" points="365.7,292.1 373.7,292.1 374.4,299.8 365,299.8 		"/>
		<g>
			<path class="st54" d="M370,188.5l-34.1-53.4C335.9,135.1,384.4,137.2,370,188.5z"/>
			<line class="st54" x1="367.1" y1="173.9" x2="358.9" y2="171.1"/>
			<line class="st54" x1="364.9" y1="163.9" x2="352.7" y2="160.4"/>
			<line class="st54" x1="357.5" y1="153.2" x2="345.5" y2="150.2"/>
		</g>
		<g>
			<path class="st54" d="M368.7,189l-59.5,21.6C309.1,210.5,321.7,163.7,368.7,189z"/>
			<line class="st54" x1="353.8" y1="188.6" x2="349.2" y2="196"/>
			<line class="st54" x1="343.5" y1="188.6" x2="337.4" y2="199.7"/>
			<line class="st54" x1="331.4" y1="193.4" x2="325.9" y2="204.5"/>
		</g>
		<g>
			<path class="st54" d="M369.2,189.9l-55.6-30.3C313.5,159.7,356.9,138,369.2,189.9z"/>
			<line class="st54" x1="359.6" y1="178.6" x2="351" y2="180.1"/>
			<line class="st54" x1="352.8" y1="170.9" x2="340.4" y2="173.7"/>
			<line class="st54" x1="341.1" y1="165.1" x2="329.2" y2="168.2"/>
		</g>
		<g>
			<path class="st54" d="M369.1,188.3l59.5,21.6C428.7,209.9,416.1,163.1,369.1,188.3z"/>
			<line class="st54" x1="384" y1="187.9" x2="388.6" y2="195.4"/>
			<line class="st54" x1="394.3" y1="187.9" x2="400.4" y2="199.1"/>
			<line class="st54" x1="406.4" y1="192.8" x2="411.9" y2="203.8"/>
		</g>
		<g>
			<path class="st54" d="M368.6,189.3l55.6-30.3C424.3,159,380.9,137.4,368.6,189.3z"/>
			<line class="st54" x1="378.2" y1="177.9" x2="386.8" y2="179.4"/>
			<line class="st54" x1="385" y1="170.2" x2="397.4" y2="173.1"/>
			<line class="st54" x1="396.7" y1="164.4" x2="408.6" y2="167.5"/>
		</g>
		<g>
			<path class="st7" d="M367.8,53.8c14.5-8.5,24.3-2,25.5,10.2c1.2,12.2-13.3,14.7-13.3,14.7h-61.3c0,0-12.6-3.7-11.3-14.7
				c1.6-14.1,15.2-14.1,20-7"/>
			<path class="st7" d="M323.1,53.3c-5.9-7,5.9-23.2,19.4-14.2"/>
			<path class="st7" d="M340.8,44.7c0,0,5.7-17.9,22.5-13.6c14.5,3.7,12.5,18.9,12.5,18.9"/>
		</g>
		<g>
			<path class="st7" d="M214.5,101.7c5.7-6,15.6-1,16,7c0.4,8-8,10.3-8,10.3h-30c0,0-8.3-2.7-6.7-11.3c1.7-8.7,12-7,12.7-5.3"/>
			<path class="st7" d="M221.1,99.1c0,0-1.5-11.4-13.1-10.4c-11.6,1-11.1,12.7-11.1,12.7"/>
		</g>
		<g>
			<path class="st7" d="M93.9,21.3c-8.2-8.6-22.5-1.4-23,10.1s11.5,14.9,11.5,14.9h43.2c0,0,12-3.8,9.6-16.3s-17.3-10.1-18.2-7.7"/>
			<path class="st7" d="M84.3,17.5c0,0,2.2-16.3,18.9-14.9s16,18.3,16,18.3"/>
		</g>
	</g>
</g>
<g id="_x23_Forbidden_x5F_City">
</g>
<g id="_x23_Sydney_x5F_Opera_x5F_House">
</g>
<g id="_x23_Space_x5F_Needle">
</g>
<g id="_x23_Pyramid">
</g>
<g id="_x23_The_x5F_Pantheon">
</g>
<g id="_x23_Emirates_x5F_Towers">
</g>
<g id="_x23_China_x5F_wall">
	<g id="_x23_Empire_x5F_State_x5F_Building">
	</g>
</g>
</svg>
