<?xml version="1.0" encoding="utf-8"?>
<!-- Generator: Adobe Illustrator 19.1.0, SVG Export Plug-In . SVG Version: 6.00 Build 0)  -->
<svg version="1.1" xmlns="http://www.w3.org/2000/svg" xmlns:xlink="http://www.w3.org/1999/xlink" x="0px" y="0px"
	 viewBox="0 0 491.9 447.4" style="enable-background:new 0 0 491.9 447.4;" xml:space="preserve">
<style type="text/css">
	.st0{fill:#EDEDED;}
	.st1{fill:#59595A;}
	.st2{fill:none;stroke:#59595B;stroke-width:5;stroke-linejoin:round;stroke-miterlimit:10;}
	.st3{fill:none;stroke:#59595B;stroke-width:4.1457;stroke-linejoin:round;stroke-miterlimit:10;}
	.st4{fill:#F6F5F5;}
	.st5{fill:#59595B;}
	.st6{fill:none;stroke:#59595B;stroke-width:4.0874;stroke-linecap:round;stroke-linejoin:round;stroke-miterlimit:10;}
	.st7{fill:none;stroke:#59595B;stroke-width:5;stroke-linecap:round;stroke-linejoin:round;stroke-miterlimit:10;}
	.st8{fill:#EFEFEF;stroke:#59595B;stroke-width:5;stroke-linecap:round;stroke-linejoin:round;stroke-miterlimit:10;}
	.st9{fill:#EDECED;}
	.st10{fill:none;stroke:#5A5B5B;stroke-width:5;stroke-miterlimit:10;}
	.st11{fill:none;stroke:#5A5B5C;stroke-width:5;stroke-linecap:round;stroke-linejoin:round;stroke-miterlimit:10;}
	.st12{fill:#EDECED;stroke:#5A5B5C;stroke-width:5;stroke-linecap:round;stroke-linejoin:round;stroke-miterlimit:10;}
	.st13{fill:#5A5B5C;stroke:#5A5B5C;stroke-width:5;stroke-linecap:round;stroke-linejoin:round;stroke-miterlimit:10;}
	.st14{fill:none;stroke:#5A5B5B;stroke-width:5;stroke-linecap:round;stroke-linejoin:round;stroke-miterlimit:10;}
	.st15{fill:#F0EFEF;stroke:#5A5B5B;stroke-width:5;stroke-linecap:round;stroke-linejoin:round;stroke-miterlimit:10;}
	.st16{fill:#E8E8E8;stroke:#5A5B5C;stroke-width:5;stroke-linecap:round;stroke-linejoin:round;stroke-miterlimit:10;}
	.st17{fill:#FFFFFF;stroke:#5A5B5B;stroke-width:5;stroke-linecap:round;stroke-linejoin:round;stroke-miterlimit:10;}
	.st18{fill:#EFEFEF;stroke:#59595A;stroke-width:5;stroke-linecap:round;stroke-linejoin:round;stroke-miterlimit:10;}
	.st19{fill:none;stroke:#59595A;stroke-width:5;stroke-miterlimit:10;}
	.st20{fill:none;stroke:#59595A;stroke-width:5;stroke-linecap:round;stroke-miterlimit:10;}
	.st21{fill:none;stroke:#59595A;stroke-width:5;stroke-linejoin:round;stroke-miterlimit:10;}
	.st22{fill:none;stroke:#59595A;stroke-width:4.539;stroke-miterlimit:10;}
	.st23{fill:none;stroke:#59595A;stroke-width:4.1349;stroke-miterlimit:10;}
	.st24{fill:none;stroke:#59595A;stroke-width:3.9798;stroke-miterlimit:10;}
	.st25{fill:none;stroke:#58595B;stroke-width:5;stroke-miterlimit:10;}
	.st26{fill:none;stroke:#58595B;stroke-width:5;stroke-linejoin:round;stroke-miterlimit:10;}
	.st27{fill:none;stroke:#58595B;stroke-width:5;stroke-linecap:round;stroke-linejoin:round;stroke-miterlimit:10;}
	.st28{fill:none;stroke:#59595B;stroke-width:4.2054;stroke-linecap:round;stroke-linejoin:round;stroke-miterlimit:10;}
	.st29{fill:none;stroke:#59595B;stroke-width:5;stroke-miterlimit:10;}
	.st30{fill:#EDECEC;stroke:#59595B;stroke-width:5;stroke-linecap:round;stroke-linejoin:round;stroke-miterlimit:10;}
	.st31{fill:#EDEDED;stroke:#59595A;stroke-width:5;stroke-miterlimit:10;}
	.st32{fill:#EDEDED;stroke:#59595B;stroke-width:5;stroke-linecap:round;stroke-linejoin:round;stroke-miterlimit:10;}
	.st33{fill:none;stroke:#59595A;stroke-width:5;stroke-linecap:round;stroke-linejoin:round;stroke-miterlimit:10;}
	.st34{fill:#58595B;}
	.st35{fill:#59595A;stroke:#EDEDED;stroke-width:3;stroke-miterlimit:10;}
	.st36{fill:#59595A;stroke:#EDEDED;stroke-miterlimit:10;}
	.st37{fill:#EFEFEF;stroke:#59595A;stroke-width:5;stroke-linecap:round;stroke-miterlimit:10;}
	.st38{fill:#EDEDED;stroke:#59595A;stroke-width:5;stroke-linecap:round;stroke-linejoin:round;stroke-miterlimit:10;}
	.st39{fill-rule:evenodd;clip-rule:evenodd;fill:#59595B;}
	
		.st40{fill-rule:evenodd;clip-rule:evenodd;fill:none;stroke:#59595B;stroke-width:5;stroke-linecap:round;stroke-linejoin:round;stroke-miterlimit:10;}
	.st41{fill:none;stroke:#5A5B5C;stroke-width:4.1457;stroke-linejoin:round;stroke-miterlimit:10;}
	.st42{fill:none;stroke:#5A5B5B;stroke-width:4.539;stroke-miterlimit:10;}
	.st43{fill:none;stroke:#5A5B5B;stroke-width:4.1349;stroke-miterlimit:10;}
	.st44{fill:none;stroke:#5A5B5B;stroke-width:3.9798;stroke-miterlimit:10;}
	.st45{fill:none;stroke:#5A5B5C;stroke-width:4;stroke-linecap:round;stroke-linejoin:round;stroke-miterlimit:10;}
	.st46{fill:none;stroke:#595A5C;stroke-width:5;stroke-linecap:round;stroke-linejoin:round;stroke-miterlimit:10;}
	.st47{fill:#5A5B5C;}
	.st48{fill:none;stroke:#595A5C;stroke-width:5;stroke-linejoin:round;stroke-miterlimit:10;}
	.st49{fill:none;stroke:#5A5B5B;stroke-width:5;stroke-linecap:round;stroke-miterlimit:10;}
	.st50{fill:#5A5B5B;}
	.st51{fill:#5A5B5C;stroke:#5A5B5C;stroke-miterlimit:10;}
	.st52{fill:#595A5C;}
	.st53{fill:#EDECED;stroke:#5A5B5B;stroke-width:5;stroke-miterlimit:10;}
	.st54{fill:#FFFFFF;stroke:#5A5B5B;stroke-width:5;stroke-miterlimit:10;}
	.st55{fill:#FFFFFF;stroke:#5A5B5C;stroke-width:5;stroke-linecap:round;stroke-linejoin:round;stroke-miterlimit:10;}
	.st56{fill:#FFFFFF;stroke:#59595B;stroke-width:5;stroke-linecap:round;stroke-linejoin:round;stroke-miterlimit:10;}
	.st57{fill:#FFFFFF;stroke:#59595A;stroke-width:5;stroke-linecap:round;stroke-linejoin:round;stroke-miterlimit:10;}
	.st58{fill:#FFFFFF;stroke:#59595A;stroke-width:5;stroke-miterlimit:10;}
	.st59{fill:none;stroke:#59595B;stroke-width:3.8573;stroke-linejoin:round;stroke-miterlimit:10;}
	.st60{fill:#EDEDED;stroke:#59595B;stroke-width:5;stroke-miterlimit:10;}
	.st61{fill:none;stroke:#59595B;stroke-width:5;stroke-linecap:round;stroke-miterlimit:10;}
	.st62{fill:#59595B;stroke:#59595A;stroke-width:5;stroke-linecap:round;stroke-linejoin:round;stroke-miterlimit:10;}
	.st63{fill:#FFFFFF;stroke:#59595B;stroke-width:5;stroke-miterlimit:10;}
	.st64{fill:#EAEAEA;stroke:#59595A;stroke-width:5;stroke-linecap:round;stroke-linejoin:round;stroke-miterlimit:10;}
	.st65{fill:#EAEAEA;stroke:#59595A;stroke-width:5;stroke-linecap:round;stroke-miterlimit:10;}
</style>
<g id="Background">
</g>
<g id="_x23_Tower_x5F_Bridge">
</g>
<g id="_x23_Washington_x5F_Mountain">
</g>
<g id="_x23_London_x5F_Eye">
</g>
<g id="_x23_Eiffel_x5F_Tower">
	<g id="New_Symbol">
	</g>
</g>
<g id="_x23_Forbidden_x5F_City">
</g>
<g id="_x23_Sydney_x5F_Opera_x5F_House">
</g>
<g id="_x23_Space_x5F_Needle">
</g>
<g id="_x23_Pyramid">
</g>
<g id="_x23_The_x5F_Pantheon">
</g>
<g id="_x23_Emirates_x5F_Towers">
</g>
<g id="_x23_China_x5F_wall">
	<g id="_x23_Empire_x5F_State_x5F_Building">
	</g>
	<g>
		<g>
			<line class="st19" x1="478.4" y1="435" x2="4.2" y2="435"/>
			<line class="st19" x1="431.5" y1="444.9" x2="37.9" y2="444.9"/>
		</g>
		<g>
			<path class="st7" d="M437.1,64.3c14.5-8.5,24.3-2,25.5,10.2c1.2,12.2-13.3,14.7-13.3,14.7h-61.3c0,0-12.6-3.7-11.3-14.7
				c1.6-14.1,15.2-14.1,20-7"/>
			<path class="st7" d="M392.5,63.7c-5.9-7,5.9-23.2,19.4-14.2"/>
			<path class="st7" d="M410.1,55.1c0,0,5.7-17.9,22.5-13.6c14.5,3.7,12.5,18.9,12.5,18.9"/>
		</g>
		<g>
			<path class="st7" d="M51.9,28.6c5.7-6,15.6-1,16,7c0.4,8-8,10.3-8,10.3h-30c0,0-8.3-2.7-6.7-11.3s12-7,12.7-5.3"/>
			<path class="st7" d="M58.6,25.9c0,0-1.5-11.4-13.1-10.4S34.3,28.3,34.3,28.3"/>
		</g>
		<g>
			<path class="st7" d="M254.2,104.1c-8.2-8.6-22.5-1.4-23,10.1c-0.6,11.5,11.5,14.9,11.5,14.9h43.2c0,0,12-3.8,9.6-16.3
				c-2.4-12.5-17.3-10.1-18.2-7.7"/>
			<path class="st7" d="M244.6,100.3c0,0,2.2-16.3,18.9-14.9c16.6,1.4,16,18.3,16,18.3"/>
		</g>
		<g>
			<polygon class="st7" points="73.1,435.2 54.8,435.2 57.3,412.9 70.7,412.9 			"/>
			<line class="st7" x1="64" y1="406.6" x2="64" y2="412.5"/>
			<polygon class="st7" points="196.2,435.2 177.9,435.2 180.3,412.9 193.7,412.9 			"/>
			<line class="st7" x1="187.2" y1="406.6" x2="187.2" y2="412.5"/>
			<polygon class="st7" points="319.2,435.2 300.9,435.2 303.4,412.9 316.8,412.9 			"/>
			<line class="st7" x1="310.1" y1="406.6" x2="310.1" y2="412.5"/>
			<polygon class="st7" points="442.3,435.2 424,435.2 426.4,412.9 439.8,412.9 			"/>
			<line class="st7" x1="433.1" y1="406.6" x2="433.1" y2="412.5"/>
			<line class="st7" x1="249.5" y1="331.5" x2="249.4" y2="403.6"/>
			<line class="st7" x1="412.9" y1="362.2" x2="412.9" y2="403.6"/>
			<line class="st7" x1="86.7" y1="361.5" x2="86.6" y2="403.2"/>
			<line class="st7" x1="302.3" y1="341.4" x2="302.3" y2="403.6"/>
			<line class="st7" x1="357.7" y1="351.8" x2="357.7" y2="403.6"/>
			<line class="st7" x1="194.9" y1="341.1" x2="194.9" y2="402.7"/>
			<line class="st7" x1="139.5" y1="351.5" x2="139.5" y2="402.7"/>
			<line class="st7" x1="194.7" y1="342" x2="249.4" y2="403.6"/>
			<line class="st7" x1="302.3" y1="341.4" x2="249.4" y2="403.6"/>
			<line class="st7" x1="357.7" y1="351.8" x2="302.3" y2="403.6"/>
			<line class="st7" x1="412.9" y1="362.2" x2="357.7" y2="403.6"/>
			<line class="st7" x1="139.4" y1="352.4" x2="194.7" y2="403.6"/>
			<line class="st7" x1="86.7" y1="361.5" x2="139.4" y2="403.6"/>
			<line class="st7" x1="2.5" y1="404.6" x2="489.4" y2="404.6"/>
			<line class="st7" x1="86.7" y1="360.6" x2="39.9" y2="403.8"/>
			<line class="st7" x1="86.7" y1="360.6" x2="249.4" y2="330.7"/>
			<line class="st7" x1="249.5" y1="330.7" x2="412.9" y2="361.4"/>
			<line class="st7" x1="412.9" y1="361.4" x2="465.5" y2="403.8"/>
		</g>
		<polygon class="st7" points="181.1,435 67.9,435 67.9,118.5 124.5,54.8 181.1,118.5 		"/>
		<line class="st7" x1="69.4" y1="222.4" x2="180.4" y2="222.4"/>
		<line class="st7" x1="69.4" y1="215.6" x2="180.4" y2="215.6"/>
		<line class="st7" x1="69.4" y1="208.8" x2="180.4" y2="208.8"/>
		<line class="st7" x1="69.4" y1="202" x2="180.4" y2="202"/>
		<line class="st7" x1="69.4" y1="195.3" x2="180.4" y2="195.3"/>
		<line class="st7" x1="69.4" y1="188.5" x2="180.4" y2="188.5"/>
		<line class="st7" x1="69.4" y1="181.7" x2="180.4" y2="181.7"/>
		<line class="st7" x1="69.4" y1="174.9" x2="180.4" y2="174.9"/>
		<line class="st7" x1="69.4" y1="168.1" x2="180.4" y2="168.1"/>
		<line class="st7" x1="69.4" y1="161.4" x2="180.4" y2="161.4"/>
		<line class="st7" x1="69.4" y1="154.6" x2="180.4" y2="154.6"/>
		<line class="st7" x1="69.4" y1="147.8" x2="180.4" y2="147.8"/>
		<line class="st7" x1="69.4" y1="141" x2="180.4" y2="141"/>
		<line class="st7" x1="69.4" y1="134.3" x2="180.4" y2="134.3"/>
		<line class="st7" x1="69.4" y1="127.5" x2="180.4" y2="127.5"/>
		<line class="st7" x1="69.4" y1="120.7" x2="180.4" y2="120.7"/>
		<line class="st7" x1="72.7" y1="113.9" x2="175.8" y2="113.9"/>
		<line class="st7" x1="79.7" y1="107.1" x2="169.9" y2="107.1"/>
		<line class="st7" x1="84.7" y1="100.4" x2="163.7" y2="100.4"/>
		<line class="st7" x1="91.5" y1="93.6" x2="157.1" y2="93.6"/>
		<line class="st7" x1="97.9" y1="86.8" x2="151.9" y2="86.8"/>
		<line class="st7" x1="103.6" y1="80" x2="145.4" y2="80"/>
		<rect x="117.5" y="2.5" class="st56" width="14.1" height="432.5"/>
		<rect x="110.4" y="39.4" class="st56" width="7.1" height="395.6"/>
		<rect x="131.6" y="39.4" class="st56" width="7.1" height="395.6"/>
		<rect x="131.6" y="141.9" class="st56" width="16.5" height="293.1"/>
		<rect x="148.1" y="185.6" class="st56" width="16.5" height="249.4"/>
		<rect x="101.3" y="141.9" class="st56" width="16.3" height="293.1"/>
		<rect x="84.1" y="185.6" class="st56" width="16.3" height="249.4"/>
		<rect x="67.9" y="229.4" class="st56" width="16.3" height="205.6"/>
		<rect x="164.6" y="229.4" class="st56" width="16.5" height="205.6"/>
		<line class="st7" x1="139.9" y1="181.7" x2="139.9" y2="424"/>
		<line class="st7" x1="156.4" y1="195.3" x2="156.4" y2="424"/>
		<line class="st7" x1="92.3" y1="195.3" x2="92.3" y2="424"/>
		<line class="st7" x1="172.9" y1="244.9" x2="172.9" y2="424"/>
		<line class="st7" x1="76" y1="244.9" x2="76" y2="424"/>
		<line class="st7" x1="109.4" y1="181.7" x2="109.4" y2="424"/>
	</g>
</g>
</svg>
