<?xml version="1.0" encoding="utf-8"?>
<!-- Generator: Adobe Illustrator 19.1.0, SVG Export Plug-In . SVG Version: 6.00 Build 0)  -->
<svg version="1.1" xmlns="http://www.w3.org/2000/svg" xmlns:xlink="http://www.w3.org/1999/xlink" x="0px" y="0px"
	 viewBox="0 0 474.2 396.8" style="enable-background:new 0 0 474.2 396.8;" xml:space="preserve">
<style type="text/css">
	.st0{fill:#EDEDED;}
	.st1{fill:#59595A;}
	.st2{fill:none;stroke:#59595B;stroke-width:5;stroke-linejoin:round;stroke-miterlimit:10;}
	.st3{fill:none;stroke:#59595B;stroke-width:4.1457;stroke-linejoin:round;stroke-miterlimit:10;}
	.st4{fill:#F6F5F5;}
	.st5{fill:#59595B;}
	.st6{fill:none;stroke:#59595B;stroke-width:4.0874;stroke-linecap:round;stroke-linejoin:round;stroke-miterlimit:10;}
	.st7{fill:none;stroke:#59595B;stroke-width:5;stroke-linecap:round;stroke-linejoin:round;stroke-miterlimit:10;}
	.st8{fill:#EFEFEF;stroke:#59595B;stroke-width:5;stroke-linecap:round;stroke-linejoin:round;stroke-miterlimit:10;}
	.st9{fill:#EDECED;}
	.st10{fill:none;stroke:#5A5B5B;stroke-width:5;stroke-miterlimit:10;}
	.st11{fill:none;stroke:#5A5B5C;stroke-width:5;stroke-linecap:round;stroke-linejoin:round;stroke-miterlimit:10;}
	.st12{fill:#EDECED;stroke:#5A5B5C;stroke-width:5;stroke-linecap:round;stroke-linejoin:round;stroke-miterlimit:10;}
	.st13{fill:#5A5B5C;stroke:#5A5B5C;stroke-width:5;stroke-linecap:round;stroke-linejoin:round;stroke-miterlimit:10;}
	.st14{fill:none;stroke:#5A5B5B;stroke-width:5;stroke-linecap:round;stroke-linejoin:round;stroke-miterlimit:10;}
	.st15{fill:#F0EFEF;stroke:#5A5B5B;stroke-width:5;stroke-linecap:round;stroke-linejoin:round;stroke-miterlimit:10;}
	.st16{fill:#E8E8E8;stroke:#5A5B5C;stroke-width:5;stroke-linecap:round;stroke-linejoin:round;stroke-miterlimit:10;}
	.st17{fill:#FFFFFF;stroke:#5A5B5B;stroke-width:5;stroke-linecap:round;stroke-linejoin:round;stroke-miterlimit:10;}
	.st18{fill:#EFEFEF;stroke:#59595A;stroke-width:5;stroke-linecap:round;stroke-linejoin:round;stroke-miterlimit:10;}
	.st19{fill:none;stroke:#59595A;stroke-width:5;stroke-miterlimit:10;}
	.st20{fill:none;stroke:#59595A;stroke-width:5;stroke-linecap:round;stroke-miterlimit:10;}
	.st21{fill:none;stroke:#59595A;stroke-width:5;stroke-linejoin:round;stroke-miterlimit:10;}
	.st22{fill:none;stroke:#59595A;stroke-width:4.539;stroke-miterlimit:10;}
	.st23{fill:none;stroke:#59595A;stroke-width:4.1349;stroke-miterlimit:10;}
	.st24{fill:none;stroke:#59595A;stroke-width:3.9798;stroke-miterlimit:10;}
	.st25{fill:none;stroke:#58595B;stroke-width:5;stroke-miterlimit:10;}
	.st26{fill:none;stroke:#58595B;stroke-width:5;stroke-linejoin:round;stroke-miterlimit:10;}
	.st27{fill:none;stroke:#58595B;stroke-width:5;stroke-linecap:round;stroke-linejoin:round;stroke-miterlimit:10;}
	.st28{fill:none;stroke:#59595B;stroke-width:4.2054;stroke-linecap:round;stroke-linejoin:round;stroke-miterlimit:10;}
	.st29{fill:none;stroke:#59595B;stroke-width:5;stroke-miterlimit:10;}
	.st30{fill:#EDECEC;stroke:#59595B;stroke-width:5;stroke-linecap:round;stroke-linejoin:round;stroke-miterlimit:10;}
	.st31{fill:#EDEDED;stroke:#59595A;stroke-width:5;stroke-miterlimit:10;}
	.st32{fill:#EDEDED;stroke:#59595B;stroke-width:5;stroke-linecap:round;stroke-linejoin:round;stroke-miterlimit:10;}
	.st33{fill:none;stroke:#59595A;stroke-width:5;stroke-linecap:round;stroke-linejoin:round;stroke-miterlimit:10;}
	.st34{fill:#58595B;}
	.st35{fill:#59595A;stroke:#EDEDED;stroke-width:3;stroke-miterlimit:10;}
	.st36{fill:#59595A;stroke:#EDEDED;stroke-miterlimit:10;}
	.st37{fill:#EFEFEF;stroke:#59595A;stroke-width:5;stroke-linecap:round;stroke-miterlimit:10;}
	.st38{fill:#EDEDED;stroke:#59595A;stroke-width:5;stroke-linecap:round;stroke-linejoin:round;stroke-miterlimit:10;}
	.st39{fill-rule:evenodd;clip-rule:evenodd;fill:#59595B;}
	
		.st40{fill-rule:evenodd;clip-rule:evenodd;fill:none;stroke:#59595B;stroke-width:5;stroke-linecap:round;stroke-linejoin:round;stroke-miterlimit:10;}
	.st41{fill:none;stroke:#5A5B5C;stroke-width:4.1457;stroke-linejoin:round;stroke-miterlimit:10;}
	.st42{fill:none;stroke:#5A5B5B;stroke-width:4.539;stroke-miterlimit:10;}
	.st43{fill:none;stroke:#5A5B5B;stroke-width:4.1349;stroke-miterlimit:10;}
	.st44{fill:none;stroke:#5A5B5B;stroke-width:3.9798;stroke-miterlimit:10;}
	.st45{fill:none;stroke:#5A5B5C;stroke-width:4;stroke-linecap:round;stroke-linejoin:round;stroke-miterlimit:10;}
	.st46{fill:none;stroke:#595A5C;stroke-width:5;stroke-linecap:round;stroke-linejoin:round;stroke-miterlimit:10;}
	.st47{fill:#5A5B5C;}
	.st48{fill:none;stroke:#595A5C;stroke-width:5;stroke-linejoin:round;stroke-miterlimit:10;}
	.st49{fill:none;stroke:#5A5B5B;stroke-width:5;stroke-linecap:round;stroke-miterlimit:10;}
	.st50{fill:#5A5B5B;}
	.st51{fill:#5A5B5C;stroke:#5A5B5C;stroke-miterlimit:10;}
	.st52{fill:#595A5C;}
	.st53{fill:#EDECED;stroke:#5A5B5B;stroke-width:5;stroke-miterlimit:10;}
	.st54{fill:#FFFFFF;stroke:#5A5B5B;stroke-width:5;stroke-miterlimit:10;}
	.st55{fill:#FFFFFF;stroke:#5A5B5C;stroke-width:5;stroke-linecap:round;stroke-linejoin:round;stroke-miterlimit:10;}
	.st56{fill:#FFFFFF;stroke:#59595B;stroke-width:5;stroke-linecap:round;stroke-linejoin:round;stroke-miterlimit:10;}
	.st57{fill:#FFFFFF;stroke:#59595A;stroke-width:5;stroke-linecap:round;stroke-linejoin:round;stroke-miterlimit:10;}
	.st58{fill:#FFFFFF;stroke:#59595A;stroke-width:5;stroke-miterlimit:10;}
	.st59{fill:none;stroke:#59595B;stroke-width:3.8573;stroke-linejoin:round;stroke-miterlimit:10;}
	.st60{fill:#EDEDED;stroke:#59595B;stroke-width:5;stroke-miterlimit:10;}
	.st61{fill:none;stroke:#59595B;stroke-width:5;stroke-linecap:round;stroke-miterlimit:10;}
	.st62{fill:#59595B;stroke:#59595A;stroke-width:5;stroke-linecap:round;stroke-linejoin:round;stroke-miterlimit:10;}
	.st63{fill:#FFFFFF;stroke:#59595B;stroke-width:5;stroke-miterlimit:10;}
	.st64{fill:#EAEAEA;stroke:#59595A;stroke-width:5;stroke-linecap:round;stroke-linejoin:round;stroke-miterlimit:10;}
	.st65{fill:#EAEAEA;stroke:#59595A;stroke-width:5;stroke-linecap:round;stroke-miterlimit:10;}
</style>
<g id="Background">
	<g>
		<g>
			<line class="st10" x1="474.2" y1="374.6" x2="0" y2="374.6"/>
		</g>
		<g>
			<path class="st11" d="M247.9,145.5c-2-12.2-3.3-21.6-4.1-31.9v0"/>
			<path class="st11" d="M320.5,352.8l-10.6-16.4c-18.5-30.4-35.8-77.7-48.1-124.4"/>
			<path class="st11" d="M186.7,212.5c-13.7,47.6-33.3,96.2-50.3,127.8l-7.7,12.1"/>
			<path class="st11" d="M204.1,113.7L204.1,113.7c0,10.2-1,20.6-2.8,32.7"/>
			<path class="st11" d="M243.5,112.7c0-17.4-4.2-47.5-19.7-47.5c-19.1-0.6-19.7,30-19.7,47.5"/>
		</g>
		<g>
			<path class="st11" d="M347.3,242.1L347.3,242.1c0,28.1-16.9,92.9-30.2,117.7l-8.1,15.1h95.6L394.5,358
				c-14.5-23.9-27.4-88-29.4-115.9v0"/>
			<path class="st11" d="M364.9,241.7c0-7.8-1.9-21.2-8.8-21.2c-8.5-0.3-8.8,13.4-8.8,21.2"/>
		</g>
		<path class="st16" d="M259.9,219H186c-2.8,0-5-2.3-5-5v-1.4c0-0.6,0.4-1,1-1h81.8c0.6,0,1,0.4,1,1v1.4
			C264.9,216.8,262.6,219,259.9,219z"/>
		<path class="st16" d="M262.1,229H180c-2.8,0-5-2.3-5-5v-1.4c0-0.6,0.4-1,1-1h90.1c0.6,0,1,0.4,1,1v1.4
			C267.1,226.8,264.8,229,262.1,229z"/>
		<path class="st16" d="M266.3,239h-90.6c-2.8,0-5-2.3-5-5v-1.4c0-0.6,0.4-1,1-1h98.6c0.6,0,1,0.4,1,1v1.4
			C271.3,236.8,269.1,239,266.3,239z"/>
		<path class="st16" d="M271.4,249H170.7c-2.8,0-5-2.3-5-5v-1.4c0-0.6,0.4-1,1-1h108.7c0.6,0,1,0.4,1,1v1.4
			C276.4,246.8,274.1,249,271.4,249z"/>
		<polyline class="st11" points="179.7,373.6 179.7,330.8 262.9,330.8 262.9,373.6 		"/>
		<polyline class="st11" points="183.7,327.9 183.7,321.3 259,321.3 259,327.9 		"/>
		<polyline class="st11" points="235.8,278 256.4,278 256.4,320.5 		"/>
		<polyline class="st11" points="186.2,320.5 186.2,278 206.8,278 		"/>
		<polyline class="st11" points="207,320.9 207,273.8 235.7,273.8 235.7,320.9 		"/>
		<rect x="217.3" y="284.5" class="st13" width="8.2" height="34.5"/>
		<rect x="243.9" y="288.1" class="st11" width="4.9" height="30.3"/>
		<rect x="194.3" y="288.1" class="st13" width="4.9" height="30.3"/>
		<g>
			<polyline class="st11" points="207.2,273.8 203.4,265.7 210.5,267.4 212.6,273.3 			"/>
			<polyline class="st11" points="235.5,273.8 239.3,264.7 232.1,267.4 230,273.3 			"/>
		</g>
		<polyline class="st11" points="210,265 206.7,258.5 235.7,258.5 232.5,265 		"/>
		<polygon class="st16" points="234.7,273.4 221.2,256.9 207.8,273.4 		"/>
		<polyline class="st16" points="231.7,256.4 221.2,235.9 210.8,256.4 		"/>
		<polyline class="st11" points="239.5,270 260.4,270 256.5,277.5 		"/>
		<polyline class="st11" points="203.7,270 182.8,270 186.7,277.5 		"/>
		<line class="st12" x1="221.2" y1="235.9" x2="221.2" y2="226.5"/>
		<g>
			<line class="st12" x1="186.8" y1="337.2" x2="186.8" y2="346.2"/>
			<line class="st12" x1="194.5" y1="337.2" x2="194.5" y2="346.2"/>
			<line class="st12" x1="202.2" y1="337.2" x2="202.2" y2="346.2"/>
			<line class="st12" x1="209.8" y1="337.2" x2="209.8" y2="346.2"/>
			<line class="st12" x1="217.5" y1="337.2" x2="217.5" y2="346.2"/>
			<line class="st12" x1="225.2" y1="337.2" x2="225.2" y2="346.2"/>
			<line class="st12" x1="232.8" y1="337.2" x2="232.8" y2="346.2"/>
			<line class="st12" x1="240.5" y1="337.2" x2="240.5" y2="346.2"/>
			<line class="st12" x1="248.2" y1="337.2" x2="248.2" y2="346.2"/>
			<line class="st12" x1="255.8" y1="337.2" x2="255.8" y2="346.2"/>
		</g>
		<line class="st11" x1="356.1" y1="220.5" x2="356.1" y2="204.8"/>
		<line class="st11" x1="327.7" y1="321.9" x2="385.4" y2="321.9"/>
		<line class="st11" x1="329.5" y1="315.2" x2="383.5" y2="315.2"/>
		<line class="st11" x1="331" y1="308.4" x2="382" y2="308.4"/>
		<line class="st11" x1="332.9" y1="301.7" x2="380.2" y2="301.7"/>
		<line class="st11" x1="336" y1="294.9" x2="377.1" y2="294.9"/>
		<line class="st11" x1="340.5" y1="270.4" x2="372.6" y2="270.4"/>
		<line class="st11" x1="341.6" y1="263.7" x2="371.4" y2="263.7"/>
		<line class="st11" x1="343.6" y1="256.9" x2="369.5" y2="256.9"/>
		<rect x="356.4" y="276.8" class="st11" width="0" height="16"/>
		<g>
			<path class="st11" d="M332.3,317c-7.1-20.8-12.6-50.4-13.6-65.4v0"/>
			<path class="st11" d="M306.2,251.6L306.2,251.6c0,13.2-4.3,36.8-10.6,57"/>
			<path class="st11" d="M318.5,251.3c0-5.5-1.3-14.9-6.2-14.9c-6-0.2-6.2,9.5-6.2,14.9"/>
		</g>
		<line class="st11" x1="312.3" y1="236.4" x2="312.3" y2="225.3"/>
		<line class="st11" x1="295.3" y1="302" x2="333" y2="302"/>
		<line class="st11" x1="294.6" y1="295.4" x2="330.6" y2="295.4"/>
		<line class="st11" x1="298.1" y1="288.9" x2="327.2" y2="288.9"/>
		<line class="st11" x1="301.3" y1="271.6" x2="324" y2="271.6"/>
		<line class="st11" x1="303.5" y1="265.1" x2="321.8" y2="265.1"/>
		<rect x="312.5" y="278.2" class="st11" width="0" height="9.3"/>
		<g>
			<path class="st11" d="M115.7,317c7.1-20.8,12.6-50.4,13.6-65.4v0"/>
			<path class="st11" d="M141.8,251.6L141.8,251.6c0,13.2,4.3,36.8,10.6,57"/>
			<path class="st11" d="M129.4,251.3c0-5.5,1.3-14.9,6.2-14.9c6-0.2,6.2,9.5,6.2,14.9"/>
		</g>
		<line class="st11" x1="135.6" y1="236.4" x2="135.6" y2="225.3"/>
		<line class="st11" x1="152.7" y1="302" x2="115" y2="302"/>
		<line class="st11" x1="153.3" y1="295.4" x2="117.3" y2="295.4"/>
		<line class="st11" x1="149.8" y1="288.9" x2="120.8" y2="288.9"/>
		<line class="st11" x1="146.7" y1="271.6" x2="124" y2="271.6"/>
		<line class="st11" x1="144.5" y1="265.1" x2="126.2" y2="265.1"/>
		<rect x="135.4" y="278.2" class="st11" width="0" height="9.3"/>
		<g>
			<path class="st11" d="M83,242.1L83,242.1c0,28.1-16.9,92.9-30.2,117.7l-8.1,15.1h97.6L130.2,358c-14.5-23.9-27.4-88-29.4-115.9v0
				"/>
			<path class="st11" d="M100.6,241.7c0-7.8-1.9-21.2-8.8-21.2c-8.5-0.3-8.8,13.4-8.8,21.2"/>
		</g>
		<line class="st11" x1="91.8" y1="220.5" x2="91.8" y2="204.8"/>
		<line class="st11" x1="63.4" y1="321.9" x2="121" y2="321.9"/>
		<line class="st11" x1="65.2" y1="315.2" x2="119.2" y2="315.2"/>
		<line class="st11" x1="66.7" y1="308.4" x2="117.7" y2="308.4"/>
		<line class="st11" x1="68.6" y1="301.7" x2="115.8" y2="301.7"/>
		<line class="st11" x1="71.7" y1="294.9" x2="112.8" y2="294.9"/>
		<line class="st11" x1="76.1" y1="270.4" x2="108.3" y2="270.4"/>
		<line class="st11" x1="77.3" y1="263.7" x2="107.1" y2="263.7"/>
		<line class="st11" x1="79.2" y1="256.9" x2="105.2" y2="256.9"/>
		<rect x="92" y="276.8" class="st11" width="0" height="16"/>
		<rect x="187.2" y="146.7" class="st11" width="73.7" height="64.5"/>
		<path class="st11" d="M218.4,209.8v-75.7c0-3.5,2.2-16.3,4.8-16.3h0c2.7,0,4.8,12.8,4.8,16.3v75.7"/>
		<path class="st11" d="M251,209.8v-75.7c0-3.5,2.2-16.3,4.8-16.3l0,0c2.7,0,4.8,12.8,4.8,16.3v75.7"/>
		<path class="st11" d="M196.7,209.8v-75.7c0-3.5-2.2-16.3-4.8-16.3l0,0c-2.7,0-4.8,12.8-4.8,16.3v75.7"/>
		<line class="st12" x1="235.7" y1="146.8" x2="235.7" y2="208.5"/>
		<line class="st12" x1="243.7" y1="146.8" x2="243.7" y2="208.5"/>
		<line class="st12" x1="203.5" y1="146.8" x2="203.5" y2="208.5"/>
		<line class="st12" x1="211.5" y1="146.8" x2="211.5" y2="208.5"/>
		<path class="st16" d="M191.9,113.7L191.9,113.7c-1.7,0-3-1.3-3-3v0c0-1.6,1.3-3,3-3l0,0c1.6,0,3,1.3,3,3v0
			C194.9,112.3,193.5,113.7,191.9,113.7z"/>
		<path class="st16" d="M223.4,113.7L223.4,113.7c-1.7,0-3-1.3-3-3v0c0-1.6,1.3-3,3-3l0,0c1.6,0,3,1.3,3,3v0
			C226.4,112.3,225,113.7,223.4,113.7z"/>
		<path class="st16" d="M255.9,113.7L255.9,113.7c-1.7,0-3-1.3-3-3v0c0-1.6,1.3-3,3-3l0,0c1.6,0,3,1.3,3,3v0
			C258.9,112.3,257.5,113.7,255.9,113.7z"/>
		<line class="st12" x1="223.8" y1="65.2" x2="223.8" y2="45.4"/>
		<g>
			<path class="st14" d="M57.5,389.4c0,0,3.8,4.8,9,4.8c5.1,0,9-4.8,9-4.8"/>
			<path class="st14" d="M75.4,389.4c0,0,3.8,4.8,9,4.8s9-4.8,9-4.8"/>
			<path class="st14" d="M93.4,389.4c0,0,3.8,4.8,9,4.8c5.1,0,9-4.8,9-4.8"/>
			<path class="st14" d="M111.3,389.4c0,0,3.8,4.8,9,4.8s9-4.8,9-4.8"/>
			<path class="st14" d="M129.3,389.4c0,0,3.8,4.8,9,4.8c5.1,0,9-4.8,9-4.8"/>
			<path class="st14" d="M147.2,389.4c0,0,3.8,4.8,9,4.8s9-4.8,9-4.8"/>
			<path class="st14" d="M165.2,389.4c0,0,3.8,4.8,9,4.8s9-4.8,9-4.8"/>
			<path class="st14" d="M183.1,389.4c0,0,3.8,4.8,9,4.8c5.1,0,9-4.8,9-4.8"/>
			<path class="st14" d="M201.1,389.4c0,0,3.8,4.8,9,4.8c5.1,0,9-4.8,9-4.8"/>
			<path class="st14" d="M219,389.4c0,0,3.8,4.8,9,4.8c5.1,0,9-4.8,9-4.8"/>
			<path class="st14" d="M237.2,389.4c0,0,3.8,4.8,9,4.8s9-4.8,9-4.8"/>
			<path class="st14" d="M255.1,389.4c0,0,3.8,4.8,9,4.8s9-4.8,9-4.8"/>
			<path class="st14" d="M273.1,389.4c0,0,3.8,4.8,9,4.8s9-4.8,9-4.8"/>
			<path class="st14" d="M291.1,389.4c0,0,3.8,4.8,9,4.8s9-4.8,9-4.8"/>
			<path class="st14" d="M309,389.4c0,0,3.8,4.8,9,4.8c5.1,0,9-4.8,9-4.8"/>
			<path class="st14" d="M327,389.4c0,0,3.8,4.8,9,4.8c5.1,0,9-4.8,9-4.8"/>
			<path class="st14" d="M344.9,389.4c0,0,3.8,4.8,9,4.8c5.1,0,9-4.8,9-4.8"/>
			<path class="st14" d="M362.9,389.4c0,0,3.8,4.8,9,4.8s9-4.8,9-4.8"/>
			<path class="st14" d="M380.8,389.4c0,0,3.8,4.8,9,4.8s9-4.8,9-4.8"/>
			<path class="st14" d="M398.8,389.4c0,0,3.8,4.8,9,4.8s9-4.8,9-4.8"/>
		</g>
		<path class="st17" d="M184.4,391c-14.2,0-112.5,0-112.5,0v-18.7c0,0,99.6,0,112.5,0s24-6,24-6S198.7,391,184.4,391z"/>
		<path class="st14" d="M71.9,379.6c0,0,97.3,0,110.7,0c13.3,0,25.9-12.3,25.9-12.3"/>
		<polygon class="st17" points="111.2,372.3 84.9,372.3 84.9,355.3 111.2,349 		"/>
		<line class="st14" x1="79" y1="356.6" x2="116.3" y2="347.3"/>
		<line class="st14" x1="152.5" y1="362.6" x2="152.5" y2="372.3"/>
		<rect x="94.7" y="362.6" class="st14" width="7.2" height="9.7"/>
		<g>
			<path class="st7" d="M371.8,47.3c14.5-8.5,24.3-2,25.5,10.2c1.2,12.2-13.3,14.7-13.3,14.7h-61.3c0,0-12.6-3.7-11.3-14.7
				c1.6-14.1,15.2-14.1,20-7"/>
			<path class="st7" d="M327.2,46.7c-5.9-7,5.9-23.2,19.4-14.2"/>
			<path class="st7" d="M344.8,38.1c0,0,5.7-17.9,22.5-13.6c14.5,3.7,12.5,18.9,12.5,18.9"/>
		</g>
		<g>
			<path class="st7" d="M182.2,15.6c5.7-6,15.6-1,16,7c0.4,8-8,10.3-8,10.3h-30c0,0-8.3-2.7-6.7-11.3c1.7-8.7,12-7,12.7-5.3"/>
			<path class="st7" d="M188.9,12.9c0,0-1.5-11.4-13.1-10.4c-11.6,1-11.1,12.7-11.1,12.7"/>
		</g>
		<g>
			<path class="st7" d="M54.9,71.8c-8.2-8.6-22.5-1.4-23,10.1s11.5,14.9,11.5,14.9h43.2c0,0,12-3.8,9.6-16.3
				C93.8,68,78.9,70.4,78,72.8"/>
			<path class="st7" d="M45.3,68c0,0,2.2-16.3,18.9-14.9s16,18.3,16,18.3"/>
		</g>
	</g>
</g>
<g id="_x23_Tower_x5F_Bridge">
</g>
<g id="_x23_Washington_x5F_Mountain">
</g>
<g id="_x23_London_x5F_Eye">
</g>
<g id="_x23_Eiffel_x5F_Tower">
	<g id="New_Symbol">
	</g>
</g>
<g id="_x23_Forbidden_x5F_City">
</g>
<g id="_x23_Sydney_x5F_Opera_x5F_House">
</g>
<g id="_x23_Space_x5F_Needle">
</g>
<g id="_x23_Pyramid">
</g>
<g id="_x23_The_x5F_Pantheon">
</g>
<g id="_x23_Emirates_x5F_Towers">
</g>
<g id="_x23_China_x5F_wall">
	<g id="_x23_Empire_x5F_State_x5F_Building">
	</g>
</g>
</svg>
