<?xml version="1.0" encoding="utf-8"?>
<!-- Generator: Adobe Illustrator 19.1.0, SVG Export Plug-In . SVG Version: 6.00 Build 0)  -->
<svg version="1.1" xmlns="http://www.w3.org/2000/svg" xmlns:xlink="http://www.w3.org/1999/xlink" x="0px" y="0px"
	 viewBox="0 0 483.2 402.6" style="enable-background:new 0 0 483.2 402.6;" xml:space="preserve">
<style type="text/css">
	.st0{fill:#EDEDED;}
	.st1{fill:#59595A;}
	.st2{fill:none;stroke:#59595B;stroke-width:5;stroke-linejoin:round;stroke-miterlimit:10;}
	.st3{fill:none;stroke:#59595B;stroke-width:4.1457;stroke-linejoin:round;stroke-miterlimit:10;}
	.st4{fill:#F6F5F5;}
	.st5{fill:#59595B;}
	.st6{fill:none;stroke:#59595B;stroke-width:4.0874;stroke-linecap:round;stroke-linejoin:round;stroke-miterlimit:10;}
	.st7{fill:none;stroke:#59595B;stroke-width:5;stroke-linecap:round;stroke-linejoin:round;stroke-miterlimit:10;}
	.st8{fill:#EFEFEF;stroke:#59595B;stroke-width:5;stroke-linecap:round;stroke-linejoin:round;stroke-miterlimit:10;}
	.st9{fill:#EDECED;}
	.st10{fill:none;stroke:#5A5B5B;stroke-width:5;stroke-miterlimit:10;}
	.st11{fill:none;stroke:#5A5B5C;stroke-width:5;stroke-linecap:round;stroke-linejoin:round;stroke-miterlimit:10;}
	.st12{fill:#EDECED;stroke:#5A5B5C;stroke-width:5;stroke-linecap:round;stroke-linejoin:round;stroke-miterlimit:10;}
	.st13{fill:#5A5B5C;stroke:#5A5B5C;stroke-width:5;stroke-linecap:round;stroke-linejoin:round;stroke-miterlimit:10;}
	.st14{fill:none;stroke:#5A5B5B;stroke-width:5;stroke-linecap:round;stroke-linejoin:round;stroke-miterlimit:10;}
	.st15{fill:#F0EFEF;stroke:#5A5B5B;stroke-width:5;stroke-linecap:round;stroke-linejoin:round;stroke-miterlimit:10;}
	.st16{fill:#E8E8E8;stroke:#5A5B5C;stroke-width:5;stroke-linecap:round;stroke-linejoin:round;stroke-miterlimit:10;}
	.st17{fill:#FFFFFF;stroke:#5A5B5B;stroke-width:5;stroke-linecap:round;stroke-linejoin:round;stroke-miterlimit:10;}
	.st18{fill:#EFEFEF;stroke:#59595A;stroke-width:5;stroke-linecap:round;stroke-linejoin:round;stroke-miterlimit:10;}
	.st19{fill:none;stroke:#59595A;stroke-width:5;stroke-miterlimit:10;}
	.st20{fill:none;stroke:#59595A;stroke-width:5;stroke-linecap:round;stroke-miterlimit:10;}
	.st21{fill:none;stroke:#59595A;stroke-width:5;stroke-linejoin:round;stroke-miterlimit:10;}
	.st22{fill:none;stroke:#59595A;stroke-width:4.539;stroke-miterlimit:10;}
	.st23{fill:none;stroke:#59595A;stroke-width:4.1349;stroke-miterlimit:10;}
	.st24{fill:none;stroke:#59595A;stroke-width:3.9798;stroke-miterlimit:10;}
	.st25{fill:none;stroke:#58595B;stroke-width:5;stroke-miterlimit:10;}
	.st26{fill:none;stroke:#58595B;stroke-width:5;stroke-linejoin:round;stroke-miterlimit:10;}
	.st27{fill:none;stroke:#58595B;stroke-width:5;stroke-linecap:round;stroke-linejoin:round;stroke-miterlimit:10;}
	.st28{fill:none;stroke:#59595B;stroke-width:4.2054;stroke-linecap:round;stroke-linejoin:round;stroke-miterlimit:10;}
	.st29{fill:none;stroke:#59595B;stroke-width:5;stroke-miterlimit:10;}
	.st30{fill:#EDECEC;stroke:#59595B;stroke-width:5;stroke-linecap:round;stroke-linejoin:round;stroke-miterlimit:10;}
	.st31{fill:#EDEDED;stroke:#59595A;stroke-width:5;stroke-miterlimit:10;}
	.st32{fill:#EDEDED;stroke:#59595B;stroke-width:5;stroke-linecap:round;stroke-linejoin:round;stroke-miterlimit:10;}
	.st33{fill:none;stroke:#59595A;stroke-width:5;stroke-linecap:round;stroke-linejoin:round;stroke-miterlimit:10;}
	.st34{fill:#58595B;}
	.st35{fill:#59595A;stroke:#EDEDED;stroke-width:3;stroke-miterlimit:10;}
	.st36{fill:#59595A;stroke:#EDEDED;stroke-miterlimit:10;}
	.st37{fill:#EFEFEF;stroke:#59595A;stroke-width:5;stroke-linecap:round;stroke-miterlimit:10;}
	.st38{fill:#EDEDED;stroke:#59595A;stroke-width:5;stroke-linecap:round;stroke-linejoin:round;stroke-miterlimit:10;}
	.st39{fill-rule:evenodd;clip-rule:evenodd;fill:#59595B;}
	
		.st40{fill-rule:evenodd;clip-rule:evenodd;fill:none;stroke:#59595B;stroke-width:5;stroke-linecap:round;stroke-linejoin:round;stroke-miterlimit:10;}
	.st41{fill:none;stroke:#5A5B5C;stroke-width:4.1457;stroke-linejoin:round;stroke-miterlimit:10;}
	.st42{fill:none;stroke:#5A5B5B;stroke-width:4.539;stroke-miterlimit:10;}
	.st43{fill:none;stroke:#5A5B5B;stroke-width:4.1349;stroke-miterlimit:10;}
	.st44{fill:none;stroke:#5A5B5B;stroke-width:3.9798;stroke-miterlimit:10;}
	.st45{fill:none;stroke:#5A5B5C;stroke-width:4;stroke-linecap:round;stroke-linejoin:round;stroke-miterlimit:10;}
	.st46{fill:none;stroke:#595A5C;stroke-width:5;stroke-linecap:round;stroke-linejoin:round;stroke-miterlimit:10;}
	.st47{fill:#5A5B5C;}
	.st48{fill:none;stroke:#595A5C;stroke-width:5;stroke-linejoin:round;stroke-miterlimit:10;}
	.st49{fill:none;stroke:#5A5B5B;stroke-width:5;stroke-linecap:round;stroke-miterlimit:10;}
	.st50{fill:#5A5B5B;}
	.st51{fill:#5A5B5C;stroke:#5A5B5C;stroke-miterlimit:10;}
	.st52{fill:#595A5C;}
	.st53{fill:#EDECED;stroke:#5A5B5B;stroke-width:5;stroke-miterlimit:10;}
	.st54{fill:#FFFFFF;stroke:#5A5B5B;stroke-width:5;stroke-miterlimit:10;}
	.st55{fill:#FFFFFF;stroke:#5A5B5C;stroke-width:5;stroke-linecap:round;stroke-linejoin:round;stroke-miterlimit:10;}
	.st56{fill:#FFFFFF;stroke:#59595B;stroke-width:5;stroke-linecap:round;stroke-linejoin:round;stroke-miterlimit:10;}
	.st57{fill:#FFFFFF;stroke:#59595A;stroke-width:5;stroke-linecap:round;stroke-linejoin:round;stroke-miterlimit:10;}
	.st58{fill:#FFFFFF;stroke:#59595A;stroke-width:5;stroke-miterlimit:10;}
	.st59{fill:none;stroke:#59595B;stroke-width:3.8573;stroke-linejoin:round;stroke-miterlimit:10;}
	.st60{fill:#EDEDED;stroke:#59595B;stroke-width:5;stroke-miterlimit:10;}
	.st61{fill:none;stroke:#59595B;stroke-width:5;stroke-linecap:round;stroke-miterlimit:10;}
	.st62{fill:#59595B;stroke:#59595A;stroke-width:5;stroke-linecap:round;stroke-linejoin:round;stroke-miterlimit:10;}
	.st63{fill:#FFFFFF;stroke:#59595B;stroke-width:5;stroke-miterlimit:10;}
	.st64{fill:#EAEAEA;stroke:#59595A;stroke-width:5;stroke-linecap:round;stroke-linejoin:round;stroke-miterlimit:10;}
	.st65{fill:#EAEAEA;stroke:#59595A;stroke-width:5;stroke-linecap:round;stroke-miterlimit:10;}
</style>
<g id="Background">
</g>
<g id="_x23_Tower_x5F_Bridge">
</g>
<g id="_x23_Washington_x5F_Mountain">
</g>
<g id="_x23_London_x5F_Eye">
</g>
<g id="_x23_Eiffel_x5F_Tower">
	<g id="New_Symbol">
	</g>
</g>
<g id="_x23_Forbidden_x5F_City">
</g>
<g id="_x23_Sydney_x5F_Opera_x5F_House">
</g>
<g id="_x23_Space_x5F_Needle">
</g>
<g id="_x23_Pyramid">
</g>
<g id="_x23_The_x5F_Pantheon">
</g>
<g id="_x23_Emirates_x5F_Towers">
</g>
<g id="_x23_China_x5F_wall">
	<g id="_x23_Empire_x5F_State_x5F_Building">
	</g>
	<g>
		<g>
			<line class="st20" x1="476.7" y1="390.2" x2="2.5" y2="390.2"/>
			<line class="st20" x1="429.8" y1="400.1" x2="36.2" y2="400.1"/>
		</g>
		<g>
			<path class="st7" d="M241.4,170.3c0-1.2-1.3-2.2-2.8-2.2c-1.6,0-2.8,1-2.8,2.2"/>
			<polyline class="st7" points="241.4,170.7 241.4,186.5 235.7,186.5 235.7,170.7 			"/>
		</g>
		<g>
			<path class="st7" d="M226.1,170.3c0-1.2-1.3-2.2-2.8-2.2c-1.6,0-2.8,1-2.8,2.2"/>
			<polyline class="st7" points="226.1,170.7 226.1,186.5 220.4,186.5 220.4,170.7 			"/>
		</g>
		<g>
			<path class="st7" d="M210.9,170.3c0-1.2-1.3-2.2-2.8-2.2c-1.6,0-2.8,1-2.8,2.2"/>
			<polyline class="st7" points="210.9,170.7 210.9,186.5 205.2,186.5 205.2,170.7 			"/>
		</g>
		<g>
			<path class="st7" d="M195.6,170.3c0-1.2-1.3-2.2-2.8-2.2c-1.6,0-2.8,1-2.8,2.2"/>
			<polyline class="st7" points="195.6,170.7 195.6,186.5 190,186.5 190,170.7 			"/>
		</g>
		<g>
			<path class="st7" d="M287.2,170.3c0-1.2-1.3-2.2-2.8-2.2c-1.6,0-2.8,1-2.8,2.2"/>
			<polyline class="st7" points="287.2,170.7 287.2,186.5 281.5,186.5 281.5,170.7 			"/>
		</g>
		<g>
			<path class="st7" d="M271.9,170.3c0-1.2-1.3-2.2-2.8-2.2c-1.6,0-2.8,1-2.8,2.2"/>
			<polyline class="st7" points="271.9,170.7 271.9,186.5 266.3,186.5 266.3,170.7 			"/>
		</g>
		<g>
			<path class="st7" d="M256.7,170.3c0-1.2-1.3-2.2-2.8-2.2c-1.6,0-2.8,1-2.8,2.2"/>
			<polyline class="st7" points="256.7,170.7 256.7,186.5 251,186.5 251,170.7 			"/>
		</g>
		<g>
			<path class="st7" d="M332.5,221.5c0-1.8-1.3-3.3-2.8-3.3s-2.8,1.5-2.8,3.3"/>
			<polyline class="st7" points="332.5,222.1 332.5,245.6 326.8,245.6 326.8,222.1 			"/>
		</g>
		<g>
			<path class="st7" d="M317.2,221.5c0-1.8-1.3-3.3-2.8-3.3c-1.6,0-2.8,1.5-2.8,3.3"/>
			<polyline class="st7" points="317.2,222.1 317.2,245.6 311.6,245.6 311.6,222.1 			"/>
		</g>
		<g>
			<path class="st7" d="M302,221.5c0-1.8-1.3-3.3-2.8-3.3c-1.6,0-2.8,1.5-2.8,3.3"/>
			<polyline class="st7" points="302,222.1 302,245.6 296.3,245.6 296.3,222.1 			"/>
		</g>
		<g>
			<path class="st7" d="M181.5,221.5c0-1.8-1.3-3.3-2.8-3.3c-1.6,0-2.8,1.5-2.8,3.3"/>
			<polyline class="st7" points="181.5,222.1 181.5,245.6 175.8,245.6 175.8,222.1 			"/>
		</g>
		<g>
			<path class="st7" d="M166.2,221.5c0-1.8-1.3-3.3-2.8-3.3c-1.6,0-2.8,1.5-2.8,3.3"/>
			<polyline class="st7" points="166.2,222.1 166.2,245.6 160.5,245.6 160.5,222.1 			"/>
		</g>
		<g>
			<path class="st7" d="M151,221.5c0-1.8-1.3-3.3-2.8-3.3c-1.6,0-2.8,1.5-2.8,3.3"/>
			<polyline class="st7" points="151,222.1 151,245.6 145.3,245.6 145.3,222.1 			"/>
		</g>
		<g>
			<path class="st7" d="M376.3,43.2c14.5-8.5,24.3-2,25.5,10.2c1.2,12.2-13.3,14.7-13.3,14.7h-61.3c0,0-12.6-3.7-11.3-14.7
				c1.6-14.1,15.2-14.1,20-7"/>
			<path class="st7" d="M331.7,42.6c-5.9-7,5.9-23.2,19.4-14.2"/>
			<path class="st7" d="M349.3,34c0,0,5.7-17.9,22.5-13.6c14.5,3.7,12.5,18.9,12.5,18.9"/>
		</g>
		<g>
			<path class="st7" d="M196.4,70.4c5.7-6,15.6-1,16,7c0.4,8-8,10.3-8,10.3h-30c0,0-8.3-2.7-6.7-11.3c1.7-8.7,12-7,12.7-5.3"/>
			<path class="st7" d="M203.1,67.8c0,0-1.5-11.4-13.1-10.4c-11.6,1-11.1,12.7-11.1,12.7"/>
		</g>
		<g>
			<path class="st7" d="M74,21.3c-8.2-8.6-22.5-1.4-23,10.1c-0.6,11.5,11.5,14.9,11.5,14.9h43.2c0,0,12-3.8,9.6-16.3
				c-2.4-12.5-17.3-10.1-18.2-7.7"/>
			<path class="st7" d="M64.5,17.5c0,0,2.2-16.3,18.9-14.9s16,18.3,16,18.3"/>
		</g>
		<path class="st7" d="M295.4,161.9c-1.9-20-26.6-44.5-56.7-44.5c-30.1,0-54.8,24.5-56.7,44.5H295.4z"/>
		<path class="st7" d="M182.2,185.1c-0.3-3.3-3.5-7.4-7.5-7.4c-4,0-7.3,4.1-7.5,7.4H182.2z"/>
		<path class="st7" d="M238.7,117.4c-27.5,0-44.5,26.3-46.3,44.5"/>
		<path class="st7" d="M238,117.4c27.5,0,44.5,26.3,46.3,44.5"/>
		<path class="st7" d="M247.7,118.3c-0.3-3.5-4.6-7.7-9.8-7.7s-9.4,4.2-9.8,7.7"/>
		<rect x="182" y="161.9" class="st7" width="113.4" height="24.6"/>
		<line class="st7" x1="173.7" y1="161.9" x2="302.3" y2="161.9"/>
		<line class="st7" x1="238" y1="90.6" x2="238" y2="110.6"/>
		<path class="st7" d="M238.7,117.4c0,0-29,3.4-32.3,44.5"/>
		<path class="st7" d="M238,117.4c0,0,29,3.4,32.3,44.5"/>
		<path class="st7" d="M220.7,161.9c0-34.6,17.3-44.5,17.3-44.5"/>
		<path class="st7" d="M255.1,161.9c0-34.6-17.3-44.5-17.3-44.5"/>
		<line class="st7" x1="238" y1="117.4" x2="238" y2="161.9"/>
		<g>
			<path class="st7" d="M340.1,210.8c-1.5-11-20.6-24.4-44-24.4"/>
			<path class="st7" d="M295.5,186.5c21.3,0,33.1,14.4,34.4,24.4"/>
			<path class="st7" d="M295.5,186.5c0,0,21,1.8,23.6,24.4"/>
			<path class="st7" d="M307.3,210.8c0-18.9-11.9-24.4-11.9-24.4"/>
			<line class="st7" x1="295.5" y1="186.5" x2="295.5" y2="210.8"/>
		</g>
		<g>
			<path class="st7" d="M363.8,269c-1.5-11-20.6-24.4-44-24.4"/>
			<path class="st7" d="M319.3,244.7c21.3,0,33.1,14.4,34.4,24.4"/>
			<path class="st7" d="M319.3,244.7c0,0,21,1.8,23.6,24.4"/>
			<path class="st7" d="M331.1,269c0-18.9-11.9-24.4-11.9-24.4"/>
			<line class="st7" x1="319.3" y1="244.7" x2="319.3" y2="269"/>
		</g>
		<g>
			<path class="st7" d="M113.8,269c1.5-11,20.6-24.4,44-24.4"/>
			<path class="st7" d="M158.3,244.7c-21.3,0-33.1,14.4-34.4,24.4"/>
			<path class="st7" d="M158.3,244.7c0,0-21,1.8-23.6,24.4"/>
			<path class="st7" d="M146.5,269c0-18.9,11.9-24.4,11.9-24.4"/>
			<line class="st7" x1="158.3" y1="244.7" x2="158.3" y2="269"/>
		</g>
		<g>
			<path class="st7" d="M137.5,210.8c1.5-11,20.6-24.4,44-24.4"/>
			<path class="st7" d="M182,186.5c-21.3,0-33.1,14.4-34.4,24.4"/>
			<path class="st7" d="M182,186.5c0,0-21,1.8-23.6,24.4"/>
			<path class="st7" d="M170.2,210.8c0-18.9,11.9-24.4,11.9-24.4"/>
			<line class="st7" x1="182" y1="186.5" x2="182" y2="210.8"/>
		</g>
		<polyline class="st7" points="137.5,245.6 137.5,210.8 340.1,210.8 340.1,245.6 		"/>
		<line class="st7" x1="238.8" y1="186.5" x2="238.8" y2="210.8"/>
		<line class="st7" x1="267.1" y1="186.5" x2="267.1" y2="210.8"/>
		<line class="st7" x1="276.6" y1="186.5" x2="276.6" y2="210.8"/>
		<line class="st7" x1="286.4" y1="186.5" x2="286.4" y2="210.8"/>
		<line class="st7" x1="247.7" y1="186.5" x2="247.7" y2="210.8"/>
		<line class="st7" x1="257.5" y1="186.5" x2="257.5" y2="210.8"/>
		<line class="st7" x1="210.1" y1="186.5" x2="210.1" y2="210.8"/>
		<line class="st7" x1="219.6" y1="186.5" x2="219.6" y2="210.8"/>
		<line class="st7" x1="229.4" y1="186.5" x2="229.4" y2="210.8"/>
		<line class="st7" x1="190.8" y1="186.5" x2="190.8" y2="210.8"/>
		<line class="st7" x1="200.5" y1="186.5" x2="200.5" y2="210.8"/>
		<rect x="253.5" y="271.2" class="st56" width="112.7" height="18.6"/>
		<g>
			<path class="st8" d="M282.2,278.8c0-0.8-1.3-1.5-2.8-1.5s-2.8,0.7-2.8,1.5"/>
			<polyline class="st8" points="282.2,279.1 282.2,289.7 276.5,289.7 276.5,279.1 			"/>
		</g>
		<g>
			<path class="st8" d="M267,278.8c0-0.8-1.3-1.5-2.8-1.5s-2.8,0.7-2.8,1.5"/>
			<polyline class="st8" points="267,279.1 267,289.7 261.4,289.7 261.4,279.1 			"/>
		</g>
		<g>
			<path class="st8" d="M359.8,278.8c0-0.8-1.3-1.5-2.8-1.5s-2.8,0.7-2.8,1.5"/>
			<polyline class="st8" points="359.8,279.1 359.8,289.7 354.2,289.7 354.2,279.1 			"/>
		</g>
		<g>
			<path class="st8" d="M345.6,278.8c0-0.8-1.3-1.5-2.8-1.5s-2.8,0.7-2.8,1.5"/>
			<polyline class="st8" points="345.6,279.1 345.6,289.7 340,289.7 340,279.1 			"/>
		</g>
		<g>
			<path class="st8" d="M331.4,278.8c0-0.8-1.3-1.5-2.8-1.5s-2.8,0.7-2.8,1.5"/>
			<polyline class="st8" points="331.4,279.1 331.4,289.7 325.7,289.7 325.7,279.1 			"/>
		</g>
		<g>
			<path class="st8" d="M301.8,278.8c0-0.8-1.3-1.5-2.8-1.5s-2.8,0.7-2.8,1.5"/>
			<polyline class="st8" points="301.8,279.1 301.8,289.7 296.1,289.7 296.1,279.1 			"/>
		</g>
		<rect x="114.8" y="271.2" class="st56" width="112.7" height="18.6"/>
		<g>
			<path class="st8" d="M181.2,278.8c0-0.8-1.3-1.5-2.8-1.5c-1.6,0-2.8,0.7-2.8,1.5"/>
			<polyline class="st8" points="181.2,279.1 181.2,289.7 175.5,289.7 175.5,279.1 			"/>
		</g>
		<g>
			<path class="st8" d="M152.2,278.8c0-0.8-1.3-1.5-2.8-1.5s-2.8,0.7-2.8,1.5"/>
			<polyline class="st8" points="152.2,279.1 152.2,289.7 146.5,289.7 146.5,279.1 			"/>
		</g>
		<g>
			<path class="st8" d="M138.9,278.8c0-0.8-1.3-1.5-2.8-1.5s-2.8,0.7-2.8,1.5"/>
			<polyline class="st8" points="138.9,279.1 138.9,289.7 133.2,289.7 133.2,279.1 			"/>
		</g>
		<g>
			<path class="st8" d="M126.5,278.8c0-0.8-1.3-1.5-2.8-1.5s-2.8,0.7-2.8,1.5"/>
			<polyline class="st8" points="126.5,279.1 126.5,289.7 120.8,289.7 120.8,279.1 			"/>
		</g>
		<g>
			<path class="st8" d="M218.4,278.8c0-0.8-1.3-1.5-2.8-1.5s-2.8,0.7-2.8,1.5"/>
			<polyline class="st8" points="218.4,279.1 218.4,289.7 212.7,289.7 212.7,279.1 			"/>
		</g>
		<g>
			<path class="st8" d="M203.2,278.8c0-0.8-1.3-1.5-2.8-1.5s-2.8,0.7-2.8,1.5"/>
			<polyline class="st8" points="203.2,279.1 203.2,289.7 197.6,289.7 197.6,279.1 			"/>
		</g>
		<g>
			<path class="st8" d="M188.1,278.8c0-0.8-1.3-1.5-2.8-1.5s-2.8,0.7-2.8,1.5"/>
			<polyline class="st8" points="188.1,279.1 188.1,289.7 182.4,289.7 182.4,279.1 			"/>
		</g>
		<rect x="167.1" y="185.4" class="st56" width="15.1" height="85.8"/>
		<line class="st7" x1="174.6" y1="177.7" x2="174.6" y2="170.7"/>
		<path class="st8" d="M169.1,223.1c-0.2-2.8-2.6-6.3-5.6-6.3c-3,0-5.4,3.4-5.6,6.3H169.1z"/>
		<rect x="157.8" y="223.4" class="st56" width="11.3" height="66.4"/>
		<path class="st7" d="M310.5,185.1c-0.3-3.3-3.5-7.4-7.5-7.4c-4,0-7.3,4.1-7.5,7.4H310.5z"/>
		<line class="st7" x1="303" y1="177.7" x2="303" y2="170.7"/>
		<rect x="295.4" y="185.4" class="st56" width="15.1" height="85.8"/>
		<path class="st56" d="M319.3,223.2c-0.2-2.9-2.6-6.3-5.6-6.3s-5.4,3.5-5.6,6.3H319.3z"/>
		<rect x="308" y="223.5" class="st56" width="11.3" height="66.3"/>
		<g>
			<path class="st56" d="M270.5,212.7c-1.1-11.2-14.7-24.8-31.4-24.8c-16.7,0-30.3,13.6-31.4,24.8H270.5z"/>
			<path class="st56" d="M239.1,187.9c-15.2,0-24.6,14.6-25.6,24.8"/>
			<path class="st56" d="M238.7,187.9c15.2,0,24.6,14.6,25.6,24.8"/>
			<rect x="182.7" y="213.4" class="st56" width="112.7" height="18.6"/>
			<path class="st56" d="M239.1,187.9c0,0-16.1,1.9-17.9,24.8"/>
			<path class="st56" d="M238.7,187.9c0,0,16.1,1.9,17.9,24.8"/>
			<path class="st56" d="M229.1,212.7c0-19.3,9.6-24.8,9.6-24.8"/>
			<path class="st56" d="M248.1,212.7c0-19.3-9.6-24.8-9.6-24.8"/>
			<line class="st56" x1="238.7" y1="187.9" x2="238.7" y2="212.7"/>
			<g>
				<path class="st56" d="M241.7,221c0-0.8-1.3-1.5-2.8-1.5s-2.8,0.7-2.8,1.5"/>
				<polyline class="st56" points="241.7,221.3 241.7,231.9 236.1,231.9 236.1,221.3 				"/>
			</g>
			<g>
				<path class="st56" d="M226.6,221c0-0.8-1.3-1.5-2.8-1.5s-2.8,0.7-2.8,1.5"/>
				<polyline class="st56" points="226.6,221.3 226.6,231.9 220.9,231.9 220.9,221.3 				"/>
			</g>
			<g>
				<path class="st56" d="M211.4,221c0-0.8-1.3-1.5-2.8-1.5s-2.8,0.7-2.8,1.5"/>
				<polyline class="st56" points="211.4,221.3 211.4,231.9 205.8,231.9 205.8,221.3 				"/>
			</g>
			<g>
				<path class="st56" d="M196.3,221c0-0.8-1.3-1.5-2.8-1.5s-2.8,0.7-2.8,1.5"/>
				<polyline class="st56" points="196.3,221.3 196.3,231.9 190.6,231.9 190.6,221.3 				"/>
			</g>
			<g>
				<path class="st56" d="M287.3,221c0-0.8-1.3-1.5-2.8-1.5s-2.8,0.7-2.8,1.5"/>
				<polyline class="st56" points="287.3,221.3 287.3,231.9 281.6,231.9 281.6,221.3 				"/>
			</g>
			<g>
				<path class="st56" d="M272.1,221c0-0.8-1.3-1.5-2.8-1.5s-2.8,0.7-2.8,1.5"/>
				<polyline class="st56" points="272.1,221.3 272.1,231.9 266.5,231.9 266.5,221.3 				"/>
			</g>
			<g>
				<path class="st56" d="M257,221c0-0.8-1.3-1.5-2.8-1.5c-1.6,0-2.8,0.7-2.8,1.5"/>
				<polyline class="st56" points="257,221.3 257,231.9 251.3,231.9 251.3,221.3 				"/>
			</g>
		</g>
		<rect x="182.7" y="231.9" class="st56" width="112.7" height="16.7"/>
		<line class="st7" x1="238.7" y1="231.9" x2="238.7" y2="248.6"/>
		<line class="st7" x1="229.1" y1="231.9" x2="229.1" y2="248.6"/>
		<line class="st7" x1="214.7" y1="231.9" x2="214.7" y2="248.6"/>
		<line class="st7" x1="203.3" y1="231.9" x2="203.3" y2="248.6"/>
		<line class="st7" x1="191.7" y1="231.9" x2="191.7" y2="248.6"/>
		<line class="st7" x1="274.7" y1="231.9" x2="274.7" y2="248.6"/>
		<line class="st7" x1="286.4" y1="231.9" x2="286.4" y2="248.6"/>
		<line class="st7" x1="263.5" y1="231.9" x2="263.5" y2="248.6"/>
		<line class="st7" x1="247.4" y1="231.9" x2="247.4" y2="248.6"/>
		<path class="st56" d="M259.3,247.9c-0.7-7.2-9.5-16-20.3-16c-10.8,0-19.6,8.8-20.3,16H259.3z"/>
		<path class="st8" d="M239.1,231.9c0,0-10.4,1.2-11.5,16"/>
		<path class="st8" d="M238.8,231.9c0,0,10.4,1.2,11.5,16"/>
		<line class="st8" x1="238.8" y1="231.9" x2="238.8" y2="247.9"/>
		<rect x="182.7" y="247.9" class="st56" width="111.8" height="41.9"/>
		<g>
			<path class="st7" d="M241.4,259.9c0-2.2-1.3-3.9-2.8-3.9c-1.6,0-2.8,1.8-2.8,3.9"/>
			<polyline class="st7" points="241.4,260.6 241.4,288.8 235.7,288.8 235.7,260.6 			"/>
		</g>
		<g>
			<path class="st7" d="M226.1,259.9c0-2.2-1.3-3.9-2.8-3.9c-1.6,0-2.8,1.8-2.8,3.9"/>
			<polyline class="st7" points="226.1,260.6 226.1,288.8 220.4,288.8 220.4,260.6 			"/>
		</g>
		<g>
			<path class="st7" d="M210.9,259.9c0-2.2-1.3-3.9-2.8-3.9c-1.6,0-2.8,1.8-2.8,3.9"/>
			<polyline class="st7" points="210.9,260.6 210.9,288.8 205.2,288.8 205.2,260.6 			"/>
		</g>
		<g>
			<path class="st7" d="M195.6,259.9c0-2.2-1.3-3.9-2.8-3.9c-1.6,0-2.8,1.8-2.8,3.9"/>
			<polyline class="st7" points="195.6,260.6 195.6,288.8 190,288.8 190,260.6 			"/>
		</g>
		<g>
			<path class="st7" d="M287.2,259.9c0-2.2-1.3-3.9-2.8-3.9c-1.6,0-2.8,1.8-2.8,3.9"/>
			<polyline class="st7" points="287.2,260.6 287.2,288.8 281.5,288.8 281.5,260.6 			"/>
		</g>
		<g>
			<path class="st7" d="M271.9,259.9c0-2.2-1.3-3.9-2.8-3.9c-1.6,0-2.8,1.8-2.8,3.9"/>
			<polyline class="st7" points="271.9,260.6 271.9,288.8 266.3,288.8 266.3,260.6 			"/>
		</g>
		<g>
			<path class="st7" d="M256.7,259.9c0-2.2-1.3-3.9-2.8-3.9c-1.6,0-2.8,1.8-2.8,3.9"/>
			<polyline class="st7" points="256.7,260.6 256.7,288.8 251,288.8 251,260.6 			"/>
		</g>
		<polyline class="st56" points="271.9,315.2 379.7,315.2 379.7,288.1 271.5,288.1 271.5,281 205.6,281 205.6,288.1 98.9,288.1 
			98.9,315.2 205.2,315.2 		"/>
		<path class="st56" d="M261.4,307.5c-0.8-8.2-10.7-18.2-22.9-18.2c-12.2,0-22.1,10-22.9,18.2H261.4z"/>
		<path class="st8" d="M238.5,289.3c0,0-11.7,1.4-13.1,18.2"/>
		<path class="st8" d="M238.2,289.3c0,0,11.7,1.4,13.1,18.2"/>
		<polyline class="st56" points="434.7,388.4 434.7,343.6 391.9,343.6 391.9,314.8 261.4,314.8 261.4,308.5 238.2,301.9 
			215.5,309.1 215.4,314.8 83.7,314.8 83.7,343.6 42.4,343.6 42.4,388.4 		"/>
		<line class="st8" x1="238.2" y1="289.3" x2="238.2" y2="307.5"/>
		<g>
			<path class="st56" d="M320.3,315.2c-0.8-8.2-10.8-18.2-23-18.2c-12.2,0-22.2,10-23,18.2H320.3z"/>
			<path class="st56" d="M297.3,297c0,0-11.8,1.4-13.1,18.2"/>
			<path class="st56" d="M297,297c0,0,11.8,1.4,13.1,18.2"/>
			<line class="st56" x1="297" y1="297" x2="297" y2="315.2"/>
		</g>
		<g>
			<path class="st56" d="M372.8,315.2C372,307,362,297,349.8,297c-12.2,0-22.2,10-23,18.2H372.8z"/>
			<path class="st56" d="M349.8,297c0,0-11.8,1.4-13.1,18.2"/>
			<path class="st56" d="M349.5,297c0,0,11.8,1.4,13.1,18.2"/>
			<line class="st56" x1="349.5" y1="297" x2="349.5" y2="315.2"/>
		</g>
		<g>
			<path class="st56" d="M150.8,315.2C150,307,140,297,127.8,297c-12.2,0-22.2,10-23,18.2H150.8z"/>
			<path class="st56" d="M127.8,297c0,0-11.8,1.4-13.1,18.2"/>
			<path class="st56" d="M127.5,297c0,0,11.8,1.4,13.1,18.2"/>
			<line class="st56" x1="127.5" y1="297" x2="127.5" y2="315.2"/>
		</g>
		<g>
			<path class="st56" d="M203.2,315.2c-0.8-8.2-10.8-18.2-23-18.2c-12.2,0-22.2,10-23,18.2H203.2z"/>
			<path class="st56" d="M180.2,297c0,0-11.8,1.4-13.1,18.2"/>
			<path class="st56" d="M180,297c0,0,11.8,1.4,13.1,18.2"/>
			<line class="st56" x1="180" y1="297" x2="180" y2="315.2"/>
		</g>
		<rect x="36.2" y="307.5" class="st56" width="16.3" height="82.7"/>
		<polygon class="st56" points="53.8,307.5 35.3,307.5 27,301.8 27,292.5 62.1,292.5 62.1,302.1 		"/>
		<line class="st7" x1="38" y1="298.1" x2="38" y2="301.9"/>
		<line class="st7" x1="44.5" y1="298.1" x2="44.5" y2="301.9"/>
		<line class="st7" x1="51" y1="298.1" x2="51" y2="301.9"/>
		<rect x="36.2" y="231" class="st56" width="16.3" height="61.5"/>
		<rect x="36.2" y="170.3" class="st56" width="16.3" height="45.9"/>
		<rect x="33.7" y="161.9" class="st56" width="21.3" height="8.4"/>
		<polygon class="st56" points="53.8,231 35.3,231 27,225.3 27,215.9 62.1,215.9 62.1,225.6 		"/>
		<line class="st7" x1="38" y1="221.6" x2="38" y2="225.4"/>
		<line class="st7" x1="44.5" y1="221.6" x2="44.5" y2="225.4"/>
		<line class="st7" x1="51" y1="221.6" x2="51" y2="225.4"/>
		<polygon class="st56" points="44.4,82.1 36.2,161.9 52.5,161.9 		"/>
		<line class="st7" x1="44.4" y1="82.1" x2="44.4" y2="161.9"/>
		<rect x="426.4" y="307.5" class="st56" width="16.3" height="82.7"/>
		<polygon class="st56" points="444,307.5 425.5,307.5 417.2,301.8 417.2,292.5 452.3,292.5 452.3,302.1 		"/>
		<line class="st7" x1="428.3" y1="298.1" x2="428.3" y2="301.9"/>
		<line class="st7" x1="434.7" y1="298.1" x2="434.7" y2="301.9"/>
		<line class="st7" x1="441.2" y1="298.1" x2="441.2" y2="301.9"/>
		<rect x="426.4" y="231" class="st56" width="16.3" height="61.5"/>
		<rect x="426.4" y="170.3" class="st56" width="16.3" height="45.9"/>
		<rect x="423.9" y="161.9" class="st56" width="21.3" height="8.4"/>
		<polygon class="st56" points="444,231 425.5,231 417.2,225.3 417.2,215.9 452.3,215.9 452.3,225.6 		"/>
		<line class="st7" x1="428.3" y1="221.6" x2="428.3" y2="225.4"/>
		<line class="st7" x1="434.7" y1="221.6" x2="434.7" y2="225.4"/>
		<line class="st7" x1="441.2" y1="221.6" x2="441.2" y2="225.4"/>
		<polygon class="st56" points="434.6,82.1 426.4,161.9 442.7,161.9 		"/>
		<line class="st7" x1="434.6" y1="82.1" x2="434.6" y2="161.9"/>
		<rect x="360.9" y="236.1" class="st56" width="13.6" height="51.3"/>
		<rect x="360.9" y="185.4" class="st56" width="13.6" height="38.3"/>
		<rect x="358.8" y="178.4" class="st56" width="17.8" height="7"/>
		<polygon class="st56" points="375.5,236.1 360.1,236.1 353.1,231.4 353.1,223.6 382.5,223.6 382.5,231.6 		"/>
		<line class="st7" x1="362.4" y1="228.3" x2="362.4" y2="231.5"/>
		<line class="st7" x1="367.8" y1="228.3" x2="367.8" y2="231.5"/>
		<line class="st7" x1="373.2" y1="228.3" x2="373.2" y2="231.5"/>
		<polygon class="st56" points="367.7,111.8 360.9,178.4 374.5,178.4 		"/>
		<line class="st7" x1="367.7" y1="111.8" x2="367.7" y2="178.4"/>
		<rect x="105.8" y="236.1" class="st56" width="13.6" height="51.3"/>
		<rect x="105.8" y="185.4" class="st56" width="13.6" height="38.3"/>
		<rect x="103.7" y="178.4" class="st56" width="17.8" height="7"/>
		<polygon class="st56" points="120.5,236.1 105,236.1 98.1,231.4 98.1,223.6 127.4,223.6 127.4,231.6 		"/>
		<line class="st7" x1="107.4" y1="228.3" x2="107.4" y2="231.5"/>
		<line class="st7" x1="112.8" y1="228.3" x2="112.8" y2="231.5"/>
		<line class="st7" x1="118.2" y1="228.3" x2="118.2" y2="231.5"/>
		<polygon class="st56" points="112.6,111.8 105.8,178.4 119.4,178.4 		"/>
		<line class="st7" x1="112.6" y1="111.8" x2="112.6" y2="178.4"/>
		<g>
			<g>
				<path class="st56" d="M247.9,329.9c0-2.8-3.7-5.1-8.3-5.1s-8.3,2.3-8.3,5.1"/>
				<polyline class="st56" points="247.9,330.8 247.9,367.3 231.3,367.3 231.3,330.8 				"/>
			</g>
			<g>
				<path class="st56" d="M203.5,329.9c0-2.8-3.7-5.1-8.3-5.1c-4.6,0-8.3,2.3-8.3,5.1"/>
				<polyline class="st56" points="203.5,330.8 203.5,367.3 186.9,367.3 186.9,330.8 				"/>
			</g>
			<g>
				<path class="st56" d="M159,329.9c0-2.8-3.7-5.1-8.3-5.1s-8.3,2.3-8.3,5.1"/>
				<polyline class="st56" points="159,330.8 159,367.3 142.5,367.3 142.5,330.8 				"/>
			</g>
			<g>
				<path class="st56" d="M114.6,329.9c0-2.8-3.7-5.1-8.3-5.1S98,327,98,329.9"/>
				<polyline class="st56" points="114.6,330.8 114.6,367.3 98,367.3 98,330.8 				"/>
			</g>
			<g>
				<path class="st56" d="M381.5,329.9c0-2.8-3.7-5.1-8.3-5.1c-4.6,0-8.3,2.3-8.3,5.1"/>
				<polyline class="st56" points="381.5,330.8 381.5,367.3 364.9,367.3 364.9,330.8 				"/>
			</g>
			<g>
				<path class="st56" d="M337,329.9c0-2.8-3.7-5.1-8.3-5.1c-4.6,0-8.3,2.3-8.3,5.1"/>
				<polyline class="st56" points="337,330.8 337,367.3 320.5,367.3 320.5,330.8 				"/>
			</g>
			<g>
				<path class="st56" d="M292.6,329.9c0-2.8-3.7-5.1-8.3-5.1c-4.6,0-8.3,2.3-8.3,5.1"/>
				<polyline class="st56" points="292.6,330.8 292.6,367.3 276,367.3 276,330.8 				"/>
			</g>
		</g>
		<rect x="79.3" y="367.3" class="st56" width="320.5" height="16.6"/>
		<line class="st7" x1="89.8" y1="375.6" x2="387.5" y2="375.6"/>
	</g>
</g>
</svg>
