<?xml version="1.0" encoding="utf-8"?>
<!-- Generator: Adobe Illustrator 19.1.0, SVG Export Plug-In . SVG Version: 6.00 Build 0)  -->
<svg version="1.1" xmlns="http://www.w3.org/2000/svg" xmlns:xlink="http://www.w3.org/1999/xlink" x="0px" y="0px"
	 viewBox="0 0 474.2 384.1" style="enable-background:new 0 0 474.2 384.1;" xml:space="preserve">
<style type="text/css">
	.st0{fill:#EDEDED;}
	.st1{fill:#59595A;}
	.st2{fill:none;stroke:#59595B;stroke-width:5;stroke-linejoin:round;stroke-miterlimit:10;}
	.st3{fill:none;stroke:#59595B;stroke-width:4.1457;stroke-linejoin:round;stroke-miterlimit:10;}
	.st4{fill:#F6F5F5;}
	.st5{fill:#59595B;}
	.st6{fill:none;stroke:#59595B;stroke-width:4.0874;stroke-linecap:round;stroke-linejoin:round;stroke-miterlimit:10;}
	.st7{fill:none;stroke:#59595B;stroke-width:5;stroke-linecap:round;stroke-linejoin:round;stroke-miterlimit:10;}
	.st8{fill:#EFEFEF;stroke:#59595B;stroke-width:5;stroke-linecap:round;stroke-linejoin:round;stroke-miterlimit:10;}
	.st9{fill:#EDECED;}
	.st10{fill:none;stroke:#5A5B5B;stroke-width:5;stroke-miterlimit:10;}
	.st11{fill:none;stroke:#5A5B5C;stroke-width:5;stroke-linecap:round;stroke-linejoin:round;stroke-miterlimit:10;}
	.st12{fill:#EDECED;stroke:#5A5B5C;stroke-width:5;stroke-linecap:round;stroke-linejoin:round;stroke-miterlimit:10;}
	.st13{fill:#5A5B5C;stroke:#5A5B5C;stroke-width:5;stroke-linecap:round;stroke-linejoin:round;stroke-miterlimit:10;}
	.st14{fill:none;stroke:#5A5B5B;stroke-width:5;stroke-linecap:round;stroke-linejoin:round;stroke-miterlimit:10;}
	.st15{fill:#F0EFEF;stroke:#5A5B5B;stroke-width:5;stroke-linecap:round;stroke-linejoin:round;stroke-miterlimit:10;}
	.st16{fill:#E8E8E8;stroke:#5A5B5C;stroke-width:5;stroke-linecap:round;stroke-linejoin:round;stroke-miterlimit:10;}
	.st17{fill:#FFFFFF;stroke:#5A5B5B;stroke-width:5;stroke-linecap:round;stroke-linejoin:round;stroke-miterlimit:10;}
	.st18{fill:#EFEFEF;stroke:#59595A;stroke-width:5;stroke-linecap:round;stroke-linejoin:round;stroke-miterlimit:10;}
	.st19{fill:none;stroke:#59595A;stroke-width:5;stroke-miterlimit:10;}
	.st20{fill:none;stroke:#59595A;stroke-width:5;stroke-linecap:round;stroke-miterlimit:10;}
	.st21{fill:none;stroke:#59595A;stroke-width:5;stroke-linejoin:round;stroke-miterlimit:10;}
	.st22{fill:none;stroke:#59595A;stroke-width:4.539;stroke-miterlimit:10;}
	.st23{fill:none;stroke:#59595A;stroke-width:4.1349;stroke-miterlimit:10;}
	.st24{fill:none;stroke:#59595A;stroke-width:3.9798;stroke-miterlimit:10;}
	.st25{fill:none;stroke:#58595B;stroke-width:5;stroke-miterlimit:10;}
	.st26{fill:none;stroke:#58595B;stroke-width:5;stroke-linejoin:round;stroke-miterlimit:10;}
	.st27{fill:none;stroke:#58595B;stroke-width:5;stroke-linecap:round;stroke-linejoin:round;stroke-miterlimit:10;}
	.st28{fill:none;stroke:#59595B;stroke-width:4.2054;stroke-linecap:round;stroke-linejoin:round;stroke-miterlimit:10;}
	.st29{fill:none;stroke:#59595B;stroke-width:5;stroke-miterlimit:10;}
	.st30{fill:#EDECEC;stroke:#59595B;stroke-width:5;stroke-linecap:round;stroke-linejoin:round;stroke-miterlimit:10;}
	.st31{fill:#EDEDED;stroke:#59595A;stroke-width:5;stroke-miterlimit:10;}
	.st32{fill:#EDEDED;stroke:#59595B;stroke-width:5;stroke-linecap:round;stroke-linejoin:round;stroke-miterlimit:10;}
	.st33{fill:none;stroke:#59595A;stroke-width:5;stroke-linecap:round;stroke-linejoin:round;stroke-miterlimit:10;}
	.st34{fill:#58595B;}
	.st35{fill:#59595A;stroke:#EDEDED;stroke-width:3;stroke-miterlimit:10;}
	.st36{fill:#59595A;stroke:#EDEDED;stroke-miterlimit:10;}
	.st37{fill:#EFEFEF;stroke:#59595A;stroke-width:5;stroke-linecap:round;stroke-miterlimit:10;}
	.st38{fill:#EDEDED;stroke:#59595A;stroke-width:5;stroke-linecap:round;stroke-linejoin:round;stroke-miterlimit:10;}
	.st39{fill-rule:evenodd;clip-rule:evenodd;fill:#59595B;}
	
		.st40{fill-rule:evenodd;clip-rule:evenodd;fill:none;stroke:#59595B;stroke-width:5;stroke-linecap:round;stroke-linejoin:round;stroke-miterlimit:10;}
	.st41{fill:none;stroke:#5A5B5C;stroke-width:4.1457;stroke-linejoin:round;stroke-miterlimit:10;}
	.st42{fill:none;stroke:#5A5B5B;stroke-width:4.539;stroke-miterlimit:10;}
	.st43{fill:none;stroke:#5A5B5B;stroke-width:4.1349;stroke-miterlimit:10;}
	.st44{fill:none;stroke:#5A5B5B;stroke-width:3.9798;stroke-miterlimit:10;}
	.st45{fill:none;stroke:#5A5B5C;stroke-width:4;stroke-linecap:round;stroke-linejoin:round;stroke-miterlimit:10;}
	.st46{fill:none;stroke:#595A5C;stroke-width:5;stroke-linecap:round;stroke-linejoin:round;stroke-miterlimit:10;}
	.st47{fill:#5A5B5C;}
	.st48{fill:none;stroke:#595A5C;stroke-width:5;stroke-linejoin:round;stroke-miterlimit:10;}
	.st49{fill:none;stroke:#5A5B5B;stroke-width:5;stroke-linecap:round;stroke-miterlimit:10;}
	.st50{fill:#5A5B5B;}
	.st51{fill:#5A5B5C;stroke:#5A5B5C;stroke-miterlimit:10;}
	.st52{fill:#595A5C;}
	.st53{fill:#EDECED;stroke:#5A5B5B;stroke-width:5;stroke-miterlimit:10;}
	.st54{fill:#FFFFFF;stroke:#5A5B5B;stroke-width:5;stroke-miterlimit:10;}
	.st55{fill:#FFFFFF;stroke:#5A5B5C;stroke-width:5;stroke-linecap:round;stroke-linejoin:round;stroke-miterlimit:10;}
	.st56{fill:#FFFFFF;stroke:#59595B;stroke-width:5;stroke-linecap:round;stroke-linejoin:round;stroke-miterlimit:10;}
	.st57{fill:#FFFFFF;stroke:#59595A;stroke-width:5;stroke-linecap:round;stroke-linejoin:round;stroke-miterlimit:10;}
	.st58{fill:#FFFFFF;stroke:#59595A;stroke-width:5;stroke-miterlimit:10;}
	.st59{fill:none;stroke:#59595B;stroke-width:3.8573;stroke-linejoin:round;stroke-miterlimit:10;}
	.st60{fill:#EDEDED;stroke:#59595B;stroke-width:5;stroke-miterlimit:10;}
	.st61{fill:none;stroke:#59595B;stroke-width:5;stroke-linecap:round;stroke-miterlimit:10;}
	.st62{fill:#59595B;stroke:#59595A;stroke-width:5;stroke-linecap:round;stroke-linejoin:round;stroke-miterlimit:10;}
	.st63{fill:#FFFFFF;stroke:#59595B;stroke-width:5;stroke-miterlimit:10;}
	.st64{fill:#EAEAEA;stroke:#59595A;stroke-width:5;stroke-linecap:round;stroke-linejoin:round;stroke-miterlimit:10;}
	.st65{fill:#EAEAEA;stroke:#59595A;stroke-width:5;stroke-linecap:round;stroke-miterlimit:10;}
</style>
<g id="Background">
</g>
<g id="_x23_Tower_x5F_Bridge">
</g>
<g id="_x23_Washington_x5F_Mountain">
</g>
<g id="_x23_London_x5F_Eye">
</g>
<g id="_x23_Eiffel_x5F_Tower">
	<g id="New_Symbol">
	</g>
</g>
<g id="_x23_Forbidden_x5F_City">
</g>
<g id="_x23_Sydney_x5F_Opera_x5F_House">
</g>
<g id="_x23_Space_x5F_Needle">
</g>
<g id="_x23_Pyramid">
	<g>
		<g>
			<rect x="118.8" y="353.6" class="st2" width="67.7" height="16.4"/>
			<g>
				<path class="st2" d="M130.5,352.5h44.5c6.9-6.1,11.2-15,11.2-25c0-18.5-15-33.4-33.4-33.4s-33.4,15-33.4,33.4
					C119.2,337.4,123.6,346.4,130.5,352.5z"/>
				<line class="st2" x1="152.7" y1="294.1" x2="119.5" y2="330.7"/>
				<line class="st2" x1="174.6" y1="302.5" x2="130.5" y2="350.8"/>
				<line class="st2" x1="185.2" y1="323.3" x2="158.5" y2="352.5"/>
				<line class="st2" x1="152.3" y1="294.1" x2="185.5" y2="330.7"/>
				<line class="st2" x1="130.5" y1="302.5" x2="174.6" y2="350.8"/>
				<line class="st2" x1="119.9" y1="323.3" x2="146.5" y2="352.5"/>
				<line class="st2" x1="137.8" y1="310.5" x2="167.3" y2="310.5"/>
				<line class="st2" x1="152.7" y1="326.8" x2="182" y2="326.8"/>
				<line class="st2" x1="123.1" y1="326.8" x2="152.7" y2="326.8"/>
				<line class="st2" x1="167.3" y1="310.5" x2="182" y2="310.5"/>
				<line class="st2" x1="137.8" y1="310.5" x2="123.9" y2="310.5"/>
				<line class="st2" x1="137.9" y1="342.7" x2="123.1" y2="342.7"/>
				<line class="st2" x1="137.9" y1="342.7" x2="166.3" y2="342.7"/>
				<line class="st2" x1="166.3" y1="342.7" x2="182" y2="342.7"/>
			</g>
		</g>
		<g>
			<line class="st19" x1="474.2" y1="371.7" x2="0" y2="371.7"/>
			<line class="st19" x1="427.3" y1="381.6" x2="33.7" y2="381.6"/>
		</g>
		<line class="st19" x1="253.1" y1="152.6" x2="253.1" y2="369.9"/>
		<line class="st19" x1="216.9" y1="152.6" x2="216.9" y2="370"/>
		<line class="st19" x1="241.1" y1="152.6" x2="241.1" y2="370"/>
		<line class="st19" x1="235.7" y1="30.1" x2="235.7" y2="46.9"/>
		<line class="st20" x1="235.7" y1="2.5" x2="235.7" y2="19.4"/>
		<circle class="st19" cx="235.7" cy="52.2" r="4.8"/>
		<line class="st19" x1="235.7" y1="56.9" x2="235.7" y2="73.8"/>
		<line class="st19" x1="235.7" y1="83.8" x2="235.7" y2="100.7"/>
		<circle class="st19" cx="235.7" cy="79" r="4.8"/>
		<circle class="st19" cx="235.7" cy="25.3" r="4.8"/>
		<polygon class="st21" points="282,113.7 189.3,113.7 218.7,99.4 252.6,99.4 		"/>
		<rect x="183.6" y="114.2" class="st21" width="104.1" height="6.5"/>
		<rect x="183.6" y="120.7" class="st21" width="104.1" height="6.5"/>
		<rect x="189.1" y="127.2" class="st21" width="93.1" height="6.5"/>
		<rect x="189.1" y="133.8" class="st21" width="93.1" height="6.5"/>
		<rect x="195.5" y="140.3" class="st21" width="80.2" height="6.5"/>
		<rect x="195.5" y="146.8" class="st21" width="80.2" height="6.5"/>
		<g>
			<line class="st20" x1="386.5" y1="369.4" x2="292.7" y2="246.8"/>
			<line class="st20" x1="292.7" y1="246.8" x2="253.1" y2="311.5"/>
			<line class="st20" x1="279.1" y1="270.4" x2="289.3" y2="278.4"/>
			<line class="st20" x1="289.4" y1="278.4" x2="297.6" y2="270.3"/>
			<line class="st20" x1="297.7" y1="270.2" x2="318.3" y2="280.3"/>
		</g>
		<line class="st20" x1="36.4" y1="369.4" x2="157.6" y2="186"/>
		<line class="st20" x1="157.6" y1="186" x2="216" y2="281.6"/>
		<line class="st20" x1="177.7" y1="220.8" x2="162.5" y2="232.6"/>
		<line class="st20" x1="162.4" y1="232.6" x2="150.3" y2="220.7"/>
		<line class="st20" x1="150.2" y1="220.6" x2="124.9" y2="235.5"/>
		<g>
			<path class="st7" d="M99.3,95.8c14.5-8.5,24.3-2,25.5,10.2s-13.3,14.7-13.3,14.7H50.1c0,0-12.6-3.7-11.3-14.7
				c1.6-14.1,15.2-14.1,20-7"/>
			<path class="st7" d="M54.7,95.2C48.8,88.3,60.5,72,74,81"/>
			<path class="st7" d="M72.3,86.6c0,0,5.7-17.9,22.5-13.6c14.5,3.7,12.5,18.9,12.5,18.9"/>
		</g>
		<g>
			<path class="st7" d="M194.8,36.3c5.7-6,15.6-1,16,7c0.4,8-8,10.3-8,10.3h-30c0,0-8.3-2.7-6.7-11.3s12-7,12.7-5.3"/>
			<path class="st7" d="M201.5,33.6c0,0-1.5-11.4-13.1-10.4c-11.6,1-11.1,12.7-11.1,12.7"/>
		</g>
		<g>
			<path class="st7" d="M354.6,83.7c-8.2-8.6-22.5-1.4-23,10.1c-0.6,11.5,11.5,14.9,11.5,14.9h43.2c0,0,12-3.8,9.6-16.3
				c-2.4-12.5-17.3-10.1-18.2-7.7"/>
			<path class="st7" d="M345,79.9c0,0,2.2-16.3,18.9-14.9c16.6,1.4,16,18.3,16,18.3"/>
		</g>
	</g>
</g>
<g id="_x23_The_x5F_Pantheon">
</g>
<g id="_x23_Emirates_x5F_Towers">
</g>
<g id="_x23_China_x5F_wall">
	<g id="_x23_Empire_x5F_State_x5F_Building">
	</g>
</g>
</svg>
