<?xml version="1.0" encoding="utf-8"?>
<!-- Generator: Adobe Illustrator 19.1.0, SVG Export Plug-In . SVG Version: 6.00 Build 0)  -->
<svg version="1.1" xmlns="http://www.w3.org/2000/svg" xmlns:xlink="http://www.w3.org/1999/xlink" x="0px" y="0px"
	 viewBox="0 0 476.4 511.2" style="enable-background:new 0 0 476.4 511.2;" xml:space="preserve">
<style type="text/css">
	.st0{fill:#EDEDED;}
	.st1{fill:#59595A;}
	.st2{fill:none;stroke:#59595B;stroke-width:5;stroke-linejoin:round;stroke-miterlimit:10;}
	.st3{fill:none;stroke:#59595B;stroke-width:4.1457;stroke-linejoin:round;stroke-miterlimit:10;}
	.st4{fill:#F6F5F5;}
	.st5{fill:#59595B;}
	.st6{fill:none;stroke:#59595B;stroke-width:4.0874;stroke-linecap:round;stroke-linejoin:round;stroke-miterlimit:10;}
	.st7{fill:none;stroke:#59595B;stroke-width:5;stroke-linecap:round;stroke-linejoin:round;stroke-miterlimit:10;}
	.st8{fill:#EFEFEF;stroke:#59595B;stroke-width:5;stroke-linecap:round;stroke-linejoin:round;stroke-miterlimit:10;}
	.st9{fill:#EDECED;}
	.st10{fill:none;stroke:#5A5B5B;stroke-width:5;stroke-miterlimit:10;}
	.st11{fill:none;stroke:#5A5B5C;stroke-width:5;stroke-linecap:round;stroke-linejoin:round;stroke-miterlimit:10;}
	.st12{fill:#EDECED;stroke:#5A5B5C;stroke-width:5;stroke-linecap:round;stroke-linejoin:round;stroke-miterlimit:10;}
	.st13{fill:#5A5B5C;stroke:#5A5B5C;stroke-width:5;stroke-linecap:round;stroke-linejoin:round;stroke-miterlimit:10;}
	.st14{fill:none;stroke:#5A5B5B;stroke-width:5;stroke-linecap:round;stroke-linejoin:round;stroke-miterlimit:10;}
	.st15{fill:#F0EFEF;stroke:#5A5B5B;stroke-width:5;stroke-linecap:round;stroke-linejoin:round;stroke-miterlimit:10;}
	.st16{fill:#E8E8E8;stroke:#5A5B5C;stroke-width:5;stroke-linecap:round;stroke-linejoin:round;stroke-miterlimit:10;}
	.st17{fill:#FFFFFF;stroke:#5A5B5B;stroke-width:5;stroke-linecap:round;stroke-linejoin:round;stroke-miterlimit:10;}
	.st18{fill:#EFEFEF;stroke:#59595A;stroke-width:5;stroke-linecap:round;stroke-linejoin:round;stroke-miterlimit:10;}
	.st19{fill:none;stroke:#59595A;stroke-width:5;stroke-miterlimit:10;}
	.st20{fill:none;stroke:#59595A;stroke-width:5;stroke-linecap:round;stroke-miterlimit:10;}
	.st21{fill:none;stroke:#59595A;stroke-width:5;stroke-linejoin:round;stroke-miterlimit:10;}
	.st22{fill:none;stroke:#59595A;stroke-width:4.539;stroke-miterlimit:10;}
	.st23{fill:none;stroke:#59595A;stroke-width:4.1349;stroke-miterlimit:10;}
	.st24{fill:none;stroke:#59595A;stroke-width:3.9798;stroke-miterlimit:10;}
	.st25{fill:none;stroke:#58595B;stroke-width:5;stroke-miterlimit:10;}
	.st26{fill:none;stroke:#58595B;stroke-width:5;stroke-linejoin:round;stroke-miterlimit:10;}
	.st27{fill:none;stroke:#58595B;stroke-width:5;stroke-linecap:round;stroke-linejoin:round;stroke-miterlimit:10;}
	.st28{fill:none;stroke:#59595B;stroke-width:4.2054;stroke-linecap:round;stroke-linejoin:round;stroke-miterlimit:10;}
	.st29{fill:none;stroke:#59595B;stroke-width:5;stroke-miterlimit:10;}
	.st30{fill:#EDECEC;stroke:#59595B;stroke-width:5;stroke-linecap:round;stroke-linejoin:round;stroke-miterlimit:10;}
	.st31{fill:#EDEDED;stroke:#59595A;stroke-width:5;stroke-miterlimit:10;}
	.st32{fill:#EDEDED;stroke:#59595B;stroke-width:5;stroke-linecap:round;stroke-linejoin:round;stroke-miterlimit:10;}
	.st33{fill:none;stroke:#59595A;stroke-width:5;stroke-linecap:round;stroke-linejoin:round;stroke-miterlimit:10;}
	.st34{fill:#58595B;}
	.st35{fill:#59595A;stroke:#EDEDED;stroke-width:3;stroke-miterlimit:10;}
	.st36{fill:#59595A;stroke:#EDEDED;stroke-miterlimit:10;}
	.st37{fill:#EFEFEF;stroke:#59595A;stroke-width:5;stroke-linecap:round;stroke-miterlimit:10;}
	.st38{fill:#EDEDED;stroke:#59595A;stroke-width:5;stroke-linecap:round;stroke-linejoin:round;stroke-miterlimit:10;}
	.st39{fill-rule:evenodd;clip-rule:evenodd;fill:#59595B;}
	
		.st40{fill-rule:evenodd;clip-rule:evenodd;fill:none;stroke:#59595B;stroke-width:5;stroke-linecap:round;stroke-linejoin:round;stroke-miterlimit:10;}
	.st41{fill:none;stroke:#5A5B5C;stroke-width:4.1457;stroke-linejoin:round;stroke-miterlimit:10;}
	.st42{fill:none;stroke:#5A5B5B;stroke-width:4.539;stroke-miterlimit:10;}
	.st43{fill:none;stroke:#5A5B5B;stroke-width:4.1349;stroke-miterlimit:10;}
	.st44{fill:none;stroke:#5A5B5B;stroke-width:3.9798;stroke-miterlimit:10;}
	.st45{fill:none;stroke:#5A5B5C;stroke-width:4;stroke-linecap:round;stroke-linejoin:round;stroke-miterlimit:10;}
	.st46{fill:none;stroke:#595A5C;stroke-width:5;stroke-linecap:round;stroke-linejoin:round;stroke-miterlimit:10;}
	.st47{fill:#5A5B5C;}
	.st48{fill:none;stroke:#595A5C;stroke-width:5;stroke-linejoin:round;stroke-miterlimit:10;}
	.st49{fill:none;stroke:#5A5B5B;stroke-width:5;stroke-linecap:round;stroke-miterlimit:10;}
	.st50{fill:#5A5B5B;}
	.st51{fill:#5A5B5C;stroke:#5A5B5C;stroke-miterlimit:10;}
	.st52{fill:#595A5C;}
	.st53{fill:#EDECED;stroke:#5A5B5B;stroke-width:5;stroke-miterlimit:10;}
	.st54{fill:#FFFFFF;stroke:#5A5B5B;stroke-width:5;stroke-miterlimit:10;}
	.st55{fill:#FFFFFF;stroke:#5A5B5C;stroke-width:5;stroke-linecap:round;stroke-linejoin:round;stroke-miterlimit:10;}
	.st56{fill:#FFFFFF;stroke:#59595B;stroke-width:5;stroke-linecap:round;stroke-linejoin:round;stroke-miterlimit:10;}
	.st57{fill:#FFFFFF;stroke:#59595A;stroke-width:5;stroke-linecap:round;stroke-linejoin:round;stroke-miterlimit:10;}
	.st58{fill:#FFFFFF;stroke:#59595A;stroke-width:5;stroke-miterlimit:10;}
	.st59{fill:none;stroke:#59595B;stroke-width:3.8573;stroke-linejoin:round;stroke-miterlimit:10;}
	.st60{fill:#EDEDED;stroke:#59595B;stroke-width:5;stroke-miterlimit:10;}
	.st61{fill:none;stroke:#59595B;stroke-width:5;stroke-linecap:round;stroke-miterlimit:10;}
	.st62{fill:#59595B;stroke:#59595A;stroke-width:5;stroke-linecap:round;stroke-linejoin:round;stroke-miterlimit:10;}
	.st63{fill:#FFFFFF;stroke:#59595B;stroke-width:5;stroke-miterlimit:10;}
	.st64{fill:#EAEAEA;stroke:#59595A;stroke-width:5;stroke-linecap:round;stroke-linejoin:round;stroke-miterlimit:10;}
	.st65{fill:#EAEAEA;stroke:#59595A;stroke-width:5;stroke-linecap:round;stroke-miterlimit:10;}
</style>
<g id="Background">
</g>
<g id="_x23_Tower_x5F_Bridge">
</g>
<g id="_x23_Washington_x5F_Mountain">
</g>
<g id="_x23_London_x5F_Eye">
</g>
<g id="_x23_Eiffel_x5F_Tower">
	<g id="New_Symbol">
	</g>
</g>
<g id="_x23_Forbidden_x5F_City">
</g>
<g id="_x23_Sydney_x5F_Opera_x5F_House">
</g>
<g id="_x23_Space_x5F_Needle">
</g>
<g id="_x23_Pyramid">
</g>
<g id="_x23_The_x5F_Pantheon">
</g>
<g id="_x23_Emirates_x5F_Towers">
</g>
<g id="_x23_China_x5F_wall">
	<g id="_x23_Empire_x5F_State_x5F_Building">
	</g>
	<g>
		<g>
			<polyline class="st33" points="89.5,484.4 89.5,434.4 430.8,434.4 430.8,484.4 			"/>
			<line class="st33" x1="98.2" y1="434.4" x2="98.2" y2="448.6"/>
			<line class="st33" x1="107.5" y1="434.4" x2="107.5" y2="448.6"/>
			<line class="st33" x1="116.7" y1="434.4" x2="116.7" y2="448.6"/>
			<line class="st33" x1="125.9" y1="434.4" x2="125.9" y2="448.6"/>
			<line class="st33" x1="135.2" y1="434.4" x2="135.2" y2="448.6"/>
			<line class="st33" x1="144.4" y1="434.4" x2="144.4" y2="448.6"/>
			<line class="st33" x1="153.7" y1="434.4" x2="153.7" y2="448.6"/>
			<line class="st33" x1="162.9" y1="434.4" x2="162.9" y2="448.6"/>
			<line class="st33" x1="172.1" y1="434.4" x2="172.1" y2="448.6"/>
			<line class="st33" x1="181.4" y1="434.4" x2="181.4" y2="448.6"/>
			<line class="st33" x1="190.6" y1="434.4" x2="190.6" y2="448.6"/>
			<line class="st33" x1="199.9" y1="434.4" x2="199.9" y2="448.6"/>
			<line class="st33" x1="209.1" y1="434.4" x2="209.1" y2="448.6"/>
			<line class="st33" x1="218.4" y1="434.4" x2="218.4" y2="448.6"/>
			<line class="st33" x1="227.6" y1="434.4" x2="227.6" y2="448.6"/>
			<line class="st33" x1="236.8" y1="434.4" x2="236.8" y2="448.6"/>
			<line class="st33" x1="246.1" y1="434.4" x2="246.1" y2="448.6"/>
			<line class="st33" x1="255.3" y1="434.4" x2="255.3" y2="448.6"/>
			<line class="st33" x1="264.6" y1="434.4" x2="264.6" y2="448.6"/>
			<line class="st33" x1="273.8" y1="434.4" x2="273.8" y2="448.6"/>
			<line class="st33" x1="283.1" y1="434.4" x2="283.1" y2="448.6"/>
			<line class="st33" x1="292.3" y1="434.4" x2="292.3" y2="448.6"/>
			<line class="st33" x1="301.5" y1="434.4" x2="301.5" y2="448.6"/>
			<line class="st33" x1="310.8" y1="434.4" x2="310.8" y2="448.6"/>
			<line class="st33" x1="320" y1="434.4" x2="320" y2="448.6"/>
			<line class="st33" x1="329.3" y1="434.4" x2="329.3" y2="448.6"/>
			<line class="st33" x1="338.5" y1="434.4" x2="338.5" y2="448.6"/>
			<line class="st33" x1="347.8" y1="434.4" x2="347.8" y2="448.6"/>
			<line class="st33" x1="357" y1="434.4" x2="357" y2="448.6"/>
			<line class="st33" x1="366.2" y1="434.4" x2="366.2" y2="448.6"/>
			<line class="st33" x1="375.5" y1="434.4" x2="375.5" y2="448.6"/>
			<line class="st33" x1="384.7" y1="434.4" x2="384.7" y2="448.6"/>
			<line class="st33" x1="394" y1="434.4" x2="394" y2="448.6"/>
			<line class="st33" x1="403.2" y1="434.4" x2="403.2" y2="448.6"/>
			<line class="st33" x1="412.5" y1="434.4" x2="412.5" y2="448.6"/>
			<line class="st33" x1="421.7" y1="434.4" x2="421.7" y2="448.6"/>
		</g>
		<g>
			<path class="st7" d="M448.3,162.4c14.5-8.5,24.3-2,25.5,10.2c1.2,12.2-13.3,14.7-13.3,14.7h-61.3c0,0-12.6-3.7-11.3-14.7
				c1.6-14.1,15.2-14.1,20-7"/>
			<path class="st7" d="M403.7,161.8c-5.9-7,5.9-23.2,19.4-14.2"/>
			<path class="st7" d="M421.3,153.2c0,0,5.7-17.9,22.5-13.6c14.5,3.7,12.5,18.9,12.5,18.9"/>
		</g>
		<g>
			<path class="st7" d="M211.6,138.8c5.7-6,15.6-1,16,7c0.4,8-8,10.3-8,10.3h-30c0,0-8.3-2.7-6.7-11.3c1.7-8.7,12-7,12.7-5.3"/>
			<path class="st7" d="M218.2,136.2c0,0-1.5-11.4-13.1-10.4S194,138.5,194,138.5"/>
		</g>
		<g>
			<path class="st7" d="M84.3,195.1c-8.2-8.6-22.5-1.4-23,10.1S72.8,220,72.8,220H116c0,0,12-3.8,9.6-16.3
				c-2.4-12.5-17.3-10.1-18.2-7.7"/>
			<path class="st7" d="M74.7,191.3c0,0,2.2-16.3,18.9-14.9c16.6,1.4,16,18.3,16,18.3"/>
		</g>
		<polygon class="st7" points="371.4,207.6 264.6,207.6 264,202.7 372,202.7 		"/>
		<rect x="266.9" y="207.6" class="st7" width="102" height="44.8"/>
		<rect x="294.2" y="129.2" class="st7" width="48.5" height="58.7"/>
		<rect x="266.9" y="207.6" class="st7" width="9.5" height="35.9"/>
		<rect x="266.9" y="243.4" class="st7" width="9.5" height="9"/>
		<rect x="276.9" y="207.6" class="st7" width="9.5" height="9"/>
		<rect x="349.8" y="207.6" class="st7" width="9.5" height="9"/>
		<rect x="359.4" y="243.4" class="st7" width="9.5" height="9"/>
		<rect x="359.4" y="207.6" class="st7" width="9.5" height="35.9"/>
		<circle class="st7" cx="318.4" cy="229.4" r="12.8"/>
		<circle class="st5" cx="318.4" cy="9.5" r="4.2"/>
		<polyline class="st7" points="298.2,121.5 318.4,16.7 306.7,121.5 		"/>
		<polyline class="st7" points="338.7,121.5 318.4,16.7 330.1,121.5 		"/>
		<line class="st7" x1="318.4" y1="2.5" x2="318.4" y2="14.9"/>
		<polygon class="st7" points="345.5,129.2 290.5,129.2 289.8,123.2 346.2,123.2 		"/>
		<rect x="298.2" y="289" class="st7" width="6.5" height="17.4"/>
		<polygon class="st7" points="304.6,288.8 298.2,288.8 301.4,280.8 		"/>
		<rect x="314.8" y="289" class="st7" width="6.5" height="17.4"/>
		<polygon class="st7" points="321.2,288.8 314.8,288.8 318,280.8 		"/>
		<rect x="331.3" y="289" class="st7" width="6.5" height="17.4"/>
		<polygon class="st7" points="337.8,288.8 331.3,288.8 334.6,280.8 		"/>
		<line class="st7" x1="318.4" y1="16.7" x2="318.4" y2="123.2"/>
		<line class="st7" x1="264" y1="202.7" x2="294.2" y2="187.9"/>
		<line class="st7" x1="372" y1="202.7" x2="342.7" y2="188.1"/>
		<line class="st7" x1="318.4" y1="229.4" x2="318.4" y2="222.6"/>
		<line class="st7" x1="318.4" y1="229.4" x2="323.2" y2="234.1"/>
		<rect x="261.1" y="252.4" class="st7" width="112.5" height="8.6"/>
		<rect x="261.1" y="261" class="st7" width="112.5" height="62.1"/>
		<line class="st7" x1="281.5" y1="261" x2="281.5" y2="323.1"/>
		<line class="st7" x1="261.1" y1="272" x2="280.7" y2="272"/>
		<line class="st7" x1="261.1" y1="282.2" x2="280.7" y2="282.2"/>
		<line class="st7" x1="261.1" y1="292.4" x2="280.7" y2="292.4"/>
		<line class="st7" x1="261.1" y1="302.5" x2="280.7" y2="302.5"/>
		<line class="st7" x1="261.1" y1="312.7" x2="280.7" y2="312.7"/>
		<line class="st7" x1="267.9" y1="261" x2="267.9" y2="272"/>
		<line class="st7" x1="274.1" y1="272" x2="274.1" y2="282.2"/>
		<line class="st7" x1="267.9" y1="283.5" x2="267.9" y2="292.1"/>
		<line class="st7" x1="274.1" y1="293.6" x2="274.1" y2="301.7"/>
		<line class="st7" x1="267.9" y1="303.4" x2="267.9" y2="311.3"/>
		<line class="st7" x1="274.1" y1="313.9" x2="274.1" y2="322.2"/>
		<line class="st7" x1="353.2" y1="261" x2="353.2" y2="323.1"/>
		<line class="st7" x1="373.5" y1="272" x2="354" y2="272"/>
		<line class="st7" x1="373.5" y1="282.2" x2="354" y2="282.2"/>
		<line class="st7" x1="373.5" y1="292.4" x2="354" y2="292.4"/>
		<line class="st7" x1="373.5" y1="302.5" x2="354" y2="302.5"/>
		<line class="st7" x1="364.5" y1="312.7" x2="345" y2="312.7"/>
		<line class="st7" x1="366.7" y1="261" x2="366.7" y2="272"/>
		<line class="st7" x1="360.6" y1="272" x2="360.6" y2="282.2"/>
		<line class="st7" x1="366.7" y1="283.5" x2="366.7" y2="292.1"/>
		<line class="st7" x1="360.6" y1="293.6" x2="360.6" y2="301.7"/>
		<line class="st7" x1="357.7" y1="303.4" x2="357.7" y2="311.3"/>
		<line class="st7" x1="351.6" y1="313.9" x2="351.6" y2="322.2"/>
		<line class="st33" x1="308.3" y1="143.9" x2="308.3" y2="187.3"/>
		<line class="st33" x1="318.4" y1="143.9" x2="318.4" y2="187.3"/>
		<line class="st33" x1="328.5" y1="143.9" x2="328.5" y2="187.3"/>
		<g>
			<path class="st33" d="M42.4,499.9c0,0,3.8,4.8,9,4.8s9-4.8,9-4.8"/>
			<path class="st33" d="M60.4,499.9c0,0,3.8,4.8,9,4.8c5.1,0,9-4.8,9-4.8"/>
			<path class="st33" d="M78.3,499.9c0,0,3.8,4.8,9,4.8c5.1,0,9-4.8,9-4.8"/>
			<path class="st33" d="M96.3,499.9c0,0,3.8,4.8,9,4.8c5.1,0,9-4.8,9-4.8"/>
			<path class="st33" d="M114.2,499.9c0,0,3.8,4.8,9,4.8s9-4.8,9-4.8"/>
			<path class="st33" d="M132.2,499.9c0,0,3.8,4.8,9,4.8c5.1,0,9-4.8,9-4.8"/>
			<path class="st33" d="M150.1,499.9c0,0,3.8,4.8,9,4.8c5.1,0,9-4.8,9-4.8"/>
			<path class="st33" d="M168.1,499.9c0,0,3.8,4.8,9,4.8s9-4.8,9-4.8"/>
			<path class="st33" d="M186,499.9c0,0,3.8,4.8,9,4.8c5.1,0,9-4.8,9-4.8"/>
			<path class="st33" d="M204,499.9c0,0,3.8,4.8,9,4.8c5.1,0,9-4.8,9-4.8"/>
			<path class="st33" d="M222.1,499.9c0,0,3.8,4.8,9,4.8c5.1,0,9-4.8,9-4.8"/>
			<path class="st33" d="M240.1,499.9c0,0,3.8,4.8,9,4.8s9-4.8,9-4.8"/>
			<path class="st33" d="M258.1,499.9c0,0,3.8,4.8,9,4.8s9-4.8,9-4.8"/>
			<path class="st33" d="M276,499.9c0,0,3.8,4.8,9,4.8s9-4.8,9-4.8"/>
			<path class="st33" d="M294,499.9c0,0,3.8,4.8,9,4.8s9-4.8,9-4.8"/>
			<path class="st33" d="M311.9,499.9c0,0,3.8,4.8,9,4.8c5.1,0,9-4.8,9-4.8"/>
			<path class="st33" d="M329.9,499.9c0,0,3.8,4.8,9,4.8c5.1,0,9-4.8,9-4.8"/>
			<path class="st33" d="M347.8,499.9c0,0,3.8,4.8,9,4.8c5.1,0,9-4.8,9-4.8"/>
			<path class="st33" d="M365.8,499.9c0,0,3.8,4.8,9,4.8s9-4.8,9-4.8"/>
			<path class="st33" d="M383.7,499.9c0,0,3.8,4.8,9,4.8s9-4.8,9-4.8"/>
		</g>
		<path class="st57" d="M144.4,482.4c-14.2,0-112.5,0-112.5,0v-18.7c0,0,99.6,0,112.5,0s24-6,24-6S158.6,482.4,144.4,482.4z"/>
		<path class="st33" d="M31.8,471.1c0,0,97.3,0,110.7,0s25.9-12.3,25.9-12.3"/>
		<polygon class="st57" points="71.2,463.7 44.8,463.7 44.8,446.8 71.2,440.4 		"/>
		<line class="st33" x1="39" y1="448.1" x2="76.3" y2="438.7"/>
		<line class="st33" x1="112.5" y1="454.1" x2="112.5" y2="463.7"/>
		<rect x="54.6" y="454.1" class="st33" width="7.2" height="9.7"/>
		<g>
			<path class="st33" d="M2.5,482c0,0,3.8,4.8,9,4.8s9-4.8,9-4.8"/>
			<path class="st33" d="M20.5,482c0,0,3.8,4.8,9,4.8s9-4.8,9-4.8"/>
			<path class="st33" d="M38.4,482c0,0,3.8,4.8,9,4.8s9-4.8,9-4.8"/>
			<path class="st33" d="M56.4,482c0,0,3.8,4.8,9,4.8c5.1,0,9-4.8,9-4.8"/>
			<path class="st33" d="M74.3,482c0,0,3.8,4.8,9,4.8s9-4.8,9-4.8"/>
			<path class="st33" d="M92.3,482c0,0,3.8,4.8,9,4.8c5.1,0,9-4.8,9-4.8"/>
			<path class="st33" d="M110.2,482c0,0,3.8,4.8,9,4.8c5.1,0,9-4.8,9-4.8"/>
			<path class="st33" d="M128.2,482c0,0,3.8,4.8,9,4.8c5.1,0,9-4.8,9-4.8"/>
			<path class="st33" d="M146.1,482c0,0,3.8,4.8,9,4.8s9-4.8,9-4.8"/>
			<path class="st33" d="M164.1,482c0,0,3.8,4.8,9,4.8s9-4.8,9-4.8"/>
			<path class="st33" d="M182.2,482c0,0,3.8,4.8,9,4.8c5.1,0,9-4.8,9-4.8"/>
			<path class="st33" d="M218.2,482c0,0,3.8,4.8,9,4.8c5.1,0,9-4.8,9-4.8"/>
			<path class="st33" d="M236.1,482c0,0,3.8,4.8,9,4.8s9-4.8,9-4.8"/>
			<path class="st33" d="M254.1,482c0,0,3.8,4.8,9,4.8c5.1,0,9-4.8,9-4.8"/>
			<path class="st33" d="M272,482c0,0,3.8,4.8,9,4.8s9-4.8,9-4.8"/>
			<path class="st33" d="M290,482c0,0,3.8,4.8,9,4.8s9-4.8,9-4.8"/>
			<path class="st33" d="M307.9,482c0,0,3.8,4.8,9,4.8s9-4.8,9-4.8"/>
			<path class="st33" d="M325.9,482c0,0,3.8,4.8,9,4.8s9-4.8,9-4.8"/>
			<path class="st33" d="M343.8,482c0,0,3.8,4.8,9,4.8s9-4.8,9-4.8"/>
			<path class="st33" d="M361.8,482c0,0,3.8,4.8,9,4.8s9-4.8,9-4.8"/>
			<path class="st33" d="M200.2,482c0,0,3.8,4.8,9,4.8c5.1,0,9-4.8,9-4.8"/>
			<path class="st33" d="M379.7,482c0,0,3.8,4.8,9,4.8s9-4.8,9-4.8"/>
			<path class="st33" d="M397.7,482c0,0,3.8,4.8,9,4.8c5.1,0,9-4.8,9-4.8"/>
			<path class="st33" d="M415.7,482c0,0,3.8,4.8,9,4.8c5.1,0,9-4.8,9-4.8"/>
			<path class="st33" d="M433.6,482c0,0,3.8,4.8,9,4.8c5.1,0,9-4.8,9-4.8"/>
		</g>
		<rect x="251.5" y="323.1" class="st33" width="88.2" height="32.4"/>
		<rect x="251.5" y="355.5" class="st33" width="88.3" height="78.9"/>
		<polygon class="st57" points="295.6,314.8 251.5,355.5 339.8,355.5 		"/>
		<line class="st33" x1="257.9" y1="355.5" x2="257.9" y2="434.4"/>
		<line class="st33" x1="333.5" y1="355.5" x2="333.5" y2="434.4"/>
		<rect x="269.9" y="369.7" class="st33" width="10.6" height="13.9"/>
		<rect x="289.9" y="369.7" class="st33" width="10.6" height="13.9"/>
		<rect x="289.9" y="407.6" class="st33" width="10.6" height="26.8"/>
		<rect x="211.1" y="415.2" class="st33" width="9.2" height="19.4"/>
		<rect x="310.2" y="369.7" class="st33" width="10.6" height="13.9"/>
		<rect x="269.9" y="408.2" class="st33" width="10.6" height="13.9"/>
		<rect x="310.2" y="408.2" class="st33" width="10.6" height="13.9"/>
		<line class="st33" x1="257.9" y1="397.8" x2="333.2" y2="397.8"/>
		<rect x="339.7" y="308" class="st57" width="77.7" height="32.4"/>
		<rect x="339.7" y="340.4" class="st33" width="77.7" height="94"/>
		<rect x="353.4" y="373.5" class="st33" width="9.3" height="13.9"/>
		<rect x="373.5" y="373.5" class="st33" width="9.3" height="13.9"/>
		<rect x="373.5" y="407.6" class="st33" width="9.3" height="26.8"/>
		<rect x="393.9" y="373.5" class="st33" width="9.3" height="13.9"/>
		<rect x="353.4" y="352.4" class="st33" width="9.3" height="13.9"/>
		<rect x="373.5" y="352.4" class="st33" width="9.3" height="13.9"/>
		<rect x="393.9" y="352.4" class="st33" width="9.3" height="13.9"/>
		<rect x="194.2" y="316.4" class="st33" width="8.1" height="13.9"/>
		<rect x="211.6" y="316.4" class="st33" width="8.1" height="13.9"/>
		<rect x="229.4" y="316.4" class="st33" width="8.1" height="13.9"/>
		<rect x="194.2" y="339" class="st33" width="8.1" height="13.9"/>
		<rect x="211.6" y="339" class="st33" width="8.1" height="13.9"/>
		<rect x="229.4" y="339" class="st33" width="8.1" height="13.9"/>
		<rect x="194.2" y="361.7" class="st33" width="8.1" height="13.9"/>
		<rect x="211.6" y="361.7" class="st33" width="8.1" height="13.9"/>
		<rect x="229.4" y="361.7" class="st33" width="8.1" height="13.9"/>
		<rect x="194.2" y="384.3" class="st33" width="8.1" height="13.9"/>
		<rect x="211.6" y="384.3" class="st33" width="8.1" height="13.9"/>
		<rect x="229.4" y="384.3" class="st33" width="8.1" height="13.9"/>
		<rect x="194.2" y="416" class="st33" width="8.1" height="9.6"/>
		<rect x="229.4" y="416" class="st33" width="8.1" height="9.6"/>
		<rect x="350.9" y="408.2" class="st33" width="15.1" height="13.9"/>
		<rect x="391.4" y="408.2" class="st33" width="15.5" height="12.8"/>
		<line class="st33" x1="345.3" y1="397.8" x2="411.6" y2="397.8"/>
		<polyline class="st33" points="180,340.4 180,308 102.3,308 102.3,340.4 		"/>
		<polyline class="st33" points="180,341 180,434.4 102.3,434.4 102.3,341 		"/>
		<rect x="116" y="373.5" class="st33" width="9.3" height="13.9"/>
		<rect x="136.1" y="373.5" class="st33" width="9.3" height="13.9"/>
		<rect x="136.1" y="407.6" class="st33" width="9.3" height="26.8"/>
		<rect x="156.5" y="373.5" class="st33" width="9.3" height="13.9"/>
		<rect x="116" y="352.4" class="st33" width="9.3" height="13.9"/>
		<rect x="136.1" y="352.4" class="st33" width="9.3" height="13.9"/>
		<rect x="156.5" y="352.4" class="st33" width="9.3" height="13.9"/>
		<rect x="113.5" y="408.2" class="st33" width="15.1" height="13.9"/>
		<rect x="154" y="408.2" class="st33" width="15.5" height="12.8"/>
		<line class="st33" x1="107.9" y1="397.8" x2="174.2" y2="397.8"/>
		<polyline class="st57" points="149.1,342 149.1,322.1 140.2,318.1 131.2,322.1 131.2,342 		"/>
		<line class="st33" x1="140.2" y1="329.4" x2="140.2" y2="335.2"/>
		<line class="st33" x1="295.6" y1="314.8" x2="295.6" y2="323.1"/>
		<polygon class="st33" points="295.7,332.8 291.9,339.6 299.4,339.6 		"/>
		<line class="st33" x1="281.6" y1="348.3" x2="289.3" y2="348.3"/>
		<line class="st33" x1="301.2" y1="348.3" x2="308.9" y2="348.3"/>
		<line class="st33" x1="339.7" y1="334.1" x2="416.8" y2="334.1"/>
		<line class="st33" x1="102.3" y1="334.1" x2="131.2" y2="334.1"/>
		<line class="st33" x1="150.7" y1="334.1" x2="179.5" y2="334.1"/>
		<line class="st33" x1="102.2" y1="342" x2="131" y2="342"/>
		<line class="st33" x1="149.1" y1="342" x2="179.4" y2="342"/>
		<rect x="180.1" y="304.4" class="st33" width="71.4" height="130"/>
		<rect x="180.1" y="263.4" class="st33" width="71.4" height="39.9"/>
		<line class="st33" x1="180.1" y1="297.4" x2="251.5" y2="297.4"/>
		<line class="st33" x1="180.1" y1="406.7" x2="251.5" y2="406.7"/>
		<rect x="211.9" y="249.2" class="st57" width="7.9" height="19.7"/>
		<rect x="401.1" y="296.5" class="st57" width="7.9" height="19.7"/>
		<rect x="189.3" y="281.7" class="st57" width="20.1" height="15.8"/>
		<rect x="195.3" y="288.9" class="st18" width="8.2" height="8.5"/>
		<rect x="222.4" y="281.7" class="st57" width="20.1" height="15.8"/>
		<rect x="228.4" y="288.9" class="st18" width="8.2" height="8.5"/>
	</g>
</g>
</svg>
