<?xml version="1.0" encoding="utf-8"?>
<!-- Generator: Adobe Illustrator 19.1.0, SVG Export Plug-In . SVG Version: 6.00 Build 0)  -->
<svg version="1.1" xmlns="http://www.w3.org/2000/svg" xmlns:xlink="http://www.w3.org/1999/xlink" x="0px" y="0px"
	 viewBox="0 0 474.2 413.2" style="enable-background:new 0 0 474.2 413.2;" xml:space="preserve">
<style type="text/css">
	.st0{fill:#EDEDED;}
	.st1{fill:#59595A;}
	.st2{fill:none;stroke:#59595B;stroke-width:5;stroke-linejoin:round;stroke-miterlimit:10;}
	.st3{fill:none;stroke:#59595B;stroke-width:4.1457;stroke-linejoin:round;stroke-miterlimit:10;}
	.st4{fill:#F6F5F5;}
	.st5{fill:#59595B;}
	.st6{fill:none;stroke:#59595B;stroke-width:4.0874;stroke-linecap:round;stroke-linejoin:round;stroke-miterlimit:10;}
	.st7{fill:none;stroke:#59595B;stroke-width:5;stroke-linecap:round;stroke-linejoin:round;stroke-miterlimit:10;}
	.st8{fill:#EFEFEF;stroke:#59595B;stroke-width:5;stroke-linecap:round;stroke-linejoin:round;stroke-miterlimit:10;}
	.st9{fill:#EDECED;}
	.st10{fill:none;stroke:#5A5B5B;stroke-width:5;stroke-miterlimit:10;}
	.st11{fill:none;stroke:#5A5B5C;stroke-width:5;stroke-linecap:round;stroke-linejoin:round;stroke-miterlimit:10;}
	.st12{fill:#EDECED;stroke:#5A5B5C;stroke-width:5;stroke-linecap:round;stroke-linejoin:round;stroke-miterlimit:10;}
	.st13{fill:#5A5B5C;stroke:#5A5B5C;stroke-width:5;stroke-linecap:round;stroke-linejoin:round;stroke-miterlimit:10;}
	.st14{fill:none;stroke:#5A5B5B;stroke-width:5;stroke-linecap:round;stroke-linejoin:round;stroke-miterlimit:10;}
	.st15{fill:#F0EFEF;stroke:#5A5B5B;stroke-width:5;stroke-linecap:round;stroke-linejoin:round;stroke-miterlimit:10;}
	.st16{fill:#E8E8E8;stroke:#5A5B5C;stroke-width:5;stroke-linecap:round;stroke-linejoin:round;stroke-miterlimit:10;}
	.st17{fill:#FFFFFF;stroke:#5A5B5B;stroke-width:5;stroke-linecap:round;stroke-linejoin:round;stroke-miterlimit:10;}
	.st18{fill:#EFEFEF;stroke:#59595A;stroke-width:5;stroke-linecap:round;stroke-linejoin:round;stroke-miterlimit:10;}
	.st19{fill:none;stroke:#59595A;stroke-width:5;stroke-miterlimit:10;}
	.st20{fill:none;stroke:#59595A;stroke-width:5;stroke-linecap:round;stroke-miterlimit:10;}
	.st21{fill:none;stroke:#59595A;stroke-width:5;stroke-linejoin:round;stroke-miterlimit:10;}
	.st22{fill:none;stroke:#59595A;stroke-width:4.539;stroke-miterlimit:10;}
	.st23{fill:none;stroke:#59595A;stroke-width:4.1349;stroke-miterlimit:10;}
	.st24{fill:none;stroke:#59595A;stroke-width:3.9798;stroke-miterlimit:10;}
	.st25{fill:none;stroke:#58595B;stroke-width:5;stroke-miterlimit:10;}
	.st26{fill:none;stroke:#58595B;stroke-width:5;stroke-linejoin:round;stroke-miterlimit:10;}
	.st27{fill:none;stroke:#58595B;stroke-width:5;stroke-linecap:round;stroke-linejoin:round;stroke-miterlimit:10;}
	.st28{fill:none;stroke:#59595B;stroke-width:4.2054;stroke-linecap:round;stroke-linejoin:round;stroke-miterlimit:10;}
	.st29{fill:none;stroke:#59595B;stroke-width:5;stroke-miterlimit:10;}
	.st30{fill:#EDECEC;stroke:#59595B;stroke-width:5;stroke-linecap:round;stroke-linejoin:round;stroke-miterlimit:10;}
	.st31{fill:#EDEDED;stroke:#59595A;stroke-width:5;stroke-miterlimit:10;}
	.st32{fill:#EDEDED;stroke:#59595B;stroke-width:5;stroke-linecap:round;stroke-linejoin:round;stroke-miterlimit:10;}
	.st33{fill:none;stroke:#59595A;stroke-width:5;stroke-linecap:round;stroke-linejoin:round;stroke-miterlimit:10;}
	.st34{fill:#58595B;}
	.st35{fill:#59595A;stroke:#EDEDED;stroke-width:3;stroke-miterlimit:10;}
	.st36{fill:#59595A;stroke:#EDEDED;stroke-miterlimit:10;}
	.st37{fill:#EFEFEF;stroke:#59595A;stroke-width:5;stroke-linecap:round;stroke-miterlimit:10;}
	.st38{fill:#EDEDED;stroke:#59595A;stroke-width:5;stroke-linecap:round;stroke-linejoin:round;stroke-miterlimit:10;}
	.st39{fill-rule:evenodd;clip-rule:evenodd;fill:#59595B;}
	
		.st40{fill-rule:evenodd;clip-rule:evenodd;fill:none;stroke:#59595B;stroke-width:5;stroke-linecap:round;stroke-linejoin:round;stroke-miterlimit:10;}
	.st41{fill:none;stroke:#5A5B5C;stroke-width:4.1457;stroke-linejoin:round;stroke-miterlimit:10;}
	.st42{fill:none;stroke:#5A5B5B;stroke-width:4.539;stroke-miterlimit:10;}
	.st43{fill:none;stroke:#5A5B5B;stroke-width:4.1349;stroke-miterlimit:10;}
	.st44{fill:none;stroke:#5A5B5B;stroke-width:3.9798;stroke-miterlimit:10;}
	.st45{fill:none;stroke:#5A5B5C;stroke-width:4;stroke-linecap:round;stroke-linejoin:round;stroke-miterlimit:10;}
	.st46{fill:none;stroke:#595A5C;stroke-width:5;stroke-linecap:round;stroke-linejoin:round;stroke-miterlimit:10;}
	.st47{fill:#5A5B5C;}
	.st48{fill:none;stroke:#595A5C;stroke-width:5;stroke-linejoin:round;stroke-miterlimit:10;}
	.st49{fill:none;stroke:#5A5B5B;stroke-width:5;stroke-linecap:round;stroke-miterlimit:10;}
	.st50{fill:#5A5B5B;}
	.st51{fill:#5A5B5C;stroke:#5A5B5C;stroke-miterlimit:10;}
	.st52{fill:#595A5C;}
	.st53{fill:#EDECED;stroke:#5A5B5B;stroke-width:5;stroke-miterlimit:10;}
	.st54{fill:#FFFFFF;stroke:#5A5B5B;stroke-width:5;stroke-miterlimit:10;}
	.st55{fill:#FFFFFF;stroke:#5A5B5C;stroke-width:5;stroke-linecap:round;stroke-linejoin:round;stroke-miterlimit:10;}
	.st56{fill:#FFFFFF;stroke:#59595B;stroke-width:5;stroke-linecap:round;stroke-linejoin:round;stroke-miterlimit:10;}
	.st57{fill:#FFFFFF;stroke:#59595A;stroke-width:5;stroke-linecap:round;stroke-linejoin:round;stroke-miterlimit:10;}
	.st58{fill:#FFFFFF;stroke:#59595A;stroke-width:5;stroke-miterlimit:10;}
	.st59{fill:none;stroke:#59595B;stroke-width:3.8573;stroke-linejoin:round;stroke-miterlimit:10;}
	.st60{fill:#EDEDED;stroke:#59595B;stroke-width:5;stroke-miterlimit:10;}
	.st61{fill:none;stroke:#59595B;stroke-width:5;stroke-linecap:round;stroke-miterlimit:10;}
	.st62{fill:#59595B;stroke:#59595A;stroke-width:5;stroke-linecap:round;stroke-linejoin:round;stroke-miterlimit:10;}
	.st63{fill:#FFFFFF;stroke:#59595B;stroke-width:5;stroke-miterlimit:10;}
	.st64{fill:#EAEAEA;stroke:#59595A;stroke-width:5;stroke-linecap:round;stroke-linejoin:round;stroke-miterlimit:10;}
	.st65{fill:#EAEAEA;stroke:#59595A;stroke-width:5;stroke-linecap:round;stroke-miterlimit:10;}
</style>
<g id="Background">
</g>
<g id="_x23_Tower_x5F_Bridge">
</g>
<g id="_x23_Washington_x5F_Mountain">
</g>
<g id="_x23_London_x5F_Eye">
</g>
<g id="_x23_Eiffel_x5F_Tower">
	<g id="New_Symbol">
	</g>
	<g>
		<g>
			<line class="st19" x1="474.2" y1="400.8" x2="0" y2="400.8"/>
			<line class="st19" x1="427.3" y1="410.7" x2="33.7" y2="410.7"/>
		</g>
		<g>
			<line class="st7" x1="222.8" y1="184.7" x2="33" y2="374.6"/>
			<line class="st7" x1="32.3" y1="184.7" x2="223.9" y2="376.3"/>
			<circle class="st32" cx="127.6" cy="280" r="4.8"/>
			<path class="st7" d="M144.1,292.9c2.8-3.6,4.4-8,4.4-12.9c0-11.6-9.4-20.9-20.9-20.9s-20.9,9.4-20.9,20.9c0,4.9,1.7,9.3,4.4,12.9
				H144.1z"/>
			<polygon class="st7" points="155.8,399.9 99.8,399.9 111.1,292.9 143.7,292.9 			"/>
			<g>
				
					<rect x="114.3" y="195.7" transform="matrix(0.7071 -0.7071 0.7071 0.7071 -99.0033 181.0321)" class="st32" width="109.5" height="28.6"/>
				<line class="st32" x1="129.3" y1="229.5" x2="149.5" y2="249.8"/>
				<line class="st32" x1="139" y1="219.8" x2="159.2" y2="240.1"/>
				<line class="st32" x1="148.6" y1="210.1" x2="168.9" y2="230.4"/>
				<line class="st32" x1="158.3" y1="200.5" x2="178.6" y2="220.7"/>
				<line class="st32" x1="168" y1="190.8" x2="188.3" y2="211"/>
				<line class="st32" x1="177.7" y1="181.1" x2="197.9" y2="201.4"/>
				<line class="st32" x1="187.4" y1="171.4" x2="207.6" y2="191.7"/>
				<line class="st32" x1="130.3" y1="248.8" x2="207.8" y2="171.3"/>
				
					<rect x="126.4" y="219.3" transform="matrix(0.7071 -0.7071 0.7071 0.7071 -104.0237 193.1525)" class="st32" width="109.5" height="5.6"/>
			</g>
			<g>
				
					<rect x="2.9" y="224.2" transform="matrix(-0.7071 -0.7071 0.7071 -0.7071 -70.1982 448.0317)" class="st32" width="109.5" height="28.6"/>
				<line class="st7" x1="77.2" y1="278.3" x2="97.4" y2="258"/>
				<line class="st7" x1="67.5" y1="268.6" x2="87.8" y2="248.4"/>
				<line class="st7" x1="57.8" y1="258.9" x2="78.1" y2="238.7"/>
				<line class="st7" x1="48.1" y1="249.3" x2="68.4" y2="229"/>
				<line class="st7" x1="38.5" y1="239.6" x2="58.7" y2="219.3"/>
				<line class="st7" x1="28.8" y1="229.9" x2="49" y2="209.6"/>
				<line class="st7" x1="19.1" y1="220.2" x2="39.3" y2="199.9"/>
				<line class="st7" x1="96.4" y1="277.3" x2="19" y2="199.8"/>
				
					<rect x="15" y="223.6" transform="matrix(-0.7071 -0.7071 0.7071 -0.7071 -40.9372 435.9113)" class="st32" width="109.5" height="5.6"/>
			</g>
			<line class="st7" x1="102.2" y1="388.8" x2="120.2" y2="370.9"/>
			<line class="st7" x1="104.4" y1="372.8" x2="118.4" y2="358.7"/>
			<line class="st7" x1="105.7" y1="356.8" x2="116.1" y2="346.4"/>
			<line class="st7" x1="107.8" y1="340.8" x2="114" y2="334.7"/>
			<line class="st7" x1="109.2" y1="327.3" x2="114" y2="321.5"/>
			<line class="st7" x1="127.6" y1="399.9" x2="127.6" y2="292.5"/>
			<g>
				
					<rect x="32.1" y="334.9" transform="matrix(-0.7071 0.7071 -0.7071 -0.7071 395.2386 534.6702)" class="st32" width="109.5" height="28.6"/>
				<line class="st7" x1="126.6" y1="329.7" x2="106.4" y2="309.4"/>
				<line class="st7" x1="116.9" y1="339.4" x2="96.7" y2="319.1"/>
				<line class="st7" x1="107.3" y1="349.1" x2="87" y2="328.8"/>
				<line class="st7" x1="97.6" y1="358.7" x2="77.3" y2="338.5"/>
				<line class="st7" x1="87.9" y1="368.4" x2="67.6" y2="348.2"/>
				<line class="st7" x1="78.2" y1="378.1" x2="58" y2="357.9"/>
				<line class="st7" x1="68.5" y1="387.8" x2="48.3" y2="367.5"/>
				<line class="st7" x1="125.6" y1="310.5" x2="48.2" y2="387.9"/>
				
					<rect x="20" y="334.3" transform="matrix(-0.7071 0.7071 -0.7071 -0.7071 365.9776 522.5498)" class="st32" width="109.5" height="5.6"/>
			</g>
			<g>
				
					<rect x="143.8" y="308.3" transform="matrix(0.7071 0.7071 -0.7071 0.7071 286.2538 -45.8928)" class="st32" width="109.5" height="28.6"/>
				<line class="st7" x1="179" y1="282.8" x2="158.8" y2="303.1"/>
				<line class="st7" x1="188.7" y1="292.5" x2="168.5" y2="312.8"/>
				<line class="st7" x1="198.4" y1="302.2" x2="178.1" y2="322.5"/>
				<line class="st7" x1="208.1" y1="311.9" x2="187.8" y2="332.1"/>
				<line class="st7" x1="217.8" y1="321.6" x2="197.5" y2="341.8"/>
				<line class="st7" x1="227.4" y1="331.3" x2="207.2" y2="351.5"/>
				<line class="st7" x1="237.1" y1="340.9" x2="216.9" y2="361.2"/>
				<line class="st7" x1="159.8" y1="283.9" x2="237.3" y2="361.3"/>
				
					<rect x="131.6" y="331.9" transform="matrix(0.7071 0.7071 -0.7071 0.7071 291.2742 -33.7725)" class="st32" width="109.5" height="5.6"/>
			</g>
			<line class="st7" x1="153.7" y1="388.8" x2="135.7" y2="370.9"/>
			<line class="st7" x1="151.6" y1="372.8" x2="137.5" y2="358.7"/>
			<line class="st7" x1="150.2" y1="356.8" x2="139.8" y2="346.4"/>
			<line class="st7" x1="148.1" y1="340.8" x2="141.9" y2="334.7"/>
			<line class="st7" x1="146.7" y1="327.3" x2="141.9" y2="321.5"/>
		</g>
		<path class="st2" d="M295.3,105.2c-0.2-3.2-3-6.6-6.5-6.6c-3.4,0-6.3,3.4-6.5,6.6H295.3z"/>
		<path class="st2" d="M369.8,90.5c-0.6-7.6-8.3-14.6-17.7-14.6c-9.4,0-17.1,7-17.7,14.6"/>
		<path class="st2" d="M423.6,105.2c-0.2-3.2-3-6.6-6.5-6.6c-3.4,0-6.3,3.4-6.5,6.6H423.6z"/>
		<path class="st2" d="M358.1,64.5c-0.2-3.2-3-6.6-6.5-6.6c-3.4,0-6.3,3.4-6.5,6.6H358.1z"/>
		<line class="st2" x1="334.3" y1="105.2" x2="334.3" y2="89.5"/>
		<line class="st2" x1="369.8" y1="89.5" x2="369.8" y2="105.2"/>
		<polyline class="st2" points="401.5,105.2 401.5,115.6 304.8,115.6 304.8,105.2 		"/>
		<line class="st7" x1="304.8" y1="105.2" x2="334.3" y2="105.2"/>
		<line class="st7" x1="369.8" y1="105.2" x2="401.5" y2="105.2"/>
		<line class="st2" x1="304.8" y1="105.2" x2="334.3" y2="90.5"/>
		<line class="st2" x1="369.8" y1="90.5" x2="401.5" y2="105.2"/>
		<line class="st7" x1="325.3" y1="95" x2="325.3" y2="100.3"/>
		<line class="st7" x1="378.5" y1="94.7" x2="378.5" y2="100"/>
		<circle class="st2" cx="352" cy="92.5" r="7.8"/>
		<rect x="343.2" y="107.1" class="st2" width="17" height="8.5"/>
		<rect x="289.8" y="141" class="st56" width="128" height="259.9"/>
		<rect x="341.1" y="350.5" class="st56" width="25.3" height="49.6"/>
		<rect x="303.5" y="350.5" class="st56" width="25.3" height="27.5"/>
		<rect x="379.5" y="350.5" class="st56" width="25.3" height="27.5"/>
		<rect x="303.5" y="302.8" class="st56" width="25.3" height="27.5"/>
		<rect x="379.5" y="302.8" class="st56" width="25.3" height="27.5"/>
		<rect x="303.5" y="330" class="st56" width="25.3" height="8.4"/>
		<rect x="341.1" y="302.8" class="st56" width="25.3" height="27.5"/>
		<rect x="341.1" y="330" class="st56" width="25.3" height="8.4"/>
		<rect x="379.5" y="330" class="st56" width="25.3" height="8.4"/>
		<rect x="303.5" y="253.6" class="st56" width="25.3" height="27.5"/>
		<rect x="379.5" y="253.6" class="st56" width="25.3" height="27.5"/>
		<rect x="303.5" y="280.9" class="st56" width="25.3" height="8.4"/>
		<rect x="341.1" y="253.6" class="st56" width="25.3" height="27.5"/>
		<rect x="341.1" y="280.9" class="st56" width="25.3" height="8.4"/>
		<rect x="379.5" y="280.9" class="st56" width="25.3" height="8.4"/>
		<rect x="303.5" y="204.5" class="st56" width="25.3" height="27.5"/>
		<rect x="379.5" y="204.5" class="st56" width="25.3" height="27.5"/>
		<rect x="303.5" y="231.7" class="st56" width="25.3" height="8.4"/>
		<rect x="341.1" y="204.5" class="st56" width="25.3" height="27.5"/>
		<rect x="341.1" y="231.7" class="st56" width="25.3" height="8.4"/>
		<rect x="379.5" y="231.7" class="st56" width="25.3" height="8.4"/>
		<rect x="303.5" y="155.4" class="st56" width="25.3" height="27.5"/>
		<rect x="379.5" y="155.4" class="st56" width="25.3" height="27.5"/>
		<rect x="303.5" y="182.6" class="st56" width="25.3" height="8.4"/>
		<rect x="341.1" y="155.4" class="st56" width="25.3" height="27.5"/>
		<rect x="341.1" y="182.6" class="st56" width="25.3" height="8.4"/>
		<rect x="379.5" y="182.6" class="st56" width="25.3" height="8.4"/>
		<rect x="303.5" y="377.1" class="st56" width="25.3" height="8.4"/>
		<rect x="379.5" y="377.1" class="st56" width="25.3" height="8.4"/>
		<line class="st7" x1="353.8" y1="350.5" x2="353.8" y2="400"/>
		<line class="st7" x1="316.2" y1="350.5" x2="316.2" y2="377"/>
		<line class="st7" x1="392.2" y1="350.5" x2="392.2" y2="377"/>
		<line class="st7" x1="392.2" y1="303.3" x2="392.2" y2="329.8"/>
		<line class="st7" x1="353.8" y1="303.3" x2="353.8" y2="329.8"/>
		<line class="st7" x1="316.2" y1="303.3" x2="316.2" y2="329.8"/>
		<line class="st7" x1="392.2" y1="254.1" x2="392.2" y2="280.6"/>
		<line class="st7" x1="353.8" y1="254.1" x2="353.8" y2="280.6"/>
		<line class="st7" x1="316.2" y1="254.1" x2="316.2" y2="280.6"/>
		<line class="st7" x1="392.2" y1="205" x2="392.2" y2="231.5"/>
		<line class="st7" x1="353.8" y1="205" x2="353.8" y2="231.5"/>
		<line class="st7" x1="316.2" y1="205" x2="316.2" y2="231.5"/>
		<line class="st7" x1="392.2" y1="155.9" x2="392.2" y2="182.4"/>
		<line class="st7" x1="353.8" y1="155.9" x2="353.8" y2="182.4"/>
		<line class="st7" x1="316.2" y1="155.9" x2="316.2" y2="182.4"/>
		<rect x="289.8" y="130" class="st56" width="128" height="11"/>
		<rect x="316.5" y="130" class="st56" width="6.8" height="11"/>
		<rect x="300.5" y="130" class="st56" width="6.8" height="11"/>
		<rect x="333.1" y="130" class="st56" width="6.8" height="11"/>
		<rect x="349.8" y="130" class="st56" width="6.8" height="11"/>
		<rect x="366.4" y="130" class="st56" width="6.8" height="11"/>
		<rect x="383.1" y="130" class="st56" width="6.8" height="11"/>
		<rect x="399.7" y="130" class="st56" width="6.8" height="11"/>
		<rect x="282.8" y="122" class="st56" width="140.3" height="8"/>
		<rect x="282.8" y="115.6" class="st56" width="140.3" height="6.3"/>
		<rect x="282.8" y="105.2" class="st56" width="12.1" height="10.4"/>
		<rect x="411.2" y="105.2" class="st56" width="11.9" height="10.4"/>
		<rect x="345.7" y="64.5" class="st56" width="11.9" height="10.4"/>
		<line class="st7" x1="341.1" y1="359.1" x2="366.5" y2="359.1"/>
		<line class="st7" x1="341.1" y1="367.3" x2="366.5" y2="367.3"/>
		<line class="st7" x1="341.1" y1="375.5" x2="366.5" y2="375.5"/>
		<line class="st7" x1="341.1" y1="383.6" x2="366.5" y2="383.6"/>
		<line class="st7" x1="341.1" y1="391.8" x2="366.5" y2="391.8"/>
		<line class="st7" x1="311.3" y1="377.1" x2="311.3" y2="385.5"/>
		<line class="st7" x1="320.7" y1="377.1" x2="320.7" y2="385.5"/>
		<line class="st7" x1="387.5" y1="377.1" x2="387.5" y2="385.5"/>
		<line class="st7" x1="396.9" y1="377.1" x2="396.9" y2="385.5"/>
		<line class="st7" x1="387.5" y1="330" x2="387.5" y2="338.4"/>
		<line class="st7" x1="396.9" y1="330" x2="396.9" y2="338.4"/>
		<line class="st7" x1="387.5" y1="280.9" x2="387.5" y2="289.2"/>
		<line class="st7" x1="396.9" y1="280.9" x2="396.9" y2="289.2"/>
		<line class="st7" x1="387.5" y1="233" x2="387.5" y2="240.1"/>
		<line class="st7" x1="396.9" y1="233" x2="396.9" y2="240.1"/>
		<line class="st7" x1="387.5" y1="182.9" x2="387.5" y2="190.3"/>
		<line class="st7" x1="396.9" y1="182.9" x2="396.9" y2="190.3"/>
		<line class="st7" x1="349.3" y1="182.9" x2="349.3" y2="190.3"/>
		<line class="st7" x1="358.7" y1="182.9" x2="358.7" y2="190.3"/>
		<line class="st7" x1="311.5" y1="182.9" x2="311.5" y2="190.3"/>
		<line class="st7" x1="320.8" y1="182.9" x2="320.8" y2="190.3"/>
		<line class="st7" x1="311.5" y1="232.2" x2="311.5" y2="239.6"/>
		<line class="st7" x1="320.8" y1="232.2" x2="320.8" y2="239.6"/>
		<line class="st7" x1="349.1" y1="232.2" x2="349.1" y2="239.6"/>
		<line class="st7" x1="358.5" y1="232.2" x2="358.5" y2="239.6"/>
		<line class="st7" x1="349.1" y1="281.4" x2="349.1" y2="288.7"/>
		<line class="st7" x1="358.5" y1="281.4" x2="358.5" y2="288.7"/>
		<line class="st7" x1="311.5" y1="281.4" x2="311.5" y2="288.7"/>
		<line class="st7" x1="320.8" y1="281.4" x2="320.8" y2="288.7"/>
		<line class="st7" x1="311.5" y1="330.5" x2="311.5" y2="337.9"/>
		<line class="st7" x1="320.8" y1="330.5" x2="320.8" y2="337.9"/>
		<line class="st7" x1="349.1" y1="330.5" x2="349.1" y2="337.9"/>
		<line class="st7" x1="358.5" y1="330.5" x2="358.5" y2="337.9"/>
		<g>
			<path class="st7" d="M95.7,69c14.5-8.5,24.3-2,25.5,10.2s-13.3,14.7-13.3,14.7H46.6c0,0-12.6-3.7-11.3-14.7
				c1.6-14.1,15.2-14.1,20-7"/>
			<path class="st7" d="M51.1,68.4c-5.9-7,5.9-23.2,19.4-14.2"/>
			<path class="st7" d="M68.7,59.8c0,0,5.7-17.9,22.5-13.6c14.5,3.7,12.5,18.9,12.5,18.9"/>
		</g>
		<g>
			<path class="st7" d="M207.9,99.8c5.7-6,15.6-1,16,7c0.4,8-8,10.3-8,10.3h-30c0,0-8.3-2.7-6.7-11.3s12-7,12.7-5.3"/>
			<path class="st7" d="M214.6,97.2c0,0-1.5-11.4-13.1-10.4c-11.6,1-11.1,12.7-11.1,12.7"/>
		</g>
		<g>
			<path class="st7" d="M387.6,21.3c-8.2-8.6-22.5-1.4-23,10.1s11.5,14.9,11.5,14.9h43.2c0,0,12-3.8,9.6-16.3
				c-2.4-12.5-17.3-10.1-18.2-7.7"/>
			<path class="st7" d="M378,17.5c0,0,2.2-16.3,18.9-14.9c16.6,1.4,16,18.3,16,18.3"/>
		</g>
	</g>
</g>
<g id="_x23_Forbidden_x5F_City">
</g>
<g id="_x23_Sydney_x5F_Opera_x5F_House">
</g>
<g id="_x23_Space_x5F_Needle">
</g>
<g id="_x23_Pyramid">
</g>
<g id="_x23_The_x5F_Pantheon">
</g>
<g id="_x23_Emirates_x5F_Towers">
</g>
<g id="_x23_China_x5F_wall">
	<g id="_x23_Empire_x5F_State_x5F_Building">
	</g>
</g>
</svg>
