<?xml version="1.0" encoding="utf-8"?>
<!-- Generator: Adobe Illustrator 19.1.0, SVG Export Plug-In . SVG Version: 6.00 Build 0)  -->
<svg version="1.1" xmlns="http://www.w3.org/2000/svg" xmlns:xlink="http://www.w3.org/1999/xlink" x="0px" y="0px"
	 viewBox="0 0 479.2 498" style="enable-background:new 0 0 479.2 498;" xml:space="preserve">
<style type="text/css">
	.st0{fill:#EDEDED;}
	.st1{fill:#59595A;}
	.st2{fill:none;stroke:#59595B;stroke-width:5;stroke-linejoin:round;stroke-miterlimit:10;}
	.st3{fill:none;stroke:#59595B;stroke-width:4.1457;stroke-linejoin:round;stroke-miterlimit:10;}
	.st4{fill:#F6F5F5;}
	.st5{fill:#59595B;}
	.st6{fill:none;stroke:#59595B;stroke-width:4.0874;stroke-linecap:round;stroke-linejoin:round;stroke-miterlimit:10;}
	.st7{fill:none;stroke:#59595B;stroke-width:5;stroke-linecap:round;stroke-linejoin:round;stroke-miterlimit:10;}
	.st8{fill:#EFEFEF;stroke:#59595B;stroke-width:5;stroke-linecap:round;stroke-linejoin:round;stroke-miterlimit:10;}
	.st9{fill:#EDECED;}
	.st10{fill:none;stroke:#5A5B5B;stroke-width:5;stroke-miterlimit:10;}
	.st11{fill:none;stroke:#5A5B5C;stroke-width:5;stroke-linecap:round;stroke-linejoin:round;stroke-miterlimit:10;}
	.st12{fill:#EDECED;stroke:#5A5B5C;stroke-width:5;stroke-linecap:round;stroke-linejoin:round;stroke-miterlimit:10;}
	.st13{fill:#5A5B5C;stroke:#5A5B5C;stroke-width:5;stroke-linecap:round;stroke-linejoin:round;stroke-miterlimit:10;}
	.st14{fill:none;stroke:#5A5B5B;stroke-width:5;stroke-linecap:round;stroke-linejoin:round;stroke-miterlimit:10;}
	.st15{fill:#F0EFEF;stroke:#5A5B5B;stroke-width:5;stroke-linecap:round;stroke-linejoin:round;stroke-miterlimit:10;}
	.st16{fill:#E8E8E8;stroke:#5A5B5C;stroke-width:5;stroke-linecap:round;stroke-linejoin:round;stroke-miterlimit:10;}
	.st17{fill:#FFFFFF;stroke:#5A5B5B;stroke-width:5;stroke-linecap:round;stroke-linejoin:round;stroke-miterlimit:10;}
	.st18{fill:#EFEFEF;stroke:#59595A;stroke-width:5;stroke-linecap:round;stroke-linejoin:round;stroke-miterlimit:10;}
	.st19{fill:none;stroke:#59595A;stroke-width:5;stroke-miterlimit:10;}
	.st20{fill:none;stroke:#59595A;stroke-width:5;stroke-linecap:round;stroke-miterlimit:10;}
	.st21{fill:none;stroke:#59595A;stroke-width:5;stroke-linejoin:round;stroke-miterlimit:10;}
	.st22{fill:none;stroke:#59595A;stroke-width:4.539;stroke-miterlimit:10;}
	.st23{fill:none;stroke:#59595A;stroke-width:4.1349;stroke-miterlimit:10;}
	.st24{fill:none;stroke:#59595A;stroke-width:3.9798;stroke-miterlimit:10;}
	.st25{fill:none;stroke:#58595B;stroke-width:5;stroke-miterlimit:10;}
	.st26{fill:none;stroke:#58595B;stroke-width:5;stroke-linejoin:round;stroke-miterlimit:10;}
	.st27{fill:none;stroke:#58595B;stroke-width:5;stroke-linecap:round;stroke-linejoin:round;stroke-miterlimit:10;}
	.st28{fill:none;stroke:#59595B;stroke-width:4.2054;stroke-linecap:round;stroke-linejoin:round;stroke-miterlimit:10;}
	.st29{fill:none;stroke:#59595B;stroke-width:5;stroke-miterlimit:10;}
	.st30{fill:#EDECEC;stroke:#59595B;stroke-width:5;stroke-linecap:round;stroke-linejoin:round;stroke-miterlimit:10;}
	.st31{fill:#EDEDED;stroke:#59595A;stroke-width:5;stroke-miterlimit:10;}
	.st32{fill:#EDEDED;stroke:#59595B;stroke-width:5;stroke-linecap:round;stroke-linejoin:round;stroke-miterlimit:10;}
	.st33{fill:none;stroke:#59595A;stroke-width:5;stroke-linecap:round;stroke-linejoin:round;stroke-miterlimit:10;}
	.st34{fill:#58595B;}
	.st35{fill:#59595A;stroke:#EDEDED;stroke-width:3;stroke-miterlimit:10;}
	.st36{fill:#59595A;stroke:#EDEDED;stroke-miterlimit:10;}
	.st37{fill:#EFEFEF;stroke:#59595A;stroke-width:5;stroke-linecap:round;stroke-miterlimit:10;}
	.st38{fill:#EDEDED;stroke:#59595A;stroke-width:5;stroke-linecap:round;stroke-linejoin:round;stroke-miterlimit:10;}
	.st39{fill-rule:evenodd;clip-rule:evenodd;fill:#59595B;}
	
		.st40{fill-rule:evenodd;clip-rule:evenodd;fill:none;stroke:#59595B;stroke-width:5;stroke-linecap:round;stroke-linejoin:round;stroke-miterlimit:10;}
	.st41{fill:none;stroke:#5A5B5C;stroke-width:4.1457;stroke-linejoin:round;stroke-miterlimit:10;}
	.st42{fill:none;stroke:#5A5B5B;stroke-width:4.539;stroke-miterlimit:10;}
	.st43{fill:none;stroke:#5A5B5B;stroke-width:4.1349;stroke-miterlimit:10;}
	.st44{fill:none;stroke:#5A5B5B;stroke-width:3.9798;stroke-miterlimit:10;}
	.st45{fill:none;stroke:#5A5B5C;stroke-width:4;stroke-linecap:round;stroke-linejoin:round;stroke-miterlimit:10;}
	.st46{fill:none;stroke:#595A5C;stroke-width:5;stroke-linecap:round;stroke-linejoin:round;stroke-miterlimit:10;}
	.st47{fill:#5A5B5C;}
	.st48{fill:none;stroke:#595A5C;stroke-width:5;stroke-linejoin:round;stroke-miterlimit:10;}
	.st49{fill:none;stroke:#5A5B5B;stroke-width:5;stroke-linecap:round;stroke-miterlimit:10;}
	.st50{fill:#5A5B5B;}
	.st51{fill:#5A5B5C;stroke:#5A5B5C;stroke-miterlimit:10;}
	.st52{fill:#595A5C;}
	.st53{fill:#EDECED;stroke:#5A5B5B;stroke-width:5;stroke-miterlimit:10;}
	.st54{fill:#FFFFFF;stroke:#5A5B5B;stroke-width:5;stroke-miterlimit:10;}
	.st55{fill:#FFFFFF;stroke:#5A5B5C;stroke-width:5;stroke-linecap:round;stroke-linejoin:round;stroke-miterlimit:10;}
	.st56{fill:#FFFFFF;stroke:#59595B;stroke-width:5;stroke-linecap:round;stroke-linejoin:round;stroke-miterlimit:10;}
	.st57{fill:#FFFFFF;stroke:#59595A;stroke-width:5;stroke-linecap:round;stroke-linejoin:round;stroke-miterlimit:10;}
	.st58{fill:#FFFFFF;stroke:#59595A;stroke-width:5;stroke-miterlimit:10;}
	.st59{fill:none;stroke:#59595B;stroke-width:3.8573;stroke-linejoin:round;stroke-miterlimit:10;}
	.st60{fill:#EDEDED;stroke:#59595B;stroke-width:5;stroke-miterlimit:10;}
	.st61{fill:none;stroke:#59595B;stroke-width:5;stroke-linecap:round;stroke-miterlimit:10;}
	.st62{fill:#59595B;stroke:#59595A;stroke-width:5;stroke-linecap:round;stroke-linejoin:round;stroke-miterlimit:10;}
	.st63{fill:#FFFFFF;stroke:#59595B;stroke-width:5;stroke-miterlimit:10;}
	.st64{fill:#EAEAEA;stroke:#59595A;stroke-width:5;stroke-linecap:round;stroke-linejoin:round;stroke-miterlimit:10;}
	.st65{fill:#EAEAEA;stroke:#59595A;stroke-width:5;stroke-linecap:round;stroke-miterlimit:10;}
</style>
<g id="Background">
</g>
<g id="_x23_Tower_x5F_Bridge">
</g>
<g id="_x23_Washington_x5F_Mountain">
</g>
<g id="_x23_London_x5F_Eye">
</g>
<g id="_x23_Eiffel_x5F_Tower">
	<g id="New_Symbol">
	</g>
	<g>
		<g>
			<line class="st20" x1="476.7" y1="485.6" x2="2.5" y2="485.6"/>
			<line class="st20" x1="429.8" y1="495.5" x2="36.2" y2="495.5"/>
		</g>
		<g>
			<polygon class="st33" points="92.2,485.3 66.2,485.3 68.4,245.9 90,245.9 			"/>
			<line class="st33" x1="79.2" y1="278.6" x2="79.2" y2="485.3"/>
			<rect x="66.2" y="237.4" class="st33" width="26" height="8.5"/>
			<rect x="61.4" y="228.8" class="st33" width="35.6" height="8.5"/>
			<polyline class="st33" points="68.9,220.1 68.9,228.8 89.3,228.8 89.3,220.1 			"/>
			<circle class="st33" cx="79.1" cy="181.9" r="38.7"/>
			<line class="st33" x1="42.7" y1="187.4" x2="115.5" y2="187.4"/>
			<line class="st33" x1="47.4" y1="201.7" x2="110.8" y2="201.7"/>
			<line class="st33" x1="55.2" y1="212" x2="103" y2="212"/>
			<path class="st33" d="M69.7,187.4c0,0-2.2-17,6-41"/>
			<path class="st33" d="M53.5,187.4c0,0-1.7-32.7,21.1-44"/>
			<path class="st33" d="M104.8,187.2c0,0,1.7-31.6-21.1-42.9"/>
			<path class="st33" d="M88.9,187.4c0,0,2.1-17.9-8.2-42.2"/>
			<polyline class="st33" points="70.7,141.5 70.7,130.3 86.7,130.3 86.7,141.5 			"/>
			<line class="st33" x1="70.7" y1="136.7" x2="86.7" y2="136.7"/>
			<line class="st33" x1="68.1" y1="130.3" x2="89" y2="130.3"/>
			<line class="st33" x1="78.6" y1="2.5" x2="75.7" y2="130.3"/>
			<line class="st33" x1="79.7" y1="2.5" x2="82.5" y2="130.3"/>
			<line class="st33" x1="68.1" y1="277.9" x2="90.3" y2="277.9"/>
		</g>
		<rect x="141.4" y="333.2" class="st33" width="291.8" height="11.4"/>
		<polygon class="st33" points="166,478.6 147,478.6 149,351.6 164,351.6 		"/>
		<rect x="146" y="344.6" class="st33" width="21" height="7"/>
		<rect x="141.4" y="478.6" class="st33" width="30.3" height="7"/>
		<polygon class="st33" points="218.3,478.6 199.3,478.6 201.3,351.6 216.3,351.6 		"/>
		<rect x="198.3" y="344.6" class="st33" width="21" height="7"/>
		<rect x="193.7" y="478.6" class="st33" width="30.3" height="7"/>
		<polygon class="st33" points="270.7,478.6 251.7,478.6 253.7,351.6 268.7,351.6 		"/>
		<rect x="250.7" y="344.6" class="st33" width="21" height="7"/>
		<rect x="246" y="478.6" class="st33" width="30.3" height="7"/>
		<polygon class="st33" points="323,478.6 304,478.6 306,351.6 321,351.6 		"/>
		<rect x="303" y="344.6" class="st33" width="21" height="7"/>
		<rect x="298.3" y="478.6" class="st33" width="30.3" height="7"/>
		<polygon class="st33" points="375.3,478.6 356.3,478.6 358.3,351.6 373.3,351.6 		"/>
		<rect x="355.3" y="344.6" class="st33" width="21" height="7"/>
		<rect x="350.6" y="478.6" class="st33" width="30.3" height="7"/>
		<polygon class="st33" points="427.6,478.6 408.6,478.6 410.6,351.6 425.6,351.6 		"/>
		<rect x="407.6" y="344.6" class="st33" width="21" height="7"/>
		<rect x="402.9" y="478.6" class="st33" width="30.3" height="7"/>
		<line class="st33" x1="137.9" y1="333.2" x2="436.7" y2="333.2"/>
		<line class="st33" x1="137.9" y1="344.6" x2="436.7" y2="344.6"/>
		<rect x="141.4" y="314.5" class="st33" width="291.8" height="18.7"/>
		<line class="st33" x1="158.5" y1="316.5" x2="158.5" y2="333.2"/>
		<line class="st33" x1="165.2" y1="316.5" x2="165.2" y2="333.2"/>
		<line class="st33" x1="171.7" y1="316.5" x2="171.7" y2="333.2"/>
		<line class="st33" x1="189.1" y1="316.5" x2="189.1" y2="333.2"/>
		<line class="st33" x1="195.8" y1="316.5" x2="195.8" y2="333.2"/>
		<line class="st33" x1="202.3" y1="316.5" x2="202.3" y2="333.2"/>
		<line class="st33" x1="219.7" y1="316.5" x2="219.7" y2="333.2"/>
		<line class="st33" x1="226.4" y1="316.5" x2="226.4" y2="333.2"/>
		<line class="st33" x1="232.9" y1="316.5" x2="232.9" y2="333.2"/>
		<line class="st33" x1="250.3" y1="316.5" x2="250.3" y2="333.2"/>
		<line class="st33" x1="256.9" y1="316.5" x2="256.9" y2="333.2"/>
		<line class="st33" x1="263.4" y1="316.5" x2="263.4" y2="333.2"/>
		<line class="st33" x1="280.9" y1="316.5" x2="280.9" y2="333.2"/>
		<line class="st33" x1="287.5" y1="316.5" x2="287.5" y2="333.2"/>
		<line class="st33" x1="294" y1="316.5" x2="294" y2="333.2"/>
		<line class="st33" x1="311.5" y1="316.5" x2="311.5" y2="333.2"/>
		<line class="st33" x1="318.1" y1="316.5" x2="318.1" y2="333.2"/>
		<line class="st33" x1="324.6" y1="316.5" x2="324.6" y2="333.2"/>
		<line class="st33" x1="342.1" y1="316.5" x2="342.1" y2="333.2"/>
		<line class="st33" x1="348.7" y1="316.5" x2="348.7" y2="333.2"/>
		<line class="st33" x1="355.2" y1="316.5" x2="355.2" y2="333.2"/>
		<line class="st33" x1="372.7" y1="316.5" x2="372.7" y2="333.2"/>
		<line class="st33" x1="379.3" y1="316.5" x2="379.3" y2="333.2"/>
		<line class="st33" x1="385.8" y1="316.5" x2="385.8" y2="333.2"/>
		<line class="st33" x1="403.2" y1="316.5" x2="403.2" y2="333.2"/>
		<line class="st33" x1="409.9" y1="316.5" x2="409.9" y2="333.2"/>
		<line class="st33" x1="416.4" y1="316.5" x2="416.4" y2="333.2"/>
		<rect x="126.4" y="302.6" class="st33" width="321.8" height="11.9"/>
		<rect x="126.4" y="296.2" class="st33" width="321.8" height="6.2"/>
		<rect x="139.9" y="290" class="st33" width="294.7" height="6.2"/>
		<rect x="154.7" y="283.9" class="st33" width="265.2" height="6.2"/>
		<polyline class="st33" points="433.2,293.1 433.2,271.2 139.9,271.2 139.9,293.1 		"/>
		<rect x="168.5" y="277.7" class="st33" width="237.6" height="6.2"/>
		<line class="st33" x1="119.4" y1="302.6" x2="455.2" y2="302.6"/>
		<line class="st33" x1="133.4" y1="271.2" x2="439.2" y2="271.2"/>
		<rect x="209.9" y="253.5" class="st33" width="154.7" height="6.2"/>
		<rect x="219.7" y="247.3" class="st33" width="135.2" height="6.2"/>
		<rect x="219.7" y="259.6" class="st57" width="135.5" height="36.4"/>
		<rect x="229.4" y="271.2" class="st57" width="116.1" height="19.3"/>
		<line class="st33" x1="280.7" y1="260.7" x2="280.7" y2="271.2"/>
		<line class="st33" x1="287.5" y1="260.7" x2="287.5" y2="271.2"/>
		<line class="st33" x1="294.2" y1="260.7" x2="294.2" y2="271.2"/>
		<line class="st33" x1="304.7" y1="260.7" x2="304.7" y2="271.2"/>
		<line class="st33" x1="311.5" y1="260.7" x2="311.5" y2="271.2"/>
		<line class="st33" x1="318.2" y1="260.7" x2="318.2" y2="271.2"/>
		<line class="st33" x1="328.6" y1="260.7" x2="328.6" y2="271.2"/>
		<line class="st33" x1="335.3" y1="260.7" x2="335.3" y2="271.2"/>
		<line class="st33" x1="342.1" y1="260.7" x2="342.1" y2="271.2"/>
		<line class="st33" x1="256.7" y1="260.7" x2="256.7" y2="271.2"/>
		<line class="st33" x1="263.4" y1="260.7" x2="263.4" y2="271.2"/>
		<line class="st33" x1="270.2" y1="260.7" x2="270.2" y2="271.2"/>
		<line class="st33" x1="234.5" y1="260.7" x2="234.5" y2="271.2"/>
		<line class="st33" x1="241.2" y1="260.7" x2="241.2" y2="271.2"/>
		<line class="st33" x1="247.9" y1="260.7" x2="247.9" y2="271.2"/>
		<g>
			<line class="st33" x1="243.8" y1="277.5" x2="243.8" y2="283.7"/>
			<line class="st33" x1="250.5" y1="277.5" x2="250.5" y2="283.7"/>
			<line class="st33" x1="257.3" y1="277.5" x2="257.3" y2="283.7"/>
			<line class="st33" x1="264" y1="277.5" x2="264" y2="283.7"/>
			<line class="st33" x1="270.7" y1="277.5" x2="270.7" y2="283.7"/>
			<line class="st33" x1="277.4" y1="277.5" x2="277.4" y2="283.7"/>
			<line class="st33" x1="284.2" y1="277.5" x2="284.2" y2="283.7"/>
			<line class="st33" x1="290.9" y1="277.5" x2="290.9" y2="283.7"/>
			<line class="st33" x1="297.6" y1="277.5" x2="297.6" y2="283.7"/>
			<line class="st33" x1="304.4" y1="277.5" x2="304.4" y2="283.7"/>
			<line class="st33" x1="311.1" y1="277.5" x2="311.1" y2="283.7"/>
			<line class="st33" x1="317.8" y1="277.5" x2="317.8" y2="283.7"/>
			<line class="st33" x1="324.6" y1="277.5" x2="324.6" y2="283.7"/>
			<line class="st33" x1="331.3" y1="277.5" x2="331.3" y2="283.7"/>
		</g>
		<line class="st33" x1="281.8" y1="247.3" x2="281.8" y2="209.3"/>
		<polygon class="st57" points="293.2,245.4 282.8,245.4 285.3,225.9 290.7,225.9 		"/>
		<circle class="st33" cx="288" cy="219.6" r="1.9"/>
		<circle class="st33" cx="281.8" cy="208.5" r="2.4"/>
		<circle class="st33" cx="281.8" cy="194.5" r="0.3"/>
		<line class="st33" x1="282.1" y1="203.1" x2="290.2" y2="193"/>
		<line class="st33" x1="282.1" y1="203.1" x2="290.5" y2="197.3"/>
		<line class="st33" x1="282.1" y1="203.1" x2="290.2" y2="201.7"/>
		<line class="st33" x1="281.6" y1="203.1" x2="273.5" y2="193"/>
		<line class="st33" x1="281.6" y1="203.1" x2="273.2" y2="197.3"/>
		<line class="st33" x1="281.6" y1="203.1" x2="273.5" y2="201.7"/>
		<g>
			<line class="st33" x1="288.7" y1="246.1" x2="297.6" y2="238.4"/>
			<line class="st33" x1="297.6" y1="238.4" x2="299.2" y2="234.1"/>
			<line class="st33" x1="299.6" y1="235.2" x2="301.1" y2="239.2"/>
			<line class="st33" x1="298.3" y1="239.1" x2="301.1" y2="246.1"/>
			<line class="st33" x1="296.1" y1="240.6" x2="298.3" y2="245.5"/>
			<line class="st33" x1="292" y1="244" x2="293" y2="246.1"/>
			<line class="st33" x1="294.9" y1="244" x2="295.8" y2="246.1"/>
		</g>
		<g>
			<line class="st33" x1="298.5" y1="246.1" x2="307.3" y2="238.4"/>
			<line class="st33" x1="307.3" y1="238.4" x2="309" y2="234.1"/>
			<line class="st33" x1="309.3" y1="235.2" x2="310.8" y2="239.2"/>
			<line class="st33" x1="308.1" y1="239.1" x2="310.8" y2="246.1"/>
			<line class="st33" x1="305.9" y1="240.6" x2="308.1" y2="245.5"/>
			<line class="st33" x1="301.8" y1="244" x2="302.7" y2="246.1"/>
			<line class="st33" x1="304.6" y1="244" x2="305.5" y2="246.1"/>
		</g>
		<g>
			<line class="st33" x1="287" y1="246.1" x2="278.2" y2="238.4"/>
			<line class="st33" x1="278.2" y1="238.4" x2="276.6" y2="234.1"/>
			<line class="st33" x1="276.2" y1="235.2" x2="274.7" y2="239.2"/>
			<line class="st33" x1="277.5" y1="239.1" x2="274.7" y2="246.1"/>
			<line class="st33" x1="279.7" y1="240.6" x2="277.5" y2="245.5"/>
			<line class="st33" x1="283.7" y1="244" x2="282.8" y2="246.1"/>
			<line class="st33" x1="280.9" y1="244" x2="280" y2="246.1"/>
		</g>
		<g>
			<line class="st33" x1="277.3" y1="246.1" x2="268.5" y2="238.4"/>
			<line class="st33" x1="268.5" y1="238.4" x2="266.8" y2="234.1"/>
			<line class="st33" x1="266.4" y1="235.2" x2="264.9" y2="239.2"/>
			<line class="st33" x1="267.7" y1="239.1" x2="264.9" y2="246.1"/>
			<line class="st33" x1="269.9" y1="240.6" x2="267.7" y2="245.5"/>
			<line class="st33" x1="274" y1="244" x2="273" y2="246.1"/>
			<line class="st33" x1="271.2" y1="244" x2="270.2" y2="246.1"/>
		</g>
		<g>
			<path class="st7" d="M398.4,140.8c14.5-8.5,24.3-2,25.5,10.2s-13.3,14.7-13.3,14.7h-61.3c0,0-12.6-3.7-11.3-14.7
				c1.6-14.1,15.2-14.1,20-7"/>
			<path class="st7" d="M353.8,140.2c-5.9-7,5.9-23.2,19.4-14.2"/>
			<path class="st7" d="M371.4,131.6c0,0,5.7-17.9,22.5-13.6c14.5,3.7,12.5,18.9,12.5,18.9"/>
		</g>
		<g>
			<path class="st7" d="M140.8,100.9c5.7-6,15.6-1,16,7c0.4,8-8,10.3-8,10.3h-30c0,0-8.3-2.7-6.7-11.3s12-7,12.7-5.3"/>
			<path class="st7" d="M147.5,98.3c0,0-1.5-11.4-13.1-10.4s-11.1,12.7-11.1,12.7"/>
		</g>
		<g>
			<path class="st7" d="M199.6,169.3c-8.2-8.6-22.5-1.4-23,10.1c-0.6,11.5,11.5,14.9,11.5,14.9h43.2c0,0,12-3.8,9.6-16.3
				c-2.4-12.5-17.3-10.1-18.2-7.7"/>
			<path class="st7" d="M190,165.5c0,0,2.2-16.3,18.9-14.9s16,18.3,16,18.3"/>
		</g>
	</g>
</g>
<g id="_x23_Forbidden_x5F_City">
</g>
<g id="_x23_Sydney_x5F_Opera_x5F_House">
</g>
<g id="_x23_Space_x5F_Needle">
</g>
<g id="_x23_Pyramid">
</g>
<g id="_x23_The_x5F_Pantheon">
</g>
<g id="_x23_Emirates_x5F_Towers">
</g>
<g id="_x23_China_x5F_wall">
	<g id="_x23_Empire_x5F_State_x5F_Building">
	</g>
</g>
</svg>
