<?xml version="1.0" encoding="utf-8"?>
<!-- Generator: Adobe Illustrator 19.1.0, SVG Export Plug-In . SVG Version: 6.00 Build 0)  -->
<svg version="1.1" xmlns="http://www.w3.org/2000/svg" xmlns:xlink="http://www.w3.org/1999/xlink" x="0px" y="0px"
	 viewBox="0 0 497.2 434.5" style="enable-background:new 0 0 497.2 434.5;" xml:space="preserve">
<style type="text/css">
	.st0{fill:#EDEDED;}
	.st1{fill:#59595A;}
	.st2{fill:none;stroke:#59595B;stroke-width:5;stroke-linejoin:round;stroke-miterlimit:10;}
	.st3{fill:none;stroke:#59595B;stroke-width:4.1457;stroke-linejoin:round;stroke-miterlimit:10;}
	.st4{fill:#F6F5F5;}
	.st5{fill:#59595B;}
	.st6{fill:none;stroke:#59595B;stroke-width:4.0874;stroke-linecap:round;stroke-linejoin:round;stroke-miterlimit:10;}
	.st7{fill:none;stroke:#59595B;stroke-width:5;stroke-linecap:round;stroke-linejoin:round;stroke-miterlimit:10;}
	.st8{fill:#EFEFEF;stroke:#59595B;stroke-width:5;stroke-linecap:round;stroke-linejoin:round;stroke-miterlimit:10;}
	.st9{fill:#EDECED;}
	.st10{fill:none;stroke:#5A5B5B;stroke-width:5;stroke-miterlimit:10;}
	.st11{fill:none;stroke:#5A5B5C;stroke-width:5;stroke-linecap:round;stroke-linejoin:round;stroke-miterlimit:10;}
	.st12{fill:#EDECED;stroke:#5A5B5C;stroke-width:5;stroke-linecap:round;stroke-linejoin:round;stroke-miterlimit:10;}
	.st13{fill:#5A5B5C;stroke:#5A5B5C;stroke-width:5;stroke-linecap:round;stroke-linejoin:round;stroke-miterlimit:10;}
	.st14{fill:none;stroke:#5A5B5B;stroke-width:5;stroke-linecap:round;stroke-linejoin:round;stroke-miterlimit:10;}
	.st15{fill:#F0EFEF;stroke:#5A5B5B;stroke-width:5;stroke-linecap:round;stroke-linejoin:round;stroke-miterlimit:10;}
	.st16{fill:#E8E8E8;stroke:#5A5B5C;stroke-width:5;stroke-linecap:round;stroke-linejoin:round;stroke-miterlimit:10;}
	.st17{fill:#FFFFFF;stroke:#5A5B5B;stroke-width:5;stroke-linecap:round;stroke-linejoin:round;stroke-miterlimit:10;}
	.st18{fill:#EFEFEF;stroke:#59595A;stroke-width:5;stroke-linecap:round;stroke-linejoin:round;stroke-miterlimit:10;}
	.st19{fill:none;stroke:#59595A;stroke-width:5;stroke-miterlimit:10;}
	.st20{fill:none;stroke:#59595A;stroke-width:5;stroke-linecap:round;stroke-miterlimit:10;}
	.st21{fill:none;stroke:#59595A;stroke-width:5;stroke-linejoin:round;stroke-miterlimit:10;}
	.st22{fill:none;stroke:#59595A;stroke-width:4.539;stroke-miterlimit:10;}
	.st23{fill:none;stroke:#59595A;stroke-width:4.1349;stroke-miterlimit:10;}
	.st24{fill:none;stroke:#59595A;stroke-width:3.9798;stroke-miterlimit:10;}
	.st25{fill:none;stroke:#58595B;stroke-width:5;stroke-miterlimit:10;}
	.st26{fill:none;stroke:#58595B;stroke-width:5;stroke-linejoin:round;stroke-miterlimit:10;}
	.st27{fill:none;stroke:#58595B;stroke-width:5;stroke-linecap:round;stroke-linejoin:round;stroke-miterlimit:10;}
	.st28{fill:none;stroke:#59595B;stroke-width:4.2054;stroke-linecap:round;stroke-linejoin:round;stroke-miterlimit:10;}
	.st29{fill:none;stroke:#59595B;stroke-width:5;stroke-miterlimit:10;}
	.st30{fill:#EDECEC;stroke:#59595B;stroke-width:5;stroke-linecap:round;stroke-linejoin:round;stroke-miterlimit:10;}
	.st31{fill:#EDEDED;stroke:#59595A;stroke-width:5;stroke-miterlimit:10;}
	.st32{fill:#EDEDED;stroke:#59595B;stroke-width:5;stroke-linecap:round;stroke-linejoin:round;stroke-miterlimit:10;}
	.st33{fill:none;stroke:#59595A;stroke-width:5;stroke-linecap:round;stroke-linejoin:round;stroke-miterlimit:10;}
	.st34{fill:#58595B;}
	.st35{fill:#59595A;stroke:#EDEDED;stroke-width:3;stroke-miterlimit:10;}
	.st36{fill:#59595A;stroke:#EDEDED;stroke-miterlimit:10;}
	.st37{fill:#EFEFEF;stroke:#59595A;stroke-width:5;stroke-linecap:round;stroke-miterlimit:10;}
	.st38{fill:#EDEDED;stroke:#59595A;stroke-width:5;stroke-linecap:round;stroke-linejoin:round;stroke-miterlimit:10;}
	.st39{fill-rule:evenodd;clip-rule:evenodd;fill:#59595B;}
	
		.st40{fill-rule:evenodd;clip-rule:evenodd;fill:none;stroke:#59595B;stroke-width:5;stroke-linecap:round;stroke-linejoin:round;stroke-miterlimit:10;}
	.st41{fill:none;stroke:#5A5B5C;stroke-width:4.1457;stroke-linejoin:round;stroke-miterlimit:10;}
	.st42{fill:none;stroke:#5A5B5B;stroke-width:4.539;stroke-miterlimit:10;}
	.st43{fill:none;stroke:#5A5B5B;stroke-width:4.1349;stroke-miterlimit:10;}
	.st44{fill:none;stroke:#5A5B5B;stroke-width:3.9798;stroke-miterlimit:10;}
	.st45{fill:none;stroke:#5A5B5C;stroke-width:4;stroke-linecap:round;stroke-linejoin:round;stroke-miterlimit:10;}
	.st46{fill:none;stroke:#595A5C;stroke-width:5;stroke-linecap:round;stroke-linejoin:round;stroke-miterlimit:10;}
	.st47{fill:#5A5B5C;}
	.st48{fill:none;stroke:#595A5C;stroke-width:5;stroke-linejoin:round;stroke-miterlimit:10;}
	.st49{fill:none;stroke:#5A5B5B;stroke-width:5;stroke-linecap:round;stroke-miterlimit:10;}
	.st50{fill:#5A5B5B;}
	.st51{fill:#5A5B5C;stroke:#5A5B5C;stroke-miterlimit:10;}
	.st52{fill:#595A5C;}
	.st53{fill:#EDECED;stroke:#5A5B5B;stroke-width:5;stroke-miterlimit:10;}
	.st54{fill:#FFFFFF;stroke:#5A5B5B;stroke-width:5;stroke-miterlimit:10;}
	.st55{fill:#FFFFFF;stroke:#5A5B5C;stroke-width:5;stroke-linecap:round;stroke-linejoin:round;stroke-miterlimit:10;}
	.st56{fill:#FFFFFF;stroke:#59595B;stroke-width:5;stroke-linecap:round;stroke-linejoin:round;stroke-miterlimit:10;}
	.st57{fill:#FFFFFF;stroke:#59595A;stroke-width:5;stroke-linecap:round;stroke-linejoin:round;stroke-miterlimit:10;}
	.st58{fill:#FFFFFF;stroke:#59595A;stroke-width:5;stroke-miterlimit:10;}
	.st59{fill:none;stroke:#59595B;stroke-width:3.8573;stroke-linejoin:round;stroke-miterlimit:10;}
	.st60{fill:#EDEDED;stroke:#59595B;stroke-width:5;stroke-miterlimit:10;}
	.st61{fill:none;stroke:#59595B;stroke-width:5;stroke-linecap:round;stroke-miterlimit:10;}
	.st62{fill:#59595B;stroke:#59595A;stroke-width:5;stroke-linecap:round;stroke-linejoin:round;stroke-miterlimit:10;}
	.st63{fill:#FFFFFF;stroke:#59595B;stroke-width:5;stroke-miterlimit:10;}
	.st64{fill:#EAEAEA;stroke:#59595A;stroke-width:5;stroke-linecap:round;stroke-linejoin:round;stroke-miterlimit:10;}
	.st65{fill:#EAEAEA;stroke:#59595A;stroke-width:5;stroke-linecap:round;stroke-miterlimit:10;}
</style>
<g id="Background">
</g>
<g id="_x23_Tower_x5F_Bridge">
</g>
<g id="_x23_Washington_x5F_Mountain">
</g>
<g id="_x23_London_x5F_Eye">
</g>
<g id="_x23_Eiffel_x5F_Tower">
	<g id="New_Symbol">
	</g>
</g>
<g id="_x23_Forbidden_x5F_City">
</g>
<g id="_x23_Sydney_x5F_Opera_x5F_House">
</g>
<g id="_x23_Space_x5F_Needle">
</g>
<g id="_x23_Pyramid">
</g>
<g id="_x23_The_x5F_Pantheon">
</g>
<g id="_x23_Emirates_x5F_Towers">
</g>
<g id="_x23_China_x5F_wall">
	<g id="_x23_Empire_x5F_State_x5F_Building">
	</g>
	<g>
		<g>
			<line class="st19" x1="474.2" y1="422.1" x2="0" y2="422.1"/>
			<line class="st19" x1="427.3" y1="432" x2="33.7" y2="432"/>
		</g>
		<path class="st19" d="M20.3,171.3l27.2-14.4l6,14.4L85,156.8h11.8h27.4h6.8l6.2-15l18.6,6l20.4,16.5l14.3-7.5l20-15l13.1-9h12.1
			l13.7,9l17-3c0,0,5-7.5,7-6c2,1.5,2.2-3.4,10.4-0.2c8.2,3.2,2.4,3.2,15.8,9.2c13.4,6,20.5,6,25.2,7.5c4.7,1.5,10.7,1.5,15.2,1.5
			c4.5,0,14.2,0,14.2,0l11.4,6l13.4-10.5l6-14.8c0,0,7.5-5.8,12,0c4.5,5.8,12.5,7.3,15.3,8.8s2.7,0,11.7,4.5c9,4.5,18,14.9,22.5,12
			c4.5-3,12.4,0,12.4,0s7.1-3,11.6,0c4.5,3,13.5,14.4,13.5,14.4l12,6.8"/>
		<polygon class="st19" points="92.8,249.4 81.9,249.4 80.9,259.9 93.8,259.9 		"/>
		<polygon class="st19" points="92.8,259.9 81.9,259.9 80.9,270.4 93.8,270.4 		"/>
		<polygon class="st19" points="92.8,270.4 81.9,270.4 80.9,280.9 93.8,280.9 		"/>
		<polygon class="st19" points="92.8,280.9 81.9,280.9 80.9,291.5 93.8,291.5 		"/>
		<polygon class="st19" points="92.8,291.5 81.9,291.5 80.9,302 93.8,302 		"/>
		<polygon class="st19" points="92.8,302 81.9,302 80.9,312.5 93.8,312.5 		"/>
		<polygon class="st19" points="92.8,312.5 81.9,312.5 80.9,323 93.8,323 		"/>
		<polygon class="st19" points="92.8,323 81.9,323 80.9,333.5 93.8,333.5 		"/>
		<polygon class="st19" points="92.8,333.5 81.9,333.5 80.9,344 93.8,344 		"/>
		<polygon class="st19" points="92.8,344 81.9,344 80.9,354.6 93.8,354.6 		"/>
		<polygon class="st19" points="92.8,354.6 81.9,354.6 80.9,365.1 93.8,365.1 		"/>
		<polygon class="st19" points="92.8,365.1 81.9,365.1 80.9,375.6 93.8,375.6 		"/>
		<polygon class="st19" points="92.8,375.6 81.9,375.6 80.9,386.1 93.8,386.1 		"/>
		<polygon class="st19" points="92.8,386.1 81.9,386.1 80.9,396.6 93.8,396.6 		"/>
		<polygon class="st19" points="92.8,396.6 81.9,396.6 80.9,407.2 93.8,407.2 		"/>
		<polygon class="st19" points="92.8,407.2 81.9,407.2 80.9,417.7 93.8,417.7 		"/>
		<g>
			<path class="st58" d="M87,244.6l46.5-72.9C133.5,171.7,67.3,174.5,87,244.6z"/>
			<line class="st58" x1="90.9" y1="224.7" x2="102.1" y2="220.8"/>
			<line class="st58" x1="94" y1="211" x2="110.7" y2="206.2"/>
			<line class="st58" x1="104" y1="196.4" x2="120.4" y2="192.2"/>
		</g>
		<g>
			<path class="st58" d="M88.8,245.2l81.3,29.4C170.1,274.7,153,210.7,88.8,245.2z"/>
			<line class="st58" x1="109.1" y1="244.7" x2="115.4" y2="254.8"/>
			<line class="st58" x1="123.1" y1="244.7" x2="131.5" y2="260"/>
			<line class="st58" x1="139.6" y1="251.3" x2="147.3" y2="266.4"/>
		</g>
		<g>
			<path class="st58" d="M88.1,246.6l76-41.3C164.1,205.2,104.8,175.7,88.1,246.6z"/>
			<line class="st58" x1="101.2" y1="231" x2="112.9" y2="233.1"/>
			<line class="st58" x1="110.5" y1="220.5" x2="127.4" y2="224.4"/>
			<line class="st58" x1="126.4" y1="212.6" x2="142.7" y2="216.9"/>
		</g>
		<g>
			<path class="st58" d="M88.1,244.4L6.8,273.8C6.8,273.8,24,209.9,88.1,244.4z"/>
			<line class="st58" x1="67.8" y1="243.9" x2="61.6" y2="254"/>
			<line class="st58" x1="53.8" y1="243.9" x2="45.5" y2="259.1"/>
			<line class="st58" x1="37.3" y1="250.5" x2="29.7" y2="265.5"/>
		</g>
		<g>
			<path class="st58" d="M88.8,245.7l-76-41.3C12.9,204.3,72.1,174.8,88.8,245.7z"/>
			<line class="st58" x1="75.7" y1="230.1" x2="64" y2="232.2"/>
			<line class="st58" x1="66.4" y1="219.7" x2="49.5" y2="223.5"/>
			<line class="st58" x1="50.5" y1="211.7" x2="34.2" y2="216"/>
		</g>
		<polygon class="st19" points="168.7,309.3 176.7,309.3 177.4,317 168,317 		"/>
		<polygon class="st19" points="168.7,317 176.7,317 177.4,324.7 168,324.7 		"/>
		<polygon class="st19" points="168.7,324.7 176.7,324.7 177.4,332.4 168,332.4 		"/>
		<polygon class="st19" points="168.7,332.4 176.7,332.4 177.4,340.1 168,340.1 		"/>
		<polygon class="st19" points="168.7,340.1 176.7,340.1 177.4,347.8 168,347.8 		"/>
		<polygon class="st19" points="168.7,347.8 176.7,347.8 177.4,355.5 168,355.5 		"/>
		<polygon class="st19" points="168.7,355.5 176.7,355.5 177.4,363.2 168,363.2 		"/>
		<polygon class="st19" points="168.7,363.2 176.7,363.2 177.4,370.9 168,370.9 		"/>
		<polygon class="st19" points="168.7,370.9 176.7,370.9 177.4,378.6 168,378.6 		"/>
		<polygon class="st19" points="168.7,378.6 176.7,378.6 177.4,386.3 168,386.3 		"/>
		<polygon class="st19" points="168.7,386.3 176.7,386.3 177.4,394 168,394 		"/>
		<polygon class="st19" points="168.7,394 176.7,394 177.4,401.7 168,401.7 		"/>
		<polygon class="st19" points="168.7,401.7 176.7,401.7 177.4,409.4 168,409.4 		"/>
		<polygon class="st19" points="168.7,409.4 176.7,409.4 177.4,417.1 168,417.1 		"/>
		<g>
			<path class="st58" d="M173,305.8l-34.1-53.4C138.9,252.4,187.4,254.5,173,305.8z"/>
			<line class="st58" x1="170.1" y1="291.2" x2="161.9" y2="288.4"/>
			<line class="st58" x1="167.9" y1="281.2" x2="155.7" y2="277.7"/>
			<line class="st58" x1="160.5" y1="270.5" x2="148.5" y2="267.5"/>
		</g>
		<g>
			<path class="st58" d="M171.7,306.3l-59.5,21.6C112.1,327.8,124.7,281,171.7,306.3z"/>
			<line class="st58" x1="156.8" y1="305.9" x2="152.2" y2="313.3"/>
			<line class="st58" x1="146.5" y1="305.9" x2="140.4" y2="317.1"/>
			<line class="st58" x1="134.4" y1="310.7" x2="128.9" y2="321.8"/>
		</g>
		<g>
			<path class="st58" d="M172.2,307.3L116.5,277C116.5,277,159.9,255.3,172.2,307.3z"/>
			<line class="st58" x1="162.6" y1="295.9" x2="154" y2="297.4"/>
			<line class="st58" x1="155.8" y1="288.2" x2="143.4" y2="291"/>
			<line class="st58" x1="144.1" y1="282.4" x2="132.2" y2="285.5"/>
		</g>
		<g>
			<path class="st58" d="M172.1,305.6l59.5,21.6C231.7,327.2,219.1,280.4,172.1,305.6z"/>
			<line class="st58" x1="187" y1="305.3" x2="191.6" y2="312.7"/>
			<line class="st58" x1="197.3" y1="305.3" x2="203.4" y2="316.4"/>
			<line class="st58" x1="209.4" y1="310.1" x2="214.9" y2="321.1"/>
		</g>
		<g>
			<path class="st58" d="M171.6,306.6l55.6-30.3C227.3,276.3,183.9,254.7,171.6,306.6z"/>
			<line class="st58" x1="181.2" y1="295.2" x2="189.8" y2="296.7"/>
			<line class="st58" x1="188" y1="287.6" x2="200.4" y2="290.4"/>
			<line class="st58" x1="199.7" y1="281.7" x2="211.6" y2="284.9"/>
		</g>
		<g>
			<path class="st7" d="M431.1,25.9c14.5-8.5,24.3-2,25.5,10.2c1.2,12.2-13.3,14.7-13.3,14.7h-61.3c0,0-12.6-3.7-11.3-14.7
				c1.6-14.1,15.2-14.1,20-7"/>
			<path class="st7" d="M386.4,25.4c-5.9-7,5.9-23.2,19.4-14.2"/>
			<path class="st7" d="M404.1,16.8c0,0,5.7-17.9,22.5-13.6c14.5,3.7,12.5,18.9,12.5,18.9"/>
		</g>
		<g>
			<path class="st7" d="M278.1,63.9c5.7-6,15.6-1,16,7c0.4,8-8,10.3-8,10.3h-30c0,0-8.3-2.7-6.7-11.3c1.7-8.7,12-7,12.7-5.3"/>
			<path class="st7" d="M284.8,61.3c0,0-1.5-11.4-13.1-10.4s-11.1,12.7-11.1,12.7"/>
		</g>
		<g>
			<path class="st7" d="M84.7,34c-8.2-8.6-22.5-1.4-23,10.1S73.2,59,73.2,59h43.2c0,0,12-3.8,9.6-16.3c-2.4-12.5-17.3-10.1-18.2-7.7
				"/>
			<path class="st7" d="M75.1,30.2c0,0,2.2-16.3,18.9-14.9s16,18.3,16,18.3"/>
		</g>
		<circle class="st7" cx="361.7" cy="288.3" r="105.1"/>
		<circle class="st7" cx="361.7" cy="288.3" r="81.5"/>
		<circle class="st7" cx="361.7" cy="288.3" r="60.1"/>
		<circle class="st7" cx="361.7" cy="288.3" r="37.9"/>
		<line class="st7" x1="361.7" y1="183.3" x2="361.7" y2="393.4"/>
		<line class="st7" x1="256.6" y1="288.3" x2="466.7" y2="288.3"/>
		<line class="st7" x1="287.4" y1="362.6" x2="436" y2="214.1"/>
		<line class="st7" x1="436" y1="362.6" x2="287.4" y2="214.1"/>
		<line class="st7" x1="361.7" y1="288.3" x2="413.6" y2="419.6"/>
		<line class="st7" x1="360.4" y1="288.3" x2="308.5" y2="419.6"/>
		<circle class="st56" cx="361.7" cy="183.3" r="9.5"/>
		<circle class="st56" cx="361.7" cy="288.3" r="5"/>
		<circle class="st56" cx="436" cy="214.1" r="9.5"/>
		<circle class="st56" cx="466.7" cy="288.3" r="9.5"/>
		<circle class="st56" cx="436" cy="362.6" r="9.5"/>
		<circle class="st56" cx="361.7" cy="393.4" r="9.5"/>
		<circle class="st56" cx="287.4" cy="362.6" r="9.5"/>
		<circle class="st56" cx="256.6" cy="288.3" r="9.5"/>
		<circle class="st56" cx="287.4" cy="214.1" r="9.5"/>
	</g>
</g>
</svg>
