<?xml version="1.0" encoding="utf-8"?>
<!-- Generator: Adobe Illustrator 19.1.0, SVG Export Plug-In . SVG Version: 6.00 Build 0)  -->
<svg version="1.1" xmlns="http://www.w3.org/2000/svg" xmlns:xlink="http://www.w3.org/1999/xlink" x="0px" y="0px"
	 viewBox="0 0 474.2 376.6" style="enable-background:new 0 0 474.2 376.6;" xml:space="preserve">
<style type="text/css">
	.st0{fill:#EDEDED;}
	.st1{fill:#59595A;}
	.st2{fill:none;stroke:#59595B;stroke-width:5;stroke-linejoin:round;stroke-miterlimit:10;}
	.st3{fill:none;stroke:#59595B;stroke-width:4.1457;stroke-linejoin:round;stroke-miterlimit:10;}
	.st4{fill:#F6F5F5;}
	.st5{fill:#59595B;}
	.st6{fill:none;stroke:#59595B;stroke-width:4.0874;stroke-linecap:round;stroke-linejoin:round;stroke-miterlimit:10;}
	.st7{fill:none;stroke:#59595B;stroke-width:5;stroke-linecap:round;stroke-linejoin:round;stroke-miterlimit:10;}
	.st8{fill:#EFEFEF;stroke:#59595B;stroke-width:5;stroke-linecap:round;stroke-linejoin:round;stroke-miterlimit:10;}
	.st9{fill:#EDECED;}
	.st10{fill:none;stroke:#5A5B5B;stroke-width:5;stroke-miterlimit:10;}
	.st11{fill:none;stroke:#5A5B5C;stroke-width:5;stroke-linecap:round;stroke-linejoin:round;stroke-miterlimit:10;}
	.st12{fill:#EDECED;stroke:#5A5B5C;stroke-width:5;stroke-linecap:round;stroke-linejoin:round;stroke-miterlimit:10;}
	.st13{fill:#5A5B5C;stroke:#5A5B5C;stroke-width:5;stroke-linecap:round;stroke-linejoin:round;stroke-miterlimit:10;}
	.st14{fill:none;stroke:#5A5B5B;stroke-width:5;stroke-linecap:round;stroke-linejoin:round;stroke-miterlimit:10;}
	.st15{fill:#F0EFEF;stroke:#5A5B5B;stroke-width:5;stroke-linecap:round;stroke-linejoin:round;stroke-miterlimit:10;}
	.st16{fill:#E8E8E8;stroke:#5A5B5C;stroke-width:5;stroke-linecap:round;stroke-linejoin:round;stroke-miterlimit:10;}
	.st17{fill:#FFFFFF;stroke:#5A5B5B;stroke-width:5;stroke-linecap:round;stroke-linejoin:round;stroke-miterlimit:10;}
	.st18{fill:#EFEFEF;stroke:#59595A;stroke-width:5;stroke-linecap:round;stroke-linejoin:round;stroke-miterlimit:10;}
	.st19{fill:none;stroke:#59595A;stroke-width:5;stroke-miterlimit:10;}
	.st20{fill:none;stroke:#59595A;stroke-width:5;stroke-linecap:round;stroke-miterlimit:10;}
	.st21{fill:none;stroke:#59595A;stroke-width:5;stroke-linejoin:round;stroke-miterlimit:10;}
	.st22{fill:none;stroke:#59595A;stroke-width:4.539;stroke-miterlimit:10;}
	.st23{fill:none;stroke:#59595A;stroke-width:4.1349;stroke-miterlimit:10;}
	.st24{fill:none;stroke:#59595A;stroke-width:3.9798;stroke-miterlimit:10;}
	.st25{fill:none;stroke:#58595B;stroke-width:5;stroke-miterlimit:10;}
	.st26{fill:none;stroke:#58595B;stroke-width:5;stroke-linejoin:round;stroke-miterlimit:10;}
	.st27{fill:none;stroke:#58595B;stroke-width:5;stroke-linecap:round;stroke-linejoin:round;stroke-miterlimit:10;}
	.st28{fill:none;stroke:#59595B;stroke-width:4.2054;stroke-linecap:round;stroke-linejoin:round;stroke-miterlimit:10;}
	.st29{fill:none;stroke:#59595B;stroke-width:5;stroke-miterlimit:10;}
	.st30{fill:#EDECEC;stroke:#59595B;stroke-width:5;stroke-linecap:round;stroke-linejoin:round;stroke-miterlimit:10;}
	.st31{fill:#EDEDED;stroke:#59595A;stroke-width:5;stroke-miterlimit:10;}
	.st32{fill:#EDEDED;stroke:#59595B;stroke-width:5;stroke-linecap:round;stroke-linejoin:round;stroke-miterlimit:10;}
	.st33{fill:none;stroke:#59595A;stroke-width:5;stroke-linecap:round;stroke-linejoin:round;stroke-miterlimit:10;}
	.st34{fill:#58595B;}
	.st35{fill:#59595A;stroke:#EDEDED;stroke-width:3;stroke-miterlimit:10;}
	.st36{fill:#59595A;stroke:#EDEDED;stroke-miterlimit:10;}
	.st37{fill:#EFEFEF;stroke:#59595A;stroke-width:5;stroke-linecap:round;stroke-miterlimit:10;}
	.st38{fill:#EDEDED;stroke:#59595A;stroke-width:5;stroke-linecap:round;stroke-linejoin:round;stroke-miterlimit:10;}
	.st39{fill-rule:evenodd;clip-rule:evenodd;fill:#59595B;}
	
		.st40{fill-rule:evenodd;clip-rule:evenodd;fill:none;stroke:#59595B;stroke-width:5;stroke-linecap:round;stroke-linejoin:round;stroke-miterlimit:10;}
	.st41{fill:none;stroke:#5A5B5C;stroke-width:4.1457;stroke-linejoin:round;stroke-miterlimit:10;}
	.st42{fill:none;stroke:#5A5B5B;stroke-width:4.539;stroke-miterlimit:10;}
	.st43{fill:none;stroke:#5A5B5B;stroke-width:4.1349;stroke-miterlimit:10;}
	.st44{fill:none;stroke:#5A5B5B;stroke-width:3.9798;stroke-miterlimit:10;}
	.st45{fill:none;stroke:#5A5B5C;stroke-width:4;stroke-linecap:round;stroke-linejoin:round;stroke-miterlimit:10;}
	.st46{fill:none;stroke:#595A5C;stroke-width:5;stroke-linecap:round;stroke-linejoin:round;stroke-miterlimit:10;}
	.st47{fill:#5A5B5C;}
	.st48{fill:none;stroke:#595A5C;stroke-width:5;stroke-linejoin:round;stroke-miterlimit:10;}
	.st49{fill:none;stroke:#5A5B5B;stroke-width:5;stroke-linecap:round;stroke-miterlimit:10;}
	.st50{fill:#5A5B5B;}
	.st51{fill:#5A5B5C;stroke:#5A5B5C;stroke-miterlimit:10;}
	.st52{fill:#595A5C;}
	.st53{fill:#EDECED;stroke:#5A5B5B;stroke-width:5;stroke-miterlimit:10;}
	.st54{fill:#FFFFFF;stroke:#5A5B5B;stroke-width:5;stroke-miterlimit:10;}
	.st55{fill:#FFFFFF;stroke:#5A5B5C;stroke-width:5;stroke-linecap:round;stroke-linejoin:round;stroke-miterlimit:10;}
	.st56{fill:#FFFFFF;stroke:#59595B;stroke-width:5;stroke-linecap:round;stroke-linejoin:round;stroke-miterlimit:10;}
	.st57{fill:#FFFFFF;stroke:#59595A;stroke-width:5;stroke-linecap:round;stroke-linejoin:round;stroke-miterlimit:10;}
	.st58{fill:#FFFFFF;stroke:#59595A;stroke-width:5;stroke-miterlimit:10;}
	.st59{fill:none;stroke:#59595B;stroke-width:3.8573;stroke-linejoin:round;stroke-miterlimit:10;}
	.st60{fill:#EDEDED;stroke:#59595B;stroke-width:5;stroke-miterlimit:10;}
	.st61{fill:none;stroke:#59595B;stroke-width:5;stroke-linecap:round;stroke-miterlimit:10;}
	.st62{fill:#59595B;stroke:#59595A;stroke-width:5;stroke-linecap:round;stroke-linejoin:round;stroke-miterlimit:10;}
	.st63{fill:#FFFFFF;stroke:#59595B;stroke-width:5;stroke-miterlimit:10;}
	.st64{fill:#EAEAEA;stroke:#59595A;stroke-width:5;stroke-linecap:round;stroke-linejoin:round;stroke-miterlimit:10;}
	.st65{fill:#EAEAEA;stroke:#59595A;stroke-width:5;stroke-linecap:round;stroke-miterlimit:10;}
</style>
<g id="Background">
</g>
<g id="_x23_Tower_x5F_Bridge">
</g>
<g id="_x23_Washington_x5F_Mountain">
</g>
<g id="_x23_London_x5F_Eye">
</g>
<g id="_x23_Eiffel_x5F_Tower">
	<g id="New_Symbol">
	</g>
	<g>
		<line class="st3" x1="232.4" y1="364.2" x2="48.4" y2="364.2"/>
		<line class="st19" x1="474.2" y1="364.2" x2="0" y2="364.2"/>
		<line class="st19" x1="427.3" y1="374.1" x2="33.7" y2="374.1"/>
		<polyline class="st7" points="191.6,87.5 191.6,364 79.1,364 79.1,87.5 		"/>
		<polygon class="st7" points="191.6,364 145.6,364 145.6,131.3 168.6,131.3 168.6,103.1 191.6,103.1 		"/>
		<polygon class="st7" points="79.7,364.2 125.7,364.2 125.7,131.4 102.7,131.4 102.7,103.3 79.7,103.3 		"/>
		<line class="st7" x1="90.9" y1="153.9" x2="90.9" y2="160.5"/>
		<line class="st7" x1="90.9" y1="167.5" x2="90.9" y2="174.1"/>
		<line class="st7" x1="90.9" y1="181.1" x2="90.9" y2="187.7"/>
		<line class="st7" x1="90.9" y1="194.7" x2="90.9" y2="201.3"/>
		<line class="st7" x1="90.9" y1="208.3" x2="90.9" y2="214.8"/>
		<line class="st7" x1="90.9" y1="221.8" x2="90.9" y2="228.4"/>
		<line class="st7" x1="90.9" y1="235.4" x2="90.9" y2="242"/>
		<line class="st7" x1="90.9" y1="249" x2="90.9" y2="255.6"/>
		<line class="st7" x1="90.9" y1="262.6" x2="90.9" y2="269.1"/>
		<line class="st7" x1="90.9" y1="276.1" x2="90.9" y2="282.7"/>
		<line class="st7" x1="90.9" y1="289.7" x2="90.9" y2="296.3"/>
		<line class="st7" x1="90.9" y1="303.3" x2="90.9" y2="309.9"/>
		<line class="st7" x1="90.9" y1="316.9" x2="90.9" y2="323.4"/>
		<line class="st7" x1="90.9" y1="330.5" x2="90.9" y2="337"/>
		<line class="st7" x1="101.9" y1="153.9" x2="101.9" y2="160.5"/>
		<line class="st7" x1="101.9" y1="167.5" x2="101.9" y2="174.1"/>
		<line class="st7" x1="101.9" y1="181.1" x2="101.9" y2="187.7"/>
		<line class="st7" x1="101.9" y1="194.7" x2="101.9" y2="201.3"/>
		<line class="st7" x1="101.9" y1="208.3" x2="101.9" y2="214.8"/>
		<line class="st7" x1="101.9" y1="221.8" x2="101.9" y2="228.4"/>
		<line class="st7" x1="101.9" y1="235.4" x2="101.9" y2="242"/>
		<line class="st7" x1="101.9" y1="249" x2="101.9" y2="255.6"/>
		<line class="st7" x1="101.9" y1="262.6" x2="101.9" y2="269.1"/>
		<line class="st7" x1="101.9" y1="276.1" x2="101.9" y2="282.7"/>
		<line class="st7" x1="101.9" y1="289.7" x2="101.9" y2="296.3"/>
		<line class="st7" x1="101.9" y1="303.3" x2="101.9" y2="309.9"/>
		<line class="st7" x1="101.9" y1="316.9" x2="101.9" y2="323.4"/>
		<line class="st7" x1="101.9" y1="330.5" x2="101.9" y2="337"/>
		<line class="st7" x1="112.8" y1="153.9" x2="112.8" y2="160.5"/>
		<line class="st7" x1="112.8" y1="167.5" x2="112.8" y2="174.1"/>
		<line class="st7" x1="112.8" y1="181.1" x2="112.8" y2="187.7"/>
		<line class="st7" x1="112.8" y1="194.7" x2="112.8" y2="201.3"/>
		<line class="st7" x1="112.8" y1="208.3" x2="112.8" y2="214.8"/>
		<line class="st7" x1="112.8" y1="221.8" x2="112.8" y2="228.4"/>
		<line class="st7" x1="112.8" y1="235.4" x2="112.8" y2="242"/>
		<line class="st7" x1="112.8" y1="249" x2="112.8" y2="255.6"/>
		<line class="st7" x1="112.8" y1="262.6" x2="112.8" y2="269.1"/>
		<line class="st7" x1="112.8" y1="276.1" x2="112.8" y2="282.7"/>
		<line class="st7" x1="112.8" y1="289.7" x2="112.8" y2="296.3"/>
		<line class="st7" x1="112.8" y1="303.3" x2="112.8" y2="309.9"/>
		<line class="st7" x1="112.8" y1="316.9" x2="112.8" y2="323.4"/>
		<line class="st7" x1="112.8" y1="330.5" x2="112.8" y2="337"/>
		<line class="st7" x1="157.6" y1="153.9" x2="157.6" y2="160.5"/>
		<line class="st7" x1="157.6" y1="167.5" x2="157.6" y2="174.1"/>
		<line class="st7" x1="157.6" y1="181.1" x2="157.6" y2="187.7"/>
		<line class="st7" x1="157.6" y1="194.7" x2="157.6" y2="201.3"/>
		<line class="st7" x1="157.6" y1="208.3" x2="157.6" y2="214.8"/>
		<line class="st7" x1="157.6" y1="221.8" x2="157.6" y2="228.4"/>
		<line class="st7" x1="157.6" y1="235.4" x2="157.6" y2="242"/>
		<line class="st7" x1="157.6" y1="249" x2="157.6" y2="255.6"/>
		<line class="st7" x1="157.6" y1="262.6" x2="157.6" y2="269.1"/>
		<line class="st7" x1="157.6" y1="276.1" x2="157.6" y2="282.7"/>
		<line class="st7" x1="157.6" y1="289.7" x2="157.6" y2="296.3"/>
		<line class="st7" x1="157.6" y1="303.3" x2="157.6" y2="309.9"/>
		<line class="st7" x1="157.6" y1="316.9" x2="157.6" y2="323.4"/>
		<line class="st7" x1="157.6" y1="330.5" x2="157.6" y2="337"/>
		<line class="st7" x1="168.6" y1="153.9" x2="168.6" y2="160.5"/>
		<line class="st7" x1="168.6" y1="167.5" x2="168.6" y2="174.1"/>
		<line class="st7" x1="168.6" y1="181.1" x2="168.6" y2="187.7"/>
		<line class="st7" x1="168.6" y1="194.7" x2="168.6" y2="201.3"/>
		<line class="st7" x1="168.6" y1="208.3" x2="168.6" y2="214.8"/>
		<line class="st7" x1="168.6" y1="221.8" x2="168.6" y2="228.4"/>
		<line class="st7" x1="168.6" y1="235.4" x2="168.6" y2="242"/>
		<line class="st7" x1="168.6" y1="249" x2="168.6" y2="255.6"/>
		<line class="st7" x1="168.6" y1="262.6" x2="168.6" y2="269.1"/>
		<line class="st7" x1="168.6" y1="276.1" x2="168.6" y2="282.7"/>
		<line class="st7" x1="168.6" y1="289.7" x2="168.6" y2="296.3"/>
		<line class="st7" x1="168.6" y1="303.3" x2="168.6" y2="309.9"/>
		<line class="st7" x1="168.6" y1="316.9" x2="168.6" y2="323.4"/>
		<line class="st7" x1="168.6" y1="330.5" x2="168.6" y2="337"/>
		<line class="st7" x1="179.5" y1="153.9" x2="179.5" y2="160.5"/>
		<line class="st7" x1="157.6" y1="140.8" x2="157.6" y2="147.4"/>
		<line class="st7" x1="168.6" y1="140.8" x2="168.6" y2="147.4"/>
		<line class="st7" x1="179.5" y1="140.8" x2="179.5" y2="147.4"/>
		<line class="st7" x1="179.5" y1="127.2" x2="179.5" y2="133.8"/>
		<line class="st7" x1="179.5" y1="114.1" x2="179.5" y2="120.7"/>
		<line class="st7" x1="90.9" y1="127.2" x2="90.9" y2="133.8"/>
		<line class="st7" x1="90.9" y1="114.1" x2="90.9" y2="120.7"/>
		<line class="st7" x1="90.9" y1="140.8" x2="90.9" y2="147.4"/>
		<line class="st7" x1="101.9" y1="140.8" x2="101.9" y2="147.4"/>
		<line class="st7" x1="112.8" y1="140.8" x2="112.8" y2="147.4"/>
		<line class="st7" x1="179.5" y1="167.5" x2="179.5" y2="174.1"/>
		<line class="st7" x1="179.5" y1="181.1" x2="179.5" y2="187.7"/>
		<line class="st7" x1="179.5" y1="194.7" x2="179.5" y2="201.3"/>
		<line class="st7" x1="179.5" y1="208.3" x2="179.5" y2="214.8"/>
		<line class="st7" x1="179.5" y1="221.8" x2="179.5" y2="228.4"/>
		<line class="st7" x1="179.5" y1="235.4" x2="179.5" y2="242"/>
		<line class="st7" x1="179.5" y1="249" x2="179.5" y2="255.6"/>
		<line class="st7" x1="179.5" y1="262.6" x2="179.5" y2="269.1"/>
		<line class="st7" x1="179.5" y1="276.1" x2="179.5" y2="282.7"/>
		<line class="st7" x1="179.5" y1="289.7" x2="179.5" y2="296.3"/>
		<line class="st7" x1="179.5" y1="303.3" x2="179.5" y2="309.9"/>
		<line class="st7" x1="179.5" y1="316.9" x2="179.5" y2="323.4"/>
		<line class="st7" x1="179.5" y1="330.5" x2="179.5" y2="337"/>
		<polyline class="st7" points="79.1,87.5 120.3,11.5 150.4,11.5 191.6,87.5 		"/>
		<line class="st28" x1="128.5" y1="27.9" x2="142.2" y2="27.9"/>
		<line class="st28" x1="121.7" y1="37" x2="148.9" y2="37"/>
		<line class="st28" x1="115.9" y1="87.5" x2="154.1" y2="87.5"/>
		<line class="st28" x1="161.4" y1="87.5" x2="188.6" y2="87.5"/>
		<line class="st28" x1="81.1" y1="87.5" x2="108.3" y2="87.5"/>
		<line class="st28" x1="113" y1="45.6" x2="157.6" y2="45.6"/>
		<line class="st28" x1="105.8" y1="56.3" x2="164.9" y2="56.3"/>
		<line class="st28" x1="102.1" y1="66.6" x2="168.6" y2="66.6"/>
		<polyline class="st7" points="364.2,264.5 364.2,363 272.3,363 272.3,264.5 		"/>
		<rect x="364.2" y="235.7" class="st7" width="41.4" height="127.4"/>
		<rect x="364.2" y="196.3" class="st7" width="41.4" height="40"/>
		<rect x="372.8" y="186.2" class="st7" width="24.1" height="9.6"/>
		<rect x="396.9" y="176.6" class="st7" width="8.7" height="19.2"/>
		<rect x="364.2" y="176.6" class="st7" width="8.7" height="19.2"/>
		<polygon class="st7" points="372.8,176.6 364.2,176.6 368.5,157.8 		"/>
		<polygon class="st7" points="405.6,176.6 396.9,176.6 401.2,157.8 		"/>
		<polyline class="st7" points="273.8,268.5 279.7,257.6 285.6,268.5 		"/>
		<polyline class="st7" points="286.5,268.5 292.5,257.6 298.4,268.5 		"/>
		<polyline class="st7" points="299.3,268.5 305.3,257.6 311.2,268.5 		"/>
		<polyline class="st7" points="312.1,268.5 318,257.6 324,268.5 		"/>
		<polyline class="st7" points="324.9,268.5 330.8,257.6 336.8,268.5 		"/>
		<polyline class="st7" points="337.7,268.5 343.6,257.6 349.5,268.5 		"/>
		<polyline class="st7" points="350.5,268.5 356.4,257.6 362.3,268.5 		"/>
		<line class="st7" x1="401.2" y1="144.3" x2="401.2" y2="161.9"/>
		<line class="st7" x1="368.5" y1="144.3" x2="368.5" y2="161.9"/>
		<line class="st7" x1="372.8" y1="148.6" x2="364.2" y2="148.6"/>
		<line class="st7" x1="319.1" y1="237.7" x2="319.1" y2="256.7"/>
		<line class="st7" x1="323.4" y1="242.4" x2="314.7" y2="242.4"/>
		<line class="st7" x1="405.6" y1="148.6" x2="396.9" y2="148.6"/>
		<g>
			<path class="st27" d="M388.3,225.7c-0.1-6.4,0.5-13-3.4-18.9"/>
			<path class="st27" d="M381.5,225.7c0.1-6.4-0.6-13.9,3.4-18.9"/>
			<line class="st27" x1="381.5" y1="225.7" x2="388.3" y2="225.7"/>
		</g>
		<g>
			<path class="st27" d="M388.3,267.4c-0.1-6.4,0.5-13-3.4-18.9"/>
			<path class="st27" d="M381.5,267.4c0.1-6.4-0.6-13.9,3.4-18.9"/>
			<line class="st27" x1="381.5" y1="267.4" x2="388.3" y2="267.4"/>
		</g>
		<g>
			<path class="st27" d="M388.3,303.8c-0.1-6.4,0.5-13-3.4-18.9"/>
			<path class="st27" d="M381.5,303.8c0.1-6.4-0.6-13.9,3.4-18.9"/>
			<line class="st27" x1="381.5" y1="303.8" x2="388.3" y2="303.8"/>
		</g>
		<g>
			<path class="st27" d="M388.3,346.9c-0.1-6.4,0.5-20-3.4-25.9"/>
			<path class="st27" d="M381.5,346.9c0.1-6.4-0.6-20.9,3.4-25.9"/>
			<line class="st27" x1="381.5" y1="346.9" x2="387.7" y2="346.9"/>
		</g>
		<g>
			<g>
				<path class="st27" d="M326.2,355.4c-0.2-13.4,1.1-29.9-7.1-42.3"/>
				<path class="st27" d="M311.8,355.4c0.2-13.4-1.3-31.8,7.1-42.3"/>
				<line class="st27" x1="312.3" y1="355.3" x2="325.8" y2="355.3"/>
			</g>
			<g>
				<path class="st27" d="M350.2,355.4c-0.2-13.4,1.1-24.6-7.1-37.1"/>
				<path class="st27" d="M335.9,355.4c0.2-13.4-1.3-26.5,7.1-37.1"/>
				<line class="st27" x1="336.5" y1="355.4" x2="349.4" y2="355.3"/>
			</g>
			<g>
				<path class="st27" d="M303,355.9c-0.2-13.4,1.1-24.6-7.1-37.1"/>
				<path class="st27" d="M288.7,355.9c0.2-13.4-1.3-26.5,7.1-37.1"/>
				<line class="st27" x1="288.7" y1="355.9" x2="303" y2="355.9"/>
			</g>
		</g>
		<g>
			<path class="st27" d="M325.4,296.3c-0.2-6,0.9-12.2-6.3-17.8"/>
			<path class="st27" d="M312.8,296.3c0.2-6-1.1-13.1,6.3-17.8"/>
			<line class="st27" x1="312.8" y1="296.3" x2="324.4" y2="296.3"/>
		</g>
		<g>
			<path class="st27" d="M352.5,296.3c-0.2-6,0.9-12.2-6.3-17.8"/>
			<path class="st27" d="M339.9,296.3c0.2-6-1.1-13.1,6.3-17.8"/>
			<line class="st27" x1="339.9" y1="296.3" x2="351.5" y2="296.3"/>
		</g>
		<g>
			<path class="st27" d="M299,296.5c-0.2-6,0.9-12.2-6.3-17.8"/>
			<path class="st27" d="M286.4,296.5c0.2-6-1.1-13.1,6.3-17.8"/>
			<line class="st27" x1="286.4" y1="296.5" x2="298" y2="296.5"/>
		</g>
		<rect x="230.5" y="235.7" class="st7" width="41.4" height="127.4"/>
		<rect x="230.5" y="195.3" class="st7" width="41.4" height="40"/>
		<rect x="239.2" y="186.2" class="st7" width="24.1" height="9.6"/>
		<rect x="263.2" y="176.6" class="st7" width="8.7" height="19.2"/>
		<rect x="230.5" y="176.6" class="st7" width="8.7" height="19.2"/>
		<polygon class="st7" points="239.2,176.6 230.5,176.6 234.8,157.8 		"/>
		<polygon class="st7" points="271.9,176.6 263.2,176.6 267.6,157.8 		"/>
		<line class="st7" x1="267.6" y1="144.3" x2="267.6" y2="161.9"/>
		<line class="st7" x1="234.8" y1="144.3" x2="234.8" y2="161.9"/>
		<line class="st7" x1="239.2" y1="148.6" x2="230.5" y2="148.6"/>
		<line class="st7" x1="271.9" y1="148.6" x2="263.2" y2="148.6"/>
		<g>
			<path class="st27" d="M254.6,224.7c-0.1-6.4,0.5-13-3.4-18.9"/>
			<path class="st27" d="M247.8,224.7c0.1-6.4-0.6-13.9,3.4-18.9"/>
			<line class="st27" x1="247.8" y1="224.7" x2="254.6" y2="224.7"/>
		</g>
		<g>
			<path class="st27" d="M254.6,267.4c-0.1-6.4,0.5-13-3.4-18.9"/>
			<path class="st27" d="M247.8,267.4c0.1-6.4-0.6-13.9,3.4-18.9"/>
			<line class="st27" x1="247.8" y1="267.4" x2="254.6" y2="267.4"/>
		</g>
		<g>
			<path class="st27" d="M254.6,303.8c-0.1-6.4,0.5-13-3.4-18.9"/>
			<path class="st27" d="M247.8,303.8c0.1-6.4-0.6-13.9,3.4-18.9"/>
			<line class="st27" x1="247.8" y1="303.8" x2="254.6" y2="303.8"/>
		</g>
		<g>
			<path class="st27" d="M254.6,346.9c-0.1-6.4,0.5-20-3.4-25.9"/>
			<path class="st27" d="M247.8,346.9c0.1-6.4-0.6-20.9,3.4-25.9"/>
			<line class="st27" x1="247.8" y1="346.9" x2="254.1" y2="346.9"/>
		</g>
		<line class="st27" x1="271.9" y1="305.6" x2="364.2" y2="305.6"/>
		<line class="st27" x1="364.2" y1="313.6" x2="403.7" y2="313.6"/>
		<line class="st27" x1="230.7" y1="313.6" x2="270.3" y2="313.6"/>
		<line class="st27" x1="240.4" y1="354.8" x2="260.6" y2="354.8"/>
		<line class="st27" x1="374.5" y1="354.8" x2="394.7" y2="354.8"/>
		<line class="st27" x1="374.9" y1="276.1" x2="395" y2="276.1"/>
		<line class="st27" x1="240.4" y1="276.1" x2="260.6" y2="276.1"/>
		<rect x="112.6" y="103.1" class="st29" width="45" height="17.5"/>
		<line class="st29" x1="135.3" y1="146.8" x2="135.3" y2="361.8"/>
		<g>
			<path class="st7" d="M396.2,82.7c14.5-8.5,24.3-2,25.5,10.2c1.2,12.2-13.3,14.7-13.3,14.7h-61.3c0,0-12.6-3.7-11.3-14.7
				c1.6-14.1,15.2-14.1,20-7"/>
			<path class="st7" d="M351.6,82.1c-5.9-7,5.9-23.2,19.4-14.2"/>
			<path class="st7" d="M369.2,73.5c0,0,5.7-17.9,22.5-13.6c14.5,3.7,12.5,18.9,12.5,18.9"/>
		</g>
		<g>
			<path class="st7" d="M58.9,47.4c5.7-6,15.6-1,16,7s-8,10.3-8,10.3h-30c0,0-8.3-2.7-6.7-11.3s12-7,12.7-5.3"/>
			<path class="st7" d="M65.6,44.7c0,0-1.5-11.4-13.1-10.4S41.3,47.1,41.3,47.1"/>
		</g>
		<g>
			<path class="st7" d="M243.7,21.3c-8.2-8.6-22.5-1.4-23,10.1c-0.6,11.5,11.5,14.9,11.5,14.9h43.2c0,0,12-3.8,9.6-16.3
				c-2.4-12.5-17.3-10.1-18.2-7.7"/>
			<path class="st7" d="M234.1,17.5c0,0,2.2-16.3,18.9-14.9s16,18.3,16,18.3"/>
		</g>
	</g>
</g>
<g id="_x23_Forbidden_x5F_City">
</g>
<g id="_x23_Sydney_x5F_Opera_x5F_House">
</g>
<g id="_x23_Space_x5F_Needle">
</g>
<g id="_x23_Pyramid">
</g>
<g id="_x23_The_x5F_Pantheon">
</g>
<g id="_x23_Emirates_x5F_Towers">
</g>
<g id="_x23_China_x5F_wall">
	<g id="_x23_Empire_x5F_State_x5F_Building">
	</g>
</g>
</svg>
