<?xml version="1.0" encoding="utf-8"?>
<!-- Generator: Adobe Illustrator 19.1.0, SVG Export Plug-In . SVG Version: 6.00 Build 0)  -->
<svg version="1.1" id="Layer_1" xmlns="http://www.w3.org/2000/svg" xmlns:xlink="http://www.w3.org/1999/xlink" x="0px" y="0px"
	 viewBox="0 0 50 50.1" style="enable-background:new 0 0 50 50.1;" xml:space="preserve">
<style type="text/css">
	.st0{fill:none;stroke:#FFFFFF;stroke-width:2;stroke-miterlimit:10;}
</style>
<g>
	<polygon class="st0" points="1.2,14.8 48.9,14.8 48.9,10.3 25.8,1.1 1.2,10.3 	"/>
	<g>
		<polygon class="st0" points="4.6,19.4 6.2,19.4 6.2,41.4 12.4,41.4 12.4,19.4 14,19.4 14,16.9 4.6,16.9 		"/>
		<polygon class="st0" points="20.4,19.4 22,19.4 22,41.4 28.1,41.4 28.1,19.4 29.7,19.4 29.7,16.9 20.4,16.9 		"/>
		<polygon class="st0" points="36.2,16.9 36.2,19.4 37.8,19.4 37.8,41.4 43.9,41.4 43.9,19.4 45.5,19.4 45.5,16.9 		"/>
	</g>
	<polygon class="st0" points="46.7,46.2 46.7,43.5 3.3,43.5 3.3,46.2 1,46.2 1,49.1 49,49.1 49,46.2 	"/>
</g>
</svg>
