<?xml version="1.0" encoding="utf-8"?>
<!-- Generator: Adobe Illustrator 19.1.0, SVG Export Plug-In . SVG Version: 6.00 Build 0)  -->
<svg version="1.1" id="Layer_1" xmlns="http://www.w3.org/2000/svg" xmlns:xlink="http://www.w3.org/1999/xlink" x="0px" y="0px"
	 viewBox="0 0 44.5 48" style="enable-background:new 0 0 44.5 48;" xml:space="preserve">
<style type="text/css">
	.st0{fill:#FFFFFF;}
</style>
<g>
	<g>
		<path class="st0" d="M0.8,13l9.6,5.1v10.6l-9.6-5.1V13 M0,11.8V24l11.1,5.9V17.6L0,11.8L0,11.8z"/>
		<path class="st0" d="M21.5,13v10.6l-9.6,5.1V18.1L21.5,13 M22.3,11.8l-11.1,5.9v12.3L22.3,24V11.8L22.3,11.8z"/>
		<path class="st0" d="M11.1,6.7l9.5,5l-9.5,5l-9.5-5L11.1,6.7 M11.1,5.9L0,11.8l11.1,5.9l11.1-5.9L11.1,5.9L11.1,5.9z"/>
	</g>
	<g>
		<path class="st0" d="M23,13l9.6,5.1v10.6L23,23.6V13 M22.3,11.8V24l11.1,5.9V17.6L22.3,11.8L22.3,11.8z"/>
		<path class="st0" d="M43.8,13v10.6l-9.6,5.1V18.1L43.8,13 M44.5,11.8l-11.1,5.9v12.3L44.5,24V11.8L44.5,11.8z"/>
		<path class="st0" d="M33.4,6.7l9.5,5l-9.5,5l-9.5-5L33.4,6.7 M33.4,5.9l-11.1,5.9l11.1,5.9l11.1-5.9L33.4,5.9L33.4,5.9z"/>
	</g>
	<path class="st0" d="M0.8,25.2l9.6,5.1v10.6l-9.6-5.1V25.2 M0,24v12.3l11.1,5.9V29.9L0,24L0,24z"/>
	<path class="st0" d="M43.8,25.2v10.6l-9.6,5.1V30.3L43.8,25.2 M44.5,24l-11.1,5.9v12.3l11.1-5.9V24L44.5,24z"/>
	<path class="st0" d="M22.3,0.8l9.5,5l-9.5,5l-9.5-5L22.3,0.8 M22.3,0L11.1,5.9l11.1,5.9l11.1-5.9L22.3,0L22.3,0z"/>
	<g>
		<path class="st0" d="M11.9,31.1l9.6,5.1v10.6l-9.6-5.1V31.1 M11.1,29.9v12.3L22.3,48V35.7L11.1,29.9L11.1,29.9z"/>
		<path class="st0" d="M32.6,31.1v10.6L23,46.8V36.2L32.6,31.1 M33.4,29.9l-11.1,5.9V48l11.1-5.9V29.9L33.4,29.9z"/>
		<path class="st0" d="M22.3,24.8l9.5,5l-9.5,5l-9.5-5L22.3,24.8 M22.3,24l-11.1,5.9l11.1,5.9l11.1-5.9L22.3,24L22.3,24z"/>
	</g>
</g>
</svg>
