<?xml version="1.0" encoding="utf-8"?>
<!-- Generator: Adobe Illustrator 19.1.0, SVG Export Plug-In . SVG Version: 6.00 Build 0)  -->
<svg version="1.1" id="Layer_1" xmlns="http://www.w3.org/2000/svg" xmlns:xlink="http://www.w3.org/1999/xlink" x="0px" y="0px"
	 viewBox="0 0 40.3 48" style="enable-background:new 0 0 40.3 48;" xml:space="preserve">
<style type="text/css">
	.st0{fill:#FFFFFF;}
</style>
<g>
	<rect x="19.4" y="0" class="st0" width="1.5" height="7.6"/>
	<rect x="19.4" y="32.8" class="st0" width="1.5" height="10.8"/>
	<g>
		<rect x="5.3" y="32.6" transform="matrix(0.9748 0.2232 -0.2232 0.9748 9.1511 -0.3417)" class="st0" width="1.5" height="15.4"/>
		<rect x="13.5" y="1.7" transform="matrix(0.9748 0.2232 -0.2232 0.9748 1.3507 -3.079)" class="st0" width="1.5" height="5.4"/>
		
			<rect x="26.5" y="39.6" transform="matrix(0.2231 0.9748 -0.9748 0.2231 65.8795 -2.0525)" class="st0" width="15.4" height="1.5"/>
		
			<rect x="23.3" y="3.7" transform="matrix(0.2231 0.9748 -0.9748 0.2231 24.5381 -21.9145)" class="st0" width="5.4" height="1.5"/>
	</g>
	<path class="st0" d="M40.3,33.4H0V6.5h40.3V33.4z M1.5,31.9h37.3V8H1.5V31.9z"/>
	<rect x="6.2" y="39.2" class="st0" width="28" height="1.5"/>
	<g>
		<path class="st0" d="M18.1,30.4c-1.6,0-2.3-0.7-2.4-2.3c-0.1-1.5,0.7-2.1,1.9-2.6c0.2-0.1,0.4-0.2,0.6-0.2
			c0.9-0.3,1.6-0.6,2.1-1.3c0.3-0.5,0.6-1.1,0.4-1.5c0-0.1-0.1-0.2-0.3-0.3c-0.5-0.2-0.8,0.1-1.2,0.6c-0.3,0.3-0.5,0.6-0.9,0.8
			c-0.6,0.4-1.3,0.4-2,0.5c-0.2,0-0.4,0.1-0.6,0.1c-0.2,0-0.4,0.1-0.6,0.1c-0.5,0.1-1.1,0.2-1.7,0.2c-0.8,0-1.5,0.1-2.5,0.2
			c-0.1,0-0.2,0-0.3,0.1c-0.4,0.1-0.9,0.2-1.3,0.1c-0.5-0.1-1-0.5-1.3-1c-0.3-0.5-0.5-1.2-0.3-1.7c0.3-1.2,2.3-2.1,3.1-2.3
			c0.9-0.2,2.3-0.2,3.4,0.1c1.3,0.3,2.2,0.3,2.8,0.1c0.1,0,0.2-0.1,0.4-0.2c0.2-0.2,0.5-0.3,0.8-0.4c0.5-0.1,0.8,0.1,1.1,0.2
			c0.2,0.1,0.4,0.2,0.6,0.2c0,0,0,0,0,0c0.3,0,0.5-0.1,0.7-0.3c0.1-0.1,0.2-0.3,0.1-0.5c-0.1-0.3-0.3-0.5-1.3-0.5
			c-0.1,0-0.3,0-0.4,0c-0.3,0-0.5,0-0.7,0c-1.7-0.1-3.7-0.8-5.3-1.8l-0.1,0c-0.9-0.6-2.4-1.4-2.6-2.7c-0.1-0.8-0.1-1.3,0.2-1.7
			c0.4-0.5,1.1-0.7,1.7-0.8c0.4-0.1,1-0.1,1.5-0.1c1.1,0,1.9,0.2,2.7,0.8c1,0.7,1.7,1.4,2.5,2.2c0.3,0.3,0.6,0.6,0.9,0.9
			c0.3,0.3,0.7,0.7,1,0.7c0.1,0,0.2-0.1,0.4-0.2c0,0,0.1-0.3,0.1-0.5c0.1-0.5,0.3-1.2,0.9-1.2c0.1,0,0.2,0,0.3,0.1
			c0.3,0.2,0.4,0.6,0.4,0.9c0.1,0.5,0.1,0.5,0.3,0.6h0c0.6,0,0.7-1.1,0.9-1.8c0-0.2,0.1-0.4,0.1-0.6l0.1-0.3
			c0.4-1.3,0.9-3.4,2.6-3.4c0.1,0,0.3,0,0.5,0.1c0.7,0.2,1.3,0.6,1.7,1.2c0.5,0.9,0.7,2,0.4,3c-0.3,1.2-1.4,1.8-2.4,2.3
			c-0.4,0.2-0.7,0.4-1,0.6c-0.1,0.1-0.2,0.2-0.3,0.3h0.3l-1,0.7c-0.1,0.1-0.3,0.2-0.3,0.4c0,0.2,0.3,0.4,0.6,0.4
			c1,0.2,2-0.1,2.9-0.3l0.4-0.1c1.1-0.3,2.5-0.8,3.8-0.8c0.5,0,1,0.1,1.4,0.2c0.9,0.4,1.8,1.2,2.1,2.2c0.3,0.7,0.2,1.4-0.1,2
			c-0.5,1-1.6,1.5-3.2,1.5l0,0c-0.8,0-1.8-0.1-2.5-0.4l-0.5-0.1c-0.6-0.2-1.2-0.4-1.8-0.5l-0.2,0c-0.2,0-0.3-0.1-0.4-0.1
			c0,0-0.1,0-0.2,0.3c-0.1,0.4,0,0.6,0.3,0.9c0.3,0.3,0.6,0.8,0.5,1.4l0,0.3l-0.3,0c-0.3,0-0.6,0-0.9,0c-0.4,0-0.9,0-1.2,0
			c-0.2,0-0.2,0-0.3,0.4c0,0.2,0,0.4-0.1,0.6L24.9,26l-0.3,0c-1.2,0.1-1.6,0.1-1.9,1.1c-0.1,0.2-0.1,0.4-0.1,0.7
			c-0.1,0.7-0.2,1.4-0.6,1.8c-0.6,0.6-1.9,0.6-3.3,0.7c-0.2,0-0.3,0-0.4,0C18.3,30.4,18.2,30.4,18.1,30.4z M20.1,21.3
			c0.2,0,0.4,0,0.6,0.1c0.4,0.2,0.7,0.4,0.8,0.8c0.3,0.8-0.3,1.8-0.5,2.2c-0.6,1-1.5,1.3-2.4,1.7c-0.2,0.1-0.4,0.1-0.6,0.2
			c-1.2,0.5-1.5,0.9-1.4,1.9c0.1,1.3,0.5,1.7,1.9,1.6c0.1,0,0.3,0,0.4,0c0.8,0,2.4-0.1,2.8-0.5c0.2-0.2,0.3-0.9,0.4-1.4
			c0-0.3,0.1-0.6,0.1-0.9c0.4-1.4,1.2-1.5,2.3-1.6c0-0.1,0-0.2,0-0.2c0-0.4,0.1-0.9,0.9-1c0.4-0.1,0.9-0.1,1.4,0c0.1,0,0.3,0,0.4,0
			c-0.1-0.2-0.2-0.3-0.3-0.5c-0.3-0.4-0.7-0.9-0.4-1.7c0.1-0.4,0.4-0.8,0.9-0.8c0.2,0,0.3,0,0.5,0.1l0.2,0c0.7,0.1,1.3,0.3,1.9,0.5
			l0.5,0.1c0.7,0.2,1.5,0.3,2.3,0.3l0,0c0.9,0,2.1-0.2,2.6-1.1c0.2-0.4,0.2-0.9,0-1.4c-0.3-0.7-1-1.4-1.7-1.7
			c-0.3-0.1-0.7-0.2-1.2-0.2c-1.1,0-2.5,0.4-3.5,0.7l-0.5,0.1c-1,0.3-2.1,0.5-3.2,0.4c-0.6-0.1-1.1-0.5-1.2-1c0-0.1,0-0.3,0-0.5
			h-0.2l0.7-0.7c0.1-0.1,0.3-0.3,0.4-0.4c0.2-0.2,0.4-0.4,0.7-0.6c0.3-0.2,0.7-0.4,1.1-0.7c0.9-0.5,1.8-0.9,2-1.9
			c0.2-0.8,0.1-1.7-0.4-2.4c-0.2-0.3-0.6-0.8-1.2-0.9c-1.3-0.3-1.8,1.6-2.2,2.8l-0.1,0.3c0,0.1-0.1,0.3-0.1,0.5
			c-0.2,0.9-0.4,2.4-1.6,2.4l-0.1,0c-0.8-0.1-0.9-0.8-1-1.2c0-0.1,0-0.2,0-0.2c-0.1,0.2-0.1,0.4-0.2,0.5c-0.1,0.4-0.2,0.7-0.4,0.9
			c-0.3,0.2-0.6,0.4-0.9,0.4c-0.6,0-1.1-0.5-1.6-0.9c-0.3-0.3-0.6-0.6-0.9-0.9c-0.8-0.8-1.5-1.5-2.4-2.1c-0.7-0.5-1.4-0.7-2.3-0.7
			c-0.5,0-1,0.1-1.4,0.1c-0.6,0.1-1,0.2-1.2,0.5c-0.2,0.2-0.2,0.6-0.1,1.1c0.2,0.9,1.4,1.7,2.2,2.2l0.1,0c1.4,0.9,3.4,1.5,5,1.7
			c0.2,0,0.4,0,0.6,0c0.1,0,0.3,0,0.4,0c0.5,0,1.8,0,2,1.1c0.1,0.4,0,0.8-0.3,1.2c-0.3,0.3-0.7,0.6-1.2,0.6l-0.1,0
			c-0.3,0-0.6-0.1-0.8-0.2c-0.3-0.1-0.5-0.2-0.7-0.1c-0.2,0-0.3,0.2-0.5,0.3c-0.2,0.1-0.3,0.2-0.5,0.3c-0.7,0.3-1.8,0.3-3.2-0.1
			c-0.9-0.2-2.3-0.3-3-0.1c-1,0.3-2.4,1-2.6,1.7c-0.1,0.3,0,0.8,0.2,1.1c0.2,0.4,0.6,0.6,0.9,0.7c0.2,0.1,0.7,0,1-0.1
			c0.1,0,0.2,0,0.4-0.1c1-0.1,1.8-0.2,2.5-0.3c0.5,0,1-0.1,1.6-0.2c0.2,0,0.4-0.1,0.6-0.1c0.2,0,0.4-0.1,0.7-0.1
			c0.6-0.1,1.2-0.2,1.7-0.4c0.2-0.1,0.5-0.4,0.7-0.6C19,21.7,19.4,21.3,20.1,21.3z"/>
		<path class="st0" d="M15.4,20.8l-1.4-2.2C13.7,18,12.2,18,11.5,18l-0.2,0c0,0,0,0,0,0c-0.3,0-0.6,0-0.9,0c-0.3,0-0.7,0-1,0
			c-0.5,0-1.4-0.1-2-0.6c-0.5-0.4-0.7-0.8-0.7-1.2c-0.1,0.1-0.3,0.1-0.4,0.2c-0.5,0.3-1,0.6-1.6,0.6h0c-0.2,0-0.3,0-0.4-0.1
			c-0.6-0.2-0.9-0.6-1-1.1c0-0.5,0.3-1,1-1.3c0.6-0.3,1.5-0.3,2.5-0.2c0.3,0,0.8,0.1,1.2,0.2c0.2,0,0.4-0.1,0.6-0.1l0.1,0
			c1.3,0.1,2.7,0.8,3.4,1.2c0.2,0.2,2.4,1.5,2.7,2.6L15.4,20.8z M7.8,15.4l-0.2,0.4c-0.2,0.3-0.1,0.7,0.4,1.1
			c0.3,0.3,0.8,0.4,1.5,0.4c0.3,0,0.6,0,0.9,0c0.3,0,0.6,0,0.9,0l0.3,0c0.4,0,0.9,0,1.5,0.1c-0.4-0.3-0.8-0.6-1.2-0.8
			c-0.5-0.3-1.9-1.1-3.1-1.1l-0.1,0c-0.2,0-0.3,0-0.5,0.1l-0.1,0L7.8,15.4C7.9,15.5,7.8,15.5,7.8,15.4z M5.9,15.2
			c-0.5,0-1,0.1-1.3,0.2c-0.3,0.1-0.5,0.4-0.5,0.6c0,0.2,0.2,0.3,0.4,0.4c0.1,0,0.1,0,0.2,0l0,0c0.4,0,0.8-0.2,1.3-0.5
			c0.2-0.1,0.4-0.2,0.6-0.3l0.1,0c0.1-0.1,0.3-0.1,0.4-0.2l0.1,0c-0.2,0-0.4-0.1-0.5-0.1C6.4,15.2,6.1,15.2,5.9,15.2z"/>
		<path class="st0" d="M13.3,26.8l0.8-1.6l1.2,0l-0.6,0.6c0,0-0.1,0.1-0.1,0.1L13.3,26.8z"/>
		<path class="st0" d="M8.2,30.8c-0.3,0-0.6,0-0.9-0.1c-0.4-0.1-1-0.4-1.3-0.9c-0.2-0.3-0.2-0.7,0-1C6.3,28,7.2,28,7.5,28
			c0.2,0,0.3,0,0.5,0c0.1,0,0.2,0,0.3,0l0,0c1,0,1.9-0.3,3-0.9c0.3-0.2,0.6-0.4,0.9-0.6l0.1-0.1c0.3-0.2,0.6-0.4,0.9-0.6
			c0.3-0.2,0.5-0.3,0.8-0.5l1.4-1.1l-0.8,1.6c-0.1,0.2-0.3,0.3-0.4,0.4c0,0-0.1,0.1-0.1,0.1l-0.4,0.4c-0.8,0.7-1.5,1.3-2.2,2.1
			C10.7,29.7,9.7,30.8,8.2,30.8z M7.5,28.8c-0.6,0-0.7,0.1-0.8,0.3c-0.1,0.1,0,0.3,0,0.4c0.1,0.3,0.5,0.5,0.8,0.6
			C7.8,30,8,30.1,8.2,30.1c1.1,0,1.8-0.7,2.6-1.7c0.1-0.1,0.1-0.2,0.2-0.3C10,28.7,9,28.8,8,28.8C7.8,28.8,7.7,28.8,7.5,28.8z"/>
		<path class="st0" d="M28.9,16.3l0.5-1c0.3-0.6,0.8-1.3,1.3-1.9c0.2-0.3,0.4-0.6,0.6-0.9c0.3-0.5,1-1,1.6-1c0.6,0,1,0.3,1.2,1
			c0.1,0.4,0.1,0.9-0.1,1.2c-0.5,0.9-1.9,1.4-3.1,1.7c-0.4,0.1-0.7,0.2-0.9,0.3L28.9,16.3z M33,12.2c-0.3,0-0.8,0.3-1,0.7
			c-0.2,0.3-0.4,0.6-0.6,0.9c-0.2,0.3-0.5,0.6-0.7,1c0,0,0.1,0,0.1,0c1-0.3,2.3-0.7,2.6-1.4c0.1-0.2,0.1-0.4,0-0.7
			C33.3,12.2,33.1,12.2,33,12.2z"/>
		<path class="st0" d="M33.9,27.6C33.9,27.6,33.9,27.6,33.9,27.6c-0.2,0-0.5,0-0.7-0.1c-0.5-0.2-0.7-0.6-0.9-0.9
			c-0.1-0.1-0.2-0.3-0.3-0.4c-0.5-0.6-1.4-1.4-2.3-1.7L28.5,24l1.2-0.3c1.2-0.3,2.8,0,4,0.7c0.7,0.4,1.7,1.1,1.7,1.8
			c0,0.3,0,0.6-0.5,1C34.7,27.5,34.1,27.6,33.9,27.6z M31.2,24.4c0.5,0.4,1,0.8,1.4,1.3c0.1,0.1,0.2,0.3,0.3,0.5
			c0.2,0.3,0.3,0.5,0.6,0.6c0,0,0.2,0,0.4,0c0.4,0,0.7-0.1,0.7-0.1c0.2-0.2,0.2-0.3,0.2-0.4c0-0.2-0.2-0.6-1.4-1.3
			C32.7,24.7,31.9,24.4,31.2,24.4z"/>
		<path class="st0" d="M29.8,24.5L29.8,24.5L29.8,24.5L29.8,24.5l-0.3-0.7l0.3-0.1l1.4,0.4L29.8,24.5C29.8,24.5,29.8,24.5,29.8,24.5
			z"/>
	</g>
</g>
</svg>
