<?xml version="1.0" encoding="utf-8"?>
<!-- Generator: Adobe Illustrator 19.1.0, SVG Export Plug-In . SVG Version: 6.00 Build 0)  -->
<svg version="1.1" id="Layer_1" xmlns="http://www.w3.org/2000/svg" xmlns:xlink="http://www.w3.org/1999/xlink" x="0px" y="0px"
	 viewBox="0 0 50 50" style="enable-background:new 0 0 50 50;" xml:space="preserve">
<style type="text/css">
	.st0{fill:none;stroke:#FFFFFF;stroke-width:2;stroke-linejoin:round;stroke-miterlimit:10;}
</style>
<g>
	<circle class="st0" cx="25" cy="25" r="24"/>
	<g>
		<path class="st0" d="M7.4,8c5.9,3.6,9.9,10.1,9.9,17.6C17.2,32.3,14,38.3,9,42"/>
		<path class="st0" d="M42.6,8c-5.9,3.6-9.9,10.1-9.9,17.6c0,6.7,3.2,12.7,8.2,16.5"/>
	</g>
	<line class="st0" x1="13.6" y1="25.7" x2="20.7" y2="25.7"/>
	<line class="st0" x1="12.7" y1="20.7" x2="19.8" y2="20.7"/>
	<line class="st0" x1="12.8" y1="30.6" x2="19.9" y2="30.6"/>
	<line class="st0" x1="10.7" y1="15.8" x2="17.8" y2="15.8"/>
	<line class="st0" x1="10.8" y1="35.4" x2="17.9" y2="35.4"/>
	<line class="st0" x1="35.7" y1="25.7" x2="28.6" y2="25.7"/>
	<line class="st0" x1="36.6" y1="20.7" x2="29.5" y2="20.7"/>
	<line class="st0" x1="36.5" y1="30.6" x2="29.4" y2="30.6"/>
	<line class="st0" x1="38.5" y1="15.8" x2="31.5" y2="15.8"/>
	<line class="st0" x1="38.4" y1="35.4" x2="31.4" y2="35.4"/>
</g>
</svg>
