<?xml version="1.0" encoding="utf-8"?>
<!-- Generator: Adobe Illustrator 19.1.0, SVG Export Plug-In . SVG Version: 6.00 Build 0)  -->
<svg version="1.1" id="Layer_1" xmlns="http://www.w3.org/2000/svg" xmlns:xlink="http://www.w3.org/1999/xlink" x="0px" y="0px"
	 viewBox="0 0 39.2 45" style="enable-background:new 0 0 39.2 45;" xml:space="preserve">
<style type="text/css">
	.st0{fill:#FFFFFF;}
</style>
<g>
	<g>
		<path class="st0" d="M33.8,43.5H22L17.8,30l15.4-4.6c0.2-0.1,0.4-0.3,0.5-0.5c0.1-0.2,0-0.5-0.1-0.7c-3.5-4.7-9.1-7.5-14.9-7.5
			c-1.3,0-2.6,0.1-3.9,0.4c-0.2,0-0.6,0.1-0.8,0.2l-0.2-0.7c-0.1-0.4-0.5-0.6-0.9-0.5c-0.4,0.1-0.6,0.5-0.5,0.9l0.2,0.7
			c-0.2,0.1-0.5,0.2-0.8,0.3C8.7,19.3,6,21.3,3.9,24C1.6,27,0.2,30.6,0,34.3c0,0.2,0.1,0.5,0.3,0.6c0.1,0.1,0.3,0.2,0.5,0.2
			c0.1,0,0.1,0,0.2,0l15.4-4.6l4,13H10.2c-0.4,0-0.8,0.3-0.8,0.8c0,0.4,0.3,0.8,0.8,0.8h23.6c0.4,0,0.8-0.3,0.8-0.8
			C34.6,43.8,34.2,43.5,33.8,43.5z M13.7,19L13.7,19C13.7,19,13.7,19,13.7,19c0.4-0.1,0.8-0.2,1.2-0.3c3,0.4,5.6,1.9,7.6,4.5
			c1,1.3,1.6,2.5,2,3.3L8.8,31.2c-0.1-0.8-0.3-2.2-0.2-3.8c0.3-3.3,1.6-6,3.9-8C12.9,19.2,13.3,19.1,13.7,19L13.7,19z M31.7,24.3
			L25.9,26c-0.4-0.8-1.1-2.3-2.2-3.7c-1.4-1.8-3.1-3.1-4.9-4C23.8,18.3,28.5,20.5,31.7,24.3z M9,21.2C8,23,7.3,25,7.2,27.3
			c-0.1,1.9,0.1,3.4,0.2,4.3l-5.8,1.7C2.2,28.4,5,24,9,21.2z"/>
		<path class="st0" d="M22.4,9.5H26c0.4,0,0.8-0.3,0.8-0.8S26.4,8,26,8h-3.6c-0.4,0-0.8,0.3-0.8,0.8C21.6,9.2,22,9.5,22.4,9.5z"/>
		<path class="st0" d="M38.4,8h-3.6c-0.4,0-0.8,0.3-0.8,0.8s0.3,0.8,0.8,0.8h3.6c0.4,0,0.8-0.3,0.8-0.8C39.2,8.4,38.9,8,38.4,8z"/>
		<path class="st0" d="M34.1,11.4c-0.3-0.3-0.8-0.3-1.1,0c-0.3,0.3-0.3,0.8,0,1.1l1.2,1.2c0.1,0.1,0.3,0.2,0.5,0.2
			c0.2,0,0.4-0.1,0.5-0.2c0.3-0.3,0.3-0.8,0-1.1L34.1,11.4z"/>
		<path class="st0" d="M29.7,13.4v3.4c0,0.4,0.3,0.8,0.8,0.8c0.4,0,0.8-0.3,0.8-0.8v-3.4c0-0.4-0.3-0.8-0.8-0.8
			C30,12.6,29.7,12.9,29.7,13.4z"/>
		<path class="st0" d="M26.7,11.4l-1.2,1.2c-0.3,0.3-0.3,0.8,0,1.1c0.1,0.1,0.3,0.2,0.5,0.2c0.2,0,0.4-0.1,0.5-0.2l1.2-1.2
			c0.3-0.3,0.3-0.8,0-1.1C27.5,11.1,27,11.1,26.7,11.4z"/>
		<path class="st0" d="M30.4,11.5c1.5,0,2.7-1.2,2.7-2.7s-1.2-2.7-2.7-2.7c-1.5,0-2.7,1.2-2.7,2.7S28.9,11.5,30.4,11.5z M30.4,7.6
			c0.7,0,1.2,0.5,1.2,1.2c0,0.7-0.5,1.2-1.2,1.2c-0.7,0-1.2-0.5-1.2-1.2C29.2,8.1,29.8,7.6,30.4,7.6z"/>
		<path class="st0" d="M26.7,6.2c0.1,0.1,0.3,0.2,0.5,0.2s0.4-0.1,0.5-0.2c0.3-0.3,0.3-0.8,0-1.1l-1.2-1.2c-0.3-0.3-0.8-0.3-1.1,0
			c-0.3,0.3-0.3,0.8,0,1.1L26.7,6.2z"/>
		<path class="st0" d="M30.4,5c0.4,0,0.8-0.3,0.8-0.8V0.8c0-0.4-0.3-0.8-0.8-0.8c-0.4,0-0.8,0.3-0.8,0.8v3.4C29.7,4.6,30,5,30.4,5z"
			/>
		<path class="st0" d="M33.6,6.4c0.2,0,0.4-0.1,0.5-0.2l1.2-1.2c0.3-0.3,0.3-0.8,0-1.1c-0.3-0.3-0.8-0.3-1.1,0L33,5.1
			c-0.3,0.3-0.3,0.8,0,1.1C33.2,6.3,33.4,6.4,33.6,6.4z"/>
	</g>
</g>
</svg>
