<?xml version="1.0" encoding="utf-8"?>
<!-- Generator: Adobe Illustrator 19.1.0, SVG Export Plug-In . SVG Version: 6.00 Build 0)  -->
<svg version="1.1" id="Layer_1" xmlns="http://www.w3.org/2000/svg" xmlns:xlink="http://www.w3.org/1999/xlink" x="0px" y="0px"
	 viewBox="0 0 47.4 50" style="enable-background:new 0 0 47.4 50;" xml:space="preserve">
<style type="text/css">
	.st0{fill:none;stroke:#FFFFFF;stroke-width:2;stroke-linecap:round;stroke-linejoin:round;stroke-miterlimit:10;}
</style>
<g>
	<g>
		<path class="st0" d="M36.2,18.8c0,0,7.8-5.1,10,1.2c2.2,6.3-7.9,15.7-10,17.9"/>
		<path class="st0" d="M32.7,3.2c-2.1,0-3.9,1-5,2.5C26.2,2.9,23.4,1,20,1c-3.3,0-6.2,1.9-7.6,4.7c-1.2-1.5-3-2.5-5-2.5
			C3.9,3.2,1,6.1,1,9.6C1,13.1,3.9,16,7.4,16c2.1,0,3.9-1,5-2.5c1.4,2.8,4.3,4.7,7.6,4.7c3.3,0,6.2-1.9,7.6-4.7c1.2,1.5,3,2.5,5,2.5
			c3.5,0,6.4-2.9,6.4-6.4C39.1,6.1,36.2,3.2,32.7,3.2z"/>
		<path class="st0" d="M32.7,16c-1.6,0-3.1-0.6-4.2-1.7h-1.3c-1.5,2.3-4.1,3.9-7.1,3.9c-3,0-5.6-1.6-7.1-3.9h-1.3
			C10.5,15.3,9,16,7.4,16c-1.3,0-2.5-0.4-3.5-1v27.9c0,3.4,2.8,6.2,6.2,6.2H30c3.4,0,6.2-2.8,6.2-6.2V14.9C35.2,15.6,34,16,32.7,16z
			"/>
	</g>
	<line class="st0" x1="12.2" y1="23.3" x2="12.2" y2="40.5"/>
	<line class="st0" x1="20" y1="23.3" x2="20" y2="40.5"/>
	<line class="st0" x1="27.9" y1="23.3" x2="27.9" y2="40.5"/>
</g>
</svg>
