<?xml version="1.0" encoding="utf-8"?>
<!-- Generator: Adobe Illustrator 19.1.0, SVG Export Plug-In . SVG Version: 6.00 Build 0)  -->
<svg version="1.1" id="Layer_1" xmlns="http://www.w3.org/2000/svg" xmlns:xlink="http://www.w3.org/1999/xlink" x="0px" y="0px"
	 viewBox="0 0 50 45.4" style="enable-background:new 0 0 50 45.4;" xml:space="preserve">
<style type="text/css">
	.st0{fill:none;stroke:#FFFFFF;stroke-width:2;stroke-linecap:round;stroke-linejoin:round;stroke-miterlimit:10;}
</style>
<g>
	<g>
		<g>
			<path class="st0" d="M21.3,37.6c11.2,0,20.3-9.8,20.3-21.9H1C1,27.8,10.1,37.6,21.3,37.6z"/>
			<path class="st0" d="M33.4,33.3c-3.4,2.7-7.5,4.3-12.1,4.3c-4.5,0-8.7-1.6-12.1-4.3c-1.4,1.1-2.2,2.4-2.2,3.8
				c0,4,6.4,7.3,14.3,7.3c7.9,0,14.3-3.2,14.3-7.3C35.6,35.7,34.8,34.4,33.4,33.3z"/>
		</g>
		<path class="st0" d="M42.7,18.3c0,0,6.3-2,6.3,3.2c0,7.7-12.4,9.3-12.4,9.3"/>
	</g>
	<g>
		<line class="st0" x1="29.7" y1="4.9" x2="29.7" y2="10.8"/>
		<line class="st0" x1="21.3" y1="1" x2="21.3" y2="10.8"/>
		<line class="st0" x1="13" y1="4.9" x2="13" y2="10.8"/>
	</g>
</g>
</svg>
