<?xml version="1.0" encoding="utf-8"?>
<!-- Generator: Adobe Illustrator 19.1.0, SVG Export Plug-In . SVG Version: 6.00 Build 0)  -->
<svg version="1.1" id="Layer_1" xmlns="http://www.w3.org/2000/svg" xmlns:xlink="http://www.w3.org/1999/xlink" x="0px" y="0px"
	 viewBox="0 0 50 49" style="enable-background:new 0 0 50 49;" xml:space="preserve">
<style type="text/css">
	.st0{fill:none;stroke:#FFFFFF;stroke-width:2;stroke-miterlimit:10;}
</style>
<g>
	<rect x="20.9" y="19.3" class="st0" width="9.2" height="28.7"/>
	<polygon class="st0" points="25.5,9.9 17,19.3 33.9,19.3 	"/>
	<polygon class="st0" points="12.6,24.8 12.6,30 9.8,30 9.8,24.8 7,24.8 7,30 4.2,30 4.2,24.8 1,24.8 1,48 16,48 16,24.8 	"/>
	<polygon class="st0" points="45.6,24.8 45.6,30 42.8,30 42.8,24.8 40,24.8 40,30 37.2,30 37.2,24.8 34,24.8 34,48 49,48 49,24.8 	
		"/>
	<polyline class="st0" points="25.5,10.5 25.5,2.1 25.5,0 	"/>
	<polyline class="st0" points="25.6,6.9 33.1,5.6 25.6,2.4 	"/>
</g>
</svg>
