<?xml version="1.0" encoding="utf-8"?>
<!-- Generator: Adobe Illustrator 19.1.0, SVG Export Plug-In . SVG Version: 6.00 Build 0)  -->
<svg version="1.1" id="Layer_1" xmlns="http://www.w3.org/2000/svg" xmlns:xlink="http://www.w3.org/1999/xlink" x="0px" y="0px"
	 viewBox="0 0 52 45.3" style="enable-background:new 0 0 52 45.3;" xml:space="preserve">
<style type="text/css">
	.st0{fill:#FFFFFF;}
</style>
<g>
	<g>
		<path class="st0" d="M14.9,28c0.5,0,0.9-0.4,0.9-0.9v-2c0-0.5-0.4-0.9-0.9-0.9S14,24.6,14,25.1v2C14,27.6,14.4,28,14.9,28z
			 M14.5,25.1c0-0.2,0.2-0.4,0.4-0.4s0.4,0.2,0.4,0.4v2c0,0.2-0.2,0.4-0.4,0.4c-0.2,0-0.4-0.2-0.4-0.4V25.1z"/>
		<path class="st0" d="M14.9,31.7c-0.5,0-0.9,0.4-0.9,0.9v2c0,0.5,0.4,0.9,0.9,0.9s0.9-0.4,0.9-0.9v-2
			C15.8,32.2,15.4,31.7,14.9,31.7z M15.3,34.6c0,0.2-0.2,0.4-0.4,0.4c-0.2,0-0.4-0.2-0.4-0.4v-2c0-0.2,0.2-0.4,0.4-0.4
			s0.4,0.2,0.4,0.4V34.6z"/>
		<path class="st0" d="M14.9,31.2c0.5,0,0.9-0.4,0.9-0.9c0-0.5-0.4-0.9-0.9-0.9c-0.5,0-0.9,0.4-0.9,0.9S14.4,31.2,14.9,31.2z
			 M14.9,30c0.2,0,0.3,0.2,0.3,0.3c0,0.2-0.2,0.3-0.3,0.3s-0.3-0.2-0.3-0.3C14.6,30.1,14.7,30,14.9,30z"/>
		<path class="st0" d="M26,30.2c0.5,0,0.9-0.4,0.9-0.9c0-0.5-0.4-0.9-0.9-0.9c-0.5,0-0.9,0.4-0.9,0.9C25.1,29.9,25.5,30.2,26,30.2z
			 M26,29c0.2,0,0.3,0.2,0.3,0.3c0,0.2-0.2,0.3-0.3,0.3c-0.2,0-0.3-0.2-0.3-0.3C25.6,29.2,25.8,29,26,29z"/>
		<path class="st0" d="M37,28c0.5,0,0.9-0.4,0.9-0.9v-2c0-0.5-0.4-0.9-0.9-0.9c-0.5,0-0.9,0.4-0.9,0.9v2C36.1,27.6,36.5,28,37,28z
			 M36.6,25.1c0-0.2,0.2-0.4,0.4-0.4c0.2,0,0.4,0.2,0.4,0.4v2c0,0.2-0.2,0.4-0.4,0.4c-0.2,0-0.4-0.2-0.4-0.4V25.1z"/>
		<path class="st0" d="M37,31.7c-0.5,0-0.9,0.4-0.9,0.9v2c0,0.5,0.4,0.9,0.9,0.9c0.5,0,0.9-0.4,0.9-0.9v-2
			C37.9,32.2,37.5,31.7,37,31.7z M37.4,34.6c0,0.2-0.2,0.4-0.4,0.4c-0.2,0-0.4-0.2-0.4-0.4v-2c0-0.2,0.2-0.4,0.4-0.4
			c0.2,0,0.4,0.2,0.4,0.4V34.6z"/>
		<path class="st0" d="M37,31.2c0.5,0,0.9-0.4,0.9-0.9c0-0.5-0.4-0.9-0.9-0.9c-0.5,0-0.9,0.4-0.9,0.9S36.5,31.2,37,31.2z M37,30
			c0.2,0,0.3,0.2,0.3,0.3c0,0.2-0.2,0.3-0.3,0.3c-0.2,0-0.3-0.2-0.3-0.3C36.7,30.1,36.8,30,37,30z"/>
		<path class="st0" d="M26,24.8c0.5,0,0.9-0.4,0.9-0.9v-2c0-0.5-0.4-0.9-0.9-0.9c-0.5,0-0.9,0.4-0.9,0.9v2
			C25.1,24.4,25.5,24.8,26,24.8z M25.6,21.9c0-0.2,0.2-0.4,0.4-0.4s0.4,0.2,0.4,0.4v2c0,0.2-0.2,0.4-0.4,0.4s-0.4-0.2-0.4-0.4V21.9z
			"/>
		<path class="st0" d="M6.1,9.5c-0.5,0-0.9,0.4-0.9,0.9v2c0,0.5,0.4,0.9,0.9,0.9S7,12.9,7,12.4v-2C7,9.9,6.6,9.5,6.1,9.5z M6.4,12.4
			c0,0.2-0.2,0.4-0.4,0.4c-0.2,0-0.4-0.2-0.4-0.4v-2c0-0.2,0.2-0.4,0.4-0.4c0.2,0,0.4,0.2,0.4,0.4V12.4z"/>
		<path class="st0" d="M5.5,32.9h1.1c0.1,0,0.3-0.1,0.3-0.3v-1.5c0-0.1-0.1-0.3-0.3-0.3H5.5c-0.1,0-0.3,0.1-0.3,0.3v1.5
			C5.3,32.8,5.4,32.9,5.5,32.9z M5.8,31.4h0.6v1H5.8V31.4z"/>
		<path class="st0" d="M5.5,29.8h1.1c0.1,0,0.3-0.1,0.3-0.3V28c0-0.1-0.1-0.3-0.3-0.3H5.5c-0.1,0-0.3,0.1-0.3,0.3v1.5
			C5.3,29.7,5.4,29.8,5.5,29.8z M5.8,28.3h0.6v1H5.8V28.3z"/>
		<path class="st0" d="M6.6,40.7H5.5c-0.1,0-0.3,0.1-0.3,0.3v1.5c0,0.1,0.1,0.3,0.3,0.3h1.1c0.1,0,0.3-0.1,0.3-0.3V41
			C6.8,40.8,6.7,40.7,6.6,40.7z M6.3,42.2H5.8v-1h0.6V42.2z"/>
		<path class="st0" d="M6.6,37.6H5.5c-0.1,0-0.3,0.1-0.3,0.3v1.5c0,0.1,0.1,0.3,0.3,0.3h1.1c0.1,0,0.3-0.1,0.3-0.3v-1.5
			C6.8,37.7,6.7,37.6,6.6,37.6z M6.3,39.1H5.8v-1h0.6V39.1z"/>
		<path class="st0" d="M5.5,26.7h1.1c0.1,0,0.3-0.1,0.3-0.3v-1.5c0-0.1-0.1-0.3-0.3-0.3H5.5c-0.1,0-0.3,0.1-0.3,0.3v1.5
			C5.3,26.6,5.4,26.7,5.5,26.7z M5.8,25.2h0.6v1H5.8V25.2z"/>
		<path class="st0" d="M5.5,23.6h1.1c0.1,0,0.3-0.1,0.3-0.3v-1.5c0-0.1-0.1-0.3-0.3-0.3H5.5c-0.1,0-0.3,0.1-0.3,0.3v1.5
			C5.3,23.5,5.4,23.6,5.5,23.6z M5.8,22.1h0.6v1H5.8V22.1z"/>
		<path class="st0" d="M51.7,18.5h-1h-0.5v-3.6c0-0.1-0.1-0.3-0.3-0.3h-0.6V7.9c0,0,0,0,0,0c0-1.8-1.4-3.2-3.1-3.4V4
			c0.4-0.1,0.6-0.5,0.6-0.9s-0.3-0.8-0.6-0.9v-2C46.2,0.1,46,0,45.9,0c-0.1,0-0.3,0.1-0.3,0.3v2C45.3,2.4,45,2.8,45,3.2
			c0,0.4,0.3,0.8,0.6,0.9v0.5c-1.7,0.1-3.1,1.6-3.1,3.4c0,0,0,0,0,0v6.7h-0.6c-0.1,0-0.3,0.1-0.3,0.3v3.6h-0.5h-1
			c-0.1,0-0.3,0.1-0.3,0.3c0,0.1,0.1,0.3,0.3,0.3h0.8v4.3h-2.6v-1c0-0.6-0.4-1.2-1-1.3v-1c0-0.1-0.1-0.3-0.3-0.3s-0.3,0.1-0.3,0.3v1
			c-0.6,0.1-1,0.6-1,1.3v1h-2.6V20c0-0.1-0.1-0.3-0.3-0.3H32v-1c0-0.1-0.1-0.3-0.3-0.3s-0.3,0.1-0.3,0.3v1h-0.7
			c-0.1-0.9-0.9-1.5-1.8-1.5c-0.6,0-1.2,0.3-1.5,0.8v-0.5c0-0.8-0.6-1.4-1.3-1.5v-0.5c0.4-0.1,0.6-0.5,0.6-0.9s-0.3-0.8-0.6-0.9v-2
			c0-0.1-0.1-0.3-0.3-0.3s-0.3,0.1-0.3,0.3v2c-0.4,0.1-0.6,0.5-0.6,0.9s0.3,0.8,0.6,0.9v0.5c-0.7,0.1-1.3,0.8-1.3,1.5v0.3
			c-0.3-0.3-0.8-0.5-1.3-0.5c-0.9,0-1.7,0.7-1.8,1.5h-0.9v-1c0-0.1-0.1-0.3-0.3-0.3c-0.1,0-0.3,0.1-0.3,0.3v1H19
			c-0.1,0-0.3,0.1-0.3,0.3v3.3h-2.6v-1c0-0.6-0.4-1.2-1-1.3v-1c0-0.1-0.1-0.3-0.3-0.3c-0.1,0-0.3,0.1-0.3,0.3v1
			c-0.6,0.1-1,0.6-1,1.3v1h-2.6V19h0.8c0.1,0,0.3-0.1,0.3-0.3c0-0.1-0.1-0.3-0.3-0.3h-1h-0.5v-3.6c0-0.1-0.1-0.3-0.3-0.3H9.5V7.9
			c0,0,0,0,0,0c0-1.8-1.4-3.2-3.1-3.4V4C6.7,3.9,7,3.6,7,3.2S6.7,2.4,6.3,2.3v-2C6.3,0.1,6.2,0,6,0S5.8,0.1,5.8,0.3v2
			C5.4,2.4,5.1,2.8,5.1,3.2c0,0.4,0.3,0.8,0.6,0.9v0.5C4.1,4.7,2.7,6.1,2.7,7.9c0,0,0,0,0,0v6.7H2.1c-0.1,0-0.3,0.1-0.3,0.3v3.6H1.3
			h-1c-0.1,0-0.3,0.1-0.3,0.3C0,18.9,0.1,19,0.3,19H1v26c0,0.1,0.1,0.3,0.3,0.3h9.5H19h2.3h1.5h6.2h1.5h2.3h8.2h0h9.5
			c0.1,0,0.3-0.1,0.3-0.3v-9.6c0,0,0-0.1,0-0.1c0,0,0-0.1,0-0.1V19h0.8c0.1,0,0.3-0.1,0.3-0.3C52,18.6,51.8,18.5,51.7,18.5z M45.9,5
			c1.5,0,2.7,1.1,2.9,2.6H43C43.2,6.2,44.4,5,45.9,5z M43,8.2h5.8v6.5H43V8.2L43,8.2z M42.8,15.2H49h0.6v1.4h-2.8
			c-0.1-0.4-0.5-0.7-0.9-0.7c-0.5,0-0.8,0.3-0.9,0.7h-2.8v-1.4L42.8,15.2L42.8,15.2z M46.4,16.8c0,0.3-0.2,0.5-0.5,0.5
			c-0.3,0-0.5-0.2-0.5-0.5s0.2-0.5,0.5-0.5C46.2,16.4,46.4,16.6,46.4,16.8z M42.2,17.1H45c0.1,0.4,0.5,0.7,0.9,0.7
			c0.5,0,0.8-0.3,0.9-0.7h2.8v1.4h-7.4V17.1L42.2,17.1z M33.2,29h7.7v7.2h-7.7V29z M36,23.9c0.1,0,0.3-0.1,0.3-0.3v-1.3
			c0-0.4,0.3-0.8,0.8-0.8c0.4,0,0.8,0.3,0.8,0.8v1.3c0,0.1,0.1,0.3,0.3,0.3h2.8v4.6h-7.7v-4.6H36z M21.6,36.2v-0.3h1.9
			c0.1,0,0.3-0.1,0.3-0.3c0-1.2,1-2.2,2.2-2.2s2.2,1,2.2,2.2c0,0.1,0.1,0.3,0.3,0.3h1.9v0.3h-1.2h-6.2H21.6L21.6,36.2z M24.4,29
			c0.1,0,0.3-0.1,0.3-0.3c0-0.7,0.6-1.3,1.3-1.3c0.7,0,1.3,0.6,1.3,1.3c0,0.1,0.1,0.3,0.3,0.3h2.8v6.4h-1.6C28.5,34,27.4,33,26,33
			c-1.4,0-2.6,1.1-2.7,2.4h-1.6V29H24.4z M30.3,36.7v8h-1v-8H30.3L30.3,36.7z M29,18.7c0.6,0,1.1,0.4,1.3,1h-2.5
			C27.9,19.2,28.4,18.7,29,18.7z M26,17.4c0.6,0,1,0.5,1,1V20c0,0.1,0.1,0.3,0.3,0.3h3v8.2h-2.5c-0.1-0.9-0.9-1.6-1.8-1.6
			c-0.9,0-1.7,0.7-1.8,1.6h-2.5v-8.2h3c0,0,0,0,0,0c0,0,0,0,0,0c0.1,0,0.3-0.1,0.3-0.3c0-0.1,0-0.2,0-0.3v-1.3
			C24.9,17.9,25.4,17.4,26,17.4z M23.1,18.7c0.6,0,1.1,0.4,1.3,1h-2.5C22,19.2,22.5,18.7,23.1,18.7z M11.1,35.4
			C11.1,35.3,11.1,35.3,11.1,35.4c0-0.1,0-0.1,0-0.2V29h7.7v7.2h-7.7V35.4z M13.9,23.9c0.1,0,0.3-0.1,0.3-0.3v-1.3
			c0-0.4,0.3-0.8,0.8-0.8c0.4,0,0.8,0.3,0.8,0.8v1.3c0,0.1,0.1,0.3,0.3,0.3h2.8v4.6h-7.7v-4.6H13.9z M6.1,5c1.5,0,2.7,1.1,2.9,2.6
			H3.2C3.3,6.2,4.6,5,6.1,5z M3.2,8.2h5.8v6.5H3.2V8.2z M2.9,15.2h6.3h0.6v1.4H7c-0.1-0.4-0.5-0.7-0.9-0.7c-0.5,0-0.8,0.3-0.9,0.7
			H2.3v-1.4L2.9,15.2L2.9,15.2z M6.5,16.8c0,0.3-0.2,0.5-0.5,0.5c-0.3,0-0.5-0.2-0.5-0.5s0.2-0.5,0.5-0.5
			C6.3,16.4,6.5,16.6,6.5,16.8z M2.3,17.1h2.8c0.1,0.4,0.5,0.7,0.9,0.7c0.5,0,0.8-0.3,0.9-0.7h2.8v1.4H2.3V17.1z M2.1,19h8h0.5v4.6
			V35h-9V19H2.1z M1.5,35.6h9v9.2h-9V35.6z M11.1,36.7h7.7v8h-2.2v-4.3c0-0.9-0.7-1.6-1.6-1.6s-1.6,0.7-1.6,1.6v4.3h-2.2L11.1,36.7
			L11.1,36.7z M16,44.7h-2.2v-4.3c0-0.6,0.5-1.1,1.1-1.1c0.6,0,1.1,0.5,1.1,1.1V44.7L16,44.7z M19.3,23.6v-3.3h1.8v24.5h-1.8V23.6z
			 M21.6,36.7h1v8h-1V36.7z M27.4,44.7h-2.9v-4.9c0-0.8,0.7-1.5,1.5-1.5c0.8,0,1.5,0.7,1.5,1.5V44.7z M27.9,44.7v-4.9
			c0-1.1-0.9-2-2-2c-1.1,0-2,0.9-2,2v4.9h-0.8v-8h5.6v8H27.9z M30.8,20.3h1.8v3.3v21.1h-1.8V20.3z M33.2,36.7h7.7v8h-2.2v-4.3
			c0-0.9-0.7-1.6-1.6-1.6c-0.9,0-1.6,0.7-1.6,1.6v4.3h-2.2L33.2,36.7L33.2,36.7z M38.1,44.7h-2.2v-4.3c0-0.6,0.5-1.1,1.1-1.1
			s1.1,0.5,1.1,1.1V44.7L38.1,44.7z M41.4,44.7v-9.2h9v9.2H41.4z M50.4,35h-9V23.6c0,0,0,0,0,0V19h0.5h8h0.5V35z"/>
		<path class="st0" d="M45.9,9.5c-0.5,0-0.9,0.4-0.9,0.9v2c0,0.5,0.4,0.9,0.9,0.9c0.5,0,0.9-0.4,0.9-0.9v-2
			C46.8,9.9,46.4,9.5,45.9,9.5z M46.3,12.4c0,0.2-0.2,0.4-0.4,0.4c-0.2,0-0.4-0.2-0.4-0.4v-2c0-0.2,0.2-0.4,0.4-0.4
			c0.2,0,0.4,0.2,0.4,0.4V12.4z"/>
		<path class="st0" d="M46.4,30.9h-1.1c-0.1,0-0.3,0.1-0.3,0.3v1.5c0,0.1,0.1,0.3,0.3,0.3h1.1c0.1,0,0.3-0.1,0.3-0.3v-1.5
			C46.7,31,46.6,30.9,46.4,30.9z M46.2,32.4h-0.6v-1h0.6V32.4z"/>
		<path class="st0" d="M46.4,27.8h-1.1c-0.1,0-0.3,0.1-0.3,0.3v1.5c0,0.1,0.1,0.3,0.3,0.3h1.1c0.1,0,0.3-0.1,0.3-0.3V28
			C46.7,27.9,46.6,27.8,46.4,27.8z M46.2,29.3h-0.6v-1h0.6V29.3z"/>
		<path class="st0" d="M46.4,40.7h-1.1c-0.1,0-0.3,0.1-0.3,0.3v1.5c0,0.1,0.1,0.3,0.3,0.3h1.1c0.1,0,0.3-0.1,0.3-0.3V41
			C46.7,40.8,46.6,40.7,46.4,40.7z M46.2,42.2h-0.6v-1h0.6V42.2z"/>
		<path class="st0" d="M46.4,37.6h-1.1c-0.1,0-0.3,0.1-0.3,0.3v1.5c0,0.1,0.1,0.3,0.3,0.3h1.1c0.1,0,0.3-0.1,0.3-0.3v-1.5
			C46.7,37.7,46.6,37.6,46.4,37.6z M46.2,39.1h-0.6v-1h0.6V39.1z"/>
		<path class="st0" d="M46.4,24.7h-1.1c-0.1,0-0.3,0.1-0.3,0.3v1.5c0,0.1,0.1,0.3,0.3,0.3h1.1c0.1,0,0.3-0.1,0.3-0.3v-1.5
			C46.7,24.8,46.6,24.7,46.4,24.7z M46.2,26.2h-0.6v-1h0.6V26.2z"/>
		<path class="st0" d="M46.4,21.6h-1.1c-0.1,0-0.3,0.1-0.3,0.3v1.5c0,0.1,0.1,0.3,0.3,0.3h1.1c0.1,0,0.3-0.1,0.3-0.3v-1.5
			C46.7,21.7,46.6,21.6,46.4,21.6z M46.2,23.1h-0.6v-1h0.6V23.1z"/>
	</g>
</g>
</svg>
