<?xml version="1.0" encoding="utf-8"?>
<!-- Generator: Adobe Illustrator 19.1.0, SVG Export Plug-In . SVG Version: 6.00 Build 0)  -->
<svg version="1.1" id="Layer_1" xmlns="http://www.w3.org/2000/svg" xmlns:xlink="http://www.w3.org/1999/xlink" x="0px" y="0px"
	 viewBox="0 0 47.8 50" style="enable-background:new 0 0 47.8 50;" xml:space="preserve">
<style type="text/css">
	.st0{fill:none;stroke:#FFFFFF;stroke-width:2;stroke-linejoin:round;stroke-miterlimit:10;}
</style>
<g>
	<g>
		<path class="st0" d="M42.9,19.7c-4.5,3.7-11.2,3.1-14.9-1.4C24.3,13.8,25,7.2,29.5,3.4C34-0.3,40.7,0.3,44.4,4.8
			C48.1,9.3,47.4,16,42.9,19.7z"/>
		<polyline class="st0" points="35.3,22 5.3,41.2 1.2,36.3 25.7,10.4 		"/>
		<path class="st0" d="M3.9,38.9c-1.5,0.5-2.7,2.8-2.9,4.2c-0.2,2.5,1.8,4.6,4.1,5.4c4.3,1.4,8.6-0.3,12-2.7c2-1.3,3.6-3.1,5.6-4.3
			c2.3-1.4,5.2-1.6,7.8-1.8c4.8-0.2,5.3,2.7,8.4,5.6c2.2,2.1,4,2.5,6.9,2.5"/>
	</g>
	<line class="st0" x1="39.9" y1="5" x2="40.9" y2="6.1"/>
	<line class="st0" x1="40.2" y1="8.2" x2="41.1" y2="9.3"/>
	<line class="st0" x1="36.9" y1="8.2" x2="37.9" y2="9.3"/>
	<line class="st0" x1="36.4" y1="5" x2="37.4" y2="6.1"/>
	<line class="st0" x1="37.4" y1="11.3" x2="38.4" y2="12.4"/>
	<line class="st0" x1="33.5" y1="8.2" x2="34.5" y2="9.3"/>
	<line class="st0" x1="40.6" y1="11.3" x2="41.6" y2="12.4"/>
	<line class="st0" x1="43.5" y1="9.3" x2="44.5" y2="10.3"/>
	<line class="st0" x1="33" y1="4.7" x2="34" y2="5.8"/>
	<line class="st0" x1="33.7" y1="11.9" x2="34.7" y2="12.9"/>
	<line class="st0" x1="36.9" y1="14.7" x2="37.9" y2="15.7"/>
	<line class="st0" x1="39.9" y1="15.2" x2="40.9" y2="16.3"/>
	<line class="st0" x1="43.5" y1="13.1" x2="44.5" y2="14.2"/>
	<line class="st0" x1="36.9" y1="2.1" x2="37.9" y2="3.2"/>
	<line class="st0" x1="39.4" y1="18.4" x2="40.4" y2="19.5"/>
	<line class="st0" x1="36.2" y1="19.5" x2="37.2" y2="20.6"/>
	<line class="st0" x1="33.7" y1="16.3" x2="34.7" y2="17.3"/>
	<line class="st0" x1="30.4" y1="14.2" x2="31.3" y2="15.2"/>
	<line class="st0" x1="29.4" y1="10.5" x2="30.4" y2="11.6"/>
	<line class="st0" x1="29.9" y1="6.5" x2="30.8" y2="7.5"/>
	<line class="st0" x1="31.1" y1="19" x2="32" y2="20"/>
</g>
</svg>
