<?xml version="1.0" encoding="utf-8"?>
<!-- Generator: Adobe Illustrator 19.1.0, SVG Export Plug-In . SVG Version: 6.00 Build 0)  -->
<svg version="1.1" id="Layer_1" xmlns="http://www.w3.org/2000/svg" xmlns:xlink="http://www.w3.org/1999/xlink" x="0px" y="0px"
	 viewBox="0 0 44.3 47.8" style="enable-background:new 0 0 44.3 47.8;" xml:space="preserve">
<style type="text/css">
	.st0{fill:#FFFFFF;}
</style>
<path class="st0" d="M43.8,47.8H0.5c-0.3,0-0.5-0.2-0.5-0.5s0.2-0.5,0.5-0.5h15.4v-2H15c-0.3,0-0.5-0.2-0.5-0.5
	c0-0.3,0.2-0.5,0.5-0.5h0.9v-3.5H15c-0.3,0-0.5-0.2-0.5-0.5s0.2-0.5,0.5-0.5h0.9v-0.8H12v1.1c0,0.3-0.2,0.5-0.5,0.5S11,39.8,11,39.5
	v-1.1h-0.4c-1.6,0-3.1-0.7-4.2-1.7l-0.7,0.7c-0.2,0.2-0.5,0.2-0.7,0c-0.2-0.2-0.2-0.5,0-0.7L5.8,36c-0.6-0.9-1-1.9-1.1-3H3.8
	c-0.3,0-0.5-0.2-0.5-0.5S3.5,32,3.8,32h0.9v-3.4H3.8c-0.3,0-0.5-0.2-0.5-0.5c0-0.3,0.2-0.5,0.5-0.5h0.9v-3.4H3.8
	c-0.3,0-0.5-0.2-0.5-0.5c0-0.3,0.2-0.5,0.5-0.5h0.9c0-0.8,0.4-1.6,1-2.2c0.5-0.5,1-0.8,1.7-0.9v-1c0-0.3,0.2-0.5,0.5-0.5
	s0.5,0.2,0.5,0.5v1c1.5,0.2,2.7,1.5,2.8,3h1.1c0.3,0,0.5,0.2,0.5,0.5c0,0.3-0.2,0.5-0.5,0.5h-1.1v3.4h1.1c0.3,0,0.5,0.2,0.5,0.5
	c0,0.3-0.2,0.5-0.5,0.5h-1.1v1.8c0,0.9,0.8,1.7,1.7,1.7h3v-1.4H15c-0.3,0-0.5-0.2-0.5-0.5c0-0.3,0.2-0.5,0.5-0.5h0.9v-3.4H15
	c-0.3,0-0.5-0.2-0.5-0.5c0-0.3,0.2-0.5,0.5-0.5h0.9v-3.4H15c-0.3,0-0.5-0.2-0.5-0.5s0.2-0.5,0.5-0.5h0.9v-3.4H15
	c-0.3,0-0.5-0.2-0.5-0.5c0-0.3,0.2-0.5,0.5-0.5h0.9v-3.4H15c-0.3,0-0.5-0.2-0.5-0.5c0-0.3,0.2-0.5,0.5-0.5h0.9V8.7H15
	c-0.3,0-0.5-0.2-0.5-0.5s0.2-0.5,0.5-0.5h0.9c0.1-1.6,0.8-3,1.8-4.1l-0.8-0.8c-0.2-0.2-0.2-0.5,0-0.7c0.2-0.2,0.5-0.2,0.7,0l0.8,0.8
	c1-0.8,2.3-1.3,3.7-1.4V0.5c0-0.3,0.2-0.5,0.5-0.5c0.3,0,0.5,0.2,0.5,0.5v0.9c1.4,0.1,2.7,0.6,3.7,1.5L27.8,2c0.2-0.2,0.5-0.2,0.7,0
	c0.2,0.2,0.2,0.5,0,0.7l-0.8,0.8c1,1.1,1.7,2.5,1.8,4.1h1c0.3,0,0.5,0.2,0.5,0.5s-0.2,0.5-0.5,0.5h-0.9v3.4h0.9
	c0.3,0,0.5,0.2,0.5,0.5c0,0.3-0.2,0.5-0.5,0.5h-0.9v3.4h0.9c0.3,0,0.5,0.2,0.5,0.5c0,0.3-0.2,0.5-0.5,0.5h-0.9v1.7h3.2
	c1.2,0,2.2-1,2.2-2.2v-1.3h-0.7c-0.3,0-0.5-0.2-0.5-0.5s0.2-0.5,0.5-0.5h0.7v-2.9h-0.7c-0.3,0-0.5-0.2-0.5-0.5s0.2-0.5,0.5-0.5h0.9
	c0.3-1,1.2-1.7,2.2-1.9V8.2c0-0.3,0.2-0.5,0.5-0.5s0.5,0.2,0.5,0.5v0.7c0.5,0.1,1,0.3,1.4,0.7c0.3,0.3,0.6,0.7,0.7,1.1h0.8
	c0.3,0,0.5,0.2,0.5,0.5s-0.2,0.5-0.5,0.5h-0.7v2.9h0.7c0.3,0,0.5,0.2,0.5,0.5s-0.2,0.5-0.5,0.5h-0.7v2.9h0.7c0.3,0,0.5,0.2,0.5,0.5
	c0,0.3-0.2,0.5-0.5,0.5h-0.7v0.1c0,1.2-0.4,2.3-1.1,3.2l0.4,0.4c0.2,0.2,0.2,0.5,0,0.7c-0.2,0.2-0.5,0.2-0.7,0l-0.4-0.4
	c-0.9,0.8-2.1,1.3-3.4,1.3h-0.7v0.7c0,0.3-0.2,0.5-0.5,0.5c-0.3,0-0.5-0.2-0.5-0.5v-0.7h-4.1v0.9h0.9c0.3,0,0.5,0.2,0.5,0.5
	c0,0.3-0.2,0.5-0.5,0.5h-0.9v3.5h0.9c0.3,0,0.5,0.2,0.5,0.5c0,0.3-0.2,0.5-0.5,0.5h-0.9v3.5h0.9c0.3,0,0.5,0.2,0.5,0.5
	s-0.2,0.5-0.5,0.5h-0.9v3.5h0.9c0.3,0,0.5,0.2,0.5,0.5c0,0.3-0.2,0.5-0.5,0.5h-0.9v3.5h0.9c0.3,0,0.5,0.2,0.5,0.5s-0.2,0.5-0.5,0.5
	h-0.9v2h14.3c0.3,0,0.5,0.2,0.5,0.5C44.3,47.5,44,47.8,43.8,47.8z M20.9,46.7h7.6V24.4c0-0.3,0.2-0.5,0.5-0.5h6.3
	c2.3,0,4.1-1.9,4.1-4.1v-8c0-0.5-0.2-1-0.6-1.3c-0.3-0.3-0.8-0.5-1.2-0.5c0,0,0,0,0,0c0,0-0.1,0-0.1,0c-1,0.1-1.7,0.9-1.7,1.9V17
	c0,1.7-1.4,3.2-3.2,3.2h-3.7c-0.3,0-0.5-0.2-0.5-0.5V8.2c0-3.2-2.6-5.8-5.8-5.8S16.9,5,16.9,8.2v24.4c0,0.3-0.2,0.5-0.5,0.5h-3.5
	c-1.5,0-2.7-1.2-2.7-2.7v-7c0-1.2-1-2.3-2.1-2.3c-0.6,0-1.2,0.2-1.6,0.6c-0.4,0.4-0.7,1-0.7,1.6v9.3c0,2.7,2.2,4.9,4.9,4.9h5.8
	c0.3,0,0.5,0.2,0.5,0.5v8.8h2.9v-2.8h-1.1c-0.3,0-0.5-0.2-0.5-0.5s0.2-0.5,0.5-0.5h1.1v-3.4h-1.1c-0.3,0-0.5-0.2-0.5-0.5
	s0.2-0.5,0.5-0.5h1.1v-3.4h-1.1c-0.3,0-0.5-0.2-0.5-0.5s0.2-0.5,0.5-0.5h1.1v-3.4h-1.1c-0.3,0-0.5-0.2-0.5-0.5
	c0-0.3,0.2-0.5,0.5-0.5h1.1v-3.4h-1.1c-0.3,0-0.5-0.2-0.5-0.5c0-0.3,0.2-0.5,0.5-0.5h1.1v-3.4h-1.1c-0.3,0-0.5-0.2-0.5-0.5
	s0.2-0.5,0.5-0.5h1.1v-3.4h-1.1c-0.3,0-0.5-0.2-0.5-0.5c0-0.3,0.2-0.5,0.5-0.5h1.1v-3.4h-1.1c-0.3,0-0.5-0.2-0.5-0.5
	c0-0.3,0.2-0.5,0.5-0.5h1.1V8.7h-1.1c-0.3,0-0.5-0.2-0.5-0.5s0.2-0.5,0.5-0.5h1.1V6.8c0-0.3,0.2-0.5,0.5-0.5c0.3,0,0.5,0.2,0.5,0.5
	V46.7z"/>
</svg>
