<?xml version="1.0" encoding="utf-8"?>
<!-- Generator: Adobe Illustrator 19.1.0, SVG Export Plug-In . SVG Version: 6.00 Build 0)  -->
<svg version="1.1" id="Layer_1" xmlns="http://www.w3.org/2000/svg" xmlns:xlink="http://www.w3.org/1999/xlink" x="0px" y="0px"
	 viewBox="0 0 57.2 47.7" style="enable-background:new 0 0 57.2 47.7;" xml:space="preserve">
<style type="text/css">
	.st0{fill:#FFFFFF;}
</style>
<g>
	<g>
		<path class="st0" d="M9,40.9c0.1,0.3,0.4,0.5,0.7,0.5c0,0,0,0,0,0l4.5,0c0.2,0,0.5-0.1,0.6-0.3l1.8-2.9l1.4,3
			c0.1,0.2,0.4,0.4,0.6,0.4l5,0.2c0.3,0,0.5-0.2,0.7-0.4l0.5-1.1c0.9,1.9,3.6,6.4,8.3,7.4c0.7,0.1,1.3,0.2,2,0.2
			c0.4,0,0.8,0,1.2-0.1c0,0,0,0,0,0c0,0,0,0,0,0c3.4-0.4,7-2.5,10.8-6.2c14.4-14,9.3-22.5,8.2-24c-0.1-1.2-0.6-6.2-5.2-10.6
			C45.1,1.9,36.9-0.4,25.8,0c-9,0.3-15.4,3.1-19,8.3c-3,4.3-3.6,9.3-3.5,13.3L0,30.8c-0.1,0.4,0.1,0.8,0.4,0.9c0.1,0,0.2,0,0.2,0
			c0.3,0,0.6-0.2,0.7-0.5l2.2-6.3c0.3,2,0.7,3.3,0.7,3.4L9,40.9z M7.9,9.1c3.4-4.8,9.4-7.4,17.9-7.7c1.3,0,2.6-0.1,3.8,0
			C22.4,5,18.8,9.1,18.7,13.6c-0.2,8.6,12.8,15.2,13.4,15.5c0,0,0,0,0,0c0,0,0,0,0,0c0.1,0,0.2,0,0.3,0c0,0,0,0,0,0s0,0,0,0
			c0,0,0,0,0,0c0.1,0,0.2,0,0.2,0c0,0,0,0,0.1,0c0.1,0,0.1-0.1,0.2-0.1c0,0,0,0,0,0c0-0.1,0.1-0.1,0.1-0.2c0,0,0,0,0,0
			c0,0,0-0.1,0-0.1c0,0,0-0.1,0-0.1c0,0,0,0,0,0V10.6c0-0.4-0.3-0.7-0.7-0.7c-0.4,0-0.7,0.3-0.7,0.7v16.7c-3-1.7-11.7-7.2-11.6-13.6
			c0.1-4.3,4.2-8.3,12.2-11.9c0.1,0,0.1-0.1,0.2-0.1c7.3,0.6,12.9,2.7,16.7,6.3c4.7,4.5,4.8,9.8,4.8,9.9c0,0.2,0.1,0.3,0.2,0.5
			c0,0.1,2.7,3.4,0.8,9.4l-5.9-1.5c-0.4-0.1-0.8,0.1-0.9,0.5c-0.1,0.4,0.1,0.8,0.5,0.9l5.8,1.5c-0.7,1.7-1.7,3.6-3.3,5.7l-5.2-3.6
			c-0.3-0.2-0.8-0.1-1,0.2c-0.2,0.3-0.1,0.8,0.2,1l5.2,3.6c-0.7,0.9-1.5,1.9-2.5,2.8l-1.9-1.2l-3.2-2.3c-0.3-0.2-0.8-0.2-1,0.2
			c-0.2,0.3-0.2,0.8,0.2,1l3.2,2.3c0,0,0,0,0,0c0,0,0,0,0,0l1.7,1.1c-0.2,0.2-0.5,0.5-0.7,0.7c-0.6,0.6-1.1,1.1-1.7,1.5l-4.7-4.5
			c-0.3-0.3-0.7-0.3-1,0c-0.3,0.3-0.3,0.7,0,1l4.5,4.4c-2.3,1.8-4.4,2.8-6.5,3.3l-0.5-5.9c0-0.4-0.4-0.7-0.8-0.6
			c-0.4,0-0.7,0.4-0.6,0.8l0.5,6c-0.7,0-1.4,0-2.1-0.2c-1.5-0.3-2.7-1.1-3.8-2c0,0,0,0,0.1,0l2-1.8c0.3-0.3,0.3-0.7,0.1-1
			c-0.3-0.3-0.7-0.3-1-0.1l-2,1.8c0,0-0.1,0.1-0.1,0.1c-2-2.1-2.9-4.5-2.9-4.5c0,0,0-0.1,0-0.1c0,0-0.3-0.5-0.5-1.1l3.2-0.6
			c0.4-0.1,0.6-0.4,0.6-0.8c-0.1-0.4-0.4-0.6-0.8-0.6L25,36.1c0-0.5,0.1-1.1,0.4-1.6c0.8-1.3,2.9-2,6-2c0.2,0,0.4,0,0.6,0
			c3,0.1,4.2,0.7,4.4,1.2c0.3,1-2.4,3.3-4.4,4.5c-0.3,0.2-0.4,0.6-0.2,1c0.2,0.3,0.6,0.4,1,0.2c1-0.6,5.7-3.6,5-6.1
			c-0.4-1.4-2.2-2.1-5.7-2.2c-4.1-0.1-6.8,0.8-7.9,2.7c-1.2,2-0.3,4.3,0.1,5.2c-0.3,0-0.6,0.1-0.7,0.4l-0.4,0.8l-4.1-0.1l-1.8-3.9
			c-0.1-0.2-0.3-0.4-0.6-0.4c-0.3,0-0.5,0.1-0.6,0.3l-2.3,3.7l-3.6,0l-4.5-12C5.7,27.8,2.4,16.9,7.9,9.1z"/>
		<path class="st0" d="M37.7,18.4c0.4,0.1,0.8-0.1,0.9-0.5c0.3-1,0.9-2,1.2-2l0,0c0,0,0.6,0,1.5,2.1c0.1,0.3,0.4,0.4,0.7,0.4
			c0.1,0,0.2,0,0.3-0.1c0.4-0.2,0.5-0.6,0.4-0.9c-0.6-1.3-1.5-3.1-2.9-3c-1.6,0.1-2.4,2.6-2.5,3.1C37.1,17.9,37.3,18.3,37.7,18.4z"
			/>
	</g>
</g>
</svg>
