<?xml version="1.0" encoding="utf-8"?>
<!-- Generator: Adobe Illustrator 19.1.0, SVG Export Plug-In . SVG Version: 6.00 Build 0)  -->
<svg version="1.1" id="Layer_1" xmlns="http://www.w3.org/2000/svg" xmlns:xlink="http://www.w3.org/1999/xlink" x="0px" y="0px"
	 viewBox="0 0 48 48" style="enable-background:new 0 0 48 48;" xml:space="preserve">
<style type="text/css">
	.st0{fill:#FFFFFF;}
</style>
<g>
	<g>
		<path class="st0" d="M4.4,2c0.1,0,0.2,0,0.3,0.1C6.4,2.7,9,3.5,11.6,4.3c2.3,0.7,4.6,1.5,6.2,2c0.9,0.3,0.8,1.2,0.8,1.2
			c0,0,0,0,0,0C15.4,19.3,23.3,27.3,32,29.8c6.8,2,11.2,4.8,13,8.3c1.4,2.7,1.1,5.3,0.5,7c-0.1,0.1-0.4,0.2-0.8,0.2h-15
			c-1.1,0-2.3-0.1-3-1.2c-4-5.8-8.4-10.5-13.8-15c-0.5-0.4-1.1-0.6-1.7-0.6c-1.5,0-3.2,1.3-3.2,2.9V44c0,1.2-0.7,2-1.2,2H5.2
			c-0.5,0-1.2-0.8-1.2-2c0-0.1,0-0.1,0-0.2c0-0.2-1.8-20.3-2-27c0-1.1-0.1-5.9,0.6-9c0.4-1.9,0.7-3.2,1-4.4l0.2-1
			C3.9,2.2,4.1,2,4.4,2 M4.4,0C3.2,0,2.2,0.8,1.9,2C1.6,3.4,1.2,4.9,0.6,7.4C-0.2,11.2,0,16.8,0,16.9c0.3,6.8,2,27.1,2,27.1
			c0,2.2,1.4,4,3.2,4h1.7c1.7,0,3.2-1.8,3.2-4c0,0,0-9.4,0-12.6c0-0.4,0.6-0.9,1.2-0.9c0.2,0,0.3,0,0.4,0.1c4.5,3.7,9,8.2,13.4,14.6
			c1.4,2.1,3.7,2.1,4.6,2.1c0,0,0,0,0,0c3.2,0,11.2,0,15,0c1.2,0,2.3-0.5,2.7-1.5c1.2-3.6,2.4-12.9-14.9-17.9
			c-11.4-3.3-14-12.5-12-19.8c0.2-0.9-0.1-2.9-2.1-3.6C15.1,3.4,8.6,1.3,5.3,0.2C5,0.1,4.7,0,4.4,0L4.4,0z"/>
	</g>
</g>
</svg>
