<?xml version="1.0" encoding="utf-8"?>
<!-- Generator: Adobe Illustrator 19.1.0, SVG Export Plug-In . SVG Version: 6.00 Build 0)  -->
<svg version="1.1" id="Layer_1" xmlns="http://www.w3.org/2000/svg" xmlns:xlink="http://www.w3.org/1999/xlink" x="0px" y="0px"
	 viewBox="0 0 47.3 45" style="enable-background:new 0 0 47.3 45;" xml:space="preserve">
<style type="text/css">
	.st0{fill:#FFFFFF;}
</style>
<g>
	<path class="st0" d="M3.6,22.1c0.8,0.5,1.8,1.2,3.7,1.2c1.9,0,2.8-0.6,3.7-1.2c0.7-0.5,1.4-0.9,2.7-0.9s2,0.4,2.7,0.9
		c0.8,0.5,1.8,1.2,3.7,1.2c1.9,0,2.8-0.6,3.7-1.2c0.7-0.5,1.4-0.9,2.7-0.9s2,0.4,2.7,0.9c0.8,0.5,1.8,1.2,3.7,1.2
		c1.9,0,2.8-0.6,3.7-1.2c0.7-0.5,1.4-0.9,2.7-0.9c1.4,0,2,0.4,2.7,0.9c0.8,0.5,1.8,1.2,3.7,1.2c0.5,0,0.9-0.4,0.9-0.9
		c0-0.5-0.4-0.9-0.9-0.9c-1.4,0-2-0.4-2.7-0.9c-0.1-0.1-0.2-0.3-0.2-0.4c0-0.2-0.1-0.4-0.1-0.6l-1.3-5c-0.2-0.6-0.7-1.5-1.1-1.9
		l-1.3-1.3c-0.4-0.4-0.8-1.3-0.8-1.9V8.7c0-0.6-0.4-1.5-0.8-2l-3.7-4c-0.4-0.5-1-0.4-1.3,0.2L30.7,6c-0.3,0.6-0.8,0.6-1.2,0.1
		l-3.7-5.6c-0.3-0.5-1-0.6-1.4-0.1l-2.8,3.2c-0.4,0.5-1.2,0.7-1.8,0.4l-1-0.5c-0.6-0.3-1.5-0.2-2,0.2l-4,2.8
		c-0.5,0.4-1.1,1.1-1.3,1.7L10.1,12c-0.2,0.6-0.9,1.1-1.5,1.2l-0.1,0c-0.6,0.1-1.4,0.6-1.7,1.1l-2.7,5.2C4.1,19.7,4.1,19.8,4,20
		c0,0.1-0.1,0.2-0.4,0.1c-0.7-0.4-1.4-0.6-2.8-0.6c-0.5,0-0.9,0.4-0.9,0.9c0,0.5,0.4,0.9,0.9,0.9C2.2,21.2,2.9,21.6,3.6,22.1z
		 M7.9,16c0.3-0.6,0.9-1.1,1.3-1.1c0.5,0,1.2,0.2,1.7,0.6l1.9,1.4c0.5,0.4,1.1,0.4,1.4,0c0.3-0.4,0.1-1-0.4-1.4l-1.6-1.2
		c-0.5-0.4-0.7-1.1-0.5-1.7L13,9.2c0.2-0.6,0.8-1.4,1.3-1.7l2.8-1.9c0.5-0.4,1.4-0.4,2-0.2l1.3,0.6c0.6,0.3,1.4,0.1,1.8-0.4l2.1-2.5
		c0.4-0.5,1-0.4,1.4,0.1l2.9,4.5c0.3,0.5,0.4,1.4,0.1,2l-0.4,0.8c-0.3,0.6-0.2,1.2,0.2,1.4c0.4,0.2,1-0.1,1.3-0.6L31,9
		c0.3-0.6,0.8-1.5,1.1-2l0.6-1.2C33,5.3,33.6,5.2,34,5.7l1.6,1.7c0.4,0.5,0.8,1.3,0.8,2v0.7c0,0.6,0.4,1.5,0.8,1.9l1.5,1.5
		c0.4,0.4,0.9,1.3,1.1,1.9l1,3.8c0.1,0.4-0.1,0.3-0.2,0.3c-0.4-0.1-0.8-0.1-1.2-0.1c-1.9,0-2.8,0.6-3.7,1.2
		c-0.7,0.5-1.4,0.9-2.7,0.9c-1.4,0-2-0.4-2.7-0.9c-0.8-0.5-1.8-1.2-3.7-1.2c-1.9,0-2.8,0.6-3.7,1.2c-0.7,0.5-1.4,0.9-2.7,0.9
		c-1.4,0-2-0.4-2.7-0.9c-0.8-0.5-1.8-1.2-3.7-1.2c-1.9,0-2.8,0.6-3.7,1.2c-0.7,0.5-1.4,0.9-2.7,0.9c-0.9,0-1.1-0.1-1.6-0.3
		c-0.3-0.1-0.2-0.3-0.2-0.4c0.1-0.1,0.2-0.3,0.2-0.4L7.9,16z"/>
	<path class="st0" d="M46.5,27.3c-1.4,0-2-0.4-2.7-0.9c-0.8-0.5-1.8-1.2-3.7-1.2c-1.9,0-2.8,0.6-3.7,1.2c-0.7,0.5-1.4,0.9-2.7,0.9
		c-1.4,0-2-0.4-2.7-0.9c-0.8-0.5-1.8-1.2-3.7-1.2c-1.9,0-2.8,0.6-3.7,1.2c-0.7,0.5-1.4,0.9-2.7,0.9c-1.4,0-2-0.4-2.7-0.9
		c-0.8-0.5-1.8-1.2-3.7-1.2s-2.8,0.6-3.7,1.2C10,26.9,9.4,27.3,8,27.3c-1.4,0-2-0.4-2.7-0.9c-0.8-0.5-1.8-1.2-3.7-1.2
		c-0.5,0-0.9,0.4-0.9,0.9c0,0.5,0.4,0.9,0.9,0.9c1.4,0,2,0.4,2.7,0.9c0.6,0.4,1.3,0.9,2.4,1.1c0.2,0,0.5,0.3,0.9,1L9.4,33
		c0.3,0.6,1,1,1.6,1.1c0.6,0.1,1.3,0.5,1.7,1l1.8,2.5c0.4,0.5,1,1.3,1.4,1.8l2,2.4c0.4,0.5,1.2,0.6,1.8,0.4l0.6-0.3
		c0.6-0.3,1.4-0.1,1.8,0.4l1.8,2.1c0.4,0.5,1.2,0.7,1.8,0.4l3.5-1.6c0.6-0.3,1.3-0.9,1.6-1.5l2.5-4.5c0.3-0.5,0.9-1.4,1.4-1.8
		l0.9-0.9c0.4-0.4,1-1.3,1.3-1.8l2.5-4.7c0.1-0.3,0.2-0.6,0.4-0.9c0.1-0.2,0.2-0.3,0.3-0.3c1.4,0,2,0.4,2.7,0.9
		c0.8,0.5,1.8,1.2,3.7,1.2c0.5,0,0.9-0.4,0.9-0.9C47.3,27.6,46.9,27.3,46.5,27.3z M35.5,31.7c-0.3,0.6-0.9,1.4-1.3,1.8l-0.9,0.9
		c-0.4,0.4-1.1,1.3-1.4,1.8l-2.3,4.2c-0.3,0.5-1,1.2-1.6,1.5l-1.9,0.9c-0.6,0.3-1.4,0.1-1.8-0.4l-1.8-2.1c-0.4-0.5-1.2-0.7-1.8-0.4
		l-0.6,0.3c-0.6,0.3-1.4,0.1-1.8-0.4l-1.1-1.3c-0.4-0.5-1-1.3-1.4-1.8l-2.2-3.1c-0.4-0.5-1.1-1-1.6-1c-0.5-0.1-1.2-0.5-1.5-1.1
		L9.2,29c-0.1-0.1,0.1-0.2,0.2-0.2c1-0.2,1.7-0.6,2.4-1c0.7-0.5,1.4-0.9,2.7-0.9s2,0.4,2.7,0.9C18,28.4,19,29,20.8,29
		c1.9,0,2.8-0.6,3.7-1.2c0.7-0.5,1.4-0.9,2.7-0.9c1.4,0,2,0.4,2.7,0.9c0.8,0.5,1.8,1.2,3.7,1.2c1.9,0,2.8-0.6,3.7-1.2
		c0,0,0.1-0.1,0.1-0.1c0.1-0.1,0.3-0.2,0.1,0.2L35.5,31.7z"/>
</g>
</svg>
