<?xml version="1.0" encoding="utf-8"?>
<!-- Generator: Adobe Illustrator 19.1.0, SVG Export Plug-In . SVG Version: 6.00 Build 0)  -->
<svg version="1.1" id="Layer_1" xmlns="http://www.w3.org/2000/svg" xmlns:xlink="http://www.w3.org/1999/xlink" x="0px" y="0px"
	 viewBox="0 0 31.9 49.5" style="enable-background:new 0 0 31.9 49.5;" xml:space="preserve">
<style type="text/css">
	.st0{fill:none;stroke:#FFFFFF;stroke-width:2;stroke-linejoin:round;stroke-miterlimit:10;}
</style>
<g>
	<path class="st0" d="M22.9,6c0,2.8-2.3,5-5,5c-0.4,0-0.8,0-1.2-0.1c-2.2-0.5-3.9-2.5-3.9-4.9c0-2.8,2.3-5,5-5
		C20.7,1,22.9,3.3,22.9,6z"/>
	<polyline class="st0" points="22.9,49 12.9,31 16.7,10.9 	"/>
	<line class="st0" x1="4.9" y1="47.1" x2="12.9" y2="30.4"/>
	<polyline class="st0" points="15.5,18.1 20.7,24 30.4,24.8 	"/>
	<line class="st0" x1="30.9" y1="17" x2="28" y2="49"/>
	<path class="st0" d="M9.3,27.7c-0.4,1-1.5,1.5-2.5,1.1l-4.5-1.7c-1-0.4-1.5-1.5-1.1-2.5l4.5-12.4c0.4-1,1.5-1.5,2.5-1.1l4.5,1.7
		c1,0.4,1.5,1.5,1.1,2.5L9.3,27.7z"/>
</g>
</svg>
