<?xml version="1.0" encoding="utf-8"?>
<!-- Generator: Adobe Illustrator 19.1.0, SVG Export Plug-In . SVG Version: 6.00 Build 0)  -->
<svg version="1.1" id="Layer_1" xmlns="http://www.w3.org/2000/svg" xmlns:xlink="http://www.w3.org/1999/xlink" x="0px" y="0px"
	 viewBox="0 0 47.5 41.3" style="enable-background:new 0 0 47.5 41.3;" xml:space="preserve">
<style type="text/css">
	.st0{fill:#FFFFFF;}
</style>
<g>
	<g>
		<path class="st0" d="M19.1,18.5l1.3-2.4L18,11.6l2.2-1.1l1.5,3l1.3-2.4l-4.8-9.5c-0.7-1.1-2-1.7-3.3-1.1l-2,0.7
			c-1.1,0.7-1.7,2-1.1,3.3L19.1,18.5z M14.1,3.1l1.7-0.9c0.2,0,0.2,0,0.2,0l3,6.1l-2.2,1.1l-3-6.1C13.9,3.3,13.9,3.1,14.1,3.1z"/>
		<path class="st0" d="M45.5,34.8H34.7l-6.1-11.9l-1.3,2.4l5.2,10.4l0.7,1.3h1.5h10.8v2.2h-13c-0.4,0-1.1-0.4-1.1-0.7L26.2,28
			l-1.3,2.4l4.3,8.9c0.4,1.1,2,2,3,2h13c1.1,0,2.2-0.9,2.2-2.2v-2.2C47.7,35.6,46.8,34.8,45.5,34.8z"/>
		<path class="st0" d="M34.7,1.2l-1.7-0.9c-1.1-0.7-2.6-0.2-3.3,1.1L13,34.8H2.2c-1.1,0-2.2,0.9-2.2,2.2v2.2c0,1.3,1.1,2.2,2.2,2.2
			h13c1.3,0,2.6-0.9,3-2L35.5,4.4C36.2,3.1,35.8,1.8,34.7,1.2z M16.3,38.4c0,0.2-0.7,0.7-1.1,0.7h-13v-2.2H13h1.3l0.7-1.3l12.8-25.4
			l2.2,1.1L16.3,38.4z M33.8,3.3l-3,6.1l-2.2-1.1l3-6.1c0,0,0.2-0.2,0.2,0l1.7,0.9C33.8,3.1,33.8,3.3,33.8,3.3z"/>
	</g>
</g>
</svg>
