<?xml version="1.0" encoding="utf-8"?>
<!-- Generator: Adobe Illustrator 19.1.0, SVG Export Plug-In . SVG Version: 6.00 Build 0)  -->
<svg version="1.1" id="Layer_1" xmlns="http://www.w3.org/2000/svg" xmlns:xlink="http://www.w3.org/1999/xlink" x="0px" y="0px"
	 viewBox="0 0 46.1 25.8" style="enable-background:new 0 0 46.1 25.8;" xml:space="preserve">
<style type="text/css">
	.st0{fill:#FFFFFF;}
</style>
<g>
	<path class="st0" d="M17.1,4.9c1.3,0,2.4-1.1,2.4-2.4S18.4,0,17.1,0s-2.4,1.1-2.4,2.4S15.7,4.9,17.1,4.9z M17.1,1.1
		c0.7,0,1.3,0.6,1.3,1.3c0,0.7-0.6,1.3-1.3,1.3c-0.7,0-1.3-0.6-1.3-1.3C15.8,1.7,16.4,1.1,17.1,1.1z"/>
	<path class="st0" d="M19.5,14.2c0-1.1-1.1-1.9-2.4-1.9s-2.4,0.8-2.4,1.9s1.1,1.9,2.4,1.9S19.5,15.3,19.5,14.2z M15.8,14.2
		c0-0.4,0.5-0.8,1.3-0.8c0.8,0,1.3,0.4,1.3,0.8S17.8,15,17.1,15C16.3,15,15.8,14.5,15.8,14.2z"/>
	<path class="st0" d="M10.9,15.2h-1c-0.3,0-0.6,0.3-0.6,0.6c0,0.3,0.3,0.6,0.6,0.6h1c0.3,0,0.6-0.3,0.6-0.6
		C11.4,15.4,11.2,15.2,10.9,15.2z"/>
	<path class="st0" d="M10.4,17c0,0.3,0.3,0.6,0.6,0.6h1.7c0.3,0,0.6-0.3,0.6-0.6c0-0.3-0.3-0.6-0.6-0.6H11
		C10.7,16.5,10.4,16.7,10.4,17z"/>
	<path class="st0" d="M21,17.4c0,0.3,0.3,0.6,0.6,0.6h1.7c0.3,0,0.6-0.3,0.6-0.6c0-0.3-0.3-0.6-0.6-0.6h-1.7
		C21.2,16.8,21,17.1,21,17.4z"/>
	<path class="st0" d="M24.9,16.6c0.3,0,0.6-0.3,0.6-0.6s-0.3-0.6-0.6-0.6h-1.7c-0.3,0-0.6,0.3-0.6,0.6s0.3,0.6,0.6,0.6H24.9z"/>
	<path class="st0" d="M45.8,6.5l-3.2-2.2c-0.1-0.1-0.3-0.1-0.4-0.1l-0.7,0.1L40,2.6c-0.2-0.2-0.4-0.3-0.6-0.2l-5.7,2.1l-1-0.3
		c-0.1,0-0.3,0-0.4,0l-4,1.9l-0.7-0.2c-0.1,0-0.2,0-0.3,0l-4.6,2c-3.4,0-6.8,0.2-10.2,0.7L7.2,6.6C7,6.5,6.9,6.5,6.7,6.6L5.6,7.1
		L0.8,4.6c-0.3-0.1-0.6,0-0.8,0.2c-0.1,0.3,0,0.6,0.2,0.8l5,2.6c0.2,0.1,0.3,0.1,0.5,0L7,7.7l3.3,1.3c-3.3,0.5-6.6,1.3-9.9,2.3
		c-0.3,0.1-0.5,0.4-0.4,0.7c0.1,0.3,0.4,0.5,0.7,0.4c3-0.9,6.1-1.7,9.3-2.2l-3,2.1l-1.1-0.8c-0.2-0.2-0.5-0.1-0.7,0l-5,4.4
		c-0.2,0.2-0.3,0.6,0,0.8C0.3,17,0.4,17,0.6,17c0.1,0,0.3,0,0.4-0.1l4.6-4.1l1,0.8c0.2,0.1,0.5,0.2,0.7,0l5.3-3.7
		c3.3-0.5,6.7-0.7,10.1-0.7l4.5,2.1c0.1,0.1,0.3,0.1,0.4,0l0.7-0.2l4,2.1c0.1,0.1,0.3,0.1,0.4,0l0.9-0.3l5.7,2.4c0.1,0,0.1,0,0.2,0
		c0.2,0,0.3-0.1,0.5-0.2l1.1-1.4c0.1,0.2,0.1,0.5,0.1,0.8c-0.2,1.5-3,3.2-7.4,4.7c-0.1,0-0.1,0-0.2,0.1c0-0.2,0-0.4,0-0.6
		c0-0.8-0.2-2-0.6-2.9c-0.5-1.3-1.2-2-1.9-2c-0.3,0-0.6,0.1-0.9,0.3c-0.5-0.8-1-1-1.4-1c-0.8,0-1.4,0.7-1.9,2
		c-0.4,0.9-0.6,2.1-0.6,2.9c0,1.8,1.2,2.2,2,2.3v0.4c-2.4,0.5-4.8,0.8-6.8,0.9c-4,0.1-8.7,0.1-13.3-0.9c0-0.8-0.3-1.9-0.6-2.9
		c-0.5-1.3-1.2-2-1.9-2s-1.4,0.7-1.9,2c-0.2,0.4-0.3,0.9-0.4,1.3c-0.8-0.3-1.6-0.7-2.4-1.1c-0.3-0.1-0.6,0-0.8,0.2
		c-0.1,0.3,0,0.6,0.2,0.8c0.9,0.4,1.8,0.9,2.7,1.2c0,0.2,0,0.3,0,0.4c0,1.8,1.2,2.2,2,2.3v2.2c0,0.3,0.3,0.6,0.6,0.6
		c0.3,0,0.6-0.3,0.6-0.6V23c0.6-0.1,1.4-0.3,1.8-1.2c3.6,0.8,7.2,1,10.5,1c1,0,2.1,0,3-0.1c2-0.1,4.3-0.4,6.8-0.9v0.7
		c0,0.3,0.3,0.6,0.6,0.6c0.3,0,0.6-0.3,0.6-0.6v-0.9c0.4-0.1,0.8-0.2,1.2-0.3v1.8c0,0.3,0.3,0.6,0.6,0.6c0.3,0,0.6-0.3,0.6-0.6v-2.1
		c0.9-0.2,1.7-0.5,2.5-0.8c3.5-1.2,7.8-3.1,8.2-5.6c0.2-1.3-0.5-2.5-2.1-3.5c1.6,0.4,3.3,0.8,4.9,1.3c0.1,0,0.1,0,0.2,0
		c0.2,0,0.5-0.2,0.5-0.4c0.1-0.3-0.1-0.6-0.4-0.7c-6.5-2-13.2-3.1-20-3.3l2-0.9l0.8,0.2c0.1,0,0.3,0,0.4,0l4-1.9l0.9,0.3
		c0.1,0,0.2,0,0.3,0l5.5-2l1.4,1.7c0.1,0.2,0.3,0.2,0.5,0.2l0.8-0.2l3,2c0.3,0.2,0.6,0.1,0.8-0.2C46.2,7,46.1,6.6,45.8,6.5z
		 M5.5,21.9c-1.1,0-1.4-0.3-1.4-1.1c0-0.7,0.2-1.7,0.5-2.5C5,17.3,5.4,17,5.5,17s0.5,0.3,0.9,1.3C6.7,19.1,7,20.1,7,20.7
		C7,21.6,6.6,21.9,5.5,21.9z M31.1,15c0.1,0,0.5,0.3,0.9,1.3c0.3,0.8,0.5,1.8,0.5,2.5c0,0.9-0.3,1.1-1.4,1.1c-1.1,0-1.4-0.3-1.4-1.1
		c0-0.7,0.2-1.7,0.5-2.5C30.6,15.3,31,15,31.1,15z M27.4,18.1c0-0.7,0.2-1.7,0.5-2.5c0.4-0.9,0.8-1.3,0.9-1.3c0.1,0,0.3,0.2,0.7,0.8
		c-0.1,0.2-0.2,0.4-0.3,0.6c-0.4,0.9-0.6,2.1-0.6,2.9c0,0.2,0,0.4,0,0.5C27.6,19.2,27.4,18.9,27.4,18.1z M32.8,9.8
		c0.3,0,2.4,0.4,4.5,1.2c1.1,0.4,2.4,1,3.1,1.7l-1,1.4l-5.5-2.3c-0.1-0.1-0.3-0.1-0.4,0l-0.9,0.3L28.7,10c-0.1-0.1-0.3-0.1-0.4-0.1
		l-0.7,0.2l-1.9-0.9C28.1,9.3,30.4,9.5,32.8,9.8z"/>
</g>
</svg>
