<?xml version="1.0" encoding="utf-8"?>
<!-- Generator: Adobe Illustrator 19.1.0, SVG Export Plug-In . SVG Version: 6.00 Build 0)  -->
<svg version="1.1" id="Layer_1" xmlns="http://www.w3.org/2000/svg" xmlns:xlink="http://www.w3.org/1999/xlink" x="0px" y="0px"
	 viewBox="0 0 56 40.7" style="enable-background:new 0 0 56 40.7;" xml:space="preserve">
<style type="text/css">
	.st0{fill:#FFFFFF;}
</style>
<g>
	<path class="st0" d="M53.7,10c-1.5-1.4-3.4-2.2-5.4-2.2c-4.1,0.1-7.5,3.5-7.5,7.7v17.7c0,0.8-0.7,1.5-1.5,1.5h-2.3v-6.3
		c0-5.7-2.9-10.9-7.6-13.8c0.1-0.2,0.2-0.3,0.4-0.5c0.7-1.3,0.9-2.8,0.5-4.2c-0.4-1.4-1.3-2.6-2.6-3.3C27,5.9,26,5.7,25.1,5.7
		c-0.3-0.5-0.7-1.1-1.1-1.6C21.9,1.5,18.7,0,15.3,0S8.7,1.5,6.6,4.2c-0.4,0.5-0.8,1-1.1,1.6c-2,0-3.8,1-4.8,2.8
		C0,9.8-0.2,11.3,0.2,12.7c0.4,1.4,1.3,2.6,2.6,3.3c0.8,0.5,1.8,0.7,2.7,0.7c0,0,0,0,0.1,0c1,1.7,2.3,3.1,4.1,4.1
		c0.7,0.4,1.5,0.8,2.3,1v12.2c-2.5,0.6-4.2,2.8-4.2,5.7v1h4.1h17.6h9.9c4.2,0,7.6-3.4,7.6-7.6V15.4c0-0.8,0.6-1.5,1.4-1.5
		c0.4,0,0.7,0.1,1,0.4c0.3,0.3,0.5,0.7,0.5,1.1v3.3c0,0.8,0.3,1.6,0.9,2.2c0.6,0.6,1.3,0.9,2.2,0.9c1.7,0,3-1.4,3-3v-3.4
		C56,13.3,55.2,11.4,53.7,10z M26.9,8.1c0.8,0.5,1.4,1.2,1.7,2.2c0.3,0.9,0.1,1.9-0.3,2.7c-0.5,0.9-1.4,1.5-2.3,1.7
		c0.4-1.1,0.6-2.3,0.6-3.5c0-1.2-0.2-2.3-0.6-3.5C26.3,7.8,26.6,7.9,26.9,8.1z M20.8,3.8c-2.2,0.3-4.1,1.3-5.5,3
		c-1.4-1.6-3.4-2.7-5.5-3c1.6-1.2,3.5-1.8,5.5-1.8C17.3,1.9,19.2,2.6,20.8,3.8z M3.7,14.3c-0.8-0.5-1.4-1.2-1.7-2.2
		c-0.3-0.9-0.1-1.9,0.3-2.7C2.9,8.6,3.7,8,4.6,7.8C4.3,8.9,4.1,10,4.1,11.2c0,1.2,0.2,2.4,0.6,3.5C4.4,14.6,4,14.5,3.7,14.3z
		 M6,11.2c0-1.7,0.5-3.4,1.4-4.9c0.3-0.4,0.7-0.7,1.2-0.7c0,0,0,0,0,0c2.4,0,4.6,1.2,5.8,3.3l0.8,1.4l0.8-1.4c1.2-2,3.4-3.3,5.8-3.3
		c0,0,0,0,0,0c0.5,0,1,0.3,1.2,0.7c0.9,1.5,1.4,3.2,1.4,4.9c0,3.3-1.8,6.3-4.6,8c-1.4,0.8-3,1.3-4.7,1.3S12,20,10.6,19.2
		C7.8,17.5,6,14.5,6,11.2z M15.3,22.4c0.2,0,0.4,0,0.6,0v11.7c-0.8,0.2-1.5,0.6-2.1,1.1v-13C14.3,22.4,14.8,22.4,15.3,22.4z
		 M9.8,38.8c0.3-1.7,1.5-2.8,3.1-2.9l0.3,0c-0.7,0.8-1.1,1.8-1.3,2.9L9.8,38.8L9.8,38.8z M17,35.9l0.9-0.1v-0.9V22.1
		c1.1-0.3,2.1-0.7,3.1-1.2c1.7-1,3.1-2.4,4.1-4.1c0,0,0.1,0,0.1,0c1.1,0,2.1-0.3,3-0.9c4.1,2.4,6.7,6.7,7.1,11.5
		c-0.6-0.7-1.3-1.2-2.1-1.6c-1.1-0.6-2.3-0.9-3.6-0.9c-3.5,0-6.5,2.4-7.5,5.6v-7.5h-1.9v15.9H14C14.3,37.2,15.5,36,17,35.9z
		 M22,38.8v-3.9c0.4,1.3,1.1,2.5,2,3.4c0.2,0.2,0.3,0.3,0.5,0.5L22,38.8L22,38.8z M35.2,38.8h-5.7c-1.5,0-3-0.7-4.2-1.8
		c-1-1-1.6-2.4-1.7-3.9c0-0.1,0-0.3,0-0.4c0-3.2,2.6-5.9,5.9-5.9c0.9,0,1.9,0.2,2.7,0.7c1.3,0.7,2.3,1.9,2.8,3.4
		c0.2,0.5,0.2,1.1,0.2,1.9L35.2,38.8L35.2,38.8z M54.1,18.8c0,0.6-0.5,1.1-1.1,1.1c-0.3,0-0.6-0.1-0.8-0.3c-0.2-0.2-0.3-0.5-0.3-0.8
		v-3.3c0-0.9-0.4-1.8-1-2.5c-0.7-0.6-1.5-1-2.4-1c-1.9,0-3.4,1.6-3.4,3.4v17.8c0,3.1-2.5,5.6-5.6,5.6h-2.3v-2.2h2.3
		c1.9,0,3.4-1.5,3.4-3.4V15.5c0-3.1,2.5-5.7,5.5-5.7c0,0,0.1,0,0.1,0c1.5,0,2.9,0.6,4,1.6c1.1,1.1,1.7,2.5,1.7,4V18.8z"/>
	<path class="st0" d="M10.6,9.1c-2.1,0-3.7,1.7-3.7,3.7s1.7,3.7,3.7,3.7s3.7-1.7,3.7-3.7S12.7,9.1,10.6,9.1z M10.6,14.6
		c-1,0-1.8-0.8-1.8-1.8S9.6,11,10.6,11s1.8,0.8,1.8,1.8S11.6,14.6,10.6,14.6z"/>
	<path class="st0" d="M20,16.5c2.1,0,3.7-1.7,3.7-3.7S22,9.1,20,9.1s-3.7,1.7-3.7,3.7S17.9,16.5,20,16.5z M20,11
		c1,0,1.8,0.8,1.8,1.8S21,14.6,20,14.6s-1.8-0.8-1.8-1.8S19,11,20,11z"/>
</g>
</svg>
