<?xml version="1.0" encoding="utf-8"?>
<!-- Generator: Adobe Illustrator 19.1.0, SVG Export Plug-In . SVG Version: 6.00 Build 0)  -->
<svg version="1.1" id="Layer_1" xmlns="http://www.w3.org/2000/svg" xmlns:xlink="http://www.w3.org/1999/xlink" x="0px" y="0px"
	 viewBox="0 0 40.9 45.5" style="enable-background:new 0 0 40.9 45.5;" xml:space="preserve">
<style type="text/css">
	.st0{fill:#FFFFFF;}
</style>
<g>
	<path class="st0" d="M40.9,28.2c-0.5-1.2-6.9,0.4-12.2,2.5c0.2-0.3,0.4-0.7,0.7-1.1c4.3-7.2,8.5-17.6,6.8-18.7
		C34.6,10,29.2,16.3,25,22.6C24.8,12.5,22.9,0,20.5,0S16.1,12.5,16,22.6C11.8,16.3,6.3,10,4.8,10.9c-1.8,1,2.5,11.5,6.8,18.7
		c0.2,0.4,0.4,0.7,0.7,1.1C6.9,28.5,0.6,27,0,28.2c-0.6,1.4,6.4,5.8,12,8.2c0.5,0.2,1,0.4,1.5,0.6c-2.9,1-5.7,2.4-5.5,3.1
		c0.2,0.8,5,0.2,8.4-0.7c1.1-0.3,1.9-0.6,2.5-0.9V44c0,0.8,0.7,1.5,1.5,1.5S22,44.9,22,44v-5.6c0.6,0.3,1.4,0.6,2.5,0.9
		c3.4,1,8.2,1.6,8.4,0.7c0.2-0.7-2.6-2.1-5.5-3.1c0.5-0.2,1-0.4,1.5-0.6C34.5,33.9,41.5,29.5,40.9,28.2z"/>
</g>
</svg>
