<?xml version="1.0" encoding="utf-8"?>
<!-- Generator: Adobe Illustrator 19.1.0, SVG Export Plug-In . SVG Version: 6.00 Build 0)  -->
<svg version="1.1" id="Layer_1" xmlns="http://www.w3.org/2000/svg" xmlns:xlink="http://www.w3.org/1999/xlink" x="0px" y="0px"
	 viewBox="0 0 43.9 43" style="enable-background:new 0 0 43.9 43;" xml:space="preserve">
<style type="text/css">
	.st0{fill:#FFFFFF;}
</style>
<g>
	<path class="st0" d="M42.6,22.9H42V6.7c0-0.4-0.2-0.8-0.6-1c0-0.7-0.2-1.9-0.5-3C40.3,0.3,39.7,0,39.3,0c-0.4,0-1,0.3-1.6,2.7
		c-0.3,1.1-0.5,2.3-0.5,3c-0.3,0.2-0.6,0.6-0.6,1v16.3h-1.8c-0.2-6.8-5.7-12.3-12.5-12.5V7.8C23,7.7,23.6,7.4,24,6.9
		c0.6-0.6,0.9-1.3,0.9-2.1c0-0.8-0.3-1.5-0.9-2.1c-0.1-0.1-0.2-0.2-0.3-0.2c-0.1-0.1-0.4-0.1-0.5,0c-0.1,0.1-0.1,0.3,0,0.5
		c0.5,0.6,0.4,1.5-0.2,2.1c-0.3,0.3-0.7,0.5-1.1,0.5c-0.4,0-0.8-0.2-1.1-0.5c-0.5-0.5-0.6-1.4-0.2-2.1c0.1-0.1,0.1-0.4,0-0.5
		c-0.1-0.1-0.3-0.1-0.5,0c-0.1,0.1-0.2,0.2-0.3,0.2c-1.1,1.1-1.1,3,0,4.2c0.5,0.5,1.1,0.8,1.7,0.8v2.7c-6.8,0.2-12.3,5.7-12.5,12.5
		H7.3V6.7c0-0.4-0.2-0.8-0.6-1c0-0.7-0.2-1.9-0.5-3C5.6,0.3,5,0,4.6,0s-1,0.3-1.6,2.7C2.7,3.8,2.5,5,2.4,5.6c-0.3,0.2-0.6,0.6-0.6,1
		v16.3H1.3c-0.7,0-1.3,0.6-1.3,1.3v17.5C0,42.4,0.6,43,1.3,43h41.4c0.7,0,1.3-0.6,1.3-1.3V24.2C43.9,23.5,43.3,22.9,42.6,22.9z
		 M37.4,7.3V6.7c0-0.3,0.2-0.5,0.5-0.5h2.9c0.3,0,0.5,0.2,0.5,0.5v0.6H37.4z M39.3,0.8c0.1,0.1,0.5,0.5,0.9,2.2
		c0.2,0.9,0.4,1.9,0.5,2.5h-2.8C38,4.9,38.2,3.9,38.4,3C38.8,1.3,39.2,0.8,39.3,0.8z M37.4,8H38v3.2c0,0.2,0.2,0.4,0.4,0.4
		c0.2,0,0.4-0.2,0.4-0.4V8H40v6.4c0,0.2,0.2,0.4,0.4,0.4c0.2,0,0.4-0.2,0.4-0.4V8h0.5v14.9h-3.9V8L37.4,8z M19.8,4.8
		c0.1,0.3,0.3,0.6,0.5,0.9c0.4,0.4,1,0.7,1.6,0.7c0.6,0,1.2-0.2,1.6-0.7c0.3-0.3,0.4-0.6,0.5-0.9c0,0,0,0.1,0,0.1
		c0,0.6-0.2,1.1-0.6,1.6c-0.4,0.4-1,0.6-1.6,0.6c-0.6,0-1.1-0.2-1.6-0.6C19.9,6,19.7,5.4,19.8,4.8z M9.9,21.5h3.2
		c0.2,0,0.4-0.2,0.4-0.4c0-0.2-0.2-0.4-0.4-0.4h-3.1c1.2-5.5,6-9.6,11.9-9.6s10.7,4.1,11.9,9.6H18.7c-0.2,0-0.4,0.2-0.4,0.4
		c0,0.2,0.2,0.4,0.4,0.4h15.3c0.1,0.5,0.1,0.9,0.1,1.4H9.8C9.8,22.5,9.9,22,9.9,21.5z M2.6,7.3V6.7c0-0.3,0.2-0.5,0.5-0.5H6
		c0.3,0,0.5,0.2,0.5,0.5v0.6H2.6z M4.6,0.8C4.7,0.8,5.1,1.3,5.5,3c0.2,0.9,0.4,1.9,0.5,2.5H3.2C3.2,4.9,3.4,3.9,3.6,3
		C4.1,1.3,4.4,0.8,4.6,0.8z M2.6,8h0.6v6.8c0,0.2,0.2,0.4,0.4,0.4c0.2,0,0.4-0.2,0.4-0.4V8H5v1.5c0,0.2,0.2,0.4,0.4,0.4
		s0.4-0.2,0.4-0.4V8h0.8v14.9H2.6L2.6,8L2.6,8z M1.3,23.7h41.4c0.3,0,0.5,0.2,0.5,0.5v1.3H0.7v-1.3C0.7,23.9,1,23.7,1.3,23.7z
		 M11.7,42.2H8.3v-6.4c0-0.2-0.2-0.4-0.4-0.4s-0.4,0.2-0.4,0.4v6.4H7V35c0-1.3,1.1-2.3,2.3-2.3s2.3,1.1,2.3,2.3V42.2z M25.4,42.2
		h-6.8V32c0-1.9,1.5-3.4,3.4-3.4c1.9,0,3.4,1.5,3.4,3.4V42.2z M36.9,42.2h-0.6v-6.4c0-0.2-0.2-0.4-0.4-0.4c-0.2,0-0.4,0.2-0.4,0.4
		v6.4h-3.3V35c0-1.3,1.1-2.3,2.3-2.3c1.3,0,2.3,1.1,2.3,2.3L36.9,42.2L36.9,42.2z M42.6,42.2h-5V35c0-1.7-1.4-3.1-3.1-3.1
		c-1.7,0-3.1,1.4-3.1,3.1v7.2h-5.4V32c0-2.3-1.9-4.2-4.2-4.2c-2.3,0-4.2,1.9-4.2,4.2v10.2h-5.4V35c0-1.7-1.4-3.1-3.1-3.1
		c-1.7,0-3.1,1.4-3.1,3.1v7.2h-5c-0.3,0-0.5-0.2-0.5-0.5V31.2h0.9v9.4c0,0.2,0.2,0.4,0.4,0.4s0.4-0.2,0.4-0.4v-9.4h1.4
		c0.2,0,0.4-0.2,0.4-0.4S4,30.5,3.8,30.5H0.7v-4.2h42.4V28h-7.7c-0.2,0-0.4,0.2-0.4,0.4c0,0.2,0.2,0.4,0.4,0.4h7.7v2.4h-2.7
		c-0.2,0-0.4,0.2-0.4,0.4s0.2,0.4,0.4,0.4h1v3.2c0,0.2,0.2,0.4,0.4,0.4s0.4-0.2,0.4-0.4v-3.2h0.9v9.8C43.1,42,42.9,42.2,42.6,42.2z"
		/>
	<path class="st0" d="M22.3,13c0-0.2-0.2-0.4-0.4-0.4c-3.3,0-6.4,1.5-8.5,4.2c-0.1,0.2-0.1,0.4,0.1,0.5c0.1,0.1,0.1,0.1,0.2,0.1
		c0.1,0,0.2-0.1,0.3-0.1c1.9-2.5,4.8-3.9,7.9-3.9C22.2,13.4,22.3,13.2,22.3,13z"/>
	<path class="st0" d="M21.9,29.3c-0.2,0-0.4,0.2-0.4,0.4s0.2,0.4,0.4,0.4c1.1,0,2,0.9,2,2c0,0.2,0.2,0.4,0.4,0.4
		c0.2,0,0.4-0.2,0.4-0.4C24.7,30.5,23.5,29.3,21.9,29.3z"/>
	<path class="st0" d="M34.6,33.1c-1.1,0-1.9,0.9-1.9,1.9c0,0.2,0.2,0.4,0.4,0.4c0.2,0,0.4-0.2,0.4-0.4c0-0.6,0.5-1.2,1.2-1.2
		c0.2,0,0.4-0.2,0.4-0.4C35,33.3,34.8,33.1,34.6,33.1z"/>
	<path class="st0" d="M9.3,33c-0.2,0-0.4,0.2-0.4,0.4c0,0.2,0.2,0.4,0.4,0.4c0.7,0,1.2,0.6,1.2,1.2c0,0.2,0.2,0.4,0.4,0.4
		s0.4-0.2,0.4-0.4C11.3,33.9,10.4,33,9.3,33z"/>
</g>
</svg>
