<?xml version="1.0" encoding="utf-8"?>
<!-- Generator: Adobe Illustrator 19.1.0, SVG Export Plug-In . SVG Version: 6.00 Build 0)  -->
<svg version="1.1" id="Layer_1" xmlns="http://www.w3.org/2000/svg" xmlns:xlink="http://www.w3.org/1999/xlink" x="0px" y="0px"
	 viewBox="0 0 49.8 50" style="enable-background:new 0 0 49.8 50;" xml:space="preserve">
<style type="text/css">
	.st0{fill:none;stroke:#FFF;stroke-width:2;stroke-miterlimit:10;}
	.st1{fill:none;stroke:#FFF;stroke-width:2;stroke-linecap:round;stroke-miterlimit:10;}
	.st2{fill:none;stroke:#FFF;stroke-linecap:round;stroke-miterlimit:10;}
</style>
<g>
	<g>
		<path class="st0" d="M48.8,47c0,1.1-0.9,2-2,2H3c-1.1,0-2-0.9-2-2V3c0-1.1,0.9-2,2-2h43.8c1.1,0,2,0.9,2,2V47z"/>
	</g>
	<path class="st1" d="M1,41.7c1.3-1.8,2.7-3.3,3.2-3.8c0.8-0.7,1.6-1.4,2.3-2.2c1.2-1.5,2.3-3,3.6-4.4c1.6-1.9,2.9-3.8,4.2-5.7
		c0.8-1.1,2.2-4.4,3.9-3.6c2,0.9,2.6,3.4,4.2,4.7c1.8,1.5,3.4,3,4.9,4.8c0.5,0.6,0.8,1.5,1.4,1.9c1.1,0.6,1.9-0.4,2.6-1.1
		c1-0.9,2.1-1.9,2.9-3c0.5-0.7,0.8-1.4,1.4-2c1.7-1.8,3.3-0.8,5.1,0.3c2.6,1.7,4.9,3.9,7.5,5.5"/>
	<circle class="st0" cx="31.2" cy="12.4" r="4.3"/>
	<path class="st2" d="M44.2,39.7"/>
	<path class="st2" d="M17.3,39.7"/>
</g>
</svg>
