<?xml version="1.0" encoding="utf-8"?>
<!-- Generator: Adobe Illustrator 19.1.0, SVG Export Plug-In . SVG Version: 6.00 Build 0)  -->
<svg version="1.1" id="Layer_1" xmlns="http://www.w3.org/2000/svg" xmlns:xlink="http://www.w3.org/1999/xlink" x="0px" y="0px"
	 viewBox="0 0 31.9 44.8" style="enable-background:new 0 0 31.9 44.8;" xml:space="preserve">
<style type="text/css">
	.st0{fill:#FFFFFF;}
</style>
<g>
	<g>
		<path class="st0" d="M14.1,44.8c6.9-0.3,13.5-2.4,16.5-9.1c2.3-5.3,1.8-11.8-2.7-15.3c-0.9-0.7-1.6-1.1-1.4-1.2
			c0.1-0.1,0.1-0.1,0.2-0.2c0.9-2,9.7-19.4,1.4-18.9c-2.9,0.2-4.6,3.8-5.8,6c-0.9,1.7-1.8,3.5-2.5,5.3c-0.4,1-1.2,1.1-1.6,0.1
			c-0.3-0.6-0.6-1.2-0.9-1.7c-1.7-3.2-3.7-7.5-6.9-9.4C8.4-0.8,6.8,1.2,6.6,2.8C6.2,6,8.9,9.8,10.2,12.5c0.7,1.5,1.4,3,2.1,4.6
			c0.5,1,0.1,2.7,0.6,3.7c0.8,1.6,3.5,3.1,5.6,4.2c1,0.5,1,1.3,0.2,2.1c-0.5,0.5-1,1.2-1.3,1.9c-0.5,1-0.9,1-1.2-0.1
			c-0.9-3.2-2.8-6.7-4-7.9c-1.5-1.5-3-1.8-4.9-0.8c-1.7,0.9-2.7,2.3-3,4c-0.2,1.1-1,2.2-1.9,2.9C0.7,28.3-0.2,31,0,33.4
			C0.9,40.8,6.9,45,14.1,44.8z M21.5,11.3C21.5,11.3,21.5,11.3,21.5,11.3c0.4-0.4,0.6-0.8,0.6-0.9c0-0.1-0.1-0.1-0.2-0.1
			c1.8-4.4,4.4-9.8,5.8-9.2c4.6,1.8,0.4,11-1.9,15.8c-0.5,1-1.7,1.4-2.8,1.1c0,0,0,0,0,0c0.2,0,0.3-0.1,0.4-0.2
			c0.2-0.2-0.2-0.4-0.8-0.3c-0.2,0-0.4,0.1-0.6,0.1c-0.7-0.3-1.4-0.8-1.6-1.2c0.1-0.1,0.3-0.2,0.4-0.3c0.4-0.4,0.7-0.8,0.6-1
			c-0.1-0.2-0.5,0-0.8,0.4c-0.1,0.1-0.2,0.2-0.3,0.3c-0.1-0.7,0-1.6,0.3-2.4C20.9,12.8,21.2,12.1,21.5,11.3z M9.3,1.6
			C9.3,1.6,9.3,1.6,9.3,1.6C9,1.8,8.8,2,8.6,2.3C8.8,1.8,9.1,1.5,9.3,1.6z M13.3,14.4c0.1-0.1,0.3-0.1,0.5-0.3
			c0.4-0.4,0.6-1,0.5-1.4s-0.6-0.3-1,0.1c-0.2,0.2-0.3,0.3-0.4,0.5c-0.2-0.4-0.3-0.7-0.5-1.1c0.1-0.1,0.3-0.3,0.4-0.4
			c0.4-0.4,0.7-0.8,0.7-0.8c0,0-0.3,0.3-0.7,0.7c-0.2,0.2-0.3,0.3-0.4,0.4c0-0.1-0.1-0.1-0.1-0.2c0.1-0.1,0.3-0.2,0.4-0.4
			c0.4-0.4,0.6-1,0.4-1.4c-0.2-0.3-0.6-0.3-1,0.1c-0.2,0.1-0.3,0.3-0.4,0.5c-0.4-0.8-0.8-1.6-1.1-2.4c0.1,0.1,0.5-0.1,0.9-0.5
			C11.8,7.5,12.1,7,12,6.9s-0.5,0.1-0.9,0.5c-0.4,0.4-0.7,0.9-0.6,1C10.3,8,10,7.5,9.8,7.1C9.7,6.7,9.5,6.3,9.3,5.9
			C9.5,6,9.8,5.8,10.2,5.4c0.5-0.5,0.7-1,0.6-1.3s-0.5-0.1-1,0.3C9.5,4.9,9.2,5.3,9.2,5.6C8.9,4.9,8.6,4,8.5,3.2c0,0,0,0,0,0
			c0.2,0.2,0.5,0.1,0.9-0.3c0.2-0.2,0.4-0.5,0.4-0.8c0.4,0.4,0.8,0.9,1.2,1.4c2.4,3.1,4.4,6.7,6.1,10.3c0.5,1,0.8,1.9,0.8,1.9
			c0,0,0.2,0.4,0.4,0.8c0.2,0.4-0.6,0.6-1.7,0.8c-0.5,0.1-1,0-1.4-0.2c0.4-0.4,0.6-0.9,0.5-1c-0.1-0.2-0.5,0-0.9,0.4
			c-0.1,0.1-0.2,0.2-0.3,0.3c-0.3-0.2-0.5-0.5-0.7-0.8C13.7,15.4,13.5,14.9,13.3,14.4z M16.1,35.8c0,0.5,0,1,0.1,1.5
			c0.1,0.8,2,0.3,1.9-0.5c-0.2-2.1-0.2-4.7,0.7-6.9c0.2-0.1,0.5-0.3,0.8-0.6c0.5-0.5,1-1.1,0.9-1.2c0-0.1-0.1-0.2-0.1-0.3
			c0,0,0,0,0-0.1c0,0-0.3,0.2-0.7,0.5c0.6-0.8,1.3-1.4,2.3-1.8c0,0,0,0.1,0,0.1c0,0.1,0.3,0,0.5-0.3c0,0,0.1-0.1,0.2-0.1
			c0.1,0,0.1-0.1,0.1-0.1c0.3-0.3,0.7-0.6,1-1c0.4-0.5,0.7-0.9,0.7-0.9c-0.1,0-0.7,0.4-1.4,1.1c0,0-0.1,0.1-0.1,0.1
			c0,0-0.1-0.1-0.2-0.1c-0.7-0.3-3-1.2-5-2.3c0-0.1-0.2-0.3-0.3-0.5c-0.2-0.3-0.5-0.4-0.6-0.3c-0.1,0.1,0,0.2,0.1,0.3
			c-0.5-0.3-1-0.7-1.4-1c0.1,0,0.1-0.1,0.2-0.1c0.2-0.1,0.2-0.3,0.2-0.4c0,0-0.1-0.1-0.1-0.1c0,0,0,0-0.1,0c0,0-0.2,0.1-0.3,0.2
			c0,0-0.1,0.1-0.1,0.2c0,0,0,0,0,0c-0.7-0.8-0.4-1.9-0.3-2c0.1-0.1,1-0.7,2.1-0.7c0.1,0,0.2,0,0.3,0c1.1,0.1,2.1,0.3,2.2,0.4
			s0.9,0.1,1.7,0.4c0.6,0.2,1.2,0.3,1.4,0.4c10,2.6,8.5,16.7,1.4,21.6c-2.2,1.5-4.7,2.3-7.3,2.5c0.1,0,0.1-0.1-0.2-0.1
			c-0.4-0.1-0.7-0.1-0.8,0c-0.1,0.1-0.1,0.1,0,0.2c-1.3,0-2.6-0.1-3.9-0.4c0.6,0,1.1-0.1,1.3-0.3c0.2-0.3,0.1-0.6-0.3-0.8
			c-0.4-0.2-0.9-0.4-1.1-0.5s-0.7,0.1-1,0.5c-0.3,0.3-0.2,0.6,0.3,0.9c-2.9-0.8-5.4-2.4-7.1-4.8c0.1-0.1,0.3-0.2,0.5-0.4
			C4.8,37.6,5.1,37.2,5,37c-0.1-0.1-0.5,0.1-0.9,0.5c-0.2,0.2-0.3,0.3-0.4,0.5c-0.3-0.5-0.6-1.1-0.9-1.7c0.2,0,0.4-0.1,0.7-0.3
			c0.4-0.4,0.7-1,0.6-1.3c-0.1-0.3-0.5-0.3-1,0.1c-0.2,0.2-0.4,0.5-0.5,0.7c-0.4-1.3-0.6-2.7-0.5-4.3c0-0.1,0-0.2,0-0.3
			c0.1,0,0.3,0,0.5-0.2c0.2-0.2,0.5-0.4,0.7-0.7c0.1-0.1,0.2-0.2,0.4-0.4c0.2-0.2,0.5-1.3,1.2-2.2c0.1-0.1,0.1-0.1,0.2-0.2
			c0.5-0.1,1.1,0,1.7,0.3c1.7,0.8,3.9,4.3,4.8,6c0.1,0.1,0.1,0.3,0.2,0.4c0.1,0.2,0.1,0.5,0.1,0.6s-0.1,1.3-1.2,1.2
			c-0.8-0.1-1.8-0.6-2.4-1.3c-0.7-0.9-1.3-2-1.8-3c-0.4-0.8-2.3-0.2-1.9,0.5c1.4,2.7,4.1,7.8,7.7,5.4c0.4-0.3,0.8-0.6,1-1
			c0.4-0.6,1.1-1.2,1.8-1.4C15.7,34.8,16.1,35,16.1,35.8z M6.3,23.9c0.4-2.3,1.7-4.5,3.9-2.6c2.2,1.8,3.2,4.8,4.1,7.4
			c0.2,0.6,0.8,2.5,0.8,3.8c-0.1,0-0.3,0.1-0.4,0.3c-0.2,0.2-0.4,0.5-0.5,0.6c-0.5-0.2-1-0.8-1.3-1.4c-0.5-1-1.2-2-2-2.9
			c0.2,0,0.5-0.1,0.7-0.3c0.4-0.4,0.5-0.9,0.3-1.1s-0.8-0.2-1.1,0.2c-0.2,0.2-0.3,0.5-0.4,0.7c-1.1-1.1-2.3-2-3.2-2.3
			c-0.2-0.1-0.3-0.1-0.5-0.1c0.3-0.2,0.6-0.3,0.7-0.4c0.4-0.4,0.6-0.7,0.6-0.7S8,24.7,8,24.4c0-0.3-0.6,0.1-1.4,0.8
			c-0.1,0.1-0.2,0.2-0.2,0.2C6.2,25.1,6.2,24.5,6.3,23.9z M4.3,27.5c-0.5,0.5-1.1,1.1-1.6,1.6c0,0-0.1,0.1-0.1,0.1
			C3,28.4,3.5,27.8,4.3,27.5z"/>
		<path class="st0" d="M9,33.3c0.3-0.3,0.5-0.6,0.5-0.7c0-0.1-0.3,0.1-0.6,0.4s-0.5,0.6-0.5,0.7C8.4,33.8,8.7,33.6,9,33.3z"/>
		<path class="st0" d="M22.7,12c0-0.1-0.4,0.3-1,0.9s-0.6,0.7-0.1,0.2C22.2,12.6,22.6,12.1,22.7,12z"/>
		<path class="st0" d="M25.3,4.4c0.8-0.8,1.4-1.4,1.5-1.5c0,0-0.6,0.6-1.4,1.3c-0.1,0.1-0.3,0.3-0.4,0.4c-0.8,0.8-0.8,0.8,0,0
			C25.1,4.6,25.2,4.5,25.3,4.4z"/>
		<path class="st0" d="M8.4,31.6c0.2-0.1,0.2-0.5,0.1-0.7c-0.1-0.1-0.2-0.3-0.2-0.4c0,0,0-0.1-0.1-0.1c0,0-0.1,0.3-0.1,0.7
			S8.3,31.8,8.4,31.6z"/>
		<path class="st0" d="M20.9,23.8c0,0,0.2-0.1,0.5-0.4s0.4-0.5,0.4-0.5c0,0-0.3,0.2-0.5,0.4C21,23.5,20.8,23.7,20.9,23.8z"/>
		<path class="st0" d="M12.5,29.8c-0.3,0.3-0.5,0.5-0.5,0.5C12.1,30.2,12.3,30,12.5,29.8C12.8,29.5,12.8,29.5,12.5,29.8z"/>
		<path class="st0" d="M23.8,9c0.1-0.1,0.3-0.4,0.4-0.7c0.1-0.3,0-0.3-0.3,0c-0.3,0.3-0.5,0.6-0.4,0.7C23.5,9.1,23.6,9.1,23.8,9z"/>
		<path class="st0" d="M18.7,36.6c0.3,0,0.7-0.3,0.9-0.5c0.2-0.2,0.3-0.4,0.3-0.4c0,0,0,0,0,0c0-0.3,0-0.5-0.1-0.8
			c0-0.4-0.1-0.8-0.1-0.8c0,0-0.1,0.7-0.5,1.3c-0.2,0.4-0.6,0.7-1,1c0,0,0,0-0.1,0C18.2,36.5,18.4,36.7,18.7,36.6z"/>
		<path class="st0" d="M9,41.6C9.3,41.3,9.3,41.3,9,41.6C8.7,41.9,8.7,41.9,9,41.6z"/>
		<path class="st0" d="M6.9,40.1c-0.4,0.4-0.5,0.8-0.2,1.1c0.3,0.2,0.9,0.1,1.2-0.3c0.4-0.4,0.4-0.8,0.1-1.1
			C7.9,39.6,7.3,39.7,6.9,40.1z"/>
	</g>
</g>
</svg>
