<?xml version="1.0" encoding="utf-8"?>
<!-- Generator: Adobe Illustrator 19.1.0, SVG Export Plug-In . SVG Version: 6.00 Build 0)  -->
<svg version="1.1" id="Layer_1" xmlns="http://www.w3.org/2000/svg" xmlns:xlink="http://www.w3.org/1999/xlink" x="0px" y="0px"
	 viewBox="0 0 48 36.3" style="enable-background:new 0 0 48 36.3;" xml:space="preserve">
<style type="text/css">
	.st0{fill:#FFFFFF;}
</style>
<g>
	<path class="st0" d="M46.5,1.5v33.3h-45V1.5H46.5 M48,0H0v36.3h48V0L48,0z"/>
	<path class="st0" d="M42.4,5.6v25.1H5.6V5.6H42.4 M43.9,4.1H4.1v28.1h39.8V4.1L43.9,4.1z"/>
	<path class="st0" d="M5.4,23.9L5,22.4c0.5-0.1,1-0.5,1.4-1c0.3-0.3,0.6-0.5,1-0.8c0.4-0.3,0.9-0.5,1.3-0.8c0.6-0.3,1.1-0.6,1.6-1
		l0.2-0.2c1.2-0.9,2.3-1.7,3.2-2.8c0.4-0.5,0.8-1,1.2-1.6c0.8-1.2,1.7-2.4,2.8-3.3c0.9-0.8,2.3-1,3.4-0.6c0.8,0.3,1.2,1,1.5,1.5
		c0.1,0.2,0.2,0.4,0.4,0.6c0.2,0.2,0.4,0.4,0.7,0.6c0.2,0.1,0.4,0.3,0.6,0.4c0.4,0.4,0.6,0.7,0.8,1c0.1,0.1,0.1,0.2,0.2,0.4
		c0.3,0.5,0.8,0.9,1.2,1.3c0.3,0.3,0.6,0.6,0.9,0.8c0.2,0.2,0.3,0.4,0.5,0.6c0.3,0.4,0.5,0.8,0.8,0.8c0.3,0.1,0.4,0,0.9-0.4
		c0.2-0.2,0.4-0.3,0.6-0.5c0.4-0.2,0.8-0.4,1.2-0.5c0.3-0.1,0.6-0.2,0.9-0.4c0.4-0.2,0.8-0.5,1.2-0.9c0.4-0.3,0.8-0.7,1.3-1
		c0.2-0.1,0.4-0.3,0.6-0.4c1.2-0.8,2.6-1.9,3.9-1.6c0.6,0.1,1.1,0.6,1.7,1.1c0.2,0.2,0.4,0.4,0.6,0.5L42,15c0.5,0.3,1,0.7,1.4,1.1
		l-0.9,1.2c-0.4-0.3-0.9-0.7-1.4-1l-0.5-0.3c-0.2-0.2-0.5-0.4-0.7-0.7c-0.3-0.2-0.7-0.7-0.9-0.8c-0.6-0.1-2,0.9-2.7,1.4
		c-0.3,0.2-0.5,0.4-0.7,0.5c-0.4,0.2-0.7,0.5-1.1,0.9c-0.4,0.3-0.8,0.7-1.3,1c-0.4,0.3-0.8,0.4-1.2,0.5c-0.3,0.1-0.6,0.2-0.8,0.3
		c-0.1,0.1-0.3,0.2-0.4,0.4c-0.5,0.4-1.2,1.1-2.4,0.7c-0.7-0.3-1.2-0.9-1.5-1.4c-0.1-0.2-0.3-0.4-0.4-0.5c-0.2-0.3-0.5-0.5-0.8-0.8
		c-0.5-0.5-1.1-1-1.5-1.6c-0.1-0.2-0.2-0.4-0.3-0.5c-0.1-0.2-0.2-0.4-0.4-0.5c-0.1-0.1-0.3-0.2-0.5-0.3c-0.3-0.2-0.7-0.5-1-0.8
		c-0.2-0.3-0.4-0.5-0.5-0.8c-0.3-0.5-0.4-0.7-0.8-0.8c-0.6-0.2-1.4-0.1-1.9,0.4c-0.9,0.8-1.8,1.9-2.6,3c-0.4,0.5-0.8,1.1-1.2,1.6
		c-1,1.2-2.2,2.1-3.4,3l-0.2,0.2c-0.6,0.4-1.2,0.8-1.8,1.1c-0.4,0.2-0.8,0.5-1.2,0.7c-0.3,0.2-0.5,0.4-0.8,0.6
		C6.9,23.1,6.2,23.7,5.4,23.9z"/>
	<path class="st0" d="M32.6,17.4c-0.4-1.6-1.7-2.6-3.3-2.6c-1.4,0-2.6,0.8-3.1,2.1l-1.4-0.6c0.8-1.8,2.5-3,4.5-3
		c2.3,0,4.3,1.6,4.8,3.8L32.6,17.4z"/>
</g>
</svg>
