<?xml version="1.0" encoding="utf-8"?>
<!-- Generator: Adobe Illustrator 19.1.0, SVG Export Plug-In . SVG Version: 6.00 Build 0)  -->
<svg version="1.1" id="Layer_1" xmlns="http://www.w3.org/2000/svg" xmlns:xlink="http://www.w3.org/1999/xlink" x="0px" y="0px"
	 viewBox="0 0 48.9 40.8" style="enable-background:new 0 0 48.9 40.8;" xml:space="preserve">
<style type="text/css">
	.st0{fill:#FFFFFF;}
</style>
<path class="st0" d="M48.4,40.8H0.5c-0.3,0-0.5-0.2-0.5-0.5v-8.8C0,31.3,0.2,31,0.5,31h9.1l7.1-13.6c0.9-1.7,2.6-2.7,4.5-2.7h6.6
	c1.9,0,3.6,1,4.5,2.7l0,0L39.3,31h9.1c0.3,0,0.5,0.2,0.5,0.5v8.8C48.9,40.6,48.7,40.8,48.4,40.8z M1,39.8h46.9V32H1V39.8z M34.5,31
	h3.7l-6.9-13.1c-0.7-1.3-2.1-2.2-3.6-2.2h-6.6c-1.5,0-2.9,0.8-3.6,2.2L10.7,31h3.7l3.6-7.2c0.1-0.2,0.3-0.3,0.6-0.3
	c0.2,0.1,0.4,0.3,0.4,0.5v7H30v-7c0-0.2,0.2-0.4,0.4-0.5c0.2-0.1,0.5,0.1,0.6,0.3L34.5,31z M31,31h2.4L31,26.2C31,26.2,31,31,31,31z
	 M15.5,31h2.4v-4.9L15.5,31z M43.6,38.7c-1.5,0-2.8-1.3-2.8-2.8c0-1.5,1.3-2.8,2.8-2.8s2.8,1.3,2.8,2.8
	C46.4,37.5,45.2,38.7,43.6,38.7z M43.6,34.1c-1,0-1.8,0.8-1.8,1.8c0,1,0.8,1.8,1.8,1.8c1,0,1.8-0.8,1.8-1.8
	C45.4,34.9,44.6,34.1,43.6,34.1z M36,38.7c-1.5,0-2.8-1.3-2.8-2.8c0-1.5,1.3-2.8,2.8-2.8s2.8,1.3,2.8,2.8
	C38.8,37.5,37.5,38.7,36,38.7z M36,34.1c-1,0-1.8,0.8-1.8,1.8c0,1,0.8,1.8,1.8,1.8s1.8-0.8,1.8-1.8C37.8,34.9,37,34.1,36,34.1z
	 M28.3,38.7c-1.5,0-2.8-1.3-2.8-2.8c0-1.5,1.3-2.8,2.8-2.8s2.8,1.3,2.8,2.8C31.1,37.5,29.8,38.7,28.3,38.7z M28.3,34.1
	c-1,0-1.8,0.8-1.8,1.8c0,1,0.8,1.8,1.8,1.8s1.8-0.8,1.8-1.8C30.1,34.9,29.3,34.1,28.3,34.1z M20.6,38.7c-1.5,0-2.8-1.3-2.8-2.8
	c0-1.5,1.3-2.8,2.8-2.8s2.8,1.3,2.8,2.8C23.4,37.5,22.2,38.7,20.6,38.7z M20.6,34.1c-1,0-1.8,0.8-1.8,1.8c0,1,0.8,1.8,1.8,1.8
	s1.8-0.8,1.8-1.8C22.4,34.9,21.6,34.1,20.6,34.1z M12.9,38.7c-1.5,0-2.8-1.3-2.8-2.8c0-1.5,1.3-2.8,2.8-2.8s2.8,1.3,2.8,2.8
	C15.7,37.5,14.5,38.7,12.9,38.7z M12.9,34.1c-1,0-1.8,0.8-1.8,1.8c0,1,0.8,1.8,1.8,1.8s1.8-0.8,1.8-1.8
	C14.8,34.9,13.9,34.1,12.9,34.1z M5.3,38.7c-1.5,0-2.8-1.3-2.8-2.8c0-1.5,1.3-2.8,2.8-2.8s2.8,1.3,2.8,2.8
	C8.1,37.5,6.8,38.7,5.3,38.7z M5.3,34.1c-1,0-1.8,0.8-1.8,1.8c0,1,0.8,1.8,1.8,1.8s1.8-0.8,1.8-1.8C7.1,34.9,6.3,34.1,5.3,34.1z
	 M24.5,14.1c-2.4,0-4.5-1.5-5.5-3.5c-0.2,0.1-0.4,0.2-0.7,0.2h-0.8c-0.6,0-1.1-0.5-1.1-1.1V6c0-0.6,0.5-1.1,1.1-1.1h0.1
	C18,3.7,19.9,0,24.5,0c4.6,0,6.4,3.7,6.9,4.9h0.1c0.6,0,1.1,0.5,1.1,1.1v3.7c0,0.6-0.5,1.1-1.1,1.1h-0.8c-0.2,0-0.5-0.1-0.7-0.2
	C29,12.7,26.9,14.1,24.5,14.1z M24.5,3.1c-2.8,0-5,2.3-5,5c0,2.8,2.3,5,5,5c2.8,0,5-2.3,5-5C29.5,5.3,27.2,3.1,24.5,3.1z M30.5,8.1
	v1.6c0,0.1,0.1,0.1,0.1,0.1h0.8c0.1,0,0.1-0.1,0.1-0.1V6c0-0.1-0.1-0.1-0.1-0.1H31c0,0,0,0,0,0h-0.4c-0.1,0-0.1,0.1-0.1,0.1
	C30.5,6,30.5,8.1,30.5,8.1z M17.5,5.9c-0.1,0-0.1,0.1-0.1,0.1v3.7c0,0.1,0.1,0.1,0.1,0.1h0.8c0.1,0,0.1-0.1,0.1-0.1V6
	c0-0.1-0.1-0.1-0.1-0.1h-0.4c0,0,0,0,0,0H17.5z M18.6,5C18.8,5,19,5.1,19.1,5.3c1-1.9,3-3.2,5.3-3.2s4.3,1.3,5.3,3.2
	C29.9,5.1,30.1,5,30.3,5c-0.5-1.2-2.2-4-5.9-4C20.8,1,19.2,3.7,18.6,5z"/>
</svg>
