<?xml version="1.0" encoding="utf-8"?>
<!-- Generator: Adobe Illustrator 19.1.0, SVG Export Plug-In . SVG Version: 6.00 Build 0)  -->
<svg version="1.1" id="Layer_1" xmlns="http://www.w3.org/2000/svg" xmlns:xlink="http://www.w3.org/1999/xlink" x="0px" y="0px"
	 viewBox="0 0 38 45.1" style="enable-background:new 0 0 38 45.1;" xml:space="preserve">
<style type="text/css">
	.st0{fill:#FFFFFF;}
</style>
<g>
	<path class="st0" d="M38,7.4c0-0.9-0.6-1.7-1.5-2l-14.8-5c0,0,0,0,0,0c-1.8-0.5-3.6-0.5-5.4,0c0,0,0,0,0,0l-14.8,5
		C0.6,5.7,0,6.5,0,7.4c0,0.1,0,0.1,0,0.2c0,0.1,0,0.1,0,0.2v0.7c0,1.2,0.9,2.1,2.1,2.1h8.4c0.5,0,1-0.2,1.4-0.5
		c0.4,0.3,0.9,0.5,1.4,0.5h4.9v16.9h-3.5v-4.9c0-0.8-0.6-1.4-1.4-1.4h-2.8c-0.8,0-1.4,0.6-1.4,1.4V38c0,0.8,0.6,1.4,1.4,1.4h2.8v1.4
		H3.5c-0.4,0-0.7,0.3-0.7,0.7s0.3,0.7,0.7,0.7h4.2v2.1c0,0.4,0.3,0.7,0.7,0.7s0.7-0.3,0.7-0.7v-2.1h10.6c0.3,1.6,1.7,2.8,3.4,2.8
		c1.9,0,3.5-1.6,3.5-3.5S25.2,38,23.2,38c-1.3,0-2.4,0.7-3,1.8c-0.2,0.3-0.3,0.7-0.4,1.1h-5v-1.4h3.3c0,0.3,0.1,0.5,0.4,0.6
		c0.4,0.2,0.8,0,0.9-0.3c0-0.1,0.1-0.2,0.2-0.3c0.8-1.3,2.2-2.1,3.7-2.1c1.6,0,3.1,0.9,3.8,2.4c0.1,0.3,0.4,0.4,0.6,0.4
		c0.1,0,0.2,0,0.3-0.1c0.3-0.1,0.4-0.4,0.4-0.7c0.7-0.1,1.2-0.7,1.2-1.4v-7.7h2.1c0.4,0,0.7-0.3,0.7-0.7s-0.3-0.7-0.7-0.7h-2.1
		c0-0.8-0.6-1.4-1.4-1.4h-8.4V10.6h4.9c0.5,0,1-0.2,1.4-0.5c0.4,0.3,0.9,0.5,1.4,0.5h8.4c1.2,0,2.1-0.9,2.1-2.1V7.8
		c0-0.1,0-0.1,0-0.2C38,7.6,38,7.5,38,7.4z M21.4,40.5c0.4-0.7,1.1-1.1,1.8-1.1c1.2,0,2.1,0.9,2.1,2.1s-0.9,2.1-2.1,2.1
		c-1.2,0-2.1-0.9-2.1-2.1C21.1,41.2,21.2,40.8,21.4,40.5z M13.4,22.6v4.9h-2.8l0-4.9L13.4,22.6z M28.1,29.6
		C28.1,29.6,28.1,29.6,28.1,29.6C28.1,29.6,28.1,29.6,28.1,29.6l0,8.4h-0.5c-1.1-1.3-2.7-2.1-4.4-2.1c-1.7,0-3.3,0.8-4.4,2.1l-4.7,0
		c0,0,0,0,0,0s0,0,0,0l-3.5,0v-7l0-2.1h3.5l4.9,0c0,0,0,0,0,0s0,0,0,0l9.1,0L28.1,29.6z M11.7,5.7H5.1l10.1-3.4
		C13.7,3.6,12.2,5.1,11.7,5.7z M17.8,1.9c0.7-0.6,1.7-0.6,2.4,0l4.1,3.8H13.7C14.8,4.6,16.6,2.9,17.8,1.9z M10.6,9.2H2.1
		c-0.4,0-0.7-0.3-0.7-0.7V7.8c0-0.1,0-0.1,0-0.2c0-0.1,0-0.1,0-0.2c0-0.1,0-0.2,0.1-0.3c0,0,0.1,0,0.1,0h9.7v1.4
		C11.3,8.9,10.9,9.2,10.6,9.2z M24.6,9.2H13.4c-0.4,0-0.7-0.3-0.7-0.7V7.1h12.7v1.4C25.3,8.9,25,9.2,24.6,9.2z M36.6,8.5
		c0,0.4-0.3,0.7-0.7,0.7h-8.4c-0.4,0-0.7-0.3-0.7-0.7V7.1h0.7c0.4,0,0.7-0.3,0.7-0.7s-0.3-0.7-0.7-0.7h-1.1l-3.7-3.5l10.3,3.5h-2.7
		c-0.4,0-0.7,0.3-0.7,0.7s0.3,0.7,0.7,0.7h6.2c0.1,0.1,0.1,0.2,0.1,0.3c0,0.1,0,0.1,0,0.2c0,0.1,0,0.1,0,0.2L36.6,8.5L36.6,8.5z"/>
	<path class="st0" d="M23.2,42.3c0.4,0,0.7-0.3,0.7-0.7s-0.3-0.7-0.7-0.7h0c-0.4,0-0.7,0.3-0.7,0.7S22.8,42.3,23.2,42.3z"/>
</g>
</svg>
