<?xml version="1.0" encoding="utf-8"?>
<!-- Generator: Adobe Illustrator 19.1.0, SVG Export Plug-In . SVG Version: 6.00 Build 0)  -->
<svg version="1.1" id="Layer_1" xmlns="http://www.w3.org/2000/svg" xmlns:xlink="http://www.w3.org/1999/xlink" x="0px" y="0px"
	 viewBox="0 0 39.7 50" style="enable-background:new 0 0 39.7 50;" xml:space="preserve">
<style type="text/css">
	.st0{fill:none;stroke:#FFFFFF;stroke-width:2;stroke-linejoin:round;stroke-miterlimit:10;}
</style>
<g>
	<path class="st0" d="M15.8,14.6c0,0-9,5.8-8.6,12.2c0,0-3.4-9.7,3.2-15.1c0,0-7.4,1.6-8.7,6.1c0,0,0.1-10,7.2-10.1
		c0,0-2.6-2.7-2.2-6.3c0,0,4,0.5,5.6,3.7c0,0,3-5.1,6.4-3.9c0,0-2.4,2.6-1.5,5.3c0,0,8.7-3.1,13.6,2.1c0,0-4.9-1.1-8,1
		c0,0,7.1,5.5,6.8,12.4c0,0-4.6-4.9-9.3-7.5c0,0,4.3,14.2,4.3,26c0,0,9.9,2.8,14.2,8.4H1c0,0,8.8-7.3,18.2-8
		C19.2,41,20.8,23,15.8,14.6z"/>
</g>
</svg>
