<?xml version="1.0" encoding="utf-8"?>
<!-- Generator: Adobe Illustrator 19.1.0, SVG Export Plug-In . SVG Version: 6.00 Build 0)  -->
<svg version="1.1" id="Layer_1" xmlns="http://www.w3.org/2000/svg" xmlns:xlink="http://www.w3.org/1999/xlink" x="0px" y="0px"
	 viewBox="0 0 30.6 40.4" style="enable-background:new 0 0 30.6 40.4;" xml:space="preserve">
<style type="text/css">
	.st0{fill:#FFFFFF;}
</style>
<g>
	<g>
		<path class="st0" d="M15.3,28.5c2.2,0,4-1.8,4-4c0-2.2-1.8-4-4-4s-4,1.8-4,4C11.3,26.7,13.1,28.5,15.3,28.5z M15.3,22.6
			c1,0,1.9,0.8,1.9,1.9c0,1-0.8,1.9-1.9,1.9s-1.9-0.8-1.9-1.9C13.4,23.4,14.3,22.6,15.3,22.6z"/>
		<path class="st0" d="M30.3,7.6l-3.7-3.7c-0.3-0.3-0.6-0.4-1-0.3l-1.2,0.3l-3.2-2.5C21,1.1,20.6,1,20.3,1.1l-1.7,0.5l-2.8-1.5
			c-0.3-0.2-0.7-0.2-1,0L12,1.7l-1.7-0.5C10,1,9.7,1.1,9.4,1.3L6.2,3.8L5,3.5c-0.4-0.1-0.7,0-1,0.3L0.3,7.6C0.1,7.8,0,8,0,8.3v10.9
			c0,0.3,0.1,0.6,0.3,0.8l8.3,7.7C8.9,27.9,9.1,28,9.4,28c0,0,0,0,0,0c0.6,0,1-0.5,1-1c0-0.3-0.1-0.6-0.3-0.8l0,0c0,0,0,0,0,0
			l-3.9-3.6l2.6-2.9l1.1,0.2c0.3,0.1,0.5,0,0.7-0.1l2.8-1.5l1.7,0.5c0.2,0.1,0.4,0.1,0.6,0l1.7-0.5l2.8,1.5c0.2,0.1,0.5,0.2,0.7,0.1
			l1.1-0.2l2.7,2.9l-4,3.7c-0.3,0.3-0.4,0.7-0.3,1.1c0.1,0.4,0.5,0.7,0.9,0.7c0,0,0.4,0,0.8-0.3l8.2-7.7c0.2-0.2,0.3-0.5,0.3-0.8
			V8.3C30.6,8,30.5,7.8,30.3,7.6z M28.6,18.7L26.1,21L23,17.7c-0.3-0.3-0.6-0.4-1-0.3l-1.3,0.3l-2.8-1.6c-0.2-0.1-0.5-0.2-0.8-0.1
			l-1.8,0.6l-1.8-0.6C13.3,16,13,16,12.7,16.2l-2.8,1.6l-1.3-0.3c-0.4-0.1-0.8,0-1,0.3l-3,3.3l-2.5-2.3v-10l3-3L6.2,6
			C6.5,6,6.8,6,7.1,5.8l3.2-2.5l1.6,0.5c0.3,0.1,0.6,0.1,0.8-0.1l2.7-1.5L18,3.7c0.2,0.1,0.5,0.2,0.8,0.1l1.6-0.5l3.2,2.5
			C23.8,6,24.1,6,24.5,6l1.1-0.3l3,3L28.6,18.7L28.6,18.7z"/>
		<path class="st0" d="M20.1,29.4c0.5-0.3,0.6-1,0.3-1.5c-0.3-0.5-1-0.6-1.5-0.3l-3.6,2.5l-3.6-2.5c-0.5-0.3-1.1-0.2-1.5,0.3
			c-0.3,0.5-0.2,1.1,0.3,1.5l3.7,2.6v3.3l-3.8,3.2c-0.4,0.4-0.5,1-0.1,1.5c0.4,0.4,1,0.5,1.5,0.1l3.5-3l3.5,3
			c0.2,0.2,0.4,0.2,0.7,0.2c0.3,0,0.6-0.1,0.8-0.4c0.4-0.4,0.3-1.1-0.1-1.5l-3.8-3.2V32L20.1,29.4z"/>
	</g>
</g>
</svg>
