<?xml version="1.0" encoding="utf-8"?>
<!-- Generator: Adobe Illustrator 19.1.0, SVG Export Plug-In . SVG Version: 6.00 Build 0)  -->
<svg version="1.1" id="Layer_1" xmlns="http://www.w3.org/2000/svg" xmlns:xlink="http://www.w3.org/1999/xlink" x="0px" y="0px"
	 viewBox="0 0 51.1 45.8" style="enable-background:new 0 0 51.1 45.8;" xml:space="preserve">
<style type="text/css">
	.st0{fill:none;stroke:#FFFFFF;stroke-width:2;stroke-miterlimit:10;}
</style>
<g>
	<path class="st0" d="M40.2,1.4L2.1,29.9l45.2,14.7C47.4,44.6,57.1,26.9,40.2,1.4z"/>
	<path class="st0" d="M35.4,5.3c0.5,3.3,3.5,4.3,5.1,7c1.7,2.7,1.1,5.2,1.3,8.2c0.2,2.9,2.5,4.7,3.1,7.4c0.5,2.5-2,3.7-1.8,6.1
		c0.1,1.5,1,3.4,0.8,4.9c-0.2,1.5-1.5,2.9-2.4,4"/>
	<circle class="st0" cx="32.2" cy="20.4" r="4.2"/>
	<circle class="st0" cx="34.8" cy="31.9" r="3.9"/>
	<circle class="st0" cx="21.7" cy="26.7" r="3.7"/>
</g>
</svg>
