<?xml version="1.0" encoding="utf-8"?>
<!-- Generator: Adobe Illustrator 19.1.0, SVG Export Plug-In . SVG Version: 6.00 Build 0)  -->
<svg version="1.1" id="Layer_1" xmlns="http://www.w3.org/2000/svg" xmlns:xlink="http://www.w3.org/1999/xlink" x="0px" y="0px"
	 viewBox="0 0 38.4 43.7" style="enable-background:new 0 0 38.4 43.7;" xml:space="preserve">
<style type="text/css">
	.st0{fill:#FFFFFF;}
</style>
<path class="st0" d="M25.9,43.7c-4.7,0-8.5-3.8-8.5-8.5v-4.5c0-0.5,0.4-1,1-1h3.6c0.5,0,1,0.4,1,1v4.5c0,1.7,1.3,3,3,3s3-1.3,3-3
	v-7.3h-6.2c-1.2,0-2.3-1-2.3-2.3c0-0.5-0.4-0.9-0.9-0.9h-0.7c-0.5,0-0.9,0.4-0.9,0.9c0,1.2-1,2.3-2.3,2.3h-12
	c-1.1,0-2.1-0.5-2.8-1.3c-0.8-0.9-1.1-2.3-0.8-3.6L2,13.5c0.4-2.2,2.5-3.9,4.6-3.9h22.3V1c0-0.5,0.4-1,1-1h3.6c0.5,0,1,0.4,1,1v9.6
	c1,0.7,1.7,1.8,2,3l1.9,9.4c0.3,1.3,0,2.7-0.8,3.6c-0.7,0.8-1.7,1.3-2.8,1.3h-0.3v7.3C34.4,39.9,30.6,43.7,25.9,43.7z M19.3,31.7
	v3.5c0,3.6,2.9,6.6,6.6,6.6c3.6,0,6.6-2.9,6.6-6.6V1.9h-1.7v33.3c0,2.7-2.2,4.9-4.9,4.9c-2.7,0-4.9-2.2-4.9-4.9v-3.5L19.3,31.7
	L19.3,31.7z M34.4,25.9h0.3c0.5,0,1-0.2,1.3-0.6c0.4-0.5,0.5-1.2,0.4-2c0,0,0,0,0,0l-1.9-9.4c0-0.1,0-0.2-0.1-0.3V25.9z M18.8,22.8
	h0.7c1.6,0,2.8,1.3,2.8,2.8c0,0.2,0.1,0.3,0.3,0.3h6.2V11.6H6.6c-1.2,0-2.5,1.1-2.7,2.3L2,23.4c-0.2,0.8,0,1.5,0.4,2
	c0.3,0.4,0.8,0.6,1.3,0.6h12c0.2,0,0.3-0.1,0.3-0.3C16,24.1,17.3,22.8,18.8,22.8z M23.7,24.3c-0.5,0-1-0.4-1-1
	c0-0.6-1.1-1.4-2.9-1.4h-1.5c-1.7,0-2.9,0.8-2.9,1.4c0,0.5-0.4,1-1,1c-0.5,0-1-0.4-1-1c0-1.8,2.1-3.3,4.8-3.3h1.5
	c2.7,0,4.8,1.4,4.8,3.3C24.7,23.9,24.3,24.3,23.7,24.3z M4.7,20.6c-0.1,0-0.1,0-0.2,0C4,20.5,3.7,20,3.8,19.4l1-4.7
	c0.3-1.3,1.5-2.3,2.8-2.3h2.7c0.5,0,1,0.4,1,1s-0.4,1-1,1H7.5c-0.4,0-0.8,0.4-0.9,0.8l-1,4.7C5.6,20.3,5.2,20.6,4.7,20.6z"/>
</svg>
