<?xml version="1.0" encoding="utf-8"?>
<!-- Generator: Adobe Illustrator 19.1.0, SVG Export Plug-In . SVG Version: 6.00 Build 0)  -->
<svg version="1.1" id="Layer_1" xmlns="http://www.w3.org/2000/svg" xmlns:xlink="http://www.w3.org/1999/xlink" x="0px" y="0px"
	 viewBox="0 0 50 50" style="enable-background:new 0 0 50 50;" xml:space="preserve">
<style type="text/css">
	.st0{fill:#FFF;}
	.st1{fill:none;stroke:#FFF;stroke-width:2;stroke-linecap:round;stroke-linejoin:round;stroke-miterlimit:10;}
</style>
<g>
	<g>
		<path class="st0" d="M0.5,33.1v9.1"/>
	</g>
</g>
<g>
	<g>
		<path class="st1" d="M48.7,20.4L21.1,48c-1.4,1.4-3.8,1.3-5.3-0.2L2.2,34.2c-1.5-1.5-1.6-3.9-0.2-5.3L29.6,1.3
			c1.4-1.4,15.9,2.9,15.9,2.9S50.1,18.9,48.7,20.4z"/>
		<path class="st1" d="M39.4,10.6c1.8,1.8,1.8,4.8,0,6.6c-1.8,1.8-4.8,1.8-6.6,0c-1.8-1.8-1.8-4.8,0-6.6
			C34.6,8.8,37.5,8.8,39.4,10.6z"/>
	</g>
	<g>
		<path class="st0" d="M14.2,39.9c0.5-0.1,1.2-0.5,1.7-1c0.8-0.8,0.8-1.6,0.2-2.2c-0.6-0.5-1.2-0.5-2.3-0.1
			c-1.3,0.6-2.4,0.7-3.2-0.1c-0.9-0.9-0.8-2.4,0.3-3.5c0.6-0.6,1.2-0.9,1.6-1l0.4,0.8c-0.3,0.1-0.9,0.3-1.4,0.8
			c-0.8,0.8-0.6,1.6-0.2,2c0.6,0.6,1.2,0.5,2.3,0C15,35,16,35,16.9,35.8c0.9,0.9,1,2.4-0.4,3.8c-0.6,0.6-1.4,1-1.9,1.1L14.2,39.9z"
			/>
		<path class="st0" d="M18.6,33.6l1.2,2.5l-0.8,0.8l-3.9-7.9l0.9-0.9l7.9,3.9l-0.8,0.8l-2.5-1.2L18.6,33.6z M20,31l-2.3-1.1
			c-0.5-0.3-1-0.5-1.4-0.8l0,0c0.3,0.4,0.5,0.9,0.8,1.4l1.1,2.3L20,31z"/>
		<path class="st0" d="M19,25.1l0.8-0.8l5.3,5.3l2.5-2.5l0.6,0.6L24.9,31L19,25.1z"/>
		<path class="st0" d="M29.3,21.1L27,23.4l2.1,2.1l2.6-2.6l0.6,0.6L29,26.9L23.1,21l3.2-3.2l0.6,0.6l-2.4,2.4l1.9,1.9l2.3-2.3
			L29.3,21.1z"/>
	</g>
</g>
</svg>
