<?xml version="1.0" encoding="utf-8"?>
<!-- Generator: Adobe Illustrator 19.1.0, SVG Export Plug-In . SVG Version: 6.00 Build 0)  -->
<svg version="1.1" id="Layer_1" xmlns="http://www.w3.org/2000/svg" xmlns:xlink="http://www.w3.org/1999/xlink" x="0px" y="0px"
	 viewBox="0 0 12.4 44.4" style="enable-background:new 0 0 12.4 44.4;" xml:space="preserve">
<style type="text/css">
	.st0{fill:#FFFFFF;}
</style>
<path class="st0" d="M12.4,6.5c0-0.2,0-0.4,0-0.6C12.3,2.6,9.5,0,6.2,0C2.9,0,0.2,2.6,0,5.9c0,0.2,0,0.4,0,0.6l0.4,3
	c1.2,8.4,1.2,16.9,0,25.2l-0.4,2.7c-0.3,2.4,0.7,4.8,2.8,6.1c1,0.6,2.1,1,3.3,1c1.2,0,2.4-0.4,3.3-1c2.1-1.3,3.1-3.7,2.8-6.1
	L12,34.7c-1.2-8.4-1.1-16.9,0-25.2L12.4,6.5z M11.1,6.2l-0.4,3.1c-0.1,0.8-0.2,1.6-0.3,2.4c-0.4-1-1.5-1.8-2.6-1.8
	c-0.2,0-0.4,0-0.6,0.1l-3.3,0.7c-0.7,0.1-1.3,0.5-1.8,1.1C2,10.9,1.9,10.1,1.8,9.3L1.6,8.1L11,5.4C11.1,5.7,11.1,5.9,11.1,6.2z
	 M11,37.6l-9.3,2.6c-0.1-0.3-0.3-0.6-0.3-1l9.4-2.7L11,37.6z M1.4,37.9l0.4-3c0.1-0.7,0.2-1.4,0.3-2c0.5,0.7,1.4,1.2,2.4,1.2
	c0.2,0,0.4,0,0.6-0.1l3.3-0.7c0.8-0.2,1.4-0.6,1.8-1.2c0.1-0.1,0.1-0.2,0.2-0.3c0.1,1,0.2,2,0.4,3l0.1,0.4L1.4,37.9z M6.1,14.7
	l-0.5-3l1.9-0.4c0.1,0,0.2,0,0.3,0c0.7,0,1.4,0.5,1.5,1.2c0.1,0.4,0,0.8-0.2,1.2c-0.2,0.3-0.6,0.6-1,0.7L6.1,14.7z M4.3,11.9l0.5,3
	l-0.1,0c-0.1,0-0.2,0-0.3,0c-0.7,0-1.4-0.5-1.5-1.2c-0.1-0.4,0-0.8,0.2-1.2c0.2-0.3,0.6-0.6,1-0.7L4.3,11.9z M4.4,16.3
	c0.2,0,0.4,0,0.6-0.1l3.3-0.7c0.7-0.1,1.4-0.6,1.8-1.2C9.7,19.2,9.7,24,10,28.8c-0.5-0.7-1.4-1.1-2.3-1.1c-0.2,0-0.4,0-0.6,0.1
	l-3.3,0.7c-0.5,0.1-1,0.4-1.4,0.8c0.3-4.5,0.3-9.1,0-13.6C2.9,16,3.6,16.3,4.4,16.3z M3.9,29.7l0.7,3c-0.1,0-0.2,0-0.2,0
	c-0.7,0-1.4-0.5-1.5-1.2c-0.1-0.4,0-0.8,0.2-1.2C3.3,30,3.6,29.8,3.9,29.7z M6,32.5l-0.7-3L7.4,29c0.1,0,0.2,0,0.3,0
	c0.7,0,1.4,0.5,1.5,1.2c0.1,0.4,0,0.8-0.2,1.2C8.8,31.7,8.4,32,8,32L6,32.5z M6.2,1.3c1.9,0,3.6,1.1,4.4,2.8L1.4,6.7L1.3,6.2
	C1.4,3.5,3.5,1.3,6.2,1.3z M6.2,43.1c-1.5,0-2.8-0.7-3.7-1.7l8.5-2.4C10.7,41.3,8.7,43.1,6.2,43.1z"/>
</svg>
