<?xml version="1.0" encoding="utf-8"?>
<!-- Generator: Adobe Illustrator 19.1.0, SVG Export Plug-In . SVG Version: 6.00 Build 0)  -->
<svg version="1.1" id="Layer_1" xmlns="http://www.w3.org/2000/svg" xmlns:xlink="http://www.w3.org/1999/xlink" x="0px" y="0px"
	 viewBox="0 0 50 50" style="enable-background:new 0 0 50 50;" xml:space="preserve">
<style type="text/css">
	.st0{fill:none;stroke:#FFFFFF;stroke-width:2;stroke-linejoin:round;stroke-miterlimit:10;}
</style>
<g>
	<ellipse class="st0" cx="25" cy="25" rx="24" ry="24"/>
	<path class="st0" d="M40.1,20.2l-8.1,2.2l-7.8-6.5V8l7.9-5.9c0,0,3.6,1.1,6.3,3.1c3.7,2.6,5.2,4.8,5.2,4.8L40.1,20.2z"/>
	<path class="st0" d="M4.9,11.8L8.4,20l6.5,2.3l9.2-6.5V8l-7.8-5.4C16.4,2.6,10.1,5,4.9,11.8z"/>
	<path class="st0" d="M1,26.1L8.4,20l6.5,2.3l3.4,10.7l-3.8,4.7L5.5,39C5.5,39,0.6,31.8,1,26.1z"/>
	<path class="st0" d="M32.1,22.4L29.7,33l3.5,4.8L44.5,39c0,0,4.6-6.4,4.4-11.9l-8.8-6.9L32.1,22.4"/>
	<path class="st0" d="M14.6,37.8L18.4,48c0,0,6.8,1.8,11.3,0.5l3.5-10.7l-3.5-4.3l-11.3-0.3L14.6,37.8z"/>
</g>
</svg>
