<?xml version="1.0" encoding="utf-8"?>
<!-- Generator: Adobe Illustrator 19.1.0, SVG Export Plug-In . SVG Version: 6.00 Build 0)  -->
<svg version="1.1" id="Layer_1" xmlns="http://www.w3.org/2000/svg" xmlns:xlink="http://www.w3.org/1999/xlink" x="0px" y="0px"
	 viewBox="0 0 18.7 51.1" style="enable-background:new 0 0 18.7 51.1;" xml:space="preserve">
<style type="text/css">
	.st0{fill:#FFFFFF;}
</style>
<g>
	<g>
		<path class="st0" d="M18.5,21.3c-0.5-12.9-7-19.7-8.4-21C9.8,0,9.5,0,9.3,0C9.2,0,8.8,0,8.5,0.3c-1.4,1.3-7.9,8.1-8.4,21
			C0,26.4-0.2,32.2,0.5,37.6c0.7,6.2,2.3,10.5,4.9,13.3C5.6,51,5.8,51.1,6,51.1h6.6c0.2,0,0.5-0.1,0.6-0.3c2.6-2.8,4.2-7.1,4.9-13.3
			C18.8,32.2,18.7,26.4,18.5,21.3z M8.5,49.4H6.4C1.5,43.8,1.5,32,1.8,21.3c0,0,0-0.1,0-0.1l6.6,5.2L8.5,49.4L8.5,49.4z M8.5,24.3
			L2,19.2c0.2-2.3,0.6-4.4,1.2-6.2l5.3,4.2L8.5,24.3L8.5,24.3z M8.5,15l-4.8-3.8c1.5-4.1,3.5-6.9,4.8-8.4L8.5,15L8.5,15z M10.2,2.8
			c2.2,2.6,6.3,8.6,6.6,18.5c0,0.1,0,0.1,0,0.2l-6.7-5.2L10.2,2.8L10.2,2.8z M10.2,27.7l6.7,5.2c0,0,0,0,0,0
			c-0.3,6.7-1.5,12.9-4.6,16.4h-2.1 M16.9,23.7C16.9,23.7,16.9,23.7,16.9,23.7c0.1,0.7,0.1,1.3,0.1,2c0,1.7,0,3.5,0,5.2l-6.8-5.3
			v-5.2v-1.9"/>
	</g>
</g>
</svg>
