<?xml version="1.0" encoding="utf-8"?>
<!-- Generator: Adobe Illustrator 19.1.0, SVG Export Plug-In . SVG Version: 6.00 Build 0)  -->
<svg version="1.1" id="Layer_1" xmlns="http://www.w3.org/2000/svg" xmlns:xlink="http://www.w3.org/1999/xlink" x="0px" y="0px"
	 viewBox="-370 281.9 50 50.1" style="enable-background:new -370 281.9 50 50.1;" xml:space="preserve">
<style type="text/css">
	.st0{fill:none;stroke:#FFFFFF;stroke-width:2;stroke-miterlimit:10;}
</style>
<g>
	<polygon class="st0" points="-368.8,296.7 -321.1,296.7 -321.1,292.2 -344.2,283 -368.8,292.2 	"/>
	<g>
		<polygon class="st0" points="-365.4,301.3 -363.8,301.3 -363.8,323.3 -357.6,323.3 -357.6,301.3 -356,301.3 -356,298.8 
			-365.4,298.8 		"/>
		<polygon class="st0" points="-349.6,301.3 -348,301.3 -348,323.3 -341.9,323.3 -341.9,301.3 -340.3,301.3 -340.3,298.8 
			-349.6,298.8 		"/>
		<polygon class="st0" points="-333.8,298.8 -333.8,301.3 -332.2,301.3 -332.2,323.3 -326.1,323.3 -326.1,301.3 -324.5,301.3 
			-324.5,298.8 		"/>
	</g>
	<polygon class="st0" points="-323.3,328.1 -323.3,325.4 -366.7,325.4 -366.7,328.1 -369,328.1 -369,331 -321,331 -321,328.1 	"/>
</g>
</svg>
