<?xml version="1.0" encoding="utf-8"?>
<!-- Generator: Adobe Illustrator 19.1.0, SVG Export Plug-In . SVG Version: 6.00 Build 0)  -->
<svg version="1.1" id="Layer_1" xmlns="http://www.w3.org/2000/svg" xmlns:xlink="http://www.w3.org/1999/xlink" x="0px" y="0px"
	 viewBox="0 0 48.4 50" style="enable-background:new 0 0 48.4 50;" xml:space="preserve">
<style type="text/css">
	.st0{fill:none;stroke:#FFFFFF;stroke-width:2;stroke-miterlimit:10;}
</style>
<g>
	<g>
		<path class="st0" d="M1.1,1C1,1.4,1,1.9,1,2.3c0,12.8,10.4,23.2,23.2,23.2c12.8,0,23.2-10.4,23.2-23.2c0-0.5,0-0.9-0.1-1.3H1.1z"
			/>
		<line class="st0" x1="24.2" y1="25.5" x2="24.2" y2="49"/>
		<line class="st0" x1="12.9" y1="49" x2="35.5" y2="49"/>
	</g>
	<path class="st0" d="M2.5,9.8c0.4,0,1.8,0.5,2.5,0.7c1.7,0.3,3.3,0.4,5.1,0.4c2,0,3.9-0.1,5.8-0.7C17.5,9.7,19.2,9,21,8.6
		C24.3,7.8,27.5,7,31,7c1.5,0,2.8,0.1,4.2,0.6c1,0.3,2,0.7,2.9,1.1c2.2,1,4.6,2.3,6.1,4.2"/>
</g>
</svg>
