<?xml version="1.0" encoding="utf-8"?>
<!-- Generator: Adobe Illustrator 19.1.0, SVG Export Plug-In . SVG Version: 6.00 Build 0)  -->
<svg version="1.1" id="Layer_1" xmlns="http://www.w3.org/2000/svg" xmlns:xlink="http://www.w3.org/1999/xlink" x="0px" y="0px"
	 viewBox="0 0 47.6 44.5" style="enable-background:new 0 0 47.6 44.5;" xml:space="preserve">
<style type="text/css">
	.st0{fill:#FFFFFF;}
</style>
<g>
	<path class="st0" d="M47.1,6.2C34.8,2.4,21.5,1.6,8.8,3.9L8.3,2.6C8.2,2.4,8,2.2,7.7,2.2L4.5,2L3.3,0.3c0-0.1-0.1-0.1-0.1-0.1
		C3,0,2.7,0,2.5,0.1L0.3,1.6C0,1.8-0.1,2.2,0.1,2.5C0.3,2.8,0.7,2.9,1,2.7l1.7-1.2l1,1.5c0.1,0.2,0.3,0.3,0.5,0.3l3.2,0.2L8,5.1
		L5.6,6.3L4.1,5.4C4,5.3,3.8,5.3,3.7,5.3L0.8,6.1C0.5,6.2,0.3,6.5,0.3,6.8c0.1,0.4,0.4,0.6,0.8,0.5l2.6-0.7l1.5,1
		c0.1,0.1,0.2,0.1,0.3,0.1c0.1,0,0.2,0,0.3-0.1l2.6-1.4l0.7,1.6L8.4,9.1C8.3,9.2,8.3,9.3,8.3,9.4l0.8,7.8l-1.5,0.5
		c-0.1,0-0.2,0.1-0.2,0.1c-0.2,0.2-0.2,0.5-0.1,0.7l1.3,2.7l-1.5,0.8c-0.2,0.1-0.3,0.4-0.3,0.6L8,31c-0.8-0.1-1.6,0.1-2.2,0.5
		c-0.7,0.5-1.2,1.2-1.4,2c-0.1,0.3,0.1,0.7,0.4,0.7c0.3,0.1,0.7-0.1,0.8-0.5c0.1-0.5,0.4-1,0.9-1.3c0.5-0.3,1-0.4,1.5-0.3
		c1,0.2,1.7,1.1,1.7,2.1c0,0.1,0,0.2,0.1,0.3c0.2,0.3,0.5,0.4,0.8,0.3c0.3-0.1,0.6-0.1,0.9-0.1c0.4,0.1,0.7,0.3,1,0.6
		c0.1,0.2,0.3,0.2,0.5,0.2h0c0.2,0,0.4-0.1,0.5-0.2c0.6-0.8,1.6-1.2,2.6-1c0.8,0.1,1.4,0.6,1.8,1.3c0.1,0.2,0.3,0.3,0.5,0.3h0
		c0.2,0,0.4-0.1,0.5-0.3c0.3-0.6,1-0.9,1.7-0.8c0.4,0.1,0.8,0.3,1,0.7c0.2,0.3,0.3,0.6,0.3,0.9c0,0.2,0,0.3-0.1,0.5
		c-0.1,0.2,0,0.4,0.1,0.6c0.2,0.2,0.5,0.3,0.8,0.2c0.4-0.2,0.9-0.3,1.4-0.2c0.7,0.1,1.2,0.6,1.5,1.2c0,0.1,0.1,0.2,0.2,0.2
		c0.2,0.2,0.5,0.2,0.8,0c0.4-0.3,0.8-0.4,1.3-0.3c0.9,0.2,1.4,1,1.3,1.9c-0.1,0.3,0.1,0.6,0.4,0.7c0.1,0,0.1,0,0.2,0
		c0.3,0,0.5-0.2,0.6-0.5c0.2-0.9-0.1-1.8-0.7-2.4v-5.6l1-2.5l1.6,1c0.1,0.1,0.2,0.1,0.3,0.1c0,0,0.1,0,0.1,0l5.2-0.8
		c0.3,0,0.6-0.3,0.5-0.6c0-0.4-0.3-0.6-0.7-0.6l-5,0.7l-3-1.9l0.9-5.5l2.1-1c0.2-0.1,0.4-0.4,0.4-0.6l-0.1-1.1l4.9-3l2.5-0.1l1.7,1
		c0.1,0.1,0.2,0.1,0.3,0.1c0.1,0,0.2,0,0.3-0.1l2.1-1.2c0.3-0.2,0.4-0.5,0.3-0.8c-0.2-0.3-0.6-0.5-0.9-0.3l-1.8,1l-1.6-0.9
		c-0.1-0.1-0.2-0.1-0.3-0.1l-2.4,0.1l0-0.2l2.6-2.1c0.2-0.1,0.3-0.4,0.2-0.6l-0.3-1.8c1.1-0.1,3.8-0.2,5.9,1.2
		c0.3,0.2,0.6,0.2,0.8-0.1c0.2-0.3,0.2-0.7-0.1-0.9c-3.2-2.2-7.2-1.4-7.4-1.4c-0.3,0.1-0.5,0.4-0.5,0.7l0.3,2l-2.6,2.1
		c-0.2,0.1-0.3,0.4-0.2,0.6l0.1,0.7l-5,3c-0.2,0.1-0.3,0.4-0.3,0.6l0.1,1.1l-2,0.9c-0.2,0.1-0.3,0.3-0.3,0.5l-1,6.2
		c0,0.2,0.1,0.4,0.2,0.6l0.9,0.7l-1.1,2.9c0,0.1,0,0.1,0,0.2v4.9c-0.1,0-0.2-0.1-0.3-0.1c-0.6-0.1-1.2,0-1.7,0.2
		c-0.5-0.7-1.2-1.2-2.1-1.3c-0.4-0.1-0.8-0.1-1.1,0c0-0.5-0.2-1-0.5-1.4c-0.3-0.5-0.8-0.8-1.3-1v-6.1c0-0.3-0.2-0.6-0.5-0.6
		c-0.4,0-0.7,0.3-0.7,0.6v5.9c-0.6,0-1.2,0.3-1.7,0.7c-0.5-0.6-1.3-1-2.1-1.2c-0.1,0-0.3,0-0.4-0.1v-7.2c0-0.3-0.2-0.6-0.5-0.6
		c-0.4,0-0.7,0.3-0.7,0.6v7.3c-0.6,0.2-1.2,0.5-1.7,0.9c0,0-0.1-0.1-0.2-0.1v-6.6c0-0.3-0.2-0.6-0.5-0.6c-0.4,0-0.7,0.3-0.7,0.6v6.1
		c-0.2,0-0.4,0-0.6,0c-0.2-0.9-0.7-1.6-1.5-2.1L8,23l1.6-0.9c0.3-0.2,0.4-0.5,0.3-0.8l-1.3-2.6l1.3-0.4c0.3-0.1,0.4-0.4,0.4-0.6
		L9.5,9.5l0.8-1.4c0.1-0.2,0.1-0.4,0-0.5L9.3,5c0.7-0.1,1.4-0.2,2.1-0.3v17.6c0,0.3,0.2,0.6,0.5,0.6c0.4,0,0.7-0.3,0.7-0.6V4.5
		c0.6-0.1,1.3-0.2,1.9-0.2v18c0,0.3,0.2,0.6,0.5,0.6c0.4,0,0.7-0.3,0.7-0.6V4.2c0.7-0.1,1.3-0.1,2-0.2v23.7c0,0.3,0.2,0.6,0.5,0.6
		c0.4,0,0.7-0.3,0.7-0.6V4c0.3,0,0.7,0,1,0V11c0,0.3,0.2,0.6,0.5,0.6c0.4,0,0.7-0.3,0.7-0.6V3.9c1,0,1.9,0,2.9,0
		c-0.5,0.5-0.9,1.2-0.9,2v3.4c0,0.3,0.2,0.6,0.5,0.6c0.4,0,0.7-0.3,0.7-0.6V5.9c0-0.8,0.6-1.5,1.4-1.6l0,0c1.7-0.2,3.4-0.2,5.2-0.1
		c5.4,0.5,10.7,1.6,15.8,3.1c0.1,0,0.1,0,0.2,0c0.3,0,0.5-0.2,0.6-0.5C47.6,6.6,47.4,6.3,47.1,6.2z"/>
	<path class="st0" d="M11.4,24.7v0.9c0,0.3,0.3,0.6,0.6,0.6c0.3,0,0.6-0.3,0.6-0.6v-0.9c0-0.3-0.3-0.6-0.6-0.6
		C11.7,24,11.4,24.3,11.4,24.7z"/>
	<path class="st0" d="M19.9,13.1v9.2c0,0.3,0.3,0.6,0.6,0.6s0.6-0.3,0.6-0.6v-9.2c0-0.3-0.3-0.6-0.6-0.6S19.9,12.8,19.9,13.1z"/>
	<path class="st0" d="M32.7,5.1c0-0.3-0.3-0.6-0.6-0.6l-0.8,0c-0.6,0-1.1,0.2-1.6,0.6C29.3,5.4,29,6,29,6.6v11.8
		c0,0.3,0.3,0.6,0.6,0.6s0.6-0.3,0.6-0.6V6.6c0-0.3,0.1-0.5,0.3-0.7s0.4-0.3,0.7-0.3l0.8,0C32.4,5.7,32.7,5.4,32.7,5.1z"/>
	<path class="st0" d="M32.7,17.6c0.3,0,0.6-0.3,0.6-0.6v-2.7c0-0.3-0.3-0.6-0.6-0.6s-0.6,0.3-0.6,0.6V17
		C32.1,17.3,32.4,17.6,32.7,17.6z"/>
	<path class="st0" d="M39.4,6.6c0.1-0.3-0.1-0.7-0.4-0.8c-1.6-0.5-3.4-0.6-4.6-0.6c0,0,0,0,0,0c-0.6,0-1.2,0.2-1.6,0.7
		c-0.4,0.4-0.7,1-0.7,1.6v4.9c0,0.3,0.3,0.6,0.6,0.6s0.6-0.3,0.6-0.6V7.5c0-0.3,0.1-0.6,0.3-0.8c0.2-0.2,0.5-0.3,0.8-0.3
		c0,0,0,0,0,0c1.1,0,2.8,0.1,4.2,0.6C39,7.1,39.3,6.9,39.4,6.6z"/>
	<path class="st0" d="M34.5,9.3v6.2c0,0.3,0.3,0.6,0.6,0.6s0.6-0.3,0.6-0.6V9.3c0-0.3-0.3-0.6-0.6-0.6S34.5,8.9,34.5,9.3z"/>
	<path class="st0" d="M26.4,28.7c-0.3,0-0.6,0.3-0.6,0.6v7c0,0.3,0.3,0.6,0.6,0.6c0.3,0,0.6-0.3,0.6-0.6v-7
		C27,29,26.8,28.7,26.4,28.7z"/>
	<path class="st0" d="M27,17.2c0-0.3-0.3-0.6-0.6-0.6c-0.3,0-0.6,0.3-0.6,0.6v2.9c0,0.3,0.3,0.6,0.6,0.6c0.3,0,0.6-0.3,0.6-0.6V17.2
		z"/>
	<path class="st0" d="M27,6.3c0-0.3-0.3-0.6-0.6-0.6c-0.3,0-0.6,0.3-0.6,0.6V15c0,0.3,0.3,0.6,0.6,0.6c0.3,0,0.6-0.3,0.6-0.6V6.3z"
		/>
	<path class="st0" d="M22,39.5c-1.2-0.2-2.3,0.1-3.2,1c-0.7-0.8-1.7-1.4-2.8-1.6c-1.6-0.3-3.2,0.2-4.4,1.3c-0.5-0.4-1-0.7-1.7-0.8
		c-0.4-0.1-0.7-0.1-1.1,0c-0.3-1.7-1.5-3-3.3-3.3c-0.3-0.1-0.7,0.2-0.7,0.5c-0.1,0.3,0.2,0.7,0.5,0.7c1.4,0.3,2.4,1.5,2.3,2.9
		c0,0.2,0.1,0.4,0.3,0.5c0.2,0.1,0.4,0.1,0.6,0.1c0.4-0.1,0.8-0.2,1.2-0.1c0.6,0.1,1.1,0.4,1.4,0.9c0.1,0.2,0.3,0.2,0.5,0.2
		c0,0,0,0,0,0c0.2,0,0.4-0.1,0.5-0.3c0.8-1.1,2.2-1.7,3.6-1.4c1,0.2,1.9,0.9,2.5,1.8c0.1,0.2,0.3,0.3,0.5,0.3c0.2,0,0.4-0.1,0.5-0.3
		c0.5-0.8,1.5-1.3,2.4-1.1c1.2,0.2,2.1,1.5,1.8,2.7c0,0.1,0,0.2-0.1,0.3c-0.1,0.3,0.1,0.7,0.4,0.8c0.1,0,0.1,0,0.2,0
		c0.3,0,0.5-0.2,0.6-0.4c0.1-0.2,0.1-0.3,0.1-0.4C25.1,41.7,23.9,39.9,22,39.5z"/>
	<path class="st0" d="M37.8,13.4c0.3,0,0.6-0.3,0.6-0.6V10c0-0.6,0.5-1.2,1.1-1.2c1.5-0.1,3.8-0.1,6.5,0.8c0.3,0.1,0.7-0.1,0.8-0.4
		c0.1-0.3-0.1-0.7-0.4-0.8c-2.9-0.9-5.4-0.9-6.9-0.8c-1.3,0.1-2.3,1.2-2.3,2.4v2.8C37.2,13.1,37.5,13.4,37.8,13.4z"/>
	<path class="st0" d="M23.2,11.5v22.3c0,0.3,0.3,0.6,0.6,0.6s0.6-0.3,0.6-0.6V11.5c0-0.3-0.3-0.6-0.6-0.6S23.2,11.1,23.2,11.5z"/>
</g>
</svg>
