<?xml version="1.0" encoding="utf-8"?>
<!-- Generator: Adobe Illustrator 19.1.0, SVG Export Plug-In . SVG Version: 6.00 Build 0)  -->
<svg version="1.1" xmlns="http://www.w3.org/2000/svg" xmlns:xlink="http://www.w3.org/1999/xlink" x="0px" y="0px"
	 viewBox="0 0 237.2 157.7" style="enable-background:new 0 0 237.2 157.7;" xml:space="preserve">
<style type="text/css">
	.st0{fill:none;stroke:#FFFFFF;stroke-width:15;stroke-miterlimit:10;}
	.st1{fill:none;stroke:#FFFFFF;stroke-width:20;stroke-miterlimit:10;}
	.st2{fill:none;stroke:#FFFFFF;stroke-width:14;stroke-miterlimit:10;}
	.st3{fill:#F2F2F2;}
	.st4{fill:#F6F6F6;}
	.st5{clip-path:url(#SVGID_2_);fill:#FFFFFF;}
	.st6{clip-path:url(#SVGID_2_);}
	.st7{opacity:0.1;}
	.st8{fill:none;stroke:#595A5A;stroke-width:3.9798;stroke-miterlimit:10;}
	.st9{fill:none;stroke:#595A5A;stroke-width:3.9798;stroke-linecap:round;stroke-miterlimit:10;}
	.st10{fill:none;stroke:#595A5A;stroke-width:3.9798;stroke-linejoin:round;stroke-miterlimit:10;}
	.st11{fill:none;stroke:#595A5A;stroke-width:3.4162;stroke-miterlimit:10;}
	.st12{fill:none;stroke:#595A5B;stroke-width:4.1457;stroke-linejoin:round;stroke-miterlimit:10;}
	.st13{fill:#F5F5F5;}
	.st14{fill:#595A5B;}
	.st15{fill:none;stroke:#595A5B;stroke-width:4.0874;stroke-linecap:round;stroke-linejoin:round;stroke-miterlimit:10;}
	.st16{fill:none;stroke:#58595B;stroke-width:5;stroke-miterlimit:10;}
	.st17{fill:none;stroke:#58595B;stroke-width:5;stroke-linejoin:round;stroke-miterlimit:10;}
	.st18{fill:none;stroke:#58595B;stroke-width:5;stroke-linecap:round;stroke-linejoin:round;stroke-miterlimit:10;}
	.st19{fill:none;stroke:#595A5A;stroke-width:5;stroke-miterlimit:10;}
	.st20{fill:#EDECED;stroke:#595A5A;stroke-width:5;stroke-miterlimit:10;}
	.st21{fill:none;stroke:#595A5A;stroke-width:5;stroke-linecap:round;stroke-miterlimit:10;}
	.st22{fill:none;stroke:#595A5B;stroke-width:5;stroke-linecap:round;stroke-linejoin:round;stroke-miterlimit:10;}
	.st23{fill:#EFEFEF;stroke:#595A5B;stroke-width:5;stroke-linecap:round;stroke-linejoin:round;stroke-miterlimit:10;}
	.st24{fill:#EDECED;stroke:#595A5A;stroke-width:5;stroke-linecap:round;stroke-linejoin:round;stroke-miterlimit:10;}
	.st25{fill:none;stroke:#595A5A;stroke-width:5;stroke-linecap:round;stroke-linejoin:round;stroke-miterlimit:10;}
	.st26{fill:#EFEFEF;stroke:#595A5A;stroke-width:5;stroke-linecap:round;stroke-linejoin:round;stroke-miterlimit:10;}
	.st27{fill:#EDECEB;stroke:#595A5B;stroke-width:5;stroke-linecap:round;stroke-linejoin:round;stroke-miterlimit:10;}
	.st28{fill:none;stroke:#595A5B;stroke-width:5;stroke-linejoin:round;stroke-miterlimit:10;}
	.st29{fill:none;stroke:#595A5B;stroke-width:3.8573;stroke-linejoin:round;stroke-miterlimit:10;}
	.st30{fill:#EDECED;stroke:#595A5B;stroke-width:5;stroke-linecap:round;stroke-linejoin:round;stroke-miterlimit:10;}
	.st31{fill:none;stroke:#595A5B;stroke-width:3.9798;stroke-linejoin:round;stroke-miterlimit:10;}
	.st32{fill:#EDECED;stroke:#595A5B;stroke-width:5;stroke-miterlimit:10;}
	.st33{fill:none;stroke:#595A5B;stroke-width:5;stroke-linecap:round;stroke-miterlimit:10;}
	.st34{fill:none;stroke:#595A5B;stroke-width:4;stroke-linecap:round;stroke-linejoin:round;stroke-miterlimit:10;}
	.st35{opacity:0.1;fill:#595A5A;stroke:#EDECED;stroke-width:3;stroke-miterlimit:10;}
	.st36{opacity:0.1;fill:#595A5A;stroke:#EDECED;stroke-miterlimit:10;}
	.st37{fill:#595A5A;}
	.st38{fill:#595A5B;stroke:#595A5B;stroke-width:5;stroke-linecap:round;stroke-linejoin:round;stroke-miterlimit:10;}
	.st39{fill:#595A5B;stroke:#595A5B;stroke-miterlimit:10;}
	.st40{fill:#F15861;}
	.st41{fill:none;stroke:#F15861;stroke-width:3;stroke-miterlimit:10;}
	.st42{fill:#FFFFFF;}
	.st43{fill:#FAFAFA;}
	.st44{fill:#DD5E6D;}
	.st45{fill:#F7616E;}
	.st46{fill:none;stroke:#FFFFFF;stroke-width:3;stroke-miterlimit:10;}
	.st47{opacity:0.5;}
	.st48{fill:none;stroke:#BBBDBF;stroke-width:3;stroke-miterlimit:10;}
	.st49{fill:none;stroke:#FFFFFF;stroke-width:1.8697;stroke-miterlimit:10;}
	.st50{fill:none;stroke:#FFFFFF;stroke-width:5;stroke-linecap:round;stroke-linejoin:round;stroke-miterlimit:10;}
	.st51{clip-path:url(#SVGID_4_);}
	.st52{opacity:0.66;}
	.st53{fill:none;stroke:#000000;stroke-width:5.5545;stroke-miterlimit:10;}
	.st54{fill:none;stroke:#000000;stroke-width:5.5545;stroke-linecap:round;stroke-miterlimit:10;}
	.st55{fill:none;stroke:#000000;stroke-width:5.5545;stroke-linejoin:round;stroke-miterlimit:10;}
	.st56{fill:none;stroke:#000000;stroke-width:4.768;stroke-miterlimit:10;}
	.st57{fill:none;stroke:#000000;stroke-width:5.7861;stroke-linejoin:round;stroke-miterlimit:10;}
	.st58{fill:none;stroke:#000000;stroke-width:1.3957;stroke-miterlimit:10;}
	.st59{fill:none;stroke:#000000;stroke-width:5.7047;stroke-linecap:round;stroke-linejoin:round;stroke-miterlimit:10;}
	.st60{fill:none;stroke:#000000;stroke-width:6.9784;stroke-miterlimit:10;}
	.st61{fill:none;stroke:#000000;stroke-width:6.9784;stroke-linejoin:round;stroke-miterlimit:10;}
	.st62{fill:none;stroke:#000000;stroke-width:6.9784;stroke-linecap:round;stroke-linejoin:round;stroke-miterlimit:10;}
	.st63{fill:none;stroke:#000000;stroke-width:6.9784;stroke-linecap:round;stroke-miterlimit:10;}
	.st64{fill:none;stroke:#000000;stroke-width:5.3836;stroke-linejoin:round;stroke-miterlimit:10;}
	.st65{fill:none;stroke:#000000;stroke-width:5.5827;stroke-linecap:round;stroke-linejoin:round;stroke-miterlimit:10;}
	.st66{opacity:0.1;fill:none;stroke:#000000;stroke-width:4.1871;stroke-miterlimit:10;}
	.st67{opacity:0.1;fill:none;stroke:#000000;stroke-width:1.3957;stroke-miterlimit:10;}
	.st68{opacity:0.95;fill:#666666;}
	.st69{fill:#929497;}
	.st70{fill:#4D4D4D;}
	.st71{fill:none;stroke:#808184;stroke-width:2;stroke-miterlimit:10;}
	.st72{fill:#E6E7E8;}
	.st73{fill:none;stroke:#F15861;stroke-width:6.31;stroke-miterlimit:10;}
	.st74{fill:#FFFFFF;stroke:#F15861;stroke-width:6.31;stroke-miterlimit:10;}
	.st75{fill:none;stroke:#F15861;stroke-width:6.31;stroke-linecap:round;stroke-linejoin:round;stroke-miterlimit:10;}
	.st76{fill:#FFFFFF;stroke:#F15861;stroke-width:6.31;stroke-linecap:round;stroke-linejoin:round;stroke-miterlimit:10;}
	.st77{fill:#F15861;stroke:#F15861;stroke-width:1.262;stroke-miterlimit:10;}
	.st78{fill:none;stroke:#F15861;stroke-width:2;stroke-miterlimit:10;}
	.st79{fill:#F45962;}
	.st80{fill:none;stroke:#808184;stroke-width:1.8339;stroke-miterlimit:10;}
	.st81{fill:none;stroke:#F15861;stroke-width:1.5058;stroke-miterlimit:10;}
	.st82{fill:none;stroke:#B3B3B3;stroke-width:4.4021;stroke-linecap:round;stroke-linejoin:round;stroke-miterlimit:10;}
	.st83{fill:none;stroke:#B3B3B3;stroke-width:2.0353;stroke-linecap:round;stroke-linejoin:round;stroke-miterlimit:10;}
	.st84{fill-rule:evenodd;clip-rule:evenodd;fill:none;stroke:#B3B3B3;stroke-width:1.7644;stroke-miterlimit:10;}
	
		.st85{fill-rule:evenodd;clip-rule:evenodd;fill:none;stroke:#B3B3B3;stroke-width:2.0353;stroke-linecap:round;stroke-linejoin:round;stroke-miterlimit:10;}
	.st86{fill:none;stroke:#F15861;stroke-width:3.1591;stroke-linecap:round;stroke-linejoin:round;stroke-miterlimit:10;}
	.st87{fill:none;stroke:#E6E6E6;stroke-width:2.1513;stroke-linecap:round;stroke-linejoin:bevel;stroke-miterlimit:10;}
</style>
<symbol  id="Destination_App" viewBox="-130.8 -180.9 261.6 361.8">
	<path class="st0" d="M42.3-120.8h-88c-7.9,0-14.3,6.5-14.3,14.3v0c0,7.9,6.5,14.3,14.3,14.3h88c7.9,0,14.3-6.5,14.3-14.3v0
		C56.6-114.4,50.2-120.8,42.3-120.8z"/>
	<g>
		<path class="st0" d="M42.3-120.5h-88c-7.9,0-14.3-6.5-14.3-14.3l0,0c0-7.9,6.5-14.3,14.3-14.3h88c7.9,0,14.3,6.5,14.3,14.3l0,0
			C56.6-127,50.2-120.5,42.3-120.5z"/>
		<path class="st0" d="M-2-173.4c18.4,0,34.6,10.2,44.3,24.4l-88.7,0.2C-36.8-163.1-20.5-173.4-2-173.4z"/>
	</g>
	<path class="st1" d="M44.3-94.3c0,0,6.3,34,28.3,47.3c0,0,50.8,38.9,48.1,97.1c-2.7,58.2-44.1,120.7-120.7,120.7
		s-120.7-67-120.7-120.7s25.6-73.6,47.1-95.1c18.2-18.2,28.3-47.3,28.3-47.3"/>
	<g>
		<g>
			<path class="st0" d="M-12,0c0-8.8-7.2-16-16-16S-44-8.8-44,0s7.2,16,16,16S-12,8.9-12,0z"/>
			<path class="st0" d="M42,0c0-8.8-7.2-16-16-16S10-8.8,10,0s7.2,16,16,16S42,8.9,42,0z"/>
		</g>
		<line class="st2" x1="-29" y1="-17" x2="29" y2="-17"/>
		<line class="st2" x1="-13" y1="2" x2="-13" y2="-93"/>
		<line class="st2" x1="11" y1="2" x2="11" y2="-93"/>
	</g>
</symbol>
<g id="Layer_1">
	<g>
		<g>
			<path class="st73" d="M195.4,136.2c0,10.1-6.6,18.4-14.6,18.4H58.5c-8,0-14.6-8.3-14.6-18.4V45.7c0-10.1,6.6-18.4,14.6-18.4
				h122.3c8,0,14.6,8.3,14.6,18.4V136.2z"/>
			<path class="st73" d="M91,27.2v-5.6c0-10.1,6.6-18.4,14.6-18.4h28.1c8,0,14.6,8.3,14.6,18.4v5.6"/>
			<g>
				<line class="st73" x1="73.3" y1="27.2" x2="73.3" y2="154.6"/>
				<line class="st73" x1="165.9" y1="27.2" x2="165.9" y2="154.6"/>
			</g>
		</g>
		<g>
			<path class="st74" d="M63.4,47.9L28.5,82.7c-1.8,1.8-4.8,1.7-6.7-0.2L4.6,65.4c-1.9-1.9-2-4.9-0.2-6.7l34.9-34.9
				c1.8-1.8,20,3.7,20,3.7S65.2,46.1,63.4,47.9z"/>
			<path class="st74" d="M51.6,35.6c2.3,2.3,2.3,6,0,8.3c-2.3,2.3-6,2.3-8.3,0c-2.3-2.3-2.3-6,0-8.3C45.5,33.3,49.3,33.3,51.6,35.6z
				"/>
		</g>
		<g>
			<g>
				<path class="st42" d="M234.1,119.4c0,0.7-0.6,1.3-1.3,1.3h-69.4c-0.7,0-1.3-0.6-1.3-1.3V93.6c0-0.7,0.6-1.3,1.3-1.3h69.4
					c0.7,0,1.3,0.6,1.3,1.3V119.4z"/>
				<path class="st75" d="M234.1,119.4c0,0.7-0.6,1.3-1.3,1.3h-69.4c-0.7,0-1.3-0.6-1.3-1.3V93.6c0-0.7,0.6-1.3,1.3-1.3h69.4
					c0.7,0,1.3,0.6,1.3,1.3V119.4z"/>
			</g>
			<g>
				<path class="st42" d="M230.7,153.3c0,0.7-0.6,1.3-1.3,1.3h-62.6c-0.7,0-1.3-0.6-1.3-1.3v-31.4c0-0.7,0.6-1.3,1.3-1.3h62.6
					c0.7,0,1.3,0.6,1.3,1.3V153.3z"/>
				<path class="st75" d="M230.7,153.3c0,0.7-0.6,1.3-1.3,1.3h-62.6c-0.7,0-1.3-0.6-1.3-1.3v-31.4c0-0.7,0.6-1.3,1.3-1.3h62.6
					c0.7,0,1.3,0.6,1.3,1.3V153.3z"/>
			</g>
			<g>
				<line class="st76" x1="182.1" y1="113" x2="182.1" y2="133.7"/>
				<line class="st76" x1="214.1" y1="113" x2="214.1" y2="133.7"/>
			</g>
			<polyline class="st75" points="184,92.3 184,82.7 212.2,82.7 212.2,92.3 			"/>
		</g>
		<path class="st76" d="M120.5,27.2l22.7,45.4l34.1-45.4l-13.9-4.6c-12.9-4.3-27.1-3.3-39.3,2.8L120.5,27.2z"/>
		<circle class="st77" cx="146.4" cy="58.1" r="3.2"/>
		<circle class="st77" cx="146.4" cy="30.4" r="3.2"/>
		<circle class="st77" cx="128.7" cy="35.4" r="3.2"/>
		<circle class="st77" cx="151.4" cy="41.7" r="3.2"/>
		<circle class="st77" cx="162.8" cy="41.7" r="3.2"/>
		<circle class="st77" cx="162.8" cy="26.6" r="3.2"/>
		<circle class="st77" cx="140.1" cy="46.8" r="3.2"/>
		<circle class="st77" cx="135" cy="24.1" r="3.2"/>
		<g>
			<path class="st40" d="M32.7,51.4l-1.4,1.5L23,50.7l-2.4,2.5l6.9,3.6l-3.4,3.5l-3.4-0.5l-2,2l4.6,2.7l2.8,4.5l2-2l-0.6-3.4L31,60
				l3.8,6.8l2.4-2.5l-2.5-8.1l1.4-1.5c1-1,1-2.5,0-3.4C35.2,50.3,33.6,50.4,32.7,51.4z"/>
		</g>
	</g>
</g>
<g id="Layer_2">
</g>
</svg>
